g tube
v -2.310359 1.427971 -4.39798
v -2.312562 1.427976 -4.396798
v -2.310121 1.423162 -4.397517
v -2.312324 1.423161 -4.396334
v -2.312562 1.427976 -4.396798
v -2.312645 1.428211 -4.39431
v -2.312324 1.423161 -4.396334
v -2.312407 1.423394 -4.393847
v -2.312645 1.428211 -4.39431
v -2.310526 1.428442 -4.393004
v -2.312407 1.423394 -4.393847
v -2.310287 1.423628 -4.392541
v -2.310526 1.428442 -4.393004
v -2.308323 1.428437 -4.394186
v -2.310287 1.423628 -4.392541
v -2.308085 1.423629 -4.393724
v -2.308323 1.428437 -4.394186
v -2.30824 1.428202 -4.396674
v -2.308085 1.423629 -4.393724
v -2.308002 1.423396 -4.396212
v -2.30824 1.428202 -4.396674
v -2.310359 1.427971 -4.39798
v -2.308002 1.423396 -4.396212
v -2.310121 1.423162 -4.397517
v -2.309378 1.409333 -4.396211
v -2.31158 1.40932 -4.395028
v -2.31158 1.40932 -4.395028
v -2.311664 1.409547 -4.392539
v -2.311664 1.409547 -4.392539
v -2.309545 1.409788 -4.391234
v -2.309545 1.409788 -4.391234
v -2.307343 1.409802 -4.392417
v -2.307343 1.409802 -4.392417
v -2.307259 1.409574 -4.394906
v -2.307259 1.409574 -4.394906
v -2.309378 1.409333 -4.396211
v -2.308086 1.387383 -4.394183
v -2.310287 1.387355 -4.392999
v -2.310287 1.387355 -4.392999
v -2.310371 1.387577 -4.390511
v -2.310371 1.387577 -4.390511
v -2.308253 1.387827 -4.389206
v -2.308253 1.387827 -4.389206
v -2.306052 1.387855 -4.39039
v -2.306052 1.387855 -4.39039
v -2.305968 1.387633 -4.392879
v -2.305968 1.387633 -4.392879
v -2.308086 1.387383 -4.394183
v -2.306202 1.358215 -4.391557
v -2.308403 1.358171 -4.390372
v -2.308403 1.358171 -4.390372
v -2.308486 1.358386 -4.387883
v -2.308486 1.358386 -4.387883
v -2.30637 1.358645 -4.386579
v -2.30637 1.358645 -4.386579
v -2.304169 1.358689 -4.387764
v -2.304169 1.358689 -4.387764
v -2.304085 1.358474 -4.390253
v -2.304085 1.358474 -4.390253
v -2.306202 1.358215 -4.391557
v -2.303682 1.322729 -4.388455
v -2.305882 1.322667 -4.387269
v -2.305882 1.322667 -4.387269
v -2.305966 1.322875 -4.384779
v -2.305966 1.322875 -4.384779
v -2.303851 1.323145 -4.383475
v -2.303851 1.323145 -4.383475
v -2.301651 1.323207 -4.384661
v -2.301651 1.323207 -4.384661
v -2.301567 1.322999 -4.387151
v -2.301567 1.322999 -4.387151
v -2.303682 1.322729 -4.388455
v -2.300484 1.281828 -4.385
v -2.302683 1.281746 -4.383813
v -2.302683 1.281746 -4.383813
v -2.302767 1.281945 -4.381322
v -2.302767 1.281945 -4.381322
v -2.300653 1.282227 -4.380019
v -2.300653 1.282227 -4.380019
v -2.298454 1.282309 -4.381206
v -2.298454 1.282309 -4.381206
v -2.29837 1.28211 -4.383696
v -2.29837 1.28211 -4.383696
v -2.300484 1.281828 -4.385
v -2.296563 1.236413 -4.381315
v -2.298761 1.236308 -4.380127
v -2.298761 1.236308 -4.380127
v -2.298845 1.236498 -4.377635
v -2.298845 1.236498 -4.377635
v -2.296733 1.236793 -4.376332
v -2.296733 1.236793 -4.376332
v -2.294535 1.236899 -4.37752
v -2.294535 1.236899 -4.37752
v -2.294451 1.236709 -4.380011
v -2.294451 1.236709 -4.380011
v -2.296563 1.236413 -4.381315
v -2.291877 1.187387 -4.377521
v -2.294073 1.187255 -4.376333
v -2.294073 1.187255 -4.376333
v -2.294158 1.187433 -4.37384
v -2.294158 1.187433 -4.37384
v -2.292047 1.187744 -4.372537
v -2.292047 1.187744 -4.372537
v -2.289852 1.187876 -4.373725
v -2.289852 1.187876 -4.373725
v -2.289767 1.187698 -4.376218
v -2.289767 1.187698 -4.376218
v -2.291877 1.187387 -4.377521
v -2.286382 1.13565 -4.373743
v -2.288575 1.135487 -4.372553
v -2.288575 1.135487 -4.372553
v -2.28866 1.135654 -4.37006
v -2.28866 1.135654 -4.37006
v -2.286552 1.135982 -4.368757
v -2.286552 1.135982 -4.368757
v -2.284359 1.136145 -4.369946
v -2.284359 1.136145 -4.369946
v -2.284274 1.135979 -4.372439
v -2.284274 1.135979 -4.372439
v -2.286382 1.13565 -4.373743
v -2.280039 1.081946 -4.370088
v -2.282207 1.081698 -4.368867
v -2.282207 1.081698 -4.368867
v -2.282287 1.082009 -4.366388
v -2.282287 1.082009 -4.366388
v -2.2802 1.082567 -4.365129
v -2.2802 1.082567 -4.365129
v -2.278033 1.082814 -4.36635
v -2.278033 1.082814 -4.36635
v -2.277952 1.082504 -4.368829
v -2.277952 1.082504 -4.368829
v -2.280039 1.081946 -4.370088
v -2.267255 1.032343 -4.360275
v -2.269306 1.031979 -4.358894
v -2.269306 1.031979 -4.358894
v -2.26937 1.032763 -4.356521
v -2.26937 1.032763 -4.356521
v -2.267383 1.033911 -4.35553
v -2.267383 1.033911 -4.35553
v -2.265332 1.034275 -4.356911
v -2.265332 1.034275 -4.356911
v -2.265268 1.033491 -4.359284
v -2.265268 1.033491 -4.359284
v -2.267255 1.032343 -4.360275
v -2.244094 0.9920505 -4.339545
v -2.245946 0.9917816 -4.337887
v -2.245946 0.9917816 -4.337887
v -2.245983 0.9931813 -4.335816
v -2.245983 0.9931813 -4.335816
v -2.244167 0.99485 -4.335403
v -2.244167 0.99485 -4.335403
v -2.242316 0.9951189 -4.33706
v -2.242316 0.9951189 -4.33706
v -2.242279 0.9937191 -4.339132
v -2.242279 0.9937191 -4.339132
v -2.244094 0.9920505 -4.339545
v -2.244094 0.9920505 -4.339545
v -2.212999 0.9604161 -4.310405
v -2.214688 0.9604568 -4.308562
v -2.214696 0.9623383 -4.306916
v -2.214688 0.9604568 -4.308562
v -2.213016 0.9641791 -4.307113
v -2.213016 0.9641791 -4.307113
v -2.211327 0.9641384 -4.308956
v -2.211327 0.9641384 -4.308956
v -2.211319 0.962257 -4.310602
v -2.211319 0.962257 -4.310602
v -2.212999 0.9604161 -4.310405
v -2.17642 0.9365532 -4.275403
v -2.178008 0.936949 -4.273514
v -2.214696 0.9623383 -4.306916
v -2.177992 0.9391377 -4.272305
v -2.178008 0.936949 -4.273514
v -2.176389 0.9409305 -4.272988
v -2.176389 0.9409305 -4.272988
v -2.174801 0.9405347 -4.274878
v -2.176389 0.9409305 -4.272988
v -2.174817 0.938346 -4.276086
v -2.174817 0.938346 -4.276086
v -2.17642 0.9365532 -4.275403
v -2.13681 0.9194952 -4.237045
v -2.138342 0.9201968 -4.235198
v -2.138342 0.9201968 -4.235198
v -2.138308 0.9225569 -4.234375
v -2.136741 0.9242153 -4.235397
v -2.136741 0.9242153 -4.235397
v -2.135209 0.9235136 -4.237243
v -2.135243 0.9211535 -4.238067
v -2.135243 0.9211535 -4.238067
v -2.13681 0.9194952 -4.237045
v -2.096622 0.9082622 -4.197778
v -2.098128 0.9092042 -4.196018
v -2.098128 0.9092042 -4.196018
v -2.09808 0.9116519 -4.195512
v -2.096527 0.9131575 -4.196765
v -2.096527 0.9131575 -4.196765
v -2.095021 0.9122155 -4.198525
v -2.095069 0.9097678 -4.199032
v -2.095069 0.9097678 -4.199032
v -2.096622 0.9082622 -4.197778
v -2.096622 0.9082622 -4.197778
v -2.098128 0.9092042 -4.196018
v -2.058315 0.9018907 -4.160027
v -2.059808 0.9030221 -4.158372
v -2.059808 0.9030221 -4.158372
v -2.059749 0.9055098 -4.158132
v -2.058197 0.9068661 -4.159546
v -2.058197 0.9068661 -4.159546
v -2.056704 0.9057348 -4.161201
v -2.056762 0.9032471 -4.161442
v -2.056762 0.9032471 -4.161442
v -2.058315 0.9018907 -4.160027
v -2.024341 0.8994339 -4.126201
v -2.025834 0.9007252 -4.124666
v -2.025834 0.9007252 -4.124666
v -2.025766 0.9032243 -4.124667
v -2.024206 0.9044321 -4.126203
v -2.024206 0.9044321 -4.126203
v -2.022713 0.9031407 -4.127737
v -2.022781 0.9006416 -4.127736
v -2.022781 0.9006416 -4.127736
v -2.024341 0.8994339 -4.126201
v -1.997158 0.8999617 -4.098684
v -1.998664 0.9014153 -4.097316
v -1.998664 0.9014153 -4.097316
v -1.998587 0.9038995 -4.097587
v -1.997005 0.9049299 -4.099226
v -1.997005 0.9049299 -4.099226
v -1.995499 0.9034762 -4.100594
v -1.995576 0.9009921 -4.100323
v -1.995576 0.9009921 -4.100323
v -1.997158 0.8999617 -4.098684
v -1.979217 0.9025336 -4.080023
v -1.980767 0.9040836 -4.078821
v -1.980767 0.9040836 -4.078821
v -1.980684 0.9065395 -4.079281
v -1.979051 0.9074454 -4.080943
v -1.979051 0.9074454 -4.080943
v -1.977501 0.9058954 -4.082145
v -1.977584 0.9034395 -4.081685
v -1.977584 0.9034395 -4.081685
v -1.979217 0.9025336 -4.080023
v -1.967328 0.9048274 -4.066808
v -1.968941 0.9063141 -4.065609
v -1.968941 0.9063141 -4.065609
v -1.968861 0.9087877 -4.065962
v -1.967169 0.9097744 -4.067515
v -1.967169 0.9097744 -4.067515
v -1.965556 0.9082876 -4.068715
v -1.965636 0.9058141 -4.068361
v -1.965636 0.9058141 -4.068361
v -1.967328 0.9048274 -4.066808
v -1.956555 0.9056087 -4.05376
v -1.958225 0.9069675 -4.052488
v -1.958225 0.9069675 -4.052488
v -1.958153 0.9094637 -4.052604
v -1.956412 0.9106013 -4.053991
v -1.956412 0.9106013 -4.053991
v -1.954743 0.9092425 -4.055263
v -1.954814 0.9067462 -4.055147
v -1.954814 0.9067462 -4.055147
v -1.956555 0.9056087 -4.05376
v -1.94672 0.9054556 -4.040842
v -1.94843 0.9067415 -4.039548
v -1.94843 0.9067415 -4.039548
v -1.948363 0.9092405 -4.039528
v -1.946587 0.9104537 -4.040802
v -1.946587 0.9104537 -4.040802
v -1.944877 0.9091679 -4.042096
v -1.944944 0.9066689 -4.042116
v -1.944944 0.9066689 -4.042116
v -1.94672 0.9054556 -4.040842
v -1.93764 0.9049053 -4.028252
v -1.939368 0.9061762 -4.026968
v -1.939368 0.9061762 -4.026968
v -1.939303 0.9086748 -4.026918
v -1.937509 0.9099025 -4.028153
v -1.937509 0.9099025 -4.028153
v -1.935781 0.9086316 -4.029438
v -1.935847 0.9061329 -4.029487
v -1.935847 0.9061329 -4.029487
v -1.93764 0.9049053 -4.028252
v -1.92913 0.9045071 -4.016172
v -1.930852 0.9058264 -4.01493
v -1.930852 0.9058264 -4.01493
v -1.930783 0.9083251 -4.014972
v -1.928992 0.9095045 -4.016257
v -1.928992 0.9095045 -4.016257
v -1.92727 0.9081852 -4.0175
v -1.927339 0.9056865 -4.017457
v -1.927339 0.9056865 -4.017457
v -1.92913 0.9045071 -4.016172
v -1.921006 0.904831 -4.004777
v -1.922695 0.9062727 -4.00363
v -1.922695 0.9062727 -4.00363
v -1.922618 0.9087555 -4.003912
v -1.920851 0.9097967 -4.005342
v -1.920851 0.9097967 -4.005342
v -1.919162 0.9083549 -4.006489
v -1.919239 0.9058721 -4.006207
v -1.919239 0.9058721 -4.006207
v -1.921006 0.904831 -4.004777
v -1.913083 0.9064847 -3.994231
v -1.91472 0.9081256 -3.993295
v -1.91472 0.9081256 -3.993295
v -1.91463 0.9105225 -3.994
v -1.912902 0.9112784 -3.995641
v -1.912902 0.9112784 -3.995641
v -1.911265 0.9096375 -3.996578
v -1.911355 0.9072406 -3.995872
v -1.911355 0.9072406 -3.995872
v -1.913083 0.9064847 -3.994231
v -1.905172 0.9101257 -3.98475
v -1.906763 0.9119825 -3.984228
v -1.905172 0.9101257 -3.98475
v -1.906659 0.9141189 -3.985522
v -1.904964 0.9143988 -3.987338
v -1.904964 0.9143988 -3.987338
v -1.903373 0.912542 -3.98786
v -1.903478 0.9104056 -3.986566
v -1.903373 0.912542 -3.98786
v -1.913083 0.9064847 -3.994231
v -1.905172 0.9101257 -3.98475
v -1.903478 0.9104056 -3.986566
v -1.906763 0.9119825 -3.984228
v -1.897082 0.916375 -3.976694
v -1.898677 0.9182987 -3.976779
v -1.897082 0.916375 -3.976694
v -1.898565 0.919933 -3.978667
v -1.896858 0.9196438 -3.980471
v -1.896858 0.9196438 -3.980471
v -1.895263 0.9177201 -3.980386
v -1.895263 0.9177201 -3.980386
v -1.895376 0.9160858 -3.978497
v -1.895376 0.9160858 -3.978497
v -1.897082 0.916375 -3.976694
v -1.888626 0.9254779 -3.97056
v -1.890243 0.9273173 -3.971062
v -1.890131 0.9285159 -3.973253
v -1.898565 0.919933 -3.978667
v -1.896858 0.9196438 -3.980471
v -1.890131 0.9285159 -3.973253
v -1.888403 0.9278751 -3.974942
v -1.888403 0.9278751 -3.974942
v -1.886786 0.9260357 -3.97444
v -1.886786 0.9260357 -3.97444
v -1.886897 0.9248372 -3.972249
v -1.886897 0.9248372 -3.972249
v -1.888626 0.9254779 -3.97056
v -1.878404 0.9365236 -3.964789
v -1.879982 0.9383879 -3.965323
v -1.879871 0.9395199 -3.96755
v -1.879871 0.9395199 -3.96755
v -1.878183 0.9387875 -3.969242
v -1.878183 0.9387875 -3.969242
v -1.876605 0.9369231 -3.968708
v -1.876605 0.9369231 -3.968708
v -1.876716 0.9357911 -3.966481
v -1.876716 0.9357911 -3.966481
v -1.878404 0.9365236 -3.964789
v -1.865715 0.9483917 -3.95771
v -1.86724 0.9503298 -3.95812
v -1.867128 0.9515715 -3.960287
v -1.867128 0.9515715 -3.960287
v -1.865492 0.950875 -3.962044
v -1.865492 0.950875 -3.962044
v -1.863967 0.9489369 -3.961634
v -1.863967 0.9489369 -3.961634
v -1.864078 0.9476953 -3.959467
v -1.864078 0.9476953 -3.959467
v -1.865715 0.9483917 -3.95771
v -1.851425 0.9607604 -3.949476
v -1.852926 0.9627365 -3.949778
v -1.852814 0.9640808 -3.951883
v -1.852814 0.9640808 -3.951883
v -1.851201 0.9634488 -3.953685
v -1.851201 0.9634488 -3.953685
v -1.849699 0.9614727 -3.953382
v -1.849699 0.9614727 -3.953382
v -1.849812 0.9601285 -3.951278
v -1.849812 0.9601285 -3.951278
v -1.851425 0.9607604 -3.949476
v -1.836404 0.9731137 -3.940342
v -1.837902 0.9751051 -3.940541
v -1.83779 0.9765562 -3.942574
v -1.83779 0.9765562 -3.942574
v -1.836179 0.9760159 -3.944408
v -1.836179 0.9760159 -3.944408
v -1.834681 0.9740245 -3.944209
v -1.834681 0.9740245 -3.944209
v -1.834793 0.9725734 -3.942177
v -1.834793 0.9725734 -3.942177
v -1.836404 0.9731137 -3.940342
v -1.821521 0.984937 -3.930567
v -1.823037 0.986923 -3.930656
v -1.822925 0.9884947 -3.932597
v -1.822925 0.9884947 -3.932597
v -1.821296 0.9880804 -3.934448
v -1.821296 0.9880804 -3.934448
v -1.81978 0.9860944 -3.934359
v -1.81978 0.9860944 -3.934359
v -1.819893 0.9845228 -3.932418
v -1.819893 0.9845228 -3.932418
v -1.821521 0.984937 -3.930567
v -1.807646 0.9957153 -3.920412
v -1.809205 0.9976695 -3.920381
v -1.809093 0.9993858 -3.922196
v -1.809093 0.9993858 -3.922196
v -1.807422 0.999148 -3.92404
v -1.807422 0.999148 -3.92404
v -1.805863 0.9971938 -3.924071
v -1.805863 0.9971938 -3.924071
v -1.805975 0.9954774 -3.922256
v -1.805975 0.9954774 -3.922256
v -1.807646 0.9957153 -3.920412
v -1.795646 1.004931 -3.910154
v -1.797287 1.00681 -3.909994
v -1.797178 1.008708 -3.911618
v -1.797178 1.008708 -3.911618
v -1.795426 1.008726 -3.913402
v -1.795426 1.008726 -3.913402
v -1.793785 1.006847 -3.913562
v -1.793785 1.006847 -3.913562
v -1.793895 1.00495 -3.911938
v -1.793895 1.00495 -3.911938
v -1.795646 1.004931 -3.910154
v -1.78639 1.012071 -3.900095
v -1.788181 1.013795 -3.89983
v -1.788076 1.015919 -3.901146
v -1.788076 1.015919 -3.901146
v -1.78618 1.016318 -3.902726
v -1.78618 1.016318 -3.902726
v -1.784389 1.014594 -3.902991
v -1.784389 1.014594 -3.902991
v -1.784494 1.012471 -3.901675
v -1.784494 1.012471 -3.901675
v -1.78639 1.012071 -3.900095
v -1.780742 1.016655 -3.890581
v -1.782765 1.018113 -3.890401
v -1.782673 1.020483 -3.891191
v -1.782673 1.020483 -3.891191
v -1.780557 1.021395 -3.892162
v -1.780557 1.021395 -3.892162
v -1.778534 1.019937 -3.892342
v -1.778534 1.019937 -3.892342
v -1.778627 1.017568 -3.891551
v -1.778627 1.017568 -3.891551
v -1.780742 1.016655 -3.890581
v -1.779418 1.018318 -3.881815
v -1.78161 1.019487 -3.882096
v -1.781691 1.021984 -3.882189
v -1.781691 1.021984 -3.882189
v -1.779581 1.023312 -3.882002
v -1.779581 1.023312 -3.882002
v -1.77739 1.022143 -3.881721
v -1.77739 1.022143 -3.881721
v -1.777308 1.019646 -3.881628
v -1.777308 1.019646 -3.881628
v -1.779418 1.018318 -3.881815
v -1.779418 1.018318 -3.881815
v -1.78161 1.019487 -3.882096
v -1.782052 1.017303 -3.873871
v -1.784142 1.018377 -3.874725
v -1.784142 1.018377 -3.874725
v -1.781691 1.021984 -3.882189
v -1.784557 1.020807 -3.874313
v -1.784142 1.018377 -3.874725
v -1.784557 1.020807 -3.874313
v -1.782882 1.022164 -3.873047
v -1.779581 1.023312 -3.882002
v -1.77739 1.022143 -3.881721
v -1.782882 1.022164 -3.873047
v -1.780792 1.02109 -3.872193
v -1.77739 1.022143 -3.881721
v -1.777308 1.019646 -3.881628
v -1.780792 1.02109 -3.872193
v -1.780377 1.01866 -3.872605
v -1.780377 1.01866 -3.872605
v -1.782052 1.017303 -3.873871
v -1.78741 1.01431 -3.866854
v -1.78929 1.015399 -3.86809
v -1.784557 1.020807 -3.874313
v -1.790014 1.017713 -3.867479
v -1.790014 1.017713 -3.867479
v -1.788858 1.018937 -3.865631
v -1.788858 1.018937 -3.865631
v -1.786978 1.017848 -3.864395
v -1.786978 1.017848 -3.864395
v -1.786254 1.015535 -3.865006
v -1.786254 1.015535 -3.865006
v -1.78741 1.01431 -3.866854
v -1.794775 1.009769 -3.860714
v -1.796449 1.010788 -3.862267
v -1.797463 1.013008 -3.861729
v -1.797463 1.013008 -3.861729
v -1.796804 1.01421 -3.859638
v -1.796804 1.01421 -3.859638
v -1.795131 1.013191 -3.858085
v -1.795131 1.013191 -3.858085
v -1.794116 1.01097 -3.858624
v -1.794116 1.01097 -3.858624
v -1.794775 1.009769 -3.860714
v -1.803447 1.004196 -3.855369
v -1.804873 1.004971 -3.85727
v -1.806152 1.007111 -3.857083
v -1.806152 1.007111 -3.857083
v -1.806005 1.008476 -3.854993
v -1.806005 1.008476 -3.854993
v -1.804579 1.007701 -3.853092
v -1.804579 1.007701 -3.853092
v -1.8033 1.005561 -3.853279
v -1.8033 1.005561 -3.853279
v -1.803447 1.004196 -3.855369
v -1.812777 0.9981775 -3.850765
v -1.804873 1.004971 -3.85727
v -1.813836 0.9985107 -3.853005
v -1.812777 0.9981775 -3.850765
v -1.813836 0.9985107 -3.853005
v -1.815292 1.000501 -3.853416
v -1.815292 1.000501 -3.853416
v -1.815689 1.002158 -3.851586
v -1.815689 1.002158 -3.851586
v -1.81463 1.001825 -3.849346
v -1.81463 1.001825 -3.849346
v -1.813174 0.9998345 -3.848936
v -1.813174 0.9998345 -3.848936
v -1.812777 0.9981775 -3.850765
v -1.822142 0.9922793 -3.846987
v -1.822722 0.9920642 -3.849409
v -1.822722 0.9920642 -3.849409
v -1.824182 0.9937744 -3.850502
v -1.824182 0.9937744 -3.850502
v -1.825062 0.9956996 -3.849172
v -1.825062 0.9956996 -3.849172
v -1.824483 0.9959147 -3.84675
v -1.824483 0.9959147 -3.84675
v -1.823022 0.9942045 -3.845657
v -1.823022 0.9942045 -3.845657
v -1.822142 0.9922793 -3.846987
v -1.830815 0.9869434 -3.844175
v -1.830928 0.986246 -3.846573
v -1.830928 0.986246 -3.846573
v -1.824182 0.9937744 -3.850502
v -1.832237 0.9876083 -3.84821
v -1.832237 0.9876083 -3.84821
v -1.833432 0.989668 -3.84745
v -1.833432 0.989668 -3.84745
v -1.824483 0.9959147 -3.84675
v -1.833319 0.9903654 -3.845052
v -1.833319 0.9903654 -3.845052
v -1.83201 0.9890031 -3.843414
v -1.822142 0.9922793 -3.846987
v -1.830815 0.9869434 -3.844175
v -1.837983 0.9825689 -3.842312
v -1.837739 0.9815362 -3.844576
v -1.838844 0.9825884 -3.846556
v -1.838844 0.9825884 -3.846556
v -1.840194 0.9846733 -3.846272
v -1.840439 0.9857059 -3.844009
v -1.840439 0.9857059 -3.844009
v -1.83201 0.9890031 -3.843414
v -1.839333 0.9846538 -3.842029
v -1.840439 0.9857059 -3.844009
v -1.839333 0.9846538 -3.842029
v -1.837983 0.9825689 -3.842312
v -1.842867 0.9796218 -3.841264
v -1.837739 0.9815362 -3.844576
v -1.842377 0.9783771 -3.843376
v -1.842867 0.9796218 -3.841264
v -1.842377 0.9783771 -3.843376
v -1.843298 0.9791954 -3.845551
v -1.843298 0.9791954 -3.845551
v -1.844708 0.9812586 -3.845615
v -1.845198 0.9825033 -3.843503
v -1.845198 0.9825033 -3.843503
v -1.844277 0.981685 -3.841328
v -1.844277 0.981685 -3.841328
v -1.842867 0.9796218 -3.841264
v -1.844671 0.9785408 -3.840934
v -1.844089 0.9772213 -3.842976
v -1.844089 0.9772213 -3.842976
v -1.84493 0.9779482 -3.845215
v -1.84493 0.9779482 -3.845215
v -1.846352 0.9799948 -3.845413
v -1.846934 0.9813143 -3.843371
v -1.846934 0.9813143 -3.843371
v -1.846093 0.9805873 -3.841131
v -1.846093 0.9805873 -3.841131
v -1.844671 0.9785408 -3.840934

vn 0.03328139 -0.09407476 -0.9950086
vn -0.8478026 -0.09226649 -0.5222235
vn 0.03328436 -0.09312946 -0.9950975
vn -0.8477626 -0.09351235 -0.5220669
vn -0.8478026 -0.09226649 -0.5222235
vn -0.8811393 0.001859749 0.472853
vn -0.8477626 -0.09351235 -0.5220669
vn -0.8810613 -0.0003814531 0.4730019
vn -0.8811393 0.001859749 0.472853
vn -0.03328139 0.09407476 0.9950086
vn -0.8810613 -0.0003814531 0.4730019
vn -0.03328436 0.09312946 0.9950975
vn -0.03328139 0.09407476 0.9950086
vn 0.8478026 0.09226649 0.5222235
vn -0.03328436 0.09312946 0.9950975
vn 0.8477626 0.09351235 0.5220669
vn 0.8478026 0.09226649 0.5222235
vn 0.8811393 -0.001859749 -0.472853
vn 0.8477626 0.09351235 0.5220669
vn 0.8810613 0.0003814531 -0.4730019
vn 0.8811393 -0.001859749 -0.472853
vn 0.03328139 -0.09407476 -0.9950086
vn 0.8810613 0.0003814531 -0.4730019
vn 0.03328436 -0.09312946 -0.9950975
vn 0.03337959 -0.0910786 -0.9952841
vn -0.8474748 -0.09641016 -0.5220071
vn -0.8474748 -0.09641016 -0.5220071
vn -0.8808472 -0.005340201 0.4733707
vn -0.8808472 -0.005340201 0.4733707
vn -0.03337959 0.0910786 0.9952841
vn -0.03337959 0.0910786 0.9952841
vn 0.8474748 0.09641016 0.5220071
vn 0.8474748 0.09641016 0.5220071
vn 0.8808472 0.005340201 -0.4733707
vn 0.8808472 0.005340201 -0.4733707
vn 0.03337959 -0.0910786 -0.9952841
vn 0.03347553 -0.08874355 -0.9954918
vn -0.8471662 -0.09985174 -0.5218613
vn -0.8471662 -0.09985174 -0.5218613
vn -0.8806612 -0.01115847 0.4736153
vn -0.8806612 -0.01115847 0.4736153
vn -0.03347553 0.08874355 0.9954918
vn -0.03347553 0.08874355 0.9954918
vn 0.8471662 0.09985174 0.5218613
vn 0.8471662 0.09985174 0.5218613
vn 0.8806612 0.01115847 -0.4736153
vn 0.8806612 0.01115847 -0.4736153
vn 0.03347553 -0.08874355 -0.9954918
vn 0.03357226 -0.0860766 -0.9957227
vn -0.8468138 -0.1036701 -0.5216884
vn -0.8468138 -0.1036701 -0.5216884
vn -0.8803562 -0.01759568 0.4739866
vn -0.8803562 -0.01759568 0.4739866
vn -0.03357226 0.0860766 0.9957227
vn -0.03357226 0.0860766 0.9957227
vn 0.8468138 0.1036701 0.5216884
vn 0.8468138 0.1036701 0.5216884
vn 0.8803562 0.01759568 -0.4739866
vn 0.8803562 0.01759568 -0.4739866
vn 0.03357226 -0.0860766 -0.9957227
vn 0.03366316 -0.0831089 -0.9959717
vn -0.8463213 -0.1079477 -0.52162
vn -0.8463213 -0.1079477 -0.52162
vn -0.8799757 -0.02484379 0.4743686
vn -0.8799757 -0.02484379 0.4743686
vn -0.03366316 0.0831089 0.9959717
vn -0.03366316 0.0831089 0.9959717
vn 0.8463213 0.1079477 0.52162
vn 0.8463213 0.1079477 0.52162
vn 0.8799757 0.02484379 -0.4743686
vn 0.8799757 0.02484379 -0.4743686
vn 0.03366316 -0.0831089 -0.9959717
vn 0.0337613 -0.07973009 -0.9962446
vn -0.8457978 -0.1127222 -0.5214593
vn -0.8457978 -0.1127222 -0.5214593
vn -0.8795012 -0.03299798 0.4747513
vn -0.8795012 -0.03299798 0.4747513
vn -0.0337613 0.07973009 0.9962446
vn -0.0337613 0.07973009 0.9962446
vn 0.8457978 0.1127222 0.5214593
vn 0.8457978 0.1127222 0.5214593
vn 0.8795012 0.03299798 -0.4747513
vn 0.8795012 0.03299798 -0.4747513
vn 0.0337613 -0.07973009 -0.9962446
vn 0.03385375 -0.07590869 -0.99654
vn -0.8450497 -0.1181601 -0.5214684
vn -0.8450497 -0.1181601 -0.5214684
vn -0.878906 -0.04224776 0.4751204
vn -0.878906 -0.04224776 0.4751204
vn -0.03385375 0.07590869 0.99654
vn -0.03385375 0.07590869 0.99654
vn 0.8450497 0.1181601 0.5214684
vn 0.8450497 0.1181601 0.5214684
vn 0.878906 0.04224776 -0.4751204
vn 0.878906 0.04224776 -0.4751204
vn 0.03385375 -0.07590869 -0.99654
vn 0.03395353 -0.0715313 -0.9968603
vn -0.8441688 -0.1243556 -0.5214545
vn -0.8441688 -0.1243556 -0.5214545
vn -0.8781305 -0.05283279 0.4754951
vn -0.8781305 -0.05283279 0.4754951
vn -0.03395353 0.0715313 0.9968603
vn -0.03395353 0.0715313 0.9968603
vn 0.8441688 0.1243556 0.5214545
vn 0.8441688 0.1243556 0.5214545
vn 0.8781305 0.05283279 -0.4754951
vn 0.8781305 0.05283279 -0.4754951
vn 0.03395353 -0.0715313 -0.9968603
vn 0.03414297 -0.06647389 -0.9972038
vn -0.8430721 -0.1314678 -0.521484
vn -0.8430721 -0.1314678 -0.521484
vn -0.877203 -0.0649939 0.4757
vn -0.877203 -0.0649939 0.4757
vn -0.03414297 0.06647389 0.9972038
vn -0.03414297 0.06647389 0.9972038
vn 0.8430721 0.1314678 0.521484
vn 0.8430721 0.1314678 0.521484
vn 0.877203 0.0649939 -0.4757
vn 0.877203 0.0649939 -0.4757
vn 0.03414297 -0.06647389 -0.9972038
vn 0.03233251 -0.1242751 -0.9917209
vn -0.8346834 -0.2231417 -0.5034992
vn -0.8346834 -0.2231417 -0.5034992
vn -0.8670686 -0.09889465 0.4882744
vn -0.8670686 -0.09889465 0.4882744
vn -0.03233251 0.1242751 0.9917209
vn -0.03233251 0.1242751 0.9917209
vn 0.8346834 0.2231417 0.5034992
vn 0.8346834 0.2231417 0.5034992
vn 0.8670686 0.09889465 -0.4882744
vn 0.8670686 0.09889465 -0.4882744
vn 0.03233251 -0.1242751 -0.9917209
vn 0.02575137 -0.3136898 -0.9491763
vn -0.7948735 -0.4592814 -0.3965308
vn -0.7948735 -0.4592814 -0.3965308
vn -0.8205302 -0.1456241 0.5527421
vn -0.8205302 -0.1456241 0.5527421
vn -0.02575137 0.3136898 0.9491763
vn -0.02575137 0.3136898 0.9491763
vn 0.7948735 0.4592814 0.3965308
vn 0.7948735 0.4592814 0.3965308
vn 0.8205302 0.1456241 -0.5527421
vn 0.8205302 0.1456241 -0.5527421
vn 0.02575137 -0.3136898 -0.9491763
vn 0.0146874 -0.5599333 -0.8284075
vn -0.7260459 -0.6674654 -0.1653702
vn -0.7260459 -0.6674654 -0.1653702
vn -0.7408385 -0.1075542 0.6630161
vn -0.7408385 -0.1075542 0.6630161
vn -0.0146874 0.5599333 0.8284075
vn -0.0146874 0.5599333 0.8284075
vn 0.7260459 0.6674654 0.1653702
vn 0.7260459 0.6674654 0.1653702
vn 0.7407448 0.1075405 -0.663123
vn 0.7407448 0.1075405 -0.663123
vn 0.0146874 -0.5599333 -0.8284075
vn 0.0146874 -0.5599333 -0.8284075
vn 0.003337996 -0.7526227 -0.6584436
vn -0.6720386 -0.7363147 0.07877165
vn -0.6754366 0.01626122 0.7372388
vn -0.6720386 -0.7363147 0.07877165
vn -0.003337996 0.7526227 0.6584436
vn -0.003337996 0.7526227 0.6584436
vn 0.6720386 0.7363147 -0.07877165
vn 0.6720386 0.7363147 -0.07877165
vn 0.6754366 -0.01626122 -0.7372388
vn 0.6754366 -0.01626122 -0.7372388
vn 0.003337996 -0.7526227 -0.6584436
vn -0.006294538 -0.8755131 -0.4831535
vn -0.641344 -0.717137 0.27275
vn -0.6754366 0.01626122 0.7372388
vn -0.6350496 0.1583333 0.7560705
vn -0.641344 -0.717137 0.27275
vn 0.006294538 0.8755131 0.4831535
vn 0.006294538 0.8755131 0.4831535
vn 0.641344 0.717137 -0.27275
vn 0.006294538 0.8755131 0.4831535
vn 0.6350496 -0.1583333 -0.7560705
vn 0.6350496 -0.1583333 -0.7560705
vn -0.006294538 -0.8755131 -0.4831535
vn -0.01363764 -0.9440249 -0.3295921
vn -0.6267279 -0.6633236 0.408918
vn -0.6267279 -0.6633236 0.408918
vn -0.6130847 0.2806515 0.7384862
vn 0.01363764 0.9440249 0.3295921
vn 0.01363764 0.9440249 0.3295921
vn 0.6267279 0.6633236 -0.408918
vn 0.6130847 -0.2806515 -0.7384862
vn 0.6130847 -0.2806515 -0.7384862
vn -0.01363764 -0.9440249 -0.3295921
vn -0.01916916 -0.9790815 -0.2025637
vn -0.6211953 -0.6022418 0.5014192
vn -0.6211953 -0.6022418 0.5014192
vn -0.6020297 0.3768049 0.7039732
vn 0.01916916 0.9790815 0.2025637
vn 0.01916916 0.9790815 0.2025637
vn 0.6211953 0.6022418 -0.5014192
vn 0.6020297 -0.3768049 -0.7039732
vn 0.6020297 -0.3768049 -0.7039732
vn -0.01916916 -0.9790815 -0.2025637
vn -0.01916916 -0.9790815 -0.2025637
vn -0.6211953 -0.6022418 0.5014192
vn -0.0234605 -0.9950922 -0.09613081
vn -0.6207664 -0.5425626 0.5659284
vn -0.6207664 -0.5425626 0.5659284
vn -0.5973944 0.452552 0.6620549
vn 0.0234605 0.9950922 0.09613081
vn 0.0234605 0.9950922 0.09613081
vn 0.6207664 0.5425626 -0.5659284
vn 0.5973944 -0.452552 -0.6620549
vn 0.5973944 -0.452552 -0.6620549
vn -0.0234605 -0.9950922 -0.09613081
vn -0.02698883 -0.9996357 0.0003814675
vn -0.6240684 -0.4830713 0.6141504
vn -0.6240684 -0.4830713 0.6141504
vn -0.5970156 0.5165473 0.6138007
vn 0.02698883 0.9996357 -0.0003814675
vn 0.02698883 0.9996357 -0.0003814675
vn 0.6240684 0.4830713 -0.6141504
vn 0.5970156 -0.5165473 -0.6138007
vn 0.5970156 -0.5165473 -0.6138007
vn -0.02698883 -0.9996357 0.0003814675
vn -0.03075615 -0.9936382 0.1083379
vn -0.6327811 -0.4121588 0.6555251
vn -0.6327811 -0.4121588 0.6555251
vn -0.6020439 0.5814688 0.5472086
vn 0.03075615 0.9936382 -0.1083379
vn 0.03075615 0.9936382 -0.1083379
vn 0.6327811 0.4121588 -0.6555251
vn 0.6020439 -0.5814688 -0.5472086
vn 0.6020439 -0.5814688 -0.5472086
vn -0.03075615 -0.9936382 0.1083379
vn -0.03318782 -0.9823547 0.1840589
vn -0.6533012 -0.3623676 0.6647459
vn -0.6533012 -0.3623676 0.6647459
vn -0.6200997 0.6200281 0.4806679
vn 0.03318782 0.9823547 -0.1840589
vn 0.03318782 0.9823547 -0.1840589
vn 0.6533012 0.3623676 -0.6647459
vn 0.6200997 -0.6200281 -0.4806679
vn 0.6200997 -0.6200281 -0.4806679
vn -0.03318782 -0.9823547 0.1840589
vn -0.031853 -0.9894218 0.1415265
vn -0.6769688 -0.3947038 0.6212263
vn -0.6769688 -0.3947038 0.6212263
vn -0.645125 0.5947224 0.4797071
vn 0.031853 0.9894218 -0.1415265
vn 0.031853 0.9894218 -0.1415265
vn 0.6769688 0.3947038 -0.6212263
vn 0.645125 -0.5947224 -0.4797071
vn 0.645125 -0.5947224 -0.4797071
vn -0.031853 -0.9894218 0.1415265
vn -0.02865772 -0.9985142 0.04634826
vn -0.6963884 -0.454977 0.5550128
vn -0.6963884 -0.454977 0.5550128
vn -0.6677415 0.5434817 0.5086737
vn 0.02865772 0.9985142 -0.04634826
vn 0.02865772 0.9985142 -0.04634826
vn 0.6963884 0.454977 -0.5550128
vn 0.6677415 -0.5434817 -0.5086737
vn 0.6677415 -0.5434817 -0.5086737
vn -0.02865772 -0.9985142 0.04634826
vn -0.02670272 -0.9996114 -0.008010815
vn -0.7104793 -0.4852716 0.5096377
vn -0.7104793 -0.4852716 0.5096377
vn -0.6837677 0.514304 0.5176417
vn 0.02670272 0.9996114 0.008010815
vn 0.02670272 0.9996114 0.008010815
vn 0.7104793 0.4852716 -0.5096377
vn 0.6837677 -0.514304 -0.5176417
vn 0.6837677 -0.514304 -0.5176417
vn -0.02670272 -0.9996114 -0.008010815
vn -0.02632167 -0.9994605 -0.01964588
vn -0.7175 -0.4910729 0.4940054
vn -0.7175 -0.4910729 0.4940054
vn -0.6911724 0.5083777 0.5136467
vn 0.02632167 0.9994605 0.01964588
vn 0.02632167 0.9994605 0.01964588
vn 0.7175 0.4910729 -0.4940054
vn 0.6911724 -0.5083777 -0.5136467
vn 0.6911724 -0.5083777 -0.5136467
vn -0.02632167 -0.9994605 -0.01964588
vn -0.02760888 -0.9994746 0.0169754
vn -0.7163724 -0.471772 0.5140448
vn -0.7163724 -0.471772 0.5140448
vn -0.6887728 0.527738 0.4970761
vn 0.02760888 0.9994746 -0.0169754
vn 0.02760888 0.9994746 -0.0169754
vn 0.7163724 0.471772 -0.5140448
vn 0.6887728 -0.527738 -0.4970761
vn 0.6887728 -0.527738 -0.4970761
vn -0.02760888 -0.9994746 0.0169754
vn -0.03089879 -0.9931242 0.1129141
vn -0.7067929 -0.4164604 0.5718432
vn -0.7067929 -0.4164604 0.5718432
vn -0.6758814 0.5766975 0.4589165
vn 0.03089879 0.9931242 -0.1129141
vn 0.03089879 0.9931242 -0.1129141
vn 0.7067929 0.4164604 -0.5718432
vn 0.6758814 -0.5766975 -0.4589165
vn 0.6758814 -0.5766975 -0.4589165
vn -0.03089879 -0.9931242 0.1129141
vn -0.03604819 -0.9587101 0.2820913
vn -0.6909803 -0.3023605 0.6566005
vn -0.6909803 -0.3023605 0.6566005
vn -0.654904 0.6563823 0.374517
vn 0.03604819 0.9587101 -0.2820913
vn 0.03604819 0.9587101 -0.2820913
vn 0.6909803 0.3023605 -0.6566005
vn 0.654904 -0.6563823 -0.374517
vn 0.654904 -0.6563823 -0.374517
vn -0.03604819 -0.9587101 0.2820913
vn -0.0417239 -0.8546247 0.5175671
vn -0.677974 -0.1119148 0.7265165
vn -0.0417239 -0.8546247 0.5175671
vn -0.636234 0.7426624 0.2089468
vn 0.0417239 0.8546247 -0.5175671
vn 0.0417239 0.8546247 -0.5175671
vn 0.677974 0.1119148 -0.7265165
vn 0.6362056 -0.742685 -0.2089532
vn 0.677974 0.1119148 -0.7265165
vn -0.03604819 -0.9587101 0.2820913
vn -0.0417239 -0.8546247 0.5175671
vn 0.6362056 -0.742685 -0.2089532
vn -0.677974 -0.1119148 0.7265165
vn -0.04486967 -0.6537334 0.7553935
vn -0.6827059 0.1157076 0.7214738
vn -0.04486967 -0.6537334 0.7553935
vn -0.6378245 0.7694331 -0.03395119
vn 0.04486967 0.6537334 -0.7553935
vn 0.04486967 0.6537334 -0.7553935
vn 0.6827059 -0.1157076 -0.7214738
vn 0.6827059 -0.1157076 -0.7214738
vn 0.6378245 -0.7694331 0.03395119
vn 0.6378245 -0.7694331 0.03395119
vn -0.04486967 -0.6537334 0.7553935
vn -0.04453735 -0.4794441 0.8764416
vn -0.6913063 0.2563193 0.675571
vn -0.6467909 0.735746 -0.2008466
vn -0.6378245 0.7694331 -0.03395119
vn 0.04486967 0.6537334 -0.7553935
vn -0.6467909 0.735746 -0.2008466
vn 0.04453735 0.4794441 -0.8764416
vn 0.04453735 0.4794441 -0.8764416
vn 0.6913063 -0.2563193 -0.675571
vn 0.6913063 -0.2563193 -0.675571
vn 0.6467909 -0.735746 0.2008466
vn 0.6467909 -0.735746 0.2008466
vn -0.04453735 -0.4794441 0.8764416
vn -0.04429737 -0.4527726 0.890525
vn -0.6753412 0.2929673 0.6768194
vn -0.6310346 0.7457356 -0.2137144
vn -0.6310346 0.7457356 -0.2137144
vn 0.04429737 0.4527726 -0.890525
vn 0.04429737 0.4527726 -0.890525
vn 0.6753412 -0.2929673 -0.6768194
vn 0.6753412 -0.2929673 -0.6768194
vn 0.6310346 -0.7457356 0.2137144
vn 0.6310346 -0.7457356 0.2137144
vn -0.04429737 -0.4527726 0.890525
vn -0.04463227 -0.4966533 0.8668007
vn -0.6546317 0.2785845 0.7027432
vn -0.6100092 0.7752309 -0.1640297
vn -0.6100092 0.7752309 -0.1640297
vn 0.04463227 0.4966533 -0.8668007
vn 0.04463227 0.4966533 -0.8668007
vn 0.6546317 -0.2785845 -0.7027432
vn 0.6546317 -0.2785845 -0.7027432
vn 0.6100092 -0.7752309 0.1640297
vn 0.6100092 -0.7752309 0.1640297
vn -0.04463227 -0.4966533 0.8668007
vn -0.04487225 -0.537704 0.8419387
vn -0.6453135 0.2527514 0.7208933
vn -0.6004387 0.79046 -0.1210223
vn -0.6004387 0.79046 -0.1210223
vn 0.04487225 0.537704 -0.8419387
vn 0.04487225 0.537704 -0.8419387
vn 0.6453135 -0.2527514 -0.7208933
vn 0.6453135 -0.2527514 -0.7208933
vn 0.6004387 -0.79046 0.1210223
vn 0.6004387 -0.79046 0.1210223
vn -0.04487225 -0.537704 0.8419387
vn -0.04496446 -0.5804135 0.8130796
vn -0.6443167 0.2161312 0.7335826
vn -0.5993314 0.7965495 -0.07944038
vn -0.5993314 0.7965495 -0.07944038
vn 0.04496446 0.5804135 -0.8130796
vn 0.04496446 0.5804135 -0.8130796
vn 0.6443167 -0.2161312 -0.7335826
vn 0.6443167 -0.2161312 -0.7335826
vn 0.5993314 -0.7965495 0.07944038
vn 0.5993314 -0.7965495 0.07944038
vn -0.04496446 -0.5804135 0.8130796
vn -0.04496476 -0.6286722 0.7763693
vn -0.6512944 0.1657203 0.7405082
vn -0.6063486 0.7943901 -0.0358583
vn -0.6063486 0.7943901 -0.0358583
vn 0.04496476 0.6286722 -0.7763693
vn 0.04496476 0.6286722 -0.7763693
vn 0.6512944 -0.1657203 -0.7405082
vn 0.6512944 -0.1657203 -0.7405082
vn 0.6063486 -0.7943901 0.0358583
vn 0.6063486 -0.7943901 0.0358583
vn -0.04496476 -0.6286722 0.7763693
vn -0.04467842 -0.6865313 0.7257262
vn -0.6682303 0.09512769 0.7378475
vn -0.6235612 0.7816807 0.01211169
vn -0.6235612 0.7816807 0.01211169
vn 0.04467842 0.6865313 -0.7257262
vn 0.04467842 0.6865313 -0.7257262
vn 0.6682303 -0.09512769 -0.7378475
vn 0.6682303 -0.09512769 -0.7378475
vn 0.6235612 -0.7816807 -0.01211169
vn 0.6235612 -0.7816807 -0.01211169
vn -0.04467842 -0.6865313 0.7257262
vn -0.04391677 -0.7588875 0.6497393
vn -0.7004769 -0.007295641 0.7136377
vn -0.6565444 0.7515762 0.06389495
vn -0.6565444 0.7515762 0.06389495
vn 0.04391677 0.7588875 -0.6497393
vn 0.04391677 0.7588875 -0.6497393
vn 0.7004769 0.007295641 -0.7136377
vn 0.7004769 0.007295641 -0.7136377
vn 0.6565444 -0.7515762 -0.06389495
vn 0.6565444 -0.7515762 -0.06389495
vn -0.04391677 -0.7588875 0.6497393
vn -0.04191472 -0.8493573 0.5261514
vn -0.758261 -0.1596916 0.6320908
vn -0.7163817 0.6896318 0.1058551
vn -0.7163817 0.6896318 0.1058551
vn 0.04191472 0.8493573 -0.5261514
vn 0.04191472 0.8493573 -0.5261514
vn 0.758261 0.1596916 -0.6320908
vn 0.758261 0.1596916 -0.6320908
vn 0.7163817 -0.6896318 -0.1058551
vn 0.7163817 -0.6896318 -0.1058551
vn -0.04191472 -0.8493573 0.5261514
vn -0.03700276 -0.9479573 0.3162401
vn -0.8462627 -0.364932 0.3881545
vn -0.8092497 0.5830355 0.07200325
vn -0.8092497 0.5830355 0.07200325
vn 0.03700276 0.9479573 -0.3162401
vn 0.03700276 0.9479573 -0.3162401
vn 0.8462627 0.364932 -0.3881545
vn 0.8462627 0.364932 -0.3881545
vn 0.8092497 -0.5830355 -0.07200325
vn 0.8092497 -0.5830355 -0.07200325
vn -0.03700276 -0.9479573 0.3162401
vn 0.03271045 -0.9987655 0.03738337
vn -0.844018 -0.5310638 -0.07486488
vn -0.8767342 0.4676933 -0.1122502
vn -0.8767342 0.4676933 -0.1122502
vn -0.03271045 0.9987655 -0.03738337
vn -0.03271045 0.9987655 -0.03738337
vn 0.844018 0.5310638 0.07486488
vn 0.844018 0.5310638 0.07486488
vn 0.8767342 -0.4676933 0.1122502
vn 0.8767342 -0.4676933 0.1122502
vn 0.03271045 -0.9987655 0.03738337
vn 0.03271045 -0.9987655 0.03738337
vn -0.844018 -0.5310638 -0.07486488
vn 0.1658926 -0.9722767 -0.1647959
vn -0.6700605 -0.5427433 -0.5064078
vn -0.6700605 -0.5427433 -0.5064078
vn -0.8767342 0.4676933 -0.1122502
vn -0.8359033 0.4295389 -0.3417047
vn -0.6700605 -0.5427433 -0.5064078
vn -0.8359033 0.4295389 -0.3417047
vn -0.1658926 0.9722767 0.1647959
vn -0.03271045 0.9987655 -0.03738337
vn 0.844018 0.5310638 0.07486488
vn -0.1658926 0.9722767 0.1647959
vn 0.6700605 0.5427433 0.5064078
vn 0.844018 0.5310638 0.07486488
vn 0.8767342 -0.4676933 0.1122502
vn 0.6700605 0.5427433 0.5064078
vn 0.8359033 -0.4295389 0.3417047
vn 0.8359033 -0.4295389 0.3417047
vn 0.1658926 -0.9722767 -0.1647959
vn 0.2895817 -0.9253929 -0.2445208
vn -0.4624794 -0.4897542 -0.7390897
vn -0.8359033 0.4295389 -0.3417047
vn -0.7520708 0.4356403 -0.4945776
vn -0.7520708 0.4356403 -0.4945776
vn -0.2895817 0.9253929 0.2445208
vn -0.2895817 0.9253929 0.2445208
vn 0.4624794 0.4897542 0.7390897
vn 0.4624794 0.4897542 0.7390897
vn 0.7520708 -0.4356403 0.4945776
vn 0.7520708 -0.4356403 0.4945776
vn 0.2895817 -0.9253929 -0.2445208
vn 0.405831 -0.8882411 -0.2152416
vn -0.2635859 -0.4806819 -0.8363416
vn -0.6693926 0.407558 -0.6211361
vn -0.6693926 0.407558 -0.6211361
vn -0.405831 0.8882411 0.2152416
vn -0.405831 0.8882411 0.2152416
vn 0.2635859 0.4806819 0.8363416
vn 0.2635859 0.4806819 0.8363416
vn 0.6693926 -0.407558 0.6211361
vn 0.6693926 -0.407558 0.6211361
vn 0.405831 -0.8882411 -0.2152416
vn 0.5117537 -0.8558474 -0.07505593
vn -0.05869887 -0.5460282 -0.8357078
vn -0.5704731 0.3098407 -0.7606307
vn -0.5704731 0.3098407 -0.7606307
vn -0.5117537 0.8558474 0.07505593
vn -0.5117537 0.8558474 0.07505593
vn 0.05869887 0.5460282 0.8357078
vn 0.05869887 0.5460282 0.8357078
vn 0.5704731 -0.3098407 0.7606307
vn 0.5704731 -0.3098407 0.7606307
vn 0.5117537 -0.8558474 -0.07505593
vn 0.582455 -0.7961013 0.1642223
vn -0.05869887 -0.5460282 -0.8357078
vn 0.1588318 -0.6628166 -0.7317423
vn 0.582455 -0.7961013 0.1642223
vn 0.1588318 -0.6628166 -0.7317423
vn -0.4236236 0.1332764 -0.8959801
vn -0.4236236 0.1332764 -0.8959801
vn -0.5824661 0.7960926 -0.1642254
vn -0.5824661 0.7960926 -0.1642254
vn -0.1588343 0.6628032 0.7317538
vn -0.1588343 0.6628032 0.7317538
vn 0.4236236 -0.1332764 0.8959801
vn 0.4236236 -0.1332764 0.8959801
vn 0.582455 -0.7961013 0.1642223
vn 0.5839774 -0.6840647 0.4370652
vn 0.3521989 -0.7701073 -0.5318747
vn 0.3521989 -0.7701073 -0.5318747
vn -0.2318405 -0.08602228 -0.9689428
vn -0.2318405 -0.08602228 -0.9689428
vn -0.5839774 0.6840647 -0.4370652
vn -0.5839774 0.6840647 -0.4370652
vn -0.3521989 0.7701073 0.5318747
vn -0.3521989 0.7701073 0.5318747
vn 0.2318405 0.08602228 0.9689428
vn 0.2318405 0.08602228 0.9689428
vn 0.5839774 -0.6840647 0.4370652
vn 0.52352 -0.5449061 0.6549841
vn 0.4781778 -0.8238888 -0.3042256
vn 0.4781778 -0.8238888 -0.3042256
vn -0.2318405 -0.08602228 -0.9689428
vn -0.04534816 -0.2789794 -0.9592258
vn -0.04534816 -0.2789794 -0.9592258
vn -0.52352 0.5449061 -0.6549841
vn -0.52352 0.5449061 -0.6549841
vn -0.3521989 0.7701073 0.5318747
vn -0.4781778 0.8238888 0.3042256
vn -0.4781778 0.8238888 0.3042256
vn 0.04534816 0.2789794 0.9592258
vn 0.5839774 -0.6840647 0.4370652
vn 0.52352 -0.5449061 0.6549841
vn 0.442218 -0.4208795 0.7920251
vn 0.5400697 -0.8339466 -0.1133927
vn 0.09784723 -0.4130851 -0.9054207
vn 0.09784723 -0.4130851 -0.9054207
vn -0.442218 0.4208795 -0.7920251
vn -0.5400697 0.8339466 0.1133927
vn -0.5400697 0.8339466 0.1133927
vn 0.04534816 0.2789794 0.9592258
vn -0.09784723 0.4130851 0.9054207
vn -0.5400697 0.8339466 0.1133927
vn -0.09784723 0.4130851 0.9054207
vn 0.442218 -0.4208795 0.7920251
vn 0.3682485 -0.3273373 0.8701974
vn 0.5400697 -0.8339466 -0.1133927
vn 0.5642005 -0.8252481 0.02536804
vn 0.3682485 -0.3273373 0.8701974
vn 0.5642005 -0.8252481 0.02536804
vn 0.1959388 -0.4979297 -0.8447924
vn 0.1959388 -0.4979297 -0.8447924
vn -0.3682485 0.3273373 -0.8701974
vn -0.5642005 0.8252481 -0.02536804
vn -0.5642005 0.8252481 -0.02536804
vn -0.1959388 0.4979297 0.8447924
vn -0.1959388 0.4979297 0.8447924
vn 0.3682485 -0.3273373 0.8701974
vn 0.3361266 -0.2908027 0.8957973
vn 0.5689083 -0.8186014 0.07896338
vn 0.5689083 -0.8186014 0.07896338
vn 0.2327497 -0.5278236 -0.8168414
vn 0.2327497 -0.5278236 -0.8168414
vn -0.3361266 0.2908027 -0.8957973
vn -0.5689083 0.8186014 -0.07896338
vn -0.5689083 0.8186014 -0.07896338
vn -0.2327497 0.5278236 0.8168414
vn -0.2327497 0.5278236 0.8168414
vn 0.3361266 -0.2908027 0.8957973

vt 1 0
vt 0.8333333 0
vt 1 0.02
vt 0.8333333 0.02
vt 0.8333333 0
vt 0.6666666 0
vt 0.8333333 0.02
vt 0.6666666 0.02
vt 0.6666666 0
vt 0.5 0
vt 0.6666666 0.02
vt 0.5 0.02
vt 0.5 0
vt 0.3333333 0
vt 0.5 0.02
vt 0.3333333 0.02
vt 0.3333333 0
vt 0.1666667 0
vt 0.3333333 0.02
vt 0.1666667 0.02
vt 0.1666667 0
vt 0 0
vt 0.1666667 0.02
vt 0 0.02
vt 1 0.04
vt 0.8333333 0.04
vt 0.8333333 0.04
vt 0.6666666 0.04
vt 0.6666666 0.04
vt 0.5 0.04
vt 0.5 0.04
vt 0.3333333 0.04
vt 0.3333333 0.04
vt 0.1666667 0.04
vt 0.1666667 0.04
vt 0 0.04
vt 1 0.06
vt 0.8333333 0.06
vt 0.8333333 0.06
vt 0.6666666 0.06
vt 0.6666666 0.06
vt 0.5 0.06
vt 0.5 0.06
vt 0.3333333 0.06
vt 0.3333333 0.06
vt 0.1666667 0.06
vt 0.1666667 0.06
vt 0 0.06
vt 1 0.08
vt 0.8333333 0.08
vt 0.8333333 0.08
vt 0.6666666 0.08
vt 0.6666666 0.08
vt 0.5 0.08
vt 0.5 0.08
vt 0.3333333 0.08
vt 0.3333333 0.08
vt 0.1666667 0.08
vt 0.1666667 0.08
vt 0 0.08
vt 1 0.1
vt 0.8333333 0.1
vt 0.8333333 0.1
vt 0.6666666 0.1
vt 0.6666666 0.1
vt 0.5 0.1
vt 0.5 0.1
vt 0.3333333 0.1
vt 0.3333333 0.1
vt 0.1666667 0.1
vt 0.1666667 0.1
vt 0 0.1
vt 1 0.12
vt 0.8333333 0.12
vt 0.8333333 0.12
vt 0.6666666 0.12
vt 0.6666666 0.12
vt 0.5 0.12
vt 0.5 0.12
vt 0.3333333 0.12
vt 0.3333333 0.12
vt 0.1666667 0.12
vt 0.1666667 0.12
vt 0 0.12
vt 1 0.14
vt 0.8333333 0.14
vt 0.8333333 0.14
vt 0.6666666 0.14
vt 0.6666666 0.14
vt 0.5 0.14
vt 0.5 0.14
vt 0.3333333 0.14
vt 0.3333333 0.14
vt 0.1666667 0.14
vt 0.1666667 0.14
vt 0 0.14
vt 1 0.16
vt 0.8333333 0.16
vt 0.8333333 0.16
vt 0.6666666 0.16
vt 0.6666666 0.16
vt 0.5 0.16
vt 0.5 0.16
vt 0.3333333 0.16
vt 0.3333333 0.16
vt 0.1666667 0.16
vt 0.1666667 0.16
vt 0 0.16
vt 1 0.18
vt 0.8333333 0.18
vt 0.8333333 0.18
vt 0.6666666 0.18
vt 0.6666666 0.18
vt 0.5 0.18
vt 0.5 0.18
vt 0.3333333 0.18
vt 0.3333333 0.18
vt 0.1666667 0.18
vt 0.1666667 0.18
vt 0 0.18
vt 1 0.2
vt 0.8333333 0.2
vt 0.8333333 0.2
vt 0.6666666 0.2
vt 0.6666666 0.2
vt 0.5 0.2
vt 0.5 0.2
vt 0.3333333 0.2
vt 0.3333333 0.2
vt 0.1666667 0.2
vt 0.1666667 0.2
vt 0 0.2
vt 1 0.22
vt 0.8333333 0.22
vt 0.8333333 0.22
vt 0.6666666 0.22
vt 0.6666666 0.22
vt 0.5 0.22
vt 0.5 0.22
vt 0.3333333 0.22
vt 0.3333333 0.22
vt 0.1666667 0.22
vt 0.1666667 0.22
vt 0 0.22
vt 1 0.24
vt 0.8333333 0.24
vt 0.8333333 0.24
vt 0.6666666 0.24
vt 0.6666666 0.24
vt 0.5 0.24
vt 0.5 0.24
vt 0.3333333 0.24
vt 0.3333333 0.24
vt 0.1666667 0.24
vt 0.1666667 0.24
vt 0 0.24
vt 1 0.24
vt 1 0.26
vt 0.8333333 0.26
vt 0.6666666 0.26
vt 0.8333333 0.26
vt 0.5 0.26
vt 0.5 0.26
vt 0.3333333 0.26
vt 0.3333333 0.26
vt 0.1666667 0.26
vt 0.1666667 0.26
vt 0 0.26
vt 1 0.28
vt 0.8333333 0.28
vt 0.6666666 0.26
vt 0.6666666 0.28
vt 0.8333333 0.28
vt 0.5 0.28
vt 0.5 0.28
vt 0.3333333 0.28
vt 0.5 0.28
vt 0.1666667 0.28
vt 0.1666667 0.28
vt 0 0.28
vt 1 0.3
vt 0.8333333 0.3
vt 0.8333333 0.3
vt 0.6666666 0.3
vt 0.5 0.3
vt 0.5 0.3
vt 0.3333333 0.3
vt 0.1666667 0.3
vt 0.1666667 0.3
vt 0 0.3
vt 1 0.32
vt 0.8333333 0.32
vt 0.8333333 0.32
vt 0.6666666 0.32
vt 0.5 0.32
vt 0.5 0.32
vt 0.3333333 0.32
vt 0.1666667 0.32
vt 0.1666667 0.32
vt 0 0.32
vt 1 0.32
vt 0.8333333 0.32
vt 1 0.34
vt 0.8333333 0.34
vt 0.8333333 0.34
vt 0.6666666 0.34
vt 0.5 0.34
vt 0.5 0.34
vt 0.3333333 0.34
vt 0.1666667 0.34
vt 0.1666667 0.34
vt 0 0.34
vt 1 0.36
vt 0.8333333 0.36
vt 0.8333333 0.36
vt 0.6666666 0.36
vt 0.5 0.36
vt 0.5 0.36
vt 0.3333333 0.36
vt 0.1666667 0.36
vt 0.1666667 0.36
vt 0 0.36
vt 1 0.38
vt 0.8333333 0.38
vt 0.8333333 0.38
vt 0.6666666 0.38
vt 0.5 0.38
vt 0.5 0.38
vt 0.3333333 0.38
vt 0.1666667 0.38
vt 0.1666667 0.38
vt 0 0.38
vt 1 0.4
vt 0.8333333 0.4
vt 0.8333333 0.4
vt 0.6666666 0.4
vt 0.5 0.4
vt 0.5 0.4
vt 0.3333333 0.4
vt 0.1666667 0.4
vt 0.1666667 0.4
vt 0 0.4
vt 1 0.42
vt 0.8333333 0.42
vt 0.8333333 0.42
vt 0.6666666 0.42
vt 0.5 0.42
vt 0.5 0.42
vt 0.3333333 0.42
vt 0.1666667 0.42
vt 0.1666667 0.42
vt 0 0.42
vt 1 0.44
vt 0.8333333 0.44
vt 0.8333333 0.44
vt 0.6666666 0.44
vt 0.5 0.44
vt 0.5 0.44
vt 0.3333333 0.44
vt 0.1666667 0.44
vt 0.1666667 0.44
vt 0 0.44
vt 1 0.46
vt 0.8333333 0.46
vt 0.8333333 0.46
vt 0.6666666 0.46
vt 0.5 0.46
vt 0.5 0.46
vt 0.3333333 0.46
vt 0.1666667 0.46
vt 0.1666667 0.46
vt 0 0.46
vt 1 0.48
vt 0.8333333 0.48
vt 0.8333333 0.48
vt 0.6666666 0.48
vt 0.5 0.48
vt 0.5 0.48
vt 0.3333333 0.48
vt 0.1666667 0.48
vt 0.1666667 0.48
vt 0 0.48
vt 1 0.5
vt 0.8333333 0.5
vt 0.8333333 0.5
vt 0.6666666 0.5
vt 0.5 0.5
vt 0.5 0.5
vt 0.3333333 0.5
vt 0.1666667 0.5
vt 0.1666667 0.5
vt 0 0.5
vt 1 0.52
vt 0.8333333 0.52
vt 0.8333333 0.52
vt 0.6666666 0.52
vt 0.5 0.52
vt 0.5 0.52
vt 0.3333333 0.52
vt 0.1666667 0.52
vt 0.1666667 0.52
vt 0 0.52
vt 1 0.54
vt 0.8333333 0.54
vt 0.8333333 0.54
vt 0.6666666 0.54
vt 0.5 0.54
vt 0.5 0.54
vt 0.3333333 0.54
vt 0.1666667 0.54
vt 0.1666667 0.54
vt 0 0.54
vt 1 0.56
vt 0.8333333 0.56
vt 1 0.56
vt 0.6666666 0.56
vt 0.5 0.56
vt 0.5 0.56
vt 0.3333333 0.56
vt 0.1666667 0.56
vt 0.3333333 0.56
vt 0 0.54
vt 0 0.56
vt 0.1666667 0.56
vt 0.8333333 0.56
vt 1 0.58
vt 0.8333333 0.58
vt 1 0.58
vt 0.6666666 0.58
vt 0.5 0.58
vt 0.5 0.58
vt 0.3333333 0.58
vt 0.3333333 0.58
vt 0.1666667 0.58
vt 0.1666667 0.58
vt 0 0.58
vt 1 0.6
vt 0.8333333 0.6
vt 0.6666666 0.6
vt 0.6666666 0.58
vt 0.5 0.58
vt 0.6666666 0.6
vt 0.5 0.6
vt 0.5 0.6
vt 0.3333333 0.6
vt 0.3333333 0.6
vt 0.1666667 0.6
vt 0.1666667 0.6
vt 0 0.6
vt 1 0.62
vt 0.8333333 0.62
vt 0.6666666 0.62
vt 0.6666666 0.62
vt 0.5 0.62
vt 0.5 0.62
vt 0.3333333 0.62
vt 0.3333333 0.62
vt 0.1666667 0.62
vt 0.1666667 0.62
vt 0 0.62
vt 1 0.64
vt 0.8333333 0.64
vt 0.6666666 0.64
vt 0.6666666 0.64
vt 0.5 0.64
vt 0.5 0.64
vt 0.3333333 0.64
vt 0.3333333 0.64
vt 0.1666667 0.64
vt 0.1666667 0.64
vt 0 0.64
vt 1 0.66
vt 0.8333333 0.66
vt 0.6666666 0.66
vt 0.6666666 0.66
vt 0.5 0.66
vt 0.5 0.66
vt 0.3333333 0.66
vt 0.3333333 0.66
vt 0.1666667 0.66
vt 0.1666667 0.66
vt 0 0.66
vt 1 0.68
vt 0.8333333 0.68
vt 0.6666666 0.68
vt 0.6666666 0.68
vt 0.5 0.68
vt 0.5 0.68
vt 0.3333333 0.68
vt 0.3333333 0.68
vt 0.1666667 0.68
vt 0.1666667 0.68
vt 0 0.68
vt 1 0.7
vt 0.8333333 0.7
vt 0.6666666 0.7
vt 0.6666666 0.7
vt 0.5 0.7
vt 0.5 0.7
vt 0.3333333 0.7
vt 0.3333333 0.7
vt 0.1666667 0.7
vt 0.1666667 0.7
vt 0 0.7
vt 1 0.72
vt 0.8333333 0.72
vt 0.6666666 0.72
vt 0.6666666 0.72
vt 0.5 0.72
vt 0.5 0.72
vt 0.3333333 0.72
vt 0.3333333 0.72
vt 0.1666667 0.72
vt 0.1666667 0.72
vt 0 0.72
vt 1 0.74
vt 0.8333333 0.74
vt 0.6666666 0.74
vt 0.6666666 0.74
vt 0.5 0.74
vt 0.5 0.74
vt 0.3333333 0.74
vt 0.3333333 0.74
vt 0.1666667 0.74
vt 0.1666667 0.74
vt 0 0.74
vt 1 0.76
vt 0.8333333 0.76
vt 0.6666666 0.76
vt 0.6666666 0.76
vt 0.5 0.76
vt 0.5 0.76
vt 0.3333333 0.76
vt 0.3333333 0.76
vt 0.1666667 0.76
vt 0.1666667 0.76
vt 0 0.76
vt 1 0.78
vt 0.8333333 0.78
vt 0.6666666 0.78
vt 0.6666666 0.78
vt 0.5 0.78
vt 0.5 0.78
vt 0.3333333 0.78
vt 0.3333333 0.78
vt 0.1666667 0.78
vt 0.1666667 0.78
vt 0 0.78
vt 1 0.8
vt 0.8333333 0.8
vt 0.6666666 0.8
vt 0.6666666 0.8
vt 0.5 0.8
vt 0.5 0.8
vt 0.3333333 0.8
vt 0.3333333 0.8
vt 0.1666667 0.8
vt 0.1666667 0.8
vt 0 0.8
vt 1 0.8
vt 0.8333333 0.8
vt 1 0.82
vt 0.8333333 0.82
vt 0.8333333 0.82
vt 0.6666666 0.8
vt 0.6666666 0.82
vt 0.8333333 0.82
vt 0.6666666 0.82
vt 0.5 0.82
vt 0.5 0.8
vt 0.3333333 0.8
vt 0.5 0.82
vt 0.3333333 0.82
vt 0.3333333 0.8
vt 0.1666667 0.8
vt 0.3333333 0.82
vt 0.1666667 0.82
vt 0.1666667 0.82
vt 0 0.82
vt 1 0.84
vt 0.8333333 0.84
vt 0.6666666 0.82
vt 0.6666666 0.84
vt 0.6666666 0.84
vt 0.5 0.84
vt 0.5 0.84
vt 0.3333333 0.84
vt 0.3333333 0.84
vt 0.1666667 0.84
vt 0.1666667 0.84
vt 0 0.84
vt 1 0.86
vt 0.8333333 0.86
vt 0.6666666 0.86
vt 0.6666666 0.86
vt 0.5 0.86
vt 0.5 0.86
vt 0.3333333 0.86
vt 0.3333333 0.86
vt 0.1666667 0.86
vt 0.1666667 0.86
vt 0 0.86
vt 1 0.88
vt 0.8333333 0.88
vt 0.6666666 0.88
vt 0.6666666 0.88
vt 0.5 0.88
vt 0.5 0.88
vt 0.3333333 0.88
vt 0.3333333 0.88
vt 0.1666667 0.88
vt 0.1666667 0.88
vt 0 0.88
vt 1 0.9
vt 0.8333333 0.88
vt 0.8333333 0.9
vt 1 0.9
vt 0.8333333 0.9
vt 0.6666666 0.9
vt 0.6666666 0.9
vt 0.5 0.9
vt 0.5 0.9
vt 0.3333333 0.9
vt 0.3333333 0.9
vt 0.1666667 0.9
vt 0.1666667 0.9
vt 0 0.9
vt 1 0.92
vt 0.8333333 0.92
vt 0.8333333 0.92
vt 0.6666666 0.92
vt 0.6666666 0.92
vt 0.5 0.92
vt 0.5 0.92
vt 0.3333333 0.92
vt 0.3333333 0.92
vt 0.1666667 0.92
vt 0.1666667 0.92
vt 0 0.92
vt 1 0.94
vt 0.8333333 0.94
vt 0.8333333 0.94
vt 0.6666666 0.92
vt 0.6666666 0.94
vt 0.6666666 0.94
vt 0.5 0.94
vt 0.5 0.94
vt 0.3333333 0.92
vt 0.3333333 0.94
vt 0.3333333 0.94
vt 0.1666667 0.94
vt 0 0.92
vt 0 0.94
vt 1 0.96
vt 0.8333333 0.96
vt 0.6666666 0.96
vt 0.6666666 0.96
vt 0.5 0.96
vt 0.3333333 0.96
vt 0.3333333 0.96
vt 0.1666667 0.94
vt 0.1666667 0.96
vt 0.3333333 0.96
vt 0.1666667 0.96
vt 0 0.96
vt 1 0.98
vt 0.8333333 0.96
vt 0.8333333 0.98
vt 1 0.98
vt 0.8333333 0.98
vt 0.6666666 0.98
vt 0.6666666 0.98
vt 0.5 0.98
vt 0.3333333 0.98
vt 0.3333333 0.98
vt 0.1666667 0.98
vt 0.1666667 0.98
vt 0 0.98
vt 1 1
vt 0.8333333 1
vt 0.8333333 1
vt 0.6666666 1
vt 0.6666666 1
vt 0.5 1
vt 0.3333333 1
vt 0.3333333 1
vt 0.1666667 1
vt 0.1666667 1
vt 0 1

vt2 0.9916687 0.8056496
vt2 0.9918231 0.8078782
vt2 0.9873562 0.8059486
vt2 0.9875058 0.8081775
vt2 0.5845696 0.8848035
vt2 0.5840812 0.8869836
vt2 0.5803465 0.8838575
vt2 0.579856 0.8860369
vt2 0.8376703 0.8003065
vt2 0.8359731 0.8017434
vt2 0.8348855 0.7970169
vt2 0.8331901 0.798456
vt2 0.00390625 0.8931131
vt2 0.004124162 0.8908898
vt2 0.008212629 0.8935353
vt2 0.008425623 0.8913115
vt2 0.8779183 0.00390625
vt2 0.8793255 0.005622779
vt2 0.8745977 0.006628808
vt2 0.8760065 0.008343799
vt2 0.005531616 0.5183219
vt2 0.00390625 0.5167892
vt2 0.008495661 0.5151792
vt2 0.006872237 0.5136443
vt2 0.9749517 0.8067527
vt2 0.9750903 0.8089824
vt2 0.5682113 0.8811136
vt2 0.5677161 0.8832925
vt2 0.8268561 0.787582
vt2 0.825165 0.789026
vt2 0.02059808 0.8946941
vt2 0.02080007 0.8924693
vt2 0.8650633 0.0144751
vt2 0.8664759 0.01618749
vt2 0.01704293 0.5061624
vt2 0.0154241 0.504623
vt2 0.9552546 0.8079213
vt2 0.9553802 0.8101516
vt2 0.5489623 0.8767171
vt2 0.5484621 0.8788943
vt2 0.8140659 0.7726522
vt2 0.8123798 0.7741021
vt2 0.04026408 0.8964251
vt2 0.0404532 0.8941993
vt2 0.8499563 0.02696454
vt2 0.8513727 0.02867322
vt2 0.03065914 0.4918923
vt2 0.02904566 0.4903472
vt2 0.9290672 0.8093142
vt2 0.9291784 0.8115454
vt2 0.5233967 0.8708107
vt2 0.5228909 0.8729865
vt2 0.7969978 0.7528743
vt2 0.7953174 0.7543305
vt2 0.06641282 0.8985656
vt2 0.06658746 0.8963385
vt2 0.8299195 0.04361415
vt2 0.8313402 0.04531908
vt2 0.04882529 0.4729908
vt2 0.04721776 0.4714396
vt2 0.8971909 0.8107913
vt2 0.8972858 0.8130234
vt2 0.4923098 0.8635363
vt2 0.4917974 0.8657109
vt2 0.7761334 0.7288933
vt2 0.7744591 0.7303568
vt2 0.09824707 0.9009528
vt2 0.09840558 0.8987243
vt2 0.8055944 0.063942
vt2 0.8070205 0.0656429
vt2 0.0710232 0.4500796
vt2 0.06942224 0.4485216
vt2 0.8604278 0.8122119
vt2 0.8605044 0.8144447
vt2 0.4564957 0.8550369
vt2 0.455976 0.8572095
vt2 0.7519537 0.7013544
vt2 0.7502865 0.7028258
vt2 0.1349697 0.9034227
vt2 0.1351099 0.9011929
vt2 0.7776238 0.08746753
vt2 0.7790554 0.08916349
vt2 0.09673541 0.4237807
vt2 0.09514205 0.422215
vt2 0.8195795 0.8134357
vt2 0.8196355 0.815669
vt2 0.4167473 0.8454536
vt2 0.4162194 0.8476244
vt2 0.7249391 0.6709017
vt2 0.7232798 0.6723822
vt2 0.1757833 0.9058126
vt2 0.1759029 0.9035819
vt2 0.7466473 0.1137095
vt2 0.7480855 0.1154002
vt2 0.1254451 0.3947144
vt2 0.1238602 0.39314
vt2 0.775448 0.8143229
vt2 0.7754803 0.8165565
vt2 0.3738557 0.8349288
vt2 0.3733182 0.8370974
vt2 0.6955686 0.6381778
vt2 0.6939188 0.6396686
vt2 0.219891 0.9079596
vt2 0.219987 0.9057279
vt2 0.7133043 0.1421887
vt2 0.7147501 0.1438732
vt2 0.156636 0.3635008
vt2 0.1550611 0.3619166
vt2 0.7288352 0.8147322
vt2 0.7288403 0.8169661
vt2 0.3286099 0.8236029
vt2 0.3280616 0.8257685
vt2 0.6643207 0.6038243
vt2 0.6626815 0.605327
vt2 0.2664956 0.9097006
vt2 0.2665644 0.9074678
vt2 0.6782328 0.1724275
vt2 0.6796867 0.1741045
vt2 0.1897934 0.3307589
vt2 0.1882298 0.3291634
vt2 0.6804016 0.8145432
vt2 0.6803271 0.8167757
vt2 0.281606 0.8115947
vt2 0.2811829 0.8137885
vt2 0.6316214 0.5684624
vt2 0.630129 0.570111
vt2 0.3146595 0.9108483
vt2 0.3146487 0.9086145
vt2 0.6422289 0.2038476
vt2 0.6435843 0.2056055
vt2 0.2243509 0.2971206
vt2 0.2229425 0.2953865
vt2 0.6338797 0.8117483
vt2 0.6336535 0.8139707
vt2 0.2352276 0.8056496
vt2 0.2352191 0.8078838
vt2 0.5947258 0.5407749
vt2 0.5936983 0.5427467
vt2 0.3604024 0.9091823
vt2 0.3602398 0.9069543
vt2 0.6048108 0.2294266
vt2 0.6058164 0.2314055
vt2 0.2624626 0.2712953
vt2 0.2615379 0.2692619
vt2 0.5888164 0.8056496
vt2 0.5884758 0.8078573
vt2 0.1900142 0.811493
vt2 0.1905346 0.8136654
vt2 0.5519948 0.5271512
vt2 0.5515758 0.5293352
vt2 0.4045035 0.903954
vt2 0.404226 0.9017375
vt2 0.5634621 0.2444901
vt2 0.5639709 0.2466508
vt2 0.3057035 0.2594777
vt2 0.3054008 0.2572643
vt2 0.1892278 0.8094022
vt2 0.1447408 0.8258385
vt2 0.1455151 0.8279339
vt2 0.5052967 0.5244512
vt2 0.5052437 0.5222281
vt2 0.5053346 0.5266746
vt2 0.4505523 0.8972691
vt2 0.4502617 0.8950543
vt2 0.5176107 0.2502885
vt2 0.5176786 0.2525069
vt2 0.3526619 0.2586416
vt2 0.3528194 0.2564131
vt2 0.0980508 0.8437673
vt2 0.09887101 0.845845
vt2 0.1461161 0.8300855
vt2 0.4559317 0.5296335
vt2 0.4555801 0.5274245
vt2 0.4562825 0.5318387
vt2 0.4994607 0.8908898
vt2 0.467799 0.2476896
vt2 0.4680226 0.245437
vt2 0.4675783 0.2499267
vt2 0.4018485 0.2658856
vt2 0.4023 0.2636975
vt2 0.05045982 0.8636492
vt2 0.05134691 0.8656997
vt2 0.4051982 0.5387677
vt2 0.4057702 0.5409284
vt2 0.4063419 0.54309
vt2 0.4167162 0.2384624
vt2 0.4163277 0.2406742
vt2 0.4159388 0.2428933
vt2 0.4516398 0.2785998
vt2 0.4522737 0.2764575
vt2 0.00390625 0.8849651
vt2 0.004863601 0.8869836
vt2 0.3562707 0.554114
vt2 0.3569978 0.5562274
vt2 0.3577249 0.5583421
vt2 0.3664888 0.2280648
vt2 0.3659634 0.2302455
vt2 0.3654374 0.2324305
vt2 0.5001763 0.294512
vt2 0.5009273 0.2924079
vt2 0.4382206 0.9762143
vt2 0.4376365 0.9783706
vt2 0.3912572 0.9645228
vt2 0.3907481 0.9666979
vt2 0.3110037 0.5714251
vt2 0.3118475 0.5734952
vt2 0.3126907 0.5755658
vt2 0.3197266 0.2155397
vt2 0.3190848 0.2176873
vt2 0.3184424 0.2198375
vt2 0.5453626 0.311607
vt2 0.546193 0.309533
vt2 0.3492957 0.9556117
vt2 0.3488675 0.9578044
vt2 0.2716891 0.5887313
vt2 0.2726304 0.5907618
vt2 0.2735702 0.5927893
vt2 0.2789625 0.2023668
vt2 0.2782111 0.2044783
vt2 0.2774601 0.2065907
vt2 0.5849215 0.328032
vt2 0.5858108 0.3259827
vt2 0.3152203 0.9498048
vt2 0.3149017 0.952016
vt2 0.2406698 0.6041279
vt2 0.2417113 0.6061121
vt2 0.2427525 0.6080957
vt2 0.246808 0.1901453
vt2 0.245929 0.1922025
vt2 0.2450465 0.1942669
vt2 0.6164712 0.3420237
vt2 0.6174095 0.3399962
vt2 0.2921101 0.9472921
vt2 0.2919163 0.9495176
vt2 0.2204316 0.6155649
vt2 0.2215194 0.6175155
vt2 0.222612 0.6194757
vt2 0.2259318 0.1804441
vt2 0.2249476 0.1824358
vt2 0.223954 0.184442
vt2 0.6375067 0.3519324
vt2 0.6384394 0.3499025
vt2 0.2761272 0.9462603
vt2 0.2759789 0.9484893
vt2 0.206453 0.623279
vt2 0.2074509 0.6252627
vt2 0.2084522 0.6272544
vt2 0.2116967 0.173015
vt2 0.2107225 0.175007
vt2 0.2097471 0.177002
vt2 0.6522362 0.3585124
vt2 0.6530621 0.3564367
vt2 0.2610389 0.9450545
vt2 0.2608775 0.9472828
vt2 0.1926551 0.6293926
vt2 0.1935153 0.6314481
vt2 0.194375 0.6335014
vt2 0.1978072 0.166511
vt2 0.196907 0.1685483
vt2 0.1960112 0.1705788
vt2 0.6666018 0.3637334
vt2 0.6672881 0.3616073
vt2 0.2465734 0.9439362
vt2 0.246417 0.9461648
vt2 0.1791332 0.6345292
vt2 0.1799044 0.6366209
vt2 0.1806752 0.6387109
vt2 0.1843643 0.1607433
vt2 0.1835037 0.162805
vt2 0.1826477 0.1648585
vt2 0.6806074 0.3678846
vt2 0.6811986 0.3657302
vt2 0.2327257 0.9429876
vt2 0.2325857 0.9452173
vt2 0.1660783 0.6391109
vt2 0.166823 0.6412132
vt2 0.1675674 0.6433138
vt2 0.1715025 0.1554445
vt2 0.1706424 0.1575151
vt2 0.1697877 0.1595763
vt2 0.694082 0.3713661
vt2 0.6946374 0.3692022
vt2 0.2195366 0.942267
vt2 0.2194248 0.9444981
vt2 0.1536931 0.6435683
vt2 0.1544869 0.6456547
vt2 0.1552797 0.6477384
vt2 0.159385 0.1503943
vt2 0.1584801 0.1524558
vt2 0.1575819 0.1545068
vt2 0.7068532 0.3745907
vt2 0.7074441 0.3724363
vt2 0.2070345 0.9418546
vt2 0.2069721 0.9440877
vt2 0.1421875 0.6483485
vt2 0.1431177 0.650383
vt2 0.1440455 0.6524122
vt2 0.1481801 0.1453819
vt2 0.1471727 0.147406
vt2 0.1461738 0.1494198
vt2 0.7187756 0.3779601
vt2 0.7194809 0.3758404
vt2 0.1951548 0.9419147
vt2 0.1951894 0.9441485
vt2 0.1317661 0.6539177
vt2 0.1329245 0.6558417
vt2 0.134078 0.6577587
vt2 0.1380206 0.1401494
vt2 0.1368398 0.1420748
vt2 0.1356555 0.1440057
vt2 0.72979 0.3818444
vt2 0.7306826 0.3797966
vt2 0.1836832 0.9427719
vt2 0.1226098 0.6607224
vt2 0.1212237 0.6589476
vt2 0.1240562 0.6624466
vt2 0.1255005 0.6641803
vt2 0.1290183 0.1343434
vt2 0.1276536 0.1360938
vt2 0.7400028 0.3865783
vt2 0.7387859 0.3884517
vt2 0.1951548 0.9419147
vt2 0.1836832 0.9427719
vt2 0.1837109 0.9405381
vt2 0.1834061 0.9449887
vt2 0.172059 0.9423792
vt2 0.1149271 0.6689581
vt2 0.1132207 0.6675507
vt2 0.1166221 0.6703553
vt2 0.1182505 0.6718813
vt2 0.1208186 0.1277559
vt2 0.1192313 0.1293071
vt2 0.747456 0.3950373
vt2 0.7490746 0.3934975
vt2 0.1723078 0.9401592
vt2 0.172059 0.9423792
vt2 0.1066494 0.6778584
vt2 0.1085318 0.6790317
vt2 0.1104067 0.6801975
vt2 0.5895412 0.9027979
vt2 0.5884758 0.9008344
vt2 0.5995172 0.8965127
vt2 0.5983256 0.894623
vt2 0.1132247 0.1190287
vt2 0.1114908 0.120414
vt2 0.754737 0.4044087
vt2 0.756587 0.4031565
vt2 0.1601764 0.9385589
vt2 0.1597834 0.940758
vt2 0.09952497 0.6902236
vt2 0.101418 0.6913863
vt2 0.1033061 0.6925453
vt2 0.6114748 0.8885287
vt2 0.6102166 0.8866827
vt2 0.1045491 0.107781
vt2 0.1028323 0.1091875
vt2 0.762249 0.4165425
vt2 0.7641279 0.4153339
vt2 0.1461324 0.935745
vt2 0.1456612 0.9379287
vt2 0.09039488 0.7041556
vt2 0.09223842 0.7054024
vt2 0.09407776 0.7066459
vt2 0.6254113 0.8788568
vt2 0.6241261 0.8770294
vt2 0.09352779 0.09507449
vt2 0.09188594 0.09656788
vt2 0.7715701 0.4305381
vt2 0.7734029 0.4292607
vt2 0.1298348 0.9319542
vt2 0.1293317 0.9341308
vt2 0.07978727 0.7191224
vt2 0.0815899 0.7204318
vt2 0.08338907 0.7217384
vt2 0.6406143 0.868187
vt2 0.6393326 0.8663573
vt2 0.08088688 0.08162694
vt2 0.07929526 0.08317363
vt2 0.7823614 0.4455693
vt2 0.7841485 0.4442288
vt2 0.1119068 0.9276996
vt2 0.1114077 0.9298771
vt2 0.06823753 0.7344039
vt2 0.07000361 0.7357675
vt2 0.07176574 0.7371277
vt2 0.6565341 0.8572196
vt2 0.6552799 0.8553708
vt2 0.06734688 0.06795944
vt2 0.0657896 0.06954084
vt2 0.7941654 0.4608591
vt2 0.7959015 0.4594534
vt2 0.09315651 0.923416
vt2 0.09269014 0.9256009
vt2 0.05628718 0.7492974
vt2 0.05801713 0.750714
vt2 0.05974186 0.7521251
vt2 0.6726068 0.846664
vt2 0.6714082 0.8447787
vt2 0.05362505 0.05457386
vt2 0.05209007 0.05617692
vt2 0.8065174 0.475642
vt2 0.8081906 0.4741617
vt2 0.0743862 0.919539
vt2 0.07398502 0.9217367
vt2 0.04448223 0.7631261
vt2 0.04617428 0.7646002
vt2 0.04785775 0.7660644
vt2 0.6882611 0.837239
vt2 0.6871592 0.8352956
vt2 0.04043626 0.04193739
vt2 0.03891038 0.04354908
vt2 0.8189459 0.4891732
vt2 0.8205333 0.4876012
vt2 0.05639306 0.9165046
vt2 0.05610349 0.9187198
vt2 0.0333643 0.7752594
vt2 0.0350158 0.7768031
vt2 0.03665093 0.7783263
vt2 0.7029209 0.8296769
vt2 0.7019917 0.8276453
vt2 0.02847924 0.03045137
vt2 0.02694138 0.03205168
vt2 0.8309889 0.5007511
vt2 0.8324468 0.4990583
vt2 0.03995734 0.9147546
vt2 0.03986079 0.9169865
vt2 0.02345773 0.7851657
vt2 0.02506866 0.7868004
vt2 0.02665082 0.7883899
vt2 0.715988 0.8247271
vt2 0.7153931 0.8225737
vt2 0.0184126 0.0203863
vt2 0.01681753 0.02192954
vt2 0.8422371 0.5097586
vt2 0.8434769 0.5079001
vt2 0.0258209 0.9147546
vt2 0.02607989 0.9169735
vt2 0.01523148 0.792551
vt2 0.01677633 0.7942525
vt2 0.01833626 0.7959796
vt2 0.7267789 0.8231039
vt2 0.7268845 0.8208724
vt2 0.01077427 0.01173506
vt2 0.009018918 0.01309311
vt2 0.8524938 0.5157197
vt2 0.8533282 0.5136474
vt2 0.01465494 0.917079
vt2 0.01559246 0.9191068
vt2 0.008997498 0.7977076
vt2 0.01058018 0.7991482
vt2 0.01174342 0.801102
vt2 0.7346619 0.8253703
vt2 0.7358 0.8234479
vt2 0.005905348 0.00390625
vt2 0.00390625 0.00487027
vt2 0.8618863 0.5183219
vt2 0.8621287 0.5161011
vt2 0.007260668 0.922445
vt2 0.009038427 0.923798
vt2 0.8832318 0.02987279
vt2 0.8839559 0.02775809
vt2 0.890592 0.03150181
vt2 0.8908287 0.02927911
vt2 0.00390625 0.8017434
vt2 0.9978419 0.006134023
vt2 0.9902789 0.006134023
vt2 0.9904447 0.00390625
vt2 0.7397733 0.8309445
vt2 0.7416523 0.8297361
vt2 0.9501787 0.01490503
vt2 0.9513463 0.01680962
vt2 0.9422967 0.01832037
vt2 0.9430113 0.02043703
vt2 0.8832318 0.005908498
vt2 0.8842224 0.00390625
vt2 0.8918263 0.008868975
vt2 0.8923198 0.006690234
vt2 0.00398027 0.9303544
vt2 0.006175829 0.9307671
vt2 0.8989251 0.03167324
vt2 0.8988971 0.02940094
vt2 0.8906207 0.0271301
vt2 0.898861 0.02715429
vt2 0.7427568 0.8386791
vt2 0.7449166 0.8381081
vt2 0.9335242 0.02026677
vt2 0.9338808 0.02247212
vt2 0.9010863 0.01019503
vt2 0.9012555 0.007967429
vt2 0.00390625 0.9393806
vt2 0.006122206 0.939097
vt2 0.9084842 0.03167324
vt2 0.9084134 0.02945465
vt2 0.908349 0.02719674
vt2 0.7438399 0.8480178
vt2 0.7460701 0.8478864
vt2 0.9237047 0.02099183
vt2 0.9238002 0.02322385
vt2 0.9111869 0.01059863
vt2 0.9111737 0.008364677
vt2 0.006182629 0.9490421
vt2 0.008298332 0.9483246
vt2 0.9187893 0.03157903
vt2 0.9186252 0.02940899
vt2 0.9185735 0.02718362
vt2 0.7433343 0.8582671
vt2 0.7455634 0.8584143
vt2 0.9131719 0.02060349
vt2 0.9130707 0.02283516
vt2 0.9219233 0.01056402
vt2 0.921828 0.008331948
vt2 0.01006717 0.9589632
vt2 0.01207708 0.9579881
vt2 0.9292256 0.03082803
vt2 0.01413236 0.9569802
vt2 0.01875253 0.9665017
vt2 0.01682119 0.9676245
vt2 0.9291654 0.02971796
vt2 0.929129 0.02749237
vt2 0.7416748 0.868735
vt2 0.7438859 0.8690543
vt2 0.9024864 0.01924651
vt2 0.9022279 0.02146551
vt2 0.9328517 0.01045162
vt2 0.9327412 0.008220386
vt2 0.01489272 0.9687523
vt2 0.01682119 0.9676245
vt2 0.02191499 0.9767495
vt2 0.02377874 0.9755179
vt2 0.9394455 0.03003706
vt2 0.9393828 0.02781198
vt2 0.7393994 0.8787766
vt2 0.7415936 0.879196
vt2 0.8922907 0.01720751
vt2 0.8919055 0.01940801
vt2 0.9433771 0.01047399
vt2 0.9432932 0.008241488
vt2 0.02003984 0.9779637
vt2 0.02191499 0.9767495
vt2 0.02692746 0.9847486
vt2 0.02873422 0.9834347
vt2 0.9487507 0.03015511
vt2 0.02547972 0.9743057
vt2 0.03053069 0.9821068
vt2 0.7370502 0.8877683
vt2 0.7392337 0.8882403
vt2 0.8832318 0.01490503
vt2 0.7435678 0.8795166
vt2 0.7414159 0.8886833
vt2 0.9528219 0.0106753
vt2 0.9527845 0.008441605
vt2 0.9432662 0.006007728
vt2 0.9527038 0.006209084
vt2 0.03127215 0.9910896
vt2 0.03303367 0.9897156
vt2 0.03479958 0.9883474
vt2 0.735042 0.8950577
vt2 0.7372223 0.8955645
vt2 0.7394 0.8960685
vt2 0.9604756 0.01099878
vt2 0.9714975 0.004102555
vt2 0.9792061 0.00390625
vt2 0.9793434 0.006136016
vt2 0.9604956 0.008466986
vt2 0.9603904 0.00623543
vt2 0.03430977 0.9952886
vt2 0.9603521 0.00390625
vt2 0.9654794 0.004003977
vt2 0.9655729 0.006236115
vt2 0.03601102 0.9938912
vt2 0.03774869 0.9924873
vt2 0.7335967 0.8999295
vt2 0.7357645 0.9004643
vt2 0.7379375 0.9010025
vt2 0.9844893 0.006138237
vt2 0.9843974 0.00390625
vt2 0.9656869 0.008467237
vt2 0.9655729 0.006236115
vt2 0.9674755 0.006240742
vt2 0.9673598 0.004009767
vt2 0.03712464 0.9954063
vt2 0.03884943 0.9939865
vt2 0.7330481 0.9016986
vt2 0.735206 0.9022412
vt2 0.7373688 0.9027979
vt2 0.9863726 0.006181328
vt2 0.9863012 0.00394846
vt2 0.9675912 0.008471712
vt2 0.9674755 0.006240742


vc 1 1 1 1
vc 1 1 1 1
vc 1 1 1 1
vc 1 1 1 1
vc 1 1 1 1
vc 1 1 1 1
vc 1 1 1 1
vc 1 1 1 1
vc 1 1 1 1
vc 1 1 1 1
vc 1 1 1 1
vc 1 1 1 1
vc 1 1 1 1
vc 1 1 1 1
vc 1 1 1 1
vc 1 1 1 1
vc 1 1 1 1
vc 1 1 1 1
vc 1 1 1 1
vc 1 1 1 1
vc 1 1 1 1
vc 1 1 1 1
vc 1 1 1 1
vc 1 1 1 1
vc 1 1 1 1
vc 1 1 1 1
vc 1 1 1 1
vc 1 1 1 1
vc 1 1 1 1
vc 1 1 1 1
vc 1 1 1 1
vc 1 1 1 1
vc 1 1 1 1
vc 1 1 1 1
vc 1 1 1 1
vc 1 1 1 1
vc 1 1 1 1
vc 1 1 1 1
vc 1 1 1 1
vc 1 1 1 1
vc 1 1 1 1
vc 1 1 1 1
vc 1 1 1 1
vc 1 1 1 1
vc 1 1 1 1
vc 1 1 1 1
vc 1 1 1 1
vc 1 1 1 1
vc 1 1 1 1
vc 1 1 1 1
vc 1 1 1 1
vc 1 1 1 1
vc 1 1 1 1
vc 1 1 1 1
vc 1 1 1 1
vc 1 1 1 1
vc 1 1 1 1
vc 1 1 1 1
vc 1 1 1 1
vc 1 1 1 1
vc 1 1 1 1
vc 1 1 1 1
vc 1 1 1 1
vc 1 1 1 1
vc 1 1 1 1
vc 1 1 1 1
vc 1 1 1 1
vc 1 1 1 1
vc 1 1 1 1
vc 1 1 1 1
vc 1 1 1 1
vc 1 1 1 1
vc 1 1 1 1
vc 1 1 1 1
vc 1 1 1 1
vc 1 1 1 1
vc 1 1 1 1
vc 1 1 1 1
vc 1 1 1 1
vc 1 1 1 1
vc 1 1 1 1
vc 1 1 1 1
vc 1 1 1 1
vc 1 1 1 1
vc 1 1 1 1
vc 1 1 1 1
vc 1 1 1 1
vc 1 1 1 1
vc 1 1 1 1
vc 1 1 1 1
vc 1 1 1 1
vc 1 1 1 1
vc 1 1 1 1
vc 1 1 1 1
vc 1 1 1 1
vc 1 1 1 1
vc 1 1 1 1
vc 1 1 1 1
vc 1 1 1 1
vc 1 1 1 1
vc 1 1 1 1
vc 1 1 1 1
vc 1 1 1 1
vc 1 1 1 1
vc 1 1 1 1
vc 1 1 1 1
vc 1 1 1 1
vc 1 1 1 1
vc 1 1 1 1
vc 1 1 1 1
vc 1 1 1 1
vc 1 1 1 1
vc 1 1 1 1
vc 1 1 1 1
vc 1 1 1 1
vc 1 1 1 1
vc 1 1 1 1
vc 1 1 1 1
vc 1 1 1 1
vc 1 1 1 1
vc 1 1 1 1
vc 1 1 1 1
vc 1 1 1 1
vc 1 1 1 1
vc 1 1 1 1
vc 1 1 1 1
vc 1 1 1 1
vc 1 1 1 1
vc 1 1 1 1
vc 1 1 1 1
vc 1 1 1 1
vc 1 1 1 1
vc 1 1 1 1
vc 1 1 1 1
vc 1 1 1 1
vc 1 1 1 1
vc 1 1 1 1
vc 1 1 1 1
vc 1 1 1 1
vc 1 1 1 1
vc 1 1 1 1
vc 1 1 1 1
vc 1 1 1 1
vc 1 1 1 1
vc 1 1 1 1
vc 1 1 1 1
vc 1 1 1 1
vc 1 1 1 1
vc 1 1 1 1
vc 1 1 1 1
vc 1 1 1 1
vc 1 1 1 1
vc 1 1 1 1
vc 1 1 1 1
vc 1 1 1 1
vc 1 1 1 1
vc 1 1 1 1
vc 1 1 1 1
vc 1 1 1 1
vc 1 1 1 1
vc 1 1 1 1
vc 1 1 1 1
vc 1 1 1 1
vc 1 1 1 1
vc 1 1 1 1
vc 1 1 1 1
vc 1 1 1 1
vc 1 1 1 1
vc 1 1 1 1
vc 1 1 1 1
vc 1 1 1 1
vc 1 1 1 1
vc 1 1 1 1
vc 1 1 1 1
vc 1 1 1 1
vc 1 1 1 1
vc 1 1 1 1
vc 1 1 1 1
vc 1 1 1 1
vc 1 1 1 1
vc 1 1 1 1
vc 1 1 1 1
vc 1 1 1 1
vc 1 1 1 1
vc 1 1 1 1
vc 1 1 1 1
vc 1 1 1 1
vc 1 1 1 1
vc 1 1 1 1
vc 1 1 1 1
vc 1 1 1 1
vc 1 1 1 1
vc 1 1 1 1
vc 1 1 1 1
vc 1 1 1 1
vc 1 1 1 1
vc 1 1 1 1
vc 1 1 1 1
vc 1 1 1 1
vc 1 1 1 1
vc 1 1 1 1
vc 1 1 1 1
vc 1 1 1 1
vc 1 1 1 1
vc 1 1 1 1
vc 1 1 1 1
vc 1 1 1 1
vc 1 1 1 1
vc 1 1 1 1
vc 1 1 1 1
vc 1 1 1 1
vc 1 1 1 1
vc 1 1 1 1
vc 1 1 1 1
vc 1 1 1 1
vc 1 1 1 1
vc 1 1 1 1
vc 1 1 1 1
vc 1 1 1 1
vc 1 1 1 1
vc 1 1 1 1
vc 1 1 1 1
vc 1 1 1 1
vc 1 1 1 1
vc 1 1 1 1
vc 1 1 1 1
vc 1 1 1 1
vc 1 1 1 1
vc 1 1 1 1
vc 1 1 1 1
vc 1 1 1 1
vc 1 1 1 1
vc 1 1 1 1
vc 1 1 1 1
vc 1 1 1 1
vc 1 1 1 1
vc 1 1 1 1
vc 1 1 1 1
vc 1 1 1 1
vc 1 1 1 1
vc 1 1 1 1
vc 1 1 1 1
vc 1 1 1 1
vc 1 1 1 1
vc 1 1 1 1
vc 1 1 1 1
vc 1 1 1 1
vc 1 1 1 1
vc 1 1 1 1
vc 1 1 1 1
vc 1 1 1 1
vc 1 1 1 1
vc 1 1 1 1
vc 1 1 1 1
vc 1 1 1 1
vc 1 1 1 1
vc 1 1 1 1
vc 1 1 1 1
vc 1 1 1 1
vc 1 1 1 1
vc 1 1 1 1
vc 1 1 1 1
vc 1 1 1 1
vc 1 1 1 1
vc 1 1 1 1
vc 1 1 1 1
vc 1 1 1 1
vc 1 1 1 1
vc 1 1 1 1
vc 1 1 1 1
vc 1 1 1 1
vc 1 1 1 1
vc 1 1 1 1
vc 1 1 1 1
vc 1 1 1 1
vc 1 1 1 1
vc 1 1 1 1
vc 1 1 1 1
vc 1 1 1 1
vc 1 1 1 1
vc 1 1 1 1
vc 1 1 1 1
vc 1 1 1 1
vc 1 1 1 1
vc 1 1 1 1
vc 1 1 1 1
vc 1 1 1 1
vc 1 1 1 1
vc 1 1 1 1
vc 1 1 1 1
vc 1 1 1 1
vc 1 1 1 1
vc 1 1 1 1
vc 1 1 1 1
vc 1 1 1 1
vc 1 1 1 1
vc 1 1 1 1
vc 1 1 1 1
vc 1 1 1 1
vc 1 1 1 1
vc 1 1 1 1
vc 1 1 1 1
vc 1 1 1 1
vc 1 1 1 1
vc 1 1 1 1
vc 1 1 1 1
vc 1 1 1 1
vc 1 1 1 1
vc 1 1 1 1
vc 1 1 1 1
vc 1 1 1 1
vc 1 1 1 1
vc 1 1 1 1
vc 1 1 1 1
vc 1 1 1 1
vc 1 1 1 1
vc 1 1 1 1
vc 1 1 1 1
vc 1 1 1 1
vc 1 1 1 1
vc 1 1 1 1
vc 1 1 1 1
vc 1 1 1 1
vc 1 1 1 1
vc 1 1 1 1
vc 1 1 1 1
vc 1 1 1 1
vc 1 1 1 1
vc 1 1 1 1
vc 1 1 1 1
vc 1 1 1 1
vc 1 1 1 1
vc 1 1 1 1
vc 1 1 1 1
vc 1 1 1 1
vc 1 1 1 1
vc 1 1 1 1
vc 1 1 1 1
vc 1 1 1 1
vc 1 1 1 1
vc 1 1 1 1
vc 1 1 1 1
vc 1 1 1 1
vc 1 1 1 1
vc 1 1 1 1
vc 1 1 1 1
vc 1 1 1 1
vc 1 1 1 1
vc 1 1 1 1
vc 1 1 1 1
vc 1 1 1 1
vc 1 1 1 1
vc 1 1 1 1
vc 1 1 1 1
vc 1 1 1 1
vc 1 1 1 1
vc 1 1 1 1
vc 1 1 1 1
vc 1 1 1 1
vc 1 1 1 1
vc 1 1 1 1
vc 1 1 1 1
vc 1 1 1 1
vc 1 1 1 1
vc 1 1 1 1
vc 1 1 1 1
vc 1 1 1 1
vc 1 1 1 1
vc 1 1 1 1
vc 1 1 1 1
vc 1 1 1 1
vc 1 1 1 1
vc 1 1 1 1
vc 1 1 1 1
vc 1 1 1 1
vc 1 1 1 1
vc 1 1 1 1
vc 1 1 1 1
vc 1 1 1 1
vc 1 1 1 1
vc 1 1 1 1
vc 1 1 1 1
vc 1 1 1 1
vc 1 1 1 1
vc 1 1 1 1
vc 1 1 1 1
vc 1 1 1 1
vc 1 1 1 1
vc 1 1 1 1
vc 1 1 1 1
vc 1 1 1 1
vc 1 1 1 1
vc 1 1 1 1
vc 1 1 1 1
vc 1 1 1 1
vc 1 1 1 1
vc 1 1 1 1
vc 1 1 1 1
vc 1 1 1 1
vc 1 1 1 1
vc 1 1 1 1
vc 1 1 1 1
vc 1 1 1 1
vc 1 1 1 1
vc 1 1 1 1
vc 1 1 1 1
vc 1 1 1 1
vc 1 1 1 1
vc 1 1 1 1
vc 1 1 1 1
vc 1 1 1 1
vc 1 1 1 1
vc 1 1 1 1
vc 1 1 1 1
vc 1 1 1 1
vc 1 1 1 1
vc 1 1 1 1
vc 1 1 1 1
vc 1 1 1 1
vc 1 1 1 1
vc 1 1 1 1
vc 1 1 1 1
vc 1 1 1 1
vc 1 1 1 1
vc 1 1 1 1
vc 1 1 1 1
vc 1 1 1 1
vc 1 1 1 1
vc 1 1 1 1
vc 1 1 1 1
vc 1 1 1 1
vc 1 1 1 1
vc 1 1 1 1
vc 1 1 1 1
vc 1 1 1 1
vc 1 1 1 1
vc 1 1 1 1
vc 1 1 1 1
vc 1 1 1 1
vc 1 1 1 1
vc 1 1 1 1
vc 1 1 1 1
vc 1 1 1 1
vc 1 1 1 1
vc 1 1 1 1
vc 1 1 1 1
vc 1 1 1 1
vc 1 1 1 1
vc 1 1 1 1
vc 1 1 1 1
vc 1 1 1 1
vc 1 1 1 1
vc 1 1 1 1
vc 1 1 1 1
vc 1 1 1 1
vc 1 1 1 1
vc 1 1 1 1
vc 1 1 1 1
vc 1 1 1 1
vc 1 1 1 1
vc 1 1 1 1
vc 1 1 1 1
vc 1 1 1 1
vc 1 1 1 1
vc 1 1 1 1
vc 1 1 1 1
vc 1 1 1 1
vc 1 1 1 1
vc 1 1 1 1
vc 1 1 1 1
vc 1 1 1 1
vc 1 1 1 1
vc 1 1 1 1
vc 1 1 1 1
vc 1 1 1 1
vc 1 1 1 1
vc 1 1 1 1
vc 1 1 1 1
vc 1 1 1 1
vc 1 1 1 1
vc 1 1 1 1
vc 1 1 1 1
vc 1 1 1 1
vc 1 1 1 1
vc 1 1 1 1
vc 1 1 1 1
vc 1 1 1 1
vc 1 1 1 1
vc 1 1 1 1
vc 1 1 1 1
vc 1 1 1 1
vc 1 1 1 1
vc 1 1 1 1
vc 1 1 1 1
vc 1 1 1 1
vc 1 1 1 1
vc 1 1 1 1
vc 1 1 1 1
vc 1 1 1 1
vc 1 1 1 1
vc 1 1 1 1
vc 1 1 1 1
vc 1 1 1 1
vc 1 1 1 1
vc 1 1 1 1
vc 1 1 1 1
vc 1 1 1 1
vc 1 1 1 1
vc 1 1 1 1
vc 1 1 1 1
vc 1 1 1 1
vc 1 1 1 1
vc 1 1 1 1
vc 1 1 1 1
vc 1 1 1 1
vc 1 1 1 1
vc 1 1 1 1
vc 1 1 1 1
vc 1 1 1 1
vc 1 1 1 1
vc 1 1 1 1
vc 1 1 1 1
vc 1 1 1 1
vc 1 1 1 1
vc 1 1 1 1
vc 1 1 1 1
vc 1 1 1 1
vc 1 1 1 1
vc 1 1 1 1
vc 1 1 1 1
vc 1 1 1 1
vc 1 1 1 1
vc 1 1 1 1
vc 1 1 1 1
vc 1 1 1 1
vc 1 1 1 1
vc 1 1 1 1
vc 1 1 1 1
vc 1 1 1 1
vc 1 1 1 1
vc 1 1 1 1
vc 1 1 1 1
vc 1 1 1 1
vc 1 1 1 1
vc 1 1 1 1
vc 1 1 1 1
vc 1 1 1 1
vc 1 1 1 1
vc 1 1 1 1
vc 1 1 1 1
vc 1 1 1 1
vc 1 1 1 1
vc 1 1 1 1
vc 1 1 1 1
vc 1 1 1 1
vc 1 1 1 1
vc 1 1 1 1
vc 1 1 1 1
vc 1 1 1 1
vc 1 1 1 1
vc 1 1 1 1
vc 1 1 1 1
vc 1 1 1 1
vc 1 1 1 1
vc 1 1 1 1
vc 1 1 1 1
vc 1 1 1 1
vc 1 1 1 1
vc 1 1 1 1
vc 1 1 1 1
vc 1 1 1 1
vc 1 1 1 1
vc 1 1 1 1
vc 1 1 1 1
vc 1 1 1 1
vc 1 1 1 1
vc 1 1 1 1
vc 1 1 1 1
vc 1 1 1 1
vc 1 1 1 1
vc 1 1 1 1
vc 1 1 1 1
vc 1 1 1 1
vc 1 1 1 1
vc 1 1 1 1
vc 1 1 1 1
vc 1 1 1 1
vc 1 1 1 1
vc 1 1 1 1

usemtl LunetteO2
usemap LunetteO2
f 3/3/3 2/2/2 1/1/1
f 3/3/3 4/4/4 2/2/2
f 7/7/7 6/6/6 5/5/5
f 7/7/7 8/8/8 6/6/6
f 11/11/11 10/10/10 9/9/9
f 11/11/11 12/12/12 10/10/10
f 15/15/15 14/14/14 13/13/13
f 15/15/15 16/16/16 14/14/14
f 19/19/19 18/18/18 17/17/17
f 19/19/19 20/20/20 18/18/18
f 23/23/23 22/22/22 21/21/21
f 23/23/23 24/24/24 22/22/22
f 25/25/25 4/4/4 3/3/3
f 25/25/25 26/26/26 4/4/4
f 27/27/27 8/8/8 7/7/7
f 27/27/27 28/28/28 8/8/8
f 29/29/29 12/12/12 11/11/11
f 29/29/29 30/30/30 12/12/12
f 31/31/31 16/16/16 15/15/15
f 31/31/31 32/32/32 16/16/16
f 33/33/33 20/20/20 19/19/19
f 33/33/33 34/34/34 20/20/20
f 35/35/35 24/24/24 23/23/23
f 35/35/35 36/36/36 24/24/24
f 37/37/37 26/26/26 25/25/25
f 37/37/37 38/38/38 26/26/26
f 39/39/39 28/28/28 27/27/27
f 39/39/39 40/40/40 28/28/28
f 41/41/41 30/30/30 29/29/29
f 41/41/41 42/42/42 30/30/30
f 43/43/43 32/32/32 31/31/31
f 43/43/43 44/44/44 32/32/32
f 45/45/45 34/34/34 33/33/33
f 45/45/45 46/46/46 34/34/34
f 47/47/47 36/36/36 35/35/35
f 47/47/47 48/48/48 36/36/36
f 49/49/49 38/38/38 37/37/37
f 49/49/49 50/50/50 38/38/38
f 51/51/51 40/40/40 39/39/39
f 51/51/51 52/52/52 40/40/40
f 53/53/53 42/42/42 41/41/41
f 53/53/53 54/54/54 42/42/42
f 55/55/55 44/44/44 43/43/43
f 55/55/55 56/56/56 44/44/44
f 57/57/57 46/46/46 45/45/45
f 57/57/57 58/58/58 46/46/46
f 59/59/59 48/48/48 47/47/47
f 59/59/59 60/60/60 48/48/48
f 61/61/61 50/50/50 49/49/49
f 61/61/61 62/62/62 50/50/50
f 63/63/63 52/52/52 51/51/51
f 63/63/63 64/64/64 52/52/52
f 65/65/65 54/54/54 53/53/53
f 65/65/65 66/66/66 54/54/54
f 67/67/67 56/56/56 55/55/55
f 67/67/67 68/68/68 56/56/56
f 69/69/69 58/58/58 57/57/57
f 69/69/69 70/70/70 58/58/58
f 71/71/71 60/60/60 59/59/59
f 71/71/71 72/72/72 60/60/60
f 73/73/73 62/62/62 61/61/61
f 73/73/73 74/74/74 62/62/62
f 75/75/75 64/64/64 63/63/63
f 75/75/75 76/76/76 64/64/64
f 77/77/77 66/66/66 65/65/65
f 77/77/77 78/78/78 66/66/66
f 79/79/79 68/68/68 67/67/67
f 79/79/79 80/80/80 68/68/68
f 81/81/81 70/70/70 69/69/69
f 81/81/81 82/82/82 70/70/70
f 83/83/83 72/72/72 71/71/71
f 83/83/83 84/84/84 72/72/72
f 85/85/85 74/74/74 73/73/73
f 85/85/85 86/86/86 74/74/74
f 87/87/87 76/76/76 75/75/75
f 87/87/87 88/88/88 76/76/76
f 89/89/89 78/78/78 77/77/77
f 89/89/89 90/90/90 78/78/78
f 91/91/91 80/80/80 79/79/79
f 91/91/91 92/92/92 80/80/80
f 93/93/93 82/82/82 81/81/81
f 93/93/93 94/94/94 82/82/82
f 95/95/95 84/84/84 83/83/83
f 95/95/95 96/96/96 84/84/84
f 97/97/97 86/86/86 85/85/85
f 97/97/97 98/98/98 86/86/86
f 99/99/99 88/88/88 87/87/87
f 99/99/99 100/100/100 88/88/88
f 101/101/101 90/90/90 89/89/89
f 101/101/101 102/102/102 90/90/90
f 103/103/103 92/92/92 91/91/91
f 103/103/103 104/104/104 92/92/92
f 105/105/105 94/94/94 93/93/93
f 105/105/105 106/106/106 94/94/94
f 107/107/107 96/96/96 95/95/95
f 107/107/107 108/108/108 96/96/96
f 109/109/109 98/98/98 97/97/97
f 109/109/109 110/110/110 98/98/98
f 111/111/111 100/100/100 99/99/99
f 111/111/111 112/112/112 100/100/100
f 113/113/113 102/102/102 101/101/101
f 113/113/113 114/114/114 102/102/102
f 115/115/115 104/104/104 103/103/103
f 115/115/115 116/116/116 104/104/104
f 117/117/117 106/106/106 105/105/105
f 117/117/117 118/118/118 106/106/106
f 119/119/119 108/108/108 107/107/107
f 119/119/119 120/120/120 108/108/108
f 121/121/121 110/110/110 109/109/109
f 121/121/121 122/122/122 110/110/110
f 123/123/123 112/112/112 111/111/111
f 123/123/123 124/124/124 112/112/112
f 125/125/125 114/114/114 113/113/113
f 125/125/125 126/126/126 114/114/114
f 127/127/127 116/116/116 115/115/115
f 127/127/127 128/128/128 116/116/116
f 129/129/129 118/118/118 117/117/117
f 129/129/129 130/130/130 118/118/118
f 131/131/131 120/120/120 119/119/119
f 131/131/131 132/132/132 120/120/120
f 133/133/133 122/122/122 121/121/121
f 133/133/133 134/134/134 122/122/122
f 135/135/135 124/124/124 123/123/123
f 135/135/135 136/136/136 124/124/124
f 137/137/137 126/126/126 125/125/125
f 137/137/137 138/138/138 126/126/126
f 139/139/139 128/128/128 127/127/127
f 139/139/139 140/140/140 128/128/128
f 141/141/141 130/130/130 129/129/129
f 141/141/141 142/142/142 130/130/130
f 143/143/143 132/132/132 131/131/131
f 143/143/143 144/144/144 132/132/132
f 145/145/145 134/134/134 133/133/133
f 145/145/145 146/146/146 134/134/134
f 147/147/147 136/136/136 135/135/135
f 147/147/147 148/148/148 136/136/136
f 149/149/149 138/138/138 137/137/137
f 149/149/149 150/150/150 138/138/138
f 151/151/151 140/140/140 139/139/139
f 151/151/151 152/152/152 140/140/140
f 153/153/153 142/142/142 141/141/141
f 153/153/153 154/154/154 142/142/142
f 155/155/155 144/144/144 143/143/143
f 155/155/155 156/156/156 144/144/144
f 158/158/158 147/147/147 157/157/157
f 158/158/158 159/159/159 147/147/147
f 159/159/159 148/148/148 147/147/147
f 161/161/161 160/160/160 149/149/149
f 160/160/160 150/150/150 149/149/149
f 160/160/160 162/162/162 150/150/150
f 163/163/163 152/152/152 151/151/151
f 163/163/163 164/164/164 152/152/152
f 165/165/165 154/154/154 153/153/153
f 165/165/165 166/166/166 154/154/154
f 167/167/167 156/156/156 155/155/155
f 167/167/167 168/168/168 156/156/156
f 169/169/169 159/159/159 158/158/158
f 169/169/169 170/170/170 159/159/159
f 170/170/170 171/171/171 159/159/159
f 173/173/173 172/172/172 160/160/160
f 172/172/172 162/162/162 160/160/160
f 172/172/172 174/174/174 162/162/162
f 175/175/175 164/164/164 163/163/163
f 177/177/177 176/176/176 165/165/165
f 176/176/176 166/166/166 165/165/165
f 176/176/176 178/178/178 166/166/166
f 179/179/179 168/168/168 167/167/167
f 179/179/179 180/180/180 168/168/168
f 181/181/181 170/170/170 169/169/169
f 181/181/181 182/182/182 170/170/170
f 183/183/183 172/172/172 173/173/173
f 183/183/183 184/184/184 172/172/172
f 184/184/184 174/174/174 172/172/172
f 184/184/184 185/185/185 174/174/174
f 186/186/186 176/176/176 177/177/177
f 186/186/186 187/187/187 176/176/176
f 187/187/187 178/178/178 176/176/176
f 187/187/187 188/188/188 178/178/178
f 189/189/189 180/180/180 179/179/179
f 189/189/189 190/190/190 180/180/180
f 191/191/191 182/182/182 181/181/181
f 191/191/191 192/192/192 182/182/182
f 193/193/193 184/184/184 183/183/183
f 193/193/193 194/194/194 184/184/184
f 194/194/194 185/185/185 184/184/184
f 194/194/194 195/195/195 185/185/185
f 196/196/196 187/187/187 186/186/186
f 196/196/196 197/197/197 187/187/187
f 197/197/197 188/188/188 187/187/187
f 197/197/197 198/198/198 188/188/188
f 199/199/199 190/190/190 189/189/189
f 199/199/199 200/200/200 190/190/190
f 203/203/203 202/202/202 201/201/201
f 203/203/203 204/204/204 202/202/202
f 205/205/205 194/194/194 193/193/193
f 205/205/205 206/206/206 194/194/194
f 206/206/206 195/195/195 194/194/194
f 206/206/206 207/207/207 195/195/195
f 208/208/208 197/197/197 196/196/196
f 208/208/208 209/209/209 197/197/197
f 209/209/209 198/198/198 197/197/197
f 209/209/209 210/210/210 198/198/198
f 211/211/211 200/200/200 199/199/199
f 211/211/211 212/212/212 200/200/200
f 213/213/213 204/204/204 203/203/203
f 213/213/213 214/214/214 204/204/204
f 215/215/215 206/206/206 205/205/205
f 215/215/215 216/216/216 206/206/206
f 216/216/216 207/207/207 206/206/206
f 216/216/216 217/217/217 207/207/207
f 218/218/218 209/209/209 208/208/208
f 218/218/218 219/219/219 209/209/209
f 219/219/219 210/210/210 209/209/209
f 219/219/219 220/220/220 210/210/210
f 221/221/221 212/212/212 211/211/211
f 221/221/221 222/222/222 212/212/212
f 223/223/223 214/214/214 213/213/213
f 223/223/223 224/224/224 214/214/214
f 225/225/225 216/216/216 215/215/215
f 225/225/225 226/226/226 216/216/216
f 226/226/226 217/217/217 216/216/216
f 226/226/226 227/227/227 217/217/217
f 228/228/228 219/219/219 218/218/218
f 228/228/228 229/229/229 219/219/219
f 229/229/229 220/220/220 219/219/219
f 229/229/229 230/230/230 220/220/220
f 231/231/231 222/222/222 221/221/221
f 231/231/231 232/232/232 222/222/222
f 233/233/233 224/224/224 223/223/223
f 233/233/233 234/234/234 224/224/224
f 235/235/235 226/226/226 225/225/225
f 235/235/235 236/236/236 226/226/226
f 236/236/236 227/227/227 226/226/226
f 236/236/236 237/237/237 227/227/227
f 238/238/238 229/229/229 228/228/228
f 238/238/238 239/239/239 229/229/229
f 239/239/239 230/230/230 229/229/229
f 239/239/239 240/240/240 230/230/230
f 241/241/241 232/232/232 231/231/231
f 241/241/241 242/242/242 232/232/232
f 243/243/243 234/234/234 233/233/233
f 243/243/243 244/244/244 234/234/234
f 245/245/245 236/236/236 235/235/235
f 245/245/245 246/246/246 236/236/236
f 246/246/246 237/237/237 236/236/236
f 246/246/246 247/247/247 237/237/237
f 248/248/248 239/239/239 238/238/238
f 248/248/248 249/249/249 239/239/239
f 249/249/249 240/240/240 239/239/239
f 249/249/249 250/250/250 240/240/240
f 251/251/251 242/242/242 241/241/241
f 251/251/251 252/252/252 242/242/242
f 253/253/253 244/244/244 243/243/243
f 253/253/253 254/254/254 244/244/244
f 255/255/255 246/246/246 245/245/245
f 255/255/255 256/256/256 246/246/246
f 256/256/256 247/247/247 246/246/246
f 256/256/256 257/257/257 247/247/247
f 258/258/258 249/249/249 248/248/248
f 258/258/258 259/259/259 249/249/249
f 259/259/259 250/250/250 249/249/249
f 259/259/259 260/260/260 250/250/250
f 261/261/261 252/252/252 251/251/251
f 261/261/261 262/262/262 252/252/252
f 263/263/263 254/254/254 253/253/253
f 263/263/263 264/264/264 254/254/254
f 265/265/265 256/256/256 255/255/255
f 265/265/265 266/266/266 256/256/256
f 266/266/266 257/257/257 256/256/256
f 266/266/266 267/267/267 257/257/257
f 268/268/268 259/259/259 258/258/258
f 268/268/268 269/269/269 259/259/259
f 269/269/269 260/260/260 259/259/259
f 269/269/269 270/270/270 260/260/260
f 271/271/271 262/262/262 261/261/261
f 271/271/271 272/272/272 262/262/262
f 273/273/273 264/264/264 263/263/263
f 273/273/273 274/274/274 264/264/264
f 275/275/275 266/266/266 265/265/265
f 275/275/275 276/276/276 266/266/266
f 276/276/276 267/267/267 266/266/266
f 276/276/276 277/277/277 267/267/267
f 278/278/278 269/269/269 268/268/268
f 278/278/278 279/279/279 269/269/269
f 279/279/279 270/270/270 269/269/269
f 279/279/279 280/280/280 270/270/270
f 281/281/281 272/272/272 271/271/271
f 281/281/281 282/282/282 272/272/272
f 283/283/283 274/274/274 273/273/273
f 283/283/283 284/284/284 274/274/274
f 285/285/285 276/276/276 275/275/275
f 285/285/285 286/286/286 276/276/276
f 286/286/286 277/277/277 276/276/276
f 286/286/286 287/287/287 277/277/277
f 288/288/288 279/279/279 278/278/278
f 288/288/288 289/289/289 279/279/279
f 289/289/289 280/280/280 279/279/279
f 289/289/289 290/290/290 280/280/280
f 291/291/291 282/282/282 281/281/281
f 291/291/291 292/292/292 282/282/282
f 293/293/293 284/284/284 283/283/283
f 293/293/293 294/294/294 284/284/284
f 295/295/295 286/286/286 285/285/285
f 295/295/295 296/296/296 286/286/286
f 296/296/296 287/287/287 286/286/286
f 296/296/296 297/297/297 287/287/287
f 298/298/298 289/289/289 288/288/288
f 298/298/298 299/299/299 289/289/289
f 299/299/299 290/290/290 289/289/289
f 299/299/299 300/300/300 290/290/290
f 301/301/301 292/292/292 291/291/291
f 301/301/301 302/302/302 292/292/292
f 303/303/303 294/294/294 293/293/293
f 303/303/303 304/304/304 294/294/294
f 305/305/305 296/296/296 295/295/295
f 305/305/305 306/306/306 296/296/296
f 306/306/306 297/297/297 296/296/296
f 306/306/306 307/307/307 297/297/297
f 308/308/308 299/299/299 298/298/298
f 308/308/308 309/309/309 299/299/299
f 309/309/309 300/300/300 299/299/299
f 309/309/309 310/310/310 300/300/300
f 311/311/311 302/302/302 301/301/301
f 311/311/311 312/312/312 302/302/302
f 313/313/313 304/304/304 303/303/303
f 315/315/315 314/314/314 305/305/305
f 314/314/314 306/306/306 305/305/305
f 314/314/314 316/316/316 306/306/306
f 316/316/316 307/307/307 306/306/306
f 316/316/316 317/317/317 307/307/307
f 318/318/318 309/309/309 308/308/308
f 318/318/318 319/319/319 309/309/309
f 319/319/319 310/310/310 309/309/309
f 321/321/321 320/320/320 311/311/311
f 320/320/320 312/312/312 311/311/311
f 324/324/324 323/323/323 322/322/322
f 326/326/326 325/325/325 313/313/313
f 328/328/328 327/327/327 314/314/314
f 327/327/327 316/316/316 314/314/314
f 327/327/327 329/329/329 316/316/316
f 329/329/329 317/317/317 316/316/316
f 329/329/329 330/330/330 317/317/317
f 331/331/331 319/319/319 318/318/318
f 331/331/331 332/332/332 319/319/319
f 333/333/333 320/320/320 321/321/321
f 333/333/333 334/334/334 320/320/320
f 335/335/335 323/323/323 324/324/324
f 335/335/335 336/336/336 323/323/323
f 337/337/337 327/327/327 328/328/328
f 337/337/337 338/338/338 327/327/327
f 338/338/338 329/329/329 327/327/327
f 338/338/338 339/339/339 329/329/329
f 342/342/342 341/341/341 340/340/340
f 342/342/342 343/343/343 341/341/341
f 344/344/344 332/332/332 331/331/331
f 344/344/344 345/345/345 332/332/332
f 346/346/346 334/334/334 333/333/333
f 346/346/346 347/347/347 334/334/334
f 348/348/348 336/336/336 335/335/335
f 348/348/348 349/349/349 336/336/336
f 350/350/350 338/338/338 337/337/337
f 350/350/350 351/351/351 338/338/338
f 351/351/351 339/339/339 338/338/338
f 351/351/351 352/352/352 339/339/339
f 353/353/353 343/343/343 342/342/342
f 353/353/353 354/354/354 343/343/343
f 355/355/355 345/345/345 344/344/344
f 355/355/355 356/356/356 345/345/345
f 357/357/357 347/347/347 346/346/346
f 357/357/357 358/358/358 347/347/347
f 359/359/359 349/349/349 348/348/348
f 359/359/359 360/360/360 349/349/349
f 361/361/361 351/351/351 350/350/350
f 361/361/361 362/362/362 351/351/351
f 362/362/362 352/352/352 351/351/351
f 362/362/362 363/363/363 352/352/352
f 364/364/364 354/354/354 353/353/353
f 364/364/364 365/365/365 354/354/354
f 366/366/366 356/356/356 355/355/355
f 366/366/366 367/367/367 356/356/356
f 368/368/368 358/358/358 357/357/357
f 368/368/368 369/369/369 358/358/358
f 370/370/370 360/360/360 359/359/359
f 370/370/370 371/371/371 360/360/360
f 372/372/372 362/362/362 361/361/361
f 372/372/372 373/373/373 362/362/362
f 373/373/373 363/363/363 362/362/362
f 373/373/373 374/374/374 363/363/363
f 375/375/375 365/365/365 364/364/364
f 375/375/375 376/376/376 365/365/365
f 377/377/377 367/367/367 366/366/366
f 377/377/377 378/378/378 367/367/367
f 379/379/379 369/369/369 368/368/368
f 379/379/379 380/380/380 369/369/369
f 381/381/381 371/371/371 370/370/370
f 381/381/381 382/382/382 371/371/371
f 383/383/383 373/373/373 372/372/372
f 383/383/383 384/384/384 373/373/373
f 384/384/384 374/374/374 373/373/373
f 384/384/384 385/385/385 374/374/374
f 386/386/386 376/376/376 375/375/375
f 386/386/386 387/387/387 376/376/376
f 388/388/388 378/378/378 377/377/377
f 388/388/388 389/389/389 378/378/378
f 390/390/390 380/380/380 379/379/379
f 390/390/390 391/391/391 380/380/380
f 392/392/392 382/382/382 381/381/381
f 392/392/392 393/393/393 382/382/382
f 394/394/394 384/384/384 383/383/383
f 394/394/394 395/395/395 384/384/384
f 395/395/395 385/385/385 384/384/384
f 395/395/395 396/396/396 385/385/385
f 397/397/397 387/387/387 386/386/386
f 397/397/397 398/398/398 387/387/387
f 399/399/399 389/389/389 388/388/388
f 399/399/399 400/400/400 389/389/389
f 401/401/401 391/391/391 390/390/390
f 401/401/401 402/402/402 391/391/391
f 403/403/403 393/393/393 392/392/392
f 403/403/403 404/404/404 393/393/393
f 405/405/405 395/395/395 394/394/394
f 405/405/405 406/406/406 395/395/395
f 406/406/406 396/396/396 395/395/395
f 406/406/406 407/407/407 396/396/396
f 408/408/408 398/398/398 397/397/397
f 408/408/408 409/409/409 398/398/398
f 410/410/410 400/400/400 399/399/399
f 410/410/410 411/411/411 400/400/400
f 412/412/412 402/402/402 401/401/401
f 412/412/412 413/413/413 402/402/402
f 414/414/414 404/404/404 403/403/403
f 414/414/414 415/415/415 404/404/404
f 416/416/416 406/406/406 405/405/405
f 416/416/416 417/417/417 406/406/406
f 417/417/417 407/407/407 406/406/406
f 417/417/417 418/418/418 407/407/407
f 419/419/419 409/409/409 408/408/408
f 419/419/419 420/420/420 409/409/409
f 421/421/421 411/411/411 410/410/410
f 421/421/421 422/422/422 411/411/411
f 423/423/423 413/413/413 412/412/412
f 423/423/423 424/424/424 413/413/413
f 425/425/425 415/415/415 414/414/414
f 425/425/425 426/426/426 415/415/415
f 427/427/427 417/417/417 416/416/416
f 427/427/427 428/428/428 417/417/417
f 428/428/428 418/418/418 417/417/417
f 428/428/428 429/429/429 418/418/418
f 430/430/430 420/420/420 419/419/419
f 430/430/430 431/431/431 420/420/420
f 432/432/432 422/422/422 421/421/421
f 432/432/432 433/433/433 422/422/422
f 434/434/434 424/424/424 423/423/423
f 434/434/434 435/435/435 424/424/424
f 436/436/436 426/426/426 425/425/425
f 436/436/436 437/437/437 426/426/426
f 438/438/438 428/428/428 427/427/427
f 438/438/438 439/439/439 428/428/428
f 439/439/439 429/429/429 428/428/428
f 439/439/439 440/440/440 429/429/429
f 441/441/441 431/431/431 430/430/430
f 441/441/441 442/442/442 431/431/431
f 443/443/443 433/433/433 432/432/432
f 443/443/443 444/444/444 433/433/433
f 445/445/445 435/435/435 434/434/434
f 445/445/445 446/446/446 435/435/435
f 447/447/447 437/437/437 436/436/436
f 447/447/447 448/448/448 437/437/437
f 449/449/449 439/439/439 438/438/438
f 449/449/449 450/450/450 439/439/439
f 450/450/450 440/440/440 439/439/439
f 450/450/450 451/451/451 440/440/440
f 452/452/452 442/442/442 441/441/441
f 452/452/452 453/453/453 442/442/442
f 454/454/454 444/444/444 443/443/443
f 454/454/454 455/455/455 444/444/444
f 456/456/456 446/446/446 445/445/445
f 456/456/456 457/457/457 446/446/446
f 458/458/458 448/448/448 447/447/447
f 458/458/458 459/459/459 448/448/448
f 462/462/462 461/461/461 460/460/460
f 462/462/462 463/463/463 461/461/461
f 464/464/464 451/451/451 450/450/450
f 467/467/467 466/466/466 465/465/465
f 468/468/468 453/453/453 452/452/452
f 468/468/468 469/469/469 453/453/453
f 472/472/472 471/471/471 470/470/470
f 472/472/472 473/473/473 471/471/471
f 476/476/476 475/475/475 474/474/474
f 476/476/476 477/477/477 475/475/475
f 478/478/478 459/459/459 458/458/458
f 478/478/478 479/479/479 459/459/459
f 480/480/480 463/463/463 462/462/462
f 480/480/480 481/481/481 463/463/463
f 481/481/481 482/482/482 463/463/463
f 481/481/481 483/483/483 482/482/482
f 484/484/484 469/469/469 468/468/468
f 484/484/484 485/485/485 469/469/469
f 486/486/486 473/473/473 472/472/472
f 486/486/486 487/487/487 473/473/473
f 488/488/488 477/477/477 476/476/476
f 488/488/488 489/489/489 477/477/477
f 490/490/490 479/479/479 478/478/478
f 490/490/490 491/491/491 479/479/479
f 492/492/492 481/481/481 480/480/480
f 492/492/492 493/493/493 481/481/481
f 493/493/493 483/483/483 481/481/481
f 493/493/493 494/494/494 483/483/483
f 495/495/495 485/485/485 484/484/484
f 495/495/495 496/496/496 485/485/485
f 497/497/497 487/487/487 486/486/486
f 497/497/497 498/498/498 487/487/487
f 499/499/499 489/489/489 488/488/488
f 499/499/499 500/500/500 489/489/489
f 501/501/501 491/491/491 490/490/490
f 501/501/501 502/502/502 491/491/491
f 503/503/503 493/493/493 492/492/492
f 503/503/503 504/504/504 493/493/493
f 504/504/504 494/494/494 493/493/493
f 504/504/504 505/505/505 494/494/494
f 506/506/506 496/496/496 495/495/495
f 506/506/506 507/507/507 496/496/496
f 508/508/508 498/498/498 497/497/497
f 508/508/508 509/509/509 498/498/498
f 510/510/510 500/500/500 499/499/499
f 510/510/510 511/511/511 500/500/500
f 512/512/512 502/502/502 501/501/501
f 512/512/512 513/513/513 502/502/502
f 514/514/514 504/504/504 503/503/503
f 517/517/517 516/516/516 515/515/515
f 518/518/518 505/505/505 504/504/504
f 518/518/518 519/519/519 505/505/505
f 520/520/520 507/507/507 506/506/506
f 520/520/520 521/521/521 507/507/507
f 522/522/522 509/509/509 508/508/508
f 522/522/522 523/523/523 509/509/509
f 524/524/524 511/511/511 510/510/510
f 524/524/524 525/525/525 511/511/511
f 526/526/526 513/513/513 512/512/512
f 526/526/526 527/527/527 513/513/513
f 528/528/528 516/516/516 517/517/517
f 528/528/528 529/529/529 516/516/516
f 530/530/530 519/519/519 518/518/518
f 530/530/530 531/531/531 519/519/519
f 532/532/532 521/521/521 520/520/520
f 532/532/532 533/533/533 521/521/521
f 534/534/534 523/523/523 522/522/522
f 534/534/534 535/535/535 523/523/523
f 536/536/536 525/525/525 524/524/524
f 536/536/536 537/537/537 525/525/525
f 538/538/538 527/527/527 526/526/526
f 538/538/538 539/539/539 527/527/527
f 540/540/540 529/529/529 528/528/528
f 540/540/540 541/541/541 529/529/529
f 542/542/542 531/531/531 530/530/530
f 541/541/541 544/544/544 543/543/543
f 545/545/545 533/533/533 532/532/532
f 545/545/545 546/546/546 533/533/533
f 547/547/547 535/535/535 534/534/534
f 546/546/546 549/549/549 548/548/548
f 550/550/550 537/537/537 536/536/536
f 550/550/550 551/551/551 537/537/537
f 551/551/551 552/552/552 537/537/537
f 551/551/551 553/553/553 552/552/552
f 554/554/554 541/541/541 540/540/540
f 554/554/554 555/555/555 541/541/541
f 555/555/555 544/544/544 541/541/541
f 555/555/555 556/556/556 544/544/544
f 557/557/557 546/546/546 545/545/545
f 557/557/557 558/558/558 546/546/546
f 558/558/558 549/549/549 546/546/546
f 558/558/558 559/559/559 549/549/549
f 560/560/560 551/551/551 550/550/550
f 563/563/563 562/562/562 561/561/561
f 564/564/564 553/553/553 551/551/551
f 564/564/564 565/565/565 553/553/553
f 566/566/566 555/555/555 554/554/554
f 569/569/569 568/568/568 567/567/567
f 570/570/570 556/556/556 555/555/555
f 570/570/570 571/571/571 556/556/556
f 572/572/572 558/558/558 557/557/557
f 572/572/572 573/573/573 558/558/558
f 573/573/573 559/559/559 558/558/558
f 573/573/573 574/574/574 559/559/559
f 575/575/575 562/562/562 563/563/563
f 575/575/575 576/576/576 562/562/562
f 577/577/577 565/565/565 564/564/564
f 577/577/577 578/578/578 565/565/565
f 579/579/579 568/568/568 569/569/569
f 579/579/579 580/580/580 568/568/568
f 581/581/581 571/571/571 570/570/570
f 581/581/581 582/582/582 571/571/571
f 583/583/583 573/573/573 572/572/572
f 583/583/583 584/584/584 573/573/573
f 584/584/584 574/574/574 573/573/573
f 584/584/584 585/585/585 574/574/574
f 586/586/586 576/576/576 575/575/575
f 586/586/586 587/587/587 576/576/576
f 588/588/588 578/578/578 577/577/577
f 588/588/588 589/589/589 578/578/578
