g tube
v -1.960687 0.8267197 -3.426445
v -1.960028 0.825421 -3.426086
v -1.947574 0.8260314 -3.453012
v -1.946935 0.8247338 -3.452615
v -1.960028 0.825421 -3.426086
v -1.958683 0.825421 -3.425422
v -1.946935 0.8247338 -3.452615
v -1.9456 0.8247338 -3.451931
v -1.958683 0.825421 -3.425422
v -1.957997 0.8267197 -3.425117
v -1.9456 0.8247338 -3.451931
v -1.944905 0.8260314 -3.451643
v -1.957997 0.8267197 -3.425117
v -1.958656 0.8280184 -3.425476
v -1.944905 0.8260314 -3.451643
v -1.945544 0.827329 -3.45204
v -1.958656 0.8280184 -3.425476
v -1.960001 0.8280184 -3.42614
v -1.945544 0.827329 -3.45204
v -1.946879 0.827329 -3.452724
v -1.960001 0.8280184 -3.42614
v -1.960687 0.8267197 -3.426445
v -1.946879 0.827329 -3.452724
v -1.947574 0.8260314 -3.453012
v -1.933395 0.8238769 -3.479636
v -1.932772 0.8225808 -3.479209
v -1.932772 0.8225808 -3.479209
v -1.931446 0.8225808 -3.478508
v -1.931446 0.8225808 -3.478508
v -1.930743 0.8238769 -3.478234
v -1.930743 0.8238769 -3.478234
v -1.931365 0.8251731 -3.478661
v -1.931365 0.8251731 -3.478661
v -1.932691 0.8251731 -3.479362
v -1.932691 0.8251731 -3.479362
v -1.933395 0.8238769 -3.479636
v -1.919455 0.8220157 -3.506199
v -1.918799 0.8207172 -3.505832
v -1.918799 0.8207172 -3.505832
v -1.917456 0.8207172 -3.505165
v -1.917456 0.8207172 -3.505165
v -1.916769 0.8220157 -3.504863
v -1.916769 0.8220157 -3.504863
v -1.917424 0.8233142 -3.505229
v -1.917424 0.8233142 -3.505229
v -1.918767 0.8233142 -3.505897
v -1.918767 0.8233142 -3.505897
v -1.919455 0.8220157 -3.506199
v -1.907034 0.822207 -3.532619
v -1.906305 0.8209116 -3.532419
v -1.906305 0.8209116 -3.532419
v -1.904921 0.8209116 -3.53184
v -1.904921 0.8209116 -3.53184
v -1.904266 0.822207 -3.531462
v -1.904266 0.822207 -3.531462
v -1.904995 0.8235025 -3.531663
v -1.904995 0.8235025 -3.531663
v -1.906379 0.8235025 -3.532241
v -1.906379 0.8235025 -3.532241
v -1.907034 0.822207 -3.532619
v -1.897406 0.8262102 -3.558805
v -1.896599 0.8249495 -3.558899
v -1.896599 0.8249495 -3.558899
v -1.895157 0.8249495 -3.558486
v -1.895157 0.8249495 -3.558486
v -1.894522 0.8262102 -3.557979
v -1.894522 0.8262102 -3.557979
v -1.89533 0.8274709 -3.557884
v -1.89533 0.8274709 -3.557884
v -1.896772 0.8274709 -3.558297
v -1.896772 0.8274709 -3.558297
v -1.897406 0.8262102 -3.558805
v -1.892078 0.8358177 -3.584815
v -1.891276 0.8346415 -3.585287
v -1.891276 0.8346415 -3.585287
v -1.889784 0.8346415 -3.585135
v -1.889784 0.8346415 -3.585135
v -1.889094 0.8358177 -3.58451
v -1.889094 0.8358177 -3.58451
v -1.889896 0.8369939 -3.584038
v -1.889896 0.8369939 -3.584038
v -1.891388 0.8369939 -3.58419
v -1.891388 0.8369939 -3.58419
v -1.892078 0.8358177 -3.584815
v -1.892282 0.8514761 -3.611381
v -1.89158 0.8503885 -3.612139
v -1.89158 0.8503885 -3.612139
v -1.890083 0.8503885 -3.612237
v -1.890083 0.8503885 -3.612237
v -1.889288 0.8514761 -3.611578
v -1.889288 0.8514761 -3.611578
v -1.88999 0.8525638 -3.61082
v -1.88999 0.8525638 -3.61082
v -1.891487 0.8525638 -3.610722
v -1.891487 0.8525638 -3.610722
v -1.892282 0.8514761 -3.611381
v -1.89573 0.8711167 -3.638169
v -1.895096 0.8700836 -3.639052
v -1.895096 0.8700836 -3.639052
v -1.893611 0.8700836 -3.63926
v -1.893611 0.8700836 -3.63926
v -1.892759 0.8711167 -3.638584
v -1.892759 0.8711167 -3.638584
v -1.893393 0.8721498 -3.6377
v -1.893393 0.8721498 -3.6377
v -1.894878 0.8721498 -3.637492
v -1.894878 0.8721498 -3.637492
v -1.89573 0.8711167 -3.638169
v -1.899722 0.8924694 -3.664544
v -1.899067 0.891462 -3.665442
v -1.899067 0.891462 -3.665442
v -1.897577 0.891462 -3.665608
v -1.897577 0.891462 -3.665608
v -1.896741 0.8924694 -3.664876
v -1.896741 0.8924694 -3.664876
v -1.897395 0.8934768 -3.663978
v -1.897395 0.8934768 -3.663978
v -1.898886 0.8934768 -3.663812
v -1.898886 0.8934768 -3.663812
v -1.899722 0.8924694 -3.664544
v -1.901511 0.9132645 -3.689889
v -1.900735 0.9122496 -3.690674
v -1.900735 0.9122496 -3.690674
v -1.899235 0.9122496 -3.690624
v -1.899235 0.9122496 -3.690624
v -1.898513 0.9132645 -3.689788
v -1.898513 0.9132645 -3.689788
v -1.89929 0.9142795 -3.689003
v -1.89929 0.9142795 -3.689003
v -1.900789 0.9142795 -3.689054
v -1.900789 0.9142795 -3.689054
v -1.901511 0.9132645 -3.689889
v -1.898294 0.9312382 -3.71354
v -1.897362 0.9301907 -3.714073
v -1.897362 0.9301907 -3.714073
v -1.895922 0.9301845 -3.713653
v -1.895922 0.9301845 -3.713653
v -1.895414 0.931226 -3.7127
v -1.895414 0.931226 -3.7127
v -1.896346 0.9322735 -3.712168
v -1.896346 0.9322735 -3.712168
v -1.897786 0.9322797 -3.712588
v -1.897786 0.9322797 -3.712588
v -1.898294 0.9312382 -3.71354
v -1.88852 0.9472375 -3.734649
v -1.88751 0.9461589 -3.734908
v -1.88751 0.9461589 -3.734908
v -1.88622 0.9461404 -3.734143
v -1.88622 0.9461404 -3.734143
v -1.88594 0.9472004 -3.733119
v -1.88594 0.9472004 -3.733119
v -1.88695 0.948279 -3.732861
v -1.88695 0.948279 -3.732861
v -1.88824 0.9482975 -3.733626
v -1.88824 0.9482975 -3.733626
v -1.88852 0.9472375 -3.734649
v -1.874151 0.9630305 -3.753489
v -1.873142 0.9619229 -3.753565
v -1.873142 0.9619229 -3.753565
v -1.871987 0.9618929 -3.752608
v -1.871987 0.9618929 -3.752608
v -1.871841 0.9629706 -3.751575
v -1.871841 0.9629706 -3.751575
v -1.87285 0.9640782 -3.751499
v -1.87285 0.9640782 -3.751499
v -1.874005 0.9641082 -3.752456
v -1.874005 0.9641082 -3.752456
v -1.874151 0.9630305 -3.753489
v -1.857595 0.9777414 -3.771042
v -1.85663 0.9765936 -3.771032
v -1.85663 0.9765936 -3.771032
v -1.855525 0.9765522 -3.770019
v -1.855525 0.9765522 -3.770019
v -1.855385 0.9776587 -3.769015
v -1.855385 0.9776587 -3.769015
v -1.856351 0.9788066 -3.769026
v -1.856351 0.9788066 -3.769026
v -1.857456 0.9788479 -3.770039
v -1.857456 0.9788479 -3.770039
v -1.857595 0.9777414 -3.771042
v -1.841206 0.9904946 -3.788295
v -1.840301 0.9892988 -3.788279
v -1.840301 0.9892988 -3.788279
v -1.839146 0.9892448 -3.787323
v -1.839146 0.9892448 -3.787323
v -1.838896 0.9903867 -3.786383
v -1.838896 0.9903867 -3.786383
v -1.839802 0.9915826 -3.786399
v -1.839802 0.9915826 -3.786399
v -1.840956 0.9916366 -3.787355
v -1.840956 0.9916366 -3.787355
v -1.841206 0.9904946 -3.788295
v -1.827301 1.000406 -3.806201
v -1.826476 0.9991533 -3.806213
v -1.826476 0.9991533 -3.806213
v -1.825193 0.9990928 -3.80544
v -1.825193 0.9990928 -3.80544
v -1.824733 1.000285 -3.804654
v -1.824733 1.000285 -3.804654
v -1.825558 1.001538 -3.804642
v -1.825558 1.001538 -3.804642
v -1.826842 1.001599 -3.805415
v -1.826842 1.001599 -3.805415
v -1.827301 1.000406 -3.806201
v -1.81772 1.006512 -3.825624
v -1.816972 1.005213 -3.825577
v -1.816972 1.005213 -3.825577
v -1.815578 1.005169 -3.825024
v -1.815578 1.005169 -3.825024
v -1.814933 1.006425 -3.824517
v -1.814933 1.006425 -3.824517
v -1.815682 1.007724 -3.824563
v -1.815682 1.007724 -3.824563
v -1.817075 1.007768 -3.825116
v -1.817075 1.007768 -3.825116
v -1.81772 1.006512 -3.825624
v -1.811157 1.008371 -3.846033
v -1.810434 1.007068 -3.845861
v -1.810434 1.007068 -3.845861
v -1.808987 1.007059 -3.845469
v -1.808987 1.007059 -3.845469
v -1.808262 1.008354 -3.845248
v -1.808262 1.008354 -3.845248
v -1.808985 1.009657 -3.845419
v -1.808985 1.009657 -3.845419
v -1.810432 1.009665 -3.845812
v -1.810432 1.009665 -3.845812
v -1.811157 1.008371 -3.846033
v -1.806486 1.007219 -3.867038
v -1.805745 1.005941 -3.866777
v -1.805745 1.005941 -3.866777
v -1.804273 1.005972 -3.86649
v -1.804273 1.005972 -3.86649
v -1.803542 1.007281 -3.866464
v -1.803542 1.007281 -3.866464
v -1.804282 1.008559 -3.866725
v -1.804282 1.008559 -3.866725
v -1.805754 1.008529 -3.867012
v -1.805754 1.008529 -3.867012
v -1.806486 1.007219 -3.867038
v -1.802831 1.004451 -3.88839
v -1.80206 1.003199 -3.888094
v -1.80206 1.003199 -3.888094
v -1.800581 1.003268 -3.887856
v -1.800581 1.003268 -3.887856
v -1.799873 1.004589 -3.887913
v -1.799873 1.004589 -3.887913
v -1.800644 1.005841 -3.888208
v -1.800644 1.005841 -3.888208
v -1.802124 1.005772 -3.888447
v -1.802124 1.005772 -3.888447
v -1.802831 1.004451 -3.88839
v -1.799313 1.001457 -3.909851
v -1.798514 1.000219 -3.909568
v -1.798514 1.000219 -3.909568
v -1.79704 1.00032 -3.90931
v -1.79704 1.00032 -3.90931
v -1.796364 1.001659 -3.909337
v -1.796364 1.001659 -3.909337
v -1.797162 1.002897 -3.90962
v -1.797162 1.002897 -3.90962
v -1.798637 1.002796 -3.909877
v -1.798637 1.002796 -3.909877
v -1.799313 1.001457 -3.909851
v -1.795054 0.999639 -3.931113
v -1.794244 0.9984049 -3.930846
v -1.794244 0.9984049 -3.930846
v -1.792776 0.9985183 -3.930562
v -1.792776 0.9985183 -3.930562
v -1.792117 0.9998658 -3.930544
v -1.792117 0.9998658 -3.930544
v -1.792927 1.0011 -3.930811
v -1.792927 1.0011 -3.930811
v -1.794395 1.000987 -3.931096
v -1.794395 1.000987 -3.931096
v -1.795054 0.999639 -3.931113

vn -0.8966885 0 -0.442662
vn -0.4572847 -0.8657734 -0.2032906
vn -0.8898026 0 -0.4563457
vn -0.4635722 -0.8650752 -0.1916915
vn -0.4572847 -0.8657734 -0.2032906
vn 0.4394813 -0.8657702 0.2393703
vn -0.4635722 -0.8650752 -0.1916915
vn 0.4262073 -0.8650506 0.2646411
vn 0.4394813 -0.8657702 0.2393703
vn 0.8966885 0 0.442662
vn 0.4262073 -0.8650506 0.2646411
vn 0.8898026 0 0.4563457
vn 0.8966885 0 0.442662
vn 0.4572847 0.8657734 0.2032906
vn 0.8898026 0 0.4563457
vn 0.4635722 0.8650752 0.1916915
vn 0.4572847 0.8657734 0.2032906
vn -0.4394813 0.8657702 -0.2393703
vn 0.4635722 0.8650752 0.1916915
vn -0.4262073 0.8650506 -0.2646411
vn -0.4394813 0.8657702 -0.2393703
vn -0.8966885 0 -0.442662
vn -0.4262073 0.8650506 -0.2646411
vn -0.8898026 0 -0.4563457
vn -0.8840893 0 -0.467318
vn -0.4689631 -0.8640968 -0.1827851
vn -0.4689631 -0.8640968 -0.1827851
vn 0.4150829 -0.8641005 0.2846692
vn 0.4150829 -0.8641005 0.2846692
vn 0.8840893 0 0.467318
vn 0.8840893 0 0.467318
vn 0.4689631 0.8640968 0.1827851
vn 0.4689631 0.8640968 0.1827851
vn -0.4150829 0.8641005 -0.2846692
vn -0.4150829 0.8641005 -0.2846692
vn -0.8840893 0 -0.467318
vn -0.8954263 0 -0.4452097
vn -0.4584016 -0.865702 -0.2010673
vn -0.4584016 -0.865702 -0.2010673
vn 0.4370328 -0.8657206 0.2439881
vn 0.4370328 -0.8657206 0.2439881
vn 0.8954263 0 0.4452097
vn 0.8954263 0 0.4452097
vn 0.4584016 0.865702 0.2010673
vn 0.4584016 0.865702 0.2010673
vn -0.4370328 0.8657206 -0.2439881
vn -0.4370328 0.8657206 -0.2439881
vn -0.8954263 0 -0.4452097
vn -0.9225989 0 -0.3857606
vn -0.4365491 -0.8636407 -0.2520906
vn -0.4365491 -0.8636407 -0.2520906
vn 0.4860612 -0.8636409 0.1336748
vn 0.4860612 -0.8636409 0.1336748
vn 0.9225989 0 0.3857606
vn 0.9225989 0 0.3857606
vn 0.4365491 0.8636407 0.2520906
vn 0.4365491 0.8636407 0.2520906
vn -0.4860612 0.8636409 -0.1336748
vn -0.4860612 0.8636409 -0.1336748
vn -0.9225989 0 -0.3857606
vn -0.9613558 0 -0.2753089
vn -0.423196 -0.8404713 -0.3383979
vn -0.423196 -0.8404713 -0.3383979
vn 0.5381869 -0.8404601 -0.06310106
vn 0.5381869 -0.8404601 -0.06310106
vn 0.9613558 0 0.2753089
vn 0.9613558 0 0.2753089
vn 0.423196 0.8404713 0.3383979
vn 0.423196 0.8404713 0.3383979
vn -0.5381869 0.8404601 0.06310106
vn -0.5381869 0.8404601 0.06310106
vn -0.9613558 0 -0.2753089
vn -0.9948289 0 -0.1015651
vn -0.4600711 -0.7841633 -0.4164402
vn -0.4600711 -0.7841633 -0.4164402
vn 0.5347646 -0.7841466 -0.3148666
vn 0.5347646 -0.7841466 -0.3148666
vn 0.9948289 0 0.1015651
vn 0.9948289 0 0.1015651
vn 0.4600711 0.7841633 0.4164402
vn 0.4600711 0.7841633 0.4164402
vn -0.5347646 0.7841466 0.3148666
vn -0.5347646 0.7841466 0.3148666
vn -0.9948289 0 -0.1015651
vn -0.9978431 0 0.06564339
vn -0.5300107 -0.7251189 -0.439649
vn -0.5300107 -0.7251189 -0.439649
vn 0.4677966 -0.7251404 -0.5053094
vn 0.4677966 -0.7251404 -0.5053094
vn 0.9978431 0 -0.06564339
vn 0.9978431 0 -0.06564339
vn 0.5300107 0.7251189 0.439649
vn 0.5300107 0.7251189 0.439649
vn -0.4677966 0.7251404 0.5053094
vn -0.4677966 0.7251404 0.5053094
vn -0.9978431 0 0.06564339
vn -0.990371 0 0.138439
vn -0.5678471 -0.6887282 -0.4507807
vn -0.5678471 -0.6887282 -0.4507807
vn 0.4224815 -0.688718 -0.5892171
vn 0.4224815 -0.688718 -0.5892171
vn 0.990371 0 -0.138439
vn 0.990371 0 -0.138439
vn 0.5678471 0.6887282 0.4507807
vn 0.5678471 0.6887282 0.4507807
vn -0.4224815 0.688718 0.5892171
vn -0.4224815 0.688718 0.5892171
vn -0.990371 0 0.138439
vn -0.9938799 0 0.1104664
vn -0.5573649 -0.6716117 -0.4881414
vn -0.5573649 -0.6716117 -0.4881414
vn 0.4365231 -0.6715525 -0.5987192
vn 0.4365231 -0.6715525 -0.5987192
vn 0.9938799 0 -0.1104664
vn 0.9938799 0 -0.1104664
vn 0.5573649 0.6716117 0.4881414
vn 0.5573649 0.6716117 0.4881414
vn -0.4365231 0.6715525 0.5987192
vn -0.4365231 0.6715525 0.5987192
vn -0.9938799 0 0.1104664
vn -0.9994375 0 -0.0335371
vn -0.4816144 -0.6766444 -0.5569561
vn -0.4816144 -0.6766444 -0.5569561
vn 0.5178579 -0.6766486 -0.5234212
vn 0.5178579 -0.6766486 -0.5234212
vn 0.9994375 0 0.0335371
vn 0.9994375 0 0.0335371
vn 0.4816144 0.6766444 0.5569561
vn 0.4816144 0.6766444 0.5569561
vn -0.5178579 0.6766486 0.5234212
vn -0.5178579 0.6766486 0.5234212
vn -0.9994375 0 -0.0335371
vn -0.9600204 0.004092802 -0.2799
vn -0.3386165 -0.6942393 -0.6351146
vn -0.3386165 -0.6942393 -0.6351146
vn 0.6214001 -0.6984096 -0.3550858
vn 0.6214001 -0.6984096 -0.3550858
vn 0.9600204 -0.004092802 0.2799
vn 0.9600204 -0.004092802 0.2799
vn 0.3386165 0.6942393 0.6351146
vn 0.3386165 0.6942393 0.6351146
vn -0.6214001 0.6984096 0.3550858
vn -0.6214001 0.6984096 0.3550858
vn -0.9600204 0.004092802 -0.2799
vn -0.8601432 0.01235815 -0.5099029
vn -0.1869265 -0.7066966 -0.682377
vn -0.1869265 -0.7066966 -0.682377
vn 0.6732267 -0.7190436 -0.1724592
vn 0.6732267 -0.7190436 -0.1724592
vn 0.8601432 -0.01235815 0.5099029
vn 0.8601432 -0.01235815 0.5099029
vn 0.1869265 0.7066966 0.682377
vn 0.1869265 0.7066966 0.682377
vn -0.6732267 0.7190436 0.1724592
vn -0.6732267 0.7190436 0.1724592
vn -0.8601432 0.01235815 -0.5099029
vn -0.7698042 0.01998614 -0.6379672
vn -0.09743541 -0.718447 -0.6887237
vn -0.09743541 -0.718447 -0.6887237
vn 0.6724244 -0.738427 -0.05070402
vn 0.6724244 -0.738427 -0.05070402
vn 0.7698042 -0.01998614 0.6379672
vn 0.7698042 -0.01998614 0.6379672
vn 0.09743541 0.718447 0.6887237
vn 0.09743541 0.718447 0.6887237
vn -0.6724244 0.738427 0.05070402
vn -0.6724244 0.738427 0.05070402
vn -0.7698042 0.01998614 -0.6379672
vn -0.7366965 0.02753671 -0.6756627
vn -0.09298614 -0.73769 -0.6687055
vn -0.09298614 -0.73769 -0.6687055
vn 0.6437389 -0.7652147 0.006834758
vn 0.6437389 -0.7652147 0.006834758
vn 0.7366965 -0.02753671 0.6756627
vn 0.7366965 -0.02753671 0.6756627
vn 0.09298614 0.73769 0.6687055
vn 0.09298614 0.73769 0.6687055
vn -0.6437389 0.7652147 -0.006834758
vn -0.6437389 0.7652147 -0.006834758
vn -0.7366965 0.02753671 -0.6756627
vn -0.7698503 0.03596131 -0.6372106
vn -0.1663382 -0.7612773 -0.6267285
vn -0.1663382 -0.7612773 -0.6267285
vn 0.6035215 -0.7972778 0.0104905
vn 0.6035215 -0.7972778 0.0104905
vn 0.7698503 -0.03596131 0.6372106
vn 0.7698503 -0.03596131 0.6372106
vn 0.1663382 0.7612773 0.6267285
vn 0.1663382 0.7612773 0.6267285
vn -0.6035215 0.7972778 -0.0104905
vn -0.6035215 0.7972778 -0.0104905
vn -0.7698503 0.03596131 -0.6372106
vn -0.8558598 0.04037299 -0.5156299
vn -0.3061172 -0.7948954 -0.5238641
vn -0.3061172 -0.7948954 -0.5238641
vn 0.5497196 -0.8353084 -0.008265265
vn 0.5497196 -0.8353084 -0.008265265
vn 0.8558598 -0.04037299 0.5156299
vn 0.8558598 -0.04037299 0.5156299
vn 0.3061269 0.7948808 0.5238807
vn 0.3061269 0.7948808 0.5238807
vn -0.5497378 0.8352963 0.008265539
vn -0.5497378 0.8352963 0.008265539
vn -0.8558598 0.04037299 -0.5156299
vn -0.9289451 0.02916613 -0.3690667
vn -0.4301117 -0.8370171 -0.3382401
vn -0.4301117 -0.8370171 -0.3382401
vn 0.4988357 -0.8661479 0.03083451
vn 0.4988357 -0.8661479 0.03083451
vn 0.9289451 -0.02916613 0.3690667
vn 0.9289451 -0.02916613 0.3690667
vn 0.4301117 0.8370171 0.3382401
vn 0.4301117 0.8370171 0.3382401
vn -0.4988357 0.8661479 -0.03083451
vn -0.4988357 0.8661479 -0.03083451
vn -0.9289451 0.02916613 -0.3690667
vn -0.9651107 0.005642528 -0.2617815
vn -0.4831742 -0.8630381 -0.1473363
vn -0.4831742 -0.8630381 -0.1473363
vn 0.4819104 -0.8686944 0.1145968
vn 0.4819104 -0.8686944 0.1145968
vn 0.9651107 -0.005642528 0.2617815
vn 0.9651107 -0.005642528 0.2617815
vn 0.4831742 0.8630381 0.1473363
vn 0.4831742 0.8630381 0.1473363
vn -0.4819104 0.8686944 -0.1145968
vn -0.4819104 0.8686944 -0.1145968
vn -0.9651107 0.005642528 -0.2617815
vn -0.9813329 -0.02058351 -0.1912121
vn -0.4878087 -0.8727786 -0.01732524
vn -0.4878087 -0.8727786 -0.01732524
vn 0.4935195 -0.8521754 0.1738841
vn 0.4935195 -0.8521754 0.1738841
vn 0.9813329 0.02058351 0.1912121
vn 0.9813329 0.02058351 0.1912121
vn 0.4878087 0.8727786 0.01732524
vn 0.4878087 0.8727786 0.01732524
vn -0.4935195 0.8521754 -0.1738841
vn -0.4935195 0.8521754 -0.1738841
vn -0.9813329 -0.02058351 -0.1912121
vn -0.9861813 -0.04617385 -0.1591051
vn -0.4718894 -0.880839 0.03798638
vn -0.4718894 -0.880839 0.03798638
vn 0.514315 -0.8346493 0.1970799
vn 0.514315 -0.8346493 0.1970799
vn 0.9861813 0.04617385 0.1591051
vn 0.9861813 0.04617385 0.1591051
vn 0.4718894 0.880839 -0.03798638
vn 0.4718894 0.880839 -0.03798638
vn -0.5143492 0.8346252 -0.197093
vn -0.5143492 0.8346252 -0.197093
vn -0.9861813 -0.04617385 -0.1591051
vn -0.9828932 -0.06715271 -0.1714977
vn -0.4507655 -0.8924712 0.01748385
vn -0.4507655 -0.8924712 0.01748385
vn 0.5321337 -0.8253 0.1889806
vn 0.5321337 -0.8253 0.1889806
vn 0.9828932 0.06715271 0.1714977
vn 0.9828932 0.06715271 0.1714977
vn 0.4507655 0.8924712 -0.01748385
vn 0.4507655 0.8924712 -0.01748385
vn -0.5321337 0.8253 -0.1889806
vn -0.5321337 0.8253 -0.1889806
vn -0.9828932 -0.06715271 -0.1714977
vn -0.978944 -0.07557848 -0.1896217
vn -0.4391549 -0.8983365 -0.01160272
vn -0.4391549 -0.8983365 -0.01160272
vn 0.5397909 -0.8227598 0.1780229
vn 0.5397909 -0.8227598 0.1780229
vn 0.978944 0.07557848 0.1896217
vn 0.978944 0.07557848 0.1896217
vn 0.4391549 0.8983365 0.01160272
vn 0.4391549 0.8983365 0.01160272
vn -0.5397732 0.8227727 -0.1780171
vn -0.5397732 0.8227727 -0.1780171
vn -0.978944 -0.07557848 -0.1896217

vt 1 0
vt 0.8333333 0
vt 1 0.04545455
vt 0.8333333 0.04545455
vt 0.8333333 0
vt 0.6666666 0
vt 0.8333333 0.04545455
vt 0.6666666 0.04545455
vt 0.6666666 0
vt 0.5 0
vt 0.6666666 0.04545455
vt 0.5 0.04545455
vt 0.5 0
vt 0.3333333 0
vt 0.5 0.04545455
vt 0.3333333 0.04545455
vt 0.3333333 0
vt 0.1666667 0
vt 0.3333333 0.04545455
vt 0.1666667 0.04545455
vt 0.1666667 0
vt 0 0
vt 0.1666667 0.04545455
vt 0 0.04545455
vt 1 0.09090909
vt 0.8333333 0.09090909
vt 0.8333333 0.09090909
vt 0.6666666 0.09090909
vt 0.6666666 0.09090909
vt 0.5 0.09090909
vt 0.5 0.09090909
vt 0.3333333 0.09090909
vt 0.3333333 0.09090909
vt 0.1666667 0.09090909
vt 0.1666667 0.09090909
vt 0 0.09090909
vt 1 0.1363636
vt 0.8333333 0.1363636
vt 0.8333333 0.1363636
vt 0.6666666 0.1363636
vt 0.6666666 0.1363636
vt 0.5 0.1363636
vt 0.5 0.1363636
vt 0.3333333 0.1363636
vt 0.3333333 0.1363636
vt 0.1666667 0.1363636
vt 0.1666667 0.1363636
vt 0 0.1363636
vt 1 0.1818182
vt 0.8333333 0.1818182
vt 0.8333333 0.1818182
vt 0.6666666 0.1818182
vt 0.6666666 0.1818182
vt 0.5 0.1818182
vt 0.5 0.1818182
vt 0.3333333 0.1818182
vt 0.3333333 0.1818182
vt 0.1666667 0.1818182
vt 0.1666667 0.1818182
vt 0 0.1818182
vt 1 0.2272727
vt 0.8333333 0.2272727
vt 0.8333333 0.2272727
vt 0.6666666 0.2272727
vt 0.6666666 0.2272727
vt 0.5 0.2272727
vt 0.5 0.2272727
vt 0.3333333 0.2272727
vt 0.3333333 0.2272727
vt 0.1666667 0.2272727
vt 0.1666667 0.2272727
vt 0 0.2272727
vt 1 0.2727273
vt 0.8333333 0.2727273
vt 0.8333333 0.2727273
vt 0.6666666 0.2727273
vt 0.6666666 0.2727273
vt 0.5 0.2727273
vt 0.5 0.2727273
vt 0.3333333 0.2727273
vt 0.3333333 0.2727273
vt 0.1666667 0.2727273
vt 0.1666667 0.2727273
vt 0 0.2727273
vt 1 0.3181818
vt 0.8333333 0.3181818
vt 0.8333333 0.3181818
vt 0.6666666 0.3181818
vt 0.6666666 0.3181818
vt 0.5 0.3181818
vt 0.5 0.3181818
vt 0.3333333 0.3181818
vt 0.3333333 0.3181818
vt 0.1666667 0.3181818
vt 0.1666667 0.3181818
vt 0 0.3181818
vt 1 0.3636364
vt 0.8333333 0.3636364
vt 0.8333333 0.3636364
vt 0.6666666 0.3636364
vt 0.6666666 0.3636364
vt 0.5 0.3636364
vt 0.5 0.3636364
vt 0.3333333 0.3636364
vt 0.3333333 0.3636364
vt 0.1666667 0.3636364
vt 0.1666667 0.3636364
vt 0 0.3636364
vt 1 0.4090909
vt 0.8333333 0.4090909
vt 0.8333333 0.4090909
vt 0.6666666 0.4090909
vt 0.6666666 0.4090909
vt 0.5 0.4090909
vt 0.5 0.4090909
vt 0.3333333 0.4090909
vt 0.3333333 0.4090909
vt 0.1666667 0.4090909
vt 0.1666667 0.4090909
vt 0 0.4090909
vt 1 0.4545455
vt 0.8333333 0.4545455
vt 0.8333333 0.4545455
vt 0.6666666 0.4545455
vt 0.6666666 0.4545455
vt 0.5 0.4545455
vt 0.5 0.4545455
vt 0.3333333 0.4545455
vt 0.3333333 0.4545455
vt 0.1666667 0.4545455
vt 0.1666667 0.4545455
vt 0 0.4545455
vt 1 0.5
vt 0.8333333 0.5
vt 0.8333333 0.5
vt 0.6666666 0.5
vt 0.6666666 0.5
vt 0.5 0.5
vt 0.5 0.5
vt 0.3333333 0.5
vt 0.3333333 0.5
vt 0.1666667 0.5
vt 0.1666667 0.5
vt 0 0.5
vt 1 0.5454546
vt 0.8333333 0.5454546
vt 0.8333333 0.5454546
vt 0.6666666 0.5454546
vt 0.6666666 0.5454546
vt 0.5 0.5454546
vt 0.5 0.5454546
vt 0.3333333 0.5454546
vt 0.3333333 0.5454546
vt 0.1666667 0.5454546
vt 0.1666667 0.5454546
vt 0 0.5454546
vt 1 0.5909091
vt 0.8333333 0.5909091
vt 0.8333333 0.5909091
vt 0.6666666 0.5909091
vt 0.6666666 0.5909091
vt 0.5 0.5909091
vt 0.5 0.5909091
vt 0.3333333 0.5909091
vt 0.3333333 0.5909091
vt 0.1666667 0.5909091
vt 0.1666667 0.5909091
vt 0 0.5909091
vt 1 0.6363636
vt 0.8333333 0.6363636
vt 0.8333333 0.6363636
vt 0.6666666 0.6363636
vt 0.6666666 0.6363636
vt 0.5 0.6363636
vt 0.5 0.6363636
vt 0.3333333 0.6363636
vt 0.3333333 0.6363636
vt 0.1666667 0.6363636
vt 0.1666667 0.6363636
vt 0 0.6363636
vt 1 0.6818182
vt 0.8333333 0.6818182
vt 0.8333333 0.6818182
vt 0.6666666 0.6818182
vt 0.6666666 0.6818182
vt 0.5 0.6818182
vt 0.5 0.6818182
vt 0.3333333 0.6818182
vt 0.3333333 0.6818182
vt 0.1666667 0.6818182
vt 0.1666667 0.6818182
vt 0 0.6818182
vt 1 0.7272727
vt 0.8333333 0.7272727
vt 0.8333333 0.7272727
vt 0.6666666 0.7272727
vt 0.6666666 0.7272727
vt 0.5 0.7272727
vt 0.5 0.7272727
vt 0.3333333 0.7272727
vt 0.3333333 0.7272727
vt 0.1666667 0.7272727
vt 0.1666667 0.7272727
vt 0 0.7272727
vt 1 0.7727273
vt 0.8333333 0.7727273
vt 0.8333333 0.7727273
vt 0.6666666 0.7727273
vt 0.6666666 0.7727273
vt 0.5 0.7727273
vt 0.5 0.7727273
vt 0.3333333 0.7727273
vt 0.3333333 0.7727273
vt 0.1666667 0.7727273
vt 0.1666667 0.7727273
vt 0 0.7727273
vt 1 0.8181818
vt 0.8333333 0.8181818
vt 0.8333333 0.8181818
vt 0.6666666 0.8181818
vt 0.6666666 0.8181818
vt 0.5 0.8181818
vt 0.5 0.8181818
vt 0.3333333 0.8181818
vt 0.3333333 0.8181818
vt 0.1666667 0.8181818
vt 0.1666667 0.8181818
vt 0 0.8181818
vt 1 0.8636364
vt 0.8333333 0.8636364
vt 0.8333333 0.8636364
vt 0.6666666 0.8636364
vt 0.6666666 0.8636364
vt 0.5 0.8636364
vt 0.5 0.8636364
vt 0.3333333 0.8636364
vt 0.3333333 0.8636364
vt 0.1666667 0.8636364
vt 0.1666667 0.8636364
vt 0 0.8636364
vt 1 0.9090909
vt 0.8333333 0.9090909
vt 0.8333333 0.9090909
vt 0.6666666 0.9090909
vt 0.6666666 0.9090909
vt 0.5 0.9090909
vt 0.5 0.9090909
vt 0.3333333 0.9090909
vt 0.3333333 0.9090909
vt 0.1666667 0.9090909
vt 0.1666667 0.9090909
vt 0 0.9090909
vt 1 0.9545454
vt 0.8333333 0.9545454
vt 0.8333333 0.9545454
vt 0.6666666 0.9545454
vt 0.6666666 0.9545454
vt 0.5 0.9545454
vt 0.5 0.9545454
vt 0.3333333 0.9545454
vt 0.3333333 0.9545454
vt 0.1666667 0.9545454
vt 0.1666667 0.9545454
vt 0 0.9545454
vt 1 1
vt 0.8333333 1
vt 0.8333333 1
vt 0.6666666 1
vt 0.6666666 1
vt 0.5 1
vt 0.5 1
vt 0.3333333 1
vt 0.3333333 1
vt 0.1666667 1
vt 0.1666667 1
vt 0 1

vt2 0.005013448 0.5575665
vt2 0.00390625 0.5552886
vt2 0.05002063 0.5356935
vt2 0.04884887 0.533448
vt2 0.004442659 0.1350808
vt2 0.00390625 0.1326052
vt2 0.05327859 0.1245024
vt2 0.05270432 0.1220356
vt2 0.9889771 0.2254651
vt2 0.9883391 0.2279161
vt2 0.9406584 0.2128847
vt2 0.9399881 0.2153272
vt2 0.974004 0.4455417
vt2 0.9728942 0.4478183
vt2 0.9290927 0.4236493
vt2 0.9279183 0.4258934
vt2 0.9972312 0.05356489
vt2 0.9966941 0.05604033
vt2 0.9483331 0.04295732
vt2 0.9477582 0.04542397
vt2 0.004541343 0.3166074
vt2 0.00390625 0.3141556
vt2 0.05301528 0.3040493
vt2 0.05234783 0.301606
vt2 0.09460112 0.5107909
vt2 0.0933786 0.5085728
vt2 0.1027726 0.1121726
vt2 0.1021676 0.109713
vt2 0.8916824 0.19875
vt2 0.8909863 0.2011852
vt2 0.8845978 0.3987216
vt2 0.8833727 0.4009384
vt2 0.898792 0.03059941
vt2 0.8981864 0.03305884
vt2 0.1021207 0.2899439
vt2 0.1014275 0.2875079
vt2 0.1391803 0.4865349
vt2 0.138061 0.4842628
vt2 0.1522043 0.100173
vt2 0.1516612 0.09769931
vt2 0.8426751 0.1848852
vt2 0.8420314 0.1873349
vt2 0.839933 0.37436
vt2 0.838811 0.3766308
vt2 0.8494665 0.01861679
vt2 0.8489228 0.02109037
vt2 0.1509171 0.2761937
vt2 0.1502762 0.2737433
vt2 0.184253 0.4665653
vt2 0.183416 0.4641748
vt2 0.2008765 0.0906006
vt2 0.2004957 0.08809653
vt2 0.7943136 0.1731299
vt2 0.7938063 0.1756114
vt2 0.7945812 0.3542033
vt2 0.7937413 0.3565929
vt2 0.8010744 0.009076572
vt2 0.800693 0.01158054
vt2 0.1986984 0.2646401
vt2 0.1981941 0.262158
vt2 0.2302948 0.4545191
vt2 0.2299602 0.4520085
vt2 0.2487114 0.08548077
vt2 0.2486229 0.08294942
vt2 0.7465745 0.1651503
vt2 0.7462875 0.1676667
vt2 0.7480031 0.3418882
vt2 0.7476655 0.3443984
vt2 0.7536936 0.00390625
vt2 0.7536045 0.00643757
vt2 0.2454397 0.2569566
vt2 0.2451556 0.2544398
vt2 0.2779706 0.4542396
vt2 0.2782706 0.4517245
vt2 0.2969837 0.08742161
vt2 0.2973166 0.08491071
vt2 0.697944 0.1619866
vt2 0.6978693 0.1645183
vt2 0.6994863 0.3412919
vt2 0.6997834 0.3438073
vt2 0.7058366 0.005560682
vt2 0.7061688 0.00807166
vt2 0.2928231 0.2541914
vt2 0.2927513 0.2516596
vt2 0.3284297 0.467098
vt2 0.3292114 0.4646888
vt2 0.3481727 0.09936843
vt2 0.3488638 0.09693185
vt2 0.6450137 0.1619843
vt2 0.6450662 0.1645166
vt2 0.6482129 0.3539093
vt2 0.6489917 0.3563194
vt2 0.654816 0.01710438
vt2 0.6555063 0.01954116
vt2 0.3447659 0.2546022
vt2 0.3448215 0.2520699
vt2 0.3807282 0.4881837
vt2 0.3817314 0.485858
vt2 0.4017736 0.1176281
vt2 0.4026078 0.1152367
vt2 0.5882757 0.1640574
vt2 0.5884148 0.1665865
vt2 0.5955406 0.3748695
vt2 0.596541 0.3771964
vt2 0.6013163 0.03512348
vt2 0.6021498 0.03751509
vt2 0.4010212 0.2569079
vt2 0.4011633 0.2543789
vt2 0.4331206 0.5123491
vt2 0.4341615 0.5100402
vt2 0.4561331 0.1370901
vt2 0.4569148 0.1346808
vt2 0.5307435 0.1682256
vt2 0.5309795 0.1707475
vt2 0.543254 0.398999
vt2 0.5442922 0.4013092
vt2 0.5471609 0.05457986
vt2 0.547942 0.05698934
vt2 0.4584709 0.2610628
vt2 0.45871 0.2585412
vt2 0.483952 0.5344795
vt2 0.4848396 0.5321074
vt2 0.5092685 0.1523172
vt2 0.5097778 0.1498361
vt2 0.4761371 0.1747305
vt2 0.4764875 0.177239
vt2 0.4930804 0.4212281
vt2 0.4939653 0.4236013
vt2 0.4943581 0.07012378
vt2 0.4948667 0.07260507
vt2 0.5134465 0.2672691
vt2 0.5138 0.2647611
vt2 0.5322263 0.5491462
vt2 0.5327875 0.5466763
vt2 0.5590486 0.158078
vt2 0.559052 0.155545
vt2 0.4272451 0.183105
vt2 0.4277601 0.1855849
vt2 0.4459626 0.4361929
vt2 0.4465209 0.4386635
vt2 0.4449917 0.07651019
vt2 0.4449943 0.07904317
vt2 0.5631104 0.2751547
vt2 0.5636286 0.2726755
vt2 0.5794433 0.5557223
vt2 0.5796796 0.5532005
vt2 0.6060179 0.1521355
vt2 0.6054919 0.1496579
vt2 0.3819304 0.194849
vt2 0.3826432 0.1972794
vt2 0.3998801 0.4431699
vt2 0.4001133 0.4456919
vt2 0.3983534 0.07122482
vt2 0.3978267 0.07370227
vt2 0.6092025 0.2865049
vt2 0.6099182 0.2840754
vt2 0.62749 0.5575665
vt2 0.6274948 0.5550337
vt2 0.651691 0.1378654
vt2 0.650838 0.1354803
vt2 0.3369478 0.2101398
vt2 0.3377636 0.2125375
vt2 0.3525249 0.4452855
vt2 0.3525266 0.4478183
vt2 0.352786 0.05734573
vt2 0.3519322 0.0597305
vt2 0.6547235 0.3016494
vt2 0.6555423 0.2992526
vt2 0.6751713 0.5556971
vt2 0.6750075 0.5531696
vt2 0.6956912 0.1198399
vt2 0.694728 0.1174976
vt2 0.2921244 0.2256506
vt2 0.2928928 0.2280643
vt2 0.305079 0.4434533
vt2 0.3049122 0.4459805
vt2 0.3086642 0.03935182
vt2 0.3077003 0.04169385
vt2 0.6998758 0.3172389
vt2 0.7006472 0.3148262
vt2 0.7205768 0.551618
vt2 0.7203076 0.5490997
vt2 0.7377368 0.1024961
vt2 0.7368696 0.1001163
vt2 0.2483487 0.2383679
vt2 0.2489152 0.2408366
vt2 0.2594853 0.4391677
vt2 0.2592131 0.4416857
vt2 0.2662854 0.02171968
vt2 0.2654175 0.02409917
vt2 0.7438026 0.3301946
vt2 0.744372 0.3277265
vt2 0.7620629 0.5466701
vt2 0.7617137 0.5441614
vt2 0.7775333 0.09004176
vt2 0.7769941 0.08756703
vt2 0.2068705 0.2452248
vt2 0.2070193 0.2477533
vt2 0.2173598 0.4338248
vt2 0.2170078 0.4363329
vt2 0.2257619 0.008766737
vt2 0.225222 0.01124131
vt2 0.7853873 0.3373856
vt2 0.7855391 0.3348573
vt2 0.7996151 0.540886
vt2 0.7991068 0.5384047
vt2 0.8150908 0.08547866
vt2 0.8149551 0.08294942
vt2 0.1686801 0.243266
vt2 0.168261 0.2457639
vt2 0.1790331 0.4277238
vt2 0.1785219 0.4302046
vt2 0.1870954 0.00390625
vt2 0.186959 0.00643544
vt2 0.8239092 0.3355915
vt2 0.8234931 0.3330931
vt2 0.8348202 0.5318903
vt2 0.8341038 0.5294608
vt2 0.8512083 0.08602139
vt2 0.8513631 0.08349316
vt2 0.1337093 0.2331223
vt2 0.1328023 0.2354873
vt2 0.1432612 0.4185975
vt2 0.142542 0.4210262
vt2 0.1499678 0.004495938
vt2 0.1501218 0.007024217
vt2 0.8592919 0.3253255
vt2 0.8583876 0.3229595
vt2 0.8692883 0.5202332
vt2 0.8684363 0.517848
vt2 0.8872508 0.08982961
vt2 0.8875849 0.08731891
vt2 0.1008752 0.217356
vt2 0.09967549 0.2195867
vt2 0.1084243 0.4069096
vt2 0.1075695 0.4092939
vt2 0.1132959 0.008482993
vt2 0.1136293 0.01099379
vt2 0.8923482 0.3093653
vt2 0.8911512 0.3071332
vt2 0.9037531 0.5071155
vt2 0.9028502 0.504749
vt2 0.9236267 0.09554816
vt2 0.9240335 0.09304801
vt2 0.06915266 0.1985145
vt2 0.06784206 0.2006819
vt2 0.07379122 0.3938213
vt2 0.07288565 0.3961868
vt2 0.07668611 0.01435592
vt2 0.07709226 0.01685618
vt2 0.9241217 0.2903976
vt2 0.9228137 0.2882288
vt2 0.9383392 0.4937792
vt2 0.9374589 0.4914042
vt2 0.9602219 0.1016005
vt2 0.9605899 0.09909452
vt2 0.03754305 0.1791816
vt2 0.03628704 0.1813811
vt2 0.03926346 0.3805526
vt2 0.03838045 0.3829266
vt2 0.04022873 0.02046414
vt2 0.04059611 0.02297026
vt2 0.9556682 0.2710539
vt2 0.9544147 0.2688529
vt2 0.9729376 0.4814079
vt2 0.9720858 0.4790225
vt2 0.996703 0.1062311
vt2 0.9970229 0.1037186
vt2 0.005093046 0.1619843
vt2 0.00390625 0.1642218
vt2 0.004760697 0.3682027
vt2 0.00390625 0.3705871
vt2 0.00390625 0.02509238
vt2 0.004225466 0.02760504
vt2 0.9880717 0.2538986
vt2 0.9868875 0.2516596


vc 1 1 1 1
vc 1 1 1 1
vc 1 1 1 1
vc 1 1 1 1
vc 1 1 1 1
vc 1 1 1 1
vc 1 1 1 1
vc 1 1 1 1
vc 1 1 1 1
vc 1 1 1 1
vc 1 1 1 1
vc 1 1 1 1
vc 1 1 1 1
vc 1 1 1 1
vc 1 1 1 1
vc 1 1 1 1
vc 1 1 1 1
vc 1 1 1 1
vc 1 1 1 1
vc 1 1 1 1
vc 1 1 1 1
vc 1 1 1 1
vc 1 1 1 1
vc 1 1 1 1
vc 1 1 1 1
vc 1 1 1 1
vc 1 1 1 1
vc 1 1 1 1
vc 1 1 1 1
vc 1 1 1 1
vc 1 1 1 1
vc 1 1 1 1
vc 1 1 1 1
vc 1 1 1 1
vc 1 1 1 1
vc 1 1 1 1
vc 1 1 1 1
vc 1 1 1 1
vc 1 1 1 1
vc 1 1 1 1
vc 1 1 1 1
vc 1 1 1 1
vc 1 1 1 1
vc 1 1 1 1
vc 1 1 1 1
vc 1 1 1 1
vc 1 1 1 1
vc 1 1 1 1
vc 1 1 1 1
vc 1 1 1 1
vc 1 1 1 1
vc 1 1 1 1
vc 1 1 1 1
vc 1 1 1 1
vc 1 1 1 1
vc 1 1 1 1
vc 1 1 1 1
vc 1 1 1 1
vc 1 1 1 1
vc 1 1 1 1
vc 1 1 1 1
vc 1 1 1 1
vc 1 1 1 1
vc 1 1 1 1
vc 1 1 1 1
vc 1 1 1 1
vc 1 1 1 1
vc 1 1 1 1
vc 1 1 1 1
vc 1 1 1 1
vc 1 1 1 1
vc 1 1 1 1
vc 1 1 1 1
vc 1 1 1 1
vc 1 1 1 1
vc 1 1 1 1
vc 1 1 1 1
vc 1 1 1 1
vc 1 1 1 1
vc 1 1 1 1
vc 1 1 1 1
vc 1 1 1 1
vc 1 1 1 1
vc 1 1 1 1
vc 1 1 1 1
vc 1 1 1 1
vc 1 1 1 1
vc 1 1 1 1
vc 1 1 1 1
vc 1 1 1 1
vc 1 1 1 1
vc 1 1 1 1
vc 1 1 1 1
vc 1 1 1 1
vc 1 1 1 1
vc 1 1 1 1
vc 1 1 1 1
vc 1 1 1 1
vc 1 1 1 1
vc 1 1 1 1
vc 1 1 1 1
vc 1 1 1 1
vc 1 1 1 1
vc 1 1 1 1
vc 1 1 1 1
vc 1 1 1 1
vc 1 1 1 1
vc 1 1 1 1
vc 1 1 1 1
vc 1 1 1 1
vc 1 1 1 1
vc 1 1 1 1
vc 1 1 1 1
vc 1 1 1 1
vc 1 1 1 1
vc 1 1 1 1
vc 1 1 1 1
vc 1 1 1 1
vc 1 1 1 1
vc 1 1 1 1
vc 1 1 1 1
vc 1 1 1 1
vc 1 1 1 1
vc 1 1 1 1
vc 1 1 1 1
vc 1 1 1 1
vc 1 1 1 1
vc 1 1 1 1
vc 1 1 1 1
vc 1 1 1 1
vc 1 1 1 1
vc 1 1 1 1
vc 1 1 1 1
vc 1 1 1 1
vc 1 1 1 1
vc 1 1 1 1
vc 1 1 1 1
vc 1 1 1 1
vc 1 1 1 1
vc 1 1 1 1
vc 1 1 1 1
vc 1 1 1 1
vc 1 1 1 1
vc 1 1 1 1
vc 1 1 1 1
vc 1 1 1 1
vc 1 1 1 1
vc 1 1 1 1
vc 1 1 1 1
vc 1 1 1 1
vc 1 1 1 1
vc 1 1 1 1
vc 1 1 1 1
vc 1 1 1 1
vc 1 1 1 1
vc 1 1 1 1
vc 1 1 1 1
vc 1 1 1 1
vc 1 1 1 1
vc 1 1 1 1
vc 1 1 1 1
vc 1 1 1 1
vc 1 1 1 1
vc 1 1 1 1
vc 1 1 1 1
vc 1 1 1 1
vc 1 1 1 1
vc 1 1 1 1
vc 1 1 1 1
vc 1 1 1 1
vc 1 1 1 1
vc 1 1 1 1
vc 1 1 1 1
vc 1 1 1 1
vc 1 1 1 1
vc 1 1 1 1
vc 1 1 1 1
vc 1 1 1 1
vc 1 1 1 1
vc 1 1 1 1
vc 1 1 1 1
vc 1 1 1 1
vc 1 1 1 1
vc 1 1 1 1
vc 1 1 1 1
vc 1 1 1 1
vc 1 1 1 1
vc 1 1 1 1
vc 1 1 1 1
vc 1 1 1 1
vc 1 1 1 1
vc 1 1 1 1
vc 1 1 1 1
vc 1 1 1 1
vc 1 1 1 1
vc 1 1 1 1
vc 1 1 1 1
vc 1 1 1 1
vc 1 1 1 1
vc 1 1 1 1
vc 1 1 1 1
vc 1 1 1 1
vc 1 1 1 1
vc 1 1 1 1
vc 1 1 1 1
vc 1 1 1 1
vc 1 1 1 1
vc 1 1 1 1
vc 1 1 1 1
vc 1 1 1 1
vc 1 1 1 1
vc 1 1 1 1
vc 1 1 1 1
vc 1 1 1 1
vc 1 1 1 1
vc 1 1 1 1
vc 1 1 1 1
vc 1 1 1 1
vc 1 1 1 1
vc 1 1 1 1
vc 1 1 1 1
vc 1 1 1 1
vc 1 1 1 1
vc 1 1 1 1
vc 1 1 1 1
vc 1 1 1 1
vc 1 1 1 1
vc 1 1 1 1
vc 1 1 1 1
vc 1 1 1 1
vc 1 1 1 1
vc 1 1 1 1
vc 1 1 1 1
vc 1 1 1 1
vc 1 1 1 1
vc 1 1 1 1
vc 1 1 1 1
vc 1 1 1 1
vc 1 1 1 1
vc 1 1 1 1
vc 1 1 1 1
vc 1 1 1 1
vc 1 1 1 1
vc 1 1 1 1
vc 1 1 1 1
vc 1 1 1 1
vc 1 1 1 1
vc 1 1 1 1
vc 1 1 1 1
vc 1 1 1 1
vc 1 1 1 1
vc 1 1 1 1
vc 1 1 1 1
vc 1 1 1 1
vc 1 1 1 1
vc 1 1 1 1
vc 1 1 1 1
vc 1 1 1 1
vc 1 1 1 1
vc 1 1 1 1
vc 1 1 1 1
vc 1 1 1 1
vc 1 1 1 1
vc 1 1 1 1
vc 1 1 1 1
vc 1 1 1 1
vc 1 1 1 1
vc 1 1 1 1
vc 1 1 1 1
vc 1 1 1 1
vc 1 1 1 1
vc 1 1 1 1
vc 1 1 1 1
vc 1 1 1 1
vc 1 1 1 1
vc 1 1 1 1

usemtl Default-Diffuse
usemap Default-Diffuse
f 3/3/3 2/2/2 1/1/1
f 3/3/3 4/4/4 2/2/2
f 7/7/7 6/6/6 5/5/5
f 7/7/7 8/8/8 6/6/6
f 11/11/11 10/10/10 9/9/9
f 11/11/11 12/12/12 10/10/10
f 15/15/15 14/14/14 13/13/13
f 15/15/15 16/16/16 14/14/14
f 19/19/19 18/18/18 17/17/17
f 19/19/19 20/20/20 18/18/18
f 23/23/23 22/22/22 21/21/21
f 23/23/23 24/24/24 22/22/22
f 25/25/25 4/4/4 3/3/3
f 25/25/25 26/26/26 4/4/4
f 27/27/27 8/8/8 7/7/7
f 27/27/27 28/28/28 8/8/8
f 29/29/29 12/12/12 11/11/11
f 29/29/29 30/30/30 12/12/12
f 31/31/31 16/16/16 15/15/15
f 31/31/31 32/32/32 16/16/16
f 33/33/33 20/20/20 19/19/19
f 33/33/33 34/34/34 20/20/20
f 35/35/35 24/24/24 23/23/23
f 35/35/35 36/36/36 24/24/24
f 37/37/37 26/26/26 25/25/25
f 37/37/37 38/38/38 26/26/26
f 39/39/39 28/28/28 27/27/27
f 39/39/39 40/40/40 28/28/28
f 41/41/41 30/30/30 29/29/29
f 41/41/41 42/42/42 30/30/30
f 43/43/43 32/32/32 31/31/31
f 43/43/43 44/44/44 32/32/32
f 45/45/45 34/34/34 33/33/33
f 45/45/45 46/46/46 34/34/34
f 47/47/47 36/36/36 35/35/35
f 47/47/47 48/48/48 36/36/36
f 49/49/49 38/38/38 37/37/37
f 49/49/49 50/50/50 38/38/38
f 51/51/51 40/40/40 39/39/39
f 51/51/51 52/52/52 40/40/40
f 53/53/53 42/42/42 41/41/41
f 53/53/53 54/54/54 42/42/42
f 55/55/55 44/44/44 43/43/43
f 55/55/55 56/56/56 44/44/44
f 57/57/57 46/46/46 45/45/45
f 57/57/57 58/58/58 46/46/46
f 59/59/59 48/48/48 47/47/47
f 59/59/59 60/60/60 48/48/48
f 61/61/61 50/50/50 49/49/49
f 61/61/61 62/62/62 50/50/50
f 63/63/63 52/52/52 51/51/51
f 63/63/63 64/64/64 52/52/52
f 65/65/65 54/54/54 53/53/53
f 65/65/65 66/66/66 54/54/54
f 67/67/67 56/56/56 55/55/55
f 67/67/67 68/68/68 56/56/56
f 69/69/69 58/58/58 57/57/57
f 69/69/69 70/70/70 58/58/58
f 71/71/71 60/60/60 59/59/59
f 71/71/71 72/72/72 60/60/60
f 73/73/73 62/62/62 61/61/61
f 73/73/73 74/74/74 62/62/62
f 75/75/75 64/64/64 63/63/63
f 75/75/75 76/76/76 64/64/64
f 77/77/77 66/66/66 65/65/65
f 77/77/77 78/78/78 66/66/66
f 79/79/79 68/68/68 67/67/67
f 79/79/79 80/80/80 68/68/68
f 81/81/81 70/70/70 69/69/69
f 81/81/81 82/82/82 70/70/70
f 83/83/83 72/72/72 71/71/71
f 83/83/83 84/84/84 72/72/72
f 85/85/85 74/74/74 73/73/73
f 85/85/85 86/86/86 74/74/74
f 87/87/87 76/76/76 75/75/75
f 87/87/87 88/88/88 76/76/76
f 89/89/89 78/78/78 77/77/77
f 89/89/89 90/90/90 78/78/78
f 91/91/91 80/80/80 79/79/79
f 91/91/91 92/92/92 80/80/80
f 93/93/93 82/82/82 81/81/81
f 93/93/93 94/94/94 82/82/82
f 95/95/95 84/84/84 83/83/83
f 95/95/95 96/96/96 84/84/84
f 97/97/97 86/86/86 85/85/85
f 97/97/97 98/98/98 86/86/86
f 99/99/99 88/88/88 87/87/87
f 99/99/99 100/100/100 88/88/88
f 101/101/101 90/90/90 89/89/89
f 101/101/101 102/102/102 90/90/90
f 103/103/103 92/92/92 91/91/91
f 103/103/103 104/104/104 92/92/92
f 105/105/105 94/94/94 93/93/93
f 105/105/105 106/106/106 94/94/94
f 107/107/107 96/96/96 95/95/95
f 107/107/107 108/108/108 96/96/96
f 109/109/109 98/98/98 97/97/97
f 109/109/109 110/110/110 98/98/98
f 111/111/111 100/100/100 99/99/99
f 111/111/111 112/112/112 100/100/100
f 113/113/113 102/102/102 101/101/101
f 113/113/113 114/114/114 102/102/102
f 115/115/115 104/104/104 103/103/103
f 115/115/115 116/116/116 104/104/104
f 117/117/117 106/106/106 105/105/105
f 117/117/117 118/118/118 106/106/106
f 119/119/119 108/108/108 107/107/107
f 119/119/119 120/120/120 108/108/108
f 121/121/121 110/110/110 109/109/109
f 121/121/121 122/122/122 110/110/110
f 123/123/123 112/112/112 111/111/111
f 123/123/123 124/124/124 112/112/112
f 125/125/125 114/114/114 113/113/113
f 125/125/125 126/126/126 114/114/114
f 127/127/127 116/116/116 115/115/115
f 127/127/127 128/128/128 116/116/116
f 129/129/129 118/118/118 117/117/117
f 129/129/129 130/130/130 118/118/118
f 131/131/131 120/120/120 119/119/119
f 131/131/131 132/132/132 120/120/120
f 133/133/133 122/122/122 121/121/121
f 133/133/133 134/134/134 122/122/122
f 135/135/135 124/124/124 123/123/123
f 135/135/135 136/136/136 124/124/124
f 137/137/137 126/126/126 125/125/125
f 137/137/137 138/138/138 126/126/126
f 139/139/139 128/128/128 127/127/127
f 139/139/139 140/140/140 128/128/128
f 141/141/141 130/130/130 129/129/129
f 141/141/141 142/142/142 130/130/130
f 143/143/143 132/132/132 131/131/131
f 143/143/143 144/144/144 132/132/132
f 145/145/145 134/134/134 133/133/133
f 145/145/145 146/146/146 134/134/134
f 147/147/147 136/136/136 135/135/135
f 147/147/147 148/148/148 136/136/136
f 149/149/149 138/138/138 137/137/137
f 149/149/149 150/150/150 138/138/138
f 151/151/151 140/140/140 139/139/139
f 151/151/151 152/152/152 140/140/140
f 153/153/153 142/142/142 141/141/141
f 153/153/153 154/154/154 142/142/142
f 155/155/155 144/144/144 143/143/143
f 155/155/155 156/156/156 144/144/144
f 157/157/157 146/146/146 145/145/145
f 157/157/157 158/158/158 146/146/146
f 159/159/159 148/148/148 147/147/147
f 159/159/159 160/160/160 148/148/148
f 161/161/161 150/150/150 149/149/149
f 161/161/161 162/162/162 150/150/150
f 163/163/163 152/152/152 151/151/151
f 163/163/163 164/164/164 152/152/152
f 165/165/165 154/154/154 153/153/153
f 165/165/165 166/166/166 154/154/154
f 167/167/167 156/156/156 155/155/155
f 167/167/167 168/168/168 156/156/156
f 169/169/169 158/158/158 157/157/157
f 169/169/169 170/170/170 158/158/158
f 171/171/171 160/160/160 159/159/159
f 171/171/171 172/172/172 160/160/160
f 173/173/173 162/162/162 161/161/161
f 173/173/173 174/174/174 162/162/162
f 175/175/175 164/164/164 163/163/163
f 175/175/175 176/176/176 164/164/164
f 177/177/177 166/166/166 165/165/165
f 177/177/177 178/178/178 166/166/166
f 179/179/179 168/168/168 167/167/167
f 179/179/179 180/180/180 168/168/168
f 181/181/181 170/170/170 169/169/169
f 181/181/181 182/182/182 170/170/170
f 183/183/183 172/172/172 171/171/171
f 183/183/183 184/184/184 172/172/172
f 185/185/185 174/174/174 173/173/173
f 185/185/185 186/186/186 174/174/174
f 187/187/187 176/176/176 175/175/175
f 187/187/187 188/188/188 176/176/176
f 189/189/189 178/178/178 177/177/177
f 189/189/189 190/190/190 178/178/178
f 191/191/191 180/180/180 179/179/179
f 191/191/191 192/192/192 180/180/180
f 193/193/193 182/182/182 181/181/181
f 193/193/193 194/194/194 182/182/182
f 195/195/195 184/184/184 183/183/183
f 195/195/195 196/196/196 184/184/184
f 197/197/197 186/186/186 185/185/185
f 197/197/197 198/198/198 186/186/186
f 199/199/199 188/188/188 187/187/187
f 199/199/199 200/200/200 188/188/188
f 201/201/201 190/190/190 189/189/189
f 201/201/201 202/202/202 190/190/190
f 203/203/203 192/192/192 191/191/191
f 203/203/203 204/204/204 192/192/192
f 205/205/205 194/194/194 193/193/193
f 205/205/205 206/206/206 194/194/194
f 207/207/207 196/196/196 195/195/195
f 207/207/207 208/208/208 196/196/196
f 209/209/209 198/198/198 197/197/197
f 209/209/209 210/210/210 198/198/198
f 211/211/211 200/200/200 199/199/199
f 211/211/211 212/212/212 200/200/200
f 213/213/213 202/202/202 201/201/201
f 213/213/213 214/214/214 202/202/202
f 215/215/215 204/204/204 203/203/203
f 215/215/215 216/216/216 204/204/204
f 217/217/217 206/206/206 205/205/205
f 217/217/217 218/218/218 206/206/206
f 219/219/219 208/208/208 207/207/207
f 219/219/219 220/220/220 208/208/208
f 221/221/221 210/210/210 209/209/209
f 221/221/221 222/222/222 210/210/210
f 223/223/223 212/212/212 211/211/211
f 223/223/223 224/224/224 212/212/212
f 225/225/225 214/214/214 213/213/213
f 225/225/225 226/226/226 214/214/214
f 227/227/227 216/216/216 215/215/215
f 227/227/227 228/228/228 216/216/216
f 229/229/229 218/218/218 217/217/217
f 229/229/229 230/230/230 218/218/218
f 231/231/231 220/220/220 219/219/219
f 231/231/231 232/232/232 220/220/220
f 233/233/233 222/222/222 221/221/221
f 233/233/233 234/234/234 222/222/222
f 235/235/235 224/224/224 223/223/223
f 235/235/235 236/236/236 224/224/224
f 237/237/237 226/226/226 225/225/225
f 237/237/237 238/238/238 226/226/226
f 239/239/239 228/228/228 227/227/227
f 239/239/239 240/240/240 228/228/228
f 241/241/241 230/230/230 229/229/229
f 241/241/241 242/242/242 230/230/230
f 243/243/243 232/232/232 231/231/231
f 243/243/243 244/244/244 232/232/232
f 245/245/245 234/234/234 233/233/233
f 245/245/245 246/246/246 234/234/234
f 247/247/247 236/236/236 235/235/235
f 247/247/247 248/248/248 236/236/236
f 249/249/249 238/238/238 237/237/237
f 249/249/249 250/250/250 238/238/238
f 251/251/251 240/240/240 239/239/239
f 251/251/251 252/252/252 240/240/240
f 253/253/253 242/242/242 241/241/241
f 253/253/253 254/254/254 242/242/242
f 255/255/255 244/244/244 243/243/243
f 255/255/255 256/256/256 244/244/244
f 257/257/257 246/246/246 245/245/245
f 257/257/257 258/258/258 246/246/246
f 259/259/259 248/248/248 247/247/247
f 259/259/259 260/260/260 248/248/248
f 261/261/261 250/250/250 249/249/249
f 261/261/261 262/262/262 250/250/250
f 263/263/263 252/252/252 251/251/251
f 263/263/263 264/264/264 252/252/252
f 265/265/265 254/254/254 253/253/253
f 265/265/265 266/266/266 254/254/254
f 267/267/267 256/256/256 255/255/255
f 267/267/267 268/268/268 256/256/256
f 269/269/269 258/258/258 257/257/257
f 269/269/269 270/270/270 258/258/258
f 271/271/271 260/260/260 259/259/259
f 271/271/271 272/272/272 260/260/260
f 273/273/273 262/262/262 261/261/261
f 273/273/273 274/274/274 262/262/262
f 275/275/275 264/264/264 263/263/263
f 275/275/275 276/276/276 264/264/264
