g tube
v -1.956502 0.8267197 -3.425281
v -1.955849 0.825421 -3.42491
v -1.941957 0.8260174 -3.453337
v -1.941317 0.8247197 -3.452941
v -1.955849 0.825421 -3.42491
v -1.954518 0.825421 -3.424219
v -1.941317 0.8247197 -3.452941
v -1.939985 0.8247197 -3.452251
v -1.954518 0.825421 -3.424219
v -1.953839 0.8267197 -3.4239
v -1.939985 0.8247197 -3.452251
v -1.939293 0.8260174 -3.451957
v -1.953839 0.8267197 -3.4239
v -1.954491 0.8280184 -3.424271
v -1.939293 0.8260174 -3.451957
v -1.939933 0.8273152 -3.452352
v -1.954491 0.8280184 -3.424271
v -1.955823 0.8280184 -3.424961
v -1.939933 0.8273152 -3.452352
v -1.941265 0.8273152 -3.453042
v -1.955823 0.8280184 -3.424961
v -1.956502 0.8267197 -3.425281
v -1.941265 0.8273152 -3.453042
v -1.941957 0.8260174 -3.453337
v -1.926653 0.823847 -3.482896
v -1.926024 0.8225504 -3.482481
v -1.926024 0.8225504 -3.482481
v -1.924692 0.8225504 -3.481791
v -1.924692 0.8225504 -3.481791
v -1.923989 0.823847 -3.481517
v -1.923989 0.823847 -3.481517
v -1.924619 0.8251436 -3.481932
v -1.924619 0.8251436 -3.481932
v -1.925951 0.8251436 -3.482621
v -1.925951 0.8251436 -3.482621
v -1.926653 0.823847 -3.482896
v -1.911501 0.8219702 -3.512156
v -1.910851 0.8206716 -3.511781
v -1.910851 0.8206716 -3.511781
v -1.909519 0.8206716 -3.511091
v -1.909519 0.8206716 -3.511091
v -1.908838 0.8219702 -3.510775
v -1.908838 0.8219702 -3.510775
v -1.909488 0.8232688 -3.51115
v -1.909488 0.8232688 -3.51115
v -1.91082 0.8232688 -3.51184
v -1.91082 0.8232688 -3.51184
v -1.911501 0.8219702 -3.512156
v -1.89741 0.8221488 -3.539312
v -1.896698 0.8208538 -3.539057
v -1.896698 0.8208538 -3.539057
v -1.895367 0.8208538 -3.538364
v -1.895367 0.8208538 -3.538364
v -1.894748 0.8221488 -3.537928
v -1.894748 0.8221488 -3.537928
v -1.895461 0.8234438 -3.538183
v -1.895461 0.8234438 -3.538183
v -1.896792 0.8234438 -3.538876
v -1.896792 0.8234438 -3.538876
v -1.89741 0.8221488 -3.539312
v -1.885288 0.8261445 -3.562565
v -1.884444 0.824905 -3.56256
v -1.884444 0.824905 -3.56256
v -1.883116 0.824905 -3.561862
v -1.883116 0.824905 -3.561862
v -1.882633 0.8261445 -3.561169
v -1.882633 0.8261445 -3.561169
v -1.883478 0.8273841 -3.561174
v -1.883478 0.8273841 -3.561174
v -1.884805 0.8273841 -3.561872
v -1.884805 0.8273841 -3.561872
v -1.885288 0.8261445 -3.562565
v -1.876154 0.8357008 -3.579785
v -1.875091 0.8347119 -3.580161
v -1.875091 0.8347119 -3.580161
v -1.873777 0.8347119 -3.579438
v -1.873777 0.8347119 -3.579438
v -1.873526 0.8357008 -3.578338
v -1.873526 0.8357008 -3.578338
v -1.874589 0.8366897 -3.577962
v -1.874589 0.8366897 -3.577962
v -1.875903 0.8366897 -3.578686
v -1.875903 0.8366897 -3.578686
v -1.876154 0.8357008 -3.579785
v -1.870644 0.8510494 -3.58924
v -1.869394 0.8504789 -3.589843
v -1.869394 0.8504789 -3.589843
v -1.868116 0.8504789 -3.589059
v -1.868116 0.8504789 -3.589059
v -1.868086 0.8510494 -3.587672
v -1.868086 0.8510494 -3.587672
v -1.869335 0.85162 -3.587069
v -1.869335 0.85162 -3.587069
v -1.870614 0.85162 -3.587853
v -1.870614 0.85162 -3.587853
v -1.870644 0.8510494 -3.58924
v -1.867354 0.8703033 -3.594111
v -1.866032 0.8699697 -3.594736
v -1.866032 0.8699697 -3.594736
v -1.864786 0.8699697 -3.593901
v -1.864786 0.8699697 -3.593901
v -1.864862 0.8703033 -3.59244
v -1.864862 0.8703033 -3.59244
v -1.866184 0.8706369 -3.591815
v -1.866184 0.8706369 -3.591815
v -1.86743 0.8706369 -3.592651
v -1.86743 0.8706369 -3.592651
v -1.867354 0.8703033 -3.594111
v -1.864716 0.8914362 -3.598078
v -1.863443 0.8910582 -3.598775
v -1.863443 0.8910582 -3.598775
v -1.862146 0.8910582 -3.598021
v -1.862146 0.8910582 -3.598021
v -1.862123 0.8914362 -3.59657
v -1.862123 0.8914362 -3.59657
v -1.863396 0.8918141 -3.595872
v -1.863396 0.8918141 -3.595872
v -1.864693 0.8918141 -3.596627
v -1.864693 0.8918141 -3.596627
v -1.864716 0.8914362 -3.598078
v -1.860996 0.9124212 -3.605062
v -1.859828 0.9117705 -3.605742
v -1.859828 0.9117705 -3.605742
v -1.858481 0.9117705 -3.605081
v -1.858481 0.9117705 -3.605081
v -1.858303 0.9124212 -3.603741
v -1.858303 0.9124212 -3.603741
v -1.859471 0.9130719 -3.603062
v -1.859471 0.9130719 -3.603062
v -1.860818 0.9130719 -3.603723
v -1.860818 0.9130719 -3.603723
v -1.860996 0.9124212 -3.605062
v -1.854533 0.9312383 -3.618889
v -1.853503 0.930286 -3.61942
v -1.853503 0.930286 -3.61942
v -1.852119 0.9302798 -3.618843
v -1.852119 0.9302798 -3.618843
v -1.851764 0.9312259 -3.617734
v -1.851764 0.9312259 -3.617734
v -1.852794 0.9321782 -3.617203
v -1.852794 0.9321782 -3.617203
v -1.854179 0.9321844 -3.61778
v -1.854179 0.9321844 -3.61778
v -1.854533 0.9312383 -3.618889
v -1.845552 0.9489197 -3.642087
v -1.844625 0.947815 -3.642499
v -1.844625 0.947815 -3.642499
v -1.843211 0.9477963 -3.641998
v -1.843211 0.9477963 -3.641998
v -1.842725 0.9488825 -3.641085
v -1.842725 0.9488825 -3.641085
v -1.843652 0.9499872 -3.640673
v -1.843652 0.9499872 -3.640673
v -1.845066 0.9500059 -3.641174
v -1.845066 0.9500059 -3.641174
v -1.845552 0.9489197 -3.642087
v -1.835288 0.9670752 -3.672167
v -1.834405 0.9659138 -3.672516
v -1.834405 0.9659138 -3.672516
v -1.832983 0.9658828 -3.672041
v -1.832983 0.9658828 -3.672041
v -1.832443 0.9670133 -3.671216
v -1.832443 0.9670133 -3.671216
v -1.833326 0.9681747 -3.670866
v -1.833326 0.9681747 -3.670866
v -1.834748 0.9682056 -3.671341
v -1.834748 0.9682056 -3.671341
v -1.835288 0.9670752 -3.672167
v -1.823627 0.9845534 -3.705338
v -1.822765 0.9833577 -3.705616
v -1.822765 0.9833577 -3.705616
v -1.821355 0.9833143 -3.705104
v -1.821355 0.9833143 -3.705104
v -1.820808 0.9844665 -3.704314
v -1.820808 0.9844665 -3.704314
v -1.82167 0.9856622 -3.704037
v -1.82167 0.9856622 -3.704037
v -1.823079 0.9857056 -3.704549
v -1.823079 0.9857056 -3.704549
v -1.823627 0.9845534 -3.705338
v -1.81045 1.000203 -3.737804
v -1.809599 0.9989805 -3.73798
v -1.809599 0.9989805 -3.73798
v -1.808231 0.9989245 -3.737367
v -1.808231 0.9989245 -3.737367
v -1.807714 1.000091 -3.736578
v -1.807714 1.000091 -3.736578
v -1.808565 1.001313 -3.736402
v -1.808565 1.001313 -3.736402
v -1.809933 1.001369 -3.737015
v -1.809933 1.001369 -3.737015
v -1.81045 1.000203 -3.737804
v -1.795603 1.012864 -3.765801
v -1.794773 1.011616 -3.765795
v -1.794773 1.011616 -3.765795
v -1.793516 1.011555 -3.764978
v -1.793516 1.011555 -3.764978
v -1.79309 1.012743 -3.764167
v -1.79309 1.012743 -3.764167
v -1.793921 1.013992 -3.764174
v -1.793921 1.013992 -3.764174
v -1.795178 1.014053 -3.764991
v -1.795178 1.014053 -3.764991
v -1.795603 1.012864 -3.765801
v -1.778785 1.021381 -3.786064
v -1.778072 1.020093 -3.785777
v -1.778072 1.020093 -3.785777
v -1.777037 1.020034 -3.784693
v -1.777037 1.020034 -3.784693
v -1.776715 1.021263 -3.783895
v -1.776715 1.021263 -3.783895
v -1.777428 1.022551 -3.784182
v -1.777428 1.022551 -3.784182
v -1.778463 1.02261 -3.785266
v -1.778463 1.02261 -3.785266
v -1.778785 1.021381 -3.786064
v -1.759419 1.025541 -3.800209
v -1.758941 1.024216 -3.799694
v -1.758941 1.024216 -3.799694
v -1.758166 1.024145 -3.798411
v -1.758166 1.024145 -3.798411
v -1.75787 1.025399 -3.797644
v -1.75787 1.025399 -3.797644
v -1.758348 1.026724 -3.798159
v -1.758348 1.026724 -3.798159
v -1.759123 1.026795 -3.799441
v -1.759123 1.026795 -3.799441
v -1.759419 1.025541 -3.800209
v -1.738272 1.026643 -3.810348
v -1.738001 1.0253 -3.809738
v -1.738001 1.0253 -3.809738
v -1.737421 1.025206 -3.808358
v -1.737421 1.025206 -3.808358
v -1.737113 1.026456 -3.807587
v -1.737113 1.026456 -3.807587
v -1.737385 1.027799 -3.808197
v -1.737385 1.027799 -3.808197
v -1.737964 1.027893 -3.809577
v -1.737964 1.027893 -3.809577
v -1.738272 1.026643 -3.810348
v -1.716242 1.026093 -3.818317
v -1.716064 1.02474 -3.817694
v -1.716064 1.02474 -3.817694
v -1.715569 1.024624 -3.816283
v -1.715569 1.024624 -3.816283
v -1.715251 1.02586 -3.815495
v -1.715251 1.02586 -3.815495
v -1.715429 1.027213 -3.816118
v -1.715429 1.027213 -3.816118
v -1.715925 1.027329 -3.817529
v -1.715925 1.027329 -3.817529
v -1.716242 1.026093 -3.818317
v -1.694196 1.025296 -3.825938
v -1.693979 1.023938 -3.825341
v -1.693979 1.023938 -3.825341
v -1.693441 1.023809 -3.823946
v -1.693441 1.023809 -3.823946
v -1.693121 1.025039 -3.823149
v -1.693121 1.025039 -3.823149
v -1.693339 1.026398 -3.823747
v -1.693339 1.026398 -3.823747
v -1.693876 1.026526 -3.825142
v -1.693876 1.026526 -3.825142
v -1.694196 1.025296 -3.825938
v -1.67287 1.025668 -3.835057
v -1.6726 1.024309 -3.834481
v -1.6726 1.024309 -3.834481
v -1.672011 1.024181 -3.833108
v -1.672011 1.024181 -3.833108
v -1.671691 1.025411 -3.832311
v -1.671691 1.025411 -3.832311
v -1.671961 1.026769 -3.832887
v -1.671961 1.026769 -3.832887
v -1.672551 1.026897 -3.83426
v -1.672551 1.026897 -3.83426
v -1.67287 1.025668 -3.835057

vn -0.8877666 0 -0.460294
vn -0.4527588 -0.8658208 -0.2129882
vn -0.88793 0 -0.4599785
vn -0.4613472 -0.8651949 -0.19646
vn -0.4527588 -0.8658208 -0.2129882
vn 0.4350382 -0.8658246 0.2471628
vn -0.4613472 -0.8651949 -0.19646
vn 0.4265487 -0.8652174 0.263543
vn 0.4350382 -0.8658246 0.2471628
vn 0.8877666 0 0.460294
vn 0.4265487 -0.8652174 0.263543
vn 0.88793 0 0.4599785
vn 0.8877666 0 0.460294
vn 0.4527588 0.8658208 0.2129882
vn 0.88793 0 0.4599785
vn 0.4613472 0.8651949 0.19646
vn 0.4527588 0.8658208 0.2129882
vn -0.4350382 0.8658246 -0.2471628
vn 0.4613472 0.8651949 0.19646
vn -0.4265487 0.8652174 -0.263543
vn -0.4350382 0.8658246 -0.2471628
vn -0.8877666 0 -0.460294
vn -0.4265487 0.8652174 -0.263543
vn -0.88793 0 -0.4599785
vn -0.8880118 0 -0.4598207
vn -0.4682625 -0.8644418 -0.1829498
vn -0.4682625 -0.8644418 -0.1829498
vn 0.4197058 -0.8644461 0.2767308
vn 0.4197058 -0.8644461 0.2767308
vn 0.8880118 0 0.4598207
vn 0.8880118 0 0.4598207
vn 0.4682625 0.8644418 0.1829498
vn 0.4682625 0.8644418 0.1829498
vn -0.4197058 0.8644461 -0.2767308
vn -0.4197058 0.8644461 -0.2767308
vn -0.8880118 0 -0.4598207
vn -0.8878315 0 -0.4601687
vn -0.4541074 -0.8657366 -0.2104439
vn -0.4541074 -0.8657366 -0.2104439
vn 0.433762 -0.8657359 0.2497033
vn 0.433762 -0.8657359 0.2497033
vn 0.8878315 0 0.4601687
vn 0.8878315 0 0.4601687
vn 0.4541074 0.8657366 0.2104439
vn 0.4541074 0.8657366 0.2104439
vn -0.433762 0.8657359 -0.2497033
vn -0.433762 0.8657359 -0.2497033
vn -0.8878315 0 -0.4601687
vn -0.8871765 0 -0.4614303
vn -0.4122242 -0.8633502 -0.2910285
vn -0.4122242 -0.8633502 -0.2910285
vn 0.4749369 -0.8633664 0.1703924
vn 0.4749369 -0.8633664 0.1703924
vn 0.8871765 0 0.4614303
vn 0.8871765 0 0.4614303
vn 0.4122242 0.8633502 0.2910285
vn 0.4122242 0.8633502 0.2910285
vn -0.4749369 0.8633664 -0.1703924
vn -0.4749369 0.8633664 -0.1703924
vn -0.8871765 0 -0.4614303
vn -0.8851836 0 -0.4652419
vn -0.3220138 -0.8263326 -0.4620406
vn -0.3220138 -0.8263326 -0.4620406
vn 0.5631413 -0.8263538 0.00333784
vn 0.5631413 -0.8263538 0.00333784
vn 0.8851836 0 0.4652419
vn 0.8851836 0 0.4652419
vn 0.3220138 0.8263326 0.4620406
vn 0.3220138 0.8263326 0.4620406
vn -0.5631413 0.8263538 -0.00333784
vn -0.5631413 0.8263538 -0.00333784
vn -0.8851836 0 -0.4652419
vn -0.8759507 0 -0.4824007
vn -0.1671365 -0.659287 -0.7330798
vn -0.1671365 -0.659287 -0.7330798
vn 0.7088984 -0.6592676 -0.2506576
vn 0.7088984 -0.6592676 -0.2506576
vn 0.8759507 0 0.4824007
vn 0.8759507 0 0.4824007
vn 0.1671365 0.659287 0.7330798
vn 0.1671365 0.659287 0.7330798
vn -0.7088984 0.6592676 0.2506576
vn -0.7088984 0.6592676 0.2506576
vn -0.8759507 0 -0.4824007
vn -0.8525739 0 -0.5226068
vn -0.01971004 -0.380372 -0.9246235
vn -0.01971004 -0.380372 -0.9246235
vn 0.8329022 -0.3803693 -0.4019866
vn 0.8329022 -0.3803693 -0.4019866
vn 0.8525739 0 0.5226068
vn 0.8525739 0 0.5226068
vn 0.01971004 0.380372 0.9246235
vn 0.01971004 0.380372 0.9246235
vn -0.8329022 0.3803693 0.4019866
vn -0.8329022 0.3803693 0.4019866
vn -0.8525739 0 -0.5226068
vn -0.830531 0 -0.5569724
vn 0.05093819 -0.2223877 -0.9736267
vn 0.05093819 -0.2223877 -0.9736267
vn 0.8814592 -0.2224113 -0.4166089
vn 0.8814592 -0.2224113 -0.4166089
vn 0.830531 0 0.5569724
vn 0.830531 0 0.5569724
vn -0.05093819 0.2223877 0.9736267
vn -0.05093819 0.2223877 0.9736267
vn -0.8814592 0.2224113 0.4166089
vn -0.8814592 0.2224113 0.4166089
vn -0.830531 0 -0.5569724
vn -0.8644325 0 -0.5027489
vn -0.01565535 -0.2519558 -0.9676121
vn -0.01565535 -0.2519558 -0.9676121
vn 0.8487506 -0.2519629 -0.4649055
vn 0.8487506 -0.2519629 -0.4649055
vn 0.8644325 0 0.5027489
vn 0.8644325 0 0.5027489
vn 0.01565535 0.2519558 0.9676121
vn 0.01565535 0.2519558 0.9676121
vn -0.8487506 0.2519629 0.4649055
vn -0.8487506 0.2519629 0.4649055
vn -0.8644325 0 -0.5027489
vn -0.897787 0 -0.4404298
vn -0.1188145 -0.4338119 -0.8931351
vn -0.1188145 -0.4338119 -0.8931351
vn 0.7790197 -0.4338174 -0.4526929
vn 0.7790197 -0.4338174 -0.4526929
vn 0.897787 0 0.4404298
vn 0.897787 0 0.4404298
vn 0.1188145 0.4338119 0.8931351
vn 0.1188145 0.4338119 0.8931351
vn -0.7790197 0.4338174 0.4526929
vn -0.7790197 0.4338174 0.4526929
vn -0.897787 0 -0.4404298
vn -0.9229208 0.0041326 -0.3849676
vn -0.2363575 -0.6307502 -0.7391139
vn -0.2363575 -0.6307502 -0.7391139
vn 0.6866242 -0.6348493 -0.354279
vn 0.6866242 -0.6348493 -0.354279
vn 0.9229208 -0.0041326 0.3849676
vn 0.9229208 -0.0041326 0.3849676
vn 0.2363575 0.6307502 0.7391139
vn 0.2363575 0.6307502 0.7391139
vn -0.6866242 0.6348493 0.354279
vn -0.6866242 0.6348493 0.354279
vn -0.9229208 0.0041326 -0.3849676
vn -0.9425063 0.01239826 -0.3339583
vn -0.3243177 -0.7240525 -0.6087413
vn -0.3243177 -0.7240525 -0.6087413
vn 0.6181436 -0.7365191 -0.2746598
vn 0.6181436 -0.7365191 -0.2746598
vn 0.9425063 -0.01239826 0.3339583
vn 0.9425063 -0.01239826 0.3339583
vn 0.3243177 0.7240525 0.6087413
vn 0.3243177 0.7240525 0.6087413
vn -0.6181436 0.7365191 0.2746598
vn -0.6181436 0.7365191 0.2746598
vn -0.9425063 0.01239826 -0.3339583
vn -0.9482269 0.02062227 -0.3169233
vn -0.3599373 -0.753651 -0.5499594
vn -0.3599373 -0.753651 -0.5499594
vn 0.5883387 -0.7742658 -0.2331738
vn 0.5883387 -0.7742658 -0.2331738
vn 0.9482269 -0.02062227 0.3169233
vn 0.9482269 -0.02062227 0.3169233
vn 0.3599373 0.753651 0.5499594
vn 0.3599373 0.753651 0.5499594
vn -0.5883387 0.7742658 0.2331738
vn -0.5883387 0.7742658 0.2331738
vn -0.9482269 0.02062227 -0.3169233
vn -0.9395243 0.02896774 -0.341255
vn -0.3647869 -0.7681983 -0.5261196
vn -0.3647869 -0.7681983 -0.5261196
vn 0.5747611 -0.7971314 -0.1850171
vn 0.5747611 -0.7971314 -0.1850171
vn 0.9395243 -0.02896774 0.341255
vn 0.9395243 -0.02896774 0.341255
vn 0.3647869 0.7681983 0.5261196
vn 0.3647869 0.7681983 0.5261196
vn -0.5747611 0.7971314 0.1850171
vn -0.5747611 0.7971314 0.1850171
vn -0.9395243 0.02896774 -0.341255
vn -0.9120035 0.03735114 -0.4084784
vn -0.3445182 -0.7776098 -0.5259565
vn -0.3445182 -0.7776098 -0.5259565
vn 0.5675173 -0.814917 -0.1176202
vn 0.5675173 -0.814917 -0.1176202
vn 0.9120035 -0.03735114 0.4084784
vn 0.9120035 -0.03735114 0.4084784
vn 0.3445076 0.7776255 0.5259403
vn 0.3445076 0.7776255 0.5259403
vn -0.5675173 0.814917 0.1176202
vn -0.5675173 0.814917 0.1176202
vn -0.9120035 0.03735114 -0.4084784
vn -0.8376483 0.0404519 -0.5447099
vn -0.2837945 -0.7920973 -0.5404095
vn -0.2837945 -0.7920973 -0.5404095
vn 0.5538695 -0.8325924 0.004291714
vn 0.5538695 -0.8325924 0.004291714
vn 0.8376483 -0.0404519 0.5447099
vn 0.8376483 -0.0404519 0.5447099
vn 0.2837945 0.7920973 0.5404095
vn 0.2837945 0.7920973 0.5404095
vn -0.5538695 0.8325924 -0.004291714
vn -0.5538695 0.8325924 -0.004291714
vn -0.8376483 0.0404519 -0.5447099
vn -0.6898683 0.03965491 -0.7228479
vn -0.2146538 -0.8191972 -0.5318266
vn -0.2146538 -0.8191972 -0.5318266
vn 0.4752459 -0.85886 0.191052
vn 0.4752459 -0.85886 0.191052
vn 0.6898683 -0.03965491 0.7228479
vn 0.6898683 -0.03965491 0.7228479
vn 0.2146538 0.8191972 0.5318266
vn 0.2146538 0.8191972 0.5318266
vn -0.4752459 0.85886 -0.191052
vn -0.4752459 0.85886 -0.191052
vn -0.6898683 0.03965491 -0.7228479
vn -0.5164444 0.0472096 -0.8550183
vn -0.1974231 -0.8361872 -0.5116788
vn -0.1974231 -0.8361872 -0.5116788
vn 0.319016 -0.8833739 0.3433356
vn 0.319016 -0.8833739 0.3433356
vn 0.5164444 -0.0472096 0.8550183
vn 0.5164444 -0.0472096 0.8550183
vn 0.1974231 0.8361872 0.5116788
vn 0.1974231 0.8361872 0.5116788
vn -0.319016 0.8833739 -0.3433356
vn -0.319016 0.8833739 -0.3433356
vn -0.5164444 0.0472096 -0.8550183
vn -0.3864943 0.06238907 -0.9201792
vn -0.2054352 -0.8331053 -0.5135483
vn -0.2054352 -0.8331053 -0.5135483
vn 0.1811155 -0.8954848 0.4065762
vn 0.1811155 -0.8954848 0.4065762
vn 0.3864943 -0.06238907 0.9201792
vn 0.3864943 -0.06238907 0.9201792
vn 0.2054352 0.8331053 0.5135483
vn 0.2054352 0.8331053 0.5135483
vn -0.1811155 0.8954848 -0.4065762
vn -0.1811155 0.8954848 -0.4065762
vn -0.3864943 0.06238907 -0.9201792
vn -0.3302955 0.07788489 -0.9406587
vn -0.2117144 -0.8240491 -0.5254714
vn -0.2117144 -0.8240491 -0.5254714
vn 0.1185786 -0.9019763 0.4151841
vn 0.1185786 -0.9019763 0.4151841
vn 0.3302955 -0.07788489 0.9406587
vn 0.3302955 -0.07788489 0.9406587
vn 0.2117144 0.8240491 0.5254714
vn 0.2117144 0.8240491 0.5254714
vn -0.1185786 0.9019763 -0.4151841
vn -0.1185786 0.9019763 -0.4151841
vn -0.3302955 0.07788489 -0.9406587
vn -0.3581253 0.08575614 -0.9297269
vn -0.2133115 -0.819946 -0.5312124
vn -0.2133115 -0.819946 -0.5312124
vn 0.1448 -0.9056755 0.3984782
vn 0.1448 -0.9056755 0.3984782
vn 0.3581253 -0.08575614 0.9297269
vn 0.3581253 -0.08575614 0.9297269
vn 0.2133115 0.819946 0.5312124
vn 0.2133115 0.819946 0.5312124
vn -0.1448 0.9056755 -0.3984782
vn -0.1448 0.9056755 -0.3984782
vn -0.3581253 0.08575614 -0.9297269
vn -0.3929313 0.08567555 -0.915568
vn -0.2129901 -0.8199323 -0.5313625
vn -0.2129901 -0.8199323 -0.5313625
vn 0.1800109 -0.9055385 0.3841823
vn 0.1800109 -0.9055385 0.3841823
vn 0.3929313 -0.08567555 0.915568
vn 0.3929313 -0.08567555 0.915568
vn 0.2129901 0.8199323 0.5313625
vn 0.2129901 0.8199323 0.5313625
vn -0.1800109 0.9055385 -0.3841823
vn -0.1800109 0.9055385 -0.3841823
vn -0.3929313 0.08567555 -0.915568

vt 1 0
vt 0.8333333 0
vt 1 0.04545455
vt 0.8333333 0.04545455
vt 0.8333333 0
vt 0.6666666 0
vt 0.8333333 0.04545455
vt 0.6666666 0.04545455
vt 0.6666666 0
vt 0.5 0
vt 0.6666666 0.04545455
vt 0.5 0.04545455
vt 0.5 0
vt 0.3333333 0
vt 0.5 0.04545455
vt 0.3333333 0.04545455
vt 0.3333333 0
vt 0.1666667 0
vt 0.3333333 0.04545455
vt 0.1666667 0.04545455
vt 0.1666667 0
vt 0 0
vt 0.1666667 0.04545455
vt 0 0.04545455
vt 1 0.09090909
vt 0.8333333 0.09090909
vt 0.8333333 0.09090909
vt 0.6666666 0.09090909
vt 0.6666666 0.09090909
vt 0.5 0.09090909
vt 0.5 0.09090909
vt 0.3333333 0.09090909
vt 0.3333333 0.09090909
vt 0.1666667 0.09090909
vt 0.1666667 0.09090909
vt 0 0.09090909
vt 1 0.1363636
vt 0.8333333 0.1363636
vt 0.8333333 0.1363636
vt 0.6666666 0.1363636
vt 0.6666666 0.1363636
vt 0.5 0.1363636
vt 0.5 0.1363636
vt 0.3333333 0.1363636
vt 0.3333333 0.1363636
vt 0.1666667 0.1363636
vt 0.1666667 0.1363636
vt 0 0.1363636
vt 1 0.1818182
vt 0.8333333 0.1818182
vt 0.8333333 0.1818182
vt 0.6666666 0.1818182
vt 0.6666666 0.1818182
vt 0.5 0.1818182
vt 0.5 0.1818182
vt 0.3333333 0.1818182
vt 0.3333333 0.1818182
vt 0.1666667 0.1818182
vt 0.1666667 0.1818182
vt 0 0.1818182
vt 1 0.2272727
vt 0.8333333 0.2272727
vt 0.8333333 0.2272727
vt 0.6666666 0.2272727
vt 0.6666666 0.2272727
vt 0.5 0.2272727
vt 0.5 0.2272727
vt 0.3333333 0.2272727
vt 0.3333333 0.2272727
vt 0.1666667 0.2272727
vt 0.1666667 0.2272727
vt 0 0.2272727
vt 1 0.2727273
vt 0.8333333 0.2727273
vt 0.8333333 0.2727273
vt 0.6666666 0.2727273
vt 0.6666666 0.2727273
vt 0.5 0.2727273
vt 0.5 0.2727273
vt 0.3333333 0.2727273
vt 0.3333333 0.2727273
vt 0.1666667 0.2727273
vt 0.1666667 0.2727273
vt 0 0.2727273
vt 1 0.3181818
vt 0.8333333 0.3181818
vt 0.8333333 0.3181818
vt 0.6666666 0.3181818
vt 0.6666666 0.3181818
vt 0.5 0.3181818
vt 0.5 0.3181818
vt 0.3333333 0.3181818
vt 0.3333333 0.3181818
vt 0.1666667 0.3181818
vt 0.1666667 0.3181818
vt 0 0.3181818
vt 1 0.3636364
vt 0.8333333 0.3636364
vt 0.8333333 0.3636364
vt 0.6666666 0.3636364
vt 0.6666666 0.3636364
vt 0.5 0.3636364
vt 0.5 0.3636364
vt 0.3333333 0.3636364
vt 0.3333333 0.3636364
vt 0.1666667 0.3636364
vt 0.1666667 0.3636364
vt 0 0.3636364
vt 1 0.4090909
vt 0.8333333 0.4090909
vt 0.8333333 0.4090909
vt 0.6666666 0.4090909
vt 0.6666666 0.4090909
vt 0.5 0.4090909
vt 0.5 0.4090909
vt 0.3333333 0.4090909
vt 0.3333333 0.4090909
vt 0.1666667 0.4090909
vt 0.1666667 0.4090909
vt 0 0.4090909
vt 1 0.4545455
vt 0.8333333 0.4545455
vt 0.8333333 0.4545455
vt 0.6666666 0.4545455
vt 0.6666666 0.4545455
vt 0.5 0.4545455
vt 0.5 0.4545455
vt 0.3333333 0.4545455
vt 0.3333333 0.4545455
vt 0.1666667 0.4545455
vt 0.1666667 0.4545455
vt 0 0.4545455
vt 1 0.5
vt 0.8333333 0.5
vt 0.8333333 0.5
vt 0.6666666 0.5
vt 0.6666666 0.5
vt 0.5 0.5
vt 0.5 0.5
vt 0.3333333 0.5
vt 0.3333333 0.5
vt 0.1666667 0.5
vt 0.1666667 0.5
vt 0 0.5
vt 1 0.5454546
vt 0.8333333 0.5454546
vt 0.8333333 0.5454546
vt 0.6666666 0.5454546
vt 0.6666666 0.5454546
vt 0.5 0.5454546
vt 0.5 0.5454546
vt 0.3333333 0.5454546
vt 0.3333333 0.5454546
vt 0.1666667 0.5454546
vt 0.1666667 0.5454546
vt 0 0.5454546
vt 1 0.5909091
vt 0.8333333 0.5909091
vt 0.8333333 0.5909091
vt 0.6666666 0.5909091
vt 0.6666666 0.5909091
vt 0.5 0.5909091
vt 0.5 0.5909091
vt 0.3333333 0.5909091
vt 0.3333333 0.5909091
vt 0.1666667 0.5909091
vt 0.1666667 0.5909091
vt 0 0.5909091
vt 1 0.6363636
vt 0.8333333 0.6363636
vt 0.8333333 0.6363636
vt 0.6666666 0.6363636
vt 0.6666666 0.6363636
vt 0.5 0.6363636
vt 0.5 0.6363636
vt 0.3333333 0.6363636
vt 0.3333333 0.6363636
vt 0.1666667 0.6363636
vt 0.1666667 0.6363636
vt 0 0.6363636
vt 1 0.6818182
vt 0.8333333 0.6818182
vt 0.8333333 0.6818182
vt 0.6666666 0.6818182
vt 0.6666666 0.6818182
vt 0.5 0.6818182
vt 0.5 0.6818182
vt 0.3333333 0.6818182
vt 0.3333333 0.6818182
vt 0.1666667 0.6818182
vt 0.1666667 0.6818182
vt 0 0.6818182
vt 1 0.7272727
vt 0.8333333 0.7272727
vt 0.8333333 0.7272727
vt 0.6666666 0.7272727
vt 0.6666666 0.7272727
vt 0.5 0.7272727
vt 0.5 0.7272727
vt 0.3333333 0.7272727
vt 0.3333333 0.7272727
vt 0.1666667 0.7272727
vt 0.1666667 0.7272727
vt 0 0.7272727
vt 1 0.7727273
vt 0.8333333 0.7727273
vt 0.8333333 0.7727273
vt 0.6666666 0.7727273
vt 0.6666666 0.7727273
vt 0.5 0.7727273
vt 0.5 0.7727273
vt 0.3333333 0.7727273
vt 0.3333333 0.7727273
vt 0.1666667 0.7727273
vt 0.1666667 0.7727273
vt 0 0.7727273
vt 1 0.8181818
vt 0.8333333 0.8181818
vt 0.8333333 0.8181818
vt 0.6666666 0.8181818
vt 0.6666666 0.8181818
vt 0.5 0.8181818
vt 0.5 0.8181818
vt 0.3333333 0.8181818
vt 0.3333333 0.8181818
vt 0.1666667 0.8181818
vt 0.1666667 0.8181818
vt 0 0.8181818
vt 1 0.8636364
vt 0.8333333 0.8636364
vt 0.8333333 0.8636364
vt 0.6666666 0.8636364
vt 0.6666666 0.8636364
vt 0.5 0.8636364
vt 0.5 0.8636364
vt 0.3333333 0.8636364
vt 0.3333333 0.8636364
vt 0.1666667 0.8636364
vt 0.1666667 0.8636364
vt 0 0.8636364
vt 1 0.9090909
vt 0.8333333 0.9090909
vt 0.8333333 0.9090909
vt 0.6666666 0.9090909
vt 0.6666666 0.9090909
vt 0.5 0.9090909
vt 0.5 0.9090909
vt 0.3333333 0.9090909
vt 0.3333333 0.9090909
vt 0.1666667 0.9090909
vt 0.1666667 0.9090909
vt 0 0.9090909
vt 1 0.9545454
vt 0.8333333 0.9545454
vt 0.8333333 0.9545454
vt 0.6666666 0.9545454
vt 0.6666666 0.9545454
vt 0.5 0.9545454
vt 0.5 0.9545454
vt 0.3333333 0.9545454
vt 0.3333333 0.9545454
vt 0.1666667 0.9545454
vt 0.1666667 0.9545454
vt 0 0.9545454
vt 1 1
vt 0.8333333 1
vt 0.8333333 1
vt 0.6666666 1
vt 0.6666666 1
vt 0.5 1
vt 0.5 1
vt 0.3333333 1
vt 0.3333333 1
vt 0.1666667 1
vt 0.1666667 1
vt 0 1

vt2 0.004799302 0.5517501
vt2 0.00390625 0.5494065
vt2 0.05418918 0.5329363
vt2 0.05325348 0.5306094
vt2 0.00390625 0.00638727
vt2 0.004272315 0.00390625
vt2 0.0561476 0.01408986
vt2 0.05651408 0.01160893
vt2 0.00390625 0.3530686
vt2 0.004946732 0.3507865
vt2 0.05195233 0.3749792
vt2 0.05303556 0.3727172
vt2 0.9251118 0.6857628
vt2 0.9242156 0.6881053
vt2 0.8757457 0.6668819
vt2 0.8748068 0.6692075
vt2 0.9778643 0.1221438
vt2 0.9782313 0.1246247
vt2 0.9255334 0.1298802
vt2 0.9259008 0.132361
vt2 0.9649969 0.2403823
vt2 0.96604 0.2426631
vt2 0.9168924 0.2623882
vt2 0.9179783 0.264649
vt2 0.1055406 0.5111753
vt2 0.1045701 0.5088626
vt2 0.1112809 0.02224988
vt2 0.1116481 0.01976926
vt2 0.1017621 0.3999874
vt2 0.1028792 0.3977419
vt2 0.8244227 0.6450519
vt2 0.823449 0.6473632
vt2 0.8703276 0.1380731
vt2 0.8706958 0.1405536
vt2 0.8670445 0.2874866
vt2 0.8681643 0.2897308
vt2 0.1564992 0.4900041
vt2 0.1555998 0.4876631
vt2 0.1659442 0.03033486
vt2 0.1663103 0.02785367
vt2 0.1513214 0.4244246
vt2 0.1523686 0.4221459
vt2 0.7734943 0.623813
vt2 0.7725918 0.6261529
vt2 0.8158206 0.1461562
vt2 0.8161877 0.1486372
vt2 0.8176515 0.3119156
vt2 0.8187014 0.3141932
vt2 0.2047288 0.4729524
vt2 0.2040421 0.4705403
vt2 0.2167769 0.03781085
vt2 0.2171394 0.03532926
vt2 0.198575 0.4445879
vt2 0.1994112 0.4422235
vt2 0.7252945 0.6066986
vt2 0.7246047 0.6091098
vt2 0.7654414 0.1535854
vt2 0.7658049 0.1560669
vt2 0.7708366 0.3319647
vt2 0.7716755 0.3343282
vt2 0.2480586 0.4634942
vt2 0.247847 0.4609952
vt2 0.2611451 0.04424844
vt2 0.2614968 0.04176509
vt2 0.241699 0.4568082
vt2 0.2420562 0.4543259
vt2 0.6819977 0.5971896
vt2 0.6817828 0.5996884
vt2 0.7220528 0.1599029
vt2 0.7224054 0.1623861
vt2 0.728665 0.3440065
vt2 0.729025 0.3464884
vt2 0.2843193 0.4651352
vt2 0.2849486 0.4627076
vt2 0.2979395 0.04931097
vt2 0.2982481 0.04682187
vt2 0.2787956 0.4570889
vt2 0.278265 0.4546378
vt2 0.645824 0.5988156
vt2 0.6464499 0.6012442
vt2 0.6870244 0.1647847
vt2 0.6873339 0.1672737
vt2 0.6932569 0.3444285
vt2 0.6927291 0.3468803
vt2 0.312575 0.4790978
vt2 0.3139803 0.4770205
vt2 0.3301231 0.05276199
vt2 0.3303645 0.05026561
vt2 0.3080605 0.4434181
vt2 0.3066825 0.4413227
vt2 0.6177434 0.6128277
vt2 0.6191459 0.6149068
vt2 0.6566849 0.168204
vt2 0.6569274 0.1707003
vt2 0.6654789 0.331596
vt2 0.6641035 0.333693
vt2 0.3377568 0.5014322
vt2 0.3394807 0.4996104
vt2 0.3640783 0.05552521
vt2 0.36429 0.05302606
vt2 0.3334309 0.420727
vt2 0.3317094 0.4189034
vt2 0.5926895 0.6352168
vt2 0.594411 0.6370408
vt2 0.6236166 0.1710711
vt2 0.6238296 0.1735701
vt2 0.6406112 0.3095669
vt2 0.6388919 0.3113926
vt2 0.3632218 0.5271898
vt2 0.3649015 0.5253274
vt2 0.4000953 0.05874515
vt2 0.4003429 0.05624942
vt2 0.3591192 0.3952259
vt2 0.3574685 0.3933377
vt2 0.566952 0.6608042
vt2 0.5686293 0.6626688
vt2 0.587388 0.1740664
vt2 0.5876369 0.176562
vt2 0.6149895 0.2838299
vt2 0.6133409 0.2857201
vt2 0.3922834 0.550887
vt2 0.3935901 0.5487463
vt2 0.4368804 0.06302785
vt2 0.4371908 0.0605391
vt2 0.3886905 0.372827
vt2 0.3874723 0.3706348
vt2 0.5375844 0.6843243
vt2 0.5388883 0.6864666
vt2 0.5495246 0.1782161
vt2 0.5498365 0.1807046
vt2 0.5847955 0.2607134
vt2 0.58358 0.2629071
vt2 0.4292979 0.5673479
vt2 0.4300641 0.5649601
vt2 0.4764131 0.06854073
vt2 0.4768114 0.06606456
vt2 0.4261282 0.3587286
vt2 0.4255461 0.3562889
vt2 0.5003014 0.7006153
vt2 0.5010645 0.7030042
vt2 0.5086142 0.183736
vt2 0.509014 0.1862119
vt2 0.5463096 0.2460296
vt2 0.5457305 0.2484699
vt2 0.4792382 0.57783
vt2 0.4796651 0.5753586
vt2 0.5262319 0.07783938
vt2 0.5267278 0.07538087
vt2 0.4766361 0.3534934
vt2 0.4764995 0.3509892
vt2 0.4501188 0.7109128
vt2 0.4505424 0.7133847
vt2 0.457886 0.1930559
vt2 0.4583833 0.1955141
vt2 0.4951201 0.2405841
vt2 0.4949866 0.2430884
vt2 0.5398632 0.5861969
vt2 0.5401374 0.583704
vt2 0.5858582 0.0909274
vt2 0.586383 0.08847497
vt2 0.537711 0.3532943
vt2 0.5377567 0.3507865
vt2 0.3894161 0.7191401
vt2 0.3896872 0.7216333
vt2 0.3978938 0.2061843
vt2 0.3984201 0.2086364
vt2 0.4337384 0.2403823
vt2 0.4337871 0.24289
vt2 0.6052917 0.5916161
vt2 0.6054287 0.5891119
vt2 0.6499889 0.1043221
vt2 0.6504477 0.1018566
vt2 0.6031053 0.355935
vt2 0.6032214 0.3534296
vt2 0.3241164 0.724482
vt2 0.3242502 0.7269863
vt2 0.3336363 0.2196607
vt2 0.3340966 0.222126
vt2 0.368073 0.2431288
vt2 0.368192 0.2456341
vt2 0.6694305 0.5932834
vt2 0.6694001 0.5907755
vt2 0.7131539 0.1145839
vt2 0.7134398 0.1120923
vt2 0.6668385 0.3592229
vt2 0.6669471 0.3567171
vt2 0.2603277 0.7261559
vt2 0.2602941 0.7286638
vt2 0.2705076 0.2300515
vt2 0.270795 0.2325429
vt2 0.3040141 0.2466042
vt2 0.3041257 0.2491098
vt2 0.726409 0.5902587
vt2 0.7260975 0.5877703
vt2 0.7698131 0.1182375
vt2 0.7697349 0.1157308
vt2 0.7232215 0.3610562
vt2 0.7232482 0.3585483
vt2 0.2040669 0.7233477
vt2 0.2037523 0.7258357
vt2 0.214031 0.2339692
vt2 0.2139542 0.236476
vt2 0.2470781 0.2487592
vt2 0.2471077 0.251267
vt2 0.7717443 0.5809842
vt2 0.7709618 0.5786014
vt2 0.8152056 0.1122022
vt2 0.8145819 0.1097729
vt2 0.7684559 0.3603024
vt2 0.7684143 0.3577947
vt2 0.1597582 0.7145569
vt2 0.1589727 0.7169386
vt2 0.1687318 0.2282823
vt2 0.1681094 0.230712
vt2 0.200874 0.2483604
vt2 0.2008352 0.2508681
vt2 0.8085994 0.5637267
vt2 0.8073214 0.5615688
vt2 0.8525585 0.09747574
vt2 0.8514277 0.09523735
vt2 0.8080559 0.3594397
vt2 0.8080166 0.3569322
vt2 0.1238535 0.6978258
vt2 0.1225728 0.699982
vt2 0.1313159 0.2137033
vt2 0.1301863 0.2159423
vt2 0.1601823 0.2476631
vt2 0.1601458 0.2501707
vt2 0.8402612 0.5405223
vt2 0.8386705 0.5385833
vt2 0.8854625 0.07677752
vt2 0.884018 0.07472733
vt2 0.8465607 0.3590139
vt2 0.8465369 0.356506
vt2 0.09283666 0.6749798
vt2 0.09124348 0.6769168
vt2 0.09838773 0.1929844
vt2 0.09694437 0.1950354
vt2 0.1209144 0.2472453
vt2 0.1208935 0.2497532
vt2 0.8691951 0.5141028
vt2 0.8674883 0.5122653
vt2 0.9161747 0.05269668
vt2 0.9146109 0.05073602
vt2 0.8854375 0.3587585
vt2 0.8854191 0.3562506
vt2 0.06420778 0.6486683
vt2 0.06249861 0.6505036
vt2 0.0676972 0.1688598
vt2 0.06613442 0.1708213
vt2 0.0817289 0.2469634
vt2 0.08171339 0.2494713
vt2 0.8975946 0.4873374
vt2 0.8959443 0.485449
vt2 0.9465703 0.0281004
vt2 0.9450662 0.02609363
vt2 0.9246128 0.3584926
vt2 0.9245939 0.3559848
vt2 0.03575233 0.6217421
vt2 0.0340996 0.6236284
vt2 0.03730882 0.1442568
vt2 0.03580593 0.1462644
vt2 0.0427058 0.2467121
vt2 0.04268972 0.2492199
vt2 0.9277481 0.462945
vt2 0.9261705 0.4609952
vt2 0.9785355 0.005968284
vt2 0.977108 0.00390625
vt2 0.9635853 0.3581824
vt2 0.9635653 0.3556747
vt2 0.005486298 0.5971896
vt2 0.00390625 0.5991374
vt2 0.005332583 0.1221438
vt2 0.00390625 0.1242066
vt2 0.003923398 0.2464479
vt2 0.00390625 0.2489556


vc 1 1 1 1
vc 1 1 1 1
vc 1 1 1 1
vc 1 1 1 1
vc 1 1 1 1
vc 1 1 1 1
vc 1 1 1 1
vc 1 1 1 1
vc 1 1 1 1
vc 1 1 1 1
vc 1 1 1 1
vc 1 1 1 1
vc 1 1 1 1
vc 1 1 1 1
vc 1 1 1 1
vc 1 1 1 1
vc 1 1 1 1
vc 1 1 1 1
vc 1 1 1 1
vc 1 1 1 1
vc 1 1 1 1
vc 1 1 1 1
vc 1 1 1 1
vc 1 1 1 1
vc 1 1 1 1
vc 1 1 1 1
vc 1 1 1 1
vc 1 1 1 1
vc 1 1 1 1
vc 1 1 1 1
vc 1 1 1 1
vc 1 1 1 1
vc 1 1 1 1
vc 1 1 1 1
vc 1 1 1 1
vc 1 1 1 1
vc 1 1 1 1
vc 1 1 1 1
vc 1 1 1 1
vc 1 1 1 1
vc 1 1 1 1
vc 1 1 1 1
vc 1 1 1 1
vc 1 1 1 1
vc 1 1 1 1
vc 1 1 1 1
vc 1 1 1 1
vc 1 1 1 1
vc 1 1 1 1
vc 1 1 1 1
vc 1 1 1 1
vc 1 1 1 1
vc 1 1 1 1
vc 1 1 1 1
vc 1 1 1 1
vc 1 1 1 1
vc 1 1 1 1
vc 1 1 1 1
vc 1 1 1 1
vc 1 1 1 1
vc 1 1 1 1
vc 1 1 1 1
vc 1 1 1 1
vc 1 1 1 1
vc 1 1 1 1
vc 1 1 1 1
vc 1 1 1 1
vc 1 1 1 1
vc 1 1 1 1
vc 1 1 1 1
vc 1 1 1 1
vc 1 1 1 1
vc 1 1 1 1
vc 1 1 1 1
vc 1 1 1 1
vc 1 1 1 1
vc 1 1 1 1
vc 1 1 1 1
vc 1 1 1 1
vc 1 1 1 1
vc 1 1 1 1
vc 1 1 1 1
vc 1 1 1 1
vc 1 1 1 1
vc 1 1 1 1
vc 1 1 1 1
vc 1 1 1 1
vc 1 1 1 1
vc 1 1 1 1
vc 1 1 1 1
vc 1 1 1 1
vc 1 1 1 1
vc 1 1 1 1
vc 1 1 1 1
vc 1 1 1 1
vc 1 1 1 1
vc 1 1 1 1
vc 1 1 1 1
vc 1 1 1 1
vc 1 1 1 1
vc 1 1 1 1
vc 1 1 1 1
vc 1 1 1 1
vc 1 1 1 1
vc 1 1 1 1
vc 1 1 1 1
vc 1 1 1 1
vc 1 1 1 1
vc 1 1 1 1
vc 1 1 1 1
vc 1 1 1 1
vc 1 1 1 1
vc 1 1 1 1
vc 1 1 1 1
vc 1 1 1 1
vc 1 1 1 1
vc 1 1 1 1
vc 1 1 1 1
vc 1 1 1 1
vc 1 1 1 1
vc 1 1 1 1
vc 1 1 1 1
vc 1 1 1 1
vc 1 1 1 1
vc 1 1 1 1
vc 1 1 1 1
vc 1 1 1 1
vc 1 1 1 1
vc 1 1 1 1
vc 1 1 1 1
vc 1 1 1 1
vc 1 1 1 1
vc 1 1 1 1
vc 1 1 1 1
vc 1 1 1 1
vc 1 1 1 1
vc 1 1 1 1
vc 1 1 1 1
vc 1 1 1 1
vc 1 1 1 1
vc 1 1 1 1
vc 1 1 1 1
vc 1 1 1 1
vc 1 1 1 1
vc 1 1 1 1
vc 1 1 1 1
vc 1 1 1 1
vc 1 1 1 1
vc 1 1 1 1
vc 1 1 1 1
vc 1 1 1 1
vc 1 1 1 1
vc 1 1 1 1
vc 1 1 1 1
vc 1 1 1 1
vc 1 1 1 1
vc 1 1 1 1
vc 1 1 1 1
vc 1 1 1 1
vc 1 1 1 1
vc 1 1 1 1
vc 1 1 1 1
vc 1 1 1 1
vc 1 1 1 1
vc 1 1 1 1
vc 1 1 1 1
vc 1 1 1 1
vc 1 1 1 1
vc 1 1 1 1
vc 1 1 1 1
vc 1 1 1 1
vc 1 1 1 1
vc 1 1 1 1
vc 1 1 1 1
vc 1 1 1 1
vc 1 1 1 1
vc 1 1 1 1
vc 1 1 1 1
vc 1 1 1 1
vc 1 1 1 1
vc 1 1 1 1
vc 1 1 1 1
vc 1 1 1 1
vc 1 1 1 1
vc 1 1 1 1
vc 1 1 1 1
vc 1 1 1 1
vc 1 1 1 1
vc 1 1 1 1
vc 1 1 1 1
vc 1 1 1 1
vc 1 1 1 1
vc 1 1 1 1
vc 1 1 1 1
vc 1 1 1 1
vc 1 1 1 1
vc 1 1 1 1
vc 1 1 1 1
vc 1 1 1 1
vc 1 1 1 1
vc 1 1 1 1
vc 1 1 1 1
vc 1 1 1 1
vc 1 1 1 1
vc 1 1 1 1
vc 1 1 1 1
vc 1 1 1 1
vc 1 1 1 1
vc 1 1 1 1
vc 1 1 1 1
vc 1 1 1 1
vc 1 1 1 1
vc 1 1 1 1
vc 1 1 1 1
vc 1 1 1 1
vc 1 1 1 1
vc 1 1 1 1
vc 1 1 1 1
vc 1 1 1 1
vc 1 1 1 1
vc 1 1 1 1
vc 1 1 1 1
vc 1 1 1 1
vc 1 1 1 1
vc 1 1 1 1
vc 1 1 1 1
vc 1 1 1 1
vc 1 1 1 1
vc 1 1 1 1
vc 1 1 1 1
vc 1 1 1 1
vc 1 1 1 1
vc 1 1 1 1
vc 1 1 1 1
vc 1 1 1 1
vc 1 1 1 1
vc 1 1 1 1
vc 1 1 1 1
vc 1 1 1 1
vc 1 1 1 1
vc 1 1 1 1
vc 1 1 1 1
vc 1 1 1 1
vc 1 1 1 1
vc 1 1 1 1
vc 1 1 1 1
vc 1 1 1 1
vc 1 1 1 1
vc 1 1 1 1
vc 1 1 1 1
vc 1 1 1 1
vc 1 1 1 1
vc 1 1 1 1
vc 1 1 1 1
vc 1 1 1 1
vc 1 1 1 1
vc 1 1 1 1
vc 1 1 1 1
vc 1 1 1 1
vc 1 1 1 1
vc 1 1 1 1
vc 1 1 1 1
vc 1 1 1 1
vc 1 1 1 1
vc 1 1 1 1
vc 1 1 1 1
vc 1 1 1 1
vc 1 1 1 1
vc 1 1 1 1
vc 1 1 1 1
vc 1 1 1 1
vc 1 1 1 1
vc 1 1 1 1
vc 1 1 1 1
vc 1 1 1 1
vc 1 1 1 1

usemtl Default-Diffuse
usemap Default-Diffuse
f 3/3/3 2/2/2 1/1/1
f 3/3/3 4/4/4 2/2/2
f 7/7/7 6/6/6 5/5/5
f 7/7/7 8/8/8 6/6/6
f 11/11/11 10/10/10 9/9/9
f 11/11/11 12/12/12 10/10/10
f 15/15/15 14/14/14 13/13/13
f 15/15/15 16/16/16 14/14/14
f 19/19/19 18/18/18 17/17/17
f 19/19/19 20/20/20 18/18/18
f 23/23/23 22/22/22 21/21/21
f 23/23/23 24/24/24 22/22/22
f 25/25/25 4/4/4 3/3/3
f 25/25/25 26/26/26 4/4/4
f 27/27/27 8/8/8 7/7/7
f 27/27/27 28/28/28 8/8/8
f 29/29/29 12/12/12 11/11/11
f 29/29/29 30/30/30 12/12/12
f 31/31/31 16/16/16 15/15/15
f 31/31/31 32/32/32 16/16/16
f 33/33/33 20/20/20 19/19/19
f 33/33/33 34/34/34 20/20/20
f 35/35/35 24/24/24 23/23/23
f 35/35/35 36/36/36 24/24/24
f 37/37/37 26/26/26 25/25/25
f 37/37/37 38/38/38 26/26/26
f 39/39/39 28/28/28 27/27/27
f 39/39/39 40/40/40 28/28/28
f 41/41/41 30/30/30 29/29/29
f 41/41/41 42/42/42 30/30/30
f 43/43/43 32/32/32 31/31/31
f 43/43/43 44/44/44 32/32/32
f 45/45/45 34/34/34 33/33/33
f 45/45/45 46/46/46 34/34/34
f 47/47/47 36/36/36 35/35/35
f 47/47/47 48/48/48 36/36/36
f 49/49/49 38/38/38 37/37/37
f 49/49/49 50/50/50 38/38/38
f 51/51/51 40/40/40 39/39/39
f 51/51/51 52/52/52 40/40/40
f 53/53/53 42/42/42 41/41/41
f 53/53/53 54/54/54 42/42/42
f 55/55/55 44/44/44 43/43/43
f 55/55/55 56/56/56 44/44/44
f 57/57/57 46/46/46 45/45/45
f 57/57/57 58/58/58 46/46/46
f 59/59/59 48/48/48 47/47/47
f 59/59/59 60/60/60 48/48/48
f 61/61/61 50/50/50 49/49/49
f 61/61/61 62/62/62 50/50/50
f 63/63/63 52/52/52 51/51/51
f 63/63/63 64/64/64 52/52/52
f 65/65/65 54/54/54 53/53/53
f 65/65/65 66/66/66 54/54/54
f 67/67/67 56/56/56 55/55/55
f 67/67/67 68/68/68 56/56/56
f 69/69/69 58/58/58 57/57/57
f 69/69/69 70/70/70 58/58/58
f 71/71/71 60/60/60 59/59/59
f 71/71/71 72/72/72 60/60/60
f 73/73/73 62/62/62 61/61/61
f 73/73/73 74/74/74 62/62/62
f 75/75/75 64/64/64 63/63/63
f 75/75/75 76/76/76 64/64/64
f 77/77/77 66/66/66 65/65/65
f 77/77/77 78/78/78 66/66/66
f 79/79/79 68/68/68 67/67/67
f 79/79/79 80/80/80 68/68/68
f 81/81/81 70/70/70 69/69/69
f 81/81/81 82/82/82 70/70/70
f 83/83/83 72/72/72 71/71/71
f 83/83/83 84/84/84 72/72/72
f 85/85/85 74/74/74 73/73/73
f 85/85/85 86/86/86 74/74/74
f 87/87/87 76/76/76 75/75/75
f 87/87/87 88/88/88 76/76/76
f 89/89/89 78/78/78 77/77/77
f 89/89/89 90/90/90 78/78/78
f 91/91/91 80/80/80 79/79/79
f 91/91/91 92/92/92 80/80/80
f 93/93/93 82/82/82 81/81/81
f 93/93/93 94/94/94 82/82/82
f 95/95/95 84/84/84 83/83/83
f 95/95/95 96/96/96 84/84/84
f 97/97/97 86/86/86 85/85/85
f 97/97/97 98/98/98 86/86/86
f 99/99/99 88/88/88 87/87/87
f 99/99/99 100/100/100 88/88/88
f 101/101/101 90/90/90 89/89/89
f 101/101/101 102/102/102 90/90/90
f 103/103/103 92/92/92 91/91/91
f 103/103/103 104/104/104 92/92/92
f 105/105/105 94/94/94 93/93/93
f 105/105/105 106/106/106 94/94/94
f 107/107/107 96/96/96 95/95/95
f 107/107/107 108/108/108 96/96/96
f 109/109/109 98/98/98 97/97/97
f 109/109/109 110/110/110 98/98/98
f 111/111/111 100/100/100 99/99/99
f 111/111/111 112/112/112 100/100/100
f 113/113/113 102/102/102 101/101/101
f 113/113/113 114/114/114 102/102/102
f 115/115/115 104/104/104 103/103/103
f 115/115/115 116/116/116 104/104/104
f 117/117/117 106/106/106 105/105/105
f 117/117/117 118/118/118 106/106/106
f 119/119/119 108/108/108 107/107/107
f 119/119/119 120/120/120 108/108/108
f 121/121/121 110/110/110 109/109/109
f 121/121/121 122/122/122 110/110/110
f 123/123/123 112/112/112 111/111/111
f 123/123/123 124/124/124 112/112/112
f 125/125/125 114/114/114 113/113/113
f 125/125/125 126/126/126 114/114/114
f 127/127/127 116/116/116 115/115/115
f 127/127/127 128/128/128 116/116/116
f 129/129/129 118/118/118 117/117/117
f 129/129/129 130/130/130 118/118/118
f 131/131/131 120/120/120 119/119/119
f 131/131/131 132/132/132 120/120/120
f 133/133/133 122/122/122 121/121/121
f 133/133/133 134/134/134 122/122/122
f 135/135/135 124/124/124 123/123/123
f 135/135/135 136/136/136 124/124/124
f 137/137/137 126/126/126 125/125/125
f 137/137/137 138/138/138 126/126/126
f 139/139/139 128/128/128 127/127/127
f 139/139/139 140/140/140 128/128/128
f 141/141/141 130/130/130 129/129/129
f 141/141/141 142/142/142 130/130/130
f 143/143/143 132/132/132 131/131/131
f 143/143/143 144/144/144 132/132/132
f 145/145/145 134/134/134 133/133/133
f 145/145/145 146/146/146 134/134/134
f 147/147/147 136/136/136 135/135/135
f 147/147/147 148/148/148 136/136/136
f 149/149/149 138/138/138 137/137/137
f 149/149/149 150/150/150 138/138/138
f 151/151/151 140/140/140 139/139/139
f 151/151/151 152/152/152 140/140/140
f 153/153/153 142/142/142 141/141/141
f 153/153/153 154/154/154 142/142/142
f 155/155/155 144/144/144 143/143/143
f 155/155/155 156/156/156 144/144/144
f 157/157/157 146/146/146 145/145/145
f 157/157/157 158/158/158 146/146/146
f 159/159/159 148/148/148 147/147/147
f 159/159/159 160/160/160 148/148/148
f 161/161/161 150/150/150 149/149/149
f 161/161/161 162/162/162 150/150/150
f 163/163/163 152/152/152 151/151/151
f 163/163/163 164/164/164 152/152/152
f 165/165/165 154/154/154 153/153/153
f 165/165/165 166/166/166 154/154/154
f 167/167/167 156/156/156 155/155/155
f 167/167/167 168/168/168 156/156/156
f 169/169/169 158/158/158 157/157/157
f 169/169/169 170/170/170 158/158/158
f 171/171/171 160/160/160 159/159/159
f 171/171/171 172/172/172 160/160/160
f 173/173/173 162/162/162 161/161/161
f 173/173/173 174/174/174 162/162/162
f 175/175/175 164/164/164 163/163/163
f 175/175/175 176/176/176 164/164/164
f 177/177/177 166/166/166 165/165/165
f 177/177/177 178/178/178 166/166/166
f 179/179/179 168/168/168 167/167/167
f 179/179/179 180/180/180 168/168/168
f 181/181/181 170/170/170 169/169/169
f 181/181/181 182/182/182 170/170/170
f 183/183/183 172/172/172 171/171/171
f 183/183/183 184/184/184 172/172/172
f 185/185/185 174/174/174 173/173/173
f 185/185/185 186/186/186 174/174/174
f 187/187/187 176/176/176 175/175/175
f 187/187/187 188/188/188 176/176/176
f 189/189/189 178/178/178 177/177/177
f 189/189/189 190/190/190 178/178/178
f 191/191/191 180/180/180 179/179/179
f 191/191/191 192/192/192 180/180/180
f 193/193/193 182/182/182 181/181/181
f 193/193/193 194/194/194 182/182/182
f 195/195/195 184/184/184 183/183/183
f 195/195/195 196/196/196 184/184/184
f 197/197/197 186/186/186 185/185/185
f 197/197/197 198/198/198 186/186/186
f 199/199/199 188/188/188 187/187/187
f 199/199/199 200/200/200 188/188/188
f 201/201/201 190/190/190 189/189/189
f 201/201/201 202/202/202 190/190/190
f 203/203/203 192/192/192 191/191/191
f 203/203/203 204/204/204 192/192/192
f 205/205/205 194/194/194 193/193/193
f 205/205/205 206/206/206 194/194/194
f 207/207/207 196/196/196 195/195/195
f 207/207/207 208/208/208 196/196/196
f 209/209/209 198/198/198 197/197/197
f 209/209/209 210/210/210 198/198/198
f 211/211/211 200/200/200 199/199/199
f 211/211/211 212/212/212 200/200/200
f 213/213/213 202/202/202 201/201/201
f 213/213/213 214/214/214 202/202/202
f 215/215/215 204/204/204 203/203/203
f 215/215/215 216/216/216 204/204/204
f 217/217/217 206/206/206 205/205/205
f 217/217/217 218/218/218 206/206/206
f 219/219/219 208/208/208 207/207/207
f 219/219/219 220/220/220 208/208/208
f 221/221/221 210/210/210 209/209/209
f 221/221/221 222/222/222 210/210/210
f 223/223/223 212/212/212 211/211/211
f 223/223/223 224/224/224 212/212/212
f 225/225/225 214/214/214 213/213/213
f 225/225/225 226/226/226 214/214/214
f 227/227/227 216/216/216 215/215/215
f 227/227/227 228/228/228 216/216/216
f 229/229/229 218/218/218 217/217/217
f 229/229/229 230/230/230 218/218/218
f 231/231/231 220/220/220 219/219/219
f 231/231/231 232/232/232 220/220/220
f 233/233/233 222/222/222 221/221/221
f 233/233/233 234/234/234 222/222/222
f 235/235/235 224/224/224 223/223/223
f 235/235/235 236/236/236 224/224/224
f 237/237/237 226/226/226 225/225/225
f 237/237/237 238/238/238 226/226/226
f 239/239/239 228/228/228 227/227/227
f 239/239/239 240/240/240 228/228/228
f 241/241/241 230/230/230 229/229/229
f 241/241/241 242/242/242 230/230/230
f 243/243/243 232/232/232 231/231/231
f 243/243/243 244/244/244 232/232/232
f 245/245/245 234/234/234 233/233/233
f 245/245/245 246/246/246 234/234/234
f 247/247/247 236/236/236 235/235/235
f 247/247/247 248/248/248 236/236/236
f 249/249/249 238/238/238 237/237/237
f 249/249/249 250/250/250 238/238/238
f 251/251/251 240/240/240 239/239/239
f 251/251/251 252/252/252 240/240/240
f 253/253/253 242/242/242 241/241/241
f 253/253/253 254/254/254 242/242/242
f 255/255/255 244/244/244 243/243/243
f 255/255/255 256/256/256 244/244/244
f 257/257/257 246/246/246 245/245/245
f 257/257/257 258/258/258 246/246/246
f 259/259/259 248/248/248 247/247/247
f 259/259/259 260/260/260 248/248/248
f 261/261/261 250/250/250 249/249/249
f 261/261/261 262/262/262 250/250/250
f 263/263/263 252/252/252 251/251/251
f 263/263/263 264/264/264 252/252/252
f 265/265/265 254/254/254 253/253/253
f 265/265/265 266/266/266 254/254/254
f 267/267/267 256/256/256 255/255/255
f 267/267/267 268/268/268 256/256/256
f 269/269/269 258/258/258 257/257/257
f 269/269/269 270/270/270 258/258/258
f 271/271/271 260/260/260 259/259/259
f 271/271/271 272/272/272 260/260/260
f 273/273/273 262/262/262 261/261/261
f 273/273/273 274/274/274 262/262/262
f 275/275/275 264/264/264 263/263/263
f 275/275/275 276/276/276 264/264/264
