g tube
v -1.962592 0.8267197 -3.427909
v -1.961894 0.825421 -3.427632
v -1.959419 0.8264896 -3.436975
v -1.958718 0.8251907 -3.436708
v -1.961894 0.825421 -3.427632
v -1.960479 0.825421 -3.427136
v -1.958718 0.8251907 -3.436708
v -1.957303 0.8251907 -3.436211
v -1.960479 0.825421 -3.427136
v -1.95976 0.8267197 -3.426918
v -1.957303 0.8251907 -3.436211
v -1.956589 0.8264896 -3.435981
v -1.95976 0.8267197 -3.426918
v -1.960458 0.8280184 -3.427195
v -1.956589 0.8264896 -3.435981
v -1.95729 0.8277885 -3.436249
v -1.960458 0.8280184 -3.427195
v -1.961874 0.8280184 -3.42769
v -1.95729 0.8277885 -3.436249
v -1.958705 0.8277885 -3.436746
v -1.961874 0.8280184 -3.42769
v -1.962592 0.8267197 -3.427909
v -1.958705 0.8277885 -3.436746
v -1.959419 0.8264896 -3.436975
v -1.951215 0.8263267 -3.460233
v -1.950505 0.8250277 -3.459991
v -1.950505 0.8250277 -3.459991
v -1.949092 0.8250277 -3.459489
v -1.949092 0.8250277 -3.459489
v -1.948388 0.8263267 -3.45923
v -1.948388 0.8263267 -3.45923
v -1.949098 0.8276258 -3.459472
v -1.949098 0.8276258 -3.459472
v -1.950512 0.8276258 -3.459974
v -1.950512 0.8276258 -3.459974
v -1.951215 0.8263267 -3.460233
v -1.939952 0.8270212 -3.491765
v -1.939228 0.8257234 -3.491563
v -1.939228 0.8257234 -3.491563
v -1.937817 0.8257234 -3.491054
v -1.937817 0.8257234 -3.491054
v -1.93713 0.8270212 -3.490747
v -1.93713 0.8270212 -3.490747
v -1.937855 0.8283191 -3.490949
v -1.937855 0.8283191 -3.490949
v -1.939265 0.8283191 -3.491458
v -1.939265 0.8283191 -3.491458
v -1.939952 0.8270212 -3.491765
v -1.9276 0.8293638 -3.525659
v -1.926849 0.828072 -3.525526
v -1.926849 0.828072 -3.525526
v -1.925443 0.828072 -3.525004
v -1.925443 0.828072 -3.525004
v -1.924788 0.8293638 -3.524615
v -1.924788 0.8293638 -3.524615
v -1.925539 0.8306556 -3.524748
v -1.925539 0.8306556 -3.524748
v -1.926945 0.8306556 -3.52527
v -1.926945 0.8306556 -3.52527
v -1.9276 0.8293638 -3.525659
v -1.916131 0.8341449 -3.555998
v -1.915318 0.832885 -3.556023
v -1.915318 0.832885 -3.556023
v -1.913918 0.832885 -3.555484
v -1.913918 0.832885 -3.555484
v -1.913332 0.8341449 -3.554919
v -1.913332 0.8341449 -3.554919
v -1.914146 0.8354049 -3.554894
v -1.914146 0.8354049 -3.554894
v -1.915545 0.8354049 -3.555433
v -1.915545 0.8354049 -3.555433
v -1.916131 0.8341449 -3.555998
v -1.90746 0.8426852 -3.578033
v -1.906552 0.8415409 -3.578374
v -1.906552 0.8415409 -3.578374
v -1.905132 0.8415409 -3.577891
v -1.905132 0.8415409 -3.577891
v -1.90462 0.8426852 -3.577068
v -1.90462 0.8426852 -3.577068
v -1.905528 0.8438296 -3.576727
v -1.905528 0.8438296 -3.576727
v -1.906948 0.8438296 -3.57721
v -1.906948 0.8438296 -3.57721
v -1.90746 0.8426852 -3.578033
v -1.901499 0.8592626 -3.599374
v -1.900569 0.8582667 -3.600001
v -1.900569 0.8582667 -3.600001
v -1.899114 0.8582667 -3.599637
v -1.899114 0.8582667 -3.599637
v -1.898588 0.8592626 -3.598646
v -1.898588 0.8592626 -3.598646
v -1.899518 0.8602586 -3.598019
v -1.899518 0.8602586 -3.598019
v -1.900973 0.8602586 -3.598382
v -1.900973 0.8602586 -3.598382
v -1.901499 0.8592626 -3.599374
v -1.896398 0.8817812 -3.622765
v -1.895469 0.8808367 -3.623468
v -1.895469 0.8808367 -3.623468
v -1.894006 0.8808367 -3.623135
v -1.894006 0.8808367 -3.623135
v -1.893473 0.8817812 -3.622099
v -1.893473 0.8817812 -3.622099
v -1.894402 0.8827258 -3.621396
v -1.894402 0.8827258 -3.621396
v -1.895865 0.8827258 -3.621729
v -1.895865 0.8827258 -3.621729
v -1.896398 0.8817812 -3.622765
v -1.89032 0.9066919 -3.648377
v -1.889367 0.9057165 -3.649002
v -1.889367 0.9057165 -3.649002
v -1.887922 0.9057165 -3.648599
v -1.887922 0.9057165 -3.648599
v -1.88743 0.9066919 -3.647571
v -1.88743 0.9066919 -3.647571
v -1.888383 0.9076673 -3.646946
v -1.888383 0.9076673 -3.646946
v -1.889828 0.9076673 -3.647349
v -1.889828 0.9076673 -3.647349
v -1.89032 0.9066919 -3.648377
v -1.881419 0.9304452 -3.676331
v -1.880455 0.9293754 -3.676749
v -1.880455 0.9293754 -3.676749
v -1.879054 0.9293754 -3.676211
v -1.879054 0.9293754 -3.676211
v -1.878619 0.9304452 -3.675254
v -1.878619 0.9304452 -3.675254
v -1.879583 0.931515 -3.674836
v -1.879583 0.931515 -3.674836
v -1.880983 0.931515 -3.675374
v -1.880983 0.931515 -3.675374
v -1.881419 0.9304452 -3.676331
v -1.867848 0.949497 -3.706753
v -1.866921 0.9483272 -3.706903
v -1.866921 0.9483272 -3.706903
v -1.865599 0.9483224 -3.706194
v -1.865599 0.9483224 -3.706194
v -1.865205 0.9494872 -3.705335
v -1.865205 0.9494872 -3.705335
v -1.866132 0.950657 -3.705185
v -1.866132 0.950657 -3.705185
v -1.867453 0.9506618 -3.705894
v -1.867453 0.9506618 -3.705894
v -1.867848 0.949497 -3.706753
v -1.84789 0.9645504 -3.73834
v -1.846997 0.9633453 -3.738309
v -1.846997 0.9633453 -3.738309
v -1.845788 0.9633297 -3.737422
v -1.845788 0.9633297 -3.737422
v -1.845472 0.9645193 -3.736564
v -1.845472 0.9645193 -3.736564
v -1.846365 0.9657243 -3.736595
v -1.846365 0.9657243 -3.736595
v -1.847574 0.9657399 -3.737482
v -1.847574 0.9657399 -3.737482
v -1.84789 0.9645504 -3.73834
v -1.822531 0.9813322 -3.7677
v -1.821649 0.9801257 -3.767572
v -1.821649 0.9801257 -3.767572
v -1.82056 0.9800991 -3.766542
v -1.82056 0.9800991 -3.766542
v -1.820352 0.9812791 -3.76564
v -1.820352 0.9812791 -3.76564
v -1.821234 0.9824857 -3.765768
v -1.821234 0.9824857 -3.765768
v -1.822324 0.9825122 -3.766798
v -1.822324 0.9825122 -3.766798
v -1.822531 0.9813322 -3.7677
v -1.794642 0.9975013 -3.79388
v -1.793807 0.9962754 -3.793657
v -1.793807 0.9962754 -3.793657
v -1.792813 0.9962386 -3.792535
v -1.792813 0.9962386 -3.792535
v -1.792654 0.9974278 -3.791634
v -1.792654 0.9974278 -3.791634
v -1.793489 0.9986537 -3.791857
v -1.793489 0.9986537 -3.791857
v -1.794483 0.9986905 -3.792979
v -1.794483 0.9986905 -3.792979
v -1.794642 0.9975013 -3.79388
v -1.76708 1.010458 -3.816044
v -1.766348 1.009192 -3.815709
v -1.766348 1.009192 -3.815709
v -1.765434 1.009146 -3.814521
v -1.765434 1.009146 -3.814521
v -1.765251 1.010366 -3.813668
v -1.765251 1.010366 -3.813668
v -1.765983 1.011632 -3.814002
v -1.765983 1.011632 -3.814002
v -1.766897 1.011678 -3.81519
v -1.766897 1.011678 -3.81519
v -1.76708 1.010458 -3.816044
v -1.742697 1.017603 -3.833352
v -1.742199 1.016284 -3.83284
v -1.742199 1.016284 -3.83284
v -1.74136 1.016229 -3.831597
v -1.74136 1.016229 -3.831597
v -1.741019 1.017494 -3.830867
v -1.741019 1.017494 -3.830867
v -1.741516 1.018813 -3.831379
v -1.741516 1.018813 -3.831379
v -1.742355 1.018868 -3.832622
v -1.742355 1.018868 -3.832622
v -1.742697 1.017603 -3.833352
v -1.724168 1.016702 -3.845073
v -1.723812 1.015374 -3.844473
v -1.723812 1.015374 -3.844473
v -1.723037 1.015315 -3.84319
v -1.723037 1.015315 -3.84319
v -1.722619 1.016583 -3.842507
v -1.722619 1.016583 -3.842507
v -1.722975 1.017911 -3.843107
v -1.722975 1.017911 -3.843107
v -1.723749 1.01797 -3.84439
v -1.723749 1.01797 -3.84439
v -1.724168 1.016702 -3.845073
v -1.707329 1.017346 -3.854771
v -1.706813 1.016031 -3.854268
v -1.706813 1.016031 -3.854268
v -1.706071 1.015966 -3.852966
v -1.706071 1.015966 -3.852966
v -1.705846 1.017215 -3.852167
v -1.705846 1.017215 -3.852167
v -1.706363 1.01853 -3.852671
v -1.706363 1.01853 -3.852671
v -1.707105 1.018596 -3.853973
v -1.707105 1.018596 -3.853973
v -1.707329 1.017346 -3.854771
v -1.68979 1.022999 -3.864332
v -1.689082 1.021737 -3.863936
v -1.689082 1.021737 -3.863936
v -1.688353 1.021665 -3.862627
v -1.688353 1.021665 -3.862627
v -1.688332 1.022856 -3.861714
v -1.688332 1.022856 -3.861714
v -1.689039 1.024117 -3.86211
v -1.689039 1.024117 -3.86211
v -1.689768 1.024189 -3.863419
v -1.689768 1.024189 -3.863419
v -1.68979 1.022999 -3.864332
v -1.672045 1.031261 -3.873659
v -1.671272 1.030027 -3.8733
v -1.671272 1.030027 -3.8733
v -1.670551 1.029948 -3.871987
v -1.670551 1.029948 -3.871987
v -1.670604 1.031104 -3.871032
v -1.670604 1.031104 -3.871032
v -1.671377 1.032338 -3.871391
v -1.671377 1.032338 -3.871391
v -1.672098 1.032417 -3.872704
v -1.672098 1.032417 -3.872704
v -1.672045 1.031261 -3.873659
v -1.654604 1.039732 -3.882648
v -1.653871 1.038478 -3.882272
v -1.653871 1.038478 -3.882272
v -1.653157 1.038393 -3.880956
v -1.653157 1.038393 -3.880956
v -1.653176 1.039561 -3.880015
v -1.653176 1.039561 -3.880015
v -1.653909 1.040815 -3.880391
v -1.653909 1.040815 -3.880391
v -1.654623 1.0409 -3.881707
v -1.654623 1.0409 -3.881707
v -1.654604 1.039732 -3.882648
v -1.637971 1.046011 -3.891199
v -1.637414 1.044698 -3.890735
v -1.637414 1.044698 -3.890735
v -1.636713 1.044606 -3.889412
v -1.636713 1.044606 -3.889412
v -1.63657 1.045826 -3.888553
v -1.63657 1.045826 -3.888553
v -1.637127 1.04714 -3.889016
v -1.637127 1.04714 -3.889016
v -1.637827 1.047232 -3.89034
v -1.637827 1.047232 -3.89034
v -1.637971 1.046011 -3.891199
v -1.621382 1.047929 -3.899671
v -1.621086 1.046583 -3.89908
v -1.621086 1.046583 -3.89908
v -1.620421 1.046482 -3.897739
v -1.620421 1.046482 -3.897739
v -1.620053 1.047728 -3.896989
v -1.620053 1.047728 -3.896989
v -1.620349 1.049074 -3.89758
v -1.620349 1.049074 -3.89758
v -1.621014 1.049175 -3.898921
v -1.621014 1.049175 -3.898921
v -1.621382 1.047929 -3.899671
v -1.601303 1.045757 -3.90932
v -1.601203 1.044421 -3.908646
v -1.601203 1.044421 -3.908646
v -1.600579 1.044312 -3.907286
v -1.600579 1.044312 -3.907286
v -1.600055 1.045538 -3.906601
v -1.600055 1.045538 -3.906601
v -1.600154 1.046875 -3.907275
v -1.600154 1.046875 -3.907275
v -1.600778 1.046984 -3.908635
v -1.600778 1.046984 -3.908635
v -1.601303 1.045757 -3.90932
v -1.58025 1.041158 -3.919075
v -1.580256 1.039837 -3.918364
v -1.580256 1.039837 -3.918364
v -1.579657 1.039721 -3.916994
v -1.579657 1.039721 -3.916994
v -1.579052 1.040925 -3.916335
v -1.579052 1.040925 -3.916335
v -1.579046 1.042246 -3.917046
v -1.579046 1.042246 -3.917046
v -1.579645 1.042362 -3.918416
v -1.579645 1.042362 -3.918416
v -1.58025 1.041158 -3.919075
v -1.561343 1.035805 -3.927647
v -1.561414 1.034496 -3.926917
v -1.561414 1.034496 -3.926917
v -1.560831 1.034373 -3.92554
v -1.560831 1.034373 -3.92554
v -1.560179 1.035559 -3.924893
v -1.560179 1.035559 -3.924893
v -1.560108 1.036867 -3.925623
v -1.560108 1.036867 -3.925623
v -1.560691 1.03699 -3.927
v -1.560691 1.03699 -3.927
v -1.561343 1.035805 -3.927647
v -1.547705 1.031369 -3.93374
v -1.547818 1.030069 -3.933001
v -1.547818 1.030069 -3.933001
v -1.547247 1.02994 -3.931619
v -1.547247 1.02994 -3.931619
v -1.546564 1.031111 -3.930977
v -1.546564 1.031111 -3.930977
v -1.546451 1.032411 -3.931717
v -1.546451 1.032411 -3.931717
v -1.547021 1.03254 -3.933098
v -1.547021 1.03254 -3.933098
v -1.547705 1.031369 -3.93374
v -1.542463 1.02952 -3.936059
v -1.542593 1.028223 -3.935317
v -1.542593 1.028223 -3.935317
v -1.542027 1.028091 -3.933934
v -1.542027 1.028091 -3.933934
v -1.541332 1.029255 -3.933293
v -1.541332 1.029255 -3.933293
v -1.541202 1.030552 -3.934036
v -1.541202 1.030552 -3.934036
v -1.541767 1.030685 -3.935419
v -1.541767 1.030685 -3.935419
v -1.542463 1.02952 -3.936059

vn -0.9438819 0 -0.3302832
vn -0.4788143 -0.8657598 -0.1455913
vn -0.943491 0 -0.331398
vn -0.4761183 -0.8659297 -0.1532225
vn -0.4788143 -0.8657598 -0.1455913
vn 0.4650804 -0.8657871 0.184697
vn -0.4761183 -0.8659297 -0.1532225
vn 0.4673713 -0.8659203 0.1781749
vn 0.4650804 -0.8657871 0.184697
vn 0.9438819 0 0.3302832
vn 0.4673713 -0.8659203 0.1781749
vn 0.943491 0 0.331398
vn 0.9438819 0 0.3302832
vn 0.4788143 0.8657598 0.1455913
vn 0.943491 0 0.331398
vn 0.4761183 0.8659297 0.1532225
vn 0.4788143 0.8657598 0.1455913
vn -0.4650804 0.8657871 -0.184697
vn 0.4761183 0.8659297 0.1532225
vn -0.4673713 0.8659203 -0.1781749
vn -0.4650804 0.8657871 -0.184697
vn -0.9438819 0 -0.3302832
vn -0.4673713 0.8659203 -0.1781749
vn -0.943491 0 -0.331398
vn -0.9423696 0 -0.3345738
vn -0.4691223 -0.8660047 -0.1730897
vn -0.4691223 -0.8660047 -0.1730897
vn 0.4732519 -0.8659993 0.1614858
vn 0.4732519 -0.8659993 0.1614858
vn 0.9423696 0 0.3345738
vn 0.9423696 0 0.3345738
vn 0.4691223 0.8660047 0.1730897
vn 0.4691223 0.8660047 0.1730897
vn -0.4732519 0.8659993 -0.1614858
vn -0.4732519 0.8659993 -0.1614858
vn -0.9423696 0 -0.3345738
vn -0.9406582 0 -0.3393554
vn -0.4577634 -0.8652205 -0.204563
vn -0.4577634 -0.8652205 -0.204563
vn 0.4828904 -0.8652449 0.1347897
vn 0.4828904 -0.8652449 0.1347897
vn 0.9406582 0 0.3393554
vn 0.9406582 0 0.3393554
vn 0.4577634 0.8652205 0.204563
vn 0.4577634 0.8652205 0.204563
vn -0.4828904 0.8652449 -0.1347897
vn -0.4828904 0.8652449 -0.1347897
vn -0.9406582 0 -0.3393554
vn -0.9375127 0 -0.3479511
vn -0.4369489 -0.8612217 -0.2595626
vn -0.4369489 -0.8612217 -0.2595626
vn 0.5005178 -0.8612038 0.08837343
vn 0.5005178 -0.8612038 0.08837343
vn 0.9375127 0 0.3479511
vn 0.9375127 0 0.3479511
vn 0.4369489 0.8612217 0.2595626
vn 0.4369489 0.8612217 0.2595626
vn -0.5005178 0.8612038 -0.08837343
vn -0.5005178 0.8612038 -0.08837343
vn -0.9375127 0 -0.3479511
vn -0.9330729 0 -0.3596872
vn -0.3906882 -0.8399875 -0.376542
vn -0.3906882 -0.8399875 -0.376542
vn 0.5423287 -0.8399975 -0.01684843
vn 0.5423287 -0.8399975 -0.01684843
vn 0.9330729 0 0.3596872
vn 0.9330729 0 0.3596872
vn 0.3906882 0.8399875 0.376542
vn 0.3906882 0.8399875 0.376542
vn -0.5423287 0.8399975 0.01684843
vn -0.5423287 0.8399975 0.01684843
vn -0.9330729 0 -0.3596872
vn -0.9467829 0 -0.3218728
vn -0.3414188 -0.7629074 -0.5490041
vn -0.3414188 -0.7629074 -0.5490041
vn 0.6053303 -0.7628815 -0.227128
vn 0.6053303 -0.7628815 -0.227128
vn 0.9467829 0 0.3218728
vn 0.9467829 0 0.3218728
vn 0.3414188 0.7629074 0.5490041
vn 0.3414188 0.7629074 0.5490041
vn -0.6053303 0.7628815 0.227128
vn -0.6053303 0.7628815 0.227128
vn -0.9467829 0 -0.3218728
vn -0.9701378 0 -0.2425543
vn -0.3502509 -0.6640223 -0.6606048
vn -0.3502509 -0.6640223 -0.6606048
vn 0.6198785 -0.6639853 -0.4181796
vn 0.6198785 -0.6639853 -0.4181796
vn 0.9701378 0 0.2425543
vn 0.9701378 0 0.2425543
vn 0.3502509 0.6640223 0.6606048
vn 0.3502509 0.6640223 0.6606048
vn -0.6198785 0.6639853 0.4181796
vn -0.6198785 0.6639853 0.4181796
vn -0.9701378 0 -0.2425543
vn -0.9750711 0 -0.2218925
vn -0.3555785 -0.6297331 -0.690652
vn -0.3555785 -0.6297331 -0.690652
vn 0.6194897 -0.629702 -0.46873
vn 0.6194897 -0.629702 -0.46873
vn 0.9750711 0 0.2218925
vn 0.9750711 0 0.2218925
vn 0.3555785 0.6297331 0.690652
vn 0.3555785 0.6297331 0.690652
vn -0.6194897 0.629702 0.46873
vn -0.6194897 0.629702 0.46873
vn -0.9750711 0 -0.2218925
vn -0.963291 0 -0.2684594
vn -0.3280694 -0.6502578 -0.6852264
vn -0.3280694 -0.6502578 -0.6852264
vn 0.6352205 -0.6502407 -0.4167517
vn 0.6352205 -0.6502407 -0.4167517
vn 0.963291 0 0.2684594
vn 0.963291 0 0.2684594
vn 0.3280694 0.6502578 0.6852264
vn 0.3280694 0.6502578 0.6852264
vn -0.6352205 0.6502407 0.4167517
vn -0.6352205 0.6502407 0.4167517
vn -0.963291 0 -0.2684594
vn -0.9334337 0 -0.3587501
vn -0.2904846 -0.713257 -0.637874
vn -0.2904846 -0.713257 -0.637874
vn 0.6429472 -0.7132422 -0.2791138
vn 0.6429472 -0.7132422 -0.2791138
vn 0.9334337 0 0.3587501
vn 0.9334337 0 0.3587501
vn 0.2904846 0.713257 0.637874
vn 0.2904846 0.713257 0.637874
vn -0.6429472 0.7132422 0.2791138
vn -0.6429472 0.7132422 0.2791138
vn -0.9334337 0 -0.3587501
vn -0.8812105 0.003258444 -0.4727128
vn -0.2631979 -0.7765213 -0.5724872
vn -0.2631979 -0.7765213 -0.5724872
vn 0.6180508 -0.7797755 -0.09981635
vn 0.6180508 -0.7797755 -0.09981635
vn 0.8812105 -0.003258444 0.4727128
vn 0.8812105 -0.003258444 0.4727128
vn 0.2631979 0.7765213 0.5724872
vn 0.2631979 0.7765213 0.5724872
vn -0.6180508 0.7797755 0.09981635
vn -0.6180508 0.7797755 0.09981635
vn -0.8812105 0.003258444 -0.4727128
vn -0.8060659 0.01037086 -0.5917349
vn -0.2109147 -0.7929965 -0.5715519
vn -0.2109147 -0.7929965 -0.5715519
vn 0.5950986 -0.803399 0.02018631
vn 0.5950986 -0.803399 0.02018631
vn 0.8060659 -0.01037086 0.5917349
vn 0.8060659 -0.01037086 0.5917349
vn 0.2109147 0.7929965 0.5715519
vn 0.2109147 0.7929965 0.5715519
vn -0.5950986 0.803399 -0.02018631
vn -0.5950986 0.803399 -0.02018631
vn -0.8060659 0.01037086 -0.5917349
vn -0.726624 0.0176828 -0.6868079
vn -0.138602 -0.7866694 -0.6016151
vn -0.138602 -0.7866694 -0.6016151
vn 0.5880021 -0.8043604 0.08519235
vn 0.5880021 -0.8043604 0.08519235
vn 0.726624 -0.0176828 0.6868079
vn 0.726624 -0.0176828 0.6868079
vn 0.138602 0.7866694 0.6016151
vn 0.138602 0.7866694 0.6016151
vn -0.5880021 0.8043604 -0.08519235
vn -0.5880021 0.8043604 -0.08519235
vn -0.726624 0.0176828 -0.6868079
vn -0.6627628 0.02447613 -0.7484292
vn -0.1059405 -0.7928053 -0.600197
vn -0.1059405 -0.7928053 -0.600197
vn 0.5568601 -0.8172898 0.1481358
vn 0.5568601 -0.8172898 0.1481358
vn 0.6627628 -0.02447613 0.7484292
vn 0.6627628 -0.02447613 0.7484292
vn 0.1059405 0.7928053 0.600197
vn 0.1059405 0.7928053 0.600197
vn -0.5568601 0.8172898 -0.1481358
vn -0.5568601 0.8172898 -0.1481358
vn -0.6627628 0.02447613 -0.7484292
vn -0.6097127 0.03083531 -0.7920225
vn -0.1218365 -0.8131176 -0.5692062
vn -0.1218365 -0.8131176 -0.5692062
vn 0.487877 -0.8439898 0.2228387
vn 0.487877 -0.8439898 0.2228387
vn 0.6097127 -0.03083531 0.7920225
vn 0.6097127 -0.03083531 0.7920225
vn 0.1218365 0.8131176 0.5692062
vn 0.1218365 0.8131176 0.5692062
vn -0.487877 0.8439898 -0.2228387
vn -0.487877 0.8439898 -0.2228387
vn -0.6097127 0.03083531 -0.7920225
vn -0.5591681 0.03623943 -0.8282619
vn -0.2276146 -0.8433024 -0.4868599
vn -0.2276146 -0.8433024 -0.4868599
vn 0.3315503 -0.8794983 0.3414046
vn 0.3315503 -0.8794983 0.3414046
vn 0.5591681 -0.03623943 0.8282619
vn 0.5591681 -0.03623943 0.8282619
vn 0.2276146 0.8433024 0.4868599
vn 0.2276146 0.8433024 0.4868599
vn -0.3315503 0.8794983 -0.3414046
vn -0.3315503 0.8794983 -0.3414046
vn -0.5591681 0.03623943 -0.8282619
vn -0.5163999 0.03981477 -0.8554215
vn -0.2791781 -0.8454017 -0.455363
vn -0.2791781 -0.8454017 -0.455363
vn 0.2372272 -0.8852509 0.4000676
vn 0.2372272 -0.8852509 0.4000676
vn 0.5163999 -0.03981477 0.8554215
vn 0.5163999 -0.03981477 0.8554215
vn 0.2791781 0.8454017 0.455363
vn 0.2791781 0.8454017 0.455363
vn -0.2372272 0.8852509 -0.4000676
vn -0.2372272 0.8852509 -0.4000676
vn -0.5163999 0.03981477 -0.8554215
vn -0.4944542 0.04346938 -0.868116
vn -0.1498835 -0.8331808 -0.5323011
vn -0.1498835 -0.8331808 -0.5323011
vn 0.3445983 -0.8766752 0.3356972
vn 0.3445983 -0.8766752 0.3356972
vn 0.4944542 -0.04346938 0.868116
vn 0.4944542 -0.04346938 0.868116
vn 0.1498835 0.8331808 0.5323011
vn 0.1498835 0.8331808 0.5323011
vn -0.3445983 0.8766752 -0.3356972
vn -0.3445983 0.8766752 -0.3356972
vn -0.4944542 0.04346938 -0.868116
vn -0.4860601 0.04776359 -0.8726192
vn -0.01430524 -0.7934637 -0.6084493
vn -0.01430524 -0.7934637 -0.6084493
vn 0.4717544 -0.8412265 0.2641698
vn 0.4717544 -0.8412265 0.2641698
vn 0.4860601 -0.04776359 0.8726192
vn 0.4860601 -0.04776359 0.8726192
vn 0.01430524 0.7934637 0.6084493
vn 0.01430524 0.7934637 0.6084493
vn -0.4717544 0.8412265 -0.2641698
vn -0.4717544 0.8412265 -0.2641698
vn -0.4860601 0.04776359 -0.8726192
vn -0.4804783 0.05229155 -0.8754463
vn 0.03504695 -0.770556 -0.636408
vn 0.03504695 -0.770556 -0.636408
vn 0.5156245 -0.8227899 0.2390565
vn 0.5156245 -0.8227899 0.2390565
vn 0.4804783 -0.05229155 0.8754463
vn 0.4804783 -0.05229155 0.8754463
vn -0.03504695 0.770556 0.636408
vn -0.03504695 0.770556 0.636408
vn -0.5156245 0.8227899 -0.2390565
vn -0.5156245 0.8227899 -0.2390565
vn -0.4804783 0.05229155 -0.8754463
vn -0.4761799 0.05697947 -0.8774998
vn 0.0124765 -0.7787881 -0.6271629
vn 0.0124765 -0.7787881 -0.6271629
vn 0.4886951 -0.8357649 0.250348
vn 0.4886951 -0.8357649 0.250348
vn 0.4761799 -0.05697947 0.8774998
vn 0.4761799 -0.05697947 0.8774998
vn -0.0124765 0.7787881 0.6271629
vn -0.0124765 0.7787881 0.6271629
vn -0.4886951 0.8357649 -0.250348
vn -0.4886951 0.8357649 -0.250348
vn -0.4761799 0.05697947 -0.8774998
vn -0.4669679 0.06166901 -0.8821212
vn -0.09568454 -0.8139544 -0.5729946
vn -0.09568454 -0.8139544 -0.5729946
vn 0.3712921 -0.8755406 0.3091452
vn 0.3712921 -0.8755406 0.3091452
vn 0.4669679 -0.06166901 0.8821212
vn 0.4669679 -0.06166901 0.8821212
vn 0.09568454 0.8139544 0.5729946
vn 0.09568454 0.8139544 0.5729946
vn -0.3712921 0.8755406 -0.3091452
vn -0.3712921 0.8755406 -0.3091452
vn -0.4669679 0.06166901 -0.8821212
vn -0.443152 0.0670768 -0.8939335
vn -0.2456574 -0.8305144 -0.4998982
vn -0.2456574 -0.8305144 -0.4998982
vn 0.1975637 -0.8976195 0.3940148
vn 0.1975637 -0.8976195 0.3940148
vn 0.443152 -0.0670768 0.8939335
vn 0.443152 -0.0670768 0.8939335
vn 0.2456574 0.8305144 0.4998982
vn 0.2456574 0.8305144 0.4998982
vn -0.1975637 0.8976195 -0.3940148
vn -0.1975637 0.8976195 -0.3940148
vn -0.443152 0.0670768 -0.8939335
vn -0.4159573 0.07287597 -0.9064594
vn -0.3495908 -0.8179107 -0.4569555
vn -0.3495908 -0.8179107 -0.4569555
vn 0.06635992 -0.8908125 0.4494991
vn 0.06635992 -0.8908125 0.4494991
vn 0.4159573 -0.07287597 0.9064594
vn 0.4159573 -0.07287597 0.9064594
vn 0.3495908 0.8179107 0.4569555
vn 0.3495908 0.8179107 0.4569555
vn -0.06635992 0.8908125 -0.4494991
vn -0.06635992 0.8908125 -0.4494991
vn -0.4159573 0.07287597 -0.9064594
vn -0.3992976 0.07772951 -0.9135205
vn -0.4031702 -0.8026847 -0.4394897
vn -0.4031702 -0.8026847 -0.4394897
vn -0.003894045 -0.8804517 0.4741199
vn -0.003894045 -0.8804517 0.4741199
vn 0.3992976 -0.07772951 0.9135205
vn 0.3992976 -0.07772951 0.9135205
vn 0.4031702 0.8026847 0.4394897
vn 0.4031702 0.8026847 0.4394897
vn 0.003894045 0.8804517 -0.4741199
vn 0.003894045 0.8804517 -0.4741199
vn -0.3992976 0.07772951 -0.9135205
vn -0.3881536 0.08209718 -0.9179308
vn -0.4350601 -0.7903247 -0.4314041
vn -0.4350601 -0.7903247 -0.4314041
vn -0.04688695 -0.8724151 0.4865116
vn -0.04688695 -0.8724151 0.4865116
vn 0.3881536 -0.08209718 0.9179308
vn 0.3881536 -0.08209718 0.9179308
vn 0.4350601 0.7903247 0.4314041
vn 0.4350601 0.7903247 0.4314041
vn 0.04688695 0.8724151 -0.4865116
vn 0.04688695 0.8724151 -0.4865116
vn -0.3881536 0.08209718 -0.9179308
vn -0.380179 0.08622371 -0.9208851
vn -0.4555596 -0.7806187 -0.4279018
vn -0.4555596 -0.7806187 -0.4279018
vn -0.07534111 -0.8668201 0.4928961
vn -0.07534111 -0.8668201 0.4928961
vn 0.380179 -0.08622371 0.9208851
vn 0.380179 -0.08622371 0.9208851
vn 0.4555596 0.7806187 0.4279018
vn 0.4555596 0.7806187 0.4279018
vn 0.07534111 0.8668201 -0.4928961
vn 0.07534111 0.8668201 -0.4928961
vn -0.380179 0.08622371 -0.9208851
vn -0.3768658 0.08821616 -0.9220575
vn -0.4635543 -0.7763521 -0.4270771
vn -0.4635543 -0.7763521 -0.4270771
vn -0.08670455 -0.8645819 0.494955
vn -0.08670455 -0.8645819 0.494955
vn 0.3768658 -0.08821616 0.9220575
vn 0.3768658 -0.08821616 0.9220575
vn 0.4635543 0.7763521 0.4270771
vn 0.4635543 0.7763521 0.4270771
vn 0.08670455 0.8645819 -0.494955
vn 0.08670455 0.8645819 -0.494955
vn -0.3768658 0.08821616 -0.9220575

vt 1 0
vt 0.8333333 0
vt 1 0.03571429
vt 0.8333333 0.03571429
vt 0.8333333 0
vt 0.6666666 0
vt 0.8333333 0.03571429
vt 0.6666666 0.03571429
vt 0.6666666 0
vt 0.5 0
vt 0.6666666 0.03571429
vt 0.5 0.03571429
vt 0.5 0
vt 0.3333333 0
vt 0.5 0.03571429
vt 0.3333333 0.03571429
vt 0.3333333 0
vt 0.1666667 0
vt 0.3333333 0.03571429
vt 0.1666667 0.03571429
vt 0.1666667 0
vt 0 0
vt 0.1666667 0.03571429
vt 0 0.03571429
vt 1 0.07142857
vt 0.8333333 0.07142857
vt 0.8333333 0.07142857
vt 0.6666666 0.07142857
vt 0.6666666 0.07142857
vt 0.5 0.07142857
vt 0.5 0.07142857
vt 0.3333333 0.07142857
vt 0.3333333 0.07142857
vt 0.1666667 0.07142857
vt 0.1666667 0.07142857
vt 0 0.07142857
vt 1 0.1071429
vt 0.8333333 0.1071429
vt 0.8333333 0.1071429
vt 0.6666666 0.1071429
vt 0.6666666 0.1071429
vt 0.5 0.1071429
vt 0.5 0.1071429
vt 0.3333333 0.1071429
vt 0.3333333 0.1071429
vt 0.1666667 0.1071429
vt 0.1666667 0.1071429
vt 0 0.1071429
vt 1 0.1428571
vt 0.8333333 0.1428571
vt 0.8333333 0.1428571
vt 0.6666666 0.1428571
vt 0.6666666 0.1428571
vt 0.5 0.1428571
vt 0.5 0.1428571
vt 0.3333333 0.1428571
vt 0.3333333 0.1428571
vt 0.1666667 0.1428571
vt 0.1666667 0.1428571
vt 0 0.1428571
vt 1 0.1785714
vt 0.8333333 0.1785714
vt 0.8333333 0.1785714
vt 0.6666666 0.1785714
vt 0.6666666 0.1785714
vt 0.5 0.1785714
vt 0.5 0.1785714
vt 0.3333333 0.1785714
vt 0.3333333 0.1785714
vt 0.1666667 0.1785714
vt 0.1666667 0.1785714
vt 0 0.1785714
vt 1 0.2142857
vt 0.8333333 0.2142857
vt 0.8333333 0.2142857
vt 0.6666666 0.2142857
vt 0.6666666 0.2142857
vt 0.5 0.2142857
vt 0.5 0.2142857
vt 0.3333333 0.2142857
vt 0.3333333 0.2142857
vt 0.1666667 0.2142857
vt 0.1666667 0.2142857
vt 0 0.2142857
vt 1 0.25
vt 0.8333333 0.25
vt 0.8333333 0.25
vt 0.6666666 0.25
vt 0.6666666 0.25
vt 0.5 0.25
vt 0.5 0.25
vt 0.3333333 0.25
vt 0.3333333 0.25
vt 0.1666667 0.25
vt 0.1666667 0.25
vt 0 0.25
vt 1 0.2857143
vt 0.8333333 0.2857143
vt 0.8333333 0.2857143
vt 0.6666666 0.2857143
vt 0.6666666 0.2857143
vt 0.5 0.2857143
vt 0.5 0.2857143
vt 0.3333333 0.2857143
vt 0.3333333 0.2857143
vt 0.1666667 0.2857143
vt 0.1666667 0.2857143
vt 0 0.2857143
vt 1 0.3214286
vt 0.8333333 0.3214286
vt 0.8333333 0.3214286
vt 0.6666666 0.3214286
vt 0.6666666 0.3214286
vt 0.5 0.3214286
vt 0.5 0.3214286
vt 0.3333333 0.3214286
vt 0.3333333 0.3214286
vt 0.1666667 0.3214286
vt 0.1666667 0.3214286
vt 0 0.3214286
vt 1 0.3571429
vt 0.8333333 0.3571429
vt 0.8333333 0.3571429
vt 0.6666666 0.3571429
vt 0.6666666 0.3571429
vt 0.5 0.3571429
vt 0.5 0.3571429
vt 0.3333333 0.3571429
vt 0.3333333 0.3571429
vt 0.1666667 0.3571429
vt 0.1666667 0.3571429
vt 0 0.3571429
vt 1 0.3928571
vt 0.8333333 0.3928571
vt 0.8333333 0.3928571
vt 0.6666666 0.3928571
vt 0.6666666 0.3928571
vt 0.5 0.3928571
vt 0.5 0.3928571
vt 0.3333333 0.3928571
vt 0.3333333 0.3928571
vt 0.1666667 0.3928571
vt 0.1666667 0.3928571
vt 0 0.3928571
vt 1 0.4285714
vt 0.8333333 0.4285714
vt 0.8333333 0.4285714
vt 0.6666666 0.4285714
vt 0.6666666 0.4285714
vt 0.5 0.4285714
vt 0.5 0.4285714
vt 0.3333333 0.4285714
vt 0.3333333 0.4285714
vt 0.1666667 0.4285714
vt 0.1666667 0.4285714
vt 0 0.4285714
vt 1 0.4642857
vt 0.8333333 0.4642857
vt 0.8333333 0.4642857
vt 0.6666666 0.4642857
vt 0.6666666 0.4642857
vt 0.5 0.4642857
vt 0.5 0.4642857
vt 0.3333333 0.4642857
vt 0.3333333 0.4642857
vt 0.1666667 0.4642857
vt 0.1666667 0.4642857
vt 0 0.4642857
vt 1 0.5
vt 0.8333333 0.5
vt 0.8333333 0.5
vt 0.6666666 0.5
vt 0.6666666 0.5
vt 0.5 0.5
vt 0.5 0.5
vt 0.3333333 0.5
vt 0.3333333 0.5
vt 0.1666667 0.5
vt 0.1666667 0.5
vt 0 0.5
vt 1 0.5357143
vt 0.8333333 0.5357143
vt 0.8333333 0.5357143
vt 0.6666666 0.5357143
vt 0.6666666 0.5357143
vt 0.5 0.5357143
vt 0.5 0.5357143
vt 0.3333333 0.5357143
vt 0.3333333 0.5357143
vt 0.1666667 0.5357143
vt 0.1666667 0.5357143
vt 0 0.5357143
vt 1 0.5714286
vt 0.8333333 0.5714286
vt 0.8333333 0.5714286
vt 0.6666666 0.5714286
vt 0.6666666 0.5714286
vt 0.5 0.5714286
vt 0.5 0.5714286
vt 0.3333333 0.5714286
vt 0.3333333 0.5714286
vt 0.1666667 0.5714286
vt 0.1666667 0.5714286
vt 0 0.5714286
vt 1 0.6071429
vt 0.8333333 0.6071429
vt 0.8333333 0.6071429
vt 0.6666666 0.6071429
vt 0.6666666 0.6071429
vt 0.5 0.6071429
vt 0.5 0.6071429
vt 0.3333333 0.6071429
vt 0.3333333 0.6071429
vt 0.1666667 0.6071429
vt 0.1666667 0.6071429
vt 0 0.6071429
vt 1 0.6428571
vt 0.8333333 0.6428571
vt 0.8333333 0.6428571
vt 0.6666666 0.6428571
vt 0.6666666 0.6428571
vt 0.5 0.6428571
vt 0.5 0.6428571
vt 0.3333333 0.6428571
vt 0.3333333 0.6428571
vt 0.1666667 0.6428571
vt 0.1666667 0.6428571
vt 0 0.6428571
vt 1 0.6785714
vt 0.8333333 0.6785714
vt 0.8333333 0.6785714
vt 0.6666666 0.6785714
vt 0.6666666 0.6785714
vt 0.5 0.6785714
vt 0.5 0.6785714
vt 0.3333333 0.6785714
vt 0.3333333 0.6785714
vt 0.1666667 0.6785714
vt 0.1666667 0.6785714
vt 0 0.6785714
vt 1 0.7142857
vt 0.8333333 0.7142857
vt 0.8333333 0.7142857
vt 0.6666666 0.7142857
vt 0.6666666 0.7142857
vt 0.5 0.7142857
vt 0.5 0.7142857
vt 0.3333333 0.7142857
vt 0.3333333 0.7142857
vt 0.1666667 0.7142857
vt 0.1666667 0.7142857
vt 0 0.7142857
vt 1 0.75
vt 0.8333333 0.75
vt 0.8333333 0.75
vt 0.6666666 0.75
vt 0.6666666 0.75
vt 0.5 0.75
vt 0.5 0.75
vt 0.3333333 0.75
vt 0.3333333 0.75
vt 0.1666667 0.75
vt 0.1666667 0.75
vt 0 0.75
vt 1 0.7857143
vt 0.8333333 0.7857143
vt 0.8333333 0.7857143
vt 0.6666666 0.7857143
vt 0.6666666 0.7857143
vt 0.5 0.7857143
vt 0.5 0.7857143
vt 0.3333333 0.7857143
vt 0.3333333 0.7857143
vt 0.1666667 0.7857143
vt 0.1666667 0.7857143
vt 0 0.7857143
vt 1 0.8214286
vt 0.8333333 0.8214286
vt 0.8333333 0.8214286
vt 0.6666666 0.8214286
vt 0.6666666 0.8214286
vt 0.5 0.8214286
vt 0.5 0.8214286
vt 0.3333333 0.8214286
vt 0.3333333 0.8214286
vt 0.1666667 0.8214286
vt 0.1666667 0.8214286
vt 0 0.8214286
vt 1 0.8571429
vt 0.8333333 0.8571429
vt 0.8333333 0.8571429
vt 0.6666666 0.8571429
vt 0.6666666 0.8571429
vt 0.5 0.8571429
vt 0.5 0.8571429
vt 0.3333333 0.8571429
vt 0.3333333 0.8571429
vt 0.1666667 0.8571429
vt 0.1666667 0.8571429
vt 0 0.8571429
vt 1 0.8928571
vt 0.8333333 0.8928571
vt 0.8333333 0.8928571
vt 0.6666666 0.8928571
vt 0.6666666 0.8928571
vt 0.5 0.8928571
vt 0.5 0.8928571
vt 0.3333333 0.8928571
vt 0.3333333 0.8928571
vt 0.1666667 0.8928571
vt 0.1666667 0.8928571
vt 0 0.8928571
vt 1 0.9285714
vt 0.8333333 0.9285714
vt 0.8333333 0.9285714
vt 0.6666666 0.9285714
vt 0.6666666 0.9285714
vt 0.5 0.9285714
vt 0.5 0.9285714
vt 0.3333333 0.9285714
vt 0.3333333 0.9285714
vt 0.1666667 0.9285714
vt 0.1666667 0.9285714
vt 0 0.9285714
vt 1 0.9642857
vt 0.8333333 0.9642857
vt 0.8333333 0.9642857
vt 0.6666666 0.9642857
vt 0.6666666 0.9642857
vt 0.5 0.9642857
vt 0.5 0.9642857
vt 0.3333333 0.9642857
vt 0.3333333 0.9642857
vt 0.1666667 0.9642857
vt 0.1666667 0.9642857
vt 0 0.9642857
vt 1 1
vt 0.8333333 1
vt 0.8333333 1
vt 0.6666666 1
vt 0.6666666 1
vt 0.5 1
vt 0.5 1
vt 0.3333333 1
vt 0.3333333 1
vt 0.1666667 1
vt 0.1666667 1
vt 0 1

vt2 0.004153346 0.4712932
vt2 0.00390625 0.4693415
vt2 0.01665582 0.4697102
vt2 0.01642224 0.4677567
vt2 0.00390625 0.3083918
vt2 0.004510936 0.3065197
vt2 0.01591141 0.3122689
vt2 0.01651388 0.3103961
vt2 0.00390625 0.08119006
vt2 0.004766073 0.07942054
vt2 0.01525132 0.08670282
vt2 0.01609678 0.08492643
vt2 0.9362826 0.6009048
vt2 0.9360351 0.6028565
vt2 0.9237851 0.5993198
vt2 0.9235511 0.6012731
vt2 0.9489307 0.1552251
vt2 0.9495369 0.1570967
vt2 0.9369587 0.1591019
vt2 0.9375627 0.1609742
vt2 0.9778302 0.00390625
vt2 0.9786894 0.005676103
vt2 0.9665075 0.009402673
vt2 0.9673523 0.01117939
vt2 0.04879903 0.4660897
vt2 0.04860005 0.4641324
vt2 0.04674978 0.3221444
vt2 0.04734593 0.3202695
vt2 0.04459629 0.1003771
vt2 0.04540416 0.09858328
vt2 0.8916559 0.5956942
vt2 0.8914565 0.5976515
vt2 0.9062066 0.1689762
vt2 0.9068043 0.1708506
vt2 0.9372202 0.02303597
vt2 0.9380273 0.02483011
vt2 0.09254301 0.4621212
vt2 0.09239968 0.4601592
vt2 0.08868714 0.3353905
vt2 0.08927375 0.3335128
vt2 0.08491487 0.1179195
vt2 0.08566225 0.1160997
vt2 0.8479324 0.5917195
vt2 0.8477886 0.5936815
vt2 0.8644051 0.1822161
vt2 0.8649932 0.1840934
vt2 0.8969973 0.04051861
vt2 0.8977439 0.04233873
vt2 0.1398823 0.4594926
vt2 0.1398369 0.4575258
vt2 0.1340821 0.349409
vt2 0.1346515 0.3475261
vt2 0.1292113 0.1350467
vt2 0.1298502 0.133186
vt2 0.8006292 0.5890856
vt2 0.8005834 0.5910525
vt2 0.8192431 0.1962043
vt2 0.819814 0.1980868
vt2 0.8528782 0.05756151
vt2 0.8535163 0.05942242
vt2 0.1828795 0.4598876
vt2 0.1830605 0.4579286
vt2 0.1755318 0.3616699
vt2 0.1760778 0.35978
vt2 0.1705812 0.1474906
vt2 0.1709781 0.1455637
vt2 0.7576808 0.5894777
vt2 0.7578614 0.5914368
vt2 0.7782858 0.2083621
vt2 0.7788332 0.2102517
vt2 0.8119425 0.06987665
vt2 0.8123386 0.07180374
vt2 0.2153875 0.4656549
vt2 0.2160151 0.4637904
vt2 0.207739 0.3707834
vt2 0.2083561 0.3689154
vt2 0.2039084 0.1513188
vt2 0.2039255 0.1493516
vt2 0.7250174 0.5952211
vt2 0.7256446 0.5970858
vt2 0.7468019 0.2172276
vt2 0.7474205 0.219095
vt2 0.7795159 0.07354707
vt2 0.7795322 0.07551429
vt2 0.2476342 0.4823082
vt2 0.248637 0.4806158
vt2 0.242021 0.3838998
vt2 0.2427609 0.382077
vt2 0.2405825 0.1478649
vt2 0.2403178 0.1459153
vt2 0.6924586 0.6118382
vt2 0.6934612 0.6135308
vt2 0.7130039 0.2300308
vt2 0.7137452 0.231853
vt2 0.7436824 0.06997571
vt2 0.7434168 0.07192516
vt2 0.2833031 0.5065129
vt2 0.2844049 0.5048831
vt2 0.2816954 0.4010523
vt2 0.2824632 0.399241
vt2 0.2831916 0.1404252
vt2 0.2828415 0.1384894
vt2 0.6567063 0.6360288
vt2 0.6578079 0.6376587
vt2 0.6734834 0.2471028
vt2 0.6742526 0.2489135
vt2 0.7013155 0.06250869
vt2 0.7009646 0.06444434
vt2 0.3227424 0.5330439
vt2 0.3237645 0.5313629
vt2 0.3255149 0.4192232
vt2 0.3262192 0.4173862
vt2 0.3297466 0.1316802
vt2 0.3294224 0.1297398
vt2 0.6174392 0.6625702
vt2 0.6184609 0.6642514
vt2 0.6296713 0.2654288
vt2 0.6303769 0.2672652
vt2 0.6545569 0.05382146
vt2 0.6542318 0.0557617
vt2 0.3662587 0.5566507
vt2 0.3670366 0.5548437
vt2 0.3719967 0.4354479
vt2 0.3725636 0.4335641
vt2 0.3782913 0.1244024
vt2 0.3780956 0.122445
vt2 0.5742729 0.6862132
vt2 0.5750504 0.6880203
vt2 0.5830231 0.2819631
vt2 0.5835915 0.2838465
vt2 0.605441 0.04665067
vt2 0.6052445 0.04860806
vt2 0.4141624 0.5720908
vt2 0.4145961 0.5701719
vt2 0.4204771 0.4475526
vt2 0.4208333 0.4456177
vt2 0.4279687 0.1216804
vt2 0.4279176 0.1197138
vt2 0.5268432 0.7017083
vt2 0.5272765 0.7036273
vt2 0.534321 0.2943741
vt2 0.5346785 0.2963088
vt2 0.5550314 0.04407024
vt2 0.5549794 0.04603689
vt2 0.4665542 0.5788925
vt2 0.4667662 0.5769365
vt2 0.472733 0.4536196
vt2 0.4728287 0.4516546
vt2 0.4803134 0.121648
vt2 0.4802252 0.1196826
vt2 0.4749904 0.7085901
vt2 0.475202 0.7105461
vt2 0.4821648 0.3006486
vt2 0.482262 0.3026135
vt2 0.5022371 0.04417847
vt2 0.502148 0.04614386
vt2 0.5217978 0.5835377
vt2 0.5219122 0.5815737
vt2 0.5280612 0.4524559
vt2 0.5279277 0.4504931
vt2 0.535192 0.1165883
vt2 0.5349728 0.1146332
vt2 0.420215 0.7133294
vt2 0.4203289 0.7152935
vt2 0.4270955 0.2996728
vt2 0.4269635 0.3016357
vt2 0.4471525 0.03922409
vt2 0.4469325 0.04117909
vt2 0.5762392 0.5851794
vt2 0.5762243 0.5832121
vt2 0.5820272 0.4461203
vt2 0.5817291 0.4441758
vt2 0.5888804 0.1093735
vt2 0.5886245 0.1074227
vt2 0.366108 0.715046
vt2 0.3660927 0.7170132
vt2 0.3731867 0.2934797
vt2 0.3728901 0.2954244
vt2 0.3931984 0.03204957
vt2 0.3929417 0.03400027
vt2 0.6255872 0.5828745
vt2 0.625369 0.5809194
vt2 0.6303498 0.4368784
vt2 0.6299226 0.434958
vt2 0.6375418 0.1030786
vt2 0.6373583 0.1011198
vt2 0.3170197 0.7128048
vt2 0.3168012 0.7147598
vt2 0.3247041 0.2843041
vt2 0.3242783 0.2862248
vt2 0.3441269 0.02574537
vt2 0.3439426 0.02770408
vt2 0.665282 0.5757926
vt2 0.6646807 0.5739193
vt2 0.6690416 0.4270112
vt2 0.6684967 0.4251209
vt2 0.6772799 0.1007078
vt2 0.6773664 0.09874245
vt2 0.2775599 0.7057892
vt2 0.2769583 0.7076623
vt2 0.2854757 0.2743558
vt2 0.2849323 0.2762466
vt2 0.3036054 0.02336151
vt2 0.3036911 0.02532691
vt2 0.691263 0.5634128
vt2 0.6904577 0.5616179
vt2 0.6962258 0.4182487
vt2 0.6955862 0.4163882
vt2 0.7054327 0.1048946
vt2 0.7056378 0.1029379
vt2 0.2517691 0.6934721
vt2 0.2509635 0.6952669
vt2 0.2580601 0.2655381
vt2 0.2574219 0.2673991
vt2 0.2750146 0.02756444
vt2 0.275219 0.02952118
vt2 0.7147662 0.5535222
vt2 0.7141919 0.5516406
vt2 0.7204092 0.4094162
vt2 0.7197227 0.4075727
vt2 0.7310796 0.1064816
vt2 0.7309879 0.1045162
vt2 0.2283639 0.683607
vt2 0.2277892 0.6854886
vt2 0.2344307 0.256918
vt2 0.2337455 0.258762
vt2 0.2498601 0.02912064
vt2 0.2497676 0.03108597
vt2 0.7414846 0.5482776
vt2 0.7411985 0.5463312
vt2 0.7461436 0.3996541
vt2 0.7454379 0.3978178
vt2 0.7582546 0.1022468
vt2 0.75785 0.1003215
vt2 0.2016874 0.6783605
vt2 0.2014009 0.6803068
vt2 0.209282 0.2473924
vt2 0.2085776 0.2492293
vt2 0.2232733 0.02494361
vt2 0.2228678 0.02686867
vt2 0.7697857 0.5454994
vt2 0.7696044 0.5435405
vt2 0.7727444 0.3893053
vt2 0.772025 0.3874741
vt2 0.7858296 0.09493393
vt2 0.7853078 0.09303717
vt2 0.1734169 0.6755739
vt2 0.1732351 0.6775328
vt2 0.1829004 0.2371442
vt2 0.1821824 0.2389759
vt2 0.1959085 0.01766295
vt2 0.1953859 0.0195595
vt2 0.7977108 0.5430832
vt2 0.7974673 0.541131
vt2 0.7987432 0.3789992
vt2 0.7980124 0.3771726
vt2 0.8127168 0.08728297
vt2 0.8122438 0.08537336
vt2 0.1455173 0.6731462
vt2 0.1452734 0.6750984
vt2 0.1568038 0.2268124
vt2 0.1560743 0.2286396
vt2 0.1689057 0.009960479
vt2 0.1684319 0.01186987
vt2 0.8232491 0.5389202
vt2 0.8227406 0.5370195
vt2 0.8224886 0.3694179
vt2 0.8217372 0.3675997
vt2 0.8377466 0.08198934
vt2 0.8375173 0.08003554
vt2 0.1200242 0.6689817
vt2 0.1195154 0.6708822
vt2 0.1325943 0.2170584
vt2 0.1318442 0.2188771
vt2 0.1433483 0.004554681
vt2 0.1431182 0.006508385
vt2 0.8462257 0.5302466
vt2 0.8453588 0.5284806
vt2 0.8447575 0.3600057
vt2 0.8439574 0.3582084
vt2 0.8618622 0.08138533
vt2 0.8619624 0.07942054
vt2 0.09715176 0.6603334
vt2 0.09628457 0.6620991
vt2 0.1097157 0.2073951
vt2 0.108917 0.209193
vt2 0.118468 0.00390625
vt2 0.1185674 0.005871072
vt2 0.8712393 0.5148803
vt2 0.8701306 0.5132552
vt2 0.8711 0.3476957
vt2 0.8702476 0.3459226
vt2 0.8906438 0.08508995
vt2 0.8909652 0.08314901
vt2 0.07225461 0.6449974
vt2 0.07114559 0.6466223
vt2 0.08297227 0.1948939
vt2 0.08212119 0.1966676
vt2 0.08912462 0.007631787
vt2 0.08944523 0.009572854
vt2 0.8960187 0.4962141
vt2 0.894792 0.4946764
vt2 0.8987913 0.3340366
vt2 0.8979091 0.332278
vt2 0.9208638 0.09125977
vt2 0.921297 0.08934078
vt2 0.04754831 0.6263439
vt2 0.0463213 0.6278814
vt2 0.05507902 0.1811307
vt2 0.05419815 0.18289
vt2 0.05860799 0.01381804
vt2 0.05904038 0.01573721
vt2 0.9175189 0.4780948
vt2 0.9162242 0.4766136
vt2 0.9237707 0.3213226
vt2 0.9228703 0.3195734
vt2 0.948046 0.09801153
vt2 0.9485449 0.09610854
vt2 0.02609901 0.6082283
vt2 0.02480404 0.6097093
vt2 0.02998052 0.1683528
vt2 0.02908141 0.1701026
vt2 0.0312455 0.02057627
vt2 0.03174363 0.02247947
vt2 0.9326748 0.4643846
vt2 0.9313375 0.4629415
vt2 0.9418565 0.3119285
vt2 0.9409441 0.3101858
vt2 0.9676723 0.1034513
vt2 0.968213 0.1015597
vt2 0.0109807 0.5945175
vt2 0.009643164 0.5959604
vt2 0.01182082 0.1589133
vt2 0.01090971 0.1606567
vt2 0.01150111 0.02601696
vt2 0.01204106 0.02790877
vt2 0.9384114 0.4589536
vt2 0.9370579 0.4575258
vt2 0.9488274 0.30826
vt2 0.94791 0.3065197
vt2 0.9752203 0.1056854
vt2 0.9757774 0.1037986
vt2 0.005259926 0.5890856
vt2 0.00390625 0.5905132
vt2 0.00482227 0.1552251
vt2 0.00390625 0.156966
vt2 0.00390625 0.02825054
vt2 0.004462531 0.03013762


vc 1 1 1 1
vc 1 1 1 1
vc 1 1 1 1
vc 1 1 1 1
vc 1 1 1 1
vc 1 1 1 1
vc 1 1 1 1
vc 1 1 1 1
vc 1 1 1 1
vc 1 1 1 1
vc 1 1 1 1
vc 1 1 1 1
vc 1 1 1 1
vc 1 1 1 1
vc 1 1 1 1
vc 1 1 1 1
vc 1 1 1 1
vc 1 1 1 1
vc 1 1 1 1
vc 1 1 1 1
vc 1 1 1 1
vc 1 1 1 1
vc 1 1 1 1
vc 1 1 1 1
vc 1 1 1 1
vc 1 1 1 1
vc 1 1 1 1
vc 1 1 1 1
vc 1 1 1 1
vc 1 1 1 1
vc 1 1 1 1
vc 1 1 1 1
vc 1 1 1 1
vc 1 1 1 1
vc 1 1 1 1
vc 1 1 1 1
vc 1 1 1 1
vc 1 1 1 1
vc 1 1 1 1
vc 1 1 1 1
vc 1 1 1 1
vc 1 1 1 1
vc 1 1 1 1
vc 1 1 1 1
vc 1 1 1 1
vc 1 1 1 1
vc 1 1 1 1
vc 1 1 1 1
vc 1 1 1 1
vc 1 1 1 1
vc 1 1 1 1
vc 1 1 1 1
vc 1 1 1 1
vc 1 1 1 1
vc 1 1 1 1
vc 1 1 1 1
vc 1 1 1 1
vc 1 1 1 1
vc 1 1 1 1
vc 1 1 1 1
vc 1 1 1 1
vc 1 1 1 1
vc 1 1 1 1
vc 1 1 1 1
vc 1 1 1 1
vc 1 1 1 1
vc 1 1 1 1
vc 1 1 1 1
vc 1 1 1 1
vc 1 1 1 1
vc 1 1 1 1
vc 1 1 1 1
vc 1 1 1 1
vc 1 1 1 1
vc 1 1 1 1
vc 1 1 1 1
vc 1 1 1 1
vc 1 1 1 1
vc 1 1 1 1
vc 1 1 1 1
vc 1 1 1 1
vc 1 1 1 1
vc 1 1 1 1
vc 1 1 1 1
vc 1 1 1 1
vc 1 1 1 1
vc 1 1 1 1
vc 1 1 1 1
vc 1 1 1 1
vc 1 1 1 1
vc 1 1 1 1
vc 1 1 1 1
vc 1 1 1 1
vc 1 1 1 1
vc 1 1 1 1
vc 1 1 1 1
vc 1 1 1 1
vc 1 1 1 1
vc 1 1 1 1
vc 1 1 1 1
vc 1 1 1 1
vc 1 1 1 1
vc 1 1 1 1
vc 1 1 1 1
vc 1 1 1 1
vc 1 1 1 1
vc 1 1 1 1
vc 1 1 1 1
vc 1 1 1 1
vc 1 1 1 1
vc 1 1 1 1
vc 1 1 1 1
vc 1 1 1 1
vc 1 1 1 1
vc 1 1 1 1
vc 1 1 1 1
vc 1 1 1 1
vc 1 1 1 1
vc 1 1 1 1
vc 1 1 1 1
vc 1 1 1 1
vc 1 1 1 1
vc 1 1 1 1
vc 1 1 1 1
vc 1 1 1 1
vc 1 1 1 1
vc 1 1 1 1
vc 1 1 1 1
vc 1 1 1 1
vc 1 1 1 1
vc 1 1 1 1
vc 1 1 1 1
vc 1 1 1 1
vc 1 1 1 1
vc 1 1 1 1
vc 1 1 1 1
vc 1 1 1 1
vc 1 1 1 1
vc 1 1 1 1
vc 1 1 1 1
vc 1 1 1 1
vc 1 1 1 1
vc 1 1 1 1
vc 1 1 1 1
vc 1 1 1 1
vc 1 1 1 1
vc 1 1 1 1
vc 1 1 1 1
vc 1 1 1 1
vc 1 1 1 1
vc 1 1 1 1
vc 1 1 1 1
vc 1 1 1 1
vc 1 1 1 1
vc 1 1 1 1
vc 1 1 1 1
vc 1 1 1 1
vc 1 1 1 1
vc 1 1 1 1
vc 1 1 1 1
vc 1 1 1 1
vc 1 1 1 1
vc 1 1 1 1
vc 1 1 1 1
vc 1 1 1 1
vc 1 1 1 1
vc 1 1 1 1
vc 1 1 1 1
vc 1 1 1 1
vc 1 1 1 1
vc 1 1 1 1
vc 1 1 1 1
vc 1 1 1 1
vc 1 1 1 1
vc 1 1 1 1
vc 1 1 1 1
vc 1 1 1 1
vc 1 1 1 1
vc 1 1 1 1
vc 1 1 1 1
vc 1 1 1 1
vc 1 1 1 1
vc 1 1 1 1
vc 1 1 1 1
vc 1 1 1 1
vc 1 1 1 1
vc 1 1 1 1
vc 1 1 1 1
vc 1 1 1 1
vc 1 1 1 1
vc 1 1 1 1
vc 1 1 1 1
vc 1 1 1 1
vc 1 1 1 1
vc 1 1 1 1
vc 1 1 1 1
vc 1 1 1 1
vc 1 1 1 1
vc 1 1 1 1
vc 1 1 1 1
vc 1 1 1 1
vc 1 1 1 1
vc 1 1 1 1
vc 1 1 1 1
vc 1 1 1 1
vc 1 1 1 1
vc 1 1 1 1
vc 1 1 1 1
vc 1 1 1 1
vc 1 1 1 1
vc 1 1 1 1
vc 1 1 1 1
vc 1 1 1 1
vc 1 1 1 1
vc 1 1 1 1
vc 1 1 1 1
vc 1 1 1 1
vc 1 1 1 1
vc 1 1 1 1
vc 1 1 1 1
vc 1 1 1 1
vc 1 1 1 1
vc 1 1 1 1
vc 1 1 1 1
vc 1 1 1 1
vc 1 1 1 1
vc 1 1 1 1
vc 1 1 1 1
vc 1 1 1 1
vc 1 1 1 1
vc 1 1 1 1
vc 1 1 1 1
vc 1 1 1 1
vc 1 1 1 1
vc 1 1 1 1
vc 1 1 1 1
vc 1 1 1 1
vc 1 1 1 1
vc 1 1 1 1
vc 1 1 1 1
vc 1 1 1 1
vc 1 1 1 1
vc 1 1 1 1
vc 1 1 1 1
vc 1 1 1 1
vc 1 1 1 1
vc 1 1 1 1
vc 1 1 1 1
vc 1 1 1 1
vc 1 1 1 1
vc 1 1 1 1
vc 1 1 1 1
vc 1 1 1 1
vc 1 1 1 1
vc 1 1 1 1
vc 1 1 1 1
vc 1 1 1 1
vc 1 1 1 1
vc 1 1 1 1
vc 1 1 1 1
vc 1 1 1 1
vc 1 1 1 1
vc 1 1 1 1
vc 1 1 1 1
vc 1 1 1 1
vc 1 1 1 1
vc 1 1 1 1
vc 1 1 1 1
vc 1 1 1 1
vc 1 1 1 1
vc 1 1 1 1
vc 1 1 1 1
vc 1 1 1 1
vc 1 1 1 1
vc 1 1 1 1
vc 1 1 1 1
vc 1 1 1 1
vc 1 1 1 1
vc 1 1 1 1
vc 1 1 1 1
vc 1 1 1 1
vc 1 1 1 1
vc 1 1 1 1
vc 1 1 1 1
vc 1 1 1 1
vc 1 1 1 1
vc 1 1 1 1
vc 1 1 1 1
vc 1 1 1 1
vc 1 1 1 1
vc 1 1 1 1
vc 1 1 1 1
vc 1 1 1 1
vc 1 1 1 1
vc 1 1 1 1
vc 1 1 1 1
vc 1 1 1 1
vc 1 1 1 1
vc 1 1 1 1
vc 1 1 1 1
vc 1 1 1 1
vc 1 1 1 1
vc 1 1 1 1
vc 1 1 1 1
vc 1 1 1 1
vc 1 1 1 1
vc 1 1 1 1
vc 1 1 1 1
vc 1 1 1 1
vc 1 1 1 1
vc 1 1 1 1
vc 1 1 1 1
vc 1 1 1 1
vc 1 1 1 1
vc 1 1 1 1
vc 1 1 1 1
vc 1 1 1 1
vc 1 1 1 1
vc 1 1 1 1
vc 1 1 1 1
vc 1 1 1 1
vc 1 1 1 1
vc 1 1 1 1
vc 1 1 1 1
vc 1 1 1 1
vc 1 1 1 1
vc 1 1 1 1
vc 1 1 1 1
vc 1 1 1 1
vc 1 1 1 1
vc 1 1 1 1
vc 1 1 1 1
vc 1 1 1 1
vc 1 1 1 1
vc 1 1 1 1
vc 1 1 1 1
vc 1 1 1 1
vc 1 1 1 1
vc 1 1 1 1
vc 1 1 1 1
vc 1 1 1 1
vc 1 1 1 1
vc 1 1 1 1
vc 1 1 1 1
vc 1 1 1 1
vc 1 1 1 1
vc 1 1 1 1
vc 1 1 1 1

usemtl Default-Diffuse
usemap Default-Diffuse
f 3/3/3 2/2/2 1/1/1
f 3/3/3 4/4/4 2/2/2
f 7/7/7 6/6/6 5/5/5
f 7/7/7 8/8/8 6/6/6
f 11/11/11 10/10/10 9/9/9
f 11/11/11 12/12/12 10/10/10
f 15/15/15 14/14/14 13/13/13
f 15/15/15 16/16/16 14/14/14
f 19/19/19 18/18/18 17/17/17
f 19/19/19 20/20/20 18/18/18
f 23/23/23 22/22/22 21/21/21
f 23/23/23 24/24/24 22/22/22
f 25/25/25 4/4/4 3/3/3
f 25/25/25 26/26/26 4/4/4
f 27/27/27 8/8/8 7/7/7
f 27/27/27 28/28/28 8/8/8
f 29/29/29 12/12/12 11/11/11
f 29/29/29 30/30/30 12/12/12
f 31/31/31 16/16/16 15/15/15
f 31/31/31 32/32/32 16/16/16
f 33/33/33 20/20/20 19/19/19
f 33/33/33 34/34/34 20/20/20
f 35/35/35 24/24/24 23/23/23
f 35/35/35 36/36/36 24/24/24
f 37/37/37 26/26/26 25/25/25
f 37/37/37 38/38/38 26/26/26
f 39/39/39 28/28/28 27/27/27
f 39/39/39 40/40/40 28/28/28
f 41/41/41 30/30/30 29/29/29
f 41/41/41 42/42/42 30/30/30
f 43/43/43 32/32/32 31/31/31
f 43/43/43 44/44/44 32/32/32
f 45/45/45 34/34/34 33/33/33
f 45/45/45 46/46/46 34/34/34
f 47/47/47 36/36/36 35/35/35
f 47/47/47 48/48/48 36/36/36
f 49/49/49 38/38/38 37/37/37
f 49/49/49 50/50/50 38/38/38
f 51/51/51 40/40/40 39/39/39
f 51/51/51 52/52/52 40/40/40
f 53/53/53 42/42/42 41/41/41
f 53/53/53 54/54/54 42/42/42
f 55/55/55 44/44/44 43/43/43
f 55/55/55 56/56/56 44/44/44
f 57/57/57 46/46/46 45/45/45
f 57/57/57 58/58/58 46/46/46
f 59/59/59 48/48/48 47/47/47
f 59/59/59 60/60/60 48/48/48
f 61/61/61 50/50/50 49/49/49
f 61/61/61 62/62/62 50/50/50
f 63/63/63 52/52/52 51/51/51
f 63/63/63 64/64/64 52/52/52
f 65/65/65 54/54/54 53/53/53
f 65/65/65 66/66/66 54/54/54
f 67/67/67 56/56/56 55/55/55
f 67/67/67 68/68/68 56/56/56
f 69/69/69 58/58/58 57/57/57
f 69/69/69 70/70/70 58/58/58
f 71/71/71 60/60/60 59/59/59
f 71/71/71 72/72/72 60/60/60
f 73/73/73 62/62/62 61/61/61
f 73/73/73 74/74/74 62/62/62
f 75/75/75 64/64/64 63/63/63
f 75/75/75 76/76/76 64/64/64
f 77/77/77 66/66/66 65/65/65
f 77/77/77 78/78/78 66/66/66
f 79/79/79 68/68/68 67/67/67
f 79/79/79 80/80/80 68/68/68
f 81/81/81 70/70/70 69/69/69
f 81/81/81 82/82/82 70/70/70
f 83/83/83 72/72/72 71/71/71
f 83/83/83 84/84/84 72/72/72
f 85/85/85 74/74/74 73/73/73
f 85/85/85 86/86/86 74/74/74
f 87/87/87 76/76/76 75/75/75
f 87/87/87 88/88/88 76/76/76
f 89/89/89 78/78/78 77/77/77
f 89/89/89 90/90/90 78/78/78
f 91/91/91 80/80/80 79/79/79
f 91/91/91 92/92/92 80/80/80
f 93/93/93 82/82/82 81/81/81
f 93/93/93 94/94/94 82/82/82
f 95/95/95 84/84/84 83/83/83
f 95/95/95 96/96/96 84/84/84
f 97/97/97 86/86/86 85/85/85
f 97/97/97 98/98/98 86/86/86
f 99/99/99 88/88/88 87/87/87
f 99/99/99 100/100/100 88/88/88
f 101/101/101 90/90/90 89/89/89
f 101/101/101 102/102/102 90/90/90
f 103/103/103 92/92/92 91/91/91
f 103/103/103 104/104/104 92/92/92
f 105/105/105 94/94/94 93/93/93
f 105/105/105 106/106/106 94/94/94
f 107/107/107 96/96/96 95/95/95
f 107/107/107 108/108/108 96/96/96
f 109/109/109 98/98/98 97/97/97
f 109/109/109 110/110/110 98/98/98
f 111/111/111 100/100/100 99/99/99
f 111/111/111 112/112/112 100/100/100
f 113/113/113 102/102/102 101/101/101
f 113/113/113 114/114/114 102/102/102
f 115/115/115 104/104/104 103/103/103
f 115/115/115 116/116/116 104/104/104
f 117/117/117 106/106/106 105/105/105
f 117/117/117 118/118/118 106/106/106
f 119/119/119 108/108/108 107/107/107
f 119/119/119 120/120/120 108/108/108
f 121/121/121 110/110/110 109/109/109
f 121/121/121 122/122/122 110/110/110
f 123/123/123 112/112/112 111/111/111
f 123/123/123 124/124/124 112/112/112
f 125/125/125 114/114/114 113/113/113
f 125/125/125 126/126/126 114/114/114
f 127/127/127 116/116/116 115/115/115
f 127/127/127 128/128/128 116/116/116
f 129/129/129 118/118/118 117/117/117
f 129/129/129 130/130/130 118/118/118
f 131/131/131 120/120/120 119/119/119
f 131/131/131 132/132/132 120/120/120
f 133/133/133 122/122/122 121/121/121
f 133/133/133 134/134/134 122/122/122
f 135/135/135 124/124/124 123/123/123
f 135/135/135 136/136/136 124/124/124
f 137/137/137 126/126/126 125/125/125
f 137/137/137 138/138/138 126/126/126
f 139/139/139 128/128/128 127/127/127
f 139/139/139 140/140/140 128/128/128
f 141/141/141 130/130/130 129/129/129
f 141/141/141 142/142/142 130/130/130
f 143/143/143 132/132/132 131/131/131
f 143/143/143 144/144/144 132/132/132
f 145/145/145 134/134/134 133/133/133
f 145/145/145 146/146/146 134/134/134
f 147/147/147 136/136/136 135/135/135
f 147/147/147 148/148/148 136/136/136
f 149/149/149 138/138/138 137/137/137
f 149/149/149 150/150/150 138/138/138
f 151/151/151 140/140/140 139/139/139
f 151/151/151 152/152/152 140/140/140
f 153/153/153 142/142/142 141/141/141
f 153/153/153 154/154/154 142/142/142
f 155/155/155 144/144/144 143/143/143
f 155/155/155 156/156/156 144/144/144
f 157/157/157 146/146/146 145/145/145
f 157/157/157 158/158/158 146/146/146
f 159/159/159 148/148/148 147/147/147
f 159/159/159 160/160/160 148/148/148
f 161/161/161 150/150/150 149/149/149
f 161/161/161 162/162/162 150/150/150
f 163/163/163 152/152/152 151/151/151
f 163/163/163 164/164/164 152/152/152
f 165/165/165 154/154/154 153/153/153
f 165/165/165 166/166/166 154/154/154
f 167/167/167 156/156/156 155/155/155
f 167/167/167 168/168/168 156/156/156
f 169/169/169 158/158/158 157/157/157
f 169/169/169 170/170/170 158/158/158
f 171/171/171 160/160/160 159/159/159
f 171/171/171 172/172/172 160/160/160
f 173/173/173 162/162/162 161/161/161
f 173/173/173 174/174/174 162/162/162
f 175/175/175 164/164/164 163/163/163
f 175/175/175 176/176/176 164/164/164
f 177/177/177 166/166/166 165/165/165
f 177/177/177 178/178/178 166/166/166
f 179/179/179 168/168/168 167/167/167
f 179/179/179 180/180/180 168/168/168
f 181/181/181 170/170/170 169/169/169
f 181/181/181 182/182/182 170/170/170
f 183/183/183 172/172/172 171/171/171
f 183/183/183 184/184/184 172/172/172
f 185/185/185 174/174/174 173/173/173
f 185/185/185 186/186/186 174/174/174
f 187/187/187 176/176/176 175/175/175
f 187/187/187 188/188/188 176/176/176
f 189/189/189 178/178/178 177/177/177
f 189/189/189 190/190/190 178/178/178
f 191/191/191 180/180/180 179/179/179
f 191/191/191 192/192/192 180/180/180
f 193/193/193 182/182/182 181/181/181
f 193/193/193 194/194/194 182/182/182
f 195/195/195 184/184/184 183/183/183
f 195/195/195 196/196/196 184/184/184
f 197/197/197 186/186/186 185/185/185
f 197/197/197 198/198/198 186/186/186
f 199/199/199 188/188/188 187/187/187
f 199/199/199 200/200/200 188/188/188
f 201/201/201 190/190/190 189/189/189
f 201/201/201 202/202/202 190/190/190
f 203/203/203 192/192/192 191/191/191
f 203/203/203 204/204/204 192/192/192
f 205/205/205 194/194/194 193/193/193
f 205/205/205 206/206/206 194/194/194
f 207/207/207 196/196/196 195/195/195
f 207/207/207 208/208/208 196/196/196
f 209/209/209 198/198/198 197/197/197
f 209/209/209 210/210/210 198/198/198
f 211/211/211 200/200/200 199/199/199
f 211/211/211 212/212/212 200/200/200
f 213/213/213 202/202/202 201/201/201
f 213/213/213 214/214/214 202/202/202
f 215/215/215 204/204/204 203/203/203
f 215/215/215 216/216/216 204/204/204
f 217/217/217 206/206/206 205/205/205
f 217/217/217 218/218/218 206/206/206
f 219/219/219 208/208/208 207/207/207
f 219/219/219 220/220/220 208/208/208
f 221/221/221 210/210/210 209/209/209
f 221/221/221 222/222/222 210/210/210
f 223/223/223 212/212/212 211/211/211
f 223/223/223 224/224/224 212/212/212
f 225/225/225 214/214/214 213/213/213
f 225/225/225 226/226/226 214/214/214
f 227/227/227 216/216/216 215/215/215
f 227/227/227 228/228/228 216/216/216
f 229/229/229 218/218/218 217/217/217
f 229/229/229 230/230/230 218/218/218
f 231/231/231 220/220/220 219/219/219
f 231/231/231 232/232/232 220/220/220
f 233/233/233 222/222/222 221/221/221
f 233/233/233 234/234/234 222/222/222
f 235/235/235 224/224/224 223/223/223
f 235/235/235 236/236/236 224/224/224
f 237/237/237 226/226/226 225/225/225
f 237/237/237 238/238/238 226/226/226
f 239/239/239 228/228/228 227/227/227
f 239/239/239 240/240/240 228/228/228
f 241/241/241 230/230/230 229/229/229
f 241/241/241 242/242/242 230/230/230
f 243/243/243 232/232/232 231/231/231
f 243/243/243 244/244/244 232/232/232
f 245/245/245 234/234/234 233/233/233
f 245/245/245 246/246/246 234/234/234
f 247/247/247 236/236/236 235/235/235
f 247/247/247 248/248/248 236/236/236
f 249/249/249 238/238/238 237/237/237
f 249/249/249 250/250/250 238/238/238
f 251/251/251 240/240/240 239/239/239
f 251/251/251 252/252/252 240/240/240
f 253/253/253 242/242/242 241/241/241
f 253/253/253 254/254/254 242/242/242
f 255/255/255 244/244/244 243/243/243
f 255/255/255 256/256/256 244/244/244
f 257/257/257 246/246/246 245/245/245
f 257/257/257 258/258/258 246/246/246
f 259/259/259 248/248/248 247/247/247
f 259/259/259 260/260/260 248/248/248
f 261/261/261 250/250/250 249/249/249
f 261/261/261 262/262/262 250/250/250
f 263/263/263 252/252/252 251/251/251
f 263/263/263 264/264/264 252/252/252
f 265/265/265 254/254/254 253/253/253
f 265/265/265 266/266/266 254/254/254
f 267/267/267 256/256/256 255/255/255
f 267/267/267 268/268/268 256/256/256
f 269/269/269 258/258/258 257/257/257
f 269/269/269 270/270/270 258/258/258
f 271/271/271 260/260/260 259/259/259
f 271/271/271 272/272/272 260/260/260
f 273/273/273 262/262/262 261/261/261
f 273/273/273 274/274/274 262/262/262
f 275/275/275 264/264/264 263/263/263
f 275/275/275 276/276/276 264/264/264
f 277/277/277 266/266/266 265/265/265
f 277/277/277 278/278/278 266/266/266
f 279/279/279 268/268/268 267/267/267
f 279/279/279 280/280/280 268/268/268
f 281/281/281 270/270/270 269/269/269
f 281/281/281 282/282/282 270/270/270
f 283/283/283 272/272/272 271/271/271
f 283/283/283 284/284/284 272/272/272
f 285/285/285 274/274/274 273/273/273
f 285/285/285 286/286/286 274/274/274
f 287/287/287 276/276/276 275/275/275
f 287/287/287 288/288/288 276/276/276
f 289/289/289 278/278/278 277/277/277
f 289/289/289 290/290/290 278/278/278
f 291/291/291 280/280/280 279/279/279
f 291/291/291 292/292/292 280/280/280
f 293/293/293 282/282/282 281/281/281
f 293/293/293 294/294/294 282/282/282
f 295/295/295 284/284/284 283/283/283
f 295/295/295 296/296/296 284/284/284
f 297/297/297 286/286/286 285/285/285
f 297/297/297 298/298/298 286/286/286
f 299/299/299 288/288/288 287/287/287
f 299/299/299 300/300/300 288/288/288
f 301/301/301 290/290/290 289/289/289
f 301/301/301 302/302/302 290/290/290
f 303/303/303 292/292/292 291/291/291
f 303/303/303 304/304/304 292/292/292
f 305/305/305 294/294/294 293/293/293
f 305/305/305 306/306/306 294/294/294
f 307/307/307 296/296/296 295/295/295
f 307/307/307 308/308/308 296/296/296
f 309/309/309 298/298/298 297/297/297
f 309/309/309 310/310/310 298/298/298
f 311/311/311 300/300/300 299/299/299
f 311/311/311 312/312/312 300/300/300
f 313/313/313 302/302/302 301/301/301
f 313/313/313 314/314/314 302/302/302
f 315/315/315 304/304/304 303/303/303
f 315/315/315 316/316/316 304/304/304
f 317/317/317 306/306/306 305/305/305
f 317/317/317 318/318/318 306/306/306
f 319/319/319 308/308/308 307/307/307
f 319/319/319 320/320/320 308/308/308
f 321/321/321 310/310/310 309/309/309
f 321/321/321 322/322/322 310/310/310
f 323/323/323 312/312/312 311/311/311
f 323/323/323 324/324/324 312/312/312
f 325/325/325 314/314/314 313/313/313
f 325/325/325 326/326/326 314/314/314
f 327/327/327 316/316/316 315/315/315
f 327/327/327 328/328/328 316/316/316
f 329/329/329 318/318/318 317/317/317
f 329/329/329 330/330/330 318/318/318
f 331/331/331 320/320/320 319/319/319
f 331/331/331 332/332/332 320/320/320
f 333/333/333 322/322/322 321/321/321
f 333/333/333 334/334/334 322/322/322
f 335/335/335 324/324/324 323/323/323
f 335/335/335 336/336/336 324/324/324
f 337/337/337 326/326/326 325/325/325
f 337/337/337 338/338/338 326/326/326
f 339/339/339 328/328/328 327/327/327
f 339/339/339 340/340/340 328/328/328
f 341/341/341 330/330/330 329/329/329
f 341/341/341 342/342/342 330/330/330
f 343/343/343 332/332/332 331/331/331
f 343/343/343 344/344/344 332/332/332
f 345/345/345 334/334/334 333/333/333
f 345/345/345 346/346/346 334/334/334
f 347/347/347 336/336/336 335/335/335
f 347/347/347 348/348/348 336/336/336
