g tube
v -1.956064 0.8267197 -3.424868
v -1.955469 0.8254209 -3.424412
v -1.938444 0.826156 -3.449449
v -1.937866 0.8248581 -3.448968
v -1.955469 0.8254209 -3.424412
v -1.95425 0.8254209 -3.423538
v -1.937866 0.8248581 -3.448968
v -1.936649 0.8248581 -3.448092
v -1.95425 0.8254209 -3.423538
v -1.953626 0.8267197 -3.42312
v -1.936649 0.8248581 -3.448092
v -1.936009 0.826156 -3.447697
v -1.953626 0.8267197 -3.42312
v -1.954222 0.8280185 -3.423577
v -1.936009 0.826156 -3.447697
v -1.936587 0.827454 -3.448178
v -1.954222 0.8280185 -3.423577
v -1.955441 0.8280185 -3.424451
v -1.936587 0.827454 -3.448178
v -1.937804 0.827454 -3.449054
v -1.955441 0.8280185 -3.424451
v -1.956064 0.8267197 -3.424868
v -1.937804 0.827454 -3.449054
v -1.938444 0.826156 -3.449449
v -1.919803 0.8241442 -3.475286
v -1.919239 0.8228474 -3.474786
v -1.919239 0.8228474 -3.474786
v -1.918022 0.8228474 -3.473908
v -1.918022 0.8228474 -3.473908
v -1.917369 0.8241442 -3.473532
v -1.917369 0.8241442 -3.473532
v -1.917933 0.825441 -3.474032
v -1.917933 0.825441 -3.474032
v -1.91915 0.825441 -3.47491
v -1.91915 0.825441 -3.47491
v -1.919803 0.8241442 -3.475286
v -1.901369 0.822422 -3.500868
v -1.900776 0.8211233 -3.500407
v -1.900776 0.8211233 -3.500407
v -1.899557 0.8211233 -3.499533
v -1.899557 0.8211233 -3.499533
v -1.898931 0.822422 -3.499119
v -1.898931 0.822422 -3.499119
v -1.899523 0.8237208 -3.49958
v -1.899523 0.8237208 -3.49958
v -1.900742 0.8237208 -3.500454
v -1.900742 0.8237208 -3.500454
v -1.901369 0.822422 -3.500868
v -1.884369 0.8227273 -3.524683
v -1.883693 0.821433 -3.524341
v -1.883693 0.821433 -3.524341
v -1.882467 0.821433 -3.523476
v -1.882467 0.821433 -3.523476
v -1.881919 0.8227273 -3.522953
v -1.881919 0.8227273 -3.522953
v -1.882595 0.8240215 -3.523295
v -1.882595 0.8240215 -3.523295
v -1.883821 0.8240215 -3.52416
v -1.883821 0.8240215 -3.52416
v -1.884369 0.8227273 -3.524683
v -1.870037 0.8267977 -3.545216
v -1.869189 0.8255635 -3.54513
v -1.869189 0.8255635 -3.54513
v -1.867947 0.8255635 -3.544289
v -1.867947 0.8255635 -3.544289
v -1.867553 0.8267977 -3.543533
v -1.867553 0.8267977 -3.543533
v -1.868401 0.828032 -3.543618
v -1.868401 0.828032 -3.543618
v -1.869643 0.828032 -3.54446
v -1.869643 0.828032 -3.54446
v -1.870037 0.8267977 -3.545216
v -1.859717 0.8364791 -3.560958
v -1.858646 0.8354812 -3.561285
v -1.858646 0.8354812 -3.561285
v -1.85736 0.8354812 -3.560512
v -1.85736 0.8354812 -3.560512
v -1.857145 0.8364791 -3.559413
v -1.857145 0.8364791 -3.559413
v -1.858216 0.8374771 -3.559086
v -1.858216 0.8374771 -3.559086
v -1.859502 0.8374771 -3.559859
v -1.859502 0.8374771 -3.559859
v -1.859717 0.8364791 -3.560958
v -1.854054 0.8525284 -3.57175
v -1.852899 0.8518839 -3.572457
v -1.85736 0.8354812 -3.560512
v -1.851539 0.8518839 -3.571825
v -1.851539 0.8518839 -3.571825
v -1.851334 0.8525284 -3.570486
v -1.851334 0.8525284 -3.570486
v -1.852489 0.8531728 -3.569779
v -1.852489 0.8531728 -3.569779
v -1.85385 0.8531728 -3.570411
v -1.85385 0.8531728 -3.570411
v -1.854054 0.8525284 -3.57175
v -1.851275 0.8726313 -3.579226
v -1.850163 0.8722066 -3.580138
v -1.848746 0.8722066 -3.579644
v -1.848746 0.8722066 -3.579644
v -1.848443 0.8726313 -3.578238
v -1.848443 0.8726313 -3.578238
v -1.849555 0.873056 -3.577326
v -1.849555 0.873056 -3.577326
v -1.850972 0.873056 -3.57782
v -1.850972 0.873056 -3.57782
v -1.851275 0.8726313 -3.579226
v -1.849355 0.8941849 -3.585251
v -1.848193 0.8938041 -3.58612
v -1.846803 0.8938041 -3.585557
v -1.846803 0.8938041 -3.585557
v -1.846575 0.8941849 -3.584124
v -1.846575 0.8941849 -3.584124
v -1.847736 0.8945656 -3.583255
v -1.847736 0.8945656 -3.583255
v -1.849126 0.8945656 -3.583818
v -1.849126 0.8945656 -3.583818
v -1.849355 0.8941849 -3.585251
v -1.849355 0.8941849 -3.585251
v -1.848193 0.8938041 -3.58612
v -1.846304 0.9145861 -3.591467
v -1.845026 0.9140593 -3.592048
v -1.846304 0.9145861 -3.591467
v -1.843772 0.9140593 -3.591225
v -1.843772 0.9140593 -3.591225
v -1.843797 0.9145861 -3.589821
v -1.843797 0.9145861 -3.589821
v -1.845075 0.915113 -3.58924
v -1.845075 0.915113 -3.58924
v -1.846329 0.915113 -3.590063
v -1.846329 0.915113 -3.590063
v -1.846304 0.9145861 -3.591467
v -1.840311 0.9312381 -3.599219
v -1.839069 0.9304622 -3.599546
v -1.845026 0.9140593 -3.592048
v -1.843772 0.9140593 -3.591225
v -1.839069 0.9304622 -3.599546
v -1.837914 0.9304563 -3.598589
v -1.837914 0.9304563 -3.598589
v -1.838001 0.9312261 -3.597304
v -1.838001 0.9312261 -3.597304
v -1.839242 0.9320019 -3.596977
v -1.839242 0.9320019 -3.596977
v -1.840397 0.9320079 -3.597934
v -1.840397 0.9320079 -3.597934
v -1.840311 0.9312381 -3.599219
v -1.832393 0.9439845 -3.608138
v -1.831238 0.9430451 -3.608322
v -1.831238 0.9430451 -3.608322
v -1.830119 0.9430273 -3.607324
v -1.830119 0.9430273 -3.607324
v -1.830155 0.943949 -3.606141
v -1.830155 0.943949 -3.606141
v -1.831309 0.9448884 -3.605957
v -1.831309 0.9448884 -3.605957
v -1.832429 0.9449062 -3.606955
v -1.832429 0.9449062 -3.606955
v -1.832393 0.9439845 -3.608138
v -1.824042 0.9547301 -3.617051
v -1.822962 0.9536916 -3.617114
v -1.822962 0.9536916 -3.617114
v -1.821888 0.9536624 -3.616068
v -1.821888 0.9536624 -3.616068
v -1.821894 0.9546717 -3.614958
v -1.821894 0.9546717 -3.614958
v -1.822974 0.9557102 -3.614895
v -1.822974 0.9557102 -3.614895
v -1.824049 0.9557394 -3.615942
v -1.824049 0.9557394 -3.615942
v -1.824042 0.9547301 -3.617051
v -1.814126 0.9639714 -3.626328
v -1.813149 0.9628374 -3.626231
v -1.813149 0.9628374 -3.626231
v -1.812154 0.9627977 -3.625109
v -1.812154 0.9627977 -3.625109
v -1.812136 0.963892 -3.624084
v -1.812136 0.963892 -3.624084
v -1.813113 0.9650261 -3.62418
v -1.813113 0.9650261 -3.62418
v -1.814108 0.9650658 -3.625302
v -1.814108 0.9650658 -3.625302
v -1.814126 0.9639714 -3.626328
v -1.801558 0.9722056 -3.63629
v -1.8007 0.9709993 -3.636045
v -1.8007 0.9709993 -3.636045
v -1.799798 0.9709502 -3.634848
v -1.799798 0.9709502 -3.634848
v -1.799754 0.9721076 -3.633894
v -1.799754 0.9721076 -3.633894
v -1.800611 0.9733139 -3.634139
v -1.800611 0.9733139 -3.634139
v -1.801513 0.9733629 -3.635336
v -1.801513 0.9733629 -3.635336
v -1.801558 0.9722056 -3.63629
v -1.785247 0.9799287 -3.647273
v -1.784505 0.9786755 -3.646914
v -1.784505 0.9786755 -3.646914
v -1.783693 0.9786193 -3.645654
v -1.783693 0.9786193 -3.645654
v -1.783623 0.9798163 -3.644753
v -1.783623 0.9798163 -3.644753
v -1.784365 0.9810696 -3.645112
v -1.784365 0.9810696 -3.645112
v -1.785177 0.9811258 -3.646372
v -1.785177 0.9811258 -3.646372
v -1.785247 0.9799287 -3.647273
v -1.76399 0.9874398 -3.659641
v -1.763363 0.9861521 -3.659196
v -1.763363 0.9861521 -3.659196
v -1.762627 0.9860883 -3.65789
v -1.762627 0.9860883 -3.65789
v -1.762519 0.9873121 -3.657029
v -1.762519 0.9873121 -3.657029
v -1.763147 0.9885997 -3.657475
v -1.763147 0.9885997 -3.657475
v -1.763882 0.9886636 -3.65878
v -1.763882 0.9886636 -3.65878
v -1.76399 0.9874398 -3.659641
v -1.737156 0.9939846 -3.673524
v -1.736625 0.9926731 -3.673026
v -1.736625 0.9926731 -3.673026
v -1.735941 0.9925982 -3.671694
v -1.735941 0.9925982 -3.671694
v -1.735788 0.9938348 -3.670858
v -1.735788 0.9938348 -3.670858
v -1.736319 0.9951463 -3.671356
v -1.736319 0.9951463 -3.671356
v -1.737003 0.9952213 -3.672689
v -1.737003 0.9952213 -3.672689
v -1.737156 0.9939846 -3.673524
v -1.706358 0.9997339 -3.688477
v -1.705881 0.9984089 -3.68796
v -1.705881 0.9984089 -3.68796
v -1.705222 0.9983213 -3.686616
v -1.705222 0.9983213 -3.686616
v -1.70504 0.9995586 -3.685787
v -1.70504 0.9995586 -3.685787
v -1.705518 1.000884 -3.686304
v -1.705518 1.000884 -3.686304
v -1.706177 1.000971 -3.687649
v -1.706177 1.000971 -3.687649
v -1.706358 0.9997339 -3.688477
v -1.673428 1.005054 -3.704006
v -1.672973 1.003721 -3.70349
v -1.672973 1.003721 -3.70349
v -1.672322 1.003621 -3.702142
v -1.672322 1.003621 -3.702142
v -1.672127 1.004853 -3.70131
v -1.672127 1.004853 -3.70131
v -1.672583 1.006186 -3.701825
v -1.672583 1.006186 -3.701825
v -1.673233 1.006286 -3.703173
v -1.673233 1.006286 -3.703173
v -1.673428 1.005054 -3.704006
v -1.640206 1.010311 -3.719611
v -1.639745 1.008974 -3.719109
v -1.639745 1.008974 -3.719109
v -1.639089 1.008863 -3.717765
v -1.639089 1.008863 -3.717765
v -1.638893 1.010088 -3.716922
v -1.638893 1.010088 -3.716922
v -1.639353 1.011425 -3.717424
v -1.639353 1.011425 -3.717424
v -1.64001 1.011536 -3.718768
v -1.64001 1.011536 -3.718768
v -1.640206 1.010311 -3.719611
v -1.608518 1.015868 -3.734799
v -1.608049 1.014531 -3.734308
v -1.608049 1.014531 -3.734308
v -1.607386 1.014415 -3.732967
v -1.607386 1.014415 -3.732967
v -1.607193 1.015636 -3.732117
v -1.607193 1.015636 -3.732117
v -1.607662 1.016973 -3.732609
v -1.607662 1.016973 -3.732609
v -1.608325 1.017089 -3.733949
v -1.608325 1.017089 -3.733949
v -1.608518 1.015868 -3.734799

vn -0.8127927 0 -0.582553
vn -0.4158083 -0.8658701 -0.2781593
vn -0.811893 0 -0.5838063
vn -0.4266054 -0.8652905 -0.2632111
vn -0.4158083 -0.8658701 -0.2781593
vn 0.3969791 -0.8658834 0.3043904
vn -0.4266054 -0.8652905 -0.2632111
vn 0.3852904 -0.8653138 0.3205985
vn 0.3969791 -0.8658834 0.3043904
vn 0.8127927 0 0.582553
vn 0.3852904 -0.8653138 0.3205985
vn 0.811893 0 0.5838063
vn 0.8127927 0 0.582553
vn 0.4158083 0.8658701 0.2781593
vn 0.811893 0 0.5838063
vn 0.4266054 0.8652905 0.2632111
vn 0.4158083 0.8658701 0.2781593
vn -0.3969791 0.8658834 -0.3043904
vn 0.4266054 0.8652905 0.2632111
vn -0.3852904 0.8653138 -0.3205985
vn -0.3969791 0.8658834 -0.3043904
vn -0.8127927 0 -0.582553
vn -0.3852904 0.8653138 -0.3205985
vn -0.811893 0 -0.5838063
vn -0.8110939 0 -0.5849159
vn -0.4353438 -0.8645287 -0.2511293
vn -0.4353438 -0.8645287 -0.2511293
vn 0.3758087 -0.8645031 0.3337696
vn 0.3758087 -0.8645031 0.3337696
vn 0.8110939 0 0.5849159
vn 0.8110939 0 0.5849159
vn 0.4353438 0.8645287 0.2511293
vn 0.4353438 0.8645287 0.2511293
vn -0.3758087 0.8645031 -0.3337696
vn -0.3758087 0.8645031 -0.3337696
vn -0.8110939 0 -0.5849159
vn -0.8125882 0 -0.5828383
vn -0.4174587 -0.8657918 -0.2759217
vn -0.4174587 -0.8657918 -0.2759217
vn 0.3951437 -0.8658273 0.3069278
vn 0.3951437 -0.8658273 0.3069278
vn 0.8125882 0 0.5828383
vn 0.8125882 0 0.5828383
vn 0.4174587 0.8657918 0.2759217
vn 0.4174587 0.8657918 0.2759217
vn -0.3951437 0.8658273 -0.3069278
vn -0.3951437 0.8658273 -0.3069278
vn -0.8125882 0 -0.5828383
vn -0.8169855 0 -0.5766582
vn -0.3657396 -0.8628497 -0.348891
vn -0.3657396 -0.8628497 -0.348891
vn 0.4512491 -0.8628411 0.2277703
vn 0.4512491 -0.8628411 0.2277703
vn 0.8169855 0 0.5766582
vn 0.8169855 0 0.5766582
vn 0.3657396 0.8628497 0.348891
vn 0.3657396 0.8628497 0.348891
vn -0.4512491 0.8628411 -0.2277703
vn -0.4512491 0.8628411 -0.2277703
vn -0.8169855 0 -0.5766582
vn -0.8278449 0 -0.5609571
vn -0.2624281 -0.8228496 -0.5040336
vn -0.2624281 -0.8228496 -0.5040336
vn 0.5654473 -0.8228192 0.05690236
vn 0.5654473 -0.8228192 0.05690236
vn 0.8278449 0 0.5609571
vn 0.8278449 0 0.5609571
vn 0.2624281 0.8228496 0.5040336
vn 0.2624281 0.8228496 0.5040336
vn -0.5654473 0.8228192 -0.05690236
vn -0.5654473 0.8228192 -0.05690236
vn -0.8278449 0 -0.5609571
vn -0.8572895 0 -0.5148346
vn -0.1432065 -0.6652904 -0.7327214
vn -0.1432065 -0.6652904 -0.7327214
vn 0.7140611 -0.6653047 -0.2179138
vn 0.7140611 -0.6653047 -0.2179138
vn 0.8572895 0 0.5148346
vn 0.8572895 0 0.5148346
vn 0.1432065 0.6652904 0.7327214
vn 0.1432065 0.6652904 0.7327214
vn -0.7140611 0.6653047 0.2179138
vn -0.7140611 0.6653047 0.2179138
vn -0.8572895 0 -0.5148346
vn -0.9068864 0 -0.4213751
vn -0.1365324 -0.4296242 -0.8926265
vn 0.7140611 -0.6653047 -0.2179138
vn 0.7702956 -0.4296109 -0.4712528
vn 0.7702956 -0.4296109 -0.4712528
vn 0.9068864 0 0.4213751
vn 0.9068864 0 0.4213751
vn 0.1365324 0.4296242 0.8926265
vn 0.1365324 0.4296242 0.8926265
vn -0.7702956 0.4296109 0.4712528
vn -0.7702956 0.4296109 0.4712528
vn -0.9068864 0 -0.4213751
vn -0.9441554 0 -0.3295007
vn -0.2024209 -0.283127 -0.937478
vn 0.7417457 -0.2831318 -0.6079883
vn 0.7417457 -0.2831318 -0.6079883
vn 0.9441554 0 0.3295007
vn 0.9441554 0 0.3295007
vn 0.2024209 0.283127 0.937478
vn 0.2024209 0.283127 0.937478
vn -0.7417457 0.2831318 0.6079883
vn -0.7417457 0.2831318 0.6079883
vn -0.9441554 0 -0.3295007
vn -0.926657 0 -0.375908
vn -0.1521035 -0.2538237 -0.9552162
vn 0.774541 -0.2538358 -0.5793561
vn 0.774541 -0.2538358 -0.5793561
vn 0.926657 0 0.375908
vn 0.926657 0 0.375908
vn 0.1521035 0.2538237 0.9552162
vn 0.1521035 0.2538237 0.9552162
vn -0.774541 0.2538358 0.5793561
vn -0.774541 0.2538358 0.5793561
vn -0.926657 0 -0.375908
vn -0.926657 0 -0.375908
vn -0.1521035 -0.2538237 -0.9552162
vn -0.8359181 0 -0.5488544
vn 0.01652963 -0.3512148 -0.936149
vn -0.8359181 0 -0.5488544
vn 0.8524117 -0.3512245 -0.3873443
vn 0.8524117 -0.3512245 -0.3873443
vn 0.8359181 0 0.5488544
vn 0.8359181 0 0.5488544
vn -0.01652963 0.3512148 0.936149
vn -0.01652963 0.3512148 0.936149
vn -0.8524117 0.3512245 0.3873443
vn -0.8524117 0.3512245 0.3873443
vn -0.8359181 0 -0.5488544
vn -0.769906 0.004013238 -0.6381446
vn 0.05762132 -0.5132669 -0.8562925
vn 0.01652963 -0.3512148 -0.936149
vn 0.8524117 -0.3512245 -0.3873443
vn 0.05762132 -0.5132669 -0.8562925
vn 0.8275627 -0.5172167 -0.2182356
vn 0.8275627 -0.5172167 -0.2182356
vn 0.769906 -0.004013238 0.6381446
vn 0.769906 -0.004013238 0.6381446
vn -0.05762132 0.5132669 0.8562925
vn -0.05762132 0.5132669 0.8562925
vn -0.8275627 0.5172167 0.2182356
vn -0.8275627 0.5172167 0.2182356
vn -0.769906 0.004013238 -0.6381446
vn -0.7461278 0.01184204 -0.6656974
vn 0.02368431 -0.6144807 -0.7885763
vn 0.02368431 -0.6144807 -0.7885763
vn 0.7698519 -0.6262845 -0.1228648
vn 0.7698519 -0.6262845 -0.1228648
vn 0.7461278 -0.01184204 0.6656974
vn 0.7461278 -0.01184204 0.6656974
vn -0.02368431 0.6144807 0.7885763
vn -0.02368431 0.6144807 0.7885763
vn -0.7698519 0.6262845 0.1228648
vn -0.7698519 0.6262845 0.1228648
vn -0.7461278 0.01184204 -0.6656974
vn -0.7162099 0.01947086 -0.6976132
vn 0.004132673 -0.6728708 -0.7397485
vn 0.004132673 -0.6728708 -0.7397485
vn 0.7203475 -0.6923331 -0.04212094
vn 0.7203475 -0.6923331 -0.04212094
vn 0.7162099 -0.01947086 0.6976132
vn 0.7162099 -0.01947086 0.6976132
vn -0.004132673 0.6728708 0.7397485
vn -0.004132673 0.6728708 0.7397485
vn -0.7203475 0.6923331 0.04212094
vn -0.7203475 0.6923331 0.04212094
vn -0.7162099 0.01947086 -0.6976132
vn -0.6631885 0.02646396 -0.7479844
vn -0.01176223 -0.729576 -0.6837987
vn -0.01176223 -0.729576 -0.6837987
vn 0.651416 -0.7559986 0.0642118
vn 0.651416 -0.7559986 0.0642118
vn 0.6631885 -0.02646396 0.7479844
vn 0.6631885 -0.02646396 0.7479844
vn 0.01176223 0.729576 0.6837987
vn 0.01176223 0.729576 0.6837987
vn -0.651416 0.7559986 -0.0642118
vn -0.651416 0.7559986 -0.0642118
vn -0.6631885 0.02646396 -0.7479844
vn -0.601103 0.03266173 -0.7985038
vn -0.02956484 -0.7715469 -0.6354851
vn -0.02956484 -0.7715469 -0.6354851
vn 0.5715653 -0.8042206 0.1629183
vn 0.5715653 -0.8042206 0.1629183
vn 0.601103 -0.03266173 0.7985038
vn 0.601103 -0.03266173 0.7985038
vn 0.02956484 0.7715469 0.6354851
vn 0.02956484 0.7715469 0.6354851
vn -0.5715653 0.8042206 -0.1629183
vn -0.5715653 0.8042206 -0.1629183
vn -0.601103 0.03266173 -0.7985038
vn -0.5412772 0.03747059 -0.8400089
vn -0.04657124 -0.7980291 -0.6008166
vn -0.04657124 -0.7980291 -0.6008166
vn 0.494712 -0.8354871 0.2392101
vn 0.494712 -0.8354871 0.2392101
vn 0.5412772 -0.03747059 0.8400089
vn 0.5412772 -0.03747059 0.8400089
vn 0.04657124 0.7980291 0.6008166
vn 0.04657124 0.7980291 0.6008166
vn -0.494712 0.8354871 -0.2392101
vn -0.494712 0.8354871 -0.2392101
vn -0.5412772 0.03747059 -0.8400089
vn -0.4903226 0.04255555 -0.8705015
vn -0.07192101 -0.8158464 -0.5737786
vn -0.07192101 -0.8158464 -0.5737786
vn 0.4184171 -0.8584107 0.2967463
vn 0.4184171 -0.8584107 0.2967463
vn 0.4903226 -0.04255555 0.8705015
vn 0.4903226 -0.04255555 0.8705015
vn 0.07192101 0.8158464 0.5737786
vn 0.07192101 0.8158464 0.5737786
vn -0.4184171 0.8584107 -0.2967463
vn -0.4184171 0.8584107 -0.2967463
vn -0.4903226 0.04255555 -0.8705015
vn -0.4561036 0.04994966 -0.8885238
vn -0.1019605 -0.8243858 -0.5567694
vn -0.1019605 -0.8243858 -0.5567694
vn 0.3542089 -0.8743564 0.3317182
vn 0.3542089 -0.8743564 0.3317182
vn 0.4561036 -0.04994966 0.8885238
vn 0.4561036 -0.04994966 0.8885238
vn 0.1019605 0.8243858 0.5567694
vn 0.1019605 0.8243858 0.5567694
vn -0.3542089 0.8743564 -0.3317182
vn -0.3542089 0.8743564 -0.3317182
vn -0.4561036 0.04994966 -0.8885238
vn -0.439187 0.0584152 -0.8964946
vn -0.1209594 -0.8249002 -0.5521852
vn -0.1209594 -0.8249002 -0.5521852
vn 0.3182087 -0.8832992 0.3442757
vn 0.3182087 -0.8832992 0.3442757
vn 0.439187 -0.0584152 0.8964946
vn 0.439187 -0.0584152 0.8964946
vn 0.1209594 0.8249002 0.5521852
vn 0.1209594 0.8249002 0.5521852
vn -0.3182087 0.8832992 -0.3442757
vn -0.3182087 0.8832992 -0.3442757
vn -0.439187 0.0584152 -0.8964946
vn -0.4335815 0.06683321 -0.8986326
vn -0.1300132 -0.8217215 -0.5548607
vn -0.1300132 -0.8217215 -0.5548607
vn 0.3035942 -0.8886091 0.3438085
vn 0.3035942 -0.8886091 0.3438085
vn 0.4335815 -0.06683321 0.8986326
vn 0.4335815 -0.06683321 0.8986326
vn 0.1300132 0.8217215 0.5548607
vn 0.1300132 0.8217215 0.5548607
vn -0.3035942 0.8886091 -0.3438085
vn -0.3035942 0.8886091 -0.3438085
vn -0.4335815 0.06683321 -0.8986326
vn -0.4375655 0.07430507 -0.8961112
vn -0.1306553 -0.8168343 -0.5618815
vn -0.1306553 -0.8168343 -0.5618815
vn 0.3069172 -0.891109 0.3342553
vn 0.3069172 -0.891109 0.3342553
vn 0.4375655 -0.07430507 0.8961112
vn 0.4375655 -0.07430507 0.8961112
vn 0.1306553 0.8168343 0.5618815
vn 0.1306553 0.8168343 0.5618815
vn -0.3069172 0.891109 -0.3342553
vn -0.3069172 0.891109 -0.3342553
vn -0.4375655 0.07430507 -0.8961112
vn -0.4419232 0.07748159 -0.8937004
vn -0.1288268 -0.8140485 -0.5663292
vn -0.1288268 -0.8140485 -0.5663292
vn 0.3131276 -0.8915395 0.327274
vn 0.3131276 -0.8915395 0.327274
vn 0.4419232 -0.07748159 0.8937004
vn 0.4419232 -0.07748159 0.8937004
vn 0.1288268 0.8140485 0.5663292
vn 0.1288268 0.8140485 0.5663292
vn -0.3131276 0.8915395 -0.327274
vn -0.3131276 0.8915395 -0.327274
vn -0.4419232 0.07748159 -0.8937004

vt 1 0
vt 0.8333333 0
vt 1 0.04545455
vt 0.8333333 0.04545455
vt 0.8333333 0
vt 0.6666666 0
vt 0.8333333 0.04545455
vt 0.6666666 0.04545455
vt 0.6666666 0
vt 0.5 0
vt 0.6666666 0.04545455
vt 0.5 0.04545455
vt 0.5 0
vt 0.3333333 0
vt 0.5 0.04545455
vt 0.3333333 0.04545455
vt 0.3333333 0
vt 0.1666667 0
vt 0.3333333 0.04545455
vt 0.1666667 0.04545455
vt 0.1666667 0
vt 0 0
vt 0.1666667 0.04545455
vt 0 0.04545455
vt 1 0.09090909
vt 0.8333333 0.09090909
vt 0.8333333 0.09090909
vt 0.6666666 0.09090909
vt 0.6666666 0.09090909
vt 0.5 0.09090909
vt 0.5 0.09090909
vt 0.3333333 0.09090909
vt 0.3333333 0.09090909
vt 0.1666667 0.09090909
vt 0.1666667 0.09090909
vt 0 0.09090909
vt 1 0.1363636
vt 0.8333333 0.1363636
vt 0.8333333 0.1363636
vt 0.6666666 0.1363636
vt 0.6666666 0.1363636
vt 0.5 0.1363636
vt 0.5 0.1363636
vt 0.3333333 0.1363636
vt 0.3333333 0.1363636
vt 0.1666667 0.1363636
vt 0.1666667 0.1363636
vt 0 0.1363636
vt 1 0.1818182
vt 0.8333333 0.1818182
vt 0.8333333 0.1818182
vt 0.6666666 0.1818182
vt 0.6666666 0.1818182
vt 0.5 0.1818182
vt 0.5 0.1818182
vt 0.3333333 0.1818182
vt 0.3333333 0.1818182
vt 0.1666667 0.1818182
vt 0.1666667 0.1818182
vt 0 0.1818182
vt 1 0.2272727
vt 0.8333333 0.2272727
vt 0.8333333 0.2272727
vt 0.6666666 0.2272727
vt 0.6666666 0.2272727
vt 0.5 0.2272727
vt 0.5 0.2272727
vt 0.3333333 0.2272727
vt 0.3333333 0.2272727
vt 0.1666667 0.2272727
vt 0.1666667 0.2272727
vt 0 0.2272727
vt 1 0.2727273
vt 0.8333333 0.2727273
vt 0.8333333 0.2727273
vt 0.6666666 0.2727273
vt 0.6666666 0.2727273
vt 0.5 0.2727273
vt 0.5 0.2727273
vt 0.3333333 0.2727273
vt 0.3333333 0.2727273
vt 0.1666667 0.2727273
vt 0.1666667 0.2727273
vt 0 0.2727273
vt 1 0.3181818
vt 0.8333333 0.3181818
vt 0.6666666 0.2727273
vt 0.6666666 0.3181818
vt 0.6666666 0.3181818
vt 0.5 0.3181818
vt 0.5 0.3181818
vt 0.3333333 0.3181818
vt 0.3333333 0.3181818
vt 0.1666667 0.3181818
vt 0.1666667 0.3181818
vt 0 0.3181818
vt 1 0.3636364
vt 0.8333333 0.3636364
vt 0.6666666 0.3636364
vt 0.6666666 0.3636364
vt 0.5 0.3636364
vt 0.5 0.3636364
vt 0.3333333 0.3636364
vt 0.3333333 0.3636364
vt 0.1666667 0.3636364
vt 0.1666667 0.3636364
vt 0 0.3636364
vt 1 0.4090909
vt 0.8333333 0.4090909
vt 0.6666666 0.4090909
vt 0.6666666 0.4090909
vt 0.5 0.4090909
vt 0.5 0.4090909
vt 0.3333333 0.4090909
vt 0.3333333 0.4090909
vt 0.1666667 0.4090909
vt 0.1666667 0.4090909
vt 0 0.4090909
vt 1 0.4090909
vt 0.8333333 0.4090909
vt 1 0.4545455
vt 0.8333333 0.4545455
vt 1 0.4545455
vt 0.6666666 0.4545455
vt 0.6666666 0.4545455
vt 0.5 0.4545455
vt 0.5 0.4545455
vt 0.3333333 0.4545455
vt 0.3333333 0.4545455
vt 0.1666667 0.4545455
vt 0.1666667 0.4545455
vt 0 0.4545455
vt 1 0.5
vt 0.8333333 0.5
vt 0.8333333 0.4545455
vt 0.6666666 0.4545455
vt 0.8333333 0.5
vt 0.6666666 0.5
vt 0.6666666 0.5
vt 0.5 0.5
vt 0.5 0.5
vt 0.3333333 0.5
vt 0.3333333 0.5
vt 0.1666667 0.5
vt 0.1666667 0.5
vt 0 0.5
vt 1 0.5454546
vt 0.8333333 0.5454546
vt 0.8333333 0.5454546
vt 0.6666666 0.5454546
vt 0.6666666 0.5454546
vt 0.5 0.5454546
vt 0.5 0.5454546
vt 0.3333333 0.5454546
vt 0.3333333 0.5454546
vt 0.1666667 0.5454546
vt 0.1666667 0.5454546
vt 0 0.5454546
vt 1 0.5909091
vt 0.8333333 0.5909091
vt 0.8333333 0.5909091
vt 0.6666666 0.5909091
vt 0.6666666 0.5909091
vt 0.5 0.5909091
vt 0.5 0.5909091
vt 0.3333333 0.5909091
vt 0.3333333 0.5909091
vt 0.1666667 0.5909091
vt 0.1666667 0.5909091
vt 0 0.5909091
vt 1 0.6363636
vt 0.8333333 0.6363636
vt 0.8333333 0.6363636
vt 0.6666666 0.6363636
vt 0.6666666 0.6363636
vt 0.5 0.6363636
vt 0.5 0.6363636
vt 0.3333333 0.6363636
vt 0.3333333 0.6363636
vt 0.1666667 0.6363636
vt 0.1666667 0.6363636
vt 0 0.6363636
vt 1 0.6818182
vt 0.8333333 0.6818182
vt 0.8333333 0.6818182
vt 0.6666666 0.6818182
vt 0.6666666 0.6818182
vt 0.5 0.6818182
vt 0.5 0.6818182
vt 0.3333333 0.6818182
vt 0.3333333 0.6818182
vt 0.1666667 0.6818182
vt 0.1666667 0.6818182
vt 0 0.6818182
vt 1 0.7272727
vt 0.8333333 0.7272727
vt 0.8333333 0.7272727
vt 0.6666666 0.7272727
vt 0.6666666 0.7272727
vt 0.5 0.7272727
vt 0.5 0.7272727
vt 0.3333333 0.7272727
vt 0.3333333 0.7272727
vt 0.1666667 0.7272727
vt 0.1666667 0.7272727
vt 0 0.7272727
vt 1 0.7727273
vt 0.8333333 0.7727273
vt 0.8333333 0.7727273
vt 0.6666666 0.7727273
vt 0.6666666 0.7727273
vt 0.5 0.7727273
vt 0.5 0.7727273
vt 0.3333333 0.7727273
vt 0.3333333 0.7727273
vt 0.1666667 0.7727273
vt 0.1666667 0.7727273
vt 0 0.7727273
vt 1 0.8181818
vt 0.8333333 0.8181818
vt 0.8333333 0.8181818
vt 0.6666666 0.8181818
vt 0.6666666 0.8181818
vt 0.5 0.8181818
vt 0.5 0.8181818
vt 0.3333333 0.8181818
vt 0.3333333 0.8181818
vt 0.1666667 0.8181818
vt 0.1666667 0.8181818
vt 0 0.8181818
vt 1 0.8636364
vt 0.8333333 0.8636364
vt 0.8333333 0.8636364
vt 0.6666666 0.8636364
vt 0.6666666 0.8636364
vt 0.5 0.8636364
vt 0.5 0.8636364
vt 0.3333333 0.8636364
vt 0.3333333 0.8636364
vt 0.1666667 0.8636364
vt 0.1666667 0.8636364
vt 0 0.8636364
vt 1 0.9090909
vt 0.8333333 0.9090909
vt 0.8333333 0.9090909
vt 0.6666666 0.9090909
vt 0.6666666 0.9090909
vt 0.5 0.9090909
vt 0.5 0.9090909
vt 0.3333333 0.9090909
vt 0.3333333 0.9090909
vt 0.1666667 0.9090909
vt 0.1666667 0.9090909
vt 0 0.9090909
vt 1 0.9545454
vt 0.8333333 0.9545454
vt 0.8333333 0.9545454
vt 0.6666666 0.9545454
vt 0.6666666 0.9545454
vt 0.5 0.9545454
vt 0.5 0.9545454
vt 0.3333333 0.9545454
vt 0.3333333 0.9545454
vt 0.1666667 0.9545454
vt 0.1666667 0.9545454
vt 0 0.9545454
vt 1 1
vt 0.8333333 1
vt 0.8333333 1
vt 0.6666666 1
vt 0.6666666 1
vt 0.5 1
vt 0.5 1
vt 0.3333333 1
vt 0.3333333 1
vt 0.1666667 1
vt 0.1666667 1
vt 0 1

vt2 0.9132866 0.4033253
vt2 0.9139873 0.4058541
vt2 0.8622895 0.4174577
vt2 0.8630406 0.4199721
vt2 0.003923248 0.6637938
vt2 0.00390625 0.6611547
vt2 0.05709224 0.663448
vt2 0.05707118 0.6608089
vt2 0.946089 0.3181164
vt2 0.944969 0.3205062
vt2 0.8979475 0.2955551
vt2 0.8967835 0.2979238
vt2 0.00390625 0.5185342
vt2 0.004925177 0.5160997
vt2 0.05299426 0.5390808
vt2 0.05406167 0.5366671
vt2 0.004180606 0.09183667
vt2 0.00390625 0.08921181
vt2 0.05715978 0.08630297
vt2 0.05688946 0.0836776
vt2 0.005024529 0.2058677
vt2 0.00390625 0.2034771
vt2 0.05327825 0.1832971
vt2 0.05211603 0.1809275
vt2 0.8091078 0.4345137
vt2 0.8098999 0.4370156
vt2 0.1132171 0.6629103
vt2 0.1131925 0.660271
vt2 0.8480423 0.269877
vt2 0.8468432 0.2722281
vt2 0.1038932 0.5628211
vt2 0.1049998 0.560425
vt2 0.1130794 0.08063569
vt2 0.1128125 0.07800978
vt2 0.1032796 0.1576183
vt2 0.1020823 0.1552663
vt2 0.756375 0.4509817
vt2 0.7570837 0.4535084
vt2 0.168864 0.6624098
vt2 0.1688461 0.6597706
vt2 0.7983735 0.2447656
vt2 0.7972468 0.2471523
vt2 0.1544379 0.5859256
vt2 0.1554645 0.5834943
vt2 0.1682809 0.07500827
vt2 0.1680075 0.07238317
vt2 0.15281 0.1326209
vt2 0.151685 0.1302333
vt2 0.706702 0.4633569
vt2 0.7071624 0.4659404
vt2 0.2206048 0.6621778
vt2 0.2206069 0.6595386
vt2 0.7509854 0.2239425
vt2 0.7500766 0.2264203
vt2 0.2024719 0.6045692
vt2 0.2032579 0.6020498
vt2 0.2192618 0.06958033
vt2 0.2189685 0.06695744
vt2 0.1997413 0.1120317
vt2 0.1988343 0.1095533
vt2 0.6625805 0.4681603
vt2 0.6624929 0.4707829
vt2 0.265793 0.6624575
vt2 0.2658449 0.6598188
vt2 0.7076198 0.2110588
vt2 0.7071973 0.2136639
vt2 0.2459807 0.6149777
vt2 0.2462249 0.6123499
vt2 0.2631477 0.06445348
vt2 0.2628049 0.06183659
vt2 0.2420523 0.09947632
vt2 0.2416317 0.09687094
vt2 0.626128 0.461644
vt2 0.6251442 0.4640768
vt2 0.3039336 0.6637938
vt2 0.3041137 0.6611608
vt2 0.6693488 0.2097739
vt2 0.6697188 0.2123872
vt2 0.2834379 0.6131845
vt2 0.2827639 0.6106328
vt2 0.2993589 0.0592766
vt2 0.2988892 0.05667955
vt2 0.2784858 0.0983559
vt2 0.2788576 0.09574292
vt2 0.5969996 0.4417824
vt2 0.5953807 0.4438091
vt2 0.6237086 0.4663723
vt2 0.5937358 0.4458615
vt2 0.6345427 0.2208448
vt2 0.6356109 0.2232583
vt2 0.3154848 0.5972305
vt2 0.3139953 0.5950516
vt2 0.3335018 0.05203545
vt2 0.3328657 0.04947405
vt2 0.3114481 0.1093017
vt2 0.3125181 0.106889
vt2 0.5697507 0.4158594
vt2 0.5678725 0.4177501
vt2 0.5660226 0.4196135
vt2 0.6009064 0.2398349
vt2 0.6023079 0.2420713
vt2 0.344069 0.5718145
vt2 0.3422126 0.5699386
vt2 0.3699316 0.04204791
vt2 0.369201 0.03951184
vt2 0.3440295 0.1282208
vt2 0.3454328 0.1259856
vt2 0.5423012 0.387212
vt2 0.5404068 0.3891105
vt2 0.5385307 0.3909808
vt2 0.5683286 0.2622551
vt2 0.5698122 0.2644381
vt2 0.3706644 0.5426784
vt2 0.3687648 0.5408463
vt2 0.4076629 0.03074568
vt2 0.4069673 0.02819975
vt2 0.3766089 0.1504205
vt2 0.3780943 0.1482387
vt2 0.3780943 0.1482387
vt2 0.3796264 0.1460897
vt2 0.4097418 0.1691042
vt2 0.5129293 0.3633139
vt2 0.5145418 0.3612121
vt2 0.5111693 0.3652937
vt2 0.5375904 0.2835439
vt2 0.538906 0.2858321
vt2 0.397103 0.5159598
vt2 0.3954684 0.5138876
vt2 0.4443652 0.02111261
vt2 0.4438247 0.01852939
vt2 0.4084241 0.1713911
vt2 0.4097418 0.1691042
vt2 0.4852234 0.3437556
vt2 0.4841056 0.3461572
vt2 0.539703 0.6531453
vt2 0.53882 0.6556323
vt2 0.5077341 0.6434086
vt2 0.5069993 0.6459433
vt2 0.5077349 0.2982096
vt2 0.5086707 0.3006775
vt2 0.4255784 0.4979677
vt2 0.4244327 0.4955902
vt2 0.4781079 0.01518292
vt2 0.4777206 0.01257243
vt2 0.4394986 0.1861825
vt2 0.4404367 0.1837155
vt2 0.4560219 0.3338731
vt2 0.4552875 0.3364182
vt2 0.4784473 0.635614
vt2 0.4777904 0.6381702
vt2 0.4786555 0.3064539
vt2 0.4792786 0.3090184
vt2 0.4543518 0.4876932
vt2 0.453586 0.4851676
vt2 0.5088122 0.01120958
vt2 0.508505 0.008588256
vt2 0.4693776 0.1945965
vt2 0.4700029 0.1920326
vt2 0.4280627 0.3272633
vt2 0.4276206 0.3298752
vt2 0.4509301 0.6289008
vt2 0.4503704 0.63148
vt2 0.4510144 0.3121626
vt2 0.4514424 0.3147669
vt2 0.481896 0.4806782
vt2 0.4814206 0.4780821
vt2 0.5373672 0.008113006
vt2 0.5371594 0.005481953
vt2 0.4976204 0.2003465
vt2 0.4980507 0.1977426
vt2 0.3991951 0.3244124
vt2 0.3991154 0.3270604
vt2 0.4228713 0.6236954
vt2 0.4224785 0.6263053
vt2 0.4228742 0.31575
vt2 0.4231106 0.3183786
vt2 0.5102596 0.477326
vt2 0.5101446 0.4746892
vt2 0.5662484 0.006545266
vt2 0.5662101 0.00390625
vt2 0.5264973 0.2038887
vt2 0.5267361 0.2012603
vt2 0.3673864 0.3257912
vt2 0.3676568 0.3284264
vt2 0.3916901 0.6202467
vt2 0.3914911 0.6228782
vt2 0.3917499 0.3175499
vt2 0.3918329 0.3201881
vt2 0.5415795 0.4781181
vt2 0.5418136 0.4754892
vt2 0.5979211 0.007181225
vt2 0.5980778 0.004546833
vt2 0.5583248 0.2056146
vt2 0.5584102 0.2029765
vt2 0.3305821 0.3319128
vt2 0.3311412 0.3345022
vt2 0.3548352 0.618884
vt2 0.3548197 0.6215232
vt2 0.3550547 0.3178671
vt2 0.3550297 0.3205062
vt2 0.5779785 0.4835668
vt2 0.5785008 0.4809797
vt2 0.6348494 0.01070226
vt2 0.6351889 0.008084876
vt2 0.5956032 0.2058677
vt2 0.5955806 0.2032285
vt2 0.2867251 0.3436997
vt2 0.2875336 0.3462224
vt2 0.3098646 0.6201096
vt2 0.3100028 0.6227453
vt2 0.3102358 0.3167213
vt2 0.3101075 0.3193575
vt2 0.6215426 0.4945897
vt2 0.6223142 0.4920657
vt2 0.6794604 0.017939
vt2 0.6799517 0.01534575
vt2 0.6409357 0.2046912
vt2 0.6408098 0.2020549
vt2 0.2355991 0.3628485
vt2 0.2365941 0.3653035
vt2 0.2558359 0.6243399
vt2 0.2560776 0.6269681
vt2 0.2562821 0.3128799
vt2 0.2560604 0.3155099
vt2 0.672537 0.5129057
vt2 0.6734953 0.5104466
vt2 0.7326146 0.02942714
vt2 0.7332074 0.02685528
vt2 0.6952867 0.2008671
vt2 0.6950674 0.1982369
vt2 0.1794086 0.3873748
vt2 0.1804981 0.3897895
vt2 0.1951934 0.6307446
vt2 0.1954873 0.6333673
vt2 0.1956436 0.3069552
vt2 0.195372 0.3095804
vt2 0.7287367 0.5365661
vt2 0.7297896 0.534146
vt2 0.7919372 0.04397218
vt2 0.792581 0.04141277
vt2 0.7561371 0.1950021
vt2 0.755868 0.1923767
vt2 0.120496 0.4147938
vt2 0.1216183 0.4171934
vt2 0.1309367 0.638335
vt2 0.1312494 0.6409558
vt2 0.1313441 0.2999099
vt2 0.1310554 0.3025334
vt2 0.7877447 0.5631063
vt2 0.7888305 0.5607008
vt2 0.8546146 0.06017436
vt2 0.8552767 0.05761939
vt2 0.8205184 0.1880415
vt2 0.8202322 0.1854177
vt2 0.06121545 0.4426157
vt2 0.0623218 0.4450227
vt2 0.06614135 0.6460995
vt2 0.0664446 0.6487213
vt2 0.06647534 0.2927008
vt2 0.06619475 0.295325
vt2 0.8471748 0.5900679
vt2 0.8482447 0.5876552
vt2 0.9177527 0.07661041
vt2 0.9184058 0.07405317
vt2 0.8853634 0.1809318
vt2 0.8850852 0.1783073
vt2 0.00390625 0.4683666
vt2 0.004992416 0.4707829
vt2 0.00390625 0.6530094
vt2 0.004197714 0.6556323
vt2 0.004176318 0.2862786
vt2 0.00390625 0.2889042
vt2 0.9046257 0.6149777
vt2 0.9056753 0.612556
vt2 0.9784692 0.09183667
vt2 0.9791106 0.0892768
vt2 0.9476259 0.1745892
vt2 0.9473583 0.1719633


vc 1 1 1 1
vc 1 1 1 1
vc 1 1 1 1
vc 1 1 1 1
vc 1 1 1 1
vc 1 1 1 1
vc 1 1 1 1
vc 1 1 1 1
vc 1 1 1 1
vc 1 1 1 1
vc 1 1 1 1
vc 1 1 1 1
vc 1 1 1 1
vc 1 1 1 1
vc 1 1 1 1
vc 1 1 1 1
vc 1 1 1 1
vc 1 1 1 1
vc 1 1 1 1
vc 1 1 1 1
vc 1 1 1 1
vc 1 1 1 1
vc 1 1 1 1
vc 1 1 1 1
vc 1 1 1 1
vc 1 1 1 1
vc 1 1 1 1
vc 1 1 1 1
vc 1 1 1 1
vc 1 1 1 1
vc 1 1 1 1
vc 1 1 1 1
vc 1 1 1 1
vc 1 1 1 1
vc 1 1 1 1
vc 1 1 1 1
vc 1 1 1 1
vc 1 1 1 1
vc 1 1 1 1
vc 1 1 1 1
vc 1 1 1 1
vc 1 1 1 1
vc 1 1 1 1
vc 1 1 1 1
vc 1 1 1 1
vc 1 1 1 1
vc 1 1 1 1
vc 1 1 1 1
vc 1 1 1 1
vc 1 1 1 1
vc 1 1 1 1
vc 1 1 1 1
vc 1 1 1 1
vc 1 1 1 1
vc 1 1 1 1
vc 1 1 1 1
vc 1 1 1 1
vc 1 1 1 1
vc 1 1 1 1
vc 1 1 1 1
vc 1 1 1 1
vc 1 1 1 1
vc 1 1 1 1
vc 1 1 1 1
vc 1 1 1 1
vc 1 1 1 1
vc 1 1 1 1
vc 1 1 1 1
vc 1 1 1 1
vc 1 1 1 1
vc 1 1 1 1
vc 1 1 1 1
vc 1 1 1 1
vc 1 1 1 1
vc 1 1 1 1
vc 1 1 1 1
vc 1 1 1 1
vc 1 1 1 1
vc 1 1 1 1
vc 1 1 1 1
vc 1 1 1 1
vc 1 1 1 1
vc 1 1 1 1
vc 1 1 1 1
vc 1 1 1 1
vc 1 1 1 1
vc 1 1 1 1
vc 1 1 1 1
vc 1 1 1 1
vc 1 1 1 1
vc 1 1 1 1
vc 1 1 1 1
vc 1 1 1 1
vc 1 1 1 1
vc 1 1 1 1
vc 1 1 1 1
vc 1 1 1 1
vc 1 1 1 1
vc 1 1 1 1
vc 1 1 1 1
vc 1 1 1 1
vc 1 1 1 1
vc 1 1 1 1
vc 1 1 1 1
vc 1 1 1 1
vc 1 1 1 1
vc 1 1 1 1
vc 1 1 1 1
vc 1 1 1 1
vc 1 1 1 1
vc 1 1 1 1
vc 1 1 1 1
vc 1 1 1 1
vc 1 1 1 1
vc 1 1 1 1
vc 1 1 1 1
vc 1 1 1 1
vc 1 1 1 1
vc 1 1 1 1
vc 1 1 1 1
vc 1 1 1 1
vc 1 1 1 1
vc 1 1 1 1
vc 1 1 1 1
vc 1 1 1 1
vc 1 1 1 1
vc 1 1 1 1
vc 1 1 1 1
vc 1 1 1 1
vc 1 1 1 1
vc 1 1 1 1
vc 1 1 1 1
vc 1 1 1 1
vc 1 1 1 1
vc 1 1 1 1
vc 1 1 1 1
vc 1 1 1 1
vc 1 1 1 1
vc 1 1 1 1
vc 1 1 1 1
vc 1 1 1 1
vc 1 1 1 1
vc 1 1 1 1
vc 1 1 1 1
vc 1 1 1 1
vc 1 1 1 1
vc 1 1 1 1
vc 1 1 1 1
vc 1 1 1 1
vc 1 1 1 1
vc 1 1 1 1
vc 1 1 1 1
vc 1 1 1 1
vc 1 1 1 1
vc 1 1 1 1
vc 1 1 1 1
vc 1 1 1 1
vc 1 1 1 1
vc 1 1 1 1
vc 1 1 1 1
vc 1 1 1 1
vc 1 1 1 1
vc 1 1 1 1
vc 1 1 1 1
vc 1 1 1 1
vc 1 1 1 1
vc 1 1 1 1
vc 1 1 1 1
vc 1 1 1 1
vc 1 1 1 1
vc 1 1 1 1
vc 1 1 1 1
vc 1 1 1 1
vc 1 1 1 1
vc 1 1 1 1
vc 1 1 1 1
vc 1 1 1 1
vc 1 1 1 1
vc 1 1 1 1
vc 1 1 1 1
vc 1 1 1 1
vc 1 1 1 1
vc 1 1 1 1
vc 1 1 1 1
vc 1 1 1 1
vc 1 1 1 1
vc 1 1 1 1
vc 1 1 1 1
vc 1 1 1 1
vc 1 1 1 1
vc 1 1 1 1
vc 1 1 1 1
vc 1 1 1 1
vc 1 1 1 1
vc 1 1 1 1
vc 1 1 1 1
vc 1 1 1 1
vc 1 1 1 1
vc 1 1 1 1
vc 1 1 1 1
vc 1 1 1 1
vc 1 1 1 1
vc 1 1 1 1
vc 1 1 1 1
vc 1 1 1 1
vc 1 1 1 1
vc 1 1 1 1
vc 1 1 1 1
vc 1 1 1 1
vc 1 1 1 1
vc 1 1 1 1
vc 1 1 1 1
vc 1 1 1 1
vc 1 1 1 1
vc 1 1 1 1
vc 1 1 1 1
vc 1 1 1 1
vc 1 1 1 1
vc 1 1 1 1
vc 1 1 1 1
vc 1 1 1 1
vc 1 1 1 1
vc 1 1 1 1
vc 1 1 1 1
vc 1 1 1 1
vc 1 1 1 1
vc 1 1 1 1
vc 1 1 1 1
vc 1 1 1 1
vc 1 1 1 1
vc 1 1 1 1
vc 1 1 1 1
vc 1 1 1 1
vc 1 1 1 1
vc 1 1 1 1
vc 1 1 1 1
vc 1 1 1 1
vc 1 1 1 1
vc 1 1 1 1
vc 1 1 1 1
vc 1 1 1 1
vc 1 1 1 1
vc 1 1 1 1
vc 1 1 1 1
vc 1 1 1 1
vc 1 1 1 1
vc 1 1 1 1
vc 1 1 1 1
vc 1 1 1 1
vc 1 1 1 1
vc 1 1 1 1
vc 1 1 1 1
vc 1 1 1 1
vc 1 1 1 1
vc 1 1 1 1
vc 1 1 1 1
vc 1 1 1 1
vc 1 1 1 1
vc 1 1 1 1
vc 1 1 1 1
vc 1 1 1 1
vc 1 1 1 1
vc 1 1 1 1
vc 1 1 1 1
vc 1 1 1 1
vc 1 1 1 1
vc 1 1 1 1
vc 1 1 1 1
vc 1 1 1 1
vc 1 1 1 1
vc 1 1 1 1
vc 1 1 1 1
vc 1 1 1 1
vc 1 1 1 1
vc 1 1 1 1
vc 1 1 1 1
vc 1 1 1 1
vc 1 1 1 1

usemtl Default-Diffuse
usemap Default-Diffuse
f 3/3/3 2/2/2 1/1/1
f 3/3/3 4/4/4 2/2/2
f 7/7/7 6/6/6 5/5/5
f 7/7/7 8/8/8 6/6/6
f 11/11/11 10/10/10 9/9/9
f 11/11/11 12/12/12 10/10/10
f 15/15/15 14/14/14 13/13/13
f 15/15/15 16/16/16 14/14/14
f 19/19/19 18/18/18 17/17/17
f 19/19/19 20/20/20 18/18/18
f 23/23/23 22/22/22 21/21/21
f 23/23/23 24/24/24 22/22/22
f 25/25/25 4/4/4 3/3/3
f 25/25/25 26/26/26 4/4/4
f 27/27/27 8/8/8 7/7/7
f 27/27/27 28/28/28 8/8/8
f 29/29/29 12/12/12 11/11/11
f 29/29/29 30/30/30 12/12/12
f 31/31/31 16/16/16 15/15/15
f 31/31/31 32/32/32 16/16/16
f 33/33/33 20/20/20 19/19/19
f 33/33/33 34/34/34 20/20/20
f 35/35/35 24/24/24 23/23/23
f 35/35/35 36/36/36 24/24/24
f 37/37/37 26/26/26 25/25/25
f 37/37/37 38/38/38 26/26/26
f 39/39/39 28/28/28 27/27/27
f 39/39/39 40/40/40 28/28/28
f 41/41/41 30/30/30 29/29/29
f 41/41/41 42/42/42 30/30/30
f 43/43/43 32/32/32 31/31/31
f 43/43/43 44/44/44 32/32/32
f 45/45/45 34/34/34 33/33/33
f 45/45/45 46/46/46 34/34/34
f 47/47/47 36/36/36 35/35/35
f 47/47/47 48/48/48 36/36/36
f 49/49/49 38/38/38 37/37/37
f 49/49/49 50/50/50 38/38/38
f 51/51/51 40/40/40 39/39/39
f 51/51/51 52/52/52 40/40/40
f 53/53/53 42/42/42 41/41/41
f 53/53/53 54/54/54 42/42/42
f 55/55/55 44/44/44 43/43/43
f 55/55/55 56/56/56 44/44/44
f 57/57/57 46/46/46 45/45/45
f 57/57/57 58/58/58 46/46/46
f 59/59/59 48/48/48 47/47/47
f 59/59/59 60/60/60 48/48/48
f 61/61/61 50/50/50 49/49/49
f 61/61/61 62/62/62 50/50/50
f 63/63/63 52/52/52 51/51/51
f 63/63/63 64/64/64 52/52/52
f 65/65/65 54/54/54 53/53/53
f 65/65/65 66/66/66 54/54/54
f 67/67/67 56/56/56 55/55/55
f 67/67/67 68/68/68 56/56/56
f 69/69/69 58/58/58 57/57/57
f 69/69/69 70/70/70 58/58/58
f 71/71/71 60/60/60 59/59/59
f 71/71/71 72/72/72 60/60/60
f 73/73/73 62/62/62 61/61/61
f 73/73/73 74/74/74 62/62/62
f 75/75/75 64/64/64 63/63/63
f 75/75/75 76/76/76 64/64/64
f 77/77/77 66/66/66 65/65/65
f 77/77/77 78/78/78 66/66/66
f 79/79/79 68/68/68 67/67/67
f 79/79/79 80/80/80 68/68/68
f 81/81/81 70/70/70 69/69/69
f 81/81/81 82/82/82 70/70/70
f 83/83/83 72/72/72 71/71/71
f 83/83/83 84/84/84 72/72/72
f 85/85/85 74/74/74 73/73/73
f 85/85/85 86/86/86 74/74/74
f 86/86/86 87/87/87 74/74/74
f 86/86/86 88/88/88 87/87/87
f 89/89/89 78/78/78 77/77/77
f 89/89/89 90/90/90 78/78/78
f 91/91/91 80/80/80 79/79/79
f 91/91/91 92/92/92 80/80/80
f 93/93/93 82/82/82 81/81/81
f 93/93/93 94/94/94 82/82/82
f 95/95/95 84/84/84 83/83/83
f 95/95/95 96/96/96 84/84/84
f 97/97/97 86/86/86 85/85/85
f 97/97/97 98/98/98 86/86/86
f 98/98/98 88/88/88 86/86/86
f 98/98/98 99/99/99 88/88/88
f 100/100/100 90/90/90 89/89/89
f 100/100/100 101/101/101 90/90/90
f 102/102/102 92/92/92 91/91/91
f 102/102/102 103/103/103 92/92/92
f 104/104/104 94/94/94 93/93/93
f 104/104/104 105/105/105 94/94/94
f 106/106/106 96/96/96 95/95/95
f 106/106/106 107/107/107 96/96/96
f 108/108/108 98/98/98 97/97/97
f 108/108/108 109/109/109 98/98/98
f 109/109/109 99/99/99 98/98/98
f 109/109/109 110/110/110 99/99/99
f 111/111/111 101/101/101 100/100/100
f 111/111/111 112/112/112 101/101/101
f 113/113/113 103/103/103 102/102/102
f 113/113/113 114/114/114 103/103/103
f 115/115/115 105/105/105 104/104/104
f 115/115/115 116/116/116 105/105/105
f 117/117/117 107/107/107 106/106/106
f 117/117/117 118/118/118 107/107/107
f 121/121/121 120/120/120 119/119/119
f 123/123/123 122/122/122 109/109/109
f 122/122/122 110/110/110 109/109/109
f 122/122/122 124/124/124 110/110/110
f 125/125/125 112/112/112 111/111/111
f 125/125/125 126/126/126 112/112/112
f 127/127/127 114/114/114 113/113/113
f 127/127/127 128/128/128 114/114/114
f 129/129/129 116/116/116 115/115/115
f 129/129/129 130/130/130 116/116/116
f 131/131/131 118/118/118 117/117/117
f 131/131/131 132/132/132 118/118/118
f 133/133/133 122/122/122 123/123/123
f 133/133/133 134/134/134 122/122/122
f 137/137/137 136/136/136 135/135/135
f 137/137/137 138/138/138 136/136/136
f 139/139/139 126/126/126 125/125/125
f 139/139/139 140/140/140 126/126/126
f 141/141/141 128/128/128 127/127/127
f 141/141/141 142/142/142 128/128/128
f 143/143/143 130/130/130 129/129/129
f 143/143/143 144/144/144 130/130/130
f 145/145/145 132/132/132 131/131/131
f 145/145/145 146/146/146 132/132/132
f 147/147/147 134/134/134 133/133/133
f 147/147/147 148/148/148 134/134/134
f 149/149/149 138/138/138 137/137/137
f 149/149/149 150/150/150 138/138/138
f 151/151/151 140/140/140 139/139/139
f 151/151/151 152/152/152 140/140/140
f 153/153/153 142/142/142 141/141/141
f 153/153/153 154/154/154 142/142/142
f 155/155/155 144/144/144 143/143/143
f 155/155/155 156/156/156 144/144/144
f 157/157/157 146/146/146 145/145/145
f 157/157/157 158/158/158 146/146/146
f 159/159/159 148/148/148 147/147/147
f 159/159/159 160/160/160 148/148/148
f 161/161/161 150/150/150 149/149/149
f 161/161/161 162/162/162 150/150/150
f 163/163/163 152/152/152 151/151/151
f 163/163/163 164/164/164 152/152/152
f 165/165/165 154/154/154 153/153/153
f 165/165/165 166/166/166 154/154/154
f 167/167/167 156/156/156 155/155/155
f 167/167/167 168/168/168 156/156/156
f 169/169/169 158/158/158 157/157/157
f 169/169/169 170/170/170 158/158/158
f 171/171/171 160/160/160 159/159/159
f 171/171/171 172/172/172 160/160/160
f 173/173/173 162/162/162 161/161/161
f 173/173/173 174/174/174 162/162/162
f 175/175/175 164/164/164 163/163/163
f 175/175/175 176/176/176 164/164/164
f 177/177/177 166/166/166 165/165/165
f 177/177/177 178/178/178 166/166/166
f 179/179/179 168/168/168 167/167/167
f 179/179/179 180/180/180 168/168/168
f 181/181/181 170/170/170 169/169/169
f 181/181/181 182/182/182 170/170/170
f 183/183/183 172/172/172 171/171/171
f 183/183/183 184/184/184 172/172/172
f 185/185/185 174/174/174 173/173/173
f 185/185/185 186/186/186 174/174/174
f 187/187/187 176/176/176 175/175/175
f 187/187/187 188/188/188 176/176/176
f 189/189/189 178/178/178 177/177/177
f 189/189/189 190/190/190 178/178/178
f 191/191/191 180/180/180 179/179/179
f 191/191/191 192/192/192 180/180/180
f 193/193/193 182/182/182 181/181/181
f 193/193/193 194/194/194 182/182/182
f 195/195/195 184/184/184 183/183/183
f 195/195/195 196/196/196 184/184/184
f 197/197/197 186/186/186 185/185/185
f 197/197/197 198/198/198 186/186/186
f 199/199/199 188/188/188 187/187/187
f 199/199/199 200/200/200 188/188/188
f 201/201/201 190/190/190 189/189/189
f 201/201/201 202/202/202 190/190/190
f 203/203/203 192/192/192 191/191/191
f 203/203/203 204/204/204 192/192/192
f 205/205/205 194/194/194 193/193/193
f 205/205/205 206/206/206 194/194/194
f 207/207/207 196/196/196 195/195/195
f 207/207/207 208/208/208 196/196/196
f 209/209/209 198/198/198 197/197/197
f 209/209/209 210/210/210 198/198/198
f 211/211/211 200/200/200 199/199/199
f 211/211/211 212/212/212 200/200/200
f 213/213/213 202/202/202 201/201/201
f 213/213/213 214/214/214 202/202/202
f 215/215/215 204/204/204 203/203/203
f 215/215/215 216/216/216 204/204/204
f 217/217/217 206/206/206 205/205/205
f 217/217/217 218/218/218 206/206/206
f 219/219/219 208/208/208 207/207/207
f 219/219/219 220/220/220 208/208/208
f 221/221/221 210/210/210 209/209/209
f 221/221/221 222/222/222 210/210/210
f 223/223/223 212/212/212 211/211/211
f 223/223/223 224/224/224 212/212/212
f 225/225/225 214/214/214 213/213/213
f 225/225/225 226/226/226 214/214/214
f 227/227/227 216/216/216 215/215/215
f 227/227/227 228/228/228 216/216/216
f 229/229/229 218/218/218 217/217/217
f 229/229/229 230/230/230 218/218/218
f 231/231/231 220/220/220 219/219/219
f 231/231/231 232/232/232 220/220/220
f 233/233/233 222/222/222 221/221/221
f 233/233/233 234/234/234 222/222/222
f 235/235/235 224/224/224 223/223/223
f 235/235/235 236/236/236 224/224/224
f 237/237/237 226/226/226 225/225/225
f 237/237/237 238/238/238 226/226/226
f 239/239/239 228/228/228 227/227/227
f 239/239/239 240/240/240 228/228/228
f 241/241/241 230/230/230 229/229/229
f 241/241/241 242/242/242 230/230/230
f 243/243/243 232/232/232 231/231/231
f 243/243/243 244/244/244 232/232/232
f 245/245/245 234/234/234 233/233/233
f 245/245/245 246/246/246 234/234/234
f 247/247/247 236/236/236 235/235/235
f 247/247/247 248/248/248 236/236/236
f 249/249/249 238/238/238 237/237/237
f 249/249/249 250/250/250 238/238/238
f 251/251/251 240/240/240 239/239/239
f 251/251/251 252/252/252 240/240/240
f 253/253/253 242/242/242 241/241/241
f 253/253/253 254/254/254 242/242/242
f 255/255/255 244/244/244 243/243/243
f 255/255/255 256/256/256 244/244/244
f 257/257/257 246/246/246 245/245/245
f 257/257/257 258/258/258 246/246/246
f 259/259/259 248/248/248 247/247/247
f 259/259/259 260/260/260 248/248/248
f 261/261/261 250/250/250 249/249/249
f 261/261/261 262/262/262 250/250/250
f 263/263/263 252/252/252 251/251/251
f 263/263/263 264/264/264 252/252/252
f 265/265/265 254/254/254 253/253/253
f 265/265/265 266/266/266 254/254/254
f 267/267/267 256/256/256 255/255/255
f 267/267/267 268/268/268 256/256/256
f 269/269/269 258/258/258 257/257/257
f 269/269/269 270/270/270 258/258/258
f 271/271/271 260/260/260 259/259/259
f 271/271/271 272/272/272 260/260/260
f 273/273/273 262/262/262 261/261/261
f 273/273/273 274/274/274 262/262/262
f 275/275/275 264/264/264 263/263/263
f 275/275/275 276/276/276 264/264/264
f 277/277/277 266/266/266 265/265/265
f 277/277/277 278/278/278 266/266/266
