g tube
v -1.953983 0.8267197 -3.426163
v -1.953541 0.8254215 -3.425556
v -1.944395 0.8262905 -3.434069
v -1.943938 0.8249918 -3.433473
v -1.952586 0.8254215 -3.424399
v -1.942976 0.8249918 -3.432323
v -1.952586 0.8254215 -3.424399
v -1.952075 0.8267197 -3.423849
v -1.942976 0.8249918 -3.432323
v -1.942471 0.8262905 -3.431767
v -1.952517 0.828018 -3.424456
v -1.942927 0.8275892 -3.432363
v -1.952517 0.828018 -3.424456
v -1.953471 0.828018 -3.425613
v -1.942927 0.8275892 -3.432363
v -1.943889 0.8275892 -3.433514
v -1.953471 0.828018 -3.425613
v -1.953983 0.8267197 -3.426163
v -1.943889 0.8275892 -3.433514
v -1.944395 0.8262905 -3.434069
v -1.92052 0.8258358 -3.454308
v -1.920026 0.8245368 -3.453743
v -1.919043 0.8245368 -3.45261
v -1.919043 0.8245368 -3.45261
v -1.918554 0.8258358 -3.452041
v -1.919047 0.8271348 -3.452606
v -1.919047 0.8271348 -3.452606
v -1.92003 0.8271348 -3.453739
v -1.92003 0.8271348 -3.453739
v -1.92052 0.8258358 -3.454308
v -1.889697 0.8266046 -3.481653
v -1.889143 0.825307 -3.481144
v -1.888125 0.825307 -3.480042
v -1.888125 0.825307 -3.480042
v -1.887662 0.8266046 -3.479449
v -1.888216 0.8279022 -3.479958
v -1.888216 0.8279022 -3.479958
v -1.889233 0.8279022 -3.48106
v -1.889233 0.8279022 -3.48106
v -1.889697 0.8266046 -3.481653
v -1.859283 0.8298463 -3.510862
v -1.858617 0.8285596 -3.510473
v -1.857533 0.8285596 -3.509436
v -1.857533 0.8285596 -3.509436
v -1.857115 0.8298463 -3.508789
v -1.85778 0.8311329 -3.509178
v -1.85778 0.8311329 -3.509178
v -1.858864 0.8311329 -3.510215
v -1.858864 0.8311329 -3.510215
v -1.859283 0.8298463 -3.510862
v -1.836665 0.8368098 -3.536633
v -1.835793 0.8355907 -3.536573
v -1.834562 0.8355907 -3.535716
v -1.834562 0.8355907 -3.535716
v -1.834203 0.8368098 -3.534919
v -1.835075 0.8380288 -3.534979
v -1.835075 0.8380288 -3.534979
v -1.836305 0.8380288 -3.535836
v -1.836305 0.8380288 -3.535836
v -1.836665 0.8368098 -3.536633
v -1.82731 0.848051 -3.554475
v -1.826329 0.8470057 -3.554917
v -1.824934 0.8470057 -3.554365
v -1.824934 0.8470057 -3.554365
v -1.834203 0.8368098 -3.534919
v -1.82452 0.848051 -3.553372
v -1.824934 0.8470057 -3.554365
v -1.82452 0.848051 -3.553372
v -1.825501 0.8490963 -3.552931
v -1.825501 0.8490963 -3.552931
v -1.826896 0.8490963 -3.553482
v -1.826896 0.8490963 -3.553482
v -1.82731 0.848051 -3.554475
v -1.824317 0.8601281 -3.566345
v -1.823458 0.8592822 -3.567238
v -1.821968 0.8592822 -3.567064
v -1.821968 0.8592822 -3.567064
v -1.821337 0.8601281 -3.565998
v -1.821337 0.8601281 -3.565998
v -1.822196 0.860974 -3.565106
v -1.822196 0.860974 -3.565106
v -1.823686 0.860974 -3.565279
v -1.823686 0.860974 -3.565279
v -1.824317 0.8601281 -3.566345
v -1.824712 0.8722348 -3.574552
v -1.824173 0.8715223 -3.575757
v -1.822698 0.8715223 -3.57603
v -1.822698 0.8715223 -3.57603
v -1.821762 0.8722348 -3.575099
v -1.821762 0.8722348 -3.575099
v -1.822301 0.8729473 -3.573895
v -1.822301 0.8729473 -3.573895
v -1.823776 0.8729473 -3.573621
v -1.823776 0.8729473 -3.573621
v -1.824712 0.8722348 -3.574552
v -1.827052 0.8842 -3.581208
v -1.826743 0.8835053 -3.582502
v -1.825343 0.8835053 -3.583038
v -1.825343 0.8835053 -3.583038
v -1.82425 0.8842 -3.58228
v -1.82425 0.8842 -3.58228
v -1.824558 0.8848947 -3.580987
v -1.824558 0.8848947 -3.580987
v -1.825959 0.8848947 -3.580451
v -1.825959 0.8848947 -3.580451
v -1.827052 0.8842 -3.581208
v -1.830009 0.8958515 -3.588347
v -1.829597 0.8950831 -3.589567
v -1.828163 0.8950831 -3.590005
v -1.828163 0.8950831 -3.590005
v -1.82714 0.8958515 -3.589221
v -1.82714 0.8958515 -3.589221
v -1.827552 0.8966199 -3.588001
v -1.827552 0.8966199 -3.588001
v -1.828987 0.8966199 -3.587564
v -1.828987 0.8966199 -3.587564
v -1.830009 0.8958515 -3.588347
v -1.832008 0.907023 -3.59766
v -1.831353 0.9061142 -3.598658
v -1.82986 0.9061088 -3.5988
v -1.82986 0.9061088 -3.5988
v -1.829021 0.9070122 -3.597945
v -1.829021 0.9070122 -3.597945
v -1.829676 0.907921 -3.596948
v -1.829676 0.907921 -3.596948
v -1.831169 0.9079264 -3.596805
v -1.831169 0.9079264 -3.596805
v -1.832008 0.907023 -3.59766
v -1.831883 0.9189969 -3.611754
v -1.831106 0.9179679 -3.612521
v -1.829608 0.9179505 -3.612447
v -1.829608 0.9179505 -3.612447
v -1.828887 0.9189621 -3.611607
v -1.828887 0.9189621 -3.611607
v -1.829664 0.9199911 -3.61084
v -1.829664 0.9199911 -3.61084
v -1.831162 0.9200085 -3.610914
v -1.831162 0.9200085 -3.610914
v -1.831883 0.9189969 -3.611754
v -1.829948 0.9323246 -3.630326
v -1.829139 0.9312389 -3.630971
v -1.827649 0.9312093 -3.630797
v -1.827649 0.9312093 -3.630797
v -1.826969 0.9322652 -3.629977
v -1.826969 0.9322652 -3.629977
v -1.827779 0.9333509 -3.629331
v -1.827779 0.9333509 -3.629331
v -1.829268 0.9333805 -3.629506
v -1.829268 0.9333805 -3.629506
v -1.829948 0.9323246 -3.630326
v -1.826762 0.9457489 -3.650593
v -1.82594 0.9446357 -3.651172
v -1.82446 0.9445936 -3.650932
v -1.82446 0.9445936 -3.650932
v -1.823802 0.9456648 -3.650114
v -1.823802 0.9456648 -3.650114
v -1.824624 0.946778 -3.649535
v -1.824624 0.946778 -3.649535
v -1.826104 0.9468201 -3.649775
v -1.826104 0.9468201 -3.649775
v -1.826762 0.9457489 -3.650593
v -1.822867 0.9580132 -3.669736
v -1.82203 0.9568877 -3.670267
v -1.820563 0.956833 -3.669957
v -1.820563 0.956833 -3.669957
v -1.819934 0.9579037 -3.669116
v -1.819934 0.9579037 -3.669116
v -1.820771 0.9590292 -3.668585
v -1.820771 0.9590292 -3.668585
v -1.822238 0.9590839 -3.668895
v -1.822238 0.9590839 -3.668895
v -1.822867 0.9580132 -3.669736
v -1.818789 0.967832 -3.684953
v -1.817892 0.9667184 -3.685405
v -1.816461 0.9666792 -3.684957
v -1.819934 0.9579037 -3.669116
v -1.815928 0.9677535 -3.684056
v -1.816461 0.9666792 -3.684957
v -1.816825 0.9688671 -3.683604
v -1.816825 0.9688671 -3.683604
v -1.818256 0.9689063 -3.684052
v -1.818256 0.9689063 -3.684052
v -1.818789 0.967832 -3.684953
v -1.815028 0.9742387 -3.694398
v -1.814065 0.9731258 -3.694687
v -1.812687 0.9731531 -3.694095
v -1.812687 0.9731531 -3.694095
v -1.812273 0.9742935 -3.693213
v -1.813236 0.9754065 -3.692924
v -1.818256 0.9689063 -3.684052
v -1.814613 0.9753791 -3.693516
v -1.813236 0.9754065 -3.692924
v -1.815028 0.9742387 -3.694398
v -1.811444 0.9786211 -3.70261
v -1.810456 0.9774964 -3.702701
v -1.809126 0.97761 -3.702018
v -1.809126 0.97761 -3.702018
v -1.808783 0.9788483 -3.701244
v -1.809772 0.9799731 -3.701153
v -1.809772 0.9799731 -3.701153
v -1.811102 0.9798595 -3.701836
v -1.811444 0.9786211 -3.70261
v -1.807462 0.9819455 -3.710439
v -1.806466 0.9808292 -3.710336
v -1.805218 0.9810103 -3.709523
v -1.805218 0.9810103 -3.709523
v -1.804967 0.9823076 -3.708813
v -1.805964 0.9834239 -3.708916
v -1.805964 0.9834239 -3.708916
v -1.807212 0.9832428 -3.709729
v -1.807462 0.9819455 -3.710439
v -1.802527 0.9849291 -3.717702
v -1.801548 0.9838278 -3.717421
v -1.80045 0.9840371 -3.71642
v -1.80045 0.9840371 -3.71642
v -1.800332 0.9853477 -3.7157
v -1.801311 0.986449 -3.715981
v -1.801311 0.986449 -3.715981
v -1.802408 0.9862397 -3.716982
v -1.802527 0.9849291 -3.717702
v -1.796108 0.9882853 -3.724148
v -1.795178 0.9871868 -3.723726
v -1.794301 0.9873682 -3.722523
v -1.794301 0.9873682 -3.722523
v -1.794354 0.9886481 -3.721742
v -1.795284 0.9897465 -3.722165
v -1.795284 0.9897465 -3.722165
v -1.796161 0.9895651 -3.723368
v -1.796108 0.9882853 -3.724148
v -1.787844 0.9926623 -3.729446
v -1.786949 0.9915568 -3.728969
v -1.7862 0.9917022 -3.727678
v -1.7862 0.9917022 -3.727678
v -1.786346 0.9929531 -3.726863
v -1.787241 0.9940586 -3.72734
v -1.787241 0.9940586 -3.72734
v -1.78799 0.9939132 -3.728631
v -1.787844 0.9926623 -3.729446

vn -0.636189 0 -0.7715332
vn -0.3410953 -0.8654936 -0.3668444
vn -0.641403 0 -0.7672041
vn -0.3369591 -0.8657624 -0.3700192
vn 0.2950023 -0.8654962 0.4048333
vn 0.3044546 -0.8657606 0.3971977
vn 0.2950023 -0.8654962 0.4048333
vn 0.636189 0 0.7715332
vn 0.3044546 -0.8657606 0.3971977
vn 0.641403 0 0.7672041
vn 0.3410953 0.8654936 0.3668444
vn 0.3369591 0.8657624 0.3700192
vn 0.3410953 0.8654936 0.3668444
vn -0.2950023 0.8654962 -0.4048333
vn 0.3369591 0.8657624 0.3700192
vn -0.3044546 0.8657606 -0.3971977
vn -0.2950023 0.8654962 -0.4048333
vn -0.636189 0 -0.7715332
vn -0.3044546 0.8657606 -0.3971977
vn -0.641403 0 -0.7672041
vn -0.6551786 0 -0.755474
vn -0.3262363 -0.8660163 -0.3789268
vn 0.3289435 -0.8660297 0.3765485
vn 0.3289435 -0.8660297 0.3765485
vn 0.6551786 0 0.755474
vn 0.3262363 0.8660163 0.3789268
vn 0.3262363 0.8660163 0.3789268
vn -0.3289435 0.8660297 -0.3765485
vn -0.3289435 0.8660297 -0.3765485
vn -0.6551786 0 -0.755474
vn -0.67829 0 -0.7347943
vn -0.3088362 -0.8650752 -0.395304
vn 0.3693812 -0.8650417 0.3395001
vn 0.3693812 -0.8650417 0.3395001
vn 0.67829 0 0.7347943
vn 0.3088362 0.8650752 0.395304
vn 0.3088362 0.8650752 0.395304
vn -0.3693812 0.8650417 -0.3395001
vn -0.3693812 0.8650417 -0.3395001
vn -0.67829 0 -0.7347943
vn -0.7226281 0 -0.6912371
vn -0.2790259 -0.8577803 -0.4316915
vn 0.4436239 -0.8578026 0.2595621
vn 0.4436239 -0.8578026 0.2595621
vn 0.7226281 0 0.6912371
vn 0.2790259 0.8577803 0.4316915
vn 0.2790259 0.8577803 0.4316915
vn -0.4436239 0.8578026 -0.2595621
vn -0.4436239 0.8578026 -0.2595621
vn -0.7226281 0 -0.6912371
vn -0.8206556 0 -0.5714231
vn -0.2393726 -0.8127302 -0.5311972
vn 0.5812603 -0.8127234 0.04021298
vn 0.5812603 -0.8127234 0.04021298
vn 0.8206556 0 0.5714231
vn 0.2393726 0.8127302 0.5311972
vn 0.2393726 0.8127302 0.5311972
vn -0.5812603 0.8127234 -0.04021298
vn -0.5812603 0.8127234 -0.04021298
vn -0.8206556 0 -0.5714231
vn -0.9299708 0 -0.3676333
vn -0.2760027 -0.6968412 -0.6619931
vn 0.6539966 -0.6968732 -0.294374
vn 0.6539966 -0.6968732 -0.294374
vn 0.8206556 0 0.5714231
vn 0.9299708 0 0.3676333
vn 0.6539966 -0.6968732 -0.294374
vn 0.9299708 0 0.3676333
vn 0.2760027 0.6968412 0.6619931
vn 0.2760027 0.6968412 0.6619931
vn -0.6539966 0.6968732 0.294374
vn -0.6539966 0.6968732 0.294374
vn -0.9299708 0 -0.3676333
vn -0.9933017 0 -0.1155501
vn -0.4207169 -0.5639228 -0.7106254
vn 0.5725916 -0.5639292 -0.595082
vn 0.5725916 -0.5639292 -0.595082
vn 0.9933017 0 0.1155501
vn 0.9933017 0 0.1155501
vn 0.4207169 0.5639228 0.7106254
vn 0.4207169 0.5639228 0.7106254
vn -0.5725916 0.5639292 0.595082
vn -0.5725916 0.5639292 0.595082
vn -0.9933017 0 -0.1155501
vn -0.9831812 0 0.1826328
vn -0.6238354 -0.4749891 -0.6206566
vn 0.3593593 -0.4749868 -0.8032736
vn 0.3593593 -0.4749868 -0.8032736
vn 0.9831812 0 -0.1826328
vn 0.9831812 0 -0.1826328
vn 0.6238354 0.4749891 0.6206566
vn 0.6238354 0.4749891 0.6206566
vn -0.3593593 0.4749868 0.8032736
vn -0.3593593 0.4749868 0.8032736
vn -0.9831812 0 0.1826328
vn -0.9339832 0 0.3573169
vn -0.7284631 -0.4631375 -0.5048219
vn 0.205519 -0.4631331 -0.8621309
vn 0.205519 -0.4631331 -0.8621309
vn 0.9339832 0 -0.3573169
vn 0.9339832 0 -0.3573169
vn 0.7284631 0.4631375 0.5048219
vn 0.7284631 0.4631375 0.5048219
vn -0.205519 0.4631331 0.8621309
vn -0.205519 0.4631331 0.8621309
vn -0.9339832 0 0.3573169
vn -0.956566 0 0.2915158
vn -0.6818717 -0.5122779 -0.5221325
vn 0.274674 -0.5123115 -0.8136899
vn 0.274674 -0.5123115 -0.8136899
vn 0.956566 0 -0.2915158
vn 0.956566 0 -0.2915158
vn 0.6818717 0.5122779 0.5221325
vn 0.6818717 0.5122779 0.5221325
vn -0.274674 0.5123115 0.8136899
vn -0.274674 0.5123115 0.8136899
vn -0.956566 0 0.2915158
vn -0.995451 0.00361592 0.09520599
vn -0.5589924 -0.6022241 -0.5699593
vn 0.4364552 -0.6058478 -0.665173
vn 0.4364552 -0.6058478 -0.665173
vn 0.995451 -0.00361592 -0.09520599
vn 0.995451 -0.00361592 -0.09520599
vn 0.5589924 0.6022241 0.5699593
vn 0.5589924 0.6022241 0.5699593
vn -0.4364552 0.6058478 0.665173
vn -0.4364552 0.6058478 0.665173
vn -0.995451 0.00361592 0.09520599
vn -0.9987258 0.01160293 -0.04911375
vn -0.4808909 -0.6744075 -0.5602844
vn 0.5178278 -0.6859867 -0.5111523
vn 0.5178278 -0.6859867 -0.5111523
vn 0.9987258 -0.01160293 0.04911375
vn 0.9987258 -0.01160293 0.04911375
vn 0.4808909 0.6744075 0.5602844
vn 0.4808909 0.6744075 0.5602844
vn -0.5178278 0.6859867 0.5111523
vn -0.5178278 0.6859867 0.5111523
vn -0.9987258 0.01160293 -0.04911375
vn -0.9929931 0.01978834 -0.1165048
vn -0.4534724 -0.703971 -0.5466146
vn 0.5395247 -0.7237372 -0.4302529
vn 0.5395247 -0.7237372 -0.4302529
vn 0.9929931 -0.01978834 0.1165048
vn 0.9929931 -0.01978834 0.1165048
vn 0.4534724 0.703971 0.5466146
vn 0.4534724 0.703971 0.5466146
vn -0.5395247 0.7237372 0.4302529
vn -0.5395247 0.7237372 0.4302529
vn -0.9929931 0.01978834 -0.1165048
vn -0.9867597 0.02805462 -0.1597444
vn -0.4386979 -0.7141159 -0.5455112
vn 0.5480552 -0.7421713 -0.3857685
vn 0.5480552 -0.7421713 -0.3857685
vn 0.9867597 -0.02805462 0.1597444
vn 0.9867597 -0.02805462 0.1597444
vn 0.4386979 0.7141159 0.5455112
vn 0.4386979 0.7141159 0.5455112
vn -0.5480552 0.7421713 0.3857685
vn -0.5480552 0.7421713 0.3857685
vn -0.9867597 0.02805462 -0.1597444
vn -0.9777397 0.03647749 -0.2066263
vn -0.4194696 -0.7138454 -0.5607764
vn 0.5582803 -0.7502811 -0.3541206
vn 0.5582803 -0.7502811 -0.3541206
vn 0.9777397 -0.03647749 0.2066263
vn 0.9777397 -0.03647749 0.2066263
vn 0.4194696 0.7138454 0.5607764
vn 0.4194696 0.7138454 0.5607764
vn -0.5582803 0.7502811 0.3541206
vn -0.5582803 0.7502811 0.3541206
vn -0.9777397 0.03647749 -0.2066263
vn -0.9539021 0.02618601 -0.2989736
vn -0.3556352 -0.7161976 -0.600487
vn 0.5982733 -0.7423977 -0.3015208
vn 0.9777397 -0.03647749 0.2066263
vn 0.9539021 -0.02618601 0.2989736
vn 0.5982733 -0.7423977 -0.3015208
vn 0.3556352 0.7161976 0.600487
vn 0.3556352 0.7161976 0.600487
vn -0.5982733 0.7423977 0.3015208
vn -0.5982733 0.7423977 0.3015208
vn -0.9539021 0.02618601 -0.2989736
vn -0.9185717 -0.01827924 -0.3948317
vn -0.276501 -0.7602784 -0.587813
vn 0.6420491 -0.7419843 -0.1929564
vn 0.6420491 -0.7419843 -0.1929564
vn 0.9185717 0.01827924 0.3948317
vn 0.276501 0.7602784 0.587813
vn -0.5982733 0.7423977 0.3015208
vn -0.6420491 0.7419843 0.1929564
vn 0.276501 0.7602784 0.587813
vn -0.9185717 -0.01827924 -0.3948317
vn -0.8870544 -0.07574257 -0.4554092
vn -0.2281698 -0.8255757 -0.516104
vn 0.6588355 -0.7498327 -0.06071777
vn 0.6588355 -0.7498327 -0.06071777
vn 0.8870544 0.07574257 0.4554092
vn 0.2281698 0.8255757 0.516104
vn 0.2281698 0.8255757 0.516104
vn -0.6588355 0.7498327 0.06071777
vn -0.8870544 -0.07574257 -0.4554092
vn -0.8316669 -0.1207169 -0.5419941
vn -0.1672052 -0.8648737 -0.4733243
vn 0.6644565 -0.7441659 0.06866289
vn 0.6644565 -0.7441659 0.06866289
vn 0.8316669 0.1207169 0.5419941
vn 0.1672052 0.8648737 0.4733243
vn 0.1672052 0.8648737 0.4733243
vn -0.6644565 0.7441659 -0.06866289
vn -0.8316669 -0.1207169 -0.5419941
vn -0.7315234 -0.13951 -0.6673909
vn -0.07899403 -0.8737026 -0.480004
vn 0.6525498 -0.7342079 0.1873965
vn 0.6525498 -0.7342079 0.1873965
vn 0.7315234 0.13951 0.6673909
vn 0.07899403 0.8737026 0.480004
vn 0.07899403 0.8737026 0.480004
vn -0.6525498 0.7342079 -0.1873965
vn -0.7315234 -0.13951 -0.6673909
vn -0.5848618 -0.1209223 -0.8020689
vn 0.03520597 -0.8532083 -0.5203808
vn 0.6199817 -0.7323191 0.2816581
vn 0.6199817 -0.7323191 0.2816581
vn 0.5848618 0.1209223 0.8020689
vn -0.03520597 0.8532083 0.5203808
vn -0.03520597 0.8532083 0.5203808
vn -0.6199817 0.7323191 -0.2816581
vn -0.5848618 -0.1209223 -0.8020689
vn -0.4994993 -0.09695928 -0.8608713
vn 0.09711336 -0.8339272 -0.5432627
vn 0.5965892 -0.7369748 0.3177253
vn 0.5965892 -0.7369748 0.3177253
vn 0.4994993 0.09695928 0.8608713
vn -0.09711336 0.8339272 0.5432627
vn -0.09711336 0.8339272 0.5432627
vn -0.5965892 0.7369748 -0.3177253
vn -0.4994993 -0.09695928 -0.8608713

vt 1 0
vt 0.8333333 0
vt 1 0.04545455
vt 0.8333333 0.04545455
vt 0.6666666 0
vt 0.6666666 0.04545455
vt 0.6666666 0
vt 0.5 0
vt 0.6666666 0.04545455
vt 0.5 0.04545455
vt 0.3333333 0
vt 0.3333333 0.04545455
vt 0.3333333 0
vt 0.1666667 0
vt 0.3333333 0.04545455
vt 0.1666667 0.04545455
vt 0.1666667 0
vt 0 0
vt 0.1666667 0.04545455
vt 0 0.04545455
vt 1 0.09090909
vt 0.8333333 0.09090909
vt 0.6666666 0.09090909
vt 0.6666666 0.09090909
vt 0.5 0.09090909
vt 0.3333333 0.09090909
vt 0.3333333 0.09090909
vt 0.1666667 0.09090909
vt 0.1666667 0.09090909
vt 0 0.09090909
vt 1 0.1363636
vt 0.8333333 0.1363636
vt 0.6666666 0.1363636
vt 0.6666666 0.1363636
vt 0.5 0.1363636
vt 0.3333333 0.1363636
vt 0.3333333 0.1363636
vt 0.1666667 0.1363636
vt 0.1666667 0.1363636
vt 0 0.1363636
vt 1 0.1818182
vt 0.8333333 0.1818182
vt 0.6666666 0.1818182
vt 0.6666666 0.1818182
vt 0.5 0.1818182
vt 0.3333333 0.1818182
vt 0.3333333 0.1818182
vt 0.1666667 0.1818182
vt 0.1666667 0.1818182
vt 0 0.1818182
vt 1 0.2272727
vt 0.8333333 0.2272727
vt 0.6666666 0.2272727
vt 0.6666666 0.2272727
vt 0.5 0.2272727
vt 0.3333333 0.2272727
vt 0.3333333 0.2272727
vt 0.1666667 0.2272727
vt 0.1666667 0.2272727
vt 0 0.2272727
vt 1 0.2727273
vt 0.8333333 0.2727273
vt 0.6666666 0.2727273
vt 0.6666666 0.2727273
vt 0.5 0.2272727
vt 0.5 0.2727273
vt 0.6666666 0.2727273
vt 0.5 0.2727273
vt 0.3333333 0.2727273
vt 0.3333333 0.2727273
vt 0.1666667 0.2727273
vt 0.1666667 0.2727273
vt 0 0.2727273
vt 1 0.3181818
vt 0.8333333 0.3181818
vt 0.6666666 0.3181818
vt 0.6666666 0.3181818
vt 0.5 0.3181818
vt 0.5 0.3181818
vt 0.3333333 0.3181818
vt 0.3333333 0.3181818
vt 0.1666667 0.3181818
vt 0.1666667 0.3181818
vt 0 0.3181818
vt 1 0.3636364
vt 0.8333333 0.3636364
vt 0.6666666 0.3636364
vt 0.6666666 0.3636364
vt 0.5 0.3636364
vt 0.5 0.3636364
vt 0.3333333 0.3636364
vt 0.3333333 0.3636364
vt 0.1666667 0.3636364
vt 0.1666667 0.3636364
vt 0 0.3636364
vt 1 0.4090909
vt 0.8333333 0.4090909
vt 0.6666666 0.4090909
vt 0.6666666 0.4090909
vt 0.5 0.4090909
vt 0.5 0.4090909
vt 0.3333333 0.4090909
vt 0.3333333 0.4090909
vt 0.1666667 0.4090909
vt 0.1666667 0.4090909
vt 0 0.4090909
vt 1 0.4545455
vt 0.8333333 0.4545455
vt 0.6666666 0.4545455
vt 0.6666666 0.4545455
vt 0.5 0.4545455
vt 0.5 0.4545455
vt 0.3333333 0.4545455
vt 0.3333333 0.4545455
vt 0.1666667 0.4545455
vt 0.1666667 0.4545455
vt 0 0.4545455
vt 1 0.5
vt 0.8333333 0.5
vt 0.6666666 0.5
vt 0.6666666 0.5
vt 0.5 0.5
vt 0.5 0.5
vt 0.3333333 0.5
vt 0.3333333 0.5
vt 0.1666667 0.5
vt 0.1666667 0.5
vt 0 0.5
vt 1 0.5454546
vt 0.8333333 0.5454546
vt 0.6666666 0.5454546
vt 0.6666666 0.5454546
vt 0.5 0.5454546
vt 0.5 0.5454546
vt 0.3333333 0.5454546
vt 0.3333333 0.5454546
vt 0.1666667 0.5454546
vt 0.1666667 0.5454546
vt 0 0.5454546
vt 1 0.5909091
vt 0.8333333 0.5909091
vt 0.6666666 0.5909091
vt 0.6666666 0.5909091
vt 0.5 0.5909091
vt 0.5 0.5909091
vt 0.3333333 0.5909091
vt 0.3333333 0.5909091
vt 0.1666667 0.5909091
vt 0.1666667 0.5909091
vt 0 0.5909091
vt 1 0.6363636
vt 0.8333333 0.6363636
vt 0.6666666 0.6363636
vt 0.6666666 0.6363636
vt 0.5 0.6363636
vt 0.5 0.6363636
vt 0.3333333 0.6363636
vt 0.3333333 0.6363636
vt 0.1666667 0.6363636
vt 0.1666667 0.6363636
vt 0 0.6363636
vt 1 0.6818182
vt 0.8333333 0.6818182
vt 0.6666666 0.6818182
vt 0.6666666 0.6818182
vt 0.5 0.6818182
vt 0.5 0.6818182
vt 0.3333333 0.6818182
vt 0.3333333 0.6818182
vt 0.1666667 0.6818182
vt 0.1666667 0.6818182
vt 0 0.6818182
vt 1 0.7272727
vt 0.8333333 0.7272727
vt 0.6666666 0.7272727
vt 0.5 0.6818182
vt 0.5 0.7272727
vt 0.6666666 0.7272727
vt 0.3333333 0.7272727
vt 0.3333333 0.7272727
vt 0.1666667 0.7272727
vt 0.1666667 0.7272727
vt 0 0.7272727
vt 1 0.7727273
vt 0.8333333 0.7727273
vt 0.6666666 0.7727273
vt 0.6666666 0.7727273
vt 0.5 0.7727273
vt 0.3333333 0.7727273
vt 0.1666667 0.7272727
vt 0.1666667 0.7727273
vt 0.3333333 0.7727273
vt 0 0.7727273
vt 1 0.8181818
vt 0.8333333 0.8181818
vt 0.6666666 0.8181818
vt 0.6666666 0.8181818
vt 0.5 0.8181818
vt 0.3333333 0.8181818
vt 0.3333333 0.8181818
vt 0.1666667 0.8181818
vt 0 0.8181818
vt 1 0.8636364
vt 0.8333333 0.8636364
vt 0.6666666 0.8636364
vt 0.6666666 0.8636364
vt 0.5 0.8636364
vt 0.3333333 0.8636364
vt 0.3333333 0.8636364
vt 0.1666667 0.8636364
vt 0 0.8636364
vt 1 0.9090909
vt 0.8333333 0.9090909
vt 0.6666666 0.9090909
vt 0.6666666 0.9090909
vt 0.5 0.9090909
vt 0.3333333 0.9090909
vt 0.3333333 0.9090909
vt 0.1666667 0.9090909
vt 0 0.9090909
vt 1 0.9545454
vt 0.8333333 0.9545454
vt 0.6666666 0.9545454
vt 0.6666666 0.9545454
vt 0.5 0.9545454
vt 0.3333333 0.9545454
vt 0.3333333 0.9545454
vt 0.1666667 0.9545454
vt 0 0.9545454
vt 1 1
vt 0.8333333 1
vt 0.6666666 1
vt 0.6666666 1
vt 0.5 1
vt 0.3333333 1
vt 0.3333333 1
vt 0.1666667 1
vt 0 1

vt2 0.007115931 0.22905
vt2 0.005512565 0.2259835
vt2 0.03253623 0.2157549
vt2 0.03096381 0.2126758
vt2 0.00390625 0.2229122
vt2 0.02938921 0.2095926
vt2 0.9124883 0.4053992
vt2 0.9107343 0.4083765
vt2 0.8877491 0.3908276
vt2 0.886022 0.3938162
vt2 0.9089769 0.4113597
vt2 0.8842923 0.3968096
vt2 0.8103348 0.5307681
vt2 0.8090549 0.5339773
vt2 0.783726 0.5201604
vt2 0.7824683 0.5233784
vt2 0.004725761 0.07712202
vt2 0.00390625 0.0737505
vt2 0.03265831 0.07033457
vt2 0.03185692 0.06695851
vt2 0.09705899 0.1835615
vt2 0.09556544 0.1804465
vt2 0.09406959 0.1773262
vt2 0.8249708 0.3552731
vt2 0.823314 0.3582976
vt2 0.8216544 0.3613276
vt2 0.7163847 0.4943708
vt2 0.7151855 0.4976107
vt2 0.1031482 0.05398837
vt2 0.1023939 0.05060155
vt2 0.1831542 0.1439179
vt2 0.1817985 0.1407489
vt2 0.1804382 0.1375671
vt2 0.7411293 0.3109038
vt2 0.7395961 0.3139822
vt2 0.738057 0.3170745
vt2 0.6269789 0.4624186
vt2 0.6258806 0.4656941
vt2 0.1962954 0.0340957
vt2 0.1956221 0.03069184
vt2 0.2732746 0.1082522
vt2 0.2721994 0.105002
vt2 0.2711167 0.1017125
vt2 0.6530928 0.2697954
vt2 0.6518022 0.2729857
vt2 0.6505193 0.2761599
vt2 0.5339843 0.4332505
vt2 0.5330911 0.4365879
vt2 0.2923885 0.01662409
vt2 0.2918765 0.01319223
vt2 0.3500323 0.08781127
vt2 0.3496396 0.08444926
vt2 0.3492551 0.08102827
vt2 0.5760015 0.2431583
vt2 0.5751226 0.2465267
vt2 0.5746272 0.2499269
vt2 0.4552058 0.415571
vt2 0.454828 0.419005
vt2 0.3724169 0.007373236
vt2 0.3722776 0.00390625
vt2 0.4021414 0.08980785
vt2 0.402673 0.08643182
vt2 0.4032184 0.08305082
vt2 0.5214996 0.2329563
vt2 0.4336782 0.5452058
vt2 0.3792797 0.5413384
vt2 0.3792751 0.5378836
vt2 0.5209185 0.2484673
vt2 0.5216086 0.2518332
vt2 0.4018632 0.4152659
vt2 0.4021858 0.4187057
vt2 0.4252414 0.009588578
vt2 0.425596 0.006136873
vt2 0.439596 0.1012494
vt2 0.4409225 0.09805615
vt2 0.4422431 0.09488858
vt2 0.3380871 0.5401638
vt2 0.3384379 0.5436009
vt2 0.4827057 0.262423
vt2 0.4843273 0.2654524
vt2 0.3625613 0.4221973
vt2 0.3635214 0.4255162
vt2 0.4640209 0.016719
vt2 0.4647199 0.01332024
vt2 0.4687576 0.1181607
vt2 0.4706687 0.1152412
vt2 0.4725619 0.1123464
vt2 0.3033374 0.5442284
vt2 0.3037757 0.5476553
vt2 0.4540775 0.2820468
vt2 0.4562676 0.2846945
vt2 0.3305092 0.4341553
vt2 0.3320288 0.4372582
vt2 0.4966702 0.02529144
vt2 0.4974564 0.0219119
vt2 0.4940704 0.1381536
vt2 0.4962046 0.1353978
vt2 0.4983346 0.1326475
vt2 0.2709712 0.5476553
vt2 0.2713098 0.5510935
vt2 0.4302802 0.3041365
vt2 0.4326392 0.3066347
vt2 0.3023911 0.4502946
vt2 0.3041971 0.4532397
vt2 0.5280257 0.03276023
vt2 0.5287137 0.0293594
vt2 0.5197888 0.1580656
vt2 0.5217531 0.1551882
vt2 0.5237182 0.1523141
vt2 0.2392881 0.5502906
vt2 0.2394814 0.5537401
vt2 0.4071945 0.3259541
vt2 0.4093455 0.3286332
vt2 0.2752832 0.4677007
vt2 0.2769758 0.4707123
vt2 0.560024 0.03837074
vt2 0.5605682 0.03494385
vt2 0.5494672 0.1751133
vt2 0.5509504 0.1719588
vt2 0.552442 0.168795
vt2 0.2066074 0.551888
vt2 0.2066071 0.5553429
vt2 0.380477 0.3448666
vt2 0.3820938 0.3478985
vt2 0.2454028 0.482972
vt2 0.2466897 0.4861783
vt2 0.5939232 0.04253247
vt2 0.5942748 0.03908041
vt2 0.5901327 0.1894587
vt2 0.5911514 0.1861379
vt2 0.592177 0.182801
vt2 0.1650051 0.550719
vt2 0.1648187 0.5541688
vt2 0.3419394 0.3604708
vt2 0.3430243 0.3637311
vt2 0.2050552 0.4959609
vt2 0.2059671 0.4992932
vt2 0.6368122 0.04513079
vt2 0.6369771 0.04166493
vt2 0.6417732 0.2025707
vt2 0.6425478 0.19919
vt2 0.6433261 0.1957979
vt2 0.1128022 0.5469823
vt2 0.1125267 0.5504265
vt2 0.2916335 0.3741776
vt2 0.2924353 0.3775186
vt2 0.1537375 0.5080474
vt2 0.1544493 0.5114281
vt2 0.6899506 0.04652884
vt2 0.6900259 0.04305957
vt2 0.6974106 0.2138063
vt2 0.698038 0.2104
vt2 0.6986676 0.2069832
vt2 0.05683784 0.5421802
vt2 0.05654629 0.5456227
vt2 0.2369581 0.3857161
vt2 0.2376067 0.3890903
vt2 0.0983698 0.5184901
vt2 0.09894171 0.5218971
vt2 0.7466757 0.04732811
vt2 0.7467348 0.04385888
vt2 0.7499387 0.2224428
vt2 0.7504397 0.2190249
vt2 0.7509434 0.2155931
vt2 0.004142524 0.5378836
vt2 0.00390625 0.5413302
vt2 0.1852239 0.394805
vt2 0.185775 0.3981966
vt2 0.04603564 0.5263047
vt2 0.04645409 0.5297341
vt2 0.7999662 0.04829129
vt2 0.800081 0.0448235
vt2 0.792286 0.2276447
vt2 0.7926093 0.2241947
vt2 0.7929277 0.2207739
vt2 0.7514283 0.21218
vt2 0.1430192 0.4013159
vt2 0.1424754 0.3978635
vt2 0.1435625 0.4047616
vt2 0.00390625 0.5305261
vt2 0.004065749 0.5339773
vt2 0.8427114 0.05012628
vt2 0.8429827 0.04666706
vt2 0.8201012 0.22905
vt2 0.8201917 0.2255388
vt2 0.8202789 0.2220547
vt2 0.1154043 0.4026143
vt2 0.1158041 0.4060529
vt2 0.1162068 0.4095022
vt2 0.144292 0.408173
vt2 0.8698984 0.05280928
vt2 0.8695737 0.05618725
vt2 0.8702285 0.0494068
vt2 0.8434024 0.2286195
vt2 0.8432418 0.2251437
vt2 0.8430839 0.2216415
vt2 0.09285911 0.4044138
vt2 0.09295309 0.4078991
vt2 0.09305121 0.4113597
vt2 0.892207 0.05780343
vt2 0.8924755 0.05440838
vt2 0.8927439 0.05101468
vt2 0.8650993 0.226547
vt2 0.8646337 0.2231303
vt2 0.8641672 0.2196778
vt2 0.07160967 0.404323
vt2 0.07148547 0.4078369
vt2 0.07136788 0.4113143
vt2 0.9132482 0.05912306
vt2 0.9136068 0.05573498
vt2 0.9139683 0.05234594
vt2 0.8859863 0.222329
vt2 0.885129 0.2190102
vt2 0.8842659 0.2156713
vt2 0.05068334 0.40332
vt2 0.05048405 0.4068461
vt2 0.05028819 0.4103481
vt2 0.9334595 0.06166293
vt2 0.9341407 0.05832208
vt2 0.9348267 0.05497928
vt2 0.9068993 0.2152077
vt2 0.9055977 0.2120261
vt2 0.9043019 0.2088808
vt2 0.02876172 0.4021623
vt2 0.02861192 0.4056641
vt2 0.02845473 0.4092155
vt2 0.9537577 0.06702123
vt2 0.9549355 0.06380613
vt2 0.9561098 0.06060343
vt2 0.9289516 0.2042498
vt2 0.9273943 0.2011138
vt2 0.9258588 0.1980401
vt2 0.004137003 0.4015065
vt2 0.004027179 0.4049134
vt2 0.00390625 0.4084229
vt2 0.9755033 0.07712202
vt2 0.9769656 0.07398085
vt2 0.9784073 0.0708731


vc 1 1 1 1
vc 1 1 1 1
vc 1 1 1 1
vc 1 1 1 1
vc 1 1 1 1
vc 1 1 1 1
vc 1 1 1 1
vc 1 1 1 1
vc 1 1 1 1
vc 1 1 1 1
vc 1 1 1 1
vc 1 1 1 1
vc 1 1 1 1
vc 1 1 1 1
vc 1 1 1 1
vc 1 1 1 1
vc 1 1 1 1
vc 1 1 1 1
vc 1 1 1 1
vc 1 1 1 1
vc 1 1 1 1
vc 1 1 1 1
vc 1 1 1 1
vc 1 1 1 1
vc 1 1 1 1
vc 1 1 1 1
vc 1 1 1 1
vc 1 1 1 1
vc 1 1 1 1
vc 1 1 1 1
vc 1 1 1 1
vc 1 1 1 1
vc 1 1 1 1
vc 1 1 1 1
vc 1 1 1 1
vc 1 1 1 1
vc 1 1 1 1
vc 1 1 1 1
vc 1 1 1 1
vc 1 1 1 1
vc 1 1 1 1
vc 1 1 1 1
vc 1 1 1 1
vc 1 1 1 1
vc 1 1 1 1
vc 1 1 1 1
vc 1 1 1 1
vc 1 1 1 1
vc 1 1 1 1
vc 1 1 1 1
vc 1 1 1 1
vc 1 1 1 1
vc 1 1 1 1
vc 1 1 1 1
vc 1 1 1 1
vc 1 1 1 1
vc 1 1 1 1
vc 1 1 1 1
vc 1 1 1 1
vc 1 1 1 1
vc 1 1 1 1
vc 1 1 1 1
vc 1 1 1 1
vc 1 1 1 1
vc 1 1 1 1
vc 1 1 1 1
vc 1 1 1 1
vc 1 1 1 1
vc 1 1 1 1
vc 1 1 1 1
vc 1 1 1 1
vc 1 1 1 1
vc 1 1 1 1
vc 1 1 1 1
vc 1 1 1 1
vc 1 1 1 1
vc 1 1 1 1
vc 1 1 1 1
vc 1 1 1 1
vc 1 1 1 1
vc 1 1 1 1
vc 1 1 1 1
vc 1 1 1 1
vc 1 1 1 1
vc 1 1 1 1
vc 1 1 1 1
vc 1 1 1 1
vc 1 1 1 1
vc 1 1 1 1
vc 1 1 1 1
vc 1 1 1 1
vc 1 1 1 1
vc 1 1 1 1
vc 1 1 1 1
vc 1 1 1 1
vc 1 1 1 1
vc 1 1 1 1
vc 1 1 1 1
vc 1 1 1 1
vc 1 1 1 1
vc 1 1 1 1
vc 1 1 1 1
vc 1 1 1 1
vc 1 1 1 1
vc 1 1 1 1
vc 1 1 1 1
vc 1 1 1 1
vc 1 1 1 1
vc 1 1 1 1
vc 1 1 1 1
vc 1 1 1 1
vc 1 1 1 1
vc 1 1 1 1
vc 1 1 1 1
vc 1 1 1 1
vc 1 1 1 1
vc 1 1 1 1
vc 1 1 1 1
vc 1 1 1 1
vc 1 1 1 1
vc 1 1 1 1
vc 1 1 1 1
vc 1 1 1 1
vc 1 1 1 1
vc 1 1 1 1
vc 1 1 1 1
vc 1 1 1 1
vc 1 1 1 1
vc 1 1 1 1
vc 1 1 1 1
vc 1 1 1 1
vc 1 1 1 1
vc 1 1 1 1
vc 1 1 1 1
vc 1 1 1 1
vc 1 1 1 1
vc 1 1 1 1
vc 1 1 1 1
vc 1 1 1 1
vc 1 1 1 1
vc 1 1 1 1
vc 1 1 1 1
vc 1 1 1 1
vc 1 1 1 1
vc 1 1 1 1
vc 1 1 1 1
vc 1 1 1 1
vc 1 1 1 1
vc 1 1 1 1
vc 1 1 1 1
vc 1 1 1 1
vc 1 1 1 1
vc 1 1 1 1
vc 1 1 1 1
vc 1 1 1 1
vc 1 1 1 1
vc 1 1 1 1
vc 1 1 1 1
vc 1 1 1 1
vc 1 1 1 1
vc 1 1 1 1
vc 1 1 1 1
vc 1 1 1 1
vc 1 1 1 1
vc 1 1 1 1
vc 1 1 1 1
vc 1 1 1 1
vc 1 1 1 1
vc 1 1 1 1
vc 1 1 1 1
vc 1 1 1 1
vc 1 1 1 1
vc 1 1 1 1
vc 1 1 1 1
vc 1 1 1 1
vc 1 1 1 1
vc 1 1 1 1
vc 1 1 1 1
vc 1 1 1 1
vc 1 1 1 1
vc 1 1 1 1
vc 1 1 1 1
vc 1 1 1 1
vc 1 1 1 1
vc 1 1 1 1
vc 1 1 1 1
vc 1 1 1 1
vc 1 1 1 1
vc 1 1 1 1
vc 1 1 1 1
vc 1 1 1 1
vc 1 1 1 1
vc 1 1 1 1
vc 1 1 1 1
vc 1 1 1 1
vc 1 1 1 1
vc 1 1 1 1
vc 1 1 1 1
vc 1 1 1 1
vc 1 1 1 1
vc 1 1 1 1
vc 1 1 1 1
vc 1 1 1 1
vc 1 1 1 1
vc 1 1 1 1
vc 1 1 1 1
vc 1 1 1 1
vc 1 1 1 1
vc 1 1 1 1
vc 1 1 1 1
vc 1 1 1 1
vc 1 1 1 1
vc 1 1 1 1
vc 1 1 1 1
vc 1 1 1 1
vc 1 1 1 1
vc 1 1 1 1
vc 1 1 1 1
vc 1 1 1 1
vc 1 1 1 1
vc 1 1 1 1
vc 1 1 1 1
vc 1 1 1 1
vc 1 1 1 1
vc 1 1 1 1
vc 1 1 1 1
vc 1 1 1 1
vc 1 1 1 1
vc 1 1 1 1
vc 1 1 1 1
vc 1 1 1 1
vc 1 1 1 1
vc 1 1 1 1
vc 1 1 1 1
vc 1 1 1 1
vc 1 1 1 1
vc 1 1 1 1
vc 1 1 1 1

usemtl Default-Diffuse
usemap Default-Diffuse
f 3/3/3 2/2/2 1/1/1
f 3/3/3 4/4/4 2/2/2
f 4/4/4 5/5/5 2/2/2
f 4/4/4 6/6/6 5/5/5
f 9/9/9 8/8/8 7/7/7
f 9/9/9 10/10/10 8/8/8
f 10/10/10 11/11/11 8/8/8
f 10/10/10 12/12/12 11/11/11
f 15/15/15 14/14/14 13/13/13
f 15/15/15 16/16/16 14/14/14
f 19/19/19 18/18/18 17/17/17
f 19/19/19 20/20/20 18/18/18
f 21/21/21 4/4/4 3/3/3
f 21/21/21 22/22/22 4/4/4
f 22/22/22 6/6/6 4/4/4
f 22/22/22 23/23/23 6/6/6
f 24/24/24 10/10/10 9/9/9
f 24/24/24 25/25/25 10/10/10
f 25/25/25 12/12/12 10/10/10
f 25/25/25 26/26/26 12/12/12
f 27/27/27 16/16/16 15/15/15
f 27/27/27 28/28/28 16/16/16
f 29/29/29 20/20/20 19/19/19
f 29/29/29 30/30/30 20/20/20
f 31/31/31 22/22/22 21/21/21
f 31/31/31 32/32/32 22/22/22
f 32/32/32 23/23/23 22/22/22
f 32/32/32 33/33/33 23/23/23
f 34/34/34 25/25/25 24/24/24
f 34/34/34 35/35/35 25/25/25
f 35/35/35 26/26/26 25/25/25
f 35/35/35 36/36/36 26/26/26
f 37/37/37 28/28/28 27/27/27
f 37/37/37 38/38/38 28/28/28
f 39/39/39 30/30/30 29/29/29
f 39/39/39 40/40/40 30/30/30
f 41/41/41 32/32/32 31/31/31
f 41/41/41 42/42/42 32/32/32
f 42/42/42 33/33/33 32/32/32
f 42/42/42 43/43/43 33/33/33
f 44/44/44 35/35/35 34/34/34
f 44/44/44 45/45/45 35/35/35
f 45/45/45 36/36/36 35/35/35
f 45/45/45 46/46/46 36/36/36
f 47/47/47 38/38/38 37/37/37
f 47/47/47 48/48/48 38/38/38
f 49/49/49 40/40/40 39/39/39
f 49/49/49 50/50/50 40/40/40
f 51/51/51 42/42/42 41/41/41
f 51/51/51 52/52/52 42/42/42
f 52/52/52 43/43/43 42/42/42
f 52/52/52 53/53/53 43/43/43
f 54/54/54 45/45/45 44/44/44
f 54/54/54 55/55/55 45/45/45
f 55/55/55 46/46/46 45/45/45
f 55/55/55 56/56/56 46/46/46
f 57/57/57 48/48/48 47/47/47
f 57/57/57 58/58/58 48/48/48
f 59/59/59 50/50/50 49/49/49
f 59/59/59 60/60/60 50/50/50
f 61/61/61 52/52/52 51/51/51
f 61/61/61 62/62/62 52/52/52
f 62/62/62 53/53/53 52/52/52
f 62/62/62 63/63/63 53/53/53
f 64/64/64 55/55/55 54/54/54
f 67/67/67 66/66/66 65/65/65
f 68/68/68 56/56/56 55/55/55
f 68/68/68 69/69/69 56/56/56
f 70/70/70 58/58/58 57/57/57
f 70/70/70 71/71/71 58/58/58
f 72/72/72 60/60/60 59/59/59
f 72/72/72 73/73/73 60/60/60
f 74/74/74 62/62/62 61/61/61
f 74/74/74 75/75/75 62/62/62
f 75/75/75 63/63/63 62/62/62
f 75/75/75 76/76/76 63/63/63
f 77/77/77 66/66/66 67/67/67
f 77/77/77 78/78/78 66/66/66
f 79/79/79 69/69/69 68/68/68
f 79/79/79 80/80/80 69/69/69
f 81/81/81 71/71/71 70/70/70
f 81/81/81 82/82/82 71/71/71
f 83/83/83 73/73/73 72/72/72
f 83/83/83 84/84/84 73/73/73
f 85/85/85 75/75/75 74/74/74
f 85/85/85 86/86/86 75/75/75
f 86/86/86 76/76/76 75/75/75
f 86/86/86 87/87/87 76/76/76
f 88/88/88 78/78/78 77/77/77
f 88/88/88 89/89/89 78/78/78
f 90/90/90 80/80/80 79/79/79
f 90/90/90 91/91/91 80/80/80
f 92/92/92 82/82/82 81/81/81
f 92/92/92 93/93/93 82/82/82
f 94/94/94 84/84/84 83/83/83
f 94/94/94 95/95/95 84/84/84
f 96/96/96 86/86/86 85/85/85
f 96/96/96 97/97/97 86/86/86
f 97/97/97 87/87/87 86/86/86
f 97/97/97 98/98/98 87/87/87
f 99/99/99 89/89/89 88/88/88
f 99/99/99 100/100/100 89/89/89
f 101/101/101 91/91/91 90/90/90
f 101/101/101 102/102/102 91/91/91
f 103/103/103 93/93/93 92/92/92
f 103/103/103 104/104/104 93/93/93
f 105/105/105 95/95/95 94/94/94
f 105/105/105 106/106/106 95/95/95
f 107/107/107 97/97/97 96/96/96
f 107/107/107 108/108/108 97/97/97
f 108/108/108 98/98/98 97/97/97
f 108/108/108 109/109/109 98/98/98
f 110/110/110 100/100/100 99/99/99
f 110/110/110 111/111/111 100/100/100
f 112/112/112 102/102/102 101/101/101
f 112/112/112 113/113/113 102/102/102
f 114/114/114 104/104/104 103/103/103
f 114/114/114 115/115/115 104/104/104
f 116/116/116 106/106/106 105/105/105
f 116/116/116 117/117/117 106/106/106
f 118/118/118 108/108/108 107/107/107
f 118/118/118 119/119/119 108/108/108
f 119/119/119 109/109/109 108/108/108
f 119/119/119 120/120/120 109/109/109
f 121/121/121 111/111/111 110/110/110
f 121/121/121 122/122/122 111/111/111
f 123/123/123 113/113/113 112/112/112
f 123/123/123 124/124/124 113/113/113
f 125/125/125 115/115/115 114/114/114
f 125/125/125 126/126/126 115/115/115
f 127/127/127 117/117/117 116/116/116
f 127/127/127 128/128/128 117/117/117
f 129/129/129 119/119/119 118/118/118
f 129/129/129 130/130/130 119/119/119
f 130/130/130 120/120/120 119/119/119
f 130/130/130 131/131/131 120/120/120
f 132/132/132 122/122/122 121/121/121
f 132/132/132 133/133/133 122/122/122
f 134/134/134 124/124/124 123/123/123
f 134/134/134 135/135/135 124/124/124
f 136/136/136 126/126/126 125/125/125
f 136/136/136 137/137/137 126/126/126
f 138/138/138 128/128/128 127/127/127
f 138/138/138 139/139/139 128/128/128
f 140/140/140 130/130/130 129/129/129
f 140/140/140 141/141/141 130/130/130
f 141/141/141 131/131/131 130/130/130
f 141/141/141 142/142/142 131/131/131
f 143/143/143 133/133/133 132/132/132
f 143/143/143 144/144/144 133/133/133
f 145/145/145 135/135/135 134/134/134
f 145/145/145 146/146/146 135/135/135
f 147/147/147 137/137/137 136/136/136
f 147/147/147 148/148/148 137/137/137
f 149/149/149 139/139/139 138/138/138
f 149/149/149 150/150/150 139/139/139
f 151/151/151 141/141/141 140/140/140
f 151/151/151 152/152/152 141/141/141
f 152/152/152 142/142/142 141/141/141
f 152/152/152 153/153/153 142/142/142
f 154/154/154 144/144/144 143/143/143
f 154/154/154 155/155/155 144/144/144
f 156/156/156 146/146/146 145/145/145
f 156/156/156 157/157/157 146/146/146
f 158/158/158 148/148/148 147/147/147
f 158/158/158 159/159/159 148/148/148
f 160/160/160 150/150/150 149/149/149
f 160/160/160 161/161/161 150/150/150
f 162/162/162 152/152/152 151/151/151
f 162/162/162 163/163/163 152/152/152
f 163/163/163 153/153/153 152/152/152
f 163/163/163 164/164/164 153/153/153
f 165/165/165 155/155/155 154/154/154
f 165/165/165 166/166/166 155/155/155
f 167/167/167 157/157/157 156/156/156
f 167/167/167 168/168/168 157/157/157
f 169/169/169 159/159/159 158/158/158
f 169/169/169 170/170/170 159/159/159
f 171/171/171 161/161/161 160/160/160
f 171/171/171 172/172/172 161/161/161
f 173/173/173 163/163/163 162/162/162
f 173/173/173 174/174/174 163/163/163
f 174/174/174 164/164/164 163/163/163
f 174/174/174 175/175/175 164/164/164
f 175/175/175 176/176/176 164/164/164
f 178/178/178 177/177/177 167/167/167
f 177/177/177 168/168/168 167/167/167
f 177/177/177 179/179/179 168/168/168
f 180/180/180 170/170/170 169/169/169
f 180/180/180 181/181/181 170/170/170
f 182/182/182 172/172/172 171/171/171
f 182/182/182 183/183/183 172/172/172
f 184/184/184 174/174/174 173/173/173
f 184/184/184 185/185/185 174/174/174
f 185/185/185 175/175/175 174/174/174
f 185/185/185 186/186/186 175/175/175
f 187/187/187 177/177/177 178/178/178
f 187/187/187 188/188/188 177/177/177
f 188/188/188 179/179/179 177/177/177
f 188/188/188 189/189/189 179/179/179
f 189/189/189 190/190/190 179/179/179
f 192/192/192 191/191/191 182/182/182
f 191/191/191 183/183/183 182/182/182
f 191/191/191 193/193/193 183/183/183
f 194/194/194 185/185/185 184/184/184
f 194/194/194 195/195/195 185/185/185
f 195/195/195 186/186/186 185/185/185
f 195/195/195 196/196/196 186/186/186
f 197/197/197 188/188/188 187/187/187
f 197/197/197 198/198/198 188/188/188
f 198/198/198 189/189/189 188/188/188
f 198/198/198 199/199/199 189/189/189
f 200/200/200 191/191/191 192/192/192
f 200/200/200 201/201/201 191/191/191
f 201/201/201 193/193/193 191/191/191
f 201/201/201 202/202/202 193/193/193
f 203/203/203 195/195/195 194/194/194
f 203/203/203 204/204/204 195/195/195
f 204/204/204 196/196/196 195/195/195
f 204/204/204 205/205/205 196/196/196
f 206/206/206 198/198/198 197/197/197
f 206/206/206 207/207/207 198/198/198
f 207/207/207 199/199/199 198/198/198
f 207/207/207 208/208/208 199/199/199
f 209/209/209 201/201/201 200/200/200
f 209/209/209 210/210/210 201/201/201
f 210/210/210 202/202/202 201/201/201
f 210/210/210 211/211/211 202/202/202
f 212/212/212 204/204/204 203/203/203
f 212/212/212 213/213/213 204/204/204
f 213/213/213 205/205/205 204/204/204
f 213/213/213 214/214/214 205/205/205
f 215/215/215 207/207/207 206/206/206
f 215/215/215 216/216/216 207/207/207
f 216/216/216 208/208/208 207/207/207
f 216/216/216 217/217/217 208/208/208
f 218/218/218 210/210/210 209/209/209
f 218/218/218 219/219/219 210/210/210
f 219/219/219 211/211/211 210/210/210
f 219/219/219 220/220/220 211/211/211
f 221/221/221 213/213/213 212/212/212
f 221/221/221 222/222/222 213/213/213
f 222/222/222 214/214/214 213/213/213
f 222/222/222 223/223/223 214/214/214
f 224/224/224 216/216/216 215/215/215
f 224/224/224 225/225/225 216/216/216
f 225/225/225 217/217/217 216/216/216
f 225/225/225 226/226/226 217/217/217
f 227/227/227 219/219/219 218/218/218
f 227/227/227 228/228/228 219/219/219
f 228/228/228 220/220/220 219/219/219
f 228/228/228 229/229/229 220/220/220
f 230/230/230 222/222/222 221/221/221
f 230/230/230 231/231/231 222/222/222
f 231/231/231 223/223/223 222/222/222
f 231/231/231 232/232/232 223/223/223
f 233/233/233 225/225/225 224/224/224
f 233/233/233 234/234/234 225/225/225
f 234/234/234 226/226/226 225/225/225
f 234/234/234 235/235/235 226/226/226
f 236/236/236 228/228/228 227/227/227
f 236/236/236 237/237/237 228/228/228
f 237/237/237 229/229/229 228/228/228
f 237/237/237 238/238/238 229/229/229
