g tube
v -1.755278 1.460621 -4.599912
v -1.756575 1.46057 -4.59916
v -1.752953 1.420951 -4.59862
v -1.75425 1.42092 -4.597867
v -1.756575 1.46057 -4.59916
v -1.756575 1.460618 -4.597661
v -1.75425 1.42092 -4.597867
v -1.75425 1.420999 -4.59637
v -1.756575 1.460618 -4.597661
v -1.755278 1.460719 -4.596913
v -1.75425 1.420999 -4.59637
v -1.752953 1.421108 -4.595624
v -1.755278 1.460719 -4.596913
v -1.753981 1.46077 -4.597665
v -1.752953 1.421108 -4.595624
v -1.751656 1.421139 -4.596377
v -1.753981 1.46077 -4.597665
v -1.753981 1.460722 -4.599164
v -1.751656 1.421139 -4.596377
v -1.751656 1.42106 -4.597875
v -1.755278 1.460621 -4.599912
v -1.752953 1.420951 -4.59862
v -1.749033 1.341388 -4.592819
v -1.75033 1.341388 -4.592066
v -1.75033 1.341388 -4.592066
v -1.75033 1.341511 -4.590571
v -1.75033 1.341511 -4.590571
v -1.749033 1.341635 -4.589829
v -1.749033 1.341635 -4.589829
v -1.747735 1.341635 -4.590581
v -1.747735 1.341635 -4.590581
v -1.747735 1.341511 -4.592076
v -1.749033 1.341388 -4.592819
v -1.743925 1.232322 -4.582706
v -1.745223 1.232339 -4.581954
v -1.745223 1.232339 -4.581954
v -1.745223 1.232491 -4.580462
v -1.745223 1.232491 -4.580462
v -1.743925 1.232626 -4.579721
v -1.743925 1.232626 -4.579721
v -1.742628 1.23261 -4.580473
v -1.742628 1.23261 -4.580473
v -1.742628 1.232458 -4.581965
v -1.743925 1.232322 -4.582706
v -1.738043 1.104097 -4.56848
v -1.73934 1.104129 -4.567728
v -1.73934 1.104129 -4.567728
v -1.73934 1.10431 -4.566239
v -1.73934 1.10431 -4.566239
v -1.738043 1.104459 -4.565501
v -1.738043 1.104459 -4.565501
v -1.736745 1.104427 -4.566253
v -1.736745 1.104427 -4.566253
v -1.736745 1.104246 -4.567742
v -1.738043 1.104097 -4.56848
v -1.731795 0.9670622 -4.550334
v -1.733093 0.9671132 -4.549584
v -1.733093 0.9671132 -4.549584
v -1.733093 0.9673311 -4.5481
v -1.733093 0.9673311 -4.5481
v -1.731795 0.9674982 -4.547367
v -1.731795 0.9674982 -4.547367
v -1.730497 0.9674472 -4.548117
v -1.730497 0.9674472 -4.548117
v -1.730497 0.9672293 -4.549601
v -1.731795 0.9670622 -4.550334
v -1.725593 0.8315706 -4.528469
v -1.726891 0.8316479 -4.52772
v -1.726891 0.8316479 -4.52772
v -1.726891 0.8319184 -4.526245
v -1.726891 0.8319184 -4.526245
v -1.725593 0.8321115 -4.525518
v -1.725593 0.8321115 -4.525518
v -1.724296 0.8320342 -4.526266
v -1.724296 0.8320342 -4.526266
v -1.724296 0.8317637 -4.527741
v -1.725593 0.8315706 -4.528469
v -1.719848 0.7079636 -4.503073
v -1.721145 0.7080835 -4.50233
v -1.721145 0.7080835 -4.50233
v -1.721145 0.7084392 -4.500873
v -1.721145 0.7084392 -4.500873
v -1.719848 0.7086751 -4.500158
v -1.719848 0.7086751 -4.500158
v -1.71855 0.7085552 -4.500901
v -1.71855 0.7085552 -4.500901
v -1.71855 0.7081995 -4.502358
v -1.719848 0.7079636 -4.503073
v -1.714969 0.6065522 -4.474322
v -1.716267 0.6067557 -4.473598
v -1.716267 0.6067557 -4.473598
v -1.716267 0.6072775 -4.472191
v -1.716267 0.6072775 -4.472191
v -1.714969 0.6075957 -4.471509
v -1.714969 0.6075957 -4.471509
v -1.713672 0.6073922 -4.472234
v -1.713672 0.6073922 -4.472234
v -1.713672 0.6068704 -4.47364
v -1.714969 0.6065522 -4.474322
v -1.711368 0.537515 -4.442253
v -1.712666 0.5379418 -4.441633
v -1.712666 0.5379418 -4.441633
v -1.712666 0.5388908 -4.440471
v -1.712666 0.5388908 -4.440471
v -1.711368 0.5394129 -4.439929
v -1.711368 0.5394129 -4.439929
v -1.71007 0.5389861 -4.440549
v -1.71007 0.5389861 -4.440549
v -1.71007 0.5380371 -4.441711
v -1.711368 0.537515 -4.442253
v -1.709455 0.5113773 -4.406633
v -1.710754 0.5121047 -4.406446
v -1.710754 0.5121047 -4.406446
v -1.710754 0.5135757 -4.406153
v -1.710754 0.5135757 -4.406153
v -1.709455 0.5143193 -4.406046
v -1.709455 0.5143193 -4.406046
v -1.708157 0.5135919 -4.406233
v -1.708157 0.5135919 -4.406233
v -1.708157 0.5121209 -4.406527
v -1.709455 0.5113773 -4.406633
v -1.709455 0.5113773 -4.406633
v -1.710754 0.5121047 -4.406446
v -1.70903 0.5192887 -4.374026
v -1.710329 0.5199461 -4.374387
v -1.710329 0.5199461 -4.374387
v -1.710329 0.5212616 -4.375107
v -1.710754 0.5135757 -4.406153
v -1.709455 0.5143193 -4.406046
v -1.710329 0.5212616 -4.375107
v -1.70903 0.5219198 -4.375467
v -1.709455 0.5143193 -4.406046
v -1.70903 0.5219198 -4.375467
v -1.707731 0.5212624 -4.375106
v -1.707731 0.5199469 -4.374385
v -1.708157 0.5121209 -4.406527
v -1.709455 0.5113773 -4.406633
v -1.707731 0.5199469 -4.374385
v -1.70903 0.5192887 -4.374026
v -1.709492 0.5419903 -4.350172
v -1.71079 0.5424107 -4.350794
v -1.71079 0.5424107 -4.350794
v -1.71079 0.5432997 -4.352002
v -1.71079 0.5432997 -4.352002
v -1.709492 0.5437682 -4.352589
v -1.709492 0.5437682 -4.352589
v -1.708193 0.5433478 -4.351967
v -1.708193 0.5424589 -4.350759
v -1.708193 0.5424589 -4.350759
v -1.709492 0.5419903 -4.350172
v -1.710645 0.5756593 -4.333503
v -1.711944 0.5758808 -4.334221
v -1.711944 0.5758808 -4.334221
v -1.711944 0.5764094 -4.335625
v -1.711944 0.5764094 -4.335625
v -1.710645 0.5767165 -4.33631
v -1.710645 0.5767165 -4.33631
v -1.709347 0.5764951 -4.335592
v -1.709347 0.5759664 -4.334188
v -1.709347 0.5759664 -4.334188
v -1.710645 0.5756593 -4.333503
v -1.712299 0.6167403 -4.322528
v -1.713597 0.6168401 -4.323273
v -1.713597 0.6168401 -4.323273
v -1.713597 0.6171443 -4.324742
v -1.713597 0.6171443 -4.324742
v -1.712299 0.6173488 -4.325465
v -1.712299 0.6173488 -4.325465
v -1.711001 0.6172491 -4.32472
v -1.711001 0.6169448 -4.323251
v -1.711001 0.6169448 -4.323251
v -1.712299 0.6167403 -4.322528
v -1.71426 0.6617912 -4.315828
v -1.715558 0.6618202 -4.316579
v -1.715558 0.6618202 -4.316579
v -1.715558 0.6619927 -4.318069
v -1.715558 0.6619927 -4.318069
v -1.71426 0.6621361 -4.318808
v -1.71426 0.6621361 -4.318808
v -1.712962 0.6621071 -4.318057
v -1.712962 0.6619346 -4.316566
v -1.712962 0.6619346 -4.316566
v -1.71426 0.6617912 -4.315828
v -1.716335 0.7073589 -4.312043
v -1.717633 0.7073496 -4.312795
v -1.717633 0.7073496 -4.312795
v -1.717633 0.7074506 -4.314292
v -1.717633 0.7074506 -4.314292
v -1.716335 0.7075607 -4.315036
v -1.716335 0.7075607 -4.315036
v -1.715037 0.70757 -4.314284
v -1.715037 0.707469 -4.312787
v -1.715037 0.707469 -4.312787
v -1.716335 0.7073589 -4.312043
v -1.718331 0.7499678 -4.309833
v -1.719629 0.7499465 -4.310585
v -1.719629 0.7499465 -4.310585
v -1.719629 0.7500261 -4.312083
v -1.719629 0.7500261 -4.312083
v -1.718331 0.7501271 -4.312829
v -1.718331 0.7501271 -4.312829
v -1.717034 0.7501484 -4.312077
v -1.717034 0.7500688 -4.310579
v -1.717034 0.7500688 -4.310579
v -1.718331 0.7499678 -4.309833
v -1.720056 0.7861136 -4.307866
v -1.721353 0.7861158 -4.308618
v -1.721353 0.7861158 -4.308618
v -1.721353 0.7862434 -4.310112
v -1.721353 0.7862434 -4.310112
v -1.720056 0.7863688 -4.310854
v -1.720056 0.7863688 -4.310854
v -1.718758 0.7863665 -4.310102
v -1.718758 0.7862389 -4.308608
v -1.718758 0.7862389 -4.308608
v -1.720056 0.7861136 -4.307866
v -1.721316 0.8121719 -4.304845
v -1.722613 0.8123063 -4.305585
v -1.722613 0.8123063 -4.305585
v -1.722613 0.8126897 -4.307035
v -1.722613 0.8126897 -4.307035
v -1.721316 0.8129386 -4.307745
v -1.721316 0.8129386 -4.307745
v -1.720018 0.8128042 -4.307005
v -1.720018 0.8124208 -4.305555
v -1.720018 0.8124208 -4.305555
v -1.721316 0.8121719 -4.304845
v -1.721918 0.8244786 -4.299712
v -1.723216 0.8249471 -4.300301
v -1.723216 0.8249471 -4.300301
v -1.723216 0.8259729 -4.301395
v -1.723216 0.8259729 -4.301395
v -1.721918 0.8265302 -4.301901
v -1.721918 0.8265302 -4.301901
v -1.720621 0.8260616 -4.301312
v -1.720621 0.8250358 -4.300218
v -1.720621 0.8250358 -4.300218
v -1.721918 0.8244786 -4.299712
v -1.722349 0.8283897 -4.291742
v -1.723647 0.8290748 -4.292051
v -1.723647 0.8290748 -4.292051
v -1.723647 0.8304793 -4.292578
v -1.723216 0.8259729 -4.301395
v -1.721918 0.8265302 -4.301901
v -1.723647 0.8304793 -4.292578
v -1.722349 0.8311986 -4.292796
v -1.720621 0.8260616 -4.301312
v -1.721051 0.8305135 -4.292486
v -1.721051 0.8305135 -4.292486
v -1.721051 0.8291091 -4.29196
v -1.720621 0.8250358 -4.300218
v -1.721918 0.8244786 -4.299712
v -1.721051 0.8291091 -4.29196
v -1.722349 0.8283897 -4.291742
v -1.722685 0.8311409 -4.28104
v -1.723984 0.8318794 -4.281172
v -1.723984 0.8318794 -4.281172
v -1.723984 0.833353 -4.281452
v -1.723984 0.833353 -4.281452
v -1.722685 0.8340881 -4.281601
v -1.721386 0.8333496 -4.281469
v -1.721386 0.8333496 -4.281469
v -1.721386 0.831876 -4.281189
v -1.721386 0.831876 -4.281189
v -1.722685 0.8311409 -4.28104
v -1.722123 0.83271 -4.268393
v -1.723415 0.8334683 -4.268324
v -1.723415 0.8334683 -4.268324
v -1.723415 0.8349631 -4.268449
v -1.723415 0.8349631 -4.268449
v -1.722123 0.8356996 -4.268643
v -1.720831 0.8349413 -4.268712
v -1.720831 0.8349413 -4.268712
v -1.720831 0.8334464 -4.268587
v -1.720831 0.8334464 -4.268587
v -1.722123 0.83271 -4.268393
v -1.719859 0.8333057 -4.254395
v -1.721122 0.8340607 -4.254106
v -1.721122 0.8340607 -4.254106
v -1.721122 0.8355604 -4.254131
v -1.721122 0.8355604 -4.254131
v -1.719859 0.8363053 -4.254446
v -1.718595 0.8355503 -4.254736
v -1.718595 0.8355503 -4.254736
v -1.718595 0.8340505 -4.254711
v -1.718595 0.8340505 -4.254711
v -1.719859 0.8333057 -4.254395
v -1.715088 0.8331566 -4.239625
v -1.716283 0.833893 -4.239096
v -1.716283 0.833893 -4.239096
v -1.716283 0.8353925 -4.239057
v -1.716283 0.8353925 -4.239057
v -1.715088 0.8361556 -4.239545
v -1.713892 0.8354192 -4.240074
v -1.713892 0.8354192 -4.240074
v -1.713892 0.8339198 -4.240113
v -1.713892 0.8339198 -4.240113
v -1.715088 0.8331566 -4.239625
v -1.707006 0.8324988 -4.22465
v -1.708082 0.8332093 -4.223885
v -1.716283 0.8353925 -4.239057
v -1.708082 0.8347073 -4.223805
v -1.708082 0.8347073 -4.223805
v -1.707006 0.8354947 -4.224491
v -1.705929 0.8347842 -4.225256
v -1.705929 0.8347842 -4.225256
v -1.705929 0.8332863 -4.225336
v -1.705929 0.8332863 -4.225336
v -1.707006 0.8324988 -4.22465
v -1.694809 0.831571 -4.210034
v -1.695719 0.8322579 -4.20906
v -1.695719 0.8337546 -4.208961
v -1.695719 0.8337546 -4.208961
v -1.694809 0.8345643 -4.209836
v -1.693899 0.8338774 -4.21081
v -1.693899 0.8338774 -4.21081
v -1.693899 0.8323807 -4.210909
v -1.693899 0.8323807 -4.210909
v -1.694809 0.831571 -4.210034
v -1.677693 0.8306115 -4.196336
v -1.678409 0.8312882 -4.195205
v -1.678409 0.8327849 -4.195106
v -1.678409 0.8327849 -4.195106
v -1.677693 0.833605 -4.196137
v -1.676977 0.8329284 -4.197268
v -1.676977 0.8329284 -4.197268
v -1.676977 0.8314316 -4.197368
v -1.676977 0.8314316 -4.197368
v -1.677693 0.8306115 -4.196336
v -1.654854 0.8298607 -4.184105
v -1.655375 0.8305523 -4.18288
v -1.655375 0.8320506 -4.182807
v -1.655375 0.8320506 -4.182807
v -1.654854 0.8328571 -4.18396
v -1.654334 0.8321655 -4.185185
v -1.654334 0.8321655 -4.185185
v -1.654334 0.8306673 -4.185257
v -1.654334 0.8306673 -4.185257
v -1.654854 0.8298607 -4.184105
v -1.625488 0.8295593 -4.173881
v -1.625835 0.8303106 -4.17263
v -1.625835 0.8318106 -4.172631
v -1.625835 0.8318106 -4.172631
v -1.625488 0.8325593 -4.173884
v -1.625142 0.8318081 -4.175135
v -1.625142 0.8318081 -4.175135
v -1.625142 0.8303081 -4.175134
v -1.625142 0.8303081 -4.175134
v -1.625488 0.8295593 -4.173881
v -1.588714 0.8299493 -4.165993
v -1.588932 0.8308249 -4.164795
v -1.588932 0.8323172 -4.164947
v -1.588932 0.8323172 -4.164947
v -1.588714 0.832934 -4.166296
v -1.588495 0.8320584 -4.167495
v -1.588495 0.8320584 -4.167495
v -1.588495 0.830566 -4.167343
v -1.588495 0.830566 -4.167343
v -1.588714 0.8299493 -4.165993
v -1.545764 0.8310229 -4.160203
v -1.545903 0.8320845 -4.159152
v -1.545903 0.8335323 -4.159544
v -1.545903 0.8335323 -4.159544
v -1.545764 0.8339185 -4.160987
v -1.545624 0.8328568 -4.162038
v -1.545624 0.8328568 -4.162038
v -1.545624 0.831409 -4.161645
v -1.545624 0.831409 -4.161645
v -1.545764 0.8310229 -4.160203
v -1.499004 0.8326814 -4.156163
v -1.499096 0.8339753 -4.155409
v -1.499096 0.8352779 -4.156153
v -1.499096 0.8352779 -4.156153
v -1.499004 0.8352866 -4.15765
v -1.498912 0.8339928 -4.158404
v -1.499004 0.8352866 -4.15765
v -1.498912 0.8326902 -4.15766
v -1.498912 0.8326902 -4.15766
v -1.499004 0.8326814 -4.156163
v -1.450801 0.8348837 -4.153587
v -1.450868 0.8363653 -4.153362
v -1.450868 0.8373021 -4.154534
v -1.450868 0.8373021 -4.154534
v -1.450801 0.8367573 -4.15593
v -1.498912 0.8339928 -4.158404
v -1.498912 0.8339928 -4.158404
v -1.450734 0.8352757 -4.156155
v -1.450801 0.8367573 -4.15593
v -1.498912 0.8339928 -4.158404
v -1.450734 0.8352757 -4.156155
v -1.450734 0.8343389 -4.154983
v -1.450801 0.8348837 -4.153587
v -1.403522 0.8374757 -4.152367
v -1.40358 0.8389103 -4.152801
v -1.40358 0.8392528 -4.154261
v -1.40358 0.8389103 -4.152801
v -1.403522 0.8381605 -4.155288
v -1.403522 0.8381605 -4.155288
v -1.403463 0.8367258 -4.154854
v -1.403463 0.8367258 -4.154854
v -1.403463 0.8363834 -4.153393
v -1.403522 0.8374757 -4.152367
v -1.359532 0.840023 -4.152304
v -1.359593 0.8412042 -4.153226
v -1.359593 0.8412042 -4.153226
v -1.359593 0.8409963 -4.154712
v -1.359532 0.8396073 -4.155275
v -1.359593 0.8409963 -4.154712
v -1.359471 0.8384261 -4.154353
v -1.359471 0.8384261 -4.154353
v -1.359471 0.838634 -4.152867
v -1.403522 0.8374757 -4.152367
v -1.359532 0.840023 -4.152304
v -1.359471 0.838634 -4.152867
v -1.321198 0.8422143 -4.152933
v -1.321267 0.8431341 -4.154116
v -1.321198 0.8422143 -4.152933
v -1.321267 0.8425698 -4.155506
v -1.321267 0.8425698 -4.155506
v -1.321198 0.8410857 -4.155713
v -1.32113 0.8401659 -4.15453
v -1.32113 0.8401659 -4.15453
v -1.32113 0.8407302 -4.15314
v -1.32113 0.8407302 -4.15314
v -1.321198 0.8422143 -4.152933
v -1.290888 0.8439359 -4.15382
v -1.290964 0.8446585 -4.155132
v -1.290964 0.8438834 -4.156416
v -1.290964 0.8438834 -4.156416
v -1.290888 0.8423856 -4.156388
v -1.290811 0.841663 -4.155076
v -1.290811 0.841663 -4.155076
v -1.290811 0.8424381 -4.153791
v -1.290811 0.8424381 -4.153791
v -1.290888 0.8439359 -4.15382
v -1.270966 0.8450866 -4.154609
v -1.27105 0.8456727 -4.155987
v -1.27105 0.8447719 -4.157187
v -1.27105 0.8447719 -4.157187
v -1.270966 0.843285 -4.157008
v -1.270881 0.8426989 -4.15563
v -1.270881 0.8426989 -4.15563
v -1.270881 0.8435997 -4.15443
v -1.270881 0.8435997 -4.15443
v -1.270966 0.8450866 -4.154609
v -1.263799 0.8455098 -4.154952
v -1.263887 0.8460422 -4.156351
v -1.263887 0.8450959 -4.157515
v -1.263887 0.8450959 -4.157515
v -1.263799 0.8436171 -4.157279
v -1.263711 0.8430848 -4.15588
v -1.263711 0.8430848 -4.15588
v -1.263711 0.8440311 -4.154716
v -1.263711 0.8440311 -4.154716
v -1.263799 0.8455098 -4.154952

vn 0 -0.03250508 -0.9994715
vn -0.8645112 -0.06691657 -0.498139
vn 0 -0.05261724 -0.9986148
vn -0.8647581 -0.07287779 -0.4968723
vn -0.8645112 -0.06691657 -0.498139
vn -0.8645616 -0.03441397 0.5013472
vn -0.8647581 -0.07287779 -0.4968723
vn -0.8648198 -0.02018787 0.5016765
vn -0.8645616 -0.03441397 0.5013472
vn 0 0.03250508 0.9994715
vn -0.8648198 -0.02018787 0.5016765
vn 0 0.05261724 0.9986148
vn 0 0.03250508 0.9994715
vn 0.8645112 0.06691657 0.498139
vn 0 0.05261724 0.9986148
vn 0.8647581 0.07287779 0.4968723
vn 0.8645112 0.06691657 0.498139
vn 0.8645616 0.03441397 -0.5013472
vn 0.8647581 0.07287779 0.4968723
vn 0.8648198 0.02018787 -0.5016765
vn 0 -0.03250508 -0.9994715
vn 0 -0.05261724 -0.9986148
vn 0 -0.08249299 -0.9965917
vn -0.8650045 -0.08256681 -0.494924
vn -0.8650045 -0.08256681 -0.494924
vn -0.865076 0 0.5016408
vn -0.865076 0 0.5016408
vn 0 0.08249299 0.9965917
vn 0 0.08249299 0.9965917
vn 0.8650045 0.08256681 0.494924
vn 0.8650045 0.08256681 0.494924
vn 0.865076 0 -0.5016408
vn 0 -0.08249299 -0.9965917
vn 0 -0.1013131 -0.9948546
vn -0.8651215 -0.09035854 -0.493356
vn -0.8651215 -0.09035854 -0.493356
vn -0.8651819 0.01096777 0.5013382
vn -0.8651819 0.01096777 0.5013382
vn 0 0.1013131 0.9948546
vn 0 0.1013131 0.9948546
vn 0.8651215 0.09035854 0.493356
vn 0.8651215 0.09035854 0.493356
vn 0.8651819 -0.01096777 -0.5013382
vn 0 -0.1013131 -0.9948546
vn 0 -0.120787 -0.9926784
vn -0.8651902 -0.09942614 -0.4914878
vn -0.8651902 -0.09942614 -0.4914878
vn -0.8651741 0.021379 0.5010157
vn -0.8651741 0.021379 0.5010157
vn 0 0.120787 0.9926784
vn 0 0.120787 0.9926784
vn 0.8651902 0.09942614 0.4914878
vn 0.8651902 0.09942614 0.4914878
vn 0.8651741 -0.021379 -0.5010157
vn 0 -0.120787 -0.9926784
vn 0 -0.1453315 -0.989383
vn -0.8651819 -0.1113467 -0.4889398
vn -0.8651819 -0.1113467 -0.4889398
vn -0.865149 0.0339352 0.5003654
vn -0.865149 0.0339352 0.5003654
vn 0 0.1453315 0.989383
vn 0 0.1453315 0.989383
vn 0.8651819 0.1113467 0.4889398
vn 0.8651819 0.1113467 0.4889398
vn 0.865149 -0.0339352 -0.5003654
vn 0 -0.1453315 -0.989383
vn 0 -0.180333 -0.9836056
vn -0.8651105 -0.1287812 -0.484767
vn -0.8651105 -0.1287812 -0.484767
vn -0.8651851 0.05154074 0.4987968
vn -0.8651851 0.05154074 0.4987968
vn 0 0.180333 0.9836056
vn 0 0.180333 0.9836056
vn 0.8651105 0.1287812 0.484767
vn 0.8651105 0.1287812 0.484767
vn 0.8651851 -0.05154074 -0.4987968
vn 0 -0.180333 -0.9836056
vn 0 -0.2371464 -0.9714739
vn -0.8651584 -0.1572401 -0.4762107
vn -0.8651584 -0.1572401 -0.4762107
vn -0.8650755 0.07990386 0.495237
vn -0.8650755 0.07990386 0.495237
vn 0 0.2371464 0.9714739
vn 0 0.2371464 0.9714739
vn 0.8651584 0.1572401 0.4762107
vn 0.8651584 0.1572401 0.4762107
vn 0.8650755 -0.07990386 -0.495237
vn 0 -0.2371464 -0.9714739
vn 0 -0.3478812 -0.9375386
vn -0.8650671 -0.212154 -0.4545874
vn -0.8650671 -0.212154 -0.4545874
vn -0.8650979 0.1357055 0.4828971
vn -0.8650979 0.1357055 0.4828971
vn 0 0.3478812 0.9375386
vn 0 0.3478812 0.9375386
vn 0.8650671 0.212154 0.4545874
vn 0.8650671 0.212154 0.4545874
vn 0.8650979 -0.1357055 -0.4828971
vn 0 -0.3478812 -0.9375386
vn 0 -0.6326728 -0.7744192
vn -0.8651006 -0.3481066 -0.3611408
vn -0.8651006 -0.3481066 -0.3611408
vn -0.8650252 0.2845404 0.4132412
vn -0.8650252 0.2845404 0.4132412
vn 0 0.6326728 0.7744192
vn 0 0.6326728 0.7744192
vn 0.8651006 0.3481066 0.3611408
vn 0.8651006 0.3481066 0.3611408
vn 0.8650252 -0.2845404 -0.4132412
vn 0 -0.6326728 -0.7744192
vn 0 -0.9806402 -0.1958181
vn -0.8655964 -0.4956993 -0.07088798
vn -0.8655964 -0.4956993 -0.07088798
vn -0.8656211 0.4849449 0.1246138
vn -0.8656211 0.4849449 0.1246138
vn 0 0.9806402 0.1958181
vn 0 0.9806402 0.1958181
vn 0.8655964 0.4956993 0.07088798
vn 0.8655964 0.4956993 0.07088798
vn 0.8656211 -0.4849449 -0.1246138
vn 0 -0.9806402 -0.1958181
vn 0 -0.9806402 -0.1958181
vn -0.8655964 -0.4956993 -0.07088798
vn 0 -0.8770803 0.4803437
vn -0.8660359 -0.4387799 0.2396957
vn -0.8660359 -0.4387799 0.2396957
vn -0.8660337 0.4382622 -0.2406488
vn -0.8656211 0.4849449 0.1246138
vn 0 0.9806402 0.1958181
vn -0.8660337 0.4382622 -0.2406488
vn 0 0.8770803 -0.4803437
vn 0 0.9806402 0.1958181
vn 0 0.8770803 -0.4803437
vn 0.8660359 0.4387799 -0.2396957
vn 0.8660337 -0.4382622 0.2406488
vn 0.8656211 -0.4849449 -0.1246138
vn 0 -0.9806402 -0.1958181
vn 0.8660337 -0.4382622 0.2406488
vn 0 -0.8770803 0.4803437
vn 0 -0.5925998 0.8054971
vn -0.8657642 -0.3123634 0.3910005
vn -0.8657642 -0.3123634 0.3910005
vn -0.865798 0.2802677 -0.4145404
vn -0.865798 0.2802677 -0.4145404
vn 0 0.5925998 -0.8054971
vn 0 0.5925998 -0.8054971
vn 0.8657642 0.3123634 -0.3910005
vn 0.865798 -0.2802677 0.4145404
vn 0.865798 -0.2802677 0.4145404
vn 0 -0.5925998 0.8054971
vn 0 -0.3523773 0.9358581
vn -0.8654969 -0.2047707 0.4571477
vn -0.8654969 -0.2047707 0.4571477
vn -0.8654509 0.1476591 -0.4787397
vn -0.8654509 0.1476591 -0.4787397
vn 0 0.3523773 -0.9358581
vn 0 0.3523773 -0.9358581
vn 0.8654969 0.2047707 -0.4571477
vn 0.8654509 -0.1476591 0.4787397
vn 0.8654509 -0.1476591 0.4787397
vn 0 -0.3523773 0.9358581
vn 0 -0.202875 0.9792047
vn -0.8653485 -0.1363433 0.4822681
vn -0.8653485 -0.1363433 0.4822681
vn -0.8652815 0.06651732 -0.4968534
vn -0.8652815 0.06651732 -0.4968534
vn 0 0.202875 -0.9792047
vn 0 0.202875 -0.9792047
vn 0.8653485 0.1363433 -0.4822681
vn 0.8652815 -0.06651732 0.4968534
vn 0.8652815 -0.06651732 0.4968534
vn 0 -0.202875 0.9792047
vn 0 -0.1149529 0.993371
vn -0.8651062 -0.09560194 0.4923937
vn -0.8651062 -0.09560194 0.4923937
vn -0.8652091 0.01939289 -0.501036
vn -0.8652091 0.01939289 -0.501036
vn 0 0.1149529 -0.993371
vn 0 0.1149529 -0.993371
vn 0.8651062 0.09560194 -0.4923937
vn 0.8652091 -0.01939289 0.501036
vn 0.8652091 -0.01939289 0.501036
vn 0 -0.1149529 0.993371
vn 0 -0.06726528 0.9977351
vn -0.8650936 -0.07346859 0.496201
vn -0.8650936 -0.07346859 0.496201
vn -0.8650796 -0.006158705 -0.5015967
vn -0.8650796 -0.006158705 -0.5015967
vn 0 0.06726528 -0.9977351
vn 0 0.06726528 -0.9977351
vn 0.8650936 0.07346859 -0.496201
vn 0.8650796 0.006158705 0.5015967
vn 0.8650796 0.006158705 0.5015967
vn 0 -0.06726528 0.9977351
vn 0 -0.05309279 0.9985896
vn -0.8650388 -0.0673117 0.4971689
vn -0.8650388 -0.0673117 0.4971689
vn -0.8651264 -0.0142267 -0.5013521
vn -0.8651264 -0.0142267 -0.5013521
vn 0 0.05309279 -0.9985896
vn 0 0.05309279 -0.9985896
vn 0.8650388 0.0673117 -0.4971689
vn 0.8651264 0.0142267 0.5013521
vn 0.8651264 0.0142267 0.5013521
vn 0 -0.05309279 0.9985896
vn 0 -0.08508441 0.9963738
vn -0.8650693 -0.0835664 0.4946432
vn -0.8650693 -0.0835664 0.4946432
vn -0.8650751 0.001510007 -0.5016402
vn -0.8650751 0.001510007 -0.5016402
vn 0 0.08508441 -0.9963738
vn 0 0.08508441 -0.9963738
vn 0.8650693 0.0835664 -0.4946432
vn 0.8650751 -0.001510007 0.5016402
vn 0.8650751 -0.001510007 0.5016402
vn 0 -0.08508441 0.9963738
vn 0 -0.2556042 0.9667816
vn -0.8651113 -0.1659733 0.4733238
vn -0.8651113 -0.1659733 0.4733238
vn -0.8651802 0.08960965 -0.4933896
vn -0.8651802 0.08960965 -0.4933896
vn 0 0.2556042 -0.9667816
vn 0 0.2556042 -0.9667816
vn 0.8651113 0.1659733 -0.4733238
vn 0.8651802 -0.08960965 0.4933896
vn 0.8651802 -0.08960965 0.4933896
vn 0 -0.2556042 0.9667816
vn 0 -0.6838883 0.7295868
vn -0.8651109 -0.3715169 0.3369839
vn -0.8651109 -0.3715169 0.3369839
vn -0.8650458 0.3123622 -0.3925885
vn -0.8650458 0.3123622 -0.3925885
vn 0 0.6838883 -0.7295868
vn 0 0.6838883 -0.7295868
vn 0.8651109 0.3715169 -0.3369839
vn 0.8650458 -0.3123622 0.3925885
vn 0.8650458 -0.3123622 0.3925885
vn 0 -0.6838883 0.7295868
vn 0 -0.9362785 0.3512584
vn -0.865427 -0.479605 0.1449664
vn -0.865427 -0.479605 0.1449664
vn -0.8654152 0.4567491 -0.206002
vn -0.8650458 0.3123622 -0.3925885
vn 0 0.6838883 -0.7295868
vn -0.8654152 0.4567491 -0.206002
vn 0 0.9362785 -0.3512584
vn 0.8651109 0.3715169 -0.3369839
vn 0.865427 0.479605 -0.1449664
vn 0.865427 0.479605 -0.1449664
vn 0.8654152 -0.4567491 0.206002
vn 0.8650458 -0.3123622 0.3925885
vn 0 -0.6838883 0.7295868
vn 0.8654152 -0.4567491 0.206002
vn 0 -0.9362785 0.3512584
vn 0 -0.9823761 0.1869149
vn -0.8660208 -0.4900723 0.0991827
vn -0.8660208 -0.4900723 0.0991827
vn -0.8660076 0.4923297 -0.08741932
vn -0.8660076 0.4923297 -0.08741932
vn 0 0.9823761 -0.1869149
vn 0.8660208 0.4900723 -0.0991827
vn 0.8660208 0.4900723 -0.0991827
vn 0.8660076 -0.4923297 0.08741932
vn 0.8660076 -0.4923297 0.08741932
vn 0 -0.9823761 0.1869149
vn 0 -0.9965257 0.08328553
vn -0.861558 -0.4909792 0.1290628
vn -0.861558 -0.4909792 0.1290628
vn -0.8615705 0.5055697 0.04577665
vn -0.8615705 0.5055697 0.04577665
vn 0 0.9965257 -0.08328553
vn 0.861558 0.4909792 -0.1290628
vn 0.861558 0.4909792 -0.1290628
vn 0.8615705 -0.5055697 -0.04577665
vn 0.8615705 -0.5055697 -0.04577665
vn 0 -0.9965257 0.08328553
vn 0 -0.999858 0.01684842
vn -0.8421872 -0.4965543 0.2101296
vn -0.8421872 -0.4965543 0.2101296
vn -0.8422051 0.5033203 0.1932852
vn -0.8422051 0.5033203 0.1932852
vn 0 0.999858 -0.01684842
vn 0.8421872 0.4965543 -0.2101296
vn 0.8421872 0.4965543 -0.2101296
vn 0.8422051 -0.5033203 -0.1932852
vn 0.8422051 -0.5033203 -0.1932852
vn 0 -0.999858 0.01684842
vn 0 -0.9996518 -0.02638505
vn -0.7968737 -0.5087451 0.3258384
vn -0.7968737 -0.5087451 0.3258384
vn -0.7968516 0.4908899 0.3522137
vn -0.7968516 0.4908899 0.3522137
vn 0 0.9996518 0.02638505
vn 0.7968737 0.5087451 -0.3258384
vn 0.7968737 0.5087451 -0.3258384
vn 0.7968516 -0.4908899 -0.3522137
vn 0.7968516 -0.4908899 -0.3522137
vn 0 -0.9996518 -0.02638505
vn 0 -0.9985899 -0.05308647
vn -0.7179157 -0.5249853 0.4571517
vn -0.7968516 0.4908899 0.3522137
vn -0.7178706 0.4736531 0.5102103
vn -0.7178706 0.4736531 0.5102103
vn 0 0.9985899 0.05308647
vn 0.7179157 0.5249853 -0.4571517
vn 0.7179157 0.5249853 -0.4571517
vn 0.7178706 -0.4736531 -0.5102103
vn 0.7178706 -0.4736531 -0.5102103
vn 0 -0.9985899 -0.05308647
vn 0 -0.9978114 -0.06612338
vn -0.6069064 -0.5398343 0.583304
vn -0.6069686 0.4579883 0.6494889
vn -0.6069686 0.4579883 0.6494889
vn 0 0.9978114 0.06612338
vn 0.6069064 0.5398343 -0.583304
vn 0.6069064 0.5398343 -0.583304
vn 0.6069686 -0.4579883 -0.6494889
vn 0.6069686 -0.4579883 -0.6494889
vn 0 -0.9978114 -0.06612338
vn 0 -0.9978117 -0.06612077
vn -0.4773811 -0.5467193 0.6878992
vn -0.4774033 0.4510972 0.754054
vn -0.4774033 0.4510972 0.754054
vn 0 0.9978117 0.06612077
vn 0.4773811 0.5467193 -0.6878992
vn 0.4773811 0.5467193 -0.6878992
vn 0.4774033 -0.4510972 -0.754054
vn 0.4774033 -0.4510972 -0.754054
vn 0 -0.9978117 -0.06612077
vn 0 -0.9988319 -0.04832032
vn -0.3469291 -0.53776 0.7684103
vn -0.3469177 0.4611264 0.8167071
vn -0.3469177 0.4611264 0.8167071
vn 0 0.9988319 0.04832032
vn 0.3469291 0.53776 -0.7684103
vn 0.3469291 0.53776 -0.7684103
vn 0.3469177 -0.4611264 -0.8167071
vn 0.3469177 -0.4611264 -0.8167071
vn 0 -0.9988319 -0.04832032
vn 0 -0.9999995 0.0009536672
vn -0.2310349 -0.4991848 0.8351272
vn -0.231026 0.5008345 0.8341414
vn -0.231026 0.5008345 0.8341414
vn 0 0.9999995 -0.0009536672
vn 0.2310349 0.4991848 -0.8351272
vn 0.2310349 0.4991848 -0.8351272
vn 0.231026 -0.5008345 -0.8341414
vn 0.231026 -0.5008345 -0.8341414
vn 0 -0.9999995 0.0009536672
vn 0 -0.9948773 0.1010891
vn -0.1455052 -0.4111256 0.8998911
vn -0.1455081 0.5837012 0.7988243
vn -0.1455081 0.5837012 0.7988243
vn 0 0.9948773 -0.1010891
vn 0.1455052 0.4111256 -0.8998911
vn 0.1455052 0.4111256 -0.8998911
vn 0.1455081 -0.5837012 -0.7988243
vn 0.1455081 -0.5837012 -0.7988243
vn 0 -0.9948773 0.1010891
vn 0 -0.9651716 0.2616175
vn -0.09273504 -0.2574252 0.9618381
vn -0.09274732 0.7077646 0.7003337
vn -0.09274732 0.7077646 0.7003337
vn 0 0.9651716 -0.2616175
vn 0.09273504 0.2574252 -0.9618381
vn 0.09273504 0.2574252 -0.9618381
vn 0.09274732 -0.7077646 -0.7003337
vn 0.09274732 -0.7077646 -0.7003337
vn 0 -0.9651716 0.2616175
vn 0 -0.8683801 0.4958993
vn -0.06134814 -0.005840788 0.9980993
vn -0.06135166 0.8625391 0.5022571
vn -0.06135166 0.8625391 0.5022571
vn 0 0.8683801 -0.4958993
vn 0.06134814 0.005840788 -0.9980993
vn 0 0.8683801 -0.4958993
vn 0.06135166 -0.8625391 -0.5022571
vn 0.06135166 -0.8625391 -0.5022571
vn 0 -0.8683801 0.4958993
vn 0 -0.6245061 0.78102
vn -0.04449921 0.3631454 0.9306692
vn -0.04450466 0.9877254 0.1497264
vn -0.04450466 0.9877254 0.1497264
vn 0 0.6245061 -0.78102
vn 0.06134814 0.005840788 -0.9980993
vn 0.06134814 0.005840788 -0.9980993
vn 0.04449921 -0.3631454 -0.9306692
vn 0 0.6245061 -0.78102
vn 0.06134814 0.005840788 -0.9980993
vn 0.04449921 -0.3631454 -0.9306692
vn 0.04450466 -0.9877254 -0.1497264
vn 0 -0.6245061 0.78102
vn 0 -0.2282619 0.9735998
vn -0.03893821 0.7281049 0.684359
vn -0.03894155 0.9564521 -0.2892801
vn -0.03893821 0.7281049 0.684359
vn 0 0.2282619 -0.9735998
vn 0 0.2282619 -0.9735998
vn 0.03893821 -0.7281049 -0.684359
vn 0.03893821 -0.7281049 -0.684359
vn 0.03894155 -0.9564521 0.2892801
vn 0 -0.2282619 0.9735998
vn 0 0.1385777 0.9903516
vn -0.04076716 0.9259629 0.3754075
vn -0.04076716 0.9259629 0.3754075
vn -0.04076707 0.7874084 -0.6150821
vn 0 -0.1385777 -0.9903516
vn -0.04076707 0.7874084 -0.6150821
vn 0.04076716 -0.9259629 -0.3754075
vn 0.04076716 -0.9259629 -0.3754075
vn 0.04076707 -0.7874084 0.6150821
vn 0 -0.2282619 0.9735998
vn 0 0.1385777 0.9903516
vn 0.04076707 -0.7874084 0.6150821
vn 0 0.3761809 0.9265463
vn -0.04561691 0.9893863 0.1379633
vn 0 0.3761809 0.9265463
vn -0.04561533 0.6131447 -0.7886525
vn -0.04561533 0.6131447 -0.7886525
vn 0 -0.3761809 -0.9265463
vn 0.04561691 -0.9893863 -0.1379633
vn 0.04561691 -0.9893863 -0.1379633
vn 0.04561533 -0.6131447 0.7886525
vn 0.04561533 -0.6131447 0.7886525
vn 0 0.3761809 0.9265463
vn 0 0.5167905 0.8561119
vn -0.05118135 0.9985133 -0.0187559
vn -0.05117907 0.4817508 -0.8748124
vn -0.05117907 0.4817508 -0.8748124
vn 0 -0.5167905 -0.8561119
vn 0.05118135 -0.9985133 0.0187559
vn 0.05118135 -0.9985133 0.0187559
vn 0.05117907 -0.4817508 0.8748124
vn 0.05117907 -0.4817508 0.8748124
vn 0 0.5167905 0.8561119
vn 0 0.6005848 0.7995611
vn -0.05626726 0.9912733 -0.1192103
vn -0.05627085 0.3907565 -0.9187726
vn -0.05627085 0.3907565 -0.9187726
vn 0 -0.6005848 -0.7995611
vn 0.05626726 -0.9912733 0.1192103
vn 0.05626726 -0.9912733 0.1192103
vn 0.05627085 -0.3907565 0.9187726
vn 0.05627085 -0.3907565 0.9187726
vn 0 0.6005848 0.7995611
vn 0 0.6308439 0.7759098
vn -0.05865261 0.9858485 -0.1570427
vn -0.05865324 0.3549395 -0.9330475
vn -0.05865324 0.3549395 -0.9330475
vn 0 -0.6308439 -0.7759098
vn 0.05865261 -0.9858485 0.1570427
vn 0.05865261 -0.9858485 0.1570427
vn 0.05865324 -0.3549395 0.9330475
vn 0.05865324 -0.3549395 0.9330475
vn 0 0.6308439 0.7759098

vt 1 0
vt 0.8333333 0
vt 1 0.025
vt 0.8333333 0.025
vt 0.8333333 0
vt 0.6666666 0
vt 0.8333333 0.025
vt 0.6666666 0.025
vt 0.6666666 0
vt 0.5 0
vt 0.6666666 0.025
vt 0.5 0.025
vt 0.5 0
vt 0.3333333 0
vt 0.5 0.025
vt 0.3333333 0.025
vt 0.3333333 0
vt 0.1666667 0
vt 0.3333333 0.025
vt 0.1666667 0.025
vt 0 0
vt 0 0.025
vt 1 0.05
vt 0.8333333 0.05
vt 0.8333333 0.05
vt 0.6666666 0.05
vt 0.6666666 0.05
vt 0.5 0.05
vt 0.5 0.05
vt 0.3333333 0.05
vt 0.3333333 0.05
vt 0.1666667 0.05
vt 0 0.05
vt 1 0.075
vt 0.8333333 0.075
vt 0.8333333 0.075
vt 0.6666666 0.075
vt 0.6666666 0.075
vt 0.5 0.075
vt 0.5 0.075
vt 0.3333333 0.075
vt 0.3333333 0.075
vt 0.1666667 0.075
vt 0 0.075
vt 1 0.1
vt 0.8333333 0.1
vt 0.8333333 0.1
vt 0.6666666 0.1
vt 0.6666666 0.1
vt 0.5 0.1
vt 0.5 0.1
vt 0.3333333 0.1
vt 0.3333333 0.1
vt 0.1666667 0.1
vt 0 0.1
vt 1 0.125
vt 0.8333333 0.125
vt 0.8333333 0.125
vt 0.6666666 0.125
vt 0.6666666 0.125
vt 0.5 0.125
vt 0.5 0.125
vt 0.3333333 0.125
vt 0.3333333 0.125
vt 0.1666667 0.125
vt 0 0.125
vt 1 0.15
vt 0.8333333 0.15
vt 0.8333333 0.15
vt 0.6666666 0.15
vt 0.6666666 0.15
vt 0.5 0.15
vt 0.5 0.15
vt 0.3333333 0.15
vt 0.3333333 0.15
vt 0.1666667 0.15
vt 0 0.15
vt 1 0.175
vt 0.8333333 0.175
vt 0.8333333 0.175
vt 0.6666666 0.175
vt 0.6666666 0.175
vt 0.5 0.175
vt 0.5 0.175
vt 0.3333333 0.175
vt 0.3333333 0.175
vt 0.1666667 0.175
vt 0 0.175
vt 1 0.2
vt 0.8333333 0.2
vt 0.8333333 0.2
vt 0.6666666 0.2
vt 0.6666666 0.2
vt 0.5 0.2
vt 0.5 0.2
vt 0.3333333 0.2
vt 0.3333333 0.2
vt 0.1666667 0.2
vt 0 0.2
vt 1 0.225
vt 0.8333333 0.225
vt 0.8333333 0.225
vt 0.6666666 0.225
vt 0.6666666 0.225
vt 0.5 0.225
vt 0.5 0.225
vt 0.3333333 0.225
vt 0.3333333 0.225
vt 0.1666667 0.225
vt 0 0.225
vt 1 0.25
vt 0.8333333 0.25
vt 0.8333333 0.25
vt 0.6666666 0.25
vt 0.6666666 0.25
vt 0.5 0.25
vt 0.5 0.25
vt 0.3333333 0.25
vt 0.3333333 0.25
vt 0.1666667 0.25
vt 0 0.25
vt 1 0.25
vt 0.8333333 0.25
vt 1 0.275
vt 0.8333333 0.275
vt 0.8333333 0.275
vt 0.6666666 0.275
vt 0.6666666 0.25
vt 0.5 0.25
vt 0.6666666 0.275
vt 0.5 0.275
vt 0.5 0.25
vt 0.5 0.275
vt 0.3333333 0.275
vt 0.1666667 0.275
vt 0.1666667 0.25
vt 0 0.25
vt 0.1666667 0.275
vt 0 0.275
vt 1 0.3
vt 0.8333333 0.3
vt 0.8333333 0.3
vt 0.6666666 0.3
vt 0.6666666 0.3
vt 0.5 0.3
vt 0.5 0.3
vt 0.3333333 0.3
vt 0.1666667 0.3
vt 0.1666667 0.3
vt 0 0.3
vt 1 0.325
vt 0.8333333 0.325
vt 0.8333333 0.325
vt 0.6666666 0.325
vt 0.6666666 0.325
vt 0.5 0.325
vt 0.5 0.325
vt 0.3333333 0.325
vt 0.1666667 0.325
vt 0.1666667 0.325
vt 0 0.325
vt 1 0.35
vt 0.8333333 0.35
vt 0.8333333 0.35
vt 0.6666666 0.35
vt 0.6666666 0.35
vt 0.5 0.35
vt 0.5 0.35
vt 0.3333333 0.35
vt 0.1666667 0.35
vt 0.1666667 0.35
vt 0 0.35
vt 1 0.375
vt 0.8333333 0.375
vt 0.8333333 0.375
vt 0.6666666 0.375
vt 0.6666666 0.375
vt 0.5 0.375
vt 0.5 0.375
vt 0.3333333 0.375
vt 0.1666667 0.375
vt 0.1666667 0.375
vt 0 0.375
vt 1 0.4
vt 0.8333333 0.4
vt 0.8333333 0.4
vt 0.6666666 0.4
vt 0.6666666 0.4
vt 0.5 0.4
vt 0.5 0.4
vt 0.3333333 0.4
vt 0.1666667 0.4
vt 0.1666667 0.4
vt 0 0.4
vt 1 0.425
vt 0.8333333 0.425
vt 0.8333333 0.425
vt 0.6666666 0.425
vt 0.6666666 0.425
vt 0.5 0.425
vt 0.5 0.425
vt 0.3333333 0.425
vt 0.1666667 0.425
vt 0.1666667 0.425
vt 0 0.425
vt 1 0.45
vt 0.8333333 0.45
vt 0.8333333 0.45
vt 0.6666666 0.45
vt 0.6666666 0.45
vt 0.5 0.45
vt 0.5 0.45
vt 0.3333333 0.45
vt 0.1666667 0.45
vt 0.1666667 0.45
vt 0 0.45
vt 1 0.475
vt 0.8333333 0.475
vt 0.8333333 0.475
vt 0.6666666 0.475
vt 0.6666666 0.475
vt 0.5 0.475
vt 0.5 0.475
vt 0.3333333 0.475
vt 0.1666667 0.475
vt 0.1666667 0.475
vt 0 0.475
vt 1 0.5
vt 0.8333333 0.5
vt 0.8333333 0.5
vt 0.6666666 0.5
vt 0.6666666 0.5
vt 0.5 0.5
vt 0.5 0.5
vt 0.3333333 0.5
vt 0.1666667 0.5
vt 0.1666667 0.5
vt 0 0.5
vt 1 0.525
vt 0.8333333 0.525
vt 0.8333333 0.525
vt 0.6666666 0.525
vt 0.6666666 0.5
vt 0.5 0.5
vt 0.6666666 0.525
vt 0.5 0.525
vt 0.3333333 0.5
vt 0.3333333 0.525
vt 0.3333333 0.525
vt 0.1666667 0.525
vt 0.1666667 0.5
vt 0 0.5
vt 0.1666667 0.525
vt 0 0.525
vt 1 0.55
vt 0.8333333 0.55
vt 0.8333333 0.55
vt 0.6666666 0.55
vt 0.6666666 0.55
vt 0.5 0.55
vt 0.3333333 0.55
vt 0.3333333 0.55
vt 0.1666667 0.55
vt 0.1666667 0.55
vt 0 0.55
vt 1 0.575
vt 0.8333333 0.575
vt 0.8333333 0.575
vt 0.6666666 0.575
vt 0.6666666 0.575
vt 0.5 0.575
vt 0.3333333 0.575
vt 0.3333333 0.575
vt 0.1666667 0.575
vt 0.1666667 0.575
vt 0 0.575
vt 1 0.6
vt 0.8333333 0.6
vt 0.8333333 0.6
vt 0.6666666 0.6
vt 0.6666666 0.6
vt 0.5 0.6
vt 0.3333333 0.6
vt 0.3333333 0.6
vt 0.1666667 0.6
vt 0.1666667 0.6
vt 0 0.6
vt 1 0.625
vt 0.8333333 0.625
vt 0.8333333 0.625
vt 0.6666666 0.625
vt 0.6666666 0.625
vt 0.5 0.625
vt 0.3333333 0.625
vt 0.3333333 0.625
vt 0.1666667 0.625
vt 0.1666667 0.625
vt 0 0.625
vt 1 0.65
vt 0.8333333 0.65
vt 0.6666666 0.625
vt 0.6666666 0.65
vt 0.6666666 0.65
vt 0.5 0.65
vt 0.3333333 0.65
vt 0.3333333 0.65
vt 0.1666667 0.65
vt 0.1666667 0.65
vt 0 0.65
vt 1 0.675
vt 0.8333333 0.675
vt 0.6666666 0.675
vt 0.6666666 0.675
vt 0.5 0.675
vt 0.3333333 0.675
vt 0.3333333 0.675
vt 0.1666667 0.675
vt 0.1666667 0.675
vt 0 0.675
vt 1 0.7
vt 0.8333333 0.7
vt 0.6666666 0.7
vt 0.6666666 0.7
vt 0.5 0.7
vt 0.3333333 0.7
vt 0.3333333 0.7
vt 0.1666667 0.7
vt 0.1666667 0.7
vt 0 0.7
vt 1 0.725
vt 0.8333333 0.725
vt 0.6666666 0.725
vt 0.6666666 0.725
vt 0.5 0.725
vt 0.3333333 0.725
vt 0.3333333 0.725
vt 0.1666667 0.725
vt 0.1666667 0.725
vt 0 0.725
vt 1 0.75
vt 0.8333333 0.75
vt 0.6666666 0.75
vt 0.6666666 0.75
vt 0.5 0.75
vt 0.3333333 0.75
vt 0.3333333 0.75
vt 0.1666667 0.75
vt 0.1666667 0.75
vt 0 0.75
vt 1 0.775
vt 0.8333333 0.775
vt 0.6666666 0.775
vt 0.6666666 0.775
vt 0.5 0.775
vt 0.3333333 0.775
vt 0.3333333 0.775
vt 0.1666667 0.775
vt 0.1666667 0.775
vt 0 0.775
vt 1 0.8
vt 0.8333333 0.8
vt 0.6666666 0.8
vt 0.6666666 0.8
vt 0.5 0.8
vt 0.3333333 0.8
vt 0.3333333 0.8
vt 0.1666667 0.8
vt 0.1666667 0.8
vt 0 0.8
vt 1 0.825
vt 0.8333333 0.825
vt 0.6666666 0.825
vt 0.6666666 0.825
vt 0.5 0.825
vt 0.3333333 0.825
vt 0.5 0.825
vt 0.1666667 0.825
vt 0.1666667 0.825
vt 0 0.825
vt 1 0.85
vt 0.8333333 0.85
vt 0.6666666 0.85
vt 0.6666666 0.85
vt 0.5 0.85
vt 0.3333333 0.825
vt 0.3333333 0.825
vt 0.3333333 0.85
vt 0.5 0.85
vt 0.3333333 0.825
vt 0.3333333 0.85
vt 0.1666667 0.85
vt 0 0.85
vt 1 0.875
vt 0.8333333 0.875
vt 0.6666666 0.875
vt 0.8333333 0.875
vt 0.5 0.875
vt 0.5 0.875
vt 0.3333333 0.875
vt 0.3333333 0.875
vt 0.1666667 0.875
vt 0 0.875
vt 1 0.9
vt 0.8333333 0.9
vt 0.8333333 0.9
vt 0.6666666 0.9
vt 0.5 0.9
vt 0.6666666 0.9
vt 0.3333333 0.9
vt 0.3333333 0.9
vt 0.1666667 0.9
vt 0 0.875
vt 0 0.9
vt 0.1666667 0.9
vt 1 0.925
vt 0.8333333 0.925
vt 1 0.925
vt 0.6666666 0.925
vt 0.6666666 0.925
vt 0.5 0.925
vt 0.3333333 0.925
vt 0.3333333 0.925
vt 0.1666667 0.925
vt 0.1666667 0.925
vt 0 0.925
vt 1 0.95
vt 0.8333333 0.95
vt 0.6666666 0.95
vt 0.6666666 0.95
vt 0.5 0.95
vt 0.3333333 0.95
vt 0.3333333 0.95
vt 0.1666667 0.95
vt 0.1666667 0.95
vt 0 0.95
vt 1 0.975
vt 0.8333333 0.975
vt 0.6666666 0.975
vt 0.6666666 0.975
vt 0.5 0.975
vt 0.3333333 0.975
vt 0.3333333 0.975
vt 0.1666667 0.975
vt 0.1666667 0.975
vt 0 0.975
vt 1 1
vt 0.8333333 1
vt 0.6666666 1
vt 0.6666666 1
vt 0.5 1
vt 0.3333333 1
vt 0.3333333 1
vt 0.1666667 1
vt 0.1666667 1
vt 0 1

vt2 0.8137466 0.4366619
vt2 0.8136289 0.437893
vt2 0.781111 0.4335446
vt2 0.7810107 0.4347773
vt2 0.8028021 0.5446742
vt2 0.8025927 0.5458929
vt2 0.770514 0.5391293
vt2 0.7703294 0.5403519
vt2 0.8114703 0.4646374
vt2 0.8113791 0.4658709
vt2 0.7788177 0.462224
vt2 0.7787338 0.463458
vt2 0.004022848 0.494019
vt2 0.00390625 0.4927877
vt2 0.03661159 0.4909324
vt2 0.03651239 0.4896996
vt2 0.005395584 0.4092884
vt2 0.004652457 0.4083197
vt2 0.03104885 0.3896102
vt2 0.03031929 0.3886326
vt2 0.00390625 0.4073466
vt2 0.02958879 0.3876539
vt2 0.7154012 0.429135
vt2 0.7153257 0.4303695
vt2 0.7052428 0.5306026
vt2 0.7050947 0.5318305
vt2 0.7131477 0.4581581
vt2 0.7130759 0.4593929
vt2 0.1022516 0.4865827
vt2 0.1021772 0.4853481
vt2 0.08355682 0.3514744
vt2 0.08284484 0.3504798
vt2 0.0821337 0.3494866
vt2 0.6251236 0.4241639
vt2 0.6250616 0.4253994
vt2 0.6153998 0.5206577
vt2 0.6152749 0.5218879
vt2 0.622903 0.4532607
vt2 0.6228409 0.4544962
vt2 0.1924872 0.4816919
vt2 0.1924263 0.4804564
vt2 0.1564811 0.300012
vt2 0.1557829 0.2990086
vt2 0.1550844 0.2980051
vt2 0.5187431 0.4193623
vt2 0.518694 0.4205984
vt2 0.5093797 0.5108548
vt2 0.509279 0.5120873
vt2 0.5165644 0.4483555
vt2 0.5165136 0.4495914
vt2 0.2988236 0.4769841
vt2 0.2987756 0.475748
vt2 0.2431631 0.2405202
vt2 0.2424797 0.2395073
vt2 0.2417957 0.2384938
vt2 0.4047145 0.415462
vt2 0.404681 0.4166984
vt2 0.3955878 0.5027585
vt2 0.3955175 0.5039932
vt2 0.4025885 0.4442651
vt2 0.402553 0.4455014
vt2 0.4127944 0.4731834
vt2 0.412762 0.471947
vt2 0.3369857 0.1782673
vt2 0.3363213 0.1772424
vt2 0.3356563 0.1762165
vt2 0.2914555 0.4131947
vt2 0.2914437 0.4144314
vt2 0.2824307 0.4979252
vt2 0.2824043 0.4991617
vt2 0.2893991 0.4418077
vt2 0.2893856 0.4430445
vt2 0.5259677 0.4710138
vt2 0.525957 0.4697771
vt2 0.4313385 0.1185075
vt2 0.4307022 0.1174664
vt2 0.4300646 0.1164232
vt2 0.1872977 0.4132974
vt2 0.1873211 0.4145341
vt2 0.1783037 0.4979252
vt2 0.1783492 0.4991612
vt2 0.1853482 0.4417993
vt2 0.1853713 0.4430359
vt2 0.6299817 0.4712019
vt2 0.6300061 0.4699652
vt2 0.5196102 0.0664755
vt2 0.5190213 0.06541069
vt2 0.51843 0.06434029
vt2 0.1003491 0.4165216
vt2 0.1004429 0.4177548
vt2 0.09160362 0.5043218
vt2 0.09179165 0.5055441
vt2 0.09861388 0.4450392
vt2 0.09870937 0.4462724
vt2 0.7166418 0.4744765
vt2 0.7167366 0.4732434
vt2 0.5951819 0.02737464
vt2 0.5946922 0.02627577
vt2 0.5941948 0.02515344
vt2 0.03792885 0.4237506
vt2 0.03822332 0.424952
vt2 0.03065132 0.518732
vt2 0.03122475 0.5198278
vt2 0.03681157 0.4523264
vt2 0.03710561 0.4535278
vt2 0.7782606 0.4815989
vt2 0.7785562 0.4803978
vt2 0.6512953 0.006258729
vt2 0.6510879 0.005093482
vt2 0.6508797 0.00390625
vt2 0.00390625 0.4368675
vt2 0.004597801 0.437893
vt2 0.00390625 0.5428814
vt2 0.005045692 0.5433632
vt2 0.00390625 0.4648243
vt2 0.004565571 0.4658709
vt2 0.810771 0.494019
vt2 0.8114635 0.4929941
vt2 0.6854739 0.006508551
vt2 0.6860127 0.005381938
vt2 0.6862605 0.004207594
vt2 0.5770361 0.7364985
vt2 0.5771108 0.7377301
vt2 0.5505645 0.7443187
vt2 0.5510778 0.7454406
vt2 0.004906229 0.5700929
vt2 0.006089191 0.5697294
vt2 0.581017 0.8852083
vt2 0.5817704 0.8842273
vt2 0.604721 0.8967713
vt2 0.605131 0.8956044
vt2 0.6846824 0.007532662
vt2 0.701871 0.0286002
vt2 0.703041 0.02799048
vt2 0.7041671 0.02739764
vt2 0.2928295 0.9611118
vt2 0.29358 0.962095
vt2 0.2683031 0.9730531
vt2 0.2687096 0.9742212
vt2 0.5277513 0.7589278
vt2 0.5285124 0.759899
vt2 0.01914019 0.5928993
vt2 0.02005951 0.5920704
vt2 0.6304131 0.9025357
vt2 0.6305866 0.9013111
vt2 0.7094 0.05516055
vt2 0.7106746 0.05498238
vt2 0.711949 0.05479908
vt2 0.2420266 0.9788661
vt2 0.2421965 0.9800913
vt2 0.5053103 0.7801964
vt2 0.5062058 0.7810453
vt2 0.04344868 0.6118662
vt2 0.04410916 0.6108195
vt2 0.6608291 0.9043981
vt2 0.6608476 0.9031615
vt2 0.7094911 0.08689945
vt2 0.7107646 0.08699391
vt2 0.7120443 0.08708674
vt2 0.2112407 0.9806476
vt2 0.2112556 0.9818843
vt2 0.4826005 0.8068335
vt2 0.4835632 0.8076053
vt2 0.07475396 0.6275293
vt2 0.0752437 0.6263931
vt2 0.6956056 0.9033249
vt2 0.6955345 0.9020901
vt2 0.7040859 0.1225323
vt2 0.7053357 0.1227779
vt2 0.7065899 0.1230237
vt2 0.1762627 0.9794516
vt2 0.1761879 0.9806861
vt2 0.460033 0.8367831
vt2 0.4610311 0.8375084
vt2 0.1100172 0.6404162
vt2 0.1104038 0.639241
vt2 0.7328958 0.9001853
vt2 0.7327731 0.8989546
vt2 0.6949912 0.1600753
vt2 0.6962194 0.1604052
vt2 0.6974511 0.1607359
vt2 0.1388666 0.9761819
vt2 0.1387403 0.9774123
vt2 0.4384214 0.8676137
vt2 0.4394377 0.8683134
vt2 0.1462041 0.6510351
vt2 0.1465338 0.649843
vt2 0.7703004 0.8958872
vt2 0.7701502 0.8946595
vt2 0.6840029 0.1972602
vt2 0.6852168 0.1976347
vt2 0.6864338 0.1980101
vt2 0.1014131 0.9717593
vt2 0.1012593 0.9729866
vt2 0.4187382 0.8967174
vt2 0.41976 0.8974089
vt2 0.1802768 0.6598899
vt2 0.1805893 0.6586936
vt2 0.8052008 0.891368
vt2 0.8050431 0.8901412
vt2 0.6729271 0.231693
vt2 0.6741343 0.2320803
vt2 0.6753457 0.232469
vt2 0.06650709 0.9671307
vt2 0.06634573 0.968357
vt2 0.4020243 0.9214017
vt2 0.4030352 0.9221092
vt2 0.2091901 0.6674786
vt2 0.2095406 0.6662931
vt2 0.8349013 0.8875789
vt2 0.8347637 0.8863498
vt2 0.6635763 0.2609281
vt2 0.6647851 0.2612847
vt2 0.6660063 0.2616452
vt2 0.03685621 0.9632601
vt2 0.03671492 0.9644888
vt2 0.3893784 0.9389171
vt2 0.3903228 0.939711
vt2 0.2298579 0.6742716
vt2 0.2304074 0.6731642
vt2 0.8567774 0.8854638
vt2 0.8567438 0.8842273
vt2 0.6577628 0.282547
vt2 0.6590065 0.2827448
vt2 0.660239 0.2829405
vt2 0.01520299 0.9611118
vt2 0.01516563 0.9623481
vt2 0.3817574 0.9468211
vt2 0.3824809 0.9478205
vt2 0.2391989 0.6806344
vt2 0.2402079 0.6799203
vt2 0.868677 0.8859536
vt2 0.8689421 0.8847456
vt2 0.6571837 0.2949591
vt2 0.6584587 0.2948025
vt2 0.65966 0.2944282
vt2 0.00390625 0.9615576
vt2 0.004167438 0.9627665
vt2 0.3751834 0.9500216
vt2 0.3756582 0.9511604
vt2 0.2411738 0.6879838
vt2 0.2423946 0.6877902
vt2 0.581017 0.7375532
vt2 0.5820116 0.7368442
vt2 0.5845281 0.7448209
vt2 0.5856143 0.7442971
vt2 0.5832232 0.7364985
vt2 0.5867078 0.7437658
vt2 0.6634969 0.3013991
vt2 0.6644083 0.3005316
vt2 0.9907634 0.8109574
vt2 0.9915795 0.8118867
vt2 0.986037 0.8169103
vt2 0.9870366 0.8176387
vt2 0.3665962 0.9530131
vt2 0.3669268 0.9542019
vt2 0.2416454 0.6972341
vt2 0.2428813 0.697251
vt2 0.5886225 0.7531353
vt2 0.5897091 0.7525584
vt2 0.5907813 0.751986
vt2 0.6707779 0.3075752
vt2 0.6715286 0.3065654
vt2 0.9809931 0.824573
vt2 0.9820259 0.8252537
vt2 0.356326 0.9551656
vt2 0.3564945 0.9563879
vt2 0.2408105 0.707879
vt2 0.242038 0.7080244
vt2 0.5939341 0.7623917
vt2 0.5949726 0.7617255
vt2 0.5960019 0.7610627
vt2 0.6798333 0.3134528
vt2 0.6804749 0.3123703
vt2 0.9752268 0.8333273
vt2 0.9762391 0.834038
vt2 0.3446772 0.9559329
vt2 0.3446628 0.9571666
vt2 0.2389283 0.7196071
vt2 0.2401435 0.7198328
vt2 0.6008386 0.7720514
vt2 0.6017947 0.7712682
vt2 0.6027448 0.7704881
vt2 0.6902872 0.3191056
vt2 0.6908564 0.3179833
vt2 0.9682732 0.8426125
vt2 0.9692232 0.8434045
vt2 0.3319617 0.9547654
vt2 0.3317442 0.9559801
vt2 0.2362155 0.7323168
vt2 0.2374205 0.7325923
vt2 0.6097158 0.7815453
vt2 0.6105498 0.7806313
vt2 0.6113799 0.7797199
vt2 0.7019485 0.3246639
vt2 0.702471 0.3235191
vt2 0.9596619 0.8518747
vt2 0.9605065 0.8527784
vt2 0.3184423 0.9511003
vt2 0.3180661 0.9522595
vt2 0.3314315 0.9572055
vt2 0.3176809 0.9534374
vt2 0.6209714 0.7903031
vt2 0.6216439 0.7892632
vt2 0.622314 0.7882257
vt2 0.7148791 0.3303407
vt2 0.7153745 0.3291839
vt2 0.9488876 0.8605806
vt2 0.9495839 0.8616028
vt2 0.30398 0.9455936
vt2 0.3034941 0.9467192
vt2 0.3030047 0.9478478
vt2 0.6350608 0.7977745
vt2 0.6355435 0.7966331
vt2 0.6360251 0.7954938
vt2 0.729439 0.3364499
vt2 0.7299227 0.3352883
vt2 0.9353878 0.8682128
vt2 0.9359026 0.8693375
vt2 0.2879612 0.9378032
vt2 0.2873826 0.9388875
vt2 0.2868024 0.9399718
vt2 0.6524962 0.8034192
vt2 0.6527824 0.8022128
vt2 0.6530685 0.8010078
vt2 0.7462556 0.3434061
vt2 0.7467394 0.3422444
vt2 0.9185441 0.8742359
vt2 0.918865 0.8754305
vt2 0.2697503 0.9271936
vt2 0.269098 0.9282395
vt2 0.2684461 0.9292834
vt2 0.6738444 0.8066976
vt2 0.6739487 0.8054616
vt2 0.6740531 0.8042266
vt2 0.7661286 0.3517164
vt2 0.7666221 0.3505588
vt2 0.8977106 0.8780717
vt2 0.8978459 0.8793011
vt2 0.2486092 0.9131829
vt2 0.2479037 0.9141994
vt2 0.247201 0.9152116
vt2 0.6997066 0.8070512
vt2 0.6996582 0.8058112
vt2 0.6996099 0.8045714
vt2 0.7899128 0.3619741
vt2 0.7904249 0.3608246
vt2 0.8722506 0.8790845
vt2 0.872224 0.8803211
vt2 0.2235706 0.8952016
vt2 0.2228335 0.8962023
vt2 0.2221003 0.8971978
vt2 0.7307907 0.8040381
vt2 0.7306339 0.8028072
vt2 0.7304771 0.801576
vt2 0.8185156 0.3749404
vt2 0.8190513 0.3738017
vt2 0.8414483 0.8766997
vt2 0.8413009 0.8779279
vt2 0.1948889 0.8739199
vt2 0.1941402 0.8749142
vt2 0.1933941 0.8759053
vt2 0.7662468 0.7981288
vt2 0.7660247 0.796909
vt2 0.7658023 0.795687
vt2 0.8512391 0.3905624
vt2 0.851799 0.3894354
vt2 0.8061966 0.8712593
vt2 0.8059711 0.8724756
vt2 0.1637495 0.850741
vt2 0.1630006 0.8517366
vt2 0.1622534 0.8527299
vt2 0.8042611 0.7901317
vt2 0.8039948 0.7889239
vt2 0.886397 0.4081639
vt2 0.8858322 0.4092884
vt2 0.886981 0.4070492
vt2 0.7683017 0.8635372
vt2 0.768025 0.8647428
vt2 0.1314388 0.8271098
vt2 0.130697 0.8281126
vt2 0.1299572 0.8291129
vt2 0.8428924 0.7804718
vt2 0.8425925 0.7792718
vt2 0.8037153 0.7877192
vt2 0.00390625 0.9880788
vt2 0.04361371 0.9872736
vt2 0.04362492 0.9885084
vt2 0.7685857 0.8623334
vt2 0.7298667 0.8531992
vt2 0.7295565 0.8543961
vt2 0.7292461 0.8555939
vt2 0.09937155 0.8043151
vt2 0.0986381 0.8053275
vt2 0.8805634 0.7700882
vt2 0.8808855 0.7712841
vt2 0.8802413 0.7688923
vt2 0.08255548 0.9876429
vt2 0.08254971 0.9864082
vt2 0.6921045 0.8435113
vt2 0.6917725 0.8447019
vt2 0.6914405 0.8458926
vt2 0.06936152 0.7832987
vt2 0.06863616 0.784313
vt2 0.9158111 0.7611544
vt2 0.9154721 0.7599648
vt2 0.1188677 0.9871992
vt2 0.1188659 0.9884372
vt2 0.1188696 0.9859623
vt2 0.6571141 0.8339206
vt2 0.6567644 0.8351081
vt2 0.09937155 0.8043151
vt2 0.06936152 0.7832987
vt2 0.07008696 0.7822842
vt2 0.04319053 0.7650077
vt2 0.9461065 0.751995
vt2 0.9464601 0.7531803
vt2 0.9457529 0.7508097
vt2 0.1505417 0.9882649
vt2 0.1505493 0.9870281
vt2 0.1505569 0.9857906
vt2 0.6267205 0.8250259
vt2 0.6263563 0.8262089
vt2 0.04391558 0.7639893
vt2 0.04319053 0.7650077
vt2 0.9703721 0.7457272
vt2 0.9700073 0.7445452
vt2 0.9696426 0.7433633
vt2 0.1755808 0.9883115
vt2 0.1755952 0.9870749
vt2 0.1756096 0.9858379
vt2 0.6027643 0.8176999
vt2 0.6023898 0.8188795
vt2 0.02318959 0.7494553
vt2 0.02246563 0.7504745
vt2 0.9860569 0.7407
vt2 0.9856837 0.7395208
vt2 0.9853104 0.7383416
vt2 0.1920345 0.9884369
vt2 0.1920552 0.9872007
vt2 0.1920758 0.9859641
vt2 0.5870489 0.8127624
vt2 0.5866669 0.8139395
vt2 0.009545808 0.7399189
vt2 0.008823815 0.7409394
vt2 0.9916884 0.7388543
vt2 0.9913117 0.7376767
vt2 0.9909348 0.7364985
vt2 0.1979498 0.9885084
vt2 0.1979735 0.9872732
vt2 0.1979974 0.9860371
vt2 0.5814021 0.8109574
vt2 0.581017 0.8121338
vt2 0.004627163 0.7364985
vt2 0.00390625 0.7375197


vc 1 1 1 1
vc 1 1 1 1
vc 1 1 1 1
vc 1 1 1 1
vc 1 1 1 1
vc 1 1 1 1
vc 1 1 1 1
vc 1 1 1 1
vc 1 1 1 1
vc 1 1 1 1
vc 1 1 1 1
vc 1 1 1 1
vc 1 1 1 1
vc 1 1 1 1
vc 1 1 1 1
vc 1 1 1 1
vc 1 1 1 1
vc 1 1 1 1
vc 1 1 1 1
vc 1 1 1 1
vc 1 1 1 1
vc 1 1 1 1
vc 1 1 1 1
vc 1 1 1 1
vc 1 1 1 1
vc 1 1 1 1
vc 1 1 1 1
vc 1 1 1 1
vc 1 1 1 1
vc 1 1 1 1
vc 1 1 1 1
vc 1 1 1 1
vc 1 1 1 1
vc 1 1 1 1
vc 1 1 1 1
vc 1 1 1 1
vc 1 1 1 1
vc 1 1 1 1
vc 1 1 1 1
vc 1 1 1 1
vc 1 1 1 1
vc 1 1 1 1
vc 1 1 1 1
vc 1 1 1 1
vc 1 1 1 1
vc 1 1 1 1
vc 1 1 1 1
vc 1 1 1 1
vc 1 1 1 1
vc 1 1 1 1
vc 1 1 1 1
vc 1 1 1 1
vc 1 1 1 1
vc 1 1 1 1
vc 1 1 1 1
vc 1 1 1 1
vc 1 1 1 1
vc 1 1 1 1
vc 1 1 1 1
vc 1 1 1 1
vc 1 1 1 1
vc 1 1 1 1
vc 1 1 1 1
vc 1 1 1 1
vc 1 1 1 1
vc 1 1 1 1
vc 1 1 1 1
vc 1 1 1 1
vc 1 1 1 1
vc 1 1 1 1
vc 1 1 1 1
vc 1 1 1 1
vc 1 1 1 1
vc 1 1 1 1
vc 1 1 1 1
vc 1 1 1 1
vc 1 1 1 1
vc 1 1 1 1
vc 1 1 1 1
vc 1 1 1 1
vc 1 1 1 1
vc 1 1 1 1
vc 1 1 1 1
vc 1 1 1 1
vc 1 1 1 1
vc 1 1 1 1
vc 1 1 1 1
vc 1 1 1 1
vc 1 1 1 1
vc 1 1 1 1
vc 1 1 1 1
vc 1 1 1 1
vc 1 1 1 1
vc 1 1 1 1
vc 1 1 1 1
vc 1 1 1 1
vc 1 1 1 1
vc 1 1 1 1
vc 1 1 1 1
vc 1 1 1 1
vc 1 1 1 1
vc 1 1 1 1
vc 1 1 1 1
vc 1 1 1 1
vc 1 1 1 1
vc 1 1 1 1
vc 1 1 1 1
vc 1 1 1 1
vc 1 1 1 1
vc 1 1 1 1
vc 1 1 1 1
vc 1 1 1 1
vc 1 1 1 1
vc 1 1 1 1
vc 1 1 1 1
vc 1 1 1 1
vc 1 1 1 1
vc 1 1 1 1
vc 1 1 1 1
vc 1 1 1 1
vc 1 1 1 1
vc 1 1 1 1
vc 1 1 1 1
vc 1 1 1 1
vc 1 1 1 1
vc 1 1 1 1
vc 1 1 1 1
vc 1 1 1 1
vc 1 1 1 1
vc 1 1 1 1
vc 1 1 1 1
vc 1 1 1 1
vc 1 1 1 1
vc 1 1 1 1
vc 1 1 1 1
vc 1 1 1 1
vc 1 1 1 1
vc 1 1 1 1
vc 1 1 1 1
vc 1 1 1 1
vc 1 1 1 1
vc 1 1 1 1
vc 1 1 1 1
vc 1 1 1 1
vc 1 1 1 1
vc 1 1 1 1
vc 1 1 1 1
vc 1 1 1 1
vc 1 1 1 1
vc 1 1 1 1
vc 1 1 1 1
vc 1 1 1 1
vc 1 1 1 1
vc 1 1 1 1
vc 1 1 1 1
vc 1 1 1 1
vc 1 1 1 1
vc 1 1 1 1
vc 1 1 1 1
vc 1 1 1 1
vc 1 1 1 1
vc 1 1 1 1
vc 1 1 1 1
vc 1 1 1 1
vc 1 1 1 1
vc 1 1 1 1
vc 1 1 1 1
vc 1 1 1 1
vc 1 1 1 1
vc 1 1 1 1
vc 1 1 1 1
vc 1 1 1 1
vc 1 1 1 1
vc 1 1 1 1
vc 1 1 1 1
vc 1 1 1 1
vc 1 1 1 1
vc 1 1 1 1
vc 1 1 1 1
vc 1 1 1 1
vc 1 1 1 1
vc 1 1 1 1
vc 1 1 1 1
vc 1 1 1 1
vc 1 1 1 1
vc 1 1 1 1
vc 1 1 1 1
vc 1 1 1 1
vc 1 1 1 1
vc 1 1 1 1
vc 1 1 1 1
vc 1 1 1 1
vc 1 1 1 1
vc 1 1 1 1
vc 1 1 1 1
vc 1 1 1 1
vc 1 1 1 1
vc 1 1 1 1
vc 1 1 1 1
vc 1 1 1 1
vc 1 1 1 1
vc 1 1 1 1
vc 1 1 1 1
vc 1 1 1 1
vc 1 1 1 1
vc 1 1 1 1
vc 1 1 1 1
vc 1 1 1 1
vc 1 1 1 1
vc 1 1 1 1
vc 1 1 1 1
vc 1 1 1 1
vc 1 1 1 1
vc 1 1 1 1
vc 1 1 1 1
vc 1 1 1 1
vc 1 1 1 1
vc 1 1 1 1
vc 1 1 1 1
vc 1 1 1 1
vc 1 1 1 1
vc 1 1 1 1
vc 1 1 1 1
vc 1 1 1 1
vc 1 1 1 1
vc 1 1 1 1
vc 1 1 1 1
vc 1 1 1 1
vc 1 1 1 1
vc 1 1 1 1
vc 1 1 1 1
vc 1 1 1 1
vc 1 1 1 1
vc 1 1 1 1
vc 1 1 1 1
vc 1 1 1 1
vc 1 1 1 1
vc 1 1 1 1
vc 1 1 1 1
vc 1 1 1 1
vc 1 1 1 1
vc 1 1 1 1
vc 1 1 1 1
vc 1 1 1 1
vc 1 1 1 1
vc 1 1 1 1
vc 1 1 1 1
vc 1 1 1 1
vc 1 1 1 1
vc 1 1 1 1
vc 1 1 1 1
vc 1 1 1 1
vc 1 1 1 1
vc 1 1 1 1
vc 1 1 1 1
vc 1 1 1 1
vc 1 1 1 1
vc 1 1 1 1
vc 1 1 1 1
vc 1 1 1 1
vc 1 1 1 1
vc 1 1 1 1
vc 1 1 1 1
vc 1 1 1 1
vc 1 1 1 1
vc 1 1 1 1
vc 1 1 1 1
vc 1 1 1 1
vc 1 1 1 1
vc 1 1 1 1
vc 1 1 1 1
vc 1 1 1 1
vc 1 1 1 1
vc 1 1 1 1
vc 1 1 1 1
vc 1 1 1 1
vc 1 1 1 1
vc 1 1 1 1
vc 1 1 1 1
vc 1 1 1 1
vc 1 1 1 1
vc 1 1 1 1
vc 1 1 1 1
vc 1 1 1 1
vc 1 1 1 1
vc 1 1 1 1
vc 1 1 1 1
vc 1 1 1 1
vc 1 1 1 1
vc 1 1 1 1
vc 1 1 1 1
vc 1 1 1 1
vc 1 1 1 1
vc 1 1 1 1
vc 1 1 1 1
vc 1 1 1 1
vc 1 1 1 1
vc 1 1 1 1
vc 1 1 1 1
vc 1 1 1 1
vc 1 1 1 1
vc 1 1 1 1
vc 1 1 1 1
vc 1 1 1 1
vc 1 1 1 1
vc 1 1 1 1
vc 1 1 1 1
vc 1 1 1 1
vc 1 1 1 1
vc 1 1 1 1
vc 1 1 1 1
vc 1 1 1 1
vc 1 1 1 1
vc 1 1 1 1
vc 1 1 1 1
vc 1 1 1 1
vc 1 1 1 1
vc 1 1 1 1
vc 1 1 1 1
vc 1 1 1 1
vc 1 1 1 1
vc 1 1 1 1
vc 1 1 1 1
vc 1 1 1 1
vc 1 1 1 1
vc 1 1 1 1
vc 1 1 1 1
vc 1 1 1 1
vc 1 1 1 1
vc 1 1 1 1
vc 1 1 1 1
vc 1 1 1 1
vc 1 1 1 1
vc 1 1 1 1
vc 1 1 1 1
vc 1 1 1 1
vc 1 1 1 1
vc 1 1 1 1
vc 1 1 1 1
vc 1 1 1 1
vc 1 1 1 1
vc 1 1 1 1
vc 1 1 1 1
vc 1 1 1 1
vc 1 1 1 1
vc 1 1 1 1
vc 1 1 1 1
vc 1 1 1 1
vc 1 1 1 1
vc 1 1 1 1
vc 1 1 1 1
vc 1 1 1 1
vc 1 1 1 1
vc 1 1 1 1
vc 1 1 1 1
vc 1 1 1 1
vc 1 1 1 1
vc 1 1 1 1
vc 1 1 1 1
vc 1 1 1 1
vc 1 1 1 1
vc 1 1 1 1
vc 1 1 1 1
vc 1 1 1 1
vc 1 1 1 1
vc 1 1 1 1
vc 1 1 1 1
vc 1 1 1 1
vc 1 1 1 1
vc 1 1 1 1
vc 1 1 1 1
vc 1 1 1 1
vc 1 1 1 1
vc 1 1 1 1
vc 1 1 1 1
vc 1 1 1 1
vc 1 1 1 1
vc 1 1 1 1
vc 1 1 1 1
vc 1 1 1 1
vc 1 1 1 1
vc 1 1 1 1
vc 1 1 1 1
vc 1 1 1 1
vc 1 1 1 1
vc 1 1 1 1
vc 1 1 1 1
vc 1 1 1 1
vc 1 1 1 1
vc 1 1 1 1
vc 1 1 1 1
vc 1 1 1 1
vc 1 1 1 1
vc 1 1 1 1
vc 1 1 1 1
vc 1 1 1 1
vc 1 1 1 1
vc 1 1 1 1
vc 1 1 1 1
vc 1 1 1 1
vc 1 1 1 1
vc 1 1 1 1
vc 1 1 1 1
vc 1 1 1 1
vc 1 1 1 1
vc 1 1 1 1
vc 1 1 1 1
vc 1 1 1 1
vc 1 1 1 1
vc 1 1 1 1
vc 1 1 1 1
vc 1 1 1 1
vc 1 1 1 1
vc 1 1 1 1
vc 1 1 1 1
vc 1 1 1 1
vc 1 1 1 1
vc 1 1 1 1
vc 1 1 1 1
vc 1 1 1 1
vc 1 1 1 1
vc 1 1 1 1
vc 1 1 1 1
vc 1 1 1 1
vc 1 1 1 1
vc 1 1 1 1
vc 1 1 1 1
vc 1 1 1 1
vc 1 1 1 1
vc 1 1 1 1
vc 1 1 1 1
vc 1 1 1 1
vc 1 1 1 1
vc 1 1 1 1
vc 1 1 1 1
vc 1 1 1 1
vc 1 1 1 1
vc 1 1 1 1
vc 1 1 1 1
vc 1 1 1 1
vc 1 1 1 1
vc 1 1 1 1
vc 1 1 1 1
vc 1 1 1 1
vc 1 1 1 1
vc 1 1 1 1
vc 1 1 1 1
vc 1 1 1 1
vc 1 1 1 1
vc 1 1 1 1
vc 1 1 1 1
vc 1 1 1 1
vc 1 1 1 1
vc 1 1 1 1
vc 1 1 1 1

usemtl LunetteO2
usemap LunetteO2
f 3/3/3 2/2/2 1/1/1
f 3/3/3 4/4/4 2/2/2
f 7/7/7 6/6/6 5/5/5
f 7/7/7 8/8/8 6/6/6
f 11/11/11 10/10/10 9/9/9
f 11/11/11 12/12/12 10/10/10
f 15/15/15 14/14/14 13/13/13
f 15/15/15 16/16/16 14/14/14
f 19/19/19 18/18/18 17/17/17
f 19/19/19 20/20/20 18/18/18
f 20/20/20 21/21/21 18/18/18
f 20/20/20 22/22/22 21/21/21
f 23/23/23 4/4/4 3/3/3
f 23/23/23 24/24/24 4/4/4
f 25/25/25 8/8/8 7/7/7
f 25/25/25 26/26/26 8/8/8
f 27/27/27 12/12/12 11/11/11
f 27/27/27 28/28/28 12/12/12
f 29/29/29 16/16/16 15/15/15
f 29/29/29 30/30/30 16/16/16
f 31/31/31 20/20/20 19/19/19
f 31/31/31 32/32/32 20/20/20
f 32/32/32 22/22/22 20/20/20
f 32/32/32 33/33/33 22/22/22
f 34/34/34 24/24/24 23/23/23
f 34/34/34 35/35/35 24/24/24
f 36/36/36 26/26/26 25/25/25
f 36/36/36 37/37/37 26/26/26
f 38/38/38 28/28/28 27/27/27
f 38/38/38 39/39/39 28/28/28
f 40/40/40 30/30/30 29/29/29
f 40/40/40 41/41/41 30/30/30
f 42/42/42 32/32/32 31/31/31
f 42/42/42 43/43/43 32/32/32
f 43/43/43 33/33/33 32/32/32
f 43/43/43 44/44/44 33/33/33
f 45/45/45 35/35/35 34/34/34
f 45/45/45 46/46/46 35/35/35
f 47/47/47 37/37/37 36/36/36
f 47/47/47 48/48/48 37/37/37
f 49/49/49 39/39/39 38/38/38
f 49/49/49 50/50/50 39/39/39
f 51/51/51 41/41/41 40/40/40
f 51/51/51 52/52/52 41/41/41
f 53/53/53 43/43/43 42/42/42
f 53/53/53 54/54/54 43/43/43
f 54/54/54 44/44/44 43/43/43
f 54/54/54 55/55/55 44/44/44
f 56/56/56 46/46/46 45/45/45
f 56/56/56 57/57/57 46/46/46
f 58/58/58 48/48/48 47/47/47
f 58/58/58 59/59/59 48/48/48
f 60/60/60 50/50/50 49/49/49
f 60/60/60 61/61/61 50/50/50
f 62/62/62 52/52/52 51/51/51
f 62/62/62 63/63/63 52/52/52
f 64/64/64 54/54/54 53/53/53
f 64/64/64 65/65/65 54/54/54
f 65/65/65 55/55/55 54/54/54
f 65/65/65 66/66/66 55/55/55
f 67/67/67 57/57/57 56/56/56
f 67/67/67 68/68/68 57/57/57
f 69/69/69 59/59/59 58/58/58
f 69/69/69 70/70/70 59/59/59
f 71/71/71 61/61/61 60/60/60
f 71/71/71 72/72/72 61/61/61
f 73/73/73 63/63/63 62/62/62
f 73/73/73 74/74/74 63/63/63
f 75/75/75 65/65/65 64/64/64
f 75/75/75 76/76/76 65/65/65
f 76/76/76 66/66/66 65/65/65
f 76/76/76 77/77/77 66/66/66
f 78/78/78 68/68/68 67/67/67
f 78/78/78 79/79/79 68/68/68
f 80/80/80 70/70/70 69/69/69
f 80/80/80 81/81/81 70/70/70
f 82/82/82 72/72/72 71/71/71
f 82/82/82 83/83/83 72/72/72
f 84/84/84 74/74/74 73/73/73
f 84/84/84 85/85/85 74/74/74
f 86/86/86 76/76/76 75/75/75
f 86/86/86 87/87/87 76/76/76
f 87/87/87 77/77/77 76/76/76
f 87/87/87 88/88/88 77/77/77
f 89/89/89 79/79/79 78/78/78
f 89/89/89 90/90/90 79/79/79
f 91/91/91 81/81/81 80/80/80
f 91/91/91 92/92/92 81/81/81
f 93/93/93 83/83/83 82/82/82
f 93/93/93 94/94/94 83/83/83
f 95/95/95 85/85/85 84/84/84
f 95/95/95 96/96/96 85/85/85
f 97/97/97 87/87/87 86/86/86
f 97/97/97 98/98/98 87/87/87
f 98/98/98 88/88/88 87/87/87
f 98/98/98 99/99/99 88/88/88
f 100/100/100 90/90/90 89/89/89
f 100/100/100 101/101/101 90/90/90
f 102/102/102 92/92/92 91/91/91
f 102/102/102 103/103/103 92/92/92
f 104/104/104 94/94/94 93/93/93
f 104/104/104 105/105/105 94/94/94
f 106/106/106 96/96/96 95/95/95
f 106/106/106 107/107/107 96/96/96
f 108/108/108 98/98/98 97/97/97
f 108/108/108 109/109/109 98/98/98
f 109/109/109 99/99/99 98/98/98
f 109/109/109 110/110/110 99/99/99
f 111/111/111 101/101/101 100/100/100
f 111/111/111 112/112/112 101/101/101
f 113/113/113 103/103/103 102/102/102
f 113/113/113 114/114/114 103/103/103
f 115/115/115 105/105/105 104/104/104
f 115/115/115 116/116/116 105/105/105
f 117/117/117 107/107/107 106/106/106
f 117/117/117 118/118/118 107/107/107
f 119/119/119 109/109/109 108/108/108
f 119/119/119 120/120/120 109/109/109
f 120/120/120 110/110/110 109/109/109
f 120/120/120 121/121/121 110/110/110
f 124/124/124 123/123/123 122/122/122
f 124/124/124 125/125/125 123/123/123
f 126/126/126 114/114/114 113/113/113
f 126/126/126 127/127/127 114/114/114
f 130/130/130 129/129/129 128/128/128
f 130/130/130 131/131/131 129/129/129
f 133/133/133 119/119/119 132/132/132
f 133/133/133 134/134/134 119/119/119
f 134/134/134 120/120/120 119/119/119
f 134/134/134 135/135/135 120/120/120
f 138/138/138 137/137/137 136/136/136
f 138/138/138 139/139/139 137/137/137
f 140/140/140 125/125/125 124/124/124
f 140/140/140 141/141/141 125/125/125
f 142/142/142 127/127/127 126/126/126
f 142/142/142 143/143/143 127/127/127
f 144/144/144 131/131/131 130/130/130
f 144/144/144 145/145/145 131/131/131
f 146/146/146 134/134/134 133/133/133
f 146/146/146 147/147/147 134/134/134
f 147/147/147 135/135/135 134/134/134
f 147/147/147 148/148/148 135/135/135
f 149/149/149 139/139/139 138/138/138
f 149/149/149 150/150/150 139/139/139
f 151/151/151 141/141/141 140/140/140
f 151/151/151 152/152/152 141/141/141
f 153/153/153 143/143/143 142/142/142
f 153/153/153 154/154/154 143/143/143
f 155/155/155 145/145/145 144/144/144
f 155/155/155 156/156/156 145/145/145
f 157/157/157 147/147/147 146/146/146
f 157/157/157 158/158/158 147/147/147
f 158/158/158 148/148/148 147/147/147
f 158/158/158 159/159/159 148/148/148
f 160/160/160 150/150/150 149/149/149
f 160/160/160 161/161/161 150/150/150
f 162/162/162 152/152/152 151/151/151
f 162/162/162 163/163/163 152/152/152
f 164/164/164 154/154/154 153/153/153
f 164/164/164 165/165/165 154/154/154
f 166/166/166 156/156/156 155/155/155
f 166/166/166 167/167/167 156/156/156
f 168/168/168 158/158/158 157/157/157
f 168/168/168 169/169/169 158/158/158
f 169/169/169 159/159/159 158/158/158
f 169/169/169 170/170/170 159/159/159
f 171/171/171 161/161/161 160/160/160
f 171/171/171 172/172/172 161/161/161
f 173/173/173 163/163/163 162/162/162
f 173/173/173 174/174/174 163/163/163
f 175/175/175 165/165/165 164/164/164
f 175/175/175 176/176/176 165/165/165
f 177/177/177 167/167/167 166/166/166
f 177/177/177 178/178/178 167/167/167
f 179/179/179 169/169/169 168/168/168
f 179/179/179 180/180/180 169/169/169
f 180/180/180 170/170/170 169/169/169
f 180/180/180 181/181/181 170/170/170
f 182/182/182 172/172/172 171/171/171
f 182/182/182 183/183/183 172/172/172
f 184/184/184 174/174/174 173/173/173
f 184/184/184 185/185/185 174/174/174
f 186/186/186 176/176/176 175/175/175
f 186/186/186 187/187/187 176/176/176
f 188/188/188 178/178/178 177/177/177
f 188/188/188 189/189/189 178/178/178
f 190/190/190 180/180/180 179/179/179
f 190/190/190 191/191/191 180/180/180
f 191/191/191 181/181/181 180/180/180
f 191/191/191 192/192/192 181/181/181
f 193/193/193 183/183/183 182/182/182
f 193/193/193 194/194/194 183/183/183
f 195/195/195 185/185/185 184/184/184
f 195/195/195 196/196/196 185/185/185
f 197/197/197 187/187/187 186/186/186
f 197/197/197 198/198/198 187/187/187
f 199/199/199 189/189/189 188/188/188
f 199/199/199 200/200/200 189/189/189
f 201/201/201 191/191/191 190/190/190
f 201/201/201 202/202/202 191/191/191
f 202/202/202 192/192/192 191/191/191
f 202/202/202 203/203/203 192/192/192
f 204/204/204 194/194/194 193/193/193
f 204/204/204 205/205/205 194/194/194
f 206/206/206 196/196/196 195/195/195
f 206/206/206 207/207/207 196/196/196
f 208/208/208 198/198/198 197/197/197
f 208/208/208 209/209/209 198/198/198
f 210/210/210 200/200/200 199/199/199
f 210/210/210 211/211/211 200/200/200
f 212/212/212 202/202/202 201/201/201
f 212/212/212 213/213/213 202/202/202
f 213/213/213 203/203/203 202/202/202
f 213/213/213 214/214/214 203/203/203
f 215/215/215 205/205/205 204/204/204
f 215/215/215 216/216/216 205/205/205
f 217/217/217 207/207/207 206/206/206
f 217/217/217 218/218/218 207/207/207
f 219/219/219 209/209/209 208/208/208
f 219/219/219 220/220/220 209/209/209
f 221/221/221 211/211/211 210/210/210
f 221/221/221 222/222/222 211/211/211
f 223/223/223 213/213/213 212/212/212
f 223/223/223 224/224/224 213/213/213
f 224/224/224 214/214/214 213/213/213
f 224/224/224 225/225/225 214/214/214
f 226/226/226 216/216/216 215/215/215
f 226/226/226 227/227/227 216/216/216
f 228/228/228 218/218/218 217/217/217
f 228/228/228 229/229/229 218/218/218
f 230/230/230 220/220/220 219/219/219
f 230/230/230 231/231/231 220/220/220
f 232/232/232 222/222/222 221/221/221
f 232/232/232 233/233/233 222/222/222
f 234/234/234 224/224/224 223/223/223
f 234/234/234 235/235/235 224/224/224
f 235/235/235 225/225/225 224/224/224
f 235/235/235 236/236/236 225/225/225
f 237/237/237 227/227/227 226/226/226
f 237/237/237 238/238/238 227/227/227
f 239/239/239 229/229/229 228/228/228
f 239/239/239 240/240/240 229/229/229
f 241/241/241 231/231/231 230/230/230
f 241/241/241 242/242/242 231/231/231
f 245/245/245 244/244/244 243/243/243
f 245/245/245 246/246/246 244/244/244
f 246/246/246 247/247/247 244/244/244
f 246/246/246 248/248/248 247/247/247
f 249/249/249 236/236/236 235/235/235
f 249/249/249 250/250/250 236/236/236
f 253/253/253 252/252/252 251/251/251
f 253/253/253 254/254/254 252/252/252
f 255/255/255 240/240/240 239/239/239
f 255/255/255 256/256/256 240/240/240
f 257/257/257 242/242/242 241/241/241
f 257/257/257 258/258/258 242/242/242
f 259/259/259 246/246/246 245/245/245
f 259/259/259 260/260/260 246/246/246
f 260/260/260 248/248/248 246/246/246
f 260/260/260 261/261/261 248/248/248
f 262/262/262 250/250/250 249/249/249
f 262/262/262 263/263/263 250/250/250
f 264/264/264 254/254/254 253/253/253
f 264/264/264 265/265/265 254/254/254
f 266/266/266 256/256/256 255/255/255
f 266/266/266 267/267/267 256/256/256
f 268/268/268 258/258/258 257/257/257
f 268/268/268 269/269/269 258/258/258
f 270/270/270 260/260/260 259/259/259
f 270/270/270 271/271/271 260/260/260
f 271/271/271 261/261/261 260/260/260
f 271/271/271 272/272/272 261/261/261
f 273/273/273 263/263/263 262/262/262
f 273/273/273 274/274/274 263/263/263
f 275/275/275 265/265/265 264/264/264
f 275/275/275 276/276/276 265/265/265
f 277/277/277 267/267/267 266/266/266
f 277/277/277 278/278/278 267/267/267
f 279/279/279 269/269/269 268/268/268
f 279/279/279 280/280/280 269/269/269
f 281/281/281 271/271/271 270/270/270
f 281/281/281 282/282/282 271/271/271
f 282/282/282 272/272/272 271/271/271
f 282/282/282 283/283/283 272/272/272
f 284/284/284 274/274/274 273/273/273
f 284/284/284 285/285/285 274/274/274
f 286/286/286 276/276/276 275/275/275
f 286/286/286 287/287/287 276/276/276
f 288/288/288 278/278/278 277/277/277
f 288/288/288 289/289/289 278/278/278
f 290/290/290 280/280/280 279/279/279
f 290/290/290 291/291/291 280/280/280
f 292/292/292 282/282/282 281/281/281
f 292/292/292 293/293/293 282/282/282
f 293/293/293 283/283/283 282/282/282
f 293/293/293 294/294/294 283/283/283
f 295/295/295 285/285/285 284/284/284
f 295/295/295 296/296/296 285/285/285
f 297/297/297 287/287/287 286/286/286
f 297/297/297 298/298/298 287/287/287
f 299/299/299 289/289/289 288/288/288
f 299/299/299 300/300/300 289/289/289
f 300/300/300 301/301/301 289/289/289
f 300/300/300 302/302/302 301/301/301
f 303/303/303 293/293/293 292/292/292
f 303/303/303 304/304/304 293/293/293
f 304/304/304 294/294/294 293/293/293
f 304/304/304 305/305/305 294/294/294
f 306/306/306 296/296/296 295/295/295
f 306/306/306 307/307/307 296/296/296
f 308/308/308 298/298/298 297/297/297
f 308/308/308 309/309/309 298/298/298
f 310/310/310 300/300/300 299/299/299
f 310/310/310 311/311/311 300/300/300
f 311/311/311 302/302/302 300/300/300
f 311/311/311 312/312/312 302/302/302
f 313/313/313 304/304/304 303/303/303
f 313/313/313 314/314/314 304/304/304
f 314/314/314 305/305/305 304/304/304
f 314/314/314 315/315/315 305/305/305
f 316/316/316 307/307/307 306/306/306
f 316/316/316 317/317/317 307/307/307
f 318/318/318 309/309/309 308/308/308
f 318/318/318 319/319/319 309/309/309
f 320/320/320 311/311/311 310/310/310
f 320/320/320 321/321/321 311/311/311
f 321/321/321 312/312/312 311/311/311
f 321/321/321 322/322/322 312/312/312
f 323/323/323 314/314/314 313/313/313
f 323/323/323 324/324/324 314/314/314
f 324/324/324 315/315/315 314/314/314
f 324/324/324 325/325/325 315/315/315
f 326/326/326 317/317/317 316/316/316
f 326/326/326 327/327/327 317/317/317
f 328/328/328 319/319/319 318/318/318
f 328/328/328 329/329/329 319/319/319
f 330/330/330 321/321/321 320/320/320
f 330/330/330 331/331/331 321/321/321
f 331/331/331 322/322/322 321/321/321
f 331/331/331 332/332/332 322/322/322
f 333/333/333 324/324/324 323/323/323
f 333/333/333 334/334/334 324/324/324
f 334/334/334 325/325/325 324/324/324
f 334/334/334 335/335/335 325/325/325
f 336/336/336 327/327/327 326/326/326
f 336/336/336 337/337/337 327/327/327
f 338/338/338 329/329/329 328/328/328
f 338/338/338 339/339/339 329/329/329
f 340/340/340 331/331/331 330/330/330
f 340/340/340 341/341/341 331/331/331
f 341/341/341 332/332/332 331/331/331
f 341/341/341 342/342/342 332/332/332
f 343/343/343 334/334/334 333/333/333
f 343/343/343 344/344/344 334/334/334
f 344/344/344 335/335/335 334/334/334
f 344/344/344 345/345/345 335/335/335
f 346/346/346 337/337/337 336/336/336
f 346/346/346 347/347/347 337/337/337
f 348/348/348 339/339/339 338/338/338
f 348/348/348 349/349/349 339/339/339
f 350/350/350 341/341/341 340/340/340
f 350/350/350 351/351/351 341/341/341
f 351/351/351 342/342/342 341/341/341
f 351/351/351 352/352/352 342/342/342
f 353/353/353 344/344/344 343/343/343
f 353/353/353 354/354/354 344/344/344
f 354/354/354 345/345/345 344/344/344
f 354/354/354 355/355/355 345/345/345
f 356/356/356 347/347/347 346/346/346
f 356/356/356 357/357/357 347/347/347
f 358/358/358 349/349/349 348/348/348
f 358/358/358 359/359/359 349/349/349
f 360/360/360 351/351/351 350/350/350
f 360/360/360 361/361/361 351/351/351
f 361/361/361 352/352/352 351/351/351
f 361/361/361 362/362/362 352/352/352
f 363/363/363 354/354/354 353/353/353
f 363/363/363 364/364/364 354/354/354
f 364/364/364 355/355/355 354/354/354
f 364/364/364 365/365/365 355/355/355
f 366/366/366 357/357/357 356/356/356
f 366/366/366 367/367/367 357/357/357
f 368/368/368 359/359/359 358/358/358
f 368/368/368 369/369/369 359/359/359
f 370/370/370 361/361/361 360/360/360
f 370/370/370 371/371/371 361/361/361
f 371/371/371 362/362/362 361/361/361
f 371/371/371 372/372/372 362/362/362
f 373/373/373 364/364/364 363/363/363
f 373/373/373 374/374/374 364/364/364
f 374/374/374 365/365/365 364/364/364
f 376/376/376 375/375/375 366/366/366
f 375/375/375 367/367/367 366/366/366
f 375/375/375 377/377/377 367/367/367
f 378/378/378 369/369/369 368/368/368
f 378/378/378 379/379/379 369/369/369
f 380/380/380 371/371/371 370/370/370
f 380/380/380 381/381/381 371/371/371
f 381/381/381 372/372/372 371/371/371
f 381/381/381 382/382/382 372/372/372
f 383/383/383 374/374/374 373/373/373
f 383/383/383 384/384/384 374/374/374
f 384/384/384 385/385/385 374/374/374
f 388/388/388 387/387/387 386/386/386
f 390/390/390 378/378/378 389/389/389
f 390/390/390 391/391/391 378/378/378
f 391/391/391 379/379/379 378/378/378
f 391/391/391 392/392/392 379/379/379
f 393/393/393 381/381/381 380/380/380
f 393/393/393 394/394/394 381/381/381
f 394/394/394 382/382/382 381/381/381
f 396/396/396 395/395/395 383/383/383
f 395/395/395 384/384/384 383/383/383
f 395/395/395 397/397/397 384/384/384
f 398/398/398 387/387/387 388/388/388
f 398/398/398 399/399/399 387/387/387
f 400/400/400 391/391/391 390/390/390
f 400/400/400 401/401/401 391/391/391
f 401/401/401 392/392/392 391/391/391
f 401/401/401 402/402/402 392/392/392
f 403/403/403 394/394/394 393/393/393
f 403/403/403 404/404/404 394/394/394
f 405/405/405 395/395/395 396/396/396
f 405/405/405 406/406/406 395/395/395
f 406/406/406 397/397/397 395/395/395
f 408/408/408 407/407/407 398/398/398
f 407/407/407 399/399/399 398/398/398
f 407/407/407 409/409/409 399/399/399
f 410/410/410 401/401/401 400/400/400
f 410/410/410 411/411/411 401/401/401
f 411/411/411 402/402/402 401/401/401
f 414/414/414 413/413/413 412/412/412
f 415/415/415 404/404/404 403/403/403
f 417/417/417 416/416/416 405/405/405
f 416/416/416 406/406/406 405/405/405
f 416/416/416 418/418/418 406/406/406
f 419/419/419 407/407/407 408/408/408
f 419/419/419 420/420/420 407/407/407
f 420/420/420 409/409/409 407/407/407
f 420/420/420 421/421/421 409/409/409
f 422/422/422 411/411/411 410/410/410
f 422/422/422 423/423/423 411/411/411
f 424/424/424 413/413/413 414/414/414
f 424/424/424 425/425/425 413/413/413
f 426/426/426 416/416/416 417/417/417
f 426/426/426 427/427/427 416/416/416
f 427/427/427 418/418/418 416/416/416
f 427/427/427 428/428/428 418/418/418
f 429/429/429 420/420/420 419/419/419
f 429/429/429 430/430/430 420/420/420
f 430/430/430 421/421/421 420/420/420
f 430/430/430 431/431/431 421/421/421
f 432/432/432 423/423/423 422/422/422
f 432/432/432 433/433/433 423/423/423
f 434/434/434 425/425/425 424/424/424
f 434/434/434 435/435/435 425/425/425
f 436/436/436 427/427/427 426/426/426
f 436/436/436 437/437/437 427/427/427
f 437/437/437 428/428/428 427/427/427
f 437/437/437 438/438/438 428/428/428
f 439/439/439 430/430/430 429/429/429
f 439/439/439 440/440/440 430/430/430
f 440/440/440 431/431/431 430/430/430
f 440/440/440 441/441/441 431/431/431
f 442/442/442 433/433/433 432/432/432
f 442/442/442 443/443/443 433/433/433
f 444/444/444 435/435/435 434/434/434
f 444/444/444 445/445/445 435/435/435
f 446/446/446 437/437/437 436/436/436
f 446/446/446 447/447/447 437/437/437
f 447/447/447 438/438/438 437/437/437
f 447/447/447 448/448/448 438/438/438
f 449/449/449 440/440/440 439/439/439
f 449/449/449 450/450/450 440/440/440
f 450/450/450 441/441/441 440/440/440
f 450/450/450 451/451/451 441/441/441
f 452/452/452 443/443/443 442/442/442
f 452/452/452 453/453/453 443/443/443
f 454/454/454 445/445/445 444/444/444
f 454/454/454 455/455/455 445/445/445
