g tube
v -1.904559 1.375905 -4.435978
v -1.905847 1.375692 -4.435239
v -1.899684 1.339197 -4.438081
v -1.900954 1.338846 -4.437365
v -1.905847 1.375692 -4.435239
v -1.905847 1.375606 -4.433741
v -1.900954 1.338846 -4.437365
v -1.900954 1.338687 -4.435873
v -1.905847 1.375606 -4.433741
v -1.904559 1.375733 -4.432982
v -1.900954 1.338687 -4.435873
v -1.899684 1.338878 -4.435098
v -1.904559 1.375733 -4.432982
v -1.903271 1.375946 -4.433722
v -1.899684 1.338878 -4.435098
v -1.898414 1.339229 -4.435815
v -1.903271 1.375946 -4.433722
v -1.903271 1.376032 -4.435219
v -1.898414 1.339229 -4.435815
v -1.898414 1.339388 -4.437306
v -1.903271 1.376032 -4.435219
v -1.904559 1.375905 -4.435978
v -1.898414 1.339388 -4.437306
v -1.899684 1.339197 -4.438081
v -1.885686 1.293 -4.445399
v -1.886917 1.292454 -4.444736
v -1.886917 1.292454 -4.444736
v -1.886917 1.292183 -4.443261
v -1.886917 1.292183 -4.443261
v -1.885686 1.292457 -4.442448
v -1.885686 1.292457 -4.442448
v -1.884456 1.293003 -4.44311
v -1.884456 1.293003 -4.44311
v -1.884456 1.293274 -4.444586
v -1.884456 1.293274 -4.444586
v -1.885686 1.293 -4.445399
v -1.864912 1.239586 -4.456625
v -1.866118 1.238951 -4.455998
v -1.866118 1.238951 -4.455998
v -1.866118 1.238623 -4.454534
v -1.866118 1.238623 -4.454534
v -1.864912 1.238931 -4.453697
v -1.864912 1.238931 -4.453697
v -1.863706 1.239566 -4.454323
v -1.863706 1.239566 -4.454323
v -1.863706 1.239893 -4.455787
v -1.863706 1.239893 -4.455787
v -1.864912 1.239586 -4.456625
v -1.839711 1.18135 -4.470444
v -1.840905 1.180676 -4.469836
v -1.840905 1.180676 -4.469836
v -1.840905 1.180322 -4.468378
v -1.840905 1.180322 -4.468378
v -1.839711 1.180642 -4.467528
v -1.839711 1.180642 -4.467528
v -1.838517 1.181316 -4.468136
v -1.838517 1.181316 -4.468136
v -1.838517 1.181671 -4.469594
v -1.838517 1.181671 -4.469594
v -1.839711 1.18135 -4.470444
v -1.81243 1.120671 -4.485538
v -1.813622 1.119988 -4.484934
v -1.813622 1.119988 -4.484934
v -1.813622 1.119627 -4.483479
v -1.813622 1.119627 -4.483479
v -1.81243 1.119948 -4.482626
v -1.81243 1.119948 -4.482626
v -1.811238 1.120631 -4.483229
v -1.811238 1.120631 -4.483229
v -1.811238 1.120992 -4.484685
v -1.811238 1.120992 -4.484685
v -1.81243 1.120671 -4.485538
v -1.785418 1.059917 -4.500589
v -1.786616 1.059253 -4.499978
v -1.786616 1.059253 -4.499978
v -1.786616 1.058902 -4.498519
v -1.786616 1.058902 -4.498519
v -1.785418 1.059214 -4.497673
v -1.785418 1.059214 -4.497673
v -1.78422 1.059878 -4.498284
v -1.78422 1.059878 -4.498284
v -1.78422 1.06023 -4.499743
v -1.78422 1.06023 -4.499743
v -1.785418 1.059917 -4.500589
v -1.761023 1.001455 -4.514281
v -1.762238 1.000843 -4.513647
v -1.762238 1.000843 -4.513647
v -1.762238 1.000522 -4.512182
v -1.762238 1.000522 -4.512182
v -1.761023 1.000812 -4.51135
v -1.761023 1.000812 -4.51135
v -1.759809 1.001424 -4.511984
v -1.759809 1.001424 -4.511984
v -1.759809 1.001745 -4.513449
v -1.759809 1.001745 -4.513449
v -1.761023 1.001455 -4.514281
v -1.741594 0.947641 -4.525296
v -1.742837 0.9471375 -4.524623
v -1.742837 0.9471375 -4.524623
v -1.742837 0.9468763 -4.523146
v -1.742837 0.9468763 -4.523146
v -1.741594 0.9471186 -4.522341
v -1.741594 0.9471186 -4.522341
v -1.740351 0.9476222 -4.523014
v -1.740351 0.9476222 -4.523014
v -1.740351 0.9478834 -4.524491
v -1.740351 0.9478834 -4.524491
v -1.741594 0.947641 -4.525296
v -1.729478 0.9008172 -4.532316
v -1.730761 0.9005409 -4.531589
v -1.730761 0.9005409 -4.531589
v -1.730761 0.9003968 -4.530096
v -1.730761 0.9003968 -4.530096
v -1.729478 0.9005288 -4.52933
v -1.729478 0.9005288 -4.52933
v -1.728195 0.9008051 -4.530056
v -1.728195 0.9008051 -4.530056
v -1.728195 0.9009493 -4.531549
v -1.728195 0.9009493 -4.531549
v -1.729478 0.9008172 -4.532316
v -1.727024 0.8634487 -4.534009
v -1.72832 0.8633297 -4.533264
v -1.72832 0.8633297 -4.533264
v -1.72832 0.8632619 -4.531765
v -1.72832 0.8632619 -4.531765
v -1.727024 0.8633131 -4.531012
v -1.727024 0.8633131 -4.531012
v -1.725728 0.8634321 -4.531758
v -1.725728 0.8634321 -4.531758
v -1.725728 0.8634999 -4.533256
v -1.725728 0.8634999 -4.533256
v -1.727024 0.8634487 -4.534009

vn 0 0.05721273 -0.998362
vn -0.858507 -0.08479376 -0.5057427
vn 0 0.1060954 -0.994356
vn -0.8467326 -0.1273874 -0.5165426
vn -0.858507 -0.08479376 -0.5057427
vn -0.8585222 -0.1420142 0.4927185
vn -0.8467326 -0.1273874 -0.5165426
vn -0.8468493 -0.2335095 0.4778281
vn -0.8585222 -0.1420142 0.4927185
vn 0 -0.05721273 0.998362
vn -0.8468493 -0.2335095 0.4778281
vn 0 -0.1060954 0.994356
vn 0 -0.05721273 0.998362
vn 0.858507 0.08479376 0.5057427
vn 0 -0.1060954 0.994356
vn 0.8467326 0.1273874 0.5165426
vn 0.858507 0.08479376 0.5057427
vn 0.8585222 0.1420142 -0.4927185
vn 0.8467326 0.1273874 0.5165426
vn 0.8468493 0.2335095 -0.4778281
vn 0.8585222 0.1420142 -0.4927185
vn 0 0.05721273 -0.998362
vn 0.8468493 0.2335095 -0.4778281
vn 0 0.1060954 -0.994356
vn 0 0.1807943 -0.9835209
vn -0.8201885 -0.1830324 -0.5420238
vn -0.8201885 -0.1830324 -0.5420238
vn -0.82016 -0.3638268 0.4415513
vn -0.82016 -0.3638268 0.4415513
vn 0 -0.1807943 0.9835209
vn 0 -0.1807943 0.9835209
vn 0.8201885 0.1830324 0.5420238
vn 0.8201885 0.1830324 0.5420238
vn 0.82016 0.3638268 -0.4415513
vn 0.82016 0.3638268 -0.4415513
vn 0 0.1807943 -0.9835209
vn 0 0.2182261 -0.9758982
vn -0.8039557 -0.2050421 -0.5582231
vn -0.8039557 -0.2050421 -0.5582231
vn -0.8039587 -0.4232784 0.4177152
vn -0.8039587 -0.4232784 0.4177152
vn 0 -0.2182261 0.9758982
vn 0 -0.2182261 0.9758982
vn 0.8039557 0.2050421 0.5582231
vn 0.8039557 0.2050421 0.5582231
vn 0.8039587 0.4232784 -0.4177152
vn 0.8039587 0.4232784 -0.4177152
vn 0 0.2182261 -0.9758982
vn 0 0.2360981 -0.9717292
vn -0.7959796 -0.2133791 -0.5664679
vn -0.7959796 -0.2133791 -0.5664679
vn -0.7959945 -0.4495748 0.4053087
vn -0.7959945 -0.4495748 0.4053087
vn 0 -0.2360981 0.9717292
vn 0 -0.2360981 0.9717292
vn 0.7959796 0.2133791 0.5664679
vn 0.7959796 0.2133791 0.5664679
vn 0.7959945 0.4495748 -0.4053087
vn 0.7959945 0.4495748 -0.4053087
vn 0 0.2360981 -0.9717292
vn 0 0.2409645 -0.9705339
vn -0.7944423 -0.214087 -0.5683557
vn -0.7944423 -0.214087 -0.5683557
vn -0.7944877 -0.4550602 0.4021314
vn -0.7944877 -0.4550602 0.4021314
vn 0 -0.2409645 0.9705339
vn 0 -0.2409645 0.9705339
vn 0.7944423 0.214087 0.5683557
vn 0.7944423 0.214087 0.5683557
vn 0.7944877 0.4550602 -0.4021314
vn 0.7944877 0.4550602 -0.4021314
vn 0 0.2409645 -0.9705339
vn 0 0.2342235 -0.9721827
vn -0.7986788 -0.2082922 -0.5645586
vn -0.7986788 -0.2082922 -0.5645586
vn -0.7986698 -0.4424869 0.4078381
vn -0.7986698 -0.4424869 0.4078381
vn 0 -0.2342235 0.9721827
vn 0 -0.2342235 0.9721827
vn 0.7986788 0.2082922 0.5645586
vn 0.7986788 0.2082922 0.5645586
vn 0.7986698 0.4424869 -0.4078381
vn 0.7986698 0.4424869 -0.4078381
vn 0 0.2342235 -0.9721827
vn 0 0.2141614 -0.9767983
vn -0.8094752 -0.1934285 -0.5543784
vn -0.8094752 -0.1934285 -0.5543784
vn -0.8095325 -0.4076273 0.4224892
vn -0.8095325 -0.4076273 0.4224892
vn 0 -0.2141614 0.9767983
vn 0 -0.2141614 0.9767983
vn 0.8094752 0.1934285 0.5543784
vn 0.8094752 0.1934285 0.5543784
vn 0.8095325 0.4076273 -0.4224892
vn 0.8095325 0.4076273 -0.4224892
vn 0 0.2141614 -0.9767983
vn 0 0.1741072 -0.9847267
vn -0.8284285 -0.161569 -0.536285
vn -0.8284285 -0.161569 -0.536285
vn -0.8283544 -0.3356647 0.4485066
vn -0.8283544 -0.3356647 0.4485066
vn 0 -0.1741072 0.9847267
vn 0 -0.1741072 0.9847267
vn 0.8284285 0.161569 0.536285
vn 0.8284285 0.161569 0.536285
vn 0.8283544 0.3356647 -0.4485066
vn 0.8283544 0.3356647 -0.4485066
vn 0 0.1741072 -0.9847267
vn 0 0.09612734 -0.995369
vn -0.8551421 -0.08805738 -0.51086
vn -0.8551421 -0.08805738 -0.51086
vn -0.8551821 -0.18419 0.4844972
vn -0.8551821 -0.18419 0.4844972
vn 0 -0.09612734 0.995369
vn 0 -0.09612734 0.995369
vn 0.8551421 0.08805738 0.51086
vn 0.8551421 0.08805738 0.51086
vn 0.8551821 0.18419 -0.4844972
vn 0.8551821 0.18419 -0.4844972
vn 0 0.09612734 -0.995369
vn 0 0.04521302 -0.9989774
vn -0.8642137 -0.03413461 -0.5019656
vn -0.8642137 -0.03413461 -0.5019656
vn -0.8641914 -0.07935397 0.4968663
vn -0.8641914 -0.07935397 0.4968663
vn 0 -0.04521302 0.9989774
vn 0 -0.04521302 0.9989774
vn 0.8642137 0.03413461 0.5019656
vn 0.8642137 0.03413461 0.5019656
vn 0.8641914 0.07935397 -0.4968663
vn 0.8641914 0.07935397 -0.4968663
vn 0 0.04521302 -0.9989774

vt 1 0
vt 0.8333333 0
vt 1 0.1
vt 0.8333333 0.1
vt 0.8333333 0
vt 0.6666666 0
vt 0.8333333 0.1
vt 0.6666666 0.1
vt 0.6666666 0
vt 0.5 0
vt 0.6666666 0.1
vt 0.5 0.1
vt 0.5 0
vt 0.3333333 0
vt 0.5 0.1
vt 0.3333333 0.1
vt 0.3333333 0
vt 0.1666667 0
vt 0.3333333 0.1
vt 0.1666667 0.1
vt 0.1666667 0
vt 0 0
vt 0.1666667 0.1
vt 0 0.1
vt 1 0.2
vt 0.8333333 0.2
vt 0.8333333 0.2
vt 0.6666666 0.2
vt 0.6666666 0.2
vt 0.5 0.2
vt 0.5 0.2
vt 0.3333333 0.2
vt 0.3333333 0.2
vt 0.1666667 0.2
vt 0.1666667 0.2
vt 0 0.2
vt 1 0.3
vt 0.8333333 0.3
vt 0.8333333 0.3
vt 0.6666666 0.3
vt 0.6666666 0.3
vt 0.5 0.3
vt 0.5 0.3
vt 0.3333333 0.3
vt 0.3333333 0.3
vt 0.1666667 0.3
vt 0.1666667 0.3
vt 0 0.3
vt 1 0.4
vt 0.8333333 0.4
vt 0.8333333 0.4
vt 0.6666666 0.4
vt 0.6666666 0.4
vt 0.5 0.4
vt 0.5 0.4
vt 0.3333333 0.4
vt 0.3333333 0.4
vt 0.1666667 0.4
vt 0.1666667 0.4
vt 0 0.4
vt 1 0.5
vt 0.8333333 0.5
vt 0.8333333 0.5
vt 0.6666666 0.5
vt 0.6666666 0.5
vt 0.5 0.5
vt 0.5 0.5
vt 0.3333333 0.5
vt 0.3333333 0.5
vt 0.1666667 0.5
vt 0.1666667 0.5
vt 0 0.5
vt 1 0.6
vt 0.8333333 0.6
vt 0.8333333 0.6
vt 0.6666666 0.6
vt 0.6666666 0.6
vt 0.5 0.6
vt 0.5 0.6
vt 0.3333333 0.6
vt 0.3333333 0.6
vt 0.1666667 0.6
vt 0.1666667 0.6
vt 0 0.6
vt 1 0.7
vt 0.8333333 0.7
vt 0.8333333 0.7
vt 0.6666666 0.7
vt 0.6666666 0.7
vt 0.5 0.7
vt 0.5 0.7
vt 0.3333333 0.7
vt 0.3333333 0.7
vt 0.1666667 0.7
vt 0.1666667 0.7
vt 0 0.7
vt 1 0.8
vt 0.8333333 0.8
vt 0.8333333 0.8
vt 0.6666666 0.8
vt 0.6666666 0.8
vt 0.5 0.8
vt 0.5 0.8
vt 0.3333333 0.8
vt 0.3333333 0.8
vt 0.1666667 0.8
vt 0.1666667 0.8
vt 0 0.8
vt 1 0.9
vt 0.8333333 0.9
vt 0.8333333 0.9
vt 0.6666666 0.9
vt 0.6666666 0.9
vt 0.5 0.9
vt 0.5 0.9
vt 0.3333333 0.9
vt 0.3333333 0.9
vt 0.1666667 0.9
vt 0.1666667 0.9
vt 0 0.9
vt 1 1
vt 0.8333333 1
vt 0.8333333 1
vt 0.6666666 1
vt 0.6666666 1
vt 0.5 1
vt 0.5 1
vt 0.3333333 1
vt 0.3333333 1
vt 0.1666667 1
vt 0.1666667 1
vt 0 1

vt2 0.9907319 0.1400993
vt2 0.9914126 0.1426965
vt2 0.9265105 0.156916
vt2 0.9269471 0.1595651
vt2 0.9959922 0.07352756
vt2 0.9963717 0.07618753
vt2 0.9299782 0.08292055
vt2 0.9302279 0.08559549
vt2 0.00390625 0.05758517
vt2 0.0042156 0.05491638
vt2 0.07026955 0.06529258
vt2 0.07046031 0.06261266
vt2 0.00390625 0.1043792
vt2 0.00458713 0.1017819
vt2 0.06837539 0.1212915
vt2 0.0688121 0.1186424
vt2 0.00390625 0.03146739
vt2 0.004285811 0.02880742
vt2 0.06967787 0.04087247
vt2 0.06992767 0.03819754
vt2 0.9964227 0.01055093
vt2 0.9967313 0.01321983
vt2 0.93055 0.01815526
vt2 0.9307401 0.02083524
vt2 0.8393281 0.1630087
vt2 0.8394004 0.1656929
vt2 0.8422533 0.08677982
vt2 0.842309 0.08946589
vt2 0.1582406 0.0677029
vt2 0.1582593 0.06501651
vt2 0.1559411 0.1275192
vt2 0.1560135 0.1248349
vt2 0.1570548 0.04480575
vt2 0.1571107 0.04211967
vt2 0.8433082 0.02042117
vt2 0.8433262 0.02310756
vt2 0.7347897 0.1612462
vt2 0.7346888 0.1639299
vt2 0.7374828 0.08644166
vt2 0.7374426 0.08912799
vt2 0.2630993 0.06638361
vt2 0.2630401 0.06369773
vt2 0.2606756 0.1258253
vt2 0.2605749 0.1231415
vt2 0.2616696 0.04453084
vt2 0.2616295 0.04184451
vt2 0.7387984 0.01901472
vt2 0.7387385 0.02170058
vt2 0.618708 0.1544147
vt2 0.6185293 0.1570948
vt2 0.621134 0.08329175
vt2 0.6210482 0.08597717
vt2 0.3794802 0.06276526
vt2 0.3793877 0.06008018
vt2 0.3768529 0.1190326
vt2 0.3766745 0.1163525
vt2 0.3779533 0.04141783
vt2 0.3778675 0.03873241
vt2 0.6225771 0.01533654
vt2 0.6224838 0.01802159
vt2 0.4968726 0.1453085
vt2 0.4966779 0.147988
vt2 0.4990145 0.0787835
vt2 0.4989166 0.08146822
vt2 0.5016096 0.05818759
vt2 0.5015129 0.05550262
vt2 0.4987151 0.1099479
vt2 0.4985208 0.1072684
vt2 0.5000646 0.03692138
vt2 0.4999667 0.03423664
vt2 0.5004828 0.01071746
vt2 0.5003853 0.0134024
vt2 0.3750688 0.1367171
vt2 0.3749126 0.1393993
vt2 0.3770357 0.0743968
vt2 0.3769551 0.07708278
vt2 0.6235769 0.05396122
vt2 0.6235009 0.05127614
vt2 0.6204833 0.1013629
vt2 0.6203275 0.09868071
vt2 0.6220844 0.0325233
vt2 0.6220038 0.02983732
vt2 0.3784406 0.006469227
vt2 0.3783639 0.009154283
vt2 0.2590808 0.1314255
vt2 0.2590292 0.1341124
vt2 0.2610951 0.07160915
vt2 0.2610655 0.07429577
vt2 0.7394716 0.05139856
vt2 0.7394482 0.048712
vt2 0.7363648 0.09605896
vt2 0.7363136 0.09337214
vt2 0.7381296 0.02970042
vt2 0.7381001 0.02701381
vt2 0.2623383 0.00390625
vt2 0.2623141 0.006592815
vt2 0.1546859 0.1322165
vt2 0.1548435 0.1348999
vt2 0.1569505 0.07185975
vt2 0.1570244 0.07454556
vt2 0.8435121 0.05183617
vt2 0.8435938 0.04915088
vt2 0.8405487 0.09680262
vt2 0.8407068 0.0941193
vt2 0.8424847 0.02989252
vt2 0.8425585 0.02720671
vt2 0.1578806 0.004381943
vt2 0.1579617 0.007067267
vt2 0.06763902 0.1418836
vt2 0.06821502 0.1445092
vt2 0.06996277 0.07649601
vt2 0.07024094 0.07916798
vt2 0.9302828 0.05668783
vt2 0.9305809 0.05401791
vt2 0.9271923 0.1063468
vt2 0.9277688 0.1037215
vt2 0.9299092 0.03447725
vt2 0.9301875 0.03180528
vt2 0.07027186 0.009353968
vt2 0.07056929 0.01202397
vt2 0.00390625 0.1631423
vt2 0.004756817 0.1656929
vt2 0.00390625 0.08681183
vt2 0.004320012 0.08946589
vt2 0.9960874 0.0677029
vt2 0.9965312 0.06505291
vt2 0.9906615 0.1275192
vt2 0.9915125 0.1249689
vt2 0.9962613 0.04480575
vt2 0.9966751 0.0421517
vt2 0.00390625 0.02045746
vt2 0.00434942 0.02310756


vc 1 1 1 1
vc 1 1 1 1
vc 1 1 1 1
vc 1 1 1 1
vc 1 1 1 1
vc 1 1 1 1
vc 1 1 1 1
vc 1 1 1 1
vc 1 1 1 1
vc 1 1 1 1
vc 1 1 1 1
vc 1 1 1 1
vc 1 1 1 1
vc 1 1 1 1
vc 1 1 1 1
vc 1 1 1 1
vc 1 1 1 1
vc 1 1 1 1
vc 1 1 1 1
vc 1 1 1 1
vc 1 1 1 1
vc 1 1 1 1
vc 1 1 1 1
vc 1 1 1 1
vc 1 1 1 1
vc 1 1 1 1
vc 1 1 1 1
vc 1 1 1 1
vc 1 1 1 1
vc 1 1 1 1
vc 1 1 1 1
vc 1 1 1 1
vc 1 1 1 1
vc 1 1 1 1
vc 1 1 1 1
vc 1 1 1 1
vc 1 1 1 1
vc 1 1 1 1
vc 1 1 1 1
vc 1 1 1 1
vc 1 1 1 1
vc 1 1 1 1
vc 1 1 1 1
vc 1 1 1 1
vc 1 1 1 1
vc 1 1 1 1
vc 1 1 1 1
vc 1 1 1 1
vc 1 1 1 1
vc 1 1 1 1
vc 1 1 1 1
vc 1 1 1 1
vc 1 1 1 1
vc 1 1 1 1
vc 1 1 1 1
vc 1 1 1 1
vc 1 1 1 1
vc 1 1 1 1
vc 1 1 1 1
vc 1 1 1 1
vc 1 1 1 1
vc 1 1 1 1
vc 1 1 1 1
vc 1 1 1 1
vc 1 1 1 1
vc 1 1 1 1
vc 1 1 1 1
vc 1 1 1 1
vc 1 1 1 1
vc 1 1 1 1
vc 1 1 1 1
vc 1 1 1 1
vc 1 1 1 1
vc 1 1 1 1
vc 1 1 1 1
vc 1 1 1 1
vc 1 1 1 1
vc 1 1 1 1
vc 1 1 1 1
vc 1 1 1 1
vc 1 1 1 1
vc 1 1 1 1
vc 1 1 1 1
vc 1 1 1 1
vc 1 1 1 1
vc 1 1 1 1
vc 1 1 1 1
vc 1 1 1 1
vc 1 1 1 1
vc 1 1 1 1
vc 1 1 1 1
vc 1 1 1 1
vc 1 1 1 1
vc 1 1 1 1
vc 1 1 1 1
vc 1 1 1 1
vc 1 1 1 1
vc 1 1 1 1
vc 1 1 1 1
vc 1 1 1 1
vc 1 1 1 1
vc 1 1 1 1
vc 1 1 1 1
vc 1 1 1 1
vc 1 1 1 1
vc 1 1 1 1
vc 1 1 1 1
vc 1 1 1 1
vc 1 1 1 1
vc 1 1 1 1
vc 1 1 1 1
vc 1 1 1 1
vc 1 1 1 1
vc 1 1 1 1
vc 1 1 1 1
vc 1 1 1 1
vc 1 1 1 1
vc 1 1 1 1
vc 1 1 1 1
vc 1 1 1 1
vc 1 1 1 1
vc 1 1 1 1
vc 1 1 1 1
vc 1 1 1 1
vc 1 1 1 1
vc 1 1 1 1
vc 1 1 1 1
vc 1 1 1 1
vc 1 1 1 1
vc 1 1 1 1
vc 1 1 1 1
vc 1 1 1 1

usemtl LunetteO2
usemap LunetteO2
f 3/3/3 2/2/2 1/1/1
f 3/3/3 4/4/4 2/2/2
f 7/7/7 6/6/6 5/5/5
f 7/7/7 8/8/8 6/6/6
f 11/11/11 10/10/10 9/9/9
f 11/11/11 12/12/12 10/10/10
f 15/15/15 14/14/14 13/13/13
f 15/15/15 16/16/16 14/14/14
f 19/19/19 18/18/18 17/17/17
f 19/19/19 20/20/20 18/18/18
f 23/23/23 22/22/22 21/21/21
f 23/23/23 24/24/24 22/22/22
f 25/25/25 4/4/4 3/3/3
f 25/25/25 26/26/26 4/4/4
f 27/27/27 8/8/8 7/7/7
f 27/27/27 28/28/28 8/8/8
f 29/29/29 12/12/12 11/11/11
f 29/29/29 30/30/30 12/12/12
f 31/31/31 16/16/16 15/15/15
f 31/31/31 32/32/32 16/16/16
f 33/33/33 20/20/20 19/19/19
f 33/33/33 34/34/34 20/20/20
f 35/35/35 24/24/24 23/23/23
f 35/35/35 36/36/36 24/24/24
f 37/37/37 26/26/26 25/25/25
f 37/37/37 38/38/38 26/26/26
f 39/39/39 28/28/28 27/27/27
f 39/39/39 40/40/40 28/28/28
f 41/41/41 30/30/30 29/29/29
f 41/41/41 42/42/42 30/30/30
f 43/43/43 32/32/32 31/31/31
f 43/43/43 44/44/44 32/32/32
f 45/45/45 34/34/34 33/33/33
f 45/45/45 46/46/46 34/34/34
f 47/47/47 36/36/36 35/35/35
f 47/47/47 48/48/48 36/36/36
f 49/49/49 38/38/38 37/37/37
f 49/49/49 50/50/50 38/38/38
f 51/51/51 40/40/40 39/39/39
f 51/51/51 52/52/52 40/40/40
f 53/53/53 42/42/42 41/41/41
f 53/53/53 54/54/54 42/42/42
f 55/55/55 44/44/44 43/43/43
f 55/55/55 56/56/56 44/44/44
f 57/57/57 46/46/46 45/45/45
f 57/57/57 58/58/58 46/46/46
f 59/59/59 48/48/48 47/47/47
f 59/59/59 60/60/60 48/48/48
f 61/61/61 50/50/50 49/49/49
f 61/61/61 62/62/62 50/50/50
f 63/63/63 52/52/52 51/51/51
f 63/63/63 64/64/64 52/52/52
f 65/65/65 54/54/54 53/53/53
f 65/65/65 66/66/66 54/54/54
f 67/67/67 56/56/56 55/55/55
f 67/67/67 68/68/68 56/56/56
f 69/69/69 58/58/58 57/57/57
f 69/69/69 70/70/70 58/58/58
f 71/71/71 60/60/60 59/59/59
f 71/71/71 72/72/72 60/60/60
f 73/73/73 62/62/62 61/61/61
f 73/73/73 74/74/74 62/62/62
f 75/75/75 64/64/64 63/63/63
f 75/75/75 76/76/76 64/64/64
f 77/77/77 66/66/66 65/65/65
f 77/77/77 78/78/78 66/66/66
f 79/79/79 68/68/68 67/67/67
f 79/79/79 80/80/80 68/68/68
f 81/81/81 70/70/70 69/69/69
f 81/81/81 82/82/82 70/70/70
f 83/83/83 72/72/72 71/71/71
f 83/83/83 84/84/84 72/72/72
f 85/85/85 74/74/74 73/73/73
f 85/85/85 86/86/86 74/74/74
f 87/87/87 76/76/76 75/75/75
f 87/87/87 88/88/88 76/76/76
f 89/89/89 78/78/78 77/77/77
f 89/89/89 90/90/90 78/78/78
f 91/91/91 80/80/80 79/79/79
f 91/91/91 92/92/92 80/80/80
f 93/93/93 82/82/82 81/81/81
f 93/93/93 94/94/94 82/82/82
f 95/95/95 84/84/84 83/83/83
f 95/95/95 96/96/96 84/84/84
f 97/97/97 86/86/86 85/85/85
f 97/97/97 98/98/98 86/86/86
f 99/99/99 88/88/88 87/87/87
f 99/99/99 100/100/100 88/88/88
f 101/101/101 90/90/90 89/89/89
f 101/101/101 102/102/102 90/90/90
f 103/103/103 92/92/92 91/91/91
f 103/103/103 104/104/104 92/92/92
f 105/105/105 94/94/94 93/93/93
f 105/105/105 106/106/106 94/94/94
f 107/107/107 96/96/96 95/95/95
f 107/107/107 108/108/108 96/96/96
f 109/109/109 98/98/98 97/97/97
f 109/109/109 110/110/110 98/98/98
f 111/111/111 100/100/100 99/99/99
f 111/111/111 112/112/112 100/100/100
f 113/113/113 102/102/102 101/101/101
f 113/113/113 114/114/114 102/102/102
f 115/115/115 104/104/104 103/103/103
f 115/115/115 116/116/116 104/104/104
f 117/117/117 106/106/106 105/105/105
f 117/117/117 118/118/118 106/106/106
f 119/119/119 108/108/108 107/107/107
f 119/119/119 120/120/120 108/108/108
f 121/121/121 110/110/110 109/109/109
f 121/121/121 122/122/122 110/110/110
f 123/123/123 112/112/112 111/111/111
f 123/123/123 124/124/124 112/112/112
f 125/125/125 114/114/114 113/113/113
f 125/125/125 126/126/126 114/114/114
f 127/127/127 116/116/116 115/115/115
f 127/127/127 128/128/128 116/116/116
f 129/129/129 118/118/118 117/117/117
f 129/129/129 130/130/130 118/118/118
f 131/131/131 120/120/120 119/119/119
f 131/131/131 132/132/132 120/120/120
