g tube
v -2.265435 1.761582 -2.977319
v -2.269262 1.760866 -2.978237
v -2.264854 1.762301 -2.981226
v -2.268633 1.761346 -2.982123
v -2.270447 1.757146 -2.979106
v -2.269615 1.757537 -2.98285
v -2.270447 1.757146 -2.979106
v -2.267806 1.754142 -2.979058
v -2.269615 1.757537 -2.98285
v -2.266817 1.754683 -2.98268
v -2.263979 1.754859 -2.97814
v -2.263038 1.755638 -2.981783
v -2.263979 1.754859 -2.97814
v -2.262794 1.758579 -2.977271
v -2.263038 1.755638 -2.981783
v -2.262057 1.759447 -2.981055
v -2.262794 1.758579 -2.977271
v -2.265435 1.761582 -2.977319
v -2.262057 1.759447 -2.981055
v -2.264854 1.762301 -2.981226
v -2.26312 1.7635 -2.991513
v -2.26684 1.762257 -2.992296
v -2.267599 1.758351 -2.992707
v -2.267599 1.758351 -2.992707
v -2.264637 1.755689 -2.992337
v -2.260916 1.756932 -2.991554
v -2.260916 1.756932 -2.991554
v -2.260158 1.760838 -2.991142
v -2.260158 1.760838 -2.991142
v -2.26312 1.7635 -2.991513
v -2.260825 1.763958 -3.006157
v -2.264473 1.762414 -3.006713
v -2.264993 1.758448 -3.006675
v -2.264993 1.758448 -3.006675
v -2.261865 1.756026 -3.006081
v -2.258218 1.75757 -3.005525
v -2.258218 1.75757 -3.005525
v -2.257698 1.761536 -3.005563
v -2.257698 1.761536 -3.005563
v -2.260825 1.763958 -3.006157
v -2.258566 1.762438 -3.023227
v -2.262127 1.760622 -3.023374
v -2.262395 1.756688 -3.0227
v -2.262395 1.756688 -3.0227
v -2.259102 1.754571 -3.021879
v -2.255541 1.756387 -3.021732
v -2.259102 1.754571 -3.021879
v -2.255273 1.760321 -3.022406
v -2.255273 1.760321 -3.022406
v -2.258566 1.762438 -3.023227
v -2.256927 1.75764 -3.040796
v -2.260388 1.755708 -3.040262
v -2.260402 1.752022 -3.038708
v -2.260402 1.752022 -3.038708
v -2.256954 1.750268 -3.037689
v -2.255541 1.756387 -3.021732
v -2.253493 1.752201 -3.038223
v -2.256954 1.750268 -3.037689
v -2.253479 1.755887 -3.039776
v -2.253479 1.755887 -3.039776
v -2.256927 1.75764 -3.040796
v -2.256436 1.747972 -3.057045
v -2.259809 1.746479 -3.055499
v -2.259635 1.743669 -3.052658
v -2.259635 1.743669 -3.052658
v -2.256088 1.742352 -3.051362
v -2.256954 1.750268 -3.037689
v -2.253493 1.752201 -3.038223
v -2.256088 1.742352 -3.051362
v -2.252714 1.743845 -3.052907
v -2.252714 1.743845 -3.052907
v -2.252888 1.746655 -3.055749
v -2.252888 1.746655 -3.055749
v -2.256436 1.747972 -3.057045
v -2.257606 1.727946 -3.068537
v -2.26095 1.727523 -3.066384
v -2.260736 1.726337 -3.06257
v -2.259635 1.743669 -3.052658
v -2.256088 1.742352 -3.051362
v -2.260736 1.726337 -3.06257
v -2.257178 1.725575 -3.060909
v -2.257178 1.725575 -3.060909
v -2.253834 1.725998 -3.063062
v -2.253834 1.725998 -3.063062
v -2.254048 1.727184 -3.066876
v -2.252888 1.746655 -3.055749
v -2.256436 1.747972 -3.057045
v -2.254048 1.727184 -3.066876
v -2.257606 1.727946 -3.068537
v -2.26098 1.683851 -3.071982
v -2.264338 1.684086 -3.069822
v -2.26416 1.683961 -3.065828
v -2.26416 1.683961 -3.065828
v -2.260623 1.683602 -3.063994
v -2.260623 1.683602 -3.063994
v -2.257265 1.683368 -3.066154
v -2.257265 1.683368 -3.066154
v -2.257443 1.683492 -3.070148
v -2.257443 1.683492 -3.070148
v -2.26098 1.683851 -3.071982
v -2.266952 1.620613 -3.07064
v -2.270326 1.621034 -3.068534
v -2.270189 1.621136 -3.064538
v -2.270189 1.621136 -3.064538
v -2.266678 1.620818 -3.062648
v -2.266678 1.620818 -3.062648
v -2.263304 1.620398 -3.064754
v -2.263304 1.620398 -3.064754
v -2.263441 1.620295 -3.06875
v -2.263441 1.620295 -3.06875
v -2.266952 1.620613 -3.07064
v -2.275849 1.544362 -3.067794
v -2.279235 1.544863 -3.065724
v -2.27914 1.544955 -3.061726
v -2.27914 1.544955 -3.061726
v -2.275659 1.544546 -3.059799
v -2.275659 1.544546 -3.059799
v -2.272273 1.544044 -3.061869
v -2.272273 1.544044 -3.061869
v -2.272369 1.543952 -3.065867
v -2.272369 1.543952 -3.065867
v -2.275849 1.544362 -3.067794
v -2.287992 1.46173 -3.06655
v -2.291381 1.462275 -3.064496
v -2.291327 1.462212 -3.060496
v -2.291327 1.462212 -3.060496
v -2.287885 1.461605 -3.058552
v -2.287885 1.461605 -3.058552
v -2.284496 1.46106 -3.060606
v -2.284496 1.46106 -3.060606
v -2.28455 1.461123 -3.064606
v -2.28455 1.461123 -3.064606
v -2.287992 1.46173 -3.06655
v -2.303663 1.379452 -3.069996
v -2.307058 1.380018 -3.067958
v -2.307084 1.37965 -3.063975
v -2.307084 1.37965 -3.063975
v -2.303715 1.378715 -3.06203
v -2.303715 1.378715 -3.06203
v -2.300321 1.378149 -3.064069
v -2.300321 1.378149 -3.064069
v -2.300295 1.378517 -3.068052
v -2.300295 1.378517 -3.068052
v -2.303663 1.379452 -3.069996
v -2.32315 1.302731 -3.081277
v -2.32665 1.303286 -3.079422
v -2.326948 1.302657 -3.075483
v -2.326948 1.302657 -3.075483
v -2.323746 1.301474 -3.073399
v -2.323746 1.301474 -3.073399
v -2.320246 1.300919 -3.075254
v -2.320246 1.300919 -3.075254
v -2.319948 1.301547 -3.079193
v -2.319948 1.301547 -3.079193
v -2.32315 1.302731 -3.081277
v -2.349104 1.197257 -3.103449
v -2.352786 1.197782 -3.101977
v -2.353505 1.197106 -3.0981
v -2.353505 1.197106 -3.0981
v -2.350541 1.195906 -3.095696
v -2.350541 1.195906 -3.095696
v -2.34686 1.195381 -3.097169
v -2.34686 1.195381 -3.097169
v -2.346141 1.196057 -3.101046
v -2.346141 1.196057 -3.101046
v -2.349104 1.197257 -3.103449
v -2.377451 1.059444 -3.134059
v -2.381283 1.059911 -3.133011
v -2.382416 1.059259 -3.12923
v -2.382416 1.059259 -3.12923
v -2.379717 1.05814 -3.126498
v -2.379717 1.05814 -3.126498
v -2.375885 1.057673 -3.127547
v -2.375885 1.057673 -3.127547
v -2.374753 1.058325 -3.131327
v -2.374753 1.058325 -3.131327
v -2.377451 1.059444 -3.134059
v -2.40124 0.9081849 -3.169095
v -2.405179 0.9085258 -3.16849
v -2.406711 0.9078482 -3.164858
v -2.406711 0.9078482 -3.164858
v -2.404303 0.9068298 -3.16183
v -2.404303 0.9068298 -3.16183
v -2.400364 0.906489 -3.162435
v -2.400364 0.906489 -3.162435
v -2.398832 0.9071665 -3.166068
v -2.398832 0.9071665 -3.166068
v -2.40124 0.9081849 -3.169095
v -2.413524 0.762333 -3.204552
v -2.417521 0.7623777 -3.204421
v -2.41942 0.7615457 -3.201001
v -2.41942 0.7615457 -3.201001
v -2.417322 0.7606692 -3.19771
v -2.417322 0.7606692 -3.19771
v -2.413324 0.7606246 -3.19784
v -2.413324 0.7606246 -3.19784
v -2.411425 0.7614565 -3.201261
v -2.411425 0.7614565 -3.201261
v -2.413524 0.762333 -3.204552
v -2.407405 0.6408959 -3.236367
v -2.411315 0.6401898 -3.236835
v -2.413486 0.6388409 -3.233759
v -2.413486 0.6388409 -3.233759
v -2.411748 0.6381981 -3.230214
v -2.411748 0.6381981 -3.230214
v -2.407839 0.6389042 -3.229745
v -2.407839 0.6389042 -3.229745
v -2.405668 0.6402531 -3.232822
v -2.405668 0.6402531 -3.232822
v -2.407405 0.6408959 -3.236367
v -2.376541 0.5631597 -3.260291
v -2.379496 0.5608782 -3.261728
v -2.381227 0.5581368 -3.259385
v -2.381227 0.5581368 -3.259385
v -2.380003 0.557677 -3.255604
v -2.380003 0.557677 -3.255604
v -2.377048 0.5599586 -3.254167
v -2.377048 0.5599586 -3.254167
v -2.405668 0.6402531 -3.232822
v -2.375318 0.5626999 -3.25651
v -2.377048 0.5599586 -3.254167
v -2.375318 0.5626999 -3.25651
v -2.376541 0.5631597 -3.260291
v -2.321735 0.5412023 -3.275694
v -2.322744 0.5390928 -3.278939
v -2.322844 0.5350974 -3.278776
v -2.381227 0.5581368 -3.259385
v -2.380003 0.557677 -3.255604
v -2.322844 0.5350974 -3.278776
v -2.321935 0.5332115 -3.275368
v -2.321935 0.5332115 -3.275368
v -2.320927 0.535321 -3.272123
v -2.375318 0.5626999 -3.25651
v -2.320827 0.5393164 -3.272286
v -2.375318 0.5626999 -3.25651
v -2.376541 0.5631597 -3.260291
v -2.320827 0.5393164 -3.272286
v -2.376541 0.5631597 -3.260291
v -2.321735 0.5412023 -3.275694
v -2.320827 0.5393164 -3.272286
v -2.256892 0.5617343 -3.290668
v -2.322744 0.5390928 -3.278939
v -2.257828 0.5616351 -3.294556
v -2.256892 0.5617343 -3.290668
v -2.257828 0.5616351 -3.294556
v -2.256772 0.5584886 -3.296788
v -2.256772 0.5584886 -3.296788
v -2.254778 0.5554411 -3.295133
v -2.254778 0.5554411 -3.295133
v -2.320927 0.535321 -3.272123
v -2.253842 0.5555403 -3.291245
v -2.253842 0.5555403 -3.291245
v -2.254898 0.5586869 -3.289013
v -2.254898 0.5586869 -3.289013
v -2.256892 0.5617343 -3.290668
v -2.188667 0.6113264 -3.306344
v -2.190227 0.6121258 -3.309939
v -2.190227 0.6121258 -3.309939
v -2.189121 0.6099712 -3.313123
v -2.189121 0.6099712 -3.313123
v -2.186456 0.6070172 -3.312711
v -2.184896 0.6062178 -3.309115
v -2.184896 0.6062178 -3.309115
v -2.186002 0.6083724 -3.305932
v -2.186002 0.6083724 -3.305932
v -2.188667 0.6113264 -3.306344
v -2.124771 0.6752294 -3.321025
v -2.126854 0.6764105 -3.324229
v -2.126854 0.6764105 -3.324229
v -2.126024 0.6748795 -3.32783
v -2.186456 0.6070172 -3.312711
v -2.123111 0.6721674 -3.328228
v -2.123111 0.6721674 -3.328228
v -2.121028 0.6709864 -3.325024
v -2.121028 0.6709864 -3.325024
v -2.121857 0.6725174 -3.321423
v -2.121857 0.6725174 -3.321423
v -2.124771 0.6752294 -3.321025
v -2.072354 0.7380378 -3.333605
v -2.074865 0.739396 -3.336407
v -2.126024 0.6748795 -3.32783
v -2.074411 0.7382648 -3.340217
v -2.074411 0.7382648 -3.340217
v -2.071446 0.7357755 -3.341224
v -2.071446 0.7357755 -3.341224
v -2.068936 0.7344173 -3.338422
v -2.121857 0.6725174 -3.321423
v -2.06939 0.7355485 -3.334612
v -2.06939 0.7355485 -3.334612
v -2.072354 0.7380378 -3.333605
v -2.03849 0.7846627 -3.343271
v -2.041353 0.7858526 -3.345799
v -2.041228 0.7847254 -3.349635
v -2.041228 0.7847254 -3.349635
v -2.038242 0.7824084 -3.350943
v -2.038242 0.7824084 -3.350943
v -2.035379 0.7812185 -3.348415
v -2.035503 0.7823457 -3.344579
v -2.035503 0.7823457 -3.344579
v -2.03849 0.7846627 -3.343271
v -2.027686 0.8030177 -3.349433
v -2.030582 0.8039953 -3.352012
v -2.030582 0.8024474 -3.3557
v -2.030582 0.8024474 -3.3557
v -2.027686 0.799922 -3.35681
v -2.027686 0.799922 -3.35681
v -2.024789 0.7989444 -3.35423
v -2.024789 0.8004923 -3.350542
v -2.024789 0.8004923 -3.350542
v -2.027686 0.8030177 -3.349433
v -2.020651 0.811987 -3.354086
v -2.023158 0.8128863 -3.357069
v -2.023158 0.8106898 -3.360413
v -2.023158 0.8106898 -3.360413
v -2.020651 0.807594 -3.360771
v -2.020651 0.807594 -3.360771
v -2.018143 0.8066947 -3.357788
v -2.018143 0.8088912 -3.354445
v -2.018143 0.8088912 -3.354445
v -2.020651 0.811987 -3.354086
v -2.011828 0.8185415 -3.359774
v -2.013972 0.8186667 -3.363148
v -2.013972 0.8155339 -3.365635
v -2.013972 0.8186667 -3.363148
v -2.011828 0.8122759 -3.364748
v -2.011828 0.8122759 -3.364748
v -2.009684 0.8121507 -3.361373
v -2.009684 0.8152835 -3.358886
v -2.009684 0.8152835 -3.358886
v -2.011828 0.8185415 -3.359774
v -2.001168 0.8228972 -3.368235
v -2.003413 0.8218821 -3.371386
v -2.003413 0.8218821 -3.371386
v -2.003413 0.8181071 -3.372709
v -2.013972 0.8155339 -3.365635
v -2.011828 0.8122759 -3.364748
v -2.003413 0.8181071 -3.372709
v -2.001168 0.8153472 -3.37088
v -2.009684 0.8121507 -3.361373
v -1.998924 0.8163623 -3.367728
v -2.001168 0.8153472 -3.37088
v -1.998924 0.8201373 -3.366406
v -1.998924 0.8163623 -3.367728
v -2.001168 0.8228972 -3.368235
v -1.988622 0.8256707 -3.380583
v -1.991179 0.8240948 -3.383225
v -1.991179 0.8240948 -3.383225
v -1.991179 0.8201525 -3.383902
v -1.991179 0.8201525 -3.383902
v -1.988622 0.8177859 -3.381936
v -1.988622 0.8177859 -3.381936
v -1.986066 0.8193617 -3.379294
v -1.986066 0.8193617 -3.379294
v -1.986066 0.8233041 -3.378617
v -1.988622 0.8256707 -3.380583
v -1.974141 0.8279978 -3.398847
v -1.976972 0.8262412 -3.401061
v -1.976972 0.8262412 -3.401061
v -1.976972 0.8222678 -3.401522
v -1.976972 0.8222678 -3.401522
v -1.974141 0.8200511 -3.399769
v -1.974141 0.8200511 -3.399769
v -1.97131 0.8218077 -3.397555
v -1.97131 0.8218077 -3.397555
v -1.97131 0.825781 -3.397094
v -1.974141 0.8279978 -3.398847
v -1.957675 0.830786 -3.425224
v -1.960617 0.8289893 -3.427253
v -1.960617 0.8289893 -3.427253
v -1.960617 0.8250115 -3.427673
v -1.960617 0.8250115 -3.427673
v -1.957675 0.8228303 -3.426065
v -1.957675 0.8228303 -3.426065
v -1.954733 0.824627 -3.424035
v -1.954733 0.824627 -3.424035
v -1.954733 0.8286048 -3.423615
v -1.957675 0.830786 -3.425224

vn 0.2963499 0.9300273 0.2173153
vn -0.6603506 0.750859 -0.01215918
vn 0.245395 0.9522245 0.1817962
vn -0.6993979 0.7134645 -0.04255753
vn -0.9566782 -0.179176 -0.2294836
vn -0.9448085 -0.2387503 -0.2243555
vn -0.9566782 -0.179176 -0.2294836
vn -0.2963499 -0.9300273 -0.2173153
vn -0.9448085 -0.2387503 -0.2243555
vn -0.245395 -0.9522245 -0.1817962
vn 0.6603506 -0.750859 0.01215918
vn 0.6993979 -0.7134645 0.04255753
vn 0.6603506 -0.750859 0.01215918
vn 0.9566782 0.179176 0.2294836
vn 0.6993979 -0.7134645 0.04255753
vn 0.9448085 0.2387503 0.2243555
vn 0.9566782 0.179176 0.2294836
vn 0.2963499 0.9300273 0.2173153
vn 0.9448085 0.2387503 0.2243555
vn 0.245395 0.9522245 0.1817962
vn 0.189545 0.9764549 0.102998
vn -0.7405231 0.6656005 -0.09274419
vn -0.9300776 -0.3108703 -0.1957431
vn -0.9300776 -0.3108703 -0.1957431
vn -0.189545 -0.9764549 -0.102998
vn 0.7405231 -0.6656005 0.09274419
vn 0.7405231 -0.6656005 0.09274419
vn 0.9300776 0.3108703 0.1957431
vn 0.9300776 0.3108703 0.1957431
vn 0.189545 0.9764549 0.102998
vn 0.1299984 0.9914689 -0.009477189
vn -0.7819493 0.6054012 -0.1484744
vn -0.9119329 -0.3860814 -0.1389953
vn -0.9119329 -0.3860814 -0.1389953
vn -0.1299984 -0.9914689 0.009477189
vn 0.7819493 -0.6054012 0.1484744
vn 0.7819493 -0.6054012 0.1484744
vn 0.9119329 0.3860814 0.1389953
vn 0.9119329 0.3860814 0.1389953
vn 0.1299984 0.9914689 -0.009477189
vn 0.06699661 0.9834315 -0.1684452
vn -0.8232098 0.5293255 -0.2052809
vn -0.890179 -0.4541195 -0.036835
vn -0.890179 -0.4541195 -0.036835
vn -0.06699661 -0.9834315 0.1684452
vn 0.8232098 -0.5293255 0.2052809
vn -0.06699661 -0.9834315 0.1684452
vn 0.890179 0.4541195 0.036835
vn 0.890179 0.4541195 0.036835
vn 0.06699661 0.9834315 -0.1684452
vn 0.003397461 0.9215167 -0.3883239
vn -0.8618993 0.4383706 -0.2548742
vn -0.8653255 -0.4831172 0.1334525
vn -0.8653255 -0.4831172 0.1334525
vn -0.003397461 -0.9215167 0.3883239
vn 0.8232098 -0.5293255 0.2052809
vn 0.8618993 -0.4383706 0.2548742
vn -0.003397461 -0.9215167 0.3883239
vn 0.8653255 0.4831172 -0.1334525
vn 0.8653255 0.4831172 -0.1334525
vn 0.003397461 0.9215167 -0.3883239
vn -0.0435118 0.7024772 -0.7103749
vn -0.886919 0.3292866 -0.323952
vn -0.8434575 -0.3731812 0.3864133
vn -0.8434575 -0.3731812 0.3864133
vn 0.0435118 -0.7024772 0.7103749
vn -0.003397461 -0.9215167 0.3883239
vn 0.8618993 -0.4383706 0.2548742
vn 0.0435118 -0.7024772 0.7103749
vn 0.886919 -0.3292866 0.323952
vn 0.886919 -0.3292866 0.323952
vn 0.8434575 0.3731812 -0.3864133
vn 0.8434575 0.3731812 -0.3864133
vn -0.0435118 0.7024772 -0.7103749
vn -0.05346619 0.2963886 -0.9535697
vn -0.8895279 0.1905237 -0.41526
vn -0.836082 -0.1058588 0.5382945
vn -0.8434575 -0.3731812 0.3864133
vn 0.0435118 -0.7024772 0.7103749
vn -0.836082 -0.1058588 0.5382945
vn 0.05346619 -0.2963886 0.9535697
vn 0.05346619 -0.2963886 0.9535697
vn 0.8895279 -0.1905237 0.41526
vn 0.8895279 -0.1905237 0.41526
vn 0.836082 0.1058588 -0.5382945
vn 0.8434575 0.3731812 -0.3864133
vn -0.0435118 0.7024772 -0.7103749
vn 0.836082 0.1058588 -0.5382945
vn -0.05346619 0.2963886 -0.9535697
vn -0.04464487 0.03108451 -0.9985192
vn -0.8841925 0.08970673 -0.4584282
vn -0.839577 0.05862019 0.5400687
vn -0.839577 0.05862019 0.5400687
vn 0.04464487 -0.03108451 0.9985192
vn 0.04464487 -0.03108451 0.9985192
vn 0.8841925 -0.08970673 0.4584282
vn 0.8841925 -0.08970673 0.4584282
vn 0.839577 -0.05862019 -0.5400687
vn 0.839577 -0.05862019 -0.5400687
vn -0.04464487 0.03108451 -0.9985192
vn -0.03415326 -0.02565965 -0.9990872
vn -0.8777468 0.0794538 -0.4724908
vn -0.8435852 0.1051129 0.5266075
vn -0.8435852 0.1051129 0.5266075
vn 0.03415326 0.02565965 0.9990872
vn 0.03415326 0.02565965 0.9990872
vn 0.8777468 -0.0794538 0.4724908
vn 0.8777468 -0.0794538 0.4724908
vn 0.8435852 -0.1051129 -0.5266075
vn 0.8435852 -0.1051129 -0.5266075
vn -0.03415326 -0.02565965 -0.9990872
vn -0.02378228 -0.02303722 -0.9994517
vn -0.870222 0.1024001 -0.4819003
vn -0.8464034 0.1254406 0.5175578
vn -0.8464034 0.1254406 0.5175578
vn 0.02378228 0.02303722 0.9994517
vn 0.02378228 0.02303722 0.9994517
vn 0.870222 -0.1024001 0.4819003
vn 0.870222 -0.1024001 0.4819003
vn 0.8464034 -0.1254406 -0.5175578
vn 0.8464034 -0.1254406 -0.5175578
vn -0.02378228 -0.02303722 -0.9994517
vn -0.01347037 0.01561609 -0.9997873
vn -0.8606051 0.1518084 -0.4861206
vn -0.8471055 0.1361973 0.5136755
vn -0.8471055 0.1361973 0.5136755
vn 0.01347037 -0.01561609 0.9997873
vn 0.01347037 -0.01561609 0.9997873
vn 0.8606051 -0.1518084 0.4861206
vn 0.8606051 -0.1518084 0.4861206
vn 0.8471055 -0.1361973 -0.5136755
vn 0.8471055 -0.1361973 -0.5136755
vn -0.01347037 0.01561609 -0.9997873
vn 0.006556377 0.09202769 -0.9957349
vn -0.8420645 0.2337015 -0.4861182
vn -0.848657 0.1416515 0.5096233
vn -0.848657 0.1416515 0.5096233
vn -0.006556377 -0.09202769 0.9957349
vn -0.006556377 -0.09202769 0.9957349
vn 0.8420645 -0.2337015 0.4861182
vn 0.8420645 -0.2337015 0.4861182
vn 0.848657 -0.1416515 -0.5096233
vn 0.848657 -0.1416515 -0.5096233
vn 0.006556377 0.09202769 -0.9957349
vn 0.07444855 0.1571824 -0.9847593
vn -0.8005563 0.2959692 -0.5210679
vn -0.8750484 0.1387585 0.4637202
vn -0.8750484 0.1387585 0.4637202
vn -0.07444855 -0.1571824 0.9847593
vn -0.07444855 -0.1571824 0.9847593
vn 0.8005563 -0.2959692 0.5210679
vn 0.8005563 -0.2959692 0.5210679
vn 0.8750484 -0.1387585 -0.4637202
vn 0.8750484 -0.1387585 -0.4637202
vn 0.07444855 0.1571824 -0.9847593
vn 0.1796497 0.1689208 -0.969119
vn -0.7407886 0.3001482 -0.600952
vn -0.920453 0.1312166 0.3681692
vn -0.920453 0.1312166 0.3681692
vn -0.1796497 -0.1689208 0.969119
vn -0.1796497 -0.1689208 0.969119
vn 0.7407886 -0.3001482 0.600952
vn 0.7407886 -0.3001482 0.600952
vn 0.920453 -0.1312166 -0.3681692
vn 0.920453 -0.1312166 -0.3681692
vn 0.1796497 0.1689208 -0.969119
vn 0.2831853 0.1630506 -0.9451034
vn -0.6747291 0.2798457 -0.6829546
vn -0.9579333 0.1167986 0.2621486
vn -0.9579333 0.1167986 0.2621486
vn -0.2831853 -0.1630506 0.9451034
vn -0.2831853 -0.1630506 0.9451034
vn 0.6747291 -0.2798457 0.6829546
vn 0.6747291 -0.2798457 0.6829546
vn 0.9579333 -0.1167986 -0.2621486
vn 0.9579333 -0.1167986 -0.2621486
vn 0.2831853 0.1630506 -0.9451034
vn 0.3828456 0.1693986 -0.9081483
vn -0.6019475 0.2546014 -0.7568601
vn -0.9848116 0.08520689 0.1512802
vn -0.9848116 0.08520689 0.1512802
vn -0.3828456 -0.1693986 0.9081483
vn -0.3828456 -0.1693986 0.9081483
vn 0.6019475 -0.2546014 0.7568601
vn 0.6019475 -0.2546014 0.7568601
vn 0.9848116 -0.08520689 -0.1512802
vn 0.9848116 -0.08520689 -0.1512802
vn 0.3828456 0.1693986 -0.9081483
vn 0.4747458 0.2079732 -0.855198
vn -0.5246545 0.2191425 -0.8226264
vn -0.9994081 0.01114626 0.03254469
vn -0.9994081 0.01114626 0.03254469
vn -0.4747458 -0.2079732 0.855198
vn -0.4747458 -0.2079732 0.855198
vn 0.5246545 -0.2191425 0.8226264
vn 0.5246545 -0.2191425 0.8226264
vn 0.9994081 -0.01114626 -0.03254469
vn 0.9994081 -0.01114626 -0.03254469
vn 0.4747458 0.2079732 -0.855198
vn 0.5428752 0.3372258 -0.7691329
vn -0.4344494 0.1607058 -0.8862435
vn -0.9773028 -0.1765237 -0.1171261
vn -0.9773028 -0.1765237 -0.1171261
vn -0.5428752 -0.3372258 0.7691329
vn -0.5428752 -0.3372258 0.7691329
vn 0.4344494 -0.1607058 0.8862435
vn 0.4344494 -0.1607058 0.8862435
vn 0.9773028 0.1765237 0.1171261
vn 0.9773028 0.1765237 0.1171261
vn 0.5428752 0.3372258 -0.7691329
vn 0.4326611 0.68532 -0.5857823
vn -0.3059482 0.1149466 -0.9450836
vn -0.7386222 -0.5703878 -0.3592975
vn -0.7386222 -0.5703878 -0.3592975
vn -0.4326611 -0.68532 0.5857823
vn -0.4326611 -0.68532 0.5857823
vn 0.3059482 -0.1149466 0.9450836
vn 0.3059482 -0.1149466 0.9450836
vn 0.9773028 0.1765237 0.1171261
vn 0.7386222 0.5703878 0.3592975
vn 0.3059482 -0.1149466 0.9450836
vn 0.7386222 0.5703878 0.3592975
vn 0.4326611 0.68532 -0.5857823
vn 0.02497439 0.9988564 -0.04076965
vn -0.2271564 0.4714791 -0.8521194
vn -0.2521873 -0.5273819 -0.8113384
vn -0.7386222 -0.5703878 -0.3592975
vn -0.4326611 -0.68532 0.5857823
vn -0.2521873 -0.5273819 -0.8113384
vn -0.02497439 -0.9988564 0.04076965
vn -0.02497439 -0.9988564 0.04076965
vn 0.2271564 -0.4714791 0.8521194
vn 0.7386222 0.5703878 0.3592975
vn 0.2521873 0.5273819 0.8113384
vn 0.7386222 0.5703878 0.3592975
vn 0.4326611 0.68532 -0.5857823
vn 0.2521873 0.5273819 0.8113384
vn 0.4326611 0.68532 -0.5857823
vn 0.02497439 0.9988564 -0.04076965
vn 0.2521873 0.5273819 0.8113384
vn -0.2641612 0.7866277 0.5580644
vn -0.2271564 0.4714791 -0.8521194
vn -0.4983458 0.7618385 -0.4138279
vn -0.2641612 0.7866277 0.5580644
vn -0.4983458 0.7618385 -0.4138279
vn -0.2341917 -0.02478116 -0.9718746
vn -0.2341917 -0.02478116 -0.9718746
vn 0.2641612 -0.7866277 -0.5580644
vn 0.2641612 -0.7866277 -0.5580644
vn 0.2271564 -0.4714791 0.8521194
vn 0.4983458 -0.7618385 0.4138279
vn 0.4983458 -0.7618385 0.4138279
vn 0.2341916 0.02479605 0.9718742
vn 0.2341916 0.02479605 0.9718742
vn -0.2641612 0.7866277 0.5580644
vn -0.2763883 0.5386503 0.7959054
vn -0.6663284 0.7385105 -0.1029981
vn -0.6663284 0.7385105 -0.1029981
vn -0.3899322 0.1998537 -0.8988945
vn -0.3899322 0.1998537 -0.8988945
vn 0.2763883 -0.5386503 -0.7959054
vn 0.6663284 -0.7385105 0.1029981
vn 0.6663284 -0.7385105 0.1029981
vn 0.3899322 -0.1998537 0.8988945
vn 0.3899322 -0.1998537 0.8988945
vn -0.2763883 0.5386503 0.7959054
vn -0.2074235 0.38275 0.9002656
vn -0.7283037 0.6780127 0.0993602
vn -0.7283037 0.6780127 0.0993602
vn -0.5208963 0.2952729 -0.800925
vn 0.2763883 -0.5386503 -0.7959054
vn 0.2074235 -0.38275 -0.9002656
vn 0.2074235 -0.38275 -0.9002656
vn 0.7283037 -0.6780127 -0.0993602
vn 0.7283037 -0.6780127 -0.0993602
vn 0.5208963 -0.2952729 0.800925
vn 0.5208963 -0.2952729 0.800925
vn -0.2074235 0.38275 0.9002656
vn -0.1134895 0.2827998 0.9524413
vn -0.7411202 0.6223288 0.2518879
vn -0.5208963 0.2952729 -0.800925
vn -0.6276229 0.3395303 -0.7005774
vn -0.6276229 0.3395303 -0.7005774
vn 0.1134895 -0.2827998 -0.9524413
vn 0.1134895 -0.2827998 -0.9524413
vn 0.7411202 -0.6223288 -0.2518879
vn 0.5208963 -0.2952729 0.800925
vn 0.6276229 -0.3395303 0.7005774
vn 0.6276229 -0.3395303 0.7005774
vn -0.1134895 0.2827998 0.9524413
vn -0.03105393 0.2817802 0.9589764
vn -0.7466643 0.5792505 0.3270493
vn -0.71564 0.2974829 -0.6319519
vn -0.71564 0.2974829 -0.6319519
vn 0.03105393 -0.2817802 -0.9589764
vn 0.03105393 -0.2817802 -0.9589764
vn 0.7466643 -0.5792505 -0.3270493
vn 0.71564 -0.2974829 0.6319519
vn 0.71564 -0.2974829 0.6319519
vn -0.03105393 0.2817802 0.9589764
vn 0 0.3869715 0.9220917
vn -0.7242097 0.6313738 0.2772859
vn -0.724211 0.2443989 -0.644816
vn -0.724211 0.2443989 -0.644816
vn 0 -0.3869715 -0.9220917
vn 0 -0.3869715 -0.9220917
vn 0.7242097 -0.6313738 -0.2772859
vn 0.724211 -0.2443989 0.644816
vn 0.724211 -0.2443989 0.644816
vn 0 0.3869715 0.9220917
vn 0 0.5491342 0.8357342
vn -0.6268575 0.7739458 0.08976394
vn -0.6268502 0.2248245 -0.7459977
vn -0.6268502 0.2248245 -0.7459977
vn 0 -0.5491342 -0.8357342
vn 0 -0.5491342 -0.8357342
vn 0.6268575 -0.7739458 -0.08976394
vn 0.6268502 -0.2248245 0.7459977
vn 0.6268502 -0.2248245 0.7459977
vn 0 0.5491342 0.8357342
vn 0 0.7832184 0.6217467
vn -0.5360817 0.8144937 -0.2218475
vn -0.5360841 0.03129243 -0.8435844
vn -0.5360817 0.8144937 -0.2218475
vn 0 -0.7832184 -0.6217467
vn 0 -0.7832184 -0.6217467
vn 0.5360817 -0.8144937 0.2218475
vn 0.5360841 -0.03129243 0.8435844
vn 0.5360841 -0.03129243 0.8435844
vn 0 0.7832184 0.6217467
vn 0 0.9437603 0.3306305
vn -0.5611778 0.6899834 -0.4571677
vn -0.5611778 0.6899834 -0.4571677
vn -0.5611687 -0.2537627 -0.7878415
vn -0.5360841 0.03129243 -0.8435844
vn 0 -0.7832184 -0.6217467
vn -0.5611687 -0.2537627 -0.7878415
vn 0 -0.9437603 -0.3306305
vn 0.5360817 -0.8144937 0.2218475
vn 0.5611778 -0.6899834 0.4571677
vn 0 -0.9437603 -0.3306305
vn 0.5611666 0.2537766 0.7878386
vn 0.5611778 -0.6899834 0.4571677
vn 0 0.9437603 0.3306305
vn 0 0.9855891 0.1691574
vn -0.6391079 0.5916331 -0.4914381
vn -0.6391079 0.5916331 -0.4914381
vn -0.6391184 -0.3939616 -0.6605465
vn -0.6391184 -0.3939616 -0.6605465
vn 0 -0.9855891 -0.1691574
vn 0 -0.9855891 -0.1691574
vn 0.6391079 -0.5916331 0.4914381
vn 0.6391079 -0.5916331 0.4914381
vn 0.6391184 0.3939616 0.6605465
vn 0 0.9855891 0.1691574
vn 0 0.9933405 0.1152157
vn -0.7077094 0.5541841 -0.4382094
vn -0.7077094 0.5541841 -0.4382094
vn -0.7077157 -0.4391521 -0.5534291
vn -0.7077157 -0.4391521 -0.5534291
vn 0 -0.9933405 -0.1152157
vn 0 -0.9933405 -0.1152157
vn 0.7077094 -0.5541841 0.4382094
vn 0.7077094 -0.5541841 0.4382094
vn 0.7077157 0.4391521 0.5534291
vn 0 0.9933405 0.1152157
vn 0 0.9944571 0.1051424
vn -0.7354532 0.5452868 -0.4022075
vn -0.7354532 0.5452868 -0.4022075
vn -0.7354609 -0.4491652 -0.5072946
vn -0.7354609 -0.4491652 -0.5072946
vn 0 -0.9944571 -0.1051424
vn 0 -0.9944571 -0.1051424
vn 0.7354532 -0.5452868 0.4022075
vn 0.7354532 -0.5452868 0.4022075
vn 0.7354609 0.4491652 0.5072946
vn 0 0.9944571 0.1051424

vt 1 0
vt 0.8333333 0
vt 1 0.03125
vt 0.8333333 0.03125
vt 0.6666666 0
vt 0.6666666 0.03125
vt 0.6666666 0
vt 0.5 0
vt 0.6666666 0.03125
vt 0.5 0.03125
vt 0.3333333 0
vt 0.3333333 0.03125
vt 0.3333333 0
vt 0.1666667 0
vt 0.3333333 0.03125
vt 0.1666667 0.03125
vt 0.1666667 0
vt 0 0
vt 0.1666667 0.03125
vt 0 0.03125
vt 1 0.0625
vt 0.8333333 0.0625
vt 0.6666666 0.0625
vt 0.6666666 0.0625
vt 0.5 0.0625
vt 0.3333333 0.0625
vt 0.3333333 0.0625
vt 0.1666667 0.0625
vt 0.1666667 0.0625
vt 0 0.0625
vt 1 0.09375
vt 0.8333333 0.09375
vt 0.6666666 0.09375
vt 0.6666666 0.09375
vt 0.5 0.09375
vt 0.3333333 0.09375
vt 0.3333333 0.09375
vt 0.1666667 0.09375
vt 0.1666667 0.09375
vt 0 0.09375
vt 1 0.125
vt 0.8333333 0.125
vt 0.6666666 0.125
vt 0.6666666 0.125
vt 0.5 0.125
vt 0.3333333 0.125
vt 0.5 0.125
vt 0.1666667 0.125
vt 0.1666667 0.125
vt 0 0.125
vt 1 0.15625
vt 0.8333333 0.15625
vt 0.6666666 0.15625
vt 0.6666666 0.15625
vt 0.5 0.15625
vt 0.3333333 0.125
vt 0.3333333 0.15625
vt 0.5 0.15625
vt 0.1666667 0.15625
vt 0.1666667 0.15625
vt 0 0.15625
vt 1 0.1875
vt 0.8333333 0.1875
vt 0.6666666 0.1875
vt 0.6666666 0.1875
vt 0.5 0.1875
vt 0.5 0.15625
vt 0.3333333 0.15625
vt 0.5 0.1875
vt 0.3333333 0.1875
vt 0.3333333 0.1875
vt 0.1666667 0.1875
vt 0.1666667 0.1875
vt 0 0.1875
vt 1 0.21875
vt 0.8333333 0.21875
vt 0.6666666 0.21875
vt 0.6666666 0.1875
vt 0.5 0.1875
vt 0.6666666 0.21875
vt 0.5 0.21875
vt 0.5 0.21875
vt 0.3333333 0.21875
vt 0.3333333 0.21875
vt 0.1666667 0.21875
vt 0.1666667 0.1875
vt 0 0.1875
vt 0.1666667 0.21875
vt 0 0.21875
vt 1 0.25
vt 0.8333333 0.25
vt 0.6666666 0.25
vt 0.6666666 0.25
vt 0.5 0.25
vt 0.5 0.25
vt 0.3333333 0.25
vt 0.3333333 0.25
vt 0.1666667 0.25
vt 0.1666667 0.25
vt 0 0.25
vt 1 0.28125
vt 0.8333333 0.28125
vt 0.6666666 0.28125
vt 0.6666666 0.28125
vt 0.5 0.28125
vt 0.5 0.28125
vt 0.3333333 0.28125
vt 0.3333333 0.28125
vt 0.1666667 0.28125
vt 0.1666667 0.28125
vt 0 0.28125
vt 1 0.3125
vt 0.8333333 0.3125
vt 0.6666666 0.3125
vt 0.6666666 0.3125
vt 0.5 0.3125
vt 0.5 0.3125
vt 0.3333333 0.3125
vt 0.3333333 0.3125
vt 0.1666667 0.3125
vt 0.1666667 0.3125
vt 0 0.3125
vt 1 0.34375
vt 0.8333333 0.34375
vt 0.6666666 0.34375
vt 0.6666666 0.34375
vt 0.5 0.34375
vt 0.5 0.34375
vt 0.3333333 0.34375
vt 0.3333333 0.34375
vt 0.1666667 0.34375
vt 0.1666667 0.34375
vt 0 0.34375
vt 1 0.375
vt 0.8333333 0.375
vt 0.6666666 0.375
vt 0.6666666 0.375
vt 0.5 0.375
vt 0.5 0.375
vt 0.3333333 0.375
vt 0.3333333 0.375
vt 0.1666667 0.375
vt 0.1666667 0.375
vt 0 0.375
vt 1 0.40625
vt 0.8333333 0.40625
vt 0.6666666 0.40625
vt 0.6666666 0.40625
vt 0.5 0.40625
vt 0.5 0.40625
vt 0.3333333 0.40625
vt 0.3333333 0.40625
vt 0.1666667 0.40625
vt 0.1666667 0.40625
vt 0 0.40625
vt 1 0.4375
vt 0.8333333 0.4375
vt 0.6666666 0.4375
vt 0.6666666 0.4375
vt 0.5 0.4375
vt 0.5 0.4375
vt 0.3333333 0.4375
vt 0.3333333 0.4375
vt 0.1666667 0.4375
vt 0.1666667 0.4375
vt 0 0.4375
vt 1 0.46875
vt 0.8333333 0.46875
vt 0.6666666 0.46875
vt 0.6666666 0.46875
vt 0.5 0.46875
vt 0.5 0.46875
vt 0.3333333 0.46875
vt 0.3333333 0.46875
vt 0.1666667 0.46875
vt 0.1666667 0.46875
vt 0 0.46875
vt 1 0.5
vt 0.8333333 0.5
vt 0.6666666 0.5
vt 0.6666666 0.5
vt 0.5 0.5
vt 0.5 0.5
vt 0.3333333 0.5
vt 0.3333333 0.5
vt 0.1666667 0.5
vt 0.1666667 0.5
vt 0 0.5
vt 1 0.53125
vt 0.8333333 0.53125
vt 0.6666666 0.53125
vt 0.6666666 0.53125
vt 0.5 0.53125
vt 0.5 0.53125
vt 0.3333333 0.53125
vt 0.3333333 0.53125
vt 0.1666667 0.53125
vt 0.1666667 0.53125
vt 0 0.53125
vt 1 0.5625
vt 0.8333333 0.5625
vt 0.6666666 0.5625
vt 0.6666666 0.5625
vt 0.5 0.5625
vt 0.5 0.5625
vt 0.3333333 0.5625
vt 0.3333333 0.5625
vt 0.1666667 0.5625
vt 0.1666667 0.5625
vt 0 0.5625
vt 1 0.59375
vt 0.8333333 0.59375
vt 0.6666666 0.59375
vt 0.6666666 0.59375
vt 0.5 0.59375
vt 0.5 0.59375
vt 0.3333333 0.59375
vt 0.3333333 0.59375
vt 0.1666667 0.5625
vt 0.1666667 0.59375
vt 0.3333333 0.59375
vt 0.1666667 0.59375
vt 0 0.59375
vt 1 0.625
vt 0.8333333 0.625
vt 0.6666666 0.625
vt 0.6666666 0.59375
vt 0.5 0.59375
vt 0.6666666 0.625
vt 0.5 0.625
vt 0.5 0.625
vt 0.3333333 0.625
vt 0.1666667 0.59375
vt 0.1666667 0.625
vt 0.1666667 0.59375
vt 0 0.59375
vt 0.1666667 0.625
vt 0 0.59375
vt 0 0.625
vt 0.1666667 0.625
vt 1 0.65625
vt 0.8333333 0.625
vt 0.8333333 0.65625
vt 1 0.65625
vt 0.8333333 0.65625
vt 0.6666666 0.65625
vt 0.6666666 0.65625
vt 0.5 0.65625
vt 0.5 0.65625
vt 0.3333333 0.625
vt 0.3333333 0.65625
vt 0.3333333 0.65625
vt 0.1666667 0.65625
vt 0.1666667 0.65625
vt 0 0.65625
vt 1 0.6875
vt 0.8333333 0.6875
vt 0.8333333 0.6875
vt 0.6666666 0.6875
vt 0.6666666 0.6875
vt 0.5 0.6875
vt 0.3333333 0.6875
vt 0.3333333 0.6875
vt 0.1666667 0.6875
vt 0.1666667 0.6875
vt 0 0.6875
vt 1 0.71875
vt 0.8333333 0.71875
vt 0.8333333 0.71875
vt 0.6666666 0.71875
vt 0.5 0.6875
vt 0.5 0.71875
vt 0.5 0.71875
vt 0.3333333 0.71875
vt 0.3333333 0.71875
vt 0.1666667 0.71875
vt 0.1666667 0.71875
vt 0 0.71875
vt 1 0.75
vt 0.8333333 0.75
vt 0.6666666 0.71875
vt 0.6666666 0.75
vt 0.6666666 0.75
vt 0.5 0.75
vt 0.5 0.75
vt 0.3333333 0.75
vt 0.1666667 0.71875
vt 0.1666667 0.75
vt 0.1666667 0.75
vt 0 0.75
vt 1 0.78125
vt 0.8333333 0.78125
vt 0.6666666 0.78125
vt 0.6666666 0.78125
vt 0.5 0.78125
vt 0.5 0.78125
vt 0.3333333 0.78125
vt 0.1666667 0.78125
vt 0.1666667 0.78125
vt 0 0.78125
vt 1 0.8125
vt 0.8333333 0.8125
vt 0.6666666 0.8125
vt 0.6666666 0.8125
vt 0.5 0.8125
vt 0.5 0.8125
vt 0.3333333 0.8125
vt 0.1666667 0.8125
vt 0.1666667 0.8125
vt 0 0.8125
vt 1 0.84375
vt 0.8333333 0.84375
vt 0.6666666 0.84375
vt 0.6666666 0.84375
vt 0.5 0.84375
vt 0.5 0.84375
vt 0.3333333 0.84375
vt 0.1666667 0.84375
vt 0.1666667 0.84375
vt 0 0.84375
vt 1 0.875
vt 0.8333333 0.875
vt 0.6666666 0.875
vt 0.8333333 0.875
vt 0.5 0.875
vt 0.5 0.875
vt 0.3333333 0.875
vt 0.1666667 0.875
vt 0.1666667 0.875
vt 0 0.875
vt 1 0.90625
vt 0.8333333 0.90625
vt 0.8333333 0.90625
vt 0.6666666 0.90625
vt 0.6666666 0.875
vt 0.5 0.875
vt 0.6666666 0.90625
vt 0.5 0.90625
vt 0.3333333 0.875
vt 0.3333333 0.90625
vt 0.5 0.90625
vt 0.1666667 0.90625
vt 0.3333333 0.90625
vt 0 0.90625
vt 1 0.9375
vt 0.8333333 0.9375
vt 0.8333333 0.9375
vt 0.6666666 0.9375
vt 0.6666666 0.9375
vt 0.5 0.9375
vt 0.5 0.9375
vt 0.3333333 0.9375
vt 0.3333333 0.9375
vt 0.1666667 0.9375
vt 0 0.9375
vt 1 0.96875
vt 0.8333333 0.96875
vt 0.8333333 0.96875
vt 0.6666666 0.96875
vt 0.6666666 0.96875
vt 0.5 0.96875
vt 0.5 0.96875
vt 0.3333333 0.96875
vt 0.3333333 0.96875
vt 0.1666667 0.96875
vt 0 0.96875
vt 1 1
vt 0.8333333 1
vt 0.8333333 1
vt 0.6666666 1
vt 0.6666666 1
vt 0.5 1
vt 0.5 1
vt 0.3333333 1
vt 0.3333333 1
vt 0.1666667 1
vt 0 1

vt2 0.00390625 0.6499314
vt2 0.006208483 0.6477119
vt2 0.006252285 0.6521211
vt2 0.008513452 0.6498789
vt2 0.008540087 0.6454991
vt2 0.01078671 0.6476315
vt2 0.2180175 0.9930819
vt2 0.2181359 0.9899188
vt2 0.221068 0.9930294
vt2 0.2211479 0.9898401
vt2 0.2182086 0.9867853
vt2 0.2212174 0.986676
vt2 0.007079583 0.7515018
vt2 0.003911169 0.751338
vt2 0.007068928 0.7484542
vt2 0.00390625 0.748203
vt2 0.213727 0.9866369
vt2 0.2141113 0.9897861
vt2 0.2106397 0.9871818
vt2 0.2109753 0.9903367
vt2 0.01240728 0.6578035
vt2 0.01455604 0.6554547
vt2 0.01670608 0.653102
vt2 0.2290871 0.9930161
vt2 0.229149 0.9898198
vt2 0.2292107 0.9866369
vt2 0.007720534 0.7404841
vt2 0.004582539 0.7400159
vt2 0.2024791 0.9881247
vt2 0.2027011 0.9912896
vt2 0.02151207 0.665316
vt2 0.02347204 0.6628115
vt2 0.02543161 0.6603042
vt2 0.2404331 0.9930392
vt2 0.2405055 0.9898476
vt2 0.240585 0.9866369
vt2 0.009625917 0.7293479
vt2 0.006550845 0.7285668
vt2 0.1908894 0.9889219
vt2 0.1909658 0.9920937
vt2 0.03285893 0.6730484
vt2 0.03450714 0.6703331
vt2 0.03615277 0.6676162
vt2 0.2534082 0.9931459
vt2 0.2534041 0.9900131
vt2 0.01335544 0.7168291
vt2 0.01631864 0.7179629
vt2 0.01042906 0.7156034
vt2 0.1773601 0.9891444
vt2 0.1772572 0.9923153
vt2 0.04588701 0.6794044
vt2 0.04700395 0.6764436
vt2 0.04812145 0.67347
vt2 0.2665447 0.9924831
vt2 0.2663307 0.9893573
vt2 0.2531273 0.9868923
vt2 0.01947336 0.7046914
vt2 0.0221255 0.7064325
vt2 0.01688633 0.7028549
vt2 0.1630851 0.9884763
vt2 0.1627695 0.9916334
vt2 0.06038244 0.6827895
vt2 0.06049716 0.6796453
vt2 0.06058769 0.6765237
vt2 0.2792086 0.9910141
vt2 0.2786419 0.9879326
vt2 0.005278081 0.01154677
vt2 0.00390625 0.008686082
vt2 0.0169879 0.007031344
vt2 0.01644126 0.00390625
vt2 0.02847512 0.6947445
vt2 0.02677979 0.6920628
vt2 0.1485605 0.9866369
vt2 0.1478874 0.9897375
vt2 0.07812346 0.6795465
vt2 0.07703257 0.6765754
vt2 0.07594357 0.6736859
vt2 0.9779048 0.7563396
vt2 0.9774783 0.7594836
vt2 0.9620712 0.755408
vt2 0.9621696 0.7585792
vt2 0.0323225 0.00716075
vt2 0.03275128 0.00401721
vt2 0.04403587 0.6898566
vt2 0.04376325 0.6866958
vt2 0.004345126 0.7955486
vt2 0.00390625 0.7924062
vt2 0.02212492 0.794489
vt2 0.02221096 0.7913175
vt2 0.1081968 0.6620991
vt2 0.1064707 0.6594067
vt2 0.104765 0.6567571
vt2 0.9284843 0.7593674
vt2 0.9289086 0.7625117
vt2 0.06460131 0.01609614
vt2 0.06553683 0.01306464
vt2 0.0777261 0.6945164
vt2 0.07830088 0.6913962
vt2 0.05674257 0.7985588
vt2 0.05715497 0.7954129
vt2 0.1495653 0.6331432
vt2 0.1477027 0.6305475
vt2 0.1458492 0.6279649
vt2 0.8789641 0.766767
vt2 0.8794176 0.7699071
vt2 0.1118915 0.03245845
vt2 0.112966 0.02947327
vt2 0.1265806 0.7060056
vt2 0.1273275 0.7029221
vt2 0.1065685 0.805896
vt2 0.1070101 0.8027542
vt2 0.1990625 0.5968694
vt2 0.1971747 0.5942853
vt2 0.1952944 0.5917118
vt2 0.8186555 0.7750958
vt2 0.8190334 0.7782457
vt2 0.168956 0.05389128
vt2 0.1700905 0.05092829
vt2 0.1857688 0.7208472
vt2 0.186504 0.7177609
vt2 0.1670275 0.8140668
vt2 0.1673936 0.8109154
vt2 0.2532601 0.5574922
vt2 0.2514042 0.5548732
vt2 0.2495576 0.5522691
vt2 0.7526495 0.7817863
vt2 0.7528684 0.7849513
vt2 0.2308942 0.07810855
vt2 0.2320601 0.07515771
vt2 0.2506645 0.7355384
vt2 0.2512765 0.7324252
vt2 0.2331234 0.8205377
vt2 0.2333304 0.8173718
vt2 0.3088882 0.5191333
vt2 0.3071318 0.5164481
vt2 0.3053718 0.513759
vt2 0.6859696 0.7842388
vt2 0.6859228 0.7874112
vt2 0.2930998 0.1029719
vt2 0.2942802 0.100027
vt2 0.3167506 0.7466047
vt2 0.3171151 0.743453
vt2 0.299842 0.822766
vt2 0.2997831 0.8195938
vt2 0.3636002 0.4854297
vt2 0.3619935 0.4826902
vt2 0.360372 0.4799249
vt2 0.6223951 0.779865
vt2 0.6221423 0.7830275
vt2 0.352364 0.1269497
vt2 0.3534978 0.1239868
vt2 0.3804898 0.750863
vt2 0.3805987 0.747692
vt2 0.3633192 0.8184303
vt2 0.3630544 0.8152687
vt2 0.4409002 0.442827
vt2 0.4394026 0.440032
vt2 0.4378989 0.4372252
vt2 0.5346286 0.7714098
vt2 0.5343688 0.7745718
vt2 0.4351496 0.1573176
vt2 0.4361728 0.1543145
vt2 0.4685496 0.7515018
vt2 0.4685339 0.7483291
vt2 0.4508701 0.8101911
vt2 0.4505983 0.8070301
vt2 0.5424497 0.3906302
vt2 0.5410404 0.3877852
vt2 0.53963 0.3849368
vt2 0.420525 0.7630298
vt2 0.4203402 0.766197
vt2 0.5440155 0.1922585
vt2 0.5449059 0.1892134
vt2 0.5827384 0.7501767
vt2 0.5826588 0.7470051
vt2 0.564705 0.8019525
vt2 0.5645081 0.798786
vt2 0.6550155 0.3375834
vt2 0.6537359 0.334683
vt2 0.6524537 0.3317746
vt2 0.2957976 0.7570628
vt2 0.2957067 0.7602342
vt2 0.6645023 0.2246928
vt2 0.6652104 0.2216002
vt2 0.7072545 0.7459493
vt2 0.7070808 0.7427815
vt2 0.6890596 0.7960737
vt2 0.6889567 0.7929026
vt2 0.7653005 0.2927377
vt2 0.7642568 0.2897566
vt2 0.763209 0.2867546
vt2 0.1758535 0.755408
vt2 0.1759005 0.7585804
vt2 0.7821269 0.2475116
vt2 0.7825196 0.2443633
vt2 0.8264485 0.7374387
vt2 0.8260926 0.7342862
vt2 0.8083636 0.79449
vt2 0.8083985 0.7913175
vt2 0.8602328 0.2652094
vt2 0.8597444 0.2621103
vt2 0.8592591 0.2589751
vt2 0.07508544 0.759321
vt2 0.07537582 0.7624804
vt2 0.88254 0.2536463
vt2 0.8822327 0.2504884
vt2 0.9252471 0.7226378
vt2 0.9244431 0.7195687
vt2 0.90773 0.7984508
vt2 0.9080082 0.7952904
vt2 0.9283484 0.2635707
vt2 0.9292681 0.260576
vt2 0.9302117 0.2575525
vt2 0.00390625 0.7692654
vt2 0.004519644 0.7723782
vt2 0.9518418 0.2358751
vt2 0.9500278 0.2332721
vt2 0.9907834 0.6981922
vt2 0.00390625 0.9866369
vt2 0.07258186 0.9866369
vt2 0.07353974 0.9896616
vt2 0.9757186 0.80814
vt2 0.9763184 0.8050244
vt2 0.9668204 0.2926171
vt2 0.9691696 0.2904241
vt2 0.971764 0.2886215
vt2 0.4388887 0.8779914
vt2 0.4405452 0.8806829
vt2 0.395616 0.9066493
vt2 0.3970326 0.9094743
vt2 0.9824967 0.1934032
vt2 0.979589 0.1921341
vt2 0.9480741 0.2307723
vt2 0.9765306 0.1912905
vt2 0.004136371 0.9967322
vt2 0.00390625 0.9935678
vt2 0.05280436 0.9967322
vt2 0.4489413 0.8740851
vt2 0.4079905 0.8476204
vt2 0.4092776 0.8446946
vt2 0.9952796 0.3407963
vt2 0.4067616 0.9827306
vt2 0.3514749 0.9741932
vt2 0.3519335 0.971051
vt2 0.9828273 0.3443797
vt2 0.9859619 0.3439862
vt2 0.341115 0.9239356
vt2 0.3417226 0.9270369
vt2 0.9962797 0.1367991
vt2 0.3992533 0.9292328
vt2 0.3418788 0.9301935
vt2 0.97682 0.134594
vt2 0.9737195 0.1352667
vt2 0.3552107 0.8282487
vt2 0.3547504 0.8314117
vt2 0.2847889 0.959669
vt2 0.2843475 0.9628135
vt2 0.9807599 0.4120866
vt2 0.9839099 0.4123261
vt2 0.2728095 0.9274422
vt2 0.2727692 0.9306023
vt2 0.2729074 0.9337596
vt2 0.9531974 0.06940925
vt2 0.9502931 0.07068657
vt2 0.2860182 0.8266723
vt2 0.2862152 0.8298625
vt2 0.2127047 0.950395
vt2 0.2123887 0.9535546
vt2 0.9707801 0.4835762
vt2 0.9739016 0.4840633
vt2 0.9870638 0.4125085
vt2 0.9770117 0.4846181
vt2 0.1999496 0.931995
vt2 0.199962 0.9351553
vt2 0.9204254 0.00390625
vt2 0.917631 0.005408556
vt2 0.2130947 0.8361596
vt2 0.2136683 0.8393041
vt2 0.1472303 0.9448969
vt2 0.1470229 0.9480715
vt2 0.2122158 0.9566967
vt2 0.1468167 0.9512376
vt2 0.9592189 0.5476874
vt2 0.9622794 0.5484709
vt2 0.134414 0.9304527
vt2 0.1343185 0.9336035
vt2 0.1998322 0.9383417
vt2 0.1342219 0.9367658
vt2 0.148306 0.8505878
vt2 0.1491107 0.8536811
vt2 0.1007986 0.942248
vt2 0.1008179 0.9453909
vt2 0.1008312 0.9485914
vt2 0.9464 0.5915551
vt2 0.9494174 0.5924911
vt2 0.08871626 0.9283237
vt2 0.08839313 0.9314947
vt2 0.08808191 0.9346185
vt2 0.1032801 0.8635387
vt2 0.104239 0.8665878
vt2 0.08350791 0.9434863
vt2 0.08376179 0.9465384
vt2 0.08399663 0.9496545
vt2 0.9411083 0.6077276
vt2 0.9441822 0.6084564
vt2 0.07186402 0.9256566
vt2 0.07128438 0.9288782
vt2 0.07074493 0.9320331
vt2 0.08672539 0.8692153
vt2 0.08747508 0.8723224
vt2 0.07409351 0.9447671
vt2 0.07441994 0.9478266
vt2 0.07475925 0.9508375
vt2 0.9400657 0.617189
vt2 0.9432248 0.6172004
vt2 0.06296175 0.9241925
vt2 0.06231293 0.9273832
vt2 0.06163671 0.9306102
vt2 0.07777174 0.8708889
vt2 0.07779589 0.8740851
vt2 0.06458697 0.9465563
vt2 0.06511668 0.9497393
vt2 0.9419903 0.6261655
vt2 0.9389359 0.6269724
vt2 0.9450756 0.6254867
vt2 0.05444818 0.923116
vt2 0.05363823 0.9261108
vt2 0.05251095 0.9291239
vt2 0.06860105 0.8703556
vt2 0.06792532 0.8734797
vt2 0.05349032 0.9496782
vt2 0.05442602 0.9527662
vt2 0.943652 0.636775
vt2 0.9464817 0.63537
vt2 0.0778335 0.9929585
vt2 0.07783294 0.9897859
vt2 0.08799616 0.991374
vt2 0.08776233 0.9882098
vt2 0.07744599 0.9866369
vt2 0.0439004 0.9219071
vt2 0.04562959 0.9191943
vt2 0.05805283 0.8679969
vt2 0.05904574 0.8650936
vt2 0.05703409 0.8709384
vt2 0.04028168 0.9553525
vt2 0.04170724 0.9582474
vt2 0.9509403 0.6482092
vt2 0.9535894 0.646488
vt2 0.1011896 0.9901314
vt2 0.101108 0.9869599
vt2 0.03464454 0.9111899
vt2 0.03249713 0.9135856
vt2 0.04627882 0.8605232
vt2 0.04516703 0.8634228
vt2 0.04406593 0.8663112
vt2 0.024059 0.9650436
vt2 0.02584901 0.9677284
vt2 0.961385 0.6629784
vt2 0.9639583 0.6611458
vt2 0.1192196 0.990326
vt2 0.1194161 0.9871594
vt2 0.02173088 0.8978509
vt2 0.01929013 0.8999467
vt2 0.02914413 0.8541648
vt2 0.02809092 0.8571157
vt2 0.02705771 0.8600334
vt2 0.00390625 0.9801472
vt2 0.005839876 0.9827306
vt2 0.9757724 0.6827895
vt2 0.9783297 0.6809347
vt2 0.1436395 0.9929585
vt2 0.1439811 0.9898044
vt2 0.006457605 0.8779914
vt2 0.00390625 0.8799513
vt2 0.005894758 0.8463901
vt2 0.00489014 0.8494018
vt2 0.00390625 0.8523676


vc 1 1 1 1
vc 1 1 1 1
vc 1 1 1 1
vc 1 1 1 1
vc 1 1 1 1
vc 1 1 1 1
vc 1 1 1 1
vc 1 1 1 1
vc 1 1 1 1
vc 1 1 1 1
vc 1 1 1 1
vc 1 1 1 1
vc 1 1 1 1
vc 1 1 1 1
vc 1 1 1 1
vc 1 1 1 1
vc 1 1 1 1
vc 1 1 1 1
vc 1 1 1 1
vc 1 1 1 1
vc 1 1 1 1
vc 1 1 1 1
vc 1 1 1 1
vc 1 1 1 1
vc 1 1 1 1
vc 1 1 1 1
vc 1 1 1 1
vc 1 1 1 1
vc 1 1 1 1
vc 1 1 1 1
vc 1 1 1 1
vc 1 1 1 1
vc 1 1 1 1
vc 1 1 1 1
vc 1 1 1 1
vc 1 1 1 1
vc 1 1 1 1
vc 1 1 1 1
vc 1 1 1 1
vc 1 1 1 1
vc 1 1 1 1
vc 1 1 1 1
vc 1 1 1 1
vc 1 1 1 1
vc 1 1 1 1
vc 1 1 1 1
vc 1 1 1 1
vc 1 1 1 1
vc 1 1 1 1
vc 1 1 1 1
vc 1 1 1 1
vc 1 1 1 1
vc 1 1 1 1
vc 1 1 1 1
vc 1 1 1 1
vc 1 1 1 1
vc 1 1 1 1
vc 1 1 1 1
vc 1 1 1 1
vc 1 1 1 1
vc 1 1 1 1
vc 1 1 1 1
vc 1 1 1 1
vc 1 1 1 1
vc 1 1 1 1
vc 1 1 1 1
vc 1 1 1 1
vc 1 1 1 1
vc 1 1 1 1
vc 1 1 1 1
vc 1 1 1 1
vc 1 1 1 1
vc 1 1 1 1
vc 1 1 1 1
vc 1 1 1 1
vc 1 1 1 1
vc 1 1 1 1
vc 1 1 1 1
vc 1 1 1 1
vc 1 1 1 1
vc 1 1 1 1
vc 1 1 1 1
vc 1 1 1 1
vc 1 1 1 1
vc 1 1 1 1
vc 1 1 1 1
vc 1 1 1 1
vc 1 1 1 1
vc 1 1 1 1
vc 1 1 1 1
vc 1 1 1 1
vc 1 1 1 1
vc 1 1 1 1
vc 1 1 1 1
vc 1 1 1 1
vc 1 1 1 1
vc 1 1 1 1
vc 1 1 1 1
vc 1 1 1 1
vc 1 1 1 1
vc 1 1 1 1
vc 1 1 1 1
vc 1 1 1 1
vc 1 1 1 1
vc 1 1 1 1
vc 1 1 1 1
vc 1 1 1 1
vc 1 1 1 1
vc 1 1 1 1
vc 1 1 1 1
vc 1 1 1 1
vc 1 1 1 1
vc 1 1 1 1
vc 1 1 1 1
vc 1 1 1 1
vc 1 1 1 1
vc 1 1 1 1
vc 1 1 1 1
vc 1 1 1 1
vc 1 1 1 1
vc 1 1 1 1
vc 1 1 1 1
vc 1 1 1 1
vc 1 1 1 1
vc 1 1 1 1
vc 1 1 1 1
vc 1 1 1 1
vc 1 1 1 1
vc 1 1 1 1
vc 1 1 1 1
vc 1 1 1 1
vc 1 1 1 1
vc 1 1 1 1
vc 1 1 1 1
vc 1 1 1 1
vc 1 1 1 1
vc 1 1 1 1
vc 1 1 1 1
vc 1 1 1 1
vc 1 1 1 1
vc 1 1 1 1
vc 1 1 1 1
vc 1 1 1 1
vc 1 1 1 1
vc 1 1 1 1
vc 1 1 1 1
vc 1 1 1 1
vc 1 1 1 1
vc 1 1 1 1
vc 1 1 1 1
vc 1 1 1 1
vc 1 1 1 1
vc 1 1 1 1
vc 1 1 1 1
vc 1 1 1 1
vc 1 1 1 1
vc 1 1 1 1
vc 1 1 1 1
vc 1 1 1 1
vc 1 1 1 1
vc 1 1 1 1
vc 1 1 1 1
vc 1 1 1 1
vc 1 1 1 1
vc 1 1 1 1
vc 1 1 1 1
vc 1 1 1 1
vc 1 1 1 1
vc 1 1 1 1
vc 1 1 1 1
vc 1 1 1 1
vc 1 1 1 1
vc 1 1 1 1
vc 1 1 1 1
vc 1 1 1 1
vc 1 1 1 1
vc 1 1 1 1
vc 1 1 1 1
vc 1 1 1 1
vc 1 1 1 1
vc 1 1 1 1
vc 1 1 1 1
vc 1 1 1 1
vc 1 1 1 1
vc 1 1 1 1
vc 1 1 1 1
vc 1 1 1 1
vc 1 1 1 1
vc 1 1 1 1
vc 1 1 1 1
vc 1 1 1 1
vc 1 1 1 1
vc 1 1 1 1
vc 1 1 1 1
vc 1 1 1 1
vc 1 1 1 1
vc 1 1 1 1
vc 1 1 1 1
vc 1 1 1 1
vc 1 1 1 1
vc 1 1 1 1
vc 1 1 1 1
vc 1 1 1 1
vc 1 1 1 1
vc 1 1 1 1
vc 1 1 1 1
vc 1 1 1 1
vc 1 1 1 1
vc 1 1 1 1
vc 1 1 1 1
vc 1 1 1 1
vc 1 1 1 1
vc 1 1 1 1
vc 1 1 1 1
vc 1 1 1 1
vc 1 1 1 1
vc 1 1 1 1
vc 1 1 1 1
vc 1 1 1 1
vc 1 1 1 1
vc 1 1 1 1
vc 1 1 1 1
vc 1 1 1 1
vc 1 1 1 1
vc 1 1 1 1
vc 1 1 1 1
vc 1 1 1 1
vc 1 1 1 1
vc 1 1 1 1
vc 1 1 1 1
vc 1 1 1 1
vc 1 1 1 1
vc 1 1 1 1
vc 1 1 1 1
vc 1 1 1 1
vc 1 1 1 1
vc 1 1 1 1
vc 1 1 1 1
vc 1 1 1 1
vc 1 1 1 1
vc 1 1 1 1
vc 1 1 1 1
vc 1 1 1 1
vc 1 1 1 1
vc 1 1 1 1
vc 1 1 1 1
vc 1 1 1 1
vc 1 1 1 1
vc 1 1 1 1
vc 1 1 1 1
vc 1 1 1 1
vc 1 1 1 1
vc 1 1 1 1
vc 1 1 1 1
vc 1 1 1 1
vc 1 1 1 1
vc 1 1 1 1
vc 1 1 1 1
vc 1 1 1 1
vc 1 1 1 1
vc 1 1 1 1
vc 1 1 1 1
vc 1 1 1 1
vc 1 1 1 1
vc 1 1 1 1
vc 1 1 1 1
vc 1 1 1 1
vc 1 1 1 1
vc 1 1 1 1
vc 1 1 1 1
vc 1 1 1 1
vc 1 1 1 1
vc 1 1 1 1
vc 1 1 1 1
vc 1 1 1 1
vc 1 1 1 1
vc 1 1 1 1
vc 1 1 1 1
vc 1 1 1 1
vc 1 1 1 1
vc 1 1 1 1
vc 1 1 1 1
vc 1 1 1 1
vc 1 1 1 1
vc 1 1 1 1
vc 1 1 1 1
vc 1 1 1 1
vc 1 1 1 1
vc 1 1 1 1
vc 1 1 1 1
vc 1 1 1 1
vc 1 1 1 1
vc 1 1 1 1
vc 1 1 1 1
vc 1 1 1 1
vc 1 1 1 1
vc 1 1 1 1
vc 1 1 1 1
vc 1 1 1 1
vc 1 1 1 1
vc 1 1 1 1
vc 1 1 1 1
vc 1 1 1 1
vc 1 1 1 1
vc 1 1 1 1
vc 1 1 1 1
vc 1 1 1 1
vc 1 1 1 1
vc 1 1 1 1
vc 1 1 1 1
vc 1 1 1 1
vc 1 1 1 1
vc 1 1 1 1
vc 1 1 1 1
vc 1 1 1 1
vc 1 1 1 1
vc 1 1 1 1
vc 1 1 1 1
vc 1 1 1 1
vc 1 1 1 1
vc 1 1 1 1
vc 1 1 1 1
vc 1 1 1 1
vc 1 1 1 1
vc 1 1 1 1
vc 1 1 1 1
vc 1 1 1 1
vc 1 1 1 1
vc 1 1 1 1
vc 1 1 1 1
vc 1 1 1 1
vc 1 1 1 1
vc 1 1 1 1
vc 1 1 1 1
vc 1 1 1 1
vc 1 1 1 1
vc 1 1 1 1
vc 1 1 1 1
vc 1 1 1 1
vc 1 1 1 1
vc 1 1 1 1
vc 1 1 1 1
vc 1 1 1 1
vc 1 1 1 1
vc 1 1 1 1
vc 1 1 1 1
vc 1 1 1 1
vc 1 1 1 1
vc 1 1 1 1
vc 1 1 1 1
vc 1 1 1 1
vc 1 1 1 1
vc 1 1 1 1
vc 1 1 1 1
vc 1 1 1 1
vc 1 1 1 1
vc 1 1 1 1
vc 1 1 1 1
vc 1 1 1 1
vc 1 1 1 1
vc 1 1 1 1
vc 1 1 1 1
vc 1 1 1 1
vc 1 1 1 1
vc 1 1 1 1
vc 1 1 1 1
vc 1 1 1 1
vc 1 1 1 1
vc 1 1 1 1
vc 1 1 1 1
vc 1 1 1 1
vc 1 1 1 1
vc 1 1 1 1
vc 1 1 1 1
vc 1 1 1 1
vc 1 1 1 1
vc 1 1 1 1

usemtl Default-Diffuse
usemap Default-Diffuse
f 3/3/3 2/2/2 1/1/1
f 3/3/3 4/4/4 2/2/2
f 4/4/4 5/5/5 2/2/2
f 4/4/4 6/6/6 5/5/5
f 9/9/9 8/8/8 7/7/7
f 9/9/9 10/10/10 8/8/8
f 10/10/10 11/11/11 8/8/8
f 10/10/10 12/12/12 11/11/11
f 15/15/15 14/14/14 13/13/13
f 15/15/15 16/16/16 14/14/14
f 19/19/19 18/18/18 17/17/17
f 19/19/19 20/20/20 18/18/18
f 21/21/21 4/4/4 3/3/3
f 21/21/21 22/22/22 4/4/4
f 22/22/22 6/6/6 4/4/4
f 22/22/22 23/23/23 6/6/6
f 24/24/24 10/10/10 9/9/9
f 24/24/24 25/25/25 10/10/10
f 25/25/25 12/12/12 10/10/10
f 25/25/25 26/26/26 12/12/12
f 27/27/27 16/16/16 15/15/15
f 27/27/27 28/28/28 16/16/16
f 29/29/29 20/20/20 19/19/19
f 29/29/29 30/30/30 20/20/20
f 31/31/31 22/22/22 21/21/21
f 31/31/31 32/32/32 22/22/22
f 32/32/32 23/23/23 22/22/22
f 32/32/32 33/33/33 23/23/23
f 34/34/34 25/25/25 24/24/24
f 34/34/34 35/35/35 25/25/25
f 35/35/35 26/26/26 25/25/25
f 35/35/35 36/36/36 26/26/26
f 37/37/37 28/28/28 27/27/27
f 37/37/37 38/38/38 28/28/28
f 39/39/39 30/30/30 29/29/29
f 39/39/39 40/40/40 30/30/30
f 41/41/41 32/32/32 31/31/31
f 41/41/41 42/42/42 32/32/32
f 42/42/42 33/33/33 32/32/32
f 42/42/42 43/43/43 33/33/33
f 44/44/44 35/35/35 34/34/34
f 44/44/44 45/45/45 35/35/35
f 45/45/45 36/36/36 35/35/35
f 47/47/47 46/46/46 37/37/37
f 46/46/46 38/38/38 37/37/37
f 46/46/46 48/48/48 38/38/38
f 49/49/49 40/40/40 39/39/39
f 49/49/49 50/50/50 40/40/40
f 51/51/51 42/42/42 41/41/41
f 51/51/51 52/52/52 42/42/42
f 52/52/52 43/43/43 42/42/42
f 52/52/52 53/53/53 43/43/43
f 54/54/54 45/45/45 44/44/44
f 54/54/54 55/55/55 45/45/45
f 55/55/55 56/56/56 45/45/45
f 58/58/58 57/57/57 46/46/46
f 57/57/57 48/48/48 46/46/46
f 57/57/57 59/59/59 48/48/48
f 60/60/60 50/50/50 49/49/49
f 60/60/60 61/61/61 50/50/50
f 62/62/62 52/52/52 51/51/51
f 62/62/62 63/63/63 52/52/52
f 63/63/63 53/53/53 52/52/52
f 63/63/63 64/64/64 53/53/53
f 65/65/65 55/55/55 54/54/54
f 65/65/65 66/66/66 55/55/55
f 69/69/69 68/68/68 67/67/67
f 69/69/69 70/70/70 68/68/68
f 71/71/71 59/59/59 57/57/57
f 71/71/71 72/72/72 59/59/59
f 73/73/73 61/61/61 60/60/60
f 73/73/73 74/74/74 61/61/61
f 75/75/75 63/63/63 62/62/62
f 75/75/75 76/76/76 63/63/63
f 76/76/76 64/64/64 63/63/63
f 76/76/76 77/77/77 64/64/64
f 80/80/80 79/79/79 78/78/78
f 80/80/80 81/81/81 79/79/79
f 82/82/82 70/70/70 69/69/69
f 82/82/82 83/83/83 70/70/70
f 84/84/84 72/72/72 71/71/71
f 84/84/84 85/85/85 72/72/72
f 88/88/88 87/87/87 86/86/86
f 88/88/88 89/89/89 87/87/87
f 90/90/90 76/76/76 75/75/75
f 90/90/90 91/91/91 76/76/76
f 91/91/91 77/77/77 76/76/76
f 91/91/91 92/92/92 77/77/77
f 93/93/93 81/81/81 80/80/80
f 93/93/93 94/94/94 81/81/81
f 95/95/95 83/83/83 82/82/82
f 95/95/95 96/96/96 83/83/83
f 97/97/97 85/85/85 84/84/84
f 97/97/97 98/98/98 85/85/85
f 99/99/99 89/89/89 88/88/88
f 99/99/99 100/100/100 89/89/89
f 101/101/101 91/91/91 90/90/90
f 101/101/101 102/102/102 91/91/91
f 102/102/102 92/92/92 91/91/91
f 102/102/102 103/103/103 92/92/92
f 104/104/104 94/94/94 93/93/93
f 104/104/104 105/105/105 94/94/94
f 106/106/106 96/96/96 95/95/95
f 106/106/106 107/107/107 96/96/96
f 108/108/108 98/98/98 97/97/97
f 108/108/108 109/109/109 98/98/98
f 110/110/110 100/100/100 99/99/99
f 110/110/110 111/111/111 100/100/100
f 112/112/112 102/102/102 101/101/101
f 112/112/112 113/113/113 102/102/102
f 113/113/113 103/103/103 102/102/102
f 113/113/113 114/114/114 103/103/103
f 115/115/115 105/105/105 104/104/104
f 115/115/115 116/116/116 105/105/105
f 117/117/117 107/107/107 106/106/106
f 117/117/117 118/118/118 107/107/107
f 119/119/119 109/109/109 108/108/108
f 119/119/119 120/120/120 109/109/109
f 121/121/121 111/111/111 110/110/110
f 121/121/121 122/122/122 111/111/111
f 123/123/123 113/113/113 112/112/112
f 123/123/123 124/124/124 113/113/113
f 124/124/124 114/114/114 113/113/113
f 124/124/124 125/125/125 114/114/114
f 126/126/126 116/116/116 115/115/115
f 126/126/126 127/127/127 116/116/116
f 128/128/128 118/118/118 117/117/117
f 128/128/128 129/129/129 118/118/118
f 130/130/130 120/120/120 119/119/119
f 130/130/130 131/131/131 120/120/120
f 132/132/132 122/122/122 121/121/121
f 132/132/132 133/133/133 122/122/122
f 134/134/134 124/124/124 123/123/123
f 134/134/134 135/135/135 124/124/124
f 135/135/135 125/125/125 124/124/124
f 135/135/135 136/136/136 125/125/125
f 137/137/137 127/127/127 126/126/126
f 137/137/137 138/138/138 127/127/127
f 139/139/139 129/129/129 128/128/128
f 139/139/139 140/140/140 129/129/129
f 141/141/141 131/131/131 130/130/130
f 141/141/141 142/142/142 131/131/131
f 143/143/143 133/133/133 132/132/132
f 143/143/143 144/144/144 133/133/133
f 145/145/145 135/135/135 134/134/134
f 145/145/145 146/146/146 135/135/135
f 146/146/146 136/136/136 135/135/135
f 146/146/146 147/147/147 136/136/136
f 148/148/148 138/138/138 137/137/137
f 148/148/148 149/149/149 138/138/138
f 150/150/150 140/140/140 139/139/139
f 150/150/150 151/151/151 140/140/140
f 152/152/152 142/142/142 141/141/141
f 152/152/152 153/153/153 142/142/142
f 154/154/154 144/144/144 143/143/143
f 154/154/154 155/155/155 144/144/144
f 156/156/156 146/146/146 145/145/145
f 156/156/156 157/157/157 146/146/146
f 157/157/157 147/147/147 146/146/146
f 157/157/157 158/158/158 147/147/147
f 159/159/159 149/149/149 148/148/148
f 159/159/159 160/160/160 149/149/149
f 161/161/161 151/151/151 150/150/150
f 161/161/161 162/162/162 151/151/151
f 163/163/163 153/153/153 152/152/152
f 163/163/163 164/164/164 153/153/153
f 165/165/165 155/155/155 154/154/154
f 165/165/165 166/166/166 155/155/155
f 167/167/167 157/157/157 156/156/156
f 167/167/167 168/168/168 157/157/157
f 168/168/168 158/158/158 157/157/157
f 168/168/168 169/169/169 158/158/158
f 170/170/170 160/160/160 159/159/159
f 170/170/170 171/171/171 160/160/160
f 172/172/172 162/162/162 161/161/161
f 172/172/172 173/173/173 162/162/162
f 174/174/174 164/164/164 163/163/163
f 174/174/174 175/175/175 164/164/164
f 176/176/176 166/166/166 165/165/165
f 176/176/176 177/177/177 166/166/166
f 178/178/178 168/168/168 167/167/167
f 178/178/178 179/179/179 168/168/168
f 179/179/179 169/169/169 168/168/168
f 179/179/179 180/180/180 169/169/169
f 181/181/181 171/171/171 170/170/170
f 181/181/181 182/182/182 171/171/171
f 183/183/183 173/173/173 172/172/172
f 183/183/183 184/184/184 173/173/173
f 185/185/185 175/175/175 174/174/174
f 185/185/185 186/186/186 175/175/175
f 187/187/187 177/177/177 176/176/176
f 187/187/187 188/188/188 177/177/177
f 189/189/189 179/179/179 178/178/178
f 189/189/189 190/190/190 179/179/179
f 190/190/190 180/180/180 179/179/179
f 190/190/190 191/191/191 180/180/180
f 192/192/192 182/182/182 181/181/181
f 192/192/192 193/193/193 182/182/182
f 194/194/194 184/184/184 183/183/183
f 194/194/194 195/195/195 184/184/184
f 196/196/196 186/186/186 185/185/185
f 196/196/196 197/197/197 186/186/186
f 198/198/198 188/188/188 187/187/187
f 198/198/198 199/199/199 188/188/188
f 200/200/200 190/190/190 189/189/189
f 200/200/200 201/201/201 190/190/190
f 201/201/201 191/191/191 190/190/190
f 201/201/201 202/202/202 191/191/191
f 203/203/203 193/193/193 192/192/192
f 203/203/203 204/204/204 193/193/193
f 205/205/205 195/195/195 194/194/194
f 205/205/205 206/206/206 195/195/195
f 207/207/207 197/197/197 196/196/196
f 207/207/207 208/208/208 197/197/197
f 209/209/209 199/199/199 198/198/198
f 209/209/209 210/210/210 199/199/199
f 211/211/211 201/201/201 200/200/200
f 211/211/211 212/212/212 201/201/201
f 212/212/212 202/202/202 201/201/201
f 212/212/212 213/213/213 202/202/202
f 214/214/214 204/204/204 203/203/203
f 214/214/214 215/215/215 204/204/204
f 216/216/216 206/206/206 205/205/205
f 216/216/216 217/217/217 206/206/206
f 218/218/218 208/208/208 207/207/207
f 221/221/221 220/220/220 219/219/219
f 222/222/222 210/210/210 209/209/209
f 222/222/222 223/223/223 210/210/210
f 224/224/224 212/212/212 211/211/211
f 224/224/224 225/225/225 212/212/212
f 225/225/225 213/213/213 212/212/212
f 225/225/225 226/226/226 213/213/213
f 229/229/229 228/228/228 227/227/227
f 229/229/229 230/230/230 228/228/228
f 231/231/231 217/217/217 216/216/216
f 231/231/231 232/232/232 217/217/217
f 232/232/232 233/233/233 217/217/217
f 232/232/232 234/234/234 233/233/233
f 237/237/237 236/236/236 235/235/235
f 240/240/240 239/239/239 238/238/238
f 241/241/241 225/225/225 224/224/224
f 244/244/244 243/243/243 242/242/242
f 245/245/245 226/226/226 225/225/225
f 245/245/245 246/246/246 226/226/226
f 247/247/247 230/230/230 229/229/229
f 247/247/247 248/248/248 230/230/230
f 249/249/249 232/232/232 231/231/231
f 248/248/248 251/251/251 250/250/250
f 252/252/252 234/234/234 232/232/232
f 252/252/252 253/253/253 234/234/234
f 254/254/254 239/239/239 240/240/240
f 254/254/254 255/255/255 239/239/239
f 256/256/256 243/243/243 244/244/244
f 256/256/256 257/257/257 243/243/243
f 258/258/258 246/246/246 245/245/245
f 258/258/258 259/259/259 246/246/246
f 260/260/260 248/248/248 247/247/247
f 260/260/260 261/261/261 248/248/248
f 261/261/261 251/251/251 248/248/248
f 261/261/261 262/262/262 251/251/251
f 263/263/263 253/253/253 252/252/252
f 263/263/263 264/264/264 253/253/253
f 265/265/265 255/255/255 254/254/254
f 265/265/265 266/266/266 255/255/255
f 267/267/267 257/257/257 256/256/256
f 267/267/267 268/268/268 257/257/257
f 269/269/269 259/259/259 258/258/258
f 269/269/269 270/270/270 259/259/259
f 270/270/270 271/271/271 259/259/259
f 270/270/270 272/272/272 271/271/271
f 273/273/273 262/262/262 261/261/261
f 273/273/273 274/274/274 262/262/262
f 275/275/275 264/264/264 263/263/263
f 275/275/275 276/276/276 264/264/264
f 277/277/277 266/266/266 265/265/265
f 277/277/277 278/278/278 266/266/266
f 279/279/279 268/268/268 267/267/267
f 279/279/279 280/280/280 268/268/268
f 280/280/280 281/281/281 268/268/268
f 280/280/280 282/282/282 281/281/281
f 283/283/283 272/272/272 270/270/270
f 283/283/283 284/284/284 272/272/272
f 285/285/285 274/274/274 273/273/273
f 285/285/285 286/286/286 274/274/274
f 286/286/286 287/287/287 274/274/274
f 286/286/286 288/288/288 287/287/287
f 289/289/289 278/278/278 277/277/277
f 289/289/289 290/290/290 278/278/278
f 291/291/291 280/280/280 279/279/279
f 291/291/291 292/292/292 280/280/280
f 292/292/292 282/282/282 280/280/280
f 292/292/292 293/293/293 282/282/282
f 294/294/294 284/284/284 283/283/283
f 294/294/294 295/295/295 284/284/284
f 296/296/296 286/286/286 285/285/285
f 296/296/296 297/297/297 286/286/286
f 297/297/297 288/288/288 286/286/286
f 297/297/297 298/298/298 288/288/288
f 299/299/299 290/290/290 289/289/289
f 299/299/299 300/300/300 290/290/290
f 301/301/301 292/292/292 291/291/291
f 301/301/301 302/302/302 292/292/292
f 302/302/302 293/293/293 292/292/292
f 302/302/302 303/303/303 293/293/293
f 304/304/304 295/295/295 294/294/294
f 304/304/304 305/305/305 295/295/295
f 306/306/306 297/297/297 296/296/296
f 306/306/306 307/307/307 297/297/297
f 307/307/307 298/298/298 297/297/297
f 307/307/307 308/308/308 298/298/298
f 309/309/309 300/300/300 299/299/299
f 309/309/309 310/310/310 300/300/300
f 311/311/311 302/302/302 301/301/301
f 311/311/311 312/312/312 302/302/302
f 312/312/312 303/303/303 302/302/302
f 312/312/312 313/313/313 303/303/303
f 314/314/314 305/305/305 304/304/304
f 314/314/314 315/315/315 305/305/305
f 316/316/316 307/307/307 306/306/306
f 316/316/316 317/317/317 307/307/307
f 317/317/317 308/308/308 307/307/307
f 317/317/317 318/318/318 308/308/308
f 319/319/319 310/310/310 309/309/309
f 319/319/319 320/320/320 310/310/310
f 321/321/321 312/312/312 311/311/311
f 321/321/321 322/322/322 312/312/312
f 322/322/322 313/313/313 312/312/312
f 324/324/324 323/323/323 314/314/314
f 323/323/323 315/315/315 314/314/314
f 323/323/323 325/325/325 315/315/315
f 326/326/326 317/317/317 316/316/316
f 326/326/326 327/327/327 317/317/317
f 327/327/327 318/318/318 317/317/317
f 327/327/327 328/328/328 318/318/318
f 329/329/329 320/320/320 319/319/319
f 329/329/329 330/330/330 320/320/320
f 331/331/331 322/322/322 321/321/321
f 331/331/331 332/332/332 322/322/322
f 333/333/333 323/323/323 324/324/324
f 333/333/333 334/334/334 323/323/323
f 337/337/337 336/336/336 335/335/335
f 337/337/337 338/338/338 336/336/336
f 338/338/338 339/339/339 336/336/336
f 341/341/341 340/340/340 327/327/327
f 340/340/340 328/328/328 327/327/327
f 343/343/343 342/342/342 329/329/329
f 342/342/342 330/330/330 329/329/329
f 342/342/342 344/344/344 330/330/330
f 345/345/345 332/332/332 331/331/331
f 345/345/345 346/346/346 332/332/332
f 347/347/347 334/334/334 333/333/333
f 347/347/347 348/348/348 334/334/334
f 349/349/349 338/338/338 337/337/337
f 349/349/349 350/350/350 338/338/338
f 351/351/351 340/340/340 341/341/341
f 351/351/351 352/352/352 340/340/340
f 353/353/353 342/342/342 343/343/343
f 353/353/353 354/354/354 342/342/342
f 354/354/354 344/344/344 342/342/342
f 354/354/354 355/355/355 344/344/344
f 356/356/356 346/346/346 345/345/345
f 356/356/356 357/357/357 346/346/346
f 358/358/358 348/348/348 347/347/347
f 358/358/358 359/359/359 348/348/348
f 360/360/360 350/350/350 349/349/349
f 360/360/360 361/361/361 350/350/350
f 362/362/362 352/352/352 351/351/351
f 362/362/362 363/363/363 352/352/352
f 364/364/364 354/354/354 353/353/353
f 364/364/364 365/365/365 354/354/354
f 365/365/365 355/355/355 354/354/354
f 365/365/365 366/366/366 355/355/355
f 367/367/367 357/357/357 356/356/356
f 367/367/367 368/368/368 357/357/357
f 369/369/369 359/359/359 358/358/358
f 369/369/369 370/370/370 359/359/359
f 371/371/371 361/361/361 360/360/360
f 371/371/371 372/372/372 361/361/361
f 373/373/373 363/363/363 362/362/362
f 373/373/373 374/374/374 363/363/363
f 375/375/375 365/365/365 364/364/364
f 375/375/375 376/376/376 365/365/365
f 376/376/376 366/366/366 365/365/365
f 376/376/376 377/377/377 366/366/366
