g tube
v -1.881919 0.8262299 -3.424256
v -1.881168 0.8249319 -3.424217
v -1.882208 0.8256233 -3.43893
v -1.881456 0.8243295 -3.438825
v -1.881168 0.8249319 -3.424217
v -1.879668 0.8249319 -3.424247
v -1.881456 0.8243295 -3.438825
v -1.879956 0.8243295 -3.43885
v -1.879668 0.8249319 -3.424247
v -1.87892 0.8262299 -3.424315
v -1.879956 0.8243295 -3.43885
v -1.879208 0.8256233 -3.43898
v -1.87892 0.8262299 -3.424315
v -1.879671 0.8275278 -3.424354
v -1.879208 0.8256233 -3.43898
v -1.87996 0.8269171 -3.439084
v -1.879671 0.8275278 -3.424354
v -1.88117 0.8275278 -3.424324
v -1.87996 0.8269171 -3.439084
v -1.88146 0.8269171 -3.439059
v -1.88117 0.8275278 -3.424324
v -1.881919 0.8262299 -3.424256
v -1.88146 0.8269171 -3.439059
v -1.882208 0.8256233 -3.43893
v -1.88241 0.8235559 -3.453723
v -1.881657 0.8222677 -3.453566
v -1.881657 0.8222677 -3.453566
v -1.880157 0.8222677 -3.453588
v -1.880157 0.8222677 -3.453588
v -1.87941 0.8235559 -3.453766
v -1.87941 0.8235559 -3.453766
v -1.880162 0.8248441 -3.453923
v -1.880162 0.8248441 -3.453923
v -1.881662 0.8248441 -3.453901
v -1.881662 0.8248441 -3.453901
v -1.88241 0.8235559 -3.453723
v -1.882629 0.8217807 -3.468481
v -1.881878 0.8204834 -3.46843
v -1.881878 0.8204834 -3.46843
v -1.880378 0.8204834 -3.468458
v -1.880378 0.8204834 -3.468458
v -1.879629 0.8217807 -3.468538
v -1.879629 0.8217807 -3.468538
v -1.88038 0.8230781 -3.46859
v -1.88038 0.8230781 -3.46859
v -1.88188 0.8230781 -3.468561
v -1.88188 0.8230781 -3.468561
v -1.882629 0.8217807 -3.468481
v -1.882969 0.8220506 -3.48306
v -1.882225 0.8207657 -3.483275
v -1.882225 0.8207657 -3.483275
v -1.880726 0.8207657 -3.483322
v -1.880726 0.8207657 -3.483322
v -1.87997 0.8220506 -3.483154
v -1.87997 0.8220506 -3.483154
v -1.880714 0.8233354 -3.482939
v -1.880714 0.8233354 -3.482939
v -1.882213 0.8233354 -3.482893
v -1.882213 0.8233354 -3.482893
v -1.882969 0.8220506 -3.48306
v -1.883534 0.8261184 -3.49732
v -1.882813 0.8249485 -3.497921
v -1.882813 0.8249485 -3.497921
v -1.881314 0.8249485 -3.497994
v -1.881314 0.8249485 -3.497994
v -1.880538 0.8261184 -3.497467
v -1.880538 0.8261184 -3.497467
v -1.881259 0.8272883 -3.496866
v -1.881259 0.8272883 -3.496866
v -1.882757 0.8272883 -3.496792
v -1.882757 0.8272883 -3.496792
v -1.883534 0.8261184 -3.49732
v -1.884337 0.8357192 -3.510658
v -1.883646 0.8348125 -3.511633
v -1.883646 0.8348125 -3.511633
v -1.882149 0.8348125 -3.511726
v -1.882149 0.8348125 -3.511726
v -1.881343 0.8357192 -3.510844
v -1.881343 0.8357192 -3.510844
v -1.882034 0.836626 -3.509869
v -1.882034 0.836626 -3.509869
v -1.883531 0.836626 -3.509776
v -1.883531 0.836626 -3.509776
v -1.884337 0.8357192 -3.510658
v -1.885013 0.8510847 -3.521063
v -1.884346 0.8504336 -3.522238
v -1.884346 0.8504336 -3.522238
v -1.88285 0.8504336 -3.522346
v -1.88285 0.8504336 -3.522346
v -1.882021 0.8510847 -3.521279
v -1.882021 0.8510847 -3.521279
v -1.882688 0.8517358 -3.520104
v -1.882688 0.8517358 -3.520104
v -1.884184 0.8517358 -3.519996
v -1.884184 0.8517358 -3.519996
v -1.885013 0.8510847 -3.521063
v -1.885773 0.8703365 -3.530371
v -1.885137 0.8697571 -3.5316
v -1.885137 0.8697571 -3.5316
v -1.883644 0.8697571 -3.531742
v -1.883644 0.8697571 -3.531742
v -1.882787 0.8703365 -3.530656
v -1.882787 0.8703365 -3.530656
v -1.883423 0.8709158 -3.529427
v -1.883423 0.8709158 -3.529427
v -1.884916 0.8709158 -3.529285
v -1.884916 0.8709158 -3.529285
v -1.885773 0.8703365 -3.530371
v -1.886932 0.8914567 -3.54104
v -1.886321 0.8907885 -3.542236
v -1.886321 0.8907885 -3.542236
v -1.884832 0.8907885 -3.542415
v -1.884832 0.8907885 -3.542415
v -1.883954 0.8914567 -3.541398
v -1.883954 0.8914567 -3.541398
v -1.884566 0.892125 -3.540203
v -1.884566 0.892125 -3.540203
v -1.886055 0.892125 -3.540024
v -1.886055 0.892125 -3.540024
v -1.886932 0.8914567 -3.54104
v -1.888807 0.9124278 -3.555528
v -1.888195 0.911567 -3.556593
v -1.888195 0.911567 -3.556593
v -1.886708 0.911567 -3.556794
v -1.886708 0.911567 -3.556794
v -1.885834 0.9124278 -3.555931
v -1.885834 0.9124278 -3.555931
v -1.886447 0.9132887 -3.554866
v -1.886447 0.9132887 -3.554866
v -1.887933 0.9132887 -3.554665
v -1.887933 0.9132887 -3.554665
v -1.888807 0.9124278 -3.555528
v -1.891712 0.9312373 -3.576274
v -1.891081 0.9301851 -3.577136
v -1.891081 0.9301851 -3.577136
v -1.889596 0.9301798 -3.577348
v -1.889596 0.9301798 -3.577348
v -1.888742 0.9312268 -3.576696
v -1.888742 0.9312268 -3.576696
v -1.889373 0.9322791 -3.575833
v -1.889373 0.9322791 -3.575833
v -1.890858 0.9322844 -3.575622
v -1.890858 0.9322844 -3.575622
v -1.891712 0.9312373 -3.576274
v -1.895908 0.9490439 -3.606439
v -1.895265 0.9478884 -3.607147
v -1.895265 0.9478884 -3.607147
v -1.893781 0.9478726 -3.607362
v -1.893781 0.9478726 -3.607362
v -1.892939 0.9490125 -3.606868
v -1.892939 0.9490125 -3.606868
v -1.893583 0.950168 -3.60616
v -1.893583 0.950168 -3.60616
v -1.895067 0.9501837 -3.605946
v -1.895067 0.9501837 -3.605946
v -1.895908 0.949044 -3.606439
v -1.901191 0.9674657 -3.644559
v -1.900548 0.9662679 -3.645194
v -1.900548 0.9662679 -3.645194
v -1.899065 0.9662418 -3.645416
v -1.899065 0.9662418 -3.645416
v -1.898224 0.9674132 -3.645002
v -1.898224 0.9674132 -3.645002
v -1.898867 0.968611 -3.644368
v -1.898867 0.968611 -3.644368
v -1.90035 0.9686372 -3.644146
v -1.90035 0.9686372 -3.644146
v -1.901191 0.9674657 -3.644559
v -1.907175 0.9851816 -3.686133
v -1.90654 0.9839584 -3.686725
v -1.90654 0.9839584 -3.686725
v -1.905059 0.9839219 -3.686961
v -1.905059 0.9839219 -3.686961
v -1.904213 0.9851088 -3.686606
v -1.904213 0.9851088 -3.686606
v -1.904848 0.9863321 -3.686014
v -1.904848 0.9863321 -3.686014
v -1.906329 0.9863685 -3.685778
v -1.906329 0.9863685 -3.685778
v -1.907175 0.9851816 -3.686133
v -1.913475 1.000871 -3.72666
v -1.912852 0.9996278 -3.727223
v -1.912852 0.9996278 -3.727223
v -1.911376 0.9995815 -3.727486
v -1.911376 0.9995815 -3.727486
v -1.910523 1.000778 -3.727187
v -1.910523 1.000778 -3.727187
v -1.911146 1.002021 -3.726624
v -1.911146 1.002021 -3.726624
v -1.912622 1.002068 -3.726361
v -1.912622 1.002068 -3.726361
v -1.913475 1.000871 -3.72666
v -1.919704 1.013198 -3.761634
v -1.919087 1.01194 -3.762169
v -1.919087 1.01194 -3.762169
v -1.91762 1.011899 -3.762482
v -1.91762 1.011899 -3.762482
v -1.916771 1.013115 -3.762259
v -1.916771 1.013115 -3.762259
v -1.917389 1.014373 -3.761724
v -1.917389 1.014373 -3.761724
v -1.918855 1.014415 -3.761411
v -1.918855 1.014415 -3.761411
v -1.919704 1.013198 -3.761634
v -1.925575 1.020827 -3.787207
v -1.924931 1.019554 -3.787671
v -1.924931 1.019554 -3.787671
v -1.923486 1.019548 -3.788072
v -1.923486 1.019548 -3.788072
v -1.922685 1.020815 -3.788008
v -1.922685 1.020815 -3.788008
v -1.923329 1.022087 -3.787545
v -1.923329 1.022087 -3.787545
v -1.924774 1.022094 -3.787144
v -1.924774 1.022094 -3.787144
v -1.925575 1.020827 -3.787207
v -1.931443 1.023537 -3.805385
v -1.930726 1.022264 -3.805725
v -1.930726 1.022264 -3.805725
v -1.929324 1.022312 -3.806257
v -1.929324 1.022312 -3.806257
v -1.92864 1.023633 -3.806449
v -1.92864 1.023633 -3.806449
v -1.929357 1.024906 -3.806109
v -1.929357 1.024906 -3.806109
v -1.930758 1.024858 -3.805577
v -1.930758 1.024858 -3.805577
v -1.931443 1.023537 -3.805385
v -1.937362 1.022808 -3.818787
v -1.936541 1.021575 -3.819024
v -1.936541 1.021575 -3.819024
v -1.935205 1.021681 -3.819698
v -1.935205 1.021681 -3.819698
v -1.93469 1.02302 -3.820135
v -1.93469 1.02302 -3.820135
v -1.935511 1.024253 -3.819899
v -1.935511 1.024253 -3.819899
v -1.936847 1.024147 -3.819225
v -1.936847 1.024147 -3.819225
v -1.937362 1.022808 -3.818787
v -1.943335 1.020232 -3.829682
v -1.942436 1.01905 -3.829894
v -1.942436 1.01905 -3.829894
v -1.941151 1.019212 -3.830651
v -1.941151 1.019212 -3.830651
v -1.940766 1.020555 -3.831196
v -1.940766 1.020555 -3.831196
v -1.941665 1.021736 -3.830985
v -1.941665 1.021736 -3.830985
v -1.94295 1.021575 -3.830227
v -1.94295 1.021575 -3.830227
v -1.943335 1.020232 -3.829682
v -1.94938 1.017399 -3.84033
v -1.948469 1.016235 -3.840588
v -1.948469 1.016235 -3.840588
v -1.94717 1.016444 -3.841309
v -1.94717 1.016444 -3.841309
v -1.946782 1.017817 -3.841771
v -1.946782 1.017817 -3.841771
v -1.947692 1.018981 -3.841512
v -1.947692 1.018981 -3.841512
v -1.948991 1.018772 -3.840792
v -1.948991 1.018772 -3.840792
v -1.94938 1.017399 -3.84033
v -1.955407 1.015914 -3.852829
v -1.954506 1.014753 -3.853127
v -1.954506 1.014753 -3.853127
v -1.953181 1.014983 -3.853793
v -1.953181 1.014983 -3.853793
v -1.952758 1.016374 -3.85416
v -1.952758 1.016374 -3.85416
v -1.953659 1.017535 -3.853863
v -1.953659 1.017535 -3.853863
v -1.954983 1.017306 -3.853197
v -1.954983 1.017306 -3.853197
v -1.955407 1.015914 -3.852829

vn -0.9998057 0 0.01971
vn -0.4991702 -0.8653024 0.04561752
vn -0.9998607 0 0.01668951
vn -0.4986121 -0.8625179 0.08630742
vn -0.4991702 -0.8653024 0.04561752
vn 0.5005955 -0.8652935 0.02590794
vn -0.4986121 -0.8625179 0.08630742
vn 0.5012297 -0.8625093 0.06961744
vn 0.5005955 -0.8652935 0.02590794
vn 0.9998057 0 -0.01971
vn 0.5012297 -0.8625093 0.06961744
vn 0.9998607 0 -0.01668951
vn 0.9998057 0 -0.01971
vn 0.4991702 0.8653024 -0.04561752
vn 0.9998607 0 -0.01668951
vn 0.4986121 0.8625179 -0.08630742
vn 0.4991702 0.8653024 -0.04561752
vn -0.5005955 0.8652935 -0.02590794
vn 0.4986121 0.8625179 -0.08630742
vn -0.5012297 0.8625093 -0.06961744
vn -0.5005955 0.8652935 -0.02590794
vn -0.9998057 0 0.01971
vn -0.5012297 0.8625093 -0.06961744
vn -0.9998607 0 0.01668951
vn -0.9998977 0 0.01430469
vn -0.4983783 -0.8587906 0.1187334
vn -0.4983783 -0.8587906 0.1187334
vn 0.5015607 -0.8587965 0.1044289
vn 0.5015607 -0.8587965 0.1044289
vn 0.9998977 0 -0.01430469
vn 0.9998977 0 -0.01430469
vn 0.4983783 0.8587906 -0.1187334
vn 0.4983783 0.8587906 -0.1187334
vn -0.5015607 0.8587965 -0.1044289
vn -0.5015607 0.8587965 -0.1044289
vn -0.9998977 0 0.01430469
vn -0.9998181 0 0.01907291
vn -0.4990896 -0.8649032 0.05340576
vn -0.4990896 -0.8649032 0.05340576
vn 0.5007624 -0.8649099 0.0341736
vn 0.5007624 -0.8649099 0.0341736
vn 0.9998181 0 -0.01907291
vn 0.9998181 0 -0.01907291
vn 0.4990896 0.8649032 -0.05340576
vn 0.4990896 0.8649032 -0.05340576
vn -0.5007624 0.8649099 -0.0341736
vn -0.5007624 0.8649099 -0.0341736
vn -0.9998181 0 0.01907291
vn -0.9995097 0 0.03131166
vn -0.5037769 -0.8565558 -0.1118974
vn -0.5037769 -0.8565558 -0.1118974
vn 0.4957588 -0.8565708 -0.1432122
vn 0.4957588 -0.8565708 -0.1432122
vn 0.9995097 0 -0.03131166
vn 0.9995097 0 -0.03131166
vn 0.5037769 0.8565558 0.1118974
vn 0.5037769 0.8565558 0.1118974
vn -0.4957588 0.8565708 0.1432122
vn -0.4957588 0.8565708 0.1432122
vn -0.9995097 0 0.03131166
vn -0.998801 0 0.0489546
vn -0.5178367 -0.7798942 -0.3515822
vn -0.5178367 -0.7798942 -0.3515822
vn 0.4809645 -0.7798985 -0.4005389
vn 0.4809645 -0.7798985 -0.4005389
vn 0.998801 0 -0.0489546
vn 0.998801 0 -0.0489546
vn 0.5178367 0.7798942 0.3515822
vn 0.5178367 0.7798942 0.3515822
vn -0.4809645 0.7798985 0.4005389
vn -0.4809645 0.7798985 0.4005389
vn -0.998801 0 0.0489546
vn -0.9980769 0 0.06198742
vn -0.5374788 -0.6045146 -0.5879444
vn -0.5374788 -0.6045146 -0.5879444
vn 0.4605585 -0.6045278 -0.6499478
vn 0.4605585 -0.6045278 -0.6499478
vn 0.9980769 0 -0.06198742
vn 0.9980769 0 -0.06198742
vn 0.5374788 0.6045146 0.5879444
vn 0.5374788 0.6045146 0.5879444
vn -0.4605585 0.6045278 0.6499478
vn -0.4605585 0.6045278 0.6499478
vn -0.9980769 0 0.06198742
vn -0.9974043 0 0.07200385
vn -0.5527187 -0.4340292 -0.7114217
vn -0.5527187 -0.4340292 -0.7114217
vn 0.4446752 -0.434065 -0.7834867
vn 0.4446752 -0.434065 -0.7834867
vn 0.9974043 0 -0.07200385
vn 0.9974043 0 -0.07200385
vn 0.5527187 0.4340292 0.7114217
vn 0.5527187 0.4340292 0.7114217
vn -0.4446752 0.434065 0.7834867
vn -0.4446752 0.434065 0.7834867
vn -0.9974043 0 0.07200385
vn -0.9954876 0 0.0948916
vn -0.57133 -0.3862379 -0.7241563
vn -0.57133 -0.3862379 -0.7241563
vn 0.4241639 -0.3862538 -0.8190806
vn 0.4241639 -0.3862538 -0.8190806
vn 0.9954876 0 -0.0948916
vn 0.9954876 0 -0.0948916
vn 0.57133 0.3862379 0.7241563
vn 0.57133 0.3862379 0.7241563
vn -0.4241639 0.3862538 0.8190806
vn -0.4241639 0.3862538 0.8190806
vn -0.9954876 0 0.0948916
vn -0.9928501 0 0.1193677
vn -0.5850464 -0.4454601 -0.6777065
vn -0.5850464 -0.4454601 -0.6777065
vn 0.4078011 -0.4455134 -0.7970044
vn 0.4078011 -0.4455134 -0.7970044
vn 0.9928501 0 -0.1193677
vn 0.9928501 0 -0.1193677
vn 0.5850464 0.4454601 0.6777065
vn 0.5850464 0.4454601 0.6777065
vn -0.4078011 0.4455134 0.7970044
vn -0.4078011 0.4455134 0.7970044
vn -0.9928501 0 0.1193677
vn -0.9909608 0 0.134152
vn -0.5825037 -0.5738416 -0.5756694
vn -0.5825037 -0.5738416 -0.5756694
vn 0.408407 -0.5738679 -0.7098446
vn 0.408407 -0.5738679 -0.7098446
vn 0.9909608 0 -0.134152
vn 0.9909608 0 -0.134152
vn 0.5825037 0.5738416 0.5756694
vn 0.5825037 0.5738416 0.5756694
vn -0.408407 0.5738679 0.7098446
vn -0.408407 0.5738679 0.7098446
vn -0.9909608 0 0.134152
vn -0.9900512 0.003496729 0.1406639
vn -0.5692692 -0.6980164 -0.4344026
vn -0.5692692 -0.6980164 -0.4344026
vn 0.4207929 -0.7014805 -0.5752029
vn 0.4207929 -0.7014805 -0.5752029
vn 0.9900512 -0.003496729 -0.1406639
vn 0.9900512 -0.003496729 -0.1406639
vn 0.5692692 0.6980164 0.4344026
vn 0.5692692 0.6980164 0.4344026
vn -0.4207929 0.7014805 0.5752029
vn -0.4207929 0.7014805 0.5752029
vn -0.9900512 0.003496729 0.1406639
vn -0.98966 0.01049025 0.1430489
vn -0.560827 -0.7598224 -0.3288511
vn -0.560827 -0.7598224 -0.3288511
vn 0.4288207 -0.7703435 -0.4718935
vn 0.4288207 -0.7703435 -0.4718935
vn 0.98966 -0.01049025 -0.1430489
vn 0.98966 -0.01049025 -0.1430489
vn 0.560827 0.7598224 0.3288511
vn 0.560827 0.7598224 0.3288511
vn -0.4288207 0.7703435 0.4718935
vn -0.4288207 0.7703435 0.4718935
vn -0.9896596 0.01052998 0.1430489
vn -0.9888835 0.01748408 0.147661
vn -0.5605078 -0.7809997 -0.2754459
vn -0.5605078 -0.7809997 -0.2754459
vn 0.4283457 -0.7984396 -0.4231007
vn 0.4283457 -0.7984396 -0.4231007
vn 0.9888835 -0.01748408 -0.147661
vn 0.9888835 -0.01748408 -0.147661
vn 0.5605078 0.7809997 0.2754459
vn 0.5605078 0.7809997 0.2754459
vn -0.4283457 0.7984396 0.4231007
vn -0.4283457 0.7984396 0.4231007
vn -0.9888835 0.01748408 0.147661
vn -0.9871932 0.0242785 0.1576712
vn -0.5637849 -0.7912381 -0.236831
vn -0.5637849 -0.7912381 -0.236831
vn 0.4234346 -0.8155169 -0.3945063
vn 0.4234346 -0.8155169 -0.3945063
vn 0.9871932 -0.0242785 -0.1576712
vn 0.9871932 -0.0242785 -0.1576712
vn 0.5637849 0.7912381 0.236831
vn 0.5637849 0.7912381 0.236831
vn -0.4234346 0.8155169 0.3945063
vn -0.4234346 0.8155169 0.3945063
vn -0.9871932 0.0242785 0.1576712
vn -0.9839717 0.03083604 0.1756383
vn -0.5687788 -0.7978559 -0.1997918
vn -0.5687788 -0.7978559 -0.1997918
vn 0.4151786 -0.828728 -0.375282
vn 0.4151786 -0.828728 -0.375282
vn 0.9839717 -0.03083604 -0.1756383
vn 0.9839717 -0.03083604 -0.1756383
vn 0.5687968 0.7978414 0.1997981
vn 0.5687968 0.7978414 0.1997981
vn -0.4151649 0.8287405 0.3752697
vn -0.4151649 0.8287405 0.3752697
vn -0.9839717 0.03083604 0.1756383
vn -0.977658 0.02765607 0.2083742
vn -0.5659981 -0.8109302 -0.1484533
vn -0.5659981 -0.8109302 -0.1484533
vn 0.4116596 -0.8385777 -0.3568247
vn 0.4116596 -0.8385777 -0.3568247
vn 0.977658 -0.02765607 -0.2083742
vn 0.977658 -0.02765607 -0.2083742
vn 0.5659981 0.8109302 0.1484533
vn 0.5659981 0.8109302 0.1484533
vn -0.4116596 0.8385777 0.3568247
vn -0.4116596 0.8385777 0.3568247
vn -0.977658 0.02765607 0.2083742
vn -0.963634 0.004053223 0.2671948
vn -0.5341176 -0.8443683 -0.04196014
vn -0.5341176 -0.8443683 -0.04196014
vn 0.4294738 -0.8484571 -0.3093101
vn 0.4294738 -0.8484571 -0.3093101
vn 0.963634 -0.004053223 -0.2671948
vn 0.963634 -0.004053223 -0.2671948
vn 0.5341176 0.8443683 0.04196014
vn 0.5341176 0.8443683 0.04196014
vn -0.4294738 0.8484571 0.3093101
vn -0.4294738 0.8484571 0.3093101
vn -0.963634 0.004053223 0.2671948
vn -0.9344082 -0.03210588 0.3547541
vn -0.4562618 -0.880575 0.1281125
vn -0.4562618 -0.880575 0.1281125
vn 0.4781778 -0.8485134 -0.2266517
vn 0.4781778 -0.8485134 -0.2266517
vn 0.9344082 0.03210588 -0.3547541
vn 0.9344082 0.03210588 -0.3547541
vn 0.4562618 0.880575 -0.1281125
vn 0.4562618 0.880575 -0.1281125
vn -0.4781778 0.8485134 0.2266517
vn -0.4781778 0.8485134 0.2266517
vn -0.9344082 -0.03210588 0.3547541
vn -0.890565 -0.07065075 0.4493356
vn -0.3434125 -0.8927453 0.2916741
vn -0.3434125 -0.8927453 0.2916741
vn 0.5471566 -0.8220462 -0.1576701
vn 0.5471566 -0.8220462 -0.1576701
vn 0.890565 0.07065075 -0.4493356
vn 0.890565 0.07065075 -0.4493356
vn 0.3434125 0.8927453 -0.2916741
vn 0.3434125 0.8927453 -0.2916741
vn -0.5471566 0.8220462 0.1576701
vn -0.5471566 0.8220462 0.1576701
vn -0.890565 -0.07065075 0.4493356
vn -0.8564771 -0.107765 0.5048105
vn -0.2568553 -0.8954172 0.3636664
vn -0.2568553 -0.8954172 0.3636664
vn 0.599675 -0.7876993 -0.1411374
vn 0.599675 -0.7876993 -0.1411374
vn 0.8564771 0.107765 -0.5048105
vn 0.8564771 0.107765 -0.5048105
vn 0.2568553 0.8954172 -0.3636664
vn 0.2568553 0.8954172 -0.3636664
vn -0.599675 0.7876993 0.1411374
vn -0.599675 0.7876993 0.1411374
vn -0.8564771 -0.107765 0.5048105
vn -0.8660234 -0.1393966 0.4801792
vn -0.2592416 -0.9153723 0.3080381
vn -0.2592416 -0.9153723 0.3080381
vn 0.6068431 -0.7759581 -0.1721349
vn 0.6068431 -0.7759581 -0.1721349
vn 0.8660234 0.1393966 -0.4801792
vn 0.8660234 0.1393966 -0.4801792
vn 0.2592416 0.9153723 -0.3080381
vn 0.2592416 0.9153723 -0.3080381
vn -0.6068431 0.7759581 0.1721349
vn -0.6068431 0.7759581 0.1721349
vn -0.8660234 -0.1393966 0.4801792
vn -0.8829524 -0.1531457 0.4437809
vn -0.2821943 -0.9274822 0.2452412
vn -0.2821943 -0.9274822 0.2452412
vn 0.6007271 -0.7743729 -0.1986794
vn 0.6007271 -0.7743729 -0.1986794
vn 0.8829524 0.1531457 -0.4437809
vn 0.8829524 0.1531457 -0.4437809
vn 0.2821943 0.9274822 -0.2452412
vn 0.2821943 0.9274822 -0.2452412
vn -0.6007271 0.7743729 0.1986794
vn -0.6007271 0.7743729 0.1986794
vn -0.8829524 -0.1531457 0.4437809

vt 1 0
vt 0.8333333 0
vt 1 0.04545455
vt 0.8333333 0.04545455
vt 0.8333333 0
vt 0.6666666 0
vt 0.8333333 0.04545455
vt 0.6666666 0.04545455
vt 0.6666666 0
vt 0.5 0
vt 0.6666666 0.04545455
vt 0.5 0.04545455
vt 0.5 0
vt 0.3333333 0
vt 0.5 0.04545455
vt 0.3333333 0.04545455
vt 0.3333333 0
vt 0.1666667 0
vt 0.3333333 0.04545455
vt 0.1666667 0.04545455
vt 0.1666667 0
vt 0 0
vt 0.1666667 0.04545455
vt 0 0.04545455
vt 1 0.09090909
vt 0.8333333 0.09090909
vt 0.8333333 0.09090909
vt 0.6666666 0.09090909
vt 0.6666666 0.09090909
vt 0.5 0.09090909
vt 0.5 0.09090909
vt 0.3333333 0.09090909
vt 0.3333333 0.09090909
vt 0.1666667 0.09090909
vt 0.1666667 0.09090909
vt 0 0.09090909
vt 1 0.1363636
vt 0.8333333 0.1363636
vt 0.8333333 0.1363636
vt 0.6666666 0.1363636
vt 0.6666666 0.1363636
vt 0.5 0.1363636
vt 0.5 0.1363636
vt 0.3333333 0.1363636
vt 0.3333333 0.1363636
vt 0.1666667 0.1363636
vt 0.1666667 0.1363636
vt 0 0.1363636
vt 1 0.1818182
vt 0.8333333 0.1818182
vt 0.8333333 0.1818182
vt 0.6666666 0.1818182
vt 0.6666666 0.1818182
vt 0.5 0.1818182
vt 0.5 0.1818182
vt 0.3333333 0.1818182
vt 0.3333333 0.1818182
vt 0.1666667 0.1818182
vt 0.1666667 0.1818182
vt 0 0.1818182
vt 1 0.2272727
vt 0.8333333 0.2272727
vt 0.8333333 0.2272727
vt 0.6666666 0.2272727
vt 0.6666666 0.2272727
vt 0.5 0.2272727
vt 0.5 0.2272727
vt 0.3333333 0.2272727
vt 0.3333333 0.2272727
vt 0.1666667 0.2272727
vt 0.1666667 0.2272727
vt 0 0.2272727
vt 1 0.2727273
vt 0.8333333 0.2727273
vt 0.8333333 0.2727273
vt 0.6666666 0.2727273
vt 0.6666666 0.2727273
vt 0.5 0.2727273
vt 0.5 0.2727273
vt 0.3333333 0.2727273
vt 0.3333333 0.2727273
vt 0.1666667 0.2727273
vt 0.1666667 0.2727273
vt 0 0.2727273
vt 1 0.3181818
vt 0.8333333 0.3181818
vt 0.8333333 0.3181818
vt 0.6666666 0.3181818
vt 0.6666666 0.3181818
vt 0.5 0.3181818
vt 0.5 0.3181818
vt 0.3333333 0.3181818
vt 0.3333333 0.3181818
vt 0.1666667 0.3181818
vt 0.1666667 0.3181818
vt 0 0.3181818
vt 1 0.3636364
vt 0.8333333 0.3636364
vt 0.8333333 0.3636364
vt 0.6666666 0.3636364
vt 0.6666666 0.3636364
vt 0.5 0.3636364
vt 0.5 0.3636364
vt 0.3333333 0.3636364
vt 0.3333333 0.3636364
vt 0.1666667 0.3636364
vt 0.1666667 0.3636364
vt 0 0.3636364
vt 1 0.4090909
vt 0.8333333 0.4090909
vt 0.8333333 0.4090909
vt 0.6666666 0.4090909
vt 0.6666666 0.4090909
vt 0.5 0.4090909
vt 0.5 0.4090909
vt 0.3333333 0.4090909
vt 0.3333333 0.4090909
vt 0.1666667 0.4090909
vt 0.1666667 0.4090909
vt 0 0.4090909
vt 1 0.4545455
vt 0.8333333 0.4545455
vt 0.8333333 0.4545455
vt 0.6666666 0.4545455
vt 0.6666666 0.4545455
vt 0.5 0.4545455
vt 0.5 0.4545455
vt 0.3333333 0.4545455
vt 0.3333333 0.4545455
vt 0.1666667 0.4545455
vt 0.1666667 0.4545455
vt 0 0.4545455
vt 1 0.5
vt 0.8333333 0.5
vt 0.8333333 0.5
vt 0.6666666 0.5
vt 0.6666666 0.5
vt 0.5 0.5
vt 0.5 0.5
vt 0.3333333 0.5
vt 0.3333333 0.5
vt 0.1666667 0.5
vt 0.1666667 0.5
vt 0 0.5
vt 1 0.5454546
vt 0.8333333 0.5454546
vt 0.8333333 0.5454546
vt 0.6666666 0.5454546
vt 0.6666666 0.5454546
vt 0.5 0.5454546
vt 0.5 0.5454546
vt 0.3333333 0.5454546
vt 0.3333333 0.5454546
vt 0.1666667 0.5454546
vt 0.1666667 0.5454546
vt 0 0.5454546
vt 1 0.5909091
vt 0.8333333 0.5909091
vt 0.8333333 0.5909091
vt 0.6666666 0.5909091
vt 0.6666666 0.5909091
vt 0.5 0.5909091
vt 0.5 0.5909091
vt 0.3333333 0.5909091
vt 0.3333333 0.5909091
vt 0.1666667 0.5909091
vt 0.1666667 0.5909091
vt 0 0.5909091
vt 1 0.6363636
vt 0.8333333 0.6363636
vt 0.8333333 0.6363636
vt 0.6666666 0.6363636
vt 0.6666666 0.6363636
vt 0.5 0.6363636
vt 0.5 0.6363636
vt 0.3333333 0.6363636
vt 0.3333333 0.6363636
vt 0.1666667 0.6363636
vt 0.1666667 0.6363636
vt 0 0.6363636
vt 1 0.6818182
vt 0.8333333 0.6818182
vt 0.8333333 0.6818182
vt 0.6666666 0.6818182
vt 0.6666666 0.6818182
vt 0.5 0.6818182
vt 0.5 0.6818182
vt 0.3333333 0.6818182
vt 0.3333333 0.6818182
vt 0.1666667 0.6818182
vt 0.1666667 0.6818182
vt 0 0.6818182
vt 1 0.7272727
vt 0.8333333 0.7272727
vt 0.8333333 0.7272727
vt 0.6666666 0.7272727
vt 0.6666666 0.7272727
vt 0.5 0.7272727
vt 0.5 0.7272727
vt 0.3333333 0.7272727
vt 0.3333333 0.7272727
vt 0.1666667 0.7272727
vt 0.1666667 0.7272727
vt 0 0.7272727
vt 1 0.7727273
vt 0.8333333 0.7727273
vt 0.8333333 0.7727273
vt 0.6666666 0.7727273
vt 0.6666666 0.7727273
vt 0.5 0.7727273
vt 0.5 0.7727273
vt 0.3333333 0.7727273
vt 0.3333333 0.7727273
vt 0.1666667 0.7727273
vt 0.1666667 0.7727273
vt 0 0.7727273
vt 1 0.8181818
vt 0.8333333 0.8181818
vt 0.8333333 0.8181818
vt 0.6666666 0.8181818
vt 0.6666666 0.8181818
vt 0.5 0.8181818
vt 0.5 0.8181818
vt 0.3333333 0.8181818
vt 0.3333333 0.8181818
vt 0.1666667 0.8181818
vt 0.1666667 0.8181818
vt 0 0.8181818
vt 1 0.8636364
vt 0.8333333 0.8636364
vt 0.8333333 0.8636364
vt 0.6666666 0.8636364
vt 0.6666666 0.8636364
vt 0.5 0.8636364
vt 0.5 0.8636364
vt 0.3333333 0.8636364
vt 0.3333333 0.8636364
vt 0.1666667 0.8636364
vt 0.1666667 0.8636364
vt 0 0.8636364
vt 1 0.9090909
vt 0.8333333 0.9090909
vt 0.8333333 0.9090909
vt 0.6666666 0.9090909
vt 0.6666666 0.9090909
vt 0.5 0.9090909
vt 0.5 0.9090909
vt 0.3333333 0.9090909
vt 0.3333333 0.9090909
vt 0.1666667 0.9090909
vt 0.1666667 0.9090909
vt 0 0.9090909
vt 1 0.9545454
vt 0.8333333 0.9545454
vt 0.8333333 0.9545454
vt 0.6666666 0.9545454
vt 0.6666666 0.9545454
vt 0.5 0.9545454
vt 0.5 0.9545454
vt 0.3333333 0.9545454
vt 0.3333333 0.9545454
vt 0.1666667 0.9545454
vt 0.1666667 0.9545454
vt 0 0.9545454
vt 1 1
vt 0.8333333 1
vt 0.8333333 1
vt 0.6666666 1
vt 0.6666666 1
vt 0.5 1
vt 0.5 1
vt 0.3333333 1
vt 0.3333333 1
vt 0.1666667 1
vt 0.1666667 1
vt 0 1

vt2 0.005337433 0.2577231
vt2 0.00390625 0.2551816
vt2 0.03022574 0.2437075
vt2 0.02868463 0.2412311
vt2 0.9969572 0.04884969
vt2 0.9972726 0.05174924
vt2 0.9686882 0.05192471
vt2 0.9690124 0.05482336
vt2 0.9430226 0.3360209
vt2 0.9419166 0.3387198
vt2 0.9167178 0.3252441
vt2 0.9155027 0.3278957
vt2 0.9580151 0.1582926
vt2 0.9565851 0.1608348
vt2 0.9331365 0.1442959
vt2 0.9315965 0.146773
vt2 0.00390625 0.006805539
vt2 0.004223849 0.00390625
vt2 0.03240897 0.009929633
vt2 0.03273531 0.007031252
vt2 0.0050117 0.4534594
vt2 0.00390625 0.4507602
vt2 0.03155352 0.4425873
vt2 0.03033897 0.4399355
vt2 0.05419417 0.2272982
vt2 0.05256739 0.2248773
vt2 0.9399318 0.05522742
vt2 0.9402627 0.05812543
vt2 0.8909236 0.3121257
vt2 0.8896226 0.3147361
vt2 0.9091733 0.1279032
vt2 0.9075475 0.1303248
vt2 0.06135152 0.01327752
vt2 0.06168472 0.01037981
vt2 0.05753524 0.4293873
vt2 0.0562348 0.4267766
vt2 0.0783236 0.2113802
vt2 0.07687104 0.2088509
vt2 0.9110058 0.05851631
vt2 0.9113226 0.06141591
vt2 0.8647489 0.2993491
vt2 0.8636223 0.3020395
vt2 0.8850121 0.1119827
vt2 0.8835607 0.1145127
vt2 0.08989456 0.01654367
vt2 0.0902136 0.01364435
vt2 0.0833376 0.4167856
vt2 0.08221157 0.414095
vt2 0.1037466 0.1988077
vt2 0.102765 0.1960612
vt2 0.8822833 0.06153283
vt2 0.882565 0.064436
vt2 0.8374748 0.289745
vt2 0.836807 0.2925843
vt2 0.85952 0.09938863
vt2 0.8585396 0.1021356
vt2 0.117654 0.01948548
vt2 0.117938 0.01658254
vt2 0.109629 0.4075098
vt2 0.1089618 0.4046704
vt2 0.1318612 0.1923158
vt2 0.1316468 0.1894069
vt2 0.8527602 0.06414714
vt2 0.8529926 0.06705466
vt2 0.8080112 0.286101
vt2 0.8080742 0.2890172
vt2 0.8313116 0.09286294
vt2 0.8310986 0.09577193
vt2 0.1457092 0.02201755
vt2 0.1459438 0.01911021
vt2 0.1375364 0.4040616
vt2 0.1376 0.4011455
vt2 0.163751 0.194902
vt2 0.1644249 0.1920642
vt2 0.8199553 0.06645385
vt2 0.8201569 0.06936347
vt2 0.7755458 0.2915332
vt2 0.7764567 0.2943042
vt2 0.799358 0.09542982
vt2 0.8000332 0.09826738
vt2 0.176794 0.02425771
vt2 0.1769978 0.02134826
vt2 0.1682376 0.4092372
vt2 0.169149 0.4064664
vt2 0.1971944 0.2085147
vt2 0.1984637 0.2058888
vt2 0.7832986 0.06891317
vt2 0.7834837 0.07182398
vt2 0.7427333 0.3080956
vt2 0.7442053 0.3106138
vt2 0.7658742 0.1090309
vt2 0.7671446 0.1116563
vt2 0.2122189 0.02670319
vt2 0.2124062 0.02379254
vt2 0.1998759 0.4253231
vt2 0.2013485 0.4228053
vt2 0.2333879 0.2290373
vt2 0.2348106 0.2264912
vt2 0.7415893 0.071342
vt2 0.7417451 0.07425455
vt2 0.7079413 0.3312806
vt2 0.7095354 0.3337232
vt2 0.7295872 0.1295078
vt2 0.731011 0.1320533
vt2 0.2536336 0.02924878
vt2 0.2537917 0.02633635
vt2 0.2343124 0.4484178
vt2 0.235907 0.4459755
vt2 0.2736865 0.2513557
vt2 0.274949 0.2487262
vt2 0.6957527 0.07346467
vt2 0.6958762 0.07637876
vt2 0.6691884 0.3559116
vt2 0.6705996 0.3584641
vt2 0.6891878 0.1517788
vt2 0.6904516 0.1544078
vt2 0.2998891 0.03153595
vt2 0.3000148 0.02862196
vt2 0.2733117 0.4733343
vt2 0.2747234 0.4707822
vt2 0.3196291 0.270305
vt2 0.3204705 0.2675122
vt2 0.6465399 0.07525966
vt2 0.6466383 0.0781747
vt2 0.624662 0.3770066
vt2 0.625639 0.379755
vt2 0.6431838 0.1707101
vt2 0.6440264 0.1735025
vt2 0.3500506 0.03346657
vt2 0.3501512 0.0305516
vt2 0.3186303 0.4948654
vt2 0.3196079 0.4921172
vt2 0.3733365 0.2809084
vt2 0.3736464 0.2780083
vt2 0.5923625 0.07688457
vt2 0.592453 0.07980003
vt2 0.5720025 0.3898779
vt2 0.5724468 0.3927608
vt2 0.5894594 0.1813049
vt2 0.5897706 0.1842048
vt2 0.4053244 0.03520519
vt2 0.4054172 0.03228979
vt2 0.3723292 0.508048
vt2 0.3727742 0.5051652
vt2 0.441925 0.2821948
vt2 0.4418738 0.2792785
vt2 0.5241573 0.07904524
vt2 0.5242525 0.08196048
vt2 0.5039128 0.3943237
vt2 0.5040009 0.3972393
vt2 0.5208791 0.1825843
vt2 0.5208292 0.1855006
vt2 0.4742407 0.03747819
vt2 0.4743382 0.03456302
vt2 0.4411363 0.5126116
vt2 0.4412251 0.5096961
vt2 0.524771 0.2777592
vt2 0.5245575 0.2748501
vt2 0.4414006 0.08178751
vt2 0.4414922 0.08470281
vt2 0.4211082 0.3938704
vt2 0.4210305 0.3967861
vt2 0.4380265 0.1781404
vt2 0.4378142 0.1810496
vt2 0.5573255 0.04033728
vt2 0.5574194 0.03742205
vt2 0.5242659 0.5122208
vt2 0.5241889 0.5093051
vt2 0.6130322 0.269564
vt2 0.6127256 0.2666634
vt2 0.352891 0.08437257
vt2 0.3529631 0.08728848
vt2 0.3326456 0.389575
vt2 0.3324548 0.3924855
vt2 0.3497278 0.1699267
vt2 0.3494224 0.1728274
vt2 0.6460577 0.04304942
vt2 0.646132 0.04013357
vt2 0.612919 0.5079896
vt2 0.612729 0.505079
vt2 0.6978325 0.2595724
vt2 0.6974647 0.2566788
vt2 0.2675822 0.08604023
vt2 0.2676118 0.08895669
vt2 0.2475715 0.3825016
vt2 0.2472762 0.3854033
vt2 0.2648457 0.159897
vt2 0.2644791 0.1627906
vt2 0.731573 0.0448507
vt2 0.7316049 0.04193426
vt2 0.6981239 0.50099
vt2 0.6978292 0.4980882
vt2 0.7702836 0.2497193
vt2 0.7698581 0.2468337
vt2 0.1945227 0.08603843
vt2 0.194457 0.08895447
vt2 0.1749454 0.3737215
vt2 0.1744986 0.3766039
vt2 0.1922081 0.1500092
vt2 0.1917837 0.152895
vt2 0.8049389 0.04494344
vt2 0.8048755 0.04202734
vt2 0.7708716 0.4922518
vt2 0.7704256 0.4893694
vt2 0.8227566 0.2413706
vt2 0.822184 0.2385107
vt2 0.1415927 0.08365782
vt2 0.1413382 0.08656348
vt2 0.1227026 0.3638212
vt2 0.1219257 0.3666327
vt2 0.1393543 0.1416538
vt2 0.1387829 0.1445138
vt2 0.8585443 0.04253179
vt2 0.8582921 0.03962592
vt2 0.8234016 0.4822665
vt2 0.8226254 0.4794548
vt2 0.859204 0.2324853
vt2 0.8583695 0.2296906
vt2 0.10465 0.07892388
vt2 0.1041171 0.08179161
vt2 0.08745191 0.3509538
vt2 0.08615941 0.3535687
vt2 0.1023289 0.1327645
vt2 0.1014955 0.1355595
vt2 0.8965682 0.03755937
vt2 0.8960375 0.0346912
vt2 0.8591192 0.4691016
vt2 0.8578273 0.4664864
vt2 0.8860332 0.2227985
vt2 0.884945 0.2200922
vt2 0.07716832 0.07235597
vt2 0.07634497 0.07515413
vt2 0.06329836 0.3357236
vt2 0.06152432 0.3380387
vt2 0.07485961 0.123095
vt2 0.07377262 0.1258017
vt2 0.9251077 0.03053947
vt2 0.9242865 0.02774068
vt2 0.8836163 0.4534106
vt2 0.8818429 0.4510951
vt2 0.9084914 0.2125791
vt2 0.9072807 0.2099257
vt2 0.05394602 0.06442112
vt2 0.05296616 0.06716854
vt2 0.0449999 0.3191255
vt2 0.04299854 0.3212475
vt2 0.05199502 0.1129774
vt2 0.05078552 0.1156313
vt2 0.9488237 0.02220902
vt2 0.9478459 0.01946084
vt2 0.9019583 0.4364644
vt2 0.8999575 0.4343419
vt2 0.9306348 0.2022412
vt2 0.929478 0.1995637
vt2 0.03092069 0.05605964
vt2 0.03003074 0.05883748
vt2 0.02744683 0.3021744
vt2 0.02556031 0.3043989
vt2 0.02996426 0.102848
vt2 0.02880865 0.105526
vt2 0.9715178 0.01383718
vt2 0.9706299 0.01105865
vt2 0.9193337 0.4194997
vt2 0.9174478 0.4172747
vt2 0.9558103 0.1921136
vt2 0.9547237 0.1894069
vt2 0.004681042 0.04884969
vt2 0.00390625 0.05166183
vt2 0.005638061 0.286101
vt2 0.00390625 0.288448
vt2 0.00499166 0.09286294
vt2 0.00390625 0.09557013
vt2 0.9973748 0.006718992
vt2 0.9966021 0.00390625
vt2 0.9410015 0.4034929
vt2 0.9392703 0.4011455


vc 1 1 1 1
vc 1 1 1 1
vc 1 1 1 1
vc 1 1 1 1
vc 1 1 1 1
vc 1 1 1 1
vc 1 1 1 1
vc 1 1 1 1
vc 1 1 1 1
vc 1 1 1 1
vc 1 1 1 1
vc 1 1 1 1
vc 1 1 1 1
vc 1 1 1 1
vc 1 1 1 1
vc 1 1 1 1
vc 1 1 1 1
vc 1 1 1 1
vc 1 1 1 1
vc 1 1 1 1
vc 1 1 1 1
vc 1 1 1 1
vc 1 1 1 1
vc 1 1 1 1
vc 1 1 1 1
vc 1 1 1 1
vc 1 1 1 1
vc 1 1 1 1
vc 1 1 1 1
vc 1 1 1 1
vc 1 1 1 1
vc 1 1 1 1
vc 1 1 1 1
vc 1 1 1 1
vc 1 1 1 1
vc 1 1 1 1
vc 1 1 1 1
vc 1 1 1 1
vc 1 1 1 1
vc 1 1 1 1
vc 1 1 1 1
vc 1 1 1 1
vc 1 1 1 1
vc 1 1 1 1
vc 1 1 1 1
vc 1 1 1 1
vc 1 1 1 1
vc 1 1 1 1
vc 1 1 1 1
vc 1 1 1 1
vc 1 1 1 1
vc 1 1 1 1
vc 1 1 1 1
vc 1 1 1 1
vc 1 1 1 1
vc 1 1 1 1
vc 1 1 1 1
vc 1 1 1 1
vc 1 1 1 1
vc 1 1 1 1
vc 1 1 1 1
vc 1 1 1 1
vc 1 1 1 1
vc 1 1 1 1
vc 1 1 1 1
vc 1 1 1 1
vc 1 1 1 1
vc 1 1 1 1
vc 1 1 1 1
vc 1 1 1 1
vc 1 1 1 1
vc 1 1 1 1
vc 1 1 1 1
vc 1 1 1 1
vc 1 1 1 1
vc 1 1 1 1
vc 1 1 1 1
vc 1 1 1 1
vc 1 1 1 1
vc 1 1 1 1
vc 1 1 1 1
vc 1 1 1 1
vc 1 1 1 1
vc 1 1 1 1
vc 1 1 1 1
vc 1 1 1 1
vc 1 1 1 1
vc 1 1 1 1
vc 1 1 1 1
vc 1 1 1 1
vc 1 1 1 1
vc 1 1 1 1
vc 1 1 1 1
vc 1 1 1 1
vc 1 1 1 1
vc 1 1 1 1
vc 1 1 1 1
vc 1 1 1 1
vc 1 1 1 1
vc 1 1 1 1
vc 1 1 1 1
vc 1 1 1 1
vc 1 1 1 1
vc 1 1 1 1
vc 1 1 1 1
vc 1 1 1 1
vc 1 1 1 1
vc 1 1 1 1
vc 1 1 1 1
vc 1 1 1 1
vc 1 1 1 1
vc 1 1 1 1
vc 1 1 1 1
vc 1 1 1 1
vc 1 1 1 1
vc 1 1 1 1
vc 1 1 1 1
vc 1 1 1 1
vc 1 1 1 1
vc 1 1 1 1
vc 1 1 1 1
vc 1 1 1 1
vc 1 1 1 1
vc 1 1 1 1
vc 1 1 1 1
vc 1 1 1 1
vc 1 1 1 1
vc 1 1 1 1
vc 1 1 1 1
vc 1 1 1 1
vc 1 1 1 1
vc 1 1 1 1
vc 1 1 1 1
vc 1 1 1 1
vc 1 1 1 1
vc 1 1 1 1
vc 1 1 1 1
vc 1 1 1 1
vc 1 1 1 1
vc 1 1 1 1
vc 1 1 1 1
vc 1 1 1 1
vc 1 1 1 1
vc 1 1 1 1
vc 1 1 1 1
vc 1 1 1 1
vc 1 1 1 1
vc 1 1 1 1
vc 1 1 1 1
vc 1 1 1 1
vc 1 1 1 1
vc 1 1 1 1
vc 1 1 1 1
vc 1 1 1 1
vc 1 1 1 1
vc 1 1 1 1
vc 1 1 1 1
vc 1 1 1 1
vc 1 1 1 1
vc 1 1 1 1
vc 1 1 1 1
vc 1 1 1 1
vc 1 1 1 1
vc 1 1 1 1
vc 1 1 1 1
vc 1 1 1 1
vc 1 1 1 1
vc 1 1 1 1
vc 1 1 1 1
vc 1 1 1 1
vc 1 1 1 1
vc 1 1 1 1
vc 1 1 1 1
vc 1 1 1 1
vc 1 1 1 1
vc 1 1 1 1
vc 1 1 1 1
vc 1 1 1 1
vc 1 1 1 1
vc 1 1 1 1
vc 1 1 1 1
vc 1 1 1 1
vc 1 1 1 1
vc 1 1 1 1
vc 1 1 1 1
vc 1 1 1 1
vc 1 1 1 1
vc 1 1 1 1
vc 1 1 1 1
vc 1 1 1 1
vc 1 1 1 1
vc 1 1 1 1
vc 1 1 1 1
vc 1 1 1 1
vc 1 1 1 1
vc 1 1 1 1
vc 1 1 1 1
vc 1 1 1 1
vc 1 1 1 1
vc 1 1 1 1
vc 1 1 1 1
vc 1 1 1 1
vc 1 1 1 1
vc 1 1 1 1
vc 1 1 1 1
vc 1 1 1 1
vc 1 1 1 1
vc 1 1 1 1
vc 1 1 1 1
vc 1 1 1 1
vc 1 1 1 1
vc 1 1 1 1
vc 1 1 1 1
vc 1 1 1 1
vc 1 1 1 1
vc 1 1 1 1
vc 1 1 1 1
vc 1 1 1 1
vc 1 1 1 1
vc 1 1 1 1
vc 1 1 1 1
vc 1 1 1 1
vc 1 1 1 1
vc 1 1 1 1
vc 1 1 1 1
vc 1 1 1 1
vc 1 1 1 1
vc 1 1 1 1
vc 1 1 1 1
vc 1 1 1 1
vc 1 1 1 1
vc 1 1 1 1
vc 1 1 1 1
vc 1 1 1 1
vc 1 1 1 1
vc 1 1 1 1
vc 1 1 1 1
vc 1 1 1 1
vc 1 1 1 1
vc 1 1 1 1
vc 1 1 1 1
vc 1 1 1 1
vc 1 1 1 1
vc 1 1 1 1
vc 1 1 1 1
vc 1 1 1 1
vc 1 1 1 1
vc 1 1 1 1
vc 1 1 1 1
vc 1 1 1 1
vc 1 1 1 1
vc 1 1 1 1
vc 1 1 1 1
vc 1 1 1 1
vc 1 1 1 1
vc 1 1 1 1
vc 1 1 1 1
vc 1 1 1 1
vc 1 1 1 1
vc 1 1 1 1
vc 1 1 1 1
vc 1 1 1 1
vc 1 1 1 1
vc 1 1 1 1
vc 1 1 1 1
vc 1 1 1 1
vc 1 1 1 1
vc 1 1 1 1
vc 1 1 1 1
vc 1 1 1 1
vc 1 1 1 1
vc 1 1 1 1
vc 1 1 1 1
vc 1 1 1 1
vc 1 1 1 1
vc 1 1 1 1

usemtl Default-Diffuse
usemap Default-Diffuse
f 3/3/3 2/2/2 1/1/1
f 3/3/3 4/4/4 2/2/2
f 7/7/7 6/6/6 5/5/5
f 7/7/7 8/8/8 6/6/6
f 11/11/11 10/10/10 9/9/9
f 11/11/11 12/12/12 10/10/10
f 15/15/15 14/14/14 13/13/13
f 15/15/15 16/16/16 14/14/14
f 19/19/19 18/18/18 17/17/17
f 19/19/19 20/20/20 18/18/18
f 23/23/23 22/22/22 21/21/21
f 23/23/23 24/24/24 22/22/22
f 25/25/25 4/4/4 3/3/3
f 25/25/25 26/26/26 4/4/4
f 27/27/27 8/8/8 7/7/7
f 27/27/27 28/28/28 8/8/8
f 29/29/29 12/12/12 11/11/11
f 29/29/29 30/30/30 12/12/12
f 31/31/31 16/16/16 15/15/15
f 31/31/31 32/32/32 16/16/16
f 33/33/33 20/20/20 19/19/19
f 33/33/33 34/34/34 20/20/20
f 35/35/35 24/24/24 23/23/23
f 35/35/35 36/36/36 24/24/24
f 37/37/37 26/26/26 25/25/25
f 37/37/37 38/38/38 26/26/26
f 39/39/39 28/28/28 27/27/27
f 39/39/39 40/40/40 28/28/28
f 41/41/41 30/30/30 29/29/29
f 41/41/41 42/42/42 30/30/30
f 43/43/43 32/32/32 31/31/31
f 43/43/43 44/44/44 32/32/32
f 45/45/45 34/34/34 33/33/33
f 45/45/45 46/46/46 34/34/34
f 47/47/47 36/36/36 35/35/35
f 47/47/47 48/48/48 36/36/36
f 49/49/49 38/38/38 37/37/37
f 49/49/49 50/50/50 38/38/38
f 51/51/51 40/40/40 39/39/39
f 51/51/51 52/52/52 40/40/40
f 53/53/53 42/42/42 41/41/41
f 53/53/53 54/54/54 42/42/42
f 55/55/55 44/44/44 43/43/43
f 55/55/55 56/56/56 44/44/44
f 57/57/57 46/46/46 45/45/45
f 57/57/57 58/58/58 46/46/46
f 59/59/59 48/48/48 47/47/47
f 59/59/59 60/60/60 48/48/48
f 61/61/61 50/50/50 49/49/49
f 61/61/61 62/62/62 50/50/50
f 63/63/63 52/52/52 51/51/51
f 63/63/63 64/64/64 52/52/52
f 65/65/65 54/54/54 53/53/53
f 65/65/65 66/66/66 54/54/54
f 67/67/67 56/56/56 55/55/55
f 67/67/67 68/68/68 56/56/56
f 69/69/69 58/58/58 57/57/57
f 69/69/69 70/70/70 58/58/58
f 71/71/71 60/60/60 59/59/59
f 71/71/71 72/72/72 60/60/60
f 73/73/73 62/62/62 61/61/61
f 73/73/73 74/74/74 62/62/62
f 75/75/75 64/64/64 63/63/63
f 75/75/75 76/76/76 64/64/64
f 77/77/77 66/66/66 65/65/65
f 77/77/77 78/78/78 66/66/66
f 79/79/79 68/68/68 67/67/67
f 79/79/79 80/80/80 68/68/68
f 81/81/81 70/70/70 69/69/69
f 81/81/81 82/82/82 70/70/70
f 83/83/83 72/72/72 71/71/71
f 83/83/83 84/84/84 72/72/72
f 85/85/85 74/74/74 73/73/73
f 85/85/85 86/86/86 74/74/74
f 87/87/87 76/76/76 75/75/75
f 87/87/87 88/88/88 76/76/76
f 89/89/89 78/78/78 77/77/77
f 89/89/89 90/90/90 78/78/78
f 91/91/91 80/80/80 79/79/79
f 91/91/91 92/92/92 80/80/80
f 93/93/93 82/82/82 81/81/81
f 93/93/93 94/94/94 82/82/82
f 95/95/95 84/84/84 83/83/83
f 95/95/95 96/96/96 84/84/84
f 97/97/97 86/86/86 85/85/85
f 97/97/97 98/98/98 86/86/86
f 99/99/99 88/88/88 87/87/87
f 99/99/99 100/100/100 88/88/88
f 101/101/101 90/90/90 89/89/89
f 101/101/101 102/102/102 90/90/90
f 103/103/103 92/92/92 91/91/91
f 103/103/103 104/104/104 92/92/92
f 105/105/105 94/94/94 93/93/93
f 105/105/105 106/106/106 94/94/94
f 107/107/107 96/96/96 95/95/95
f 107/107/107 108/108/108 96/96/96
f 109/109/109 98/98/98 97/97/97
f 109/109/109 110/110/110 98/98/98
f 111/111/111 100/100/100 99/99/99
f 111/111/111 112/112/112 100/100/100
f 113/113/113 102/102/102 101/101/101
f 113/113/113 114/114/114 102/102/102
f 115/115/115 104/104/104 103/103/103
f 115/115/115 116/116/116 104/104/104
f 117/117/117 106/106/106 105/105/105
f 117/117/117 118/118/118 106/106/106
f 119/119/119 108/108/108 107/107/107
f 119/119/119 120/120/120 108/108/108
f 121/121/121 110/110/110 109/109/109
f 121/121/121 122/122/122 110/110/110
f 123/123/123 112/112/112 111/111/111
f 123/123/123 124/124/124 112/112/112
f 125/125/125 114/114/114 113/113/113
f 125/125/125 126/126/126 114/114/114
f 127/127/127 116/116/116 115/115/115
f 127/127/127 128/128/128 116/116/116
f 129/129/129 118/118/118 117/117/117
f 129/129/129 130/130/130 118/118/118
f 131/131/131 120/120/120 119/119/119
f 131/131/131 132/132/132 120/120/120
f 133/133/133 122/122/122 121/121/121
f 133/133/133 134/134/134 122/122/122
f 135/135/135 124/124/124 123/123/123
f 135/135/135 136/136/136 124/124/124
f 137/137/137 126/126/126 125/125/125
f 137/137/137 138/138/138 126/126/126
f 139/139/139 128/128/128 127/127/127
f 139/139/139 140/140/140 128/128/128
f 141/141/141 130/130/130 129/129/129
f 141/141/141 142/142/142 130/130/130
f 143/143/143 132/132/132 131/131/131
f 143/143/143 144/144/144 132/132/132
f 145/145/145 134/134/134 133/133/133
f 145/145/145 146/146/146 134/134/134
f 147/147/147 136/136/136 135/135/135
f 147/147/147 148/148/148 136/136/136
f 149/149/149 138/138/138 137/137/137
f 149/149/149 150/150/150 138/138/138
f 151/151/151 140/140/140 139/139/139
f 151/151/151 152/152/152 140/140/140
f 153/153/153 142/142/142 141/141/141
f 153/153/153 154/154/154 142/142/142
f 155/155/155 144/144/144 143/143/143
f 155/155/155 156/156/156 144/144/144
f 157/157/157 146/146/146 145/145/145
f 157/157/157 158/158/158 146/146/146
f 159/159/159 148/148/148 147/147/147
f 159/159/159 160/160/160 148/148/148
f 161/161/161 150/150/150 149/149/149
f 161/161/161 162/162/162 150/150/150
f 163/163/163 152/152/152 151/151/151
f 163/163/163 164/164/164 152/152/152
f 165/165/165 154/154/154 153/153/153
f 165/165/165 166/166/166 154/154/154
f 167/167/167 156/156/156 155/155/155
f 167/167/167 168/168/168 156/156/156
f 169/169/169 158/158/158 157/157/157
f 169/169/169 170/170/170 158/158/158
f 171/171/171 160/160/160 159/159/159
f 171/171/171 172/172/172 160/160/160
f 173/173/173 162/162/162 161/161/161
f 173/173/173 174/174/174 162/162/162
f 175/175/175 164/164/164 163/163/163
f 175/175/175 176/176/176 164/164/164
f 177/177/177 166/166/166 165/165/165
f 177/177/177 178/178/178 166/166/166
f 179/179/179 168/168/168 167/167/167
f 179/179/179 180/180/180 168/168/168
f 181/181/181 170/170/170 169/169/169
f 181/181/181 182/182/182 170/170/170
f 183/183/183 172/172/172 171/171/171
f 183/183/183 184/184/184 172/172/172
f 185/185/185 174/174/174 173/173/173
f 185/185/185 186/186/186 174/174/174
f 187/187/187 176/176/176 175/175/175
f 187/187/187 188/188/188 176/176/176
f 189/189/189 178/178/178 177/177/177
f 189/189/189 190/190/190 178/178/178
f 191/191/191 180/180/180 179/179/179
f 191/191/191 192/192/192 180/180/180
f 193/193/193 182/182/182 181/181/181
f 193/193/193 194/194/194 182/182/182
f 195/195/195 184/184/184 183/183/183
f 195/195/195 196/196/196 184/184/184
f 197/197/197 186/186/186 185/185/185
f 197/197/197 198/198/198 186/186/186
f 199/199/199 188/188/188 187/187/187
f 199/199/199 200/200/200 188/188/188
f 201/201/201 190/190/190 189/189/189
f 201/201/201 202/202/202 190/190/190
f 203/203/203 192/192/192 191/191/191
f 203/203/203 204/204/204 192/192/192
f 205/205/205 194/194/194 193/193/193
f 205/205/205 206/206/206 194/194/194
f 207/207/207 196/196/196 195/195/195
f 207/207/207 208/208/208 196/196/196
f 209/209/209 198/198/198 197/197/197
f 209/209/209 210/210/210 198/198/198
f 211/211/211 200/200/200 199/199/199
f 211/211/211 212/212/212 200/200/200
f 213/213/213 202/202/202 201/201/201
f 213/213/213 214/214/214 202/202/202
f 215/215/215 204/204/204 203/203/203
f 215/215/215 216/216/216 204/204/204
f 217/217/217 206/206/206 205/205/205
f 217/217/217 218/218/218 206/206/206
f 219/219/219 208/208/208 207/207/207
f 219/219/219 220/220/220 208/208/208
f 221/221/221 210/210/210 209/209/209
f 221/221/221 222/222/222 210/210/210
f 223/223/223 212/212/212 211/211/211
f 223/223/223 224/224/224 212/212/212
f 225/225/225 214/214/214 213/213/213
f 225/225/225 226/226/226 214/214/214
f 227/227/227 216/216/216 215/215/215
f 227/227/227 228/228/228 216/216/216
f 229/229/229 218/218/218 217/217/217
f 229/229/229 230/230/230 218/218/218
f 231/231/231 220/220/220 219/219/219
f 231/231/231 232/232/232 220/220/220
f 233/233/233 222/222/222 221/221/221
f 233/233/233 234/234/234 222/222/222
f 235/235/235 224/224/224 223/223/223
f 235/235/235 236/236/236 224/224/224
f 237/237/237 226/226/226 225/225/225
f 237/237/237 238/238/238 226/226/226
f 239/239/239 228/228/228 227/227/227
f 239/239/239 240/240/240 228/228/228
f 241/241/241 230/230/230 229/229/229
f 241/241/241 242/242/242 230/230/230
f 243/243/243 232/232/232 231/231/231
f 243/243/243 244/244/244 232/232/232
f 245/245/245 234/234/234 233/233/233
f 245/245/245 246/246/246 234/234/234
f 247/247/247 236/236/236 235/235/235
f 247/247/247 248/248/248 236/236/236
f 249/249/249 238/238/238 237/237/237
f 249/249/249 250/250/250 238/238/238
f 251/251/251 240/240/240 239/239/239
f 251/251/251 252/252/252 240/240/240
f 253/253/253 242/242/242 241/241/241
f 253/253/253 254/254/254 242/242/242
f 255/255/255 244/244/244 243/243/243
f 255/255/255 256/256/256 244/244/244
f 257/257/257 246/246/246 245/245/245
f 257/257/257 258/258/258 246/246/246
f 259/259/259 248/248/248 247/247/247
f 259/259/259 260/260/260 248/248/248
f 261/261/261 250/250/250 249/249/249
f 261/261/261 262/262/262 250/250/250
f 263/263/263 252/252/252 251/251/251
f 263/263/263 264/264/264 252/252/252
f 265/265/265 254/254/254 253/253/253
f 265/265/265 266/266/266 254/254/254
f 267/267/267 256/256/256 255/255/255
f 267/267/267 268/268/268 256/256/256
f 269/269/269 258/258/258 257/257/257
f 269/269/269 270/270/270 258/258/258
f 271/271/271 260/260/260 259/259/259
f 271/271/271 272/272/272 260/260/260
f 273/273/273 262/262/262 261/261/261
f 273/273/273 274/274/274 262/262/262
f 275/275/275 264/264/264 263/263/263
f 275/275/275 276/276/276 264/264/264
