g tube
v -1.878672 0.8267197 -3.426146
v -1.877946 0.8254207 -3.425956
v -1.870026 0.8265069 -3.460483
v -1.86928 0.8252078 -3.460403
v -1.877946 0.8254207 -3.425956
v -1.876492 0.8254207 -3.425591
v -1.86928 0.8252078 -3.460403
v -1.867788 0.8252078 -3.460256
v -1.876492 0.8254207 -3.425591
v -1.875762 0.8267197 -3.425415
v -1.867788 0.8252078 -3.460256
v -1.867041 0.8265069 -3.460189
v -1.875762 0.8267197 -3.425415
v -1.876488 0.8280187 -3.425606
v -1.867041 0.8265069 -3.460189
v -1.867787 0.8278059 -3.460268
v -1.876488 0.8280187 -3.425606
v -1.877943 0.8280187 -3.425971
v -1.867787 0.8278059 -3.460268
v -1.869279 0.8278059 -3.460415
v -1.877943 0.8280187 -3.425971
v -1.878672 0.8267197 -3.426146
v -1.869279 0.8278059 -3.460415
v -1.870026 0.8265069 -3.460483
v -1.871165 0.8264301 -3.483309
v -1.87046 0.8251358 -3.483589
v -1.87046 0.8251358 -3.483589
v -1.869001 0.8251358 -3.483934
v -1.869001 0.8251358 -3.483934
v -1.868245 0.8264301 -3.483999
v -1.868245 0.8264301 -3.483999
v -1.86895 0.8277244 -3.483719
v -1.86895 0.8277244 -3.483719
v -1.870409 0.8277244 -3.483374
v -1.870409 0.8277244 -3.483374
v -1.871165 0.8264301 -3.483309
v -1.877958 0.8293976 -3.49861
v -1.877535 0.8281829 -3.499382
v -1.877535 0.8281829 -3.499382
v -1.876232 0.8281829 -3.500125
v -1.876232 0.8281829 -3.500125
v -1.875353 0.8293976 -3.500097
v -1.875353 0.8293976 -3.500097
v -1.875775 0.8306122 -3.499325
v -1.875775 0.8306122 -3.499325
v -1.877078 0.8306122 -3.498581
v -1.877078 0.8306122 -3.498581
v -1.877958 0.8293976 -3.49861
v -1.886559 0.8383173 -3.510226
v -1.88642 0.837364 -3.511375
v -1.88642 0.837364 -3.511375
v -1.885168 0.837364 -3.512202
v -1.885168 0.837364 -3.512202
v -1.884056 0.8383173 -3.511879
v -1.884056 0.8383173 -3.511879
v -1.884196 0.8392706 -3.510729
v -1.884196 0.8392706 -3.510729
v -1.885447 0.8392706 -3.509902
v -1.885447 0.8392706 -3.509902
v -1.886559 0.8383173 -3.510226
v -1.893014 0.8560973 -3.521905
v -1.892642 0.855417 -3.523189
v -1.892642 0.855417 -3.523189
v -1.891216 0.855417 -3.523653
v -1.891216 0.855417 -3.523653
v -1.890161 0.8560973 -3.522832
v -1.890161 0.8560973 -3.522832
v -1.890532 0.8567777 -3.521548
v -1.885447 0.8392706 -3.509902
v -1.885447 0.8392706 -3.509902
v -1.891959 0.8567777 -3.521084
v -1.890532 0.8567777 -3.521548
v -1.891959 0.8567777 -3.521084
v -1.893014 0.8560973 -3.521905
v -1.894161 0.8830065 -3.536747
v -1.893469 0.8822843 -3.537865
v -1.893469 0.8822843 -3.537865
v -1.891972 0.8822843 -3.537945
v -1.891972 0.8822843 -3.537945
v -1.891165 0.8830065 -3.536907
v -1.891165 0.8830065 -3.536907
v -1.891857 0.8837287 -3.535789
v -1.891857 0.8837287 -3.535789
v -1.893354 0.8837287 -3.535709
v -1.893354 0.8837287 -3.535709
v -1.894161 0.8830065 -3.536747
v -1.894845 0.905327 -3.554975
v -1.89414 0.9044118 -3.555931
v -1.89414 0.9044118 -3.555931
v -1.892641 0.9044118 -3.556002
v -1.892641 0.9044118 -3.556002
v -1.891848 0.905327 -3.555117
v -1.891848 0.905327 -3.555117
v -1.892554 0.9062423 -3.554161
v -1.892554 0.9062423 -3.554161
v -1.894052 0.9062423 -3.55409
v -1.894052 0.9062423 -3.55409
v -1.894845 0.905327 -3.554975
v -1.895914 0.9213025 -3.574197
v -1.895211 0.9202423 -3.574992
v -1.895211 0.9202423 -3.574992
v -1.893714 0.9202423 -3.575084
v -1.893714 0.9202423 -3.575084
v -1.89292 0.9213025 -3.57438
v -1.89292 0.9213025 -3.57438
v -1.893622 0.9223627 -3.573585
v -1.893622 0.9223627 -3.573585
v -1.895119 0.9223627 -3.573493
v -1.895119 0.9223627 -3.573493
v -1.895914 0.9213025 -3.574197
v -1.897061 0.931729 -3.591538
v -1.896354 0.9305779 -3.592191
v -1.896354 0.9305779 -3.592191
v -1.894858 0.9305779 -3.592295
v -1.894858 0.9305779 -3.592295
v -1.894068 0.931729 -3.591747
v -1.894068 0.931729 -3.591747
v -1.894774 0.9328802 -3.591094
v -1.894774 0.9328802 -3.591094
v -1.896271 0.9328802 -3.59099
v -1.896271 0.9328802 -3.59099
v -1.897061 0.931729 -3.591538
v -1.897975 0.9374015 -3.604079
v -1.897264 0.936196 -3.604618
v -1.897264 0.936196 -3.604618
v -1.895768 0.936196 -3.60473
v -1.895768 0.936196 -3.60473
v -1.894984 0.9374015 -3.604304
v -1.894984 0.9374015 -3.604304
v -1.895696 0.938607 -3.603765
v -1.895696 0.938607 -3.603765
v -1.897191 0.938607 -3.603653
v -1.897191 0.938607 -3.603653
v -1.897975 0.9374015 -3.604079
v -1.898354 0.9391213 -3.609016
v -1.89761 0.9378805 -3.609413
v -1.89761 0.9378805 -3.609413
v -1.89611 0.9378748 -3.609419
v -1.89611 0.9378748 -3.609419
v -1.895354 0.93911 -3.609028
v -1.895354 0.93911 -3.609028
v -1.896097 0.9403508 -3.608632
v -1.896097 0.9403508 -3.608632
v -1.897597 0.9403565 -3.608626
v -1.897597 0.9403565 -3.608626
v -1.898354 0.9391213 -3.609016
v -1.897273 0.9434467 -3.624444
v -1.896516 0.9421878 -3.624748
v -1.896516 0.9421878 -3.624748
v -1.895019 0.9421703 -3.624649
v -1.895019 0.9421703 -3.624649
v -1.894279 0.9434116 -3.624246
v -1.894279 0.9434116 -3.624246
v -1.895037 0.9446705 -3.623942
v -1.895037 0.9446705 -3.623942
v -1.896533 0.944688 -3.624042
v -1.896533 0.944688 -3.624042
v -1.897273 0.9434467 -3.624444
v -1.894635 0.9543931 -3.662886
v -1.893889 0.9531299 -3.663198
v -1.893889 0.9531299 -3.663198
v -1.892392 0.9531009 -3.663106
v -1.892392 0.9531009 -3.663106
v -1.891641 0.954335 -3.662701
v -1.891641 0.954335 -3.662701
v -1.892388 0.9555982 -3.662389
v -1.892388 0.9555982 -3.662389
v -1.893884 0.9556273 -3.662482
v -1.893884 0.9556273 -3.662482
v -1.894635 0.9543931 -3.662886
v -1.891328 0.9689514 -3.713172
v -1.890594 0.9676849 -3.713497
v -1.890594 0.9676849 -3.713497
v -1.889096 0.9676443 -3.713414
v -1.889096 0.9676443 -3.713414
v -1.888334 0.9688701 -3.713006
v -1.888334 0.9688701 -3.713006
v -1.889069 0.9701366 -3.712681
v -1.889069 0.9701366 -3.712681
v -1.890566 0.9701772 -3.712764
v -1.890566 0.9701772 -3.712764
v -1.891328 0.9689514 -3.713172
v -1.888245 0.9841124 -3.764019
v -1.887522 0.9828455 -3.76437
v -1.887522 0.9828455 -3.76437
v -1.886025 0.9827934 -3.764303
v -1.886025 0.9827934 -3.764303
v -1.88525 0.9840084 -3.763887
v -1.88525 0.9840084 -3.763887
v -1.885972 0.9852753 -3.763537
v -1.885972 0.9852753 -3.763537
v -1.88747 0.9853274 -3.763603
v -1.88747 0.9853274 -3.763603
v -1.888245 0.9841124 -3.764019
v -1.886277 0.9968547 -3.80415
v -1.885557 0.9955993 -3.804545
v -1.885557 0.9955993 -3.804545
v -1.884059 0.9955485 -3.804502
v -1.884059 0.9955485 -3.804502
v -1.88328 0.9967532 -3.804064
v -1.88328 0.9967532 -3.804064
v -1.883999 0.9980085 -3.803669
v -1.883999 0.9980085 -3.803669
v -1.885498 0.9980593 -3.803711
v -1.885498 0.9980593 -3.803711
v -1.886277 0.9968547 -3.80415
v -1.885594 1.004825 -3.826505
v -1.884842 1.003566 -3.82682
v -1.884842 1.003566 -3.82682
v -1.883346 1.003539 -3.826712
v -1.883346 1.003539 -3.826712
v -1.882602 1.004771 -3.826289
v -1.882602 1.004771 -3.826289
v -1.883354 1.00603 -3.825975
v -1.883354 1.00603 -3.825975
v -1.884849 1.006057 -3.826083
v -1.884849 1.006057 -3.826083
v -1.885594 1.004825 -3.826505
v -1.882898 1.009909 -3.848352
v -1.882124 1.008627 -3.848443
v -1.882124 1.008627 -3.848443
v -1.880641 1.00863 -3.84822
v -1.880641 1.00863 -3.84822
v -1.879932 1.009914 -3.847905
v -1.879932 1.009914 -3.847905
v -1.880706 1.011195 -3.847814
v -1.880706 1.011195 -3.847814
v -1.882189 1.011193 -3.848037
v -1.882189 1.011193 -3.848037
v -1.882898 1.009909 -3.848352
v -1.878688 1.012015 -3.87217
v -1.877919 1.010733 -3.872051
v -1.877919 1.010733 -3.872051
v -1.876443 1.010766 -3.871785
v -1.876443 1.010766 -3.871785
v -1.875737 1.012081 -3.871639
v -1.875737 1.012081 -3.871639
v -1.876506 1.013363 -3.871759
v -1.876506 1.013363 -3.871759
v -1.877982 1.01333 -3.872024
v -1.877982 1.01333 -3.872024
v -1.878688 1.012015 -3.87217
v -1.874187 1.010476 -3.896866
v -1.873417 1.009227 -3.896555
v -1.873417 1.009227 -3.896555
v -1.871937 1.009297 -3.896322
v -1.871937 1.009297 -3.896322
v -1.871227 1.010616 -3.8964
v -1.871227 1.010616 -3.8964
v -1.871997 1.011865 -3.896711
v -1.871997 1.011865 -3.896711
v -1.873477 1.011795 -3.896944
v -1.873477 1.011795 -3.896944
v -1.874187 1.010476 -3.896866
v -1.870603 1.004621 -3.921334
v -1.869793 1.003457 -3.920846
v -1.869793 1.003457 -3.920846
v -1.868302 1.003577 -3.92073
v -1.868302 1.003577 -3.92073
v -1.867622 1.004861 -3.921101
v -1.867622 1.004861 -3.921101
v -1.868432 1.006025 -3.921589
v -1.868432 1.006025 -3.921589
v -1.869923 1.005905 -3.921705
v -1.869923 1.005905 -3.921705
v -1.870603 1.004621 -3.921334
v -1.869136 0.9938192 -3.944587
v -1.86828 0.9927226 -3.944027
v -1.86828 0.9927226 -3.944027
v -1.866788 0.9928744 -3.944003
v -1.866788 0.9928744 -3.944003
v -1.866152 0.994123 -3.944539
v -1.866152 0.994123 -3.944539
v -1.867009 0.9952196 -3.945099
v -1.867009 0.9952196 -3.945099
v -1.868501 0.9950678 -3.945123
v -1.868501 0.9950678 -3.945123
v -1.869136 0.9938192 -3.944587

vn -0.9698566 0 -0.2436762
vn -0.4862061 -0.866 -0.116823
vn -0.9951956 0 -0.09790633
vn -0.4979836 -0.8660273 -0.04482329
vn -0.4862061 -0.866 -0.116823
vn 0.4836695 -0.8660115 0.1268381
vn -0.4979836 -0.8660273 -0.04482329
vn 0.4971884 -0.8660266 0.05292959
vn 0.4836695 -0.8660115 0.1268381
vn 0.9698566 0 0.2436762
vn 0.4971884 -0.8660266 0.05292959
vn 0.9951956 0 0.09790633
vn 0.9698566 0 0.2436762
vn 0.4862061 0.866 0.116823
vn 0.9951956 0 0.09790633
vn 0.4979836 0.8660273 0.04482329
vn 0.4862061 0.866 0.116823
vn -0.4836695 0.8660115 -0.1268381
vn 0.4979836 0.8660273 0.04482329
vn -0.4971884 0.8660266 -0.05292959
vn -0.4836695 0.8660115 -0.1268381
vn -0.9698566 0 -0.2436762
vn -0.4971884 0.8660266 -0.05292959
vn -0.9951956 0 -0.09790633
vn -0.9731894 0 0.2300049
vn -0.5035456 -0.8628862 0.04323372
vn -0.5035456 -0.8628862 0.04323372
vn 0.4695995 -0.8628662 -0.1869179
vn 0.4695995 -0.8628662 -0.1869179
vn 0.9731894 0 -0.2300049
vn 0.9731894 0 -0.2300049
vn 0.5035456 0.8628862 -0.04323372
vn 0.5035456 0.8628862 -0.04323372
vn -0.4695995 0.8628662 0.1869179
vn -0.4695995 0.8628662 0.1869179
vn -0.9731894 0 0.2300049
vn -0.8683801 0 0.4958993
vn -0.5864983 -0.8097333 -0.01875523
vn -0.5864983 -0.8097333 -0.01875523
vn 0.2818851 -0.809734 -0.5146568
vn 0.2818851 -0.809734 -0.5146568
vn 0.8683801 0 -0.4958993
vn 0.8683801 0 -0.4958993
vn 0.5864983 0.8097333 0.01875523
vn 0.5864983 0.8097333 0.01875523
vn -0.2818851 0.809734 0.5146568
vn -0.2818851 0.809734 0.5146568
vn -0.8683801 0 0.4958993
vn -0.8344633 0 0.5510637
vn -0.7414101 -0.6355511 -0.2153737
vn -0.7414101 -0.6355511 -0.2153737
vn 0.09306263 -0.6355439 -0.7664356
vn 0.09306263 -0.6355439 -0.7664356
vn 0.8344633 0 -0.5510637
vn 0.8344633 0 -0.5510637
vn 0.7414101 0.6355511 0.2153737
vn 0.7414101 0.6355511 0.2153737
vn -0.09306263 0.6355439 0.7664356
vn -0.09306263 0.6355439 0.7664356
vn -0.8344633 0 0.5510637
vn -0.9511181 0 0.3088273
vn -0.7034075 -0.4535869 -0.5472448
vn -0.7034075 -0.4535869 -0.5472448
vn 0.2476442 -0.4536038 -0.8561051
vn 0.2476442 -0.4536038 -0.8561051
vn 0.9511181 0 -0.3088273
vn 0.9511181 0 -0.3088273
vn 0.7034075 0.4535869 0.5472448
vn -0.09306263 0.6355439 0.7664356
vn -0.09306263 0.6355439 0.7664356
vn -0.2476442 0.4536038 0.8561051
vn 0.7034075 0.4535869 0.5472448
vn -0.2476442 0.4536038 0.8561051
vn -0.9511181 0 0.3088273
vn -0.9985813 0 0.05324708
vn -0.5376356 -0.4814481 -0.6922107
vn -0.5376356 -0.4814481 -0.6922107
vn 0.4609512 -0.4814556 -0.7454693
vn 0.4609512 -0.4814556 -0.7454693
vn 0.9985813 0 -0.05324708
vn 0.9985813 0 -0.05324708
vn 0.5376356 0.4814481 0.6922107
vn 0.5376356 0.4814481 0.6922107
vn -0.4609512 0.4814556 0.7454693
vn -0.4609512 0.4814556 0.7454693
vn -0.9985813 0 0.05324708
vn -0.9988776 0 0.04736503
vn -0.5285813 -0.6101614 -0.5901737
vn -0.5285813 -0.6101614 -0.5901737
vn 0.4703359 -0.610173 -0.6375524
vn 0.4703359 -0.610173 -0.6375524
vn 0.9988776 0 -0.04736503
vn 0.9988776 0 -0.04736503
vn 0.5285813 0.6101614 0.5901737
vn 0.5285813 0.6101614 0.5901737
vn -0.4703359 0.610173 0.6375524
vn -0.4703359 0.610173 0.6375524
vn -0.9988776 0 0.04736503
vn -0.9981355 0 0.06103735
vn -0.5295951 -0.7067758 -0.4690382
vn -0.5295951 -0.7067758 -0.4690382
vn 0.4684857 -0.7067816 -0.5300763
vn 0.4684857 -0.7067816 -0.5300763
vn 0.9981355 0 -0.06103735
vn 0.9981355 0 -0.06103735
vn 0.5295951 0.7067758 0.4690382
vn 0.5295951 0.7067758 0.4690382
vn -0.4684857 0.7067816 0.5300763
vn -0.4684857 0.7067816 0.5300763
vn -0.9981355 0 0.06103735
vn -0.997585 0 0.06945665
vn -0.5266742 -0.7674407 -0.3655804
vn -0.5266742 -0.7674407 -0.3655804
vn 0.4708936 -0.7674572 -0.4350501
vn 0.4708936 -0.7674572 -0.4350501
vn 0.997585 0 -0.06945665
vn 0.997585 0 -0.06945665
vn 0.5266742 0.7674407 0.3655804
vn 0.5266742 0.7674407 0.3655804
vn -0.4708936 0.7674572 0.4350501
vn -0.4708936 0.7674572 0.4350501
vn -0.997585 0 0.06945665
vn -0.9971817 0 0.07502507
vn -0.5227876 -0.8036926 -0.2842032
vn -0.5227876 -0.8036926 -0.2842032
vn 0.474385 -0.8036888 -0.359226
vn 0.474385 -0.8036888 -0.359226
vn 0.9971817 0 -0.07502507
vn 0.9971817 0 -0.07502507
vn 0.5227876 0.8036926 0.2842032
vn 0.5227876 0.8036926 0.2842032
vn -0.474385 0.8036888 0.359226
vn -0.474385 0.8036888 0.359226
vn -0.9971817 0 0.07502507
vn -0.999985 0.003774878 0.003973556
vn -0.5041607 -0.8234333 -0.2603453
vn -0.5041607 -0.8234333 -0.2603453
vn 0.4958442 -0.8272547 -0.2641747
vn 0.4958442 -0.8272547 -0.2641747
vn 0.999985 -0.003774878 -0.003973556
vn 0.999985 -0.003774878 -0.003973556
vn 0.5041607 0.8234333 0.2603453
vn 0.5041607 0.8234333 0.2603453
vn -0.4958442 0.8272547 0.2641747
vn -0.4958442 0.8272547 0.2641747
vn -0.999985 0.003774878 0.003973556
vn -0.9977539 0.01168218 -0.06596063
vn -0.4930474 -0.8275472 -0.2684581
vn -0.4930474 -0.8275472 -0.2684581
vn 0.5047302 -0.8392301 -0.2023371
vn 0.5047302 -0.8392301 -0.2023371
vn 0.9977539 -0.01168218 0.06596063
vn 0.9977539 -0.01168218 0.06596063
vn 0.4930474 0.8275472 0.2684581
vn 0.4930474 0.8275472 0.2684581
vn -0.5047302 0.8392301 0.2023371
vn -0.5047302 0.8392301 0.2023371
vn -0.9977539 0.01168218 -0.06596063
vn -0.9979181 0.01939094 -0.0615106
vn -0.5004367 -0.8227364 -0.2695698
vn -0.5004367 -0.8227364 -0.2695698
vn 0.4975038 -0.8421404 -0.2080615
vn 0.4975038 -0.8421404 -0.2080615
vn 0.9979181 -0.01939094 0.0615106
vn 0.9979181 -0.01939094 0.0615106
vn 0.5004367 0.8227364 0.2695698
vn 0.5004367 0.8227364 0.2695698
vn -0.4975038 0.8421404 0.2080615
vn -0.4975038 0.8421404 0.2080615
vn -0.9979181 0.01939094 -0.0615106
vn -0.9981099 0.02710052 -0.05515473
vn -0.5081435 -0.8172098 -0.2719529
vn -0.5081435 -0.8172098 -0.2719529
vn 0.4900278 -0.8443164 -0.2168011
vn 0.4900278 -0.8443164 -0.2168011
vn 0.9981099 -0.02710052 0.05515473
vn 0.9981099 -0.02710052 0.05515473
vn 0.5081435 0.8172098 0.2719529
vn 0.5081435 0.8172098 0.2719529
vn -0.4900278 0.8443164 0.2168011
vn -0.4900278 0.8443164 0.2168011
vn -0.9981099 0.02710052 -0.05515473
vn -0.9984278 0.03469026 -0.04402842
vn -0.5166627 -0.8099628 -0.2775244
vn -0.5166627 -0.8099628 -0.2775244
vn 0.4817595 -0.8446685 -0.2333299
vn 0.4817595 -0.8446685 -0.2333299
vn 0.9984278 -0.03469026 0.04402842
vn 0.9984278 -0.03469026 0.04402842
vn 0.5166627 0.8099628 0.2775244
vn 0.5166627 0.8099628 0.2775244
vn -0.4817595 0.8446685 0.2333299
vn -0.4817595 0.8446685 0.2333299
vn -0.9984278 0.03469026 -0.04402842
vn -0.9990231 0.03381468 -0.02845042
vn -0.5193784 -0.8031092 -0.2919963
vn -0.5193784 -0.8031092 -0.2919963
vn 0.4796147 -0.8369218 -0.2636887
vn 0.4796147 -0.8369218 -0.2636887
vn 0.9990231 -0.03381468 0.02845042
vn 0.9990231 -0.03381468 0.02845042
vn 0.5193784 0.8031092 0.2919963
vn 0.5193784 0.8031092 0.2919963
vn -0.4796147 0.8369218 0.2636887
vn -0.4796147 0.8369218 0.2636887
vn -0.9990231 0.03381468 -0.02845042
vn -0.9972369 0.01827897 -0.07200324
vn -0.4960941 -0.8213131 -0.2816657
vn -0.4960941 -0.8213131 -0.2816657
vn 0.5011668 -0.8395695 -0.209654
vn 0.5011668 -0.8395695 -0.209654
vn 0.9972369 -0.01827897 0.07200324
vn 0.9972369 -0.01827897 0.07200324
vn 0.4960941 0.8213131 0.2816657
vn 0.4960941 0.8213131 0.2816657
vn -0.5011668 0.8395695 0.209654
vn -0.5011668 0.8395695 0.209654
vn -0.9972369 0.01827897 -0.07200324
vn -0.9888468 -0.001589403 -0.148927
vn -0.4726874 -0.8558915 -0.2098007
vn -0.4726874 -0.8558915 -0.2098007
vn 0.5161687 -0.8543208 -0.06087532
vn 0.5161687 -0.8543208 -0.06087532
vn 0.9888468 0.001589403 0.148927
vn 0.9888468 0.001589403 0.148927
vn 0.4726874 0.8558915 0.2098007
vn 0.4726874 0.8558915 0.2098007
vn -0.5161687 0.8543208 0.06087532
vn -0.5161687 0.8543208 0.06087532
vn -0.9888468 -0.001589403 -0.148927
vn -0.9839823 -0.02193515 -0.1769118
vn -0.471126 -0.8766854 -0.09727704
vn -0.471126 -0.8766854 -0.09727704
vn 0.5128269 -0.854791 0.07963002
vn 0.5128269 -0.854791 0.07963002
vn 0.9839823 0.02193515 0.1769118
vn 0.9839823 0.02193515 0.1769118
vn 0.471126 0.8766854 0.09727704
vn 0.471126 0.8766854 0.09727704
vn -0.5128269 0.854791 -0.07963002
vn -0.5128269 0.854791 -0.07963002
vn -0.9839823 -0.02193515 -0.1769118
vn -0.9867696 -0.04657273 -0.1552954
vn -0.4733311 -0.87935 0.05197423
vn -0.4733311 -0.87935 0.05197423
vn 0.5134075 -0.8327375 0.2072704
vn 0.5134075 -0.8327375 0.2072704
vn 0.9867696 0.04657273 0.1552954
vn 0.9867696 0.04657273 0.1552954
vn 0.4733311 0.87935 -0.05197423
vn 0.4733311 0.87935 -0.05197423
vn -0.5134075 0.8327375 -0.2072704
vn -0.5134075 0.8327375 -0.2072704
vn -0.9867696 -0.04657273 -0.1552954
vn -0.9937642 -0.0801051 -0.07756209
vn -0.4534782 -0.8561726 0.2476408
vn -0.4534782 -0.8561726 0.2476408
vn 0.5403421 -0.7760612 0.3252066
vn 0.5403421 -0.7760612 0.3252066
vn 0.9937642 0.0801051 0.07756209
vn 0.9937642 0.0801051 0.07756209
vn 0.4534782 0.8561726 -0.2476408
vn 0.4534782 0.8561726 -0.2476408
vn -0.5403421 0.7760612 -0.3252066
vn -0.5403421 0.7760612 -0.3252066
vn -0.9937642 -0.0801051 -0.07756209
vn -0.9947345 -0.1012456 -0.01589414
vn -0.4236071 -0.832392 0.3573242
vn -0.4236071 -0.832392 0.3573242
vn 0.5711061 -0.7311288 0.3732138
vn 0.5711061 -0.7311288 0.3732138
vn 0.9947345 0.1012456 0.01589414
vn 0.9947345 0.1012456 0.01589414
vn 0.4236071 0.832392 -0.3573242
vn 0.4236071 0.832392 -0.3573242
vn -0.5711061 0.7311288 -0.3732138
vn -0.5711061 0.7311288 -0.3732138
vn -0.9947345 -0.1012456 -0.01589414

vt 1 0
vt 0.8333333 0
vt 1 0.04545455
vt 0.8333333 0.04545455
vt 0.8333333 0
vt 0.6666666 0
vt 0.8333333 0.04545455
vt 0.6666666 0.04545455
vt 0.6666666 0
vt 0.5 0
vt 0.6666666 0.04545455
vt 0.5 0.04545455
vt 0.5 0
vt 0.3333333 0
vt 0.5 0.04545455
vt 0.3333333 0.04545455
vt 0.3333333 0
vt 0.1666667 0
vt 0.3333333 0.04545455
vt 0.1666667 0.04545455
vt 0.1666667 0
vt 0 0
vt 0.1666667 0.04545455
vt 0 0.04545455
vt 1 0.09090909
vt 0.8333333 0.09090909
vt 0.8333333 0.09090909
vt 0.6666666 0.09090909
vt 0.6666666 0.09090909
vt 0.5 0.09090909
vt 0.5 0.09090909
vt 0.3333333 0.09090909
vt 0.3333333 0.09090909
vt 0.1666667 0.09090909
vt 0.1666667 0.09090909
vt 0 0.09090909
vt 1 0.1363636
vt 0.8333333 0.1363636
vt 0.8333333 0.1363636
vt 0.6666666 0.1363636
vt 0.6666666 0.1363636
vt 0.5 0.1363636
vt 0.5 0.1363636
vt 0.3333333 0.1363636
vt 0.3333333 0.1363636
vt 0.1666667 0.1363636
vt 0.1666667 0.1363636
vt 0 0.1363636
vt 1 0.1818182
vt 0.8333333 0.1818182
vt 0.8333333 0.1818182
vt 0.6666666 0.1818182
vt 0.6666666 0.1818182
vt 0.5 0.1818182
vt 0.5 0.1818182
vt 0.3333333 0.1818182
vt 0.3333333 0.1818182
vt 0.1666667 0.1818182
vt 0.1666667 0.1818182
vt 0 0.1818182
vt 1 0.2272727
vt 0.8333333 0.2272727
vt 0.8333333 0.2272727
vt 0.6666666 0.2272727
vt 0.6666666 0.2272727
vt 0.5 0.2272727
vt 0.5 0.2272727
vt 0.3333333 0.2272727
vt 0.1666667 0.1818182
vt 0.1666667 0.1818182
vt 0.1666667 0.2272727
vt 0.3333333 0.2272727
vt 0.1666667 0.2272727
vt 0 0.2272727
vt 1 0.2727273
vt 0.8333333 0.2727273
vt 0.8333333 0.2727273
vt 0.6666666 0.2727273
vt 0.6666666 0.2727273
vt 0.5 0.2727273
vt 0.5 0.2727273
vt 0.3333333 0.2727273
vt 0.3333333 0.2727273
vt 0.1666667 0.2727273
vt 0.1666667 0.2727273
vt 0 0.2727273
vt 1 0.3181818
vt 0.8333333 0.3181818
vt 0.8333333 0.3181818
vt 0.6666666 0.3181818
vt 0.6666666 0.3181818
vt 0.5 0.3181818
vt 0.5 0.3181818
vt 0.3333333 0.3181818
vt 0.3333333 0.3181818
vt 0.1666667 0.3181818
vt 0.1666667 0.3181818
vt 0 0.3181818
vt 1 0.3636364
vt 0.8333333 0.3636364
vt 0.8333333 0.3636364
vt 0.6666666 0.3636364
vt 0.6666666 0.3636364
vt 0.5 0.3636364
vt 0.5 0.3636364
vt 0.3333333 0.3636364
vt 0.3333333 0.3636364
vt 0.1666667 0.3636364
vt 0.1666667 0.3636364
vt 0 0.3636364
vt 1 0.4090909
vt 0.8333333 0.4090909
vt 0.8333333 0.4090909
vt 0.6666666 0.4090909
vt 0.6666666 0.4090909
vt 0.5 0.4090909
vt 0.5 0.4090909
vt 0.3333333 0.4090909
vt 0.3333333 0.4090909
vt 0.1666667 0.4090909
vt 0.1666667 0.4090909
vt 0 0.4090909
vt 1 0.4545455
vt 0.8333333 0.4545455
vt 0.8333333 0.4545455
vt 0.6666666 0.4545455
vt 0.6666666 0.4545455
vt 0.5 0.4545455
vt 0.5 0.4545455
vt 0.3333333 0.4545455
vt 0.3333333 0.4545455
vt 0.1666667 0.4545455
vt 0.1666667 0.4545455
vt 0 0.4545455
vt 1 0.5
vt 0.8333333 0.5
vt 0.8333333 0.5
vt 0.6666666 0.5
vt 0.6666666 0.5
vt 0.5 0.5
vt 0.5 0.5
vt 0.3333333 0.5
vt 0.3333333 0.5
vt 0.1666667 0.5
vt 0.1666667 0.5
vt 0 0.5
vt 1 0.5454546
vt 0.8333333 0.5454546
vt 0.8333333 0.5454546
vt 0.6666666 0.5454546
vt 0.6666666 0.5454546
vt 0.5 0.5454546
vt 0.5 0.5454546
vt 0.3333333 0.5454546
vt 0.3333333 0.5454546
vt 0.1666667 0.5454546
vt 0.1666667 0.5454546
vt 0 0.5454546
vt 1 0.5909091
vt 0.8333333 0.5909091
vt 0.8333333 0.5909091
vt 0.6666666 0.5909091
vt 0.6666666 0.5909091
vt 0.5 0.5909091
vt 0.5 0.5909091
vt 0.3333333 0.5909091
vt 0.3333333 0.5909091
vt 0.1666667 0.5909091
vt 0.1666667 0.5909091
vt 0 0.5909091
vt 1 0.6363636
vt 0.8333333 0.6363636
vt 0.8333333 0.6363636
vt 0.6666666 0.6363636
vt 0.6666666 0.6363636
vt 0.5 0.6363636
vt 0.5 0.6363636
vt 0.3333333 0.6363636
vt 0.3333333 0.6363636
vt 0.1666667 0.6363636
vt 0.1666667 0.6363636
vt 0 0.6363636
vt 1 0.6818182
vt 0.8333333 0.6818182
vt 0.8333333 0.6818182
vt 0.6666666 0.6818182
vt 0.6666666 0.6818182
vt 0.5 0.6818182
vt 0.5 0.6818182
vt 0.3333333 0.6818182
vt 0.3333333 0.6818182
vt 0.1666667 0.6818182
vt 0.1666667 0.6818182
vt 0 0.6818182
vt 1 0.7272727
vt 0.8333333 0.7272727
vt 0.8333333 0.7272727
vt 0.6666666 0.7272727
vt 0.6666666 0.7272727
vt 0.5 0.7272727
vt 0.5 0.7272727
vt 0.3333333 0.7272727
vt 0.3333333 0.7272727
vt 0.1666667 0.7272727
vt 0.1666667 0.7272727
vt 0 0.7272727
vt 1 0.7727273
vt 0.8333333 0.7727273
vt 0.8333333 0.7727273
vt 0.6666666 0.7727273
vt 0.6666666 0.7727273
vt 0.5 0.7727273
vt 0.5 0.7727273
vt 0.3333333 0.7727273
vt 0.3333333 0.7727273
vt 0.1666667 0.7727273
vt 0.1666667 0.7727273
vt 0 0.7727273
vt 1 0.8181818
vt 0.8333333 0.8181818
vt 0.8333333 0.8181818
vt 0.6666666 0.8181818
vt 0.6666666 0.8181818
vt 0.5 0.8181818
vt 0.5 0.8181818
vt 0.3333333 0.8181818
vt 0.3333333 0.8181818
vt 0.1666667 0.8181818
vt 0.1666667 0.8181818
vt 0 0.8181818
vt 1 0.8636364
vt 0.8333333 0.8636364
vt 0.8333333 0.8636364
vt 0.6666666 0.8636364
vt 0.6666666 0.8636364
vt 0.5 0.8636364
vt 0.5 0.8636364
vt 0.3333333 0.8636364
vt 0.3333333 0.8636364
vt 0.1666667 0.8636364
vt 0.1666667 0.8636364
vt 0 0.8636364
vt 1 0.9090909
vt 0.8333333 0.9090909
vt 0.8333333 0.9090909
vt 0.6666666 0.9090909
vt 0.6666666 0.9090909
vt 0.5 0.9090909
vt 0.5 0.9090909
vt 0.3333333 0.9090909
vt 0.3333333 0.9090909
vt 0.1666667 0.9090909
vt 0.1666667 0.9090909
vt 0 0.9090909
vt 1 0.9545454
vt 0.8333333 0.9545454
vt 0.8333333 0.9545454
vt 0.6666666 0.9545454
vt 0.6666666 0.9545454
vt 0.5 0.9545454
vt 0.5 0.9545454
vt 0.3333333 0.9545454
vt 0.3333333 0.9545454
vt 0.1666667 0.9545454
vt 0.1666667 0.9545454
vt 0 0.9545454
vt 1 1
vt 0.8333333 1
vt 0.8333333 1
vt 0.6666666 1
vt 0.6666666 1
vt 0.5 1
vt 0.5 1
vt 0.3333333 1
vt 0.3333333 1
vt 0.1666667 1
vt 0.1666667 1
vt 0 1

vt2 0.005231597 0.3918886
vt2 0.00390625 0.3896956
vt2 0.05699148 0.3605872
vt2 0.05583389 0.358301
vt2 0.005071769 0.04099946
vt2 0.00390625 0.03871734
vt2 0.05910344 0.01338198
vt2 0.05828777 0.01095296
vt2 0.9768764 0.07484257
vt2 0.9766684 0.07739653
vt2 0.9160194 0.06988218
vt2 0.9156267 0.07241444
vt2 0.9480149 0.2709534
vt2 0.9466872 0.273145
vt2 0.8956255 0.2392317
vt2 0.8944655 0.2415167
vt2 0.1542115 0.5188715
vt2 0.1533403 0.5212814
vt2 0.09679133 0.4981261
vt2 0.0962856 0.500638
vt2 0.004107093 0.1609185
vt2 0.00390625 0.158364
vt2 0.06459525 0.1561684
vt2 0.06420953 0.153635
vt2 0.09304696 0.3456082
vt2 0.09247043 0.3431115
vt2 0.09815659 0.006468627
vt2 0.09817244 0.00390625
vt2 0.8765559 0.06076793
vt2 0.8759428 0.0632559
vt2 0.8580242 0.2235845
vt2 0.857445 0.2260806
vt2 0.05673416 0.4960735
vt2 0.05707007 0.4986138
vt2 0.1028853 0.1474592
vt2 0.102279 0.1449695
vt2 0.1220454 0.3439843
vt2 0.1224408 0.3414525
vt2 0.12762 0.0122025
vt2 0.1283491 0.009745911
vt2 0.8468454 0.0528928
vt2 0.8464788 0.05542894
vt2 0.8276031 0.2215966
vt2 0.8279957 0.2241289
vt2 0.02861778 0.5050479
vt2 0.02964847 0.507394
vt2 0.1307735 0.1402975
vt2 0.1304141 0.1377603
vt2 0.1490692 0.3545478
vt2 0.1503345 0.3523194
vt2 0.1553128 0.02357225
vt2 0.1561762 0.02115963
vt2 0.8167837 0.05194231
vt2 0.8171976 0.05447109
vt2 0.8002468 0.2320819
vt2 0.8015096 0.2343116
vt2 0.00390625 0.5189958
vt2 0.005064711 0.5212814
vt2 0.1589989 0.1395597
vt2 0.15942 0.1370321
vt2 0.1793144 0.3775142
vt2 0.1808975 0.3754993
vt2 0.1921252 0.03435544
vt2 0.1925973 0.03183701
vt2 0.7813607 0.06556928
vt2 0.7825229 0.0678532
vt2 0.7712449 0.2553262
vt2 0.772826 0.2573426
vt2 0.8031756 0.2362585
vt2 0.8505875 0.4607483
vt2 0.8154281 0.4728676
vt2 0.8149046 0.4703594
vt2 0.1940003 0.152128
vt2 0.195169 0.1498473
vt2 0.2208505 0.4096794
vt2 0.2222578 0.407538
vt2 0.2443402 0.0376321
vt2 0.2445002 0.03507467
vt2 0.738351 0.09480239
vt2 0.7395999 0.09703987
vt2 0.7308281 0.287895
vt2 0.7322336 0.2900375
vt2 0.7630576 0.4757033
vt2 0.7632699 0.4782569
vt2 0.2378822 0.1808325
vt2 0.2391374 0.1785986
vt2 0.2642143 0.4330133
vt2 0.2652429 0.4306664
vt2 0.2930858 0.04018207
vt2 0.2932364 0.037624
vt2 0.6940278 0.1152265
vt2 0.6948932 0.1176384
vt2 0.6874708 0.3112006
vt2 0.6884975 0.3135483
vt2 0.713536 0.4793363
vt2 0.7137387 0.4818908
vt2 0.2829397 0.2017222
vt2 0.283812 0.1993129
vt2 0.3046045 0.4469779
vt2 0.305285 0.4445074
vt2 0.3353619 0.0429563
vt2 0.3355394 0.04040009
vt2 0.6530262 0.1260017
vt2 0.6535093 0.1285182
vt2 0.6470051 0.3251118
vt2 0.6476834 0.3275829
vt2 0.6705323 0.4830016
vt2 0.670762 0.4855536
vt2 0.3246126 0.2128487
vt2 0.3251027 0.2103335
vt2 0.3384992 0.4540356
vt2 0.3388974 0.4515043
vt2 0.3696014 0.04548999
vt2 0.3697974 0.04293515
vt2 0.6189268 0.1301568
vt2 0.6191052 0.1327131
vt2 0.6130642 0.3321294
vt2 0.6134603 0.3346611
vt2 0.6357383 0.4862718
vt2 0.6359864 0.4888221
vt2 0.35927 0.2171953
vt2 0.3594555 0.2146395
vt2 0.3619287 0.45656
vt2 0.3621129 0.4540043
vt2 0.3928767 0.04735124
vt2 0.3930857 0.04479743
vt2 0.5955678 0.130564
vt2 0.5955178 0.1331259
vt2 0.5896057 0.3346269
vt2 0.5897878 0.3371828
vt2 0.6120501 0.4886431
vt2 0.6123112 0.4911922
vt2 0.3830584 0.2176904
vt2 0.3830156 0.2151283
vt2 0.3708792 0.456842
vt2 0.3708108 0.4542804
vt2 0.4015519 0.04803606
vt2 0.4015857 0.04547378
vt2 0.5870525 0.1301211
vt2 0.5869243 0.1326803
vt2 0.581008 0.3349847
vt2 0.5809374 0.3375463
vt2 0.6032448 0.4896062
vt2 0.603331 0.4921672
vt2 0.3920763 0.2171642
vt2 0.3919553 0.2146046
vt2 0.3981986 0.4543424
vt2 0.3979714 0.4517899
vt2 0.4287803 0.04645373
vt2 0.4286361 0.04389525
vt2 0.5599803 0.1289775
vt2 0.5598711 0.1315375
vt2 0.5540413 0.3325385
vt2 0.5538119 0.3350907
vt2 0.5760258 0.4886363
vt2 0.5759339 0.4911972
vt2 0.4194672 0.2160278
vt2 0.4193653 0.2134674
vt2 0.466369 0.4483965
vt2 0.4661522 0.4458433
vt2 0.4971163 0.04268487
vt2 0.496978 0.0401261
vt2 0.4915951 0.1260992
vt2 0.4914912 0.1286595
vt2 0.4858683 0.3264958
vt2 0.4856493 0.3290488
vt2 0.5076383 0.4862261
vt2 0.5075523 0.4887872
vt2 0.4878399 0.2133831
vt2 0.4877432 0.2108225
vt2 0.5556788 0.4410754
vt2 0.5554807 0.4385207
vt2 0.5866216 0.03799776
vt2 0.5864934 0.03543835
vt2 0.4020272 0.1225526
vt2 0.4019317 0.1251132
vt2 0.3965478 0.3190569
vt2 0.3963475 0.3216114
vt2 0.4180742 0.4833282
vt2 0.4179984 0.4858896
vt2 0.5773818 0.2101326
vt2 0.5772936 0.2075718
vt2 0.6462355 0.4345084
vt2 0.6460767 0.4319509
vt2 0.6773545 0.03371405
vt2 0.6772477 0.03115384
vt2 0.3112284 0.1193416
vt2 0.3111502 0.1219028
vt2 0.3059565 0.3123638
vt2 0.3057955 0.3149213
vt2 0.3273091 0.4808537
vt2 0.3272547 0.4834155
vt2 0.6681126 0.2072283
vt2 0.6680416 0.2046669
vt2 0.7181457 0.4308051
vt2 0.7180659 0.4282439
vt2 0.7493933 0.03114744
vt2 0.7493261 0.02858602
vt2 0.2391282 0.1174784
vt2 0.2390911 0.1200408
vt2 0.2339727 0.3085782
vt2 0.2338908 0.3111393
vt2 0.2553135 0.4797425
vt2 0.2552986 0.4823048
vt2 0.7400584 0.2055909
vt2 0.7400285 0.2030284
vt2 0.7587047 0.430313
vt2 0.7584943 0.4277593
vt2 0.7898176 0.03040198
vt2 0.7896584 0.02784452
vt2 0.1987889 0.1174045
vt2 0.1987125 0.1199657
vt2 0.193596 0.3081875
vt2 0.1933835 0.3107411
vt2 0.2148047 0.4799463
vt2 0.2146977 0.4825065
vt2 0.7806595 0.2055011
vt2 0.7805904 0.2029397
vt2 0.7968298 0.424322
vt2 0.7962515 0.4218256
vt2 0.8278087 0.02622006
vt2 0.8274688 0.02368017
vt2 0.1608049 0.1153574
vt2 0.1605379 0.117906
vt2 0.1558092 0.3023821
vt2 0.1552287 0.3048779
vt2 0.176341 0.476674
vt2 0.176053 0.4792203
vt2 0.8193838 0.2033515
vt2 0.8191241 0.2008021
vt2 0.836418 0.4119526
vt2 0.8355005 0.4095602
vt2 0.8684053 0.01967451
vt2 0.8679982 0.01714469
vt2 0.120222 0.1091617
vt2 0.1196719 0.1116646
vt2 0.116331 0.290116
vt2 0.1154114 0.2925076
vt2 0.135036 0.4709872
vt2 0.1346807 0.4735248
vt2 0.8606696 0.1970597
vt2 0.8601265 0.1945554
vt2 0.8754315 0.3939578
vt2 0.8742191 0.3917002
vt2 0.9104859 0.01279541
vt2 0.9101301 0.01025788
vt2 0.07917581 0.09742498
vt2 0.07826518 0.09982004
vt2 0.07718982 0.2721502
vt2 0.07597547 0.2744067
vt2 0.09206113 0.4649868
vt2 0.09175723 0.4675311
vt2 0.902339 0.1851436
vt2 0.9014351 0.182746
vt2 0.9122679 0.3709863
vt2 0.9107881 0.3688943
vt2 0.9532688 0.007598992
vt2 0.953087 0.005042898
vt2 0.0400982 0.07883861
vt2 0.03874876 0.08101691
vt2 0.03995499 0.2491574
vt2 0.03847339 0.2512481
vt2 0.04818299 0.4608094
vt2 0.04805339 0.4633687
vt2 0.9419351 0.1661836
vt2 0.9405919 0.1640015
vt2 0.9464219 0.3434511
vt2 0.9448181 0.3414525
vt2 0.9969702 0.006467829
vt2 0.996909 0.00390625
vt2 0.005482411 0.05194231
vt2 0.00390625 0.05396264
vt2 0.005511767 0.2215966
vt2 0.00390625 0.2235938
vt2 0.003915055 0.4607483
vt2 0.00390625 0.4633106
vt2 0.9767648 0.1390569
vt2 0.9751944 0.1370321


vc 1 1 1 1
vc 1 1 1 1
vc 1 1 1 1
vc 1 1 1 1
vc 1 1 1 1
vc 1 1 1 1
vc 1 1 1 1
vc 1 1 1 1
vc 1 1 1 1
vc 1 1 1 1
vc 1 1 1 1
vc 1 1 1 1
vc 1 1 1 1
vc 1 1 1 1
vc 1 1 1 1
vc 1 1 1 1
vc 1 1 1 1
vc 1 1 1 1
vc 1 1 1 1
vc 1 1 1 1
vc 1 1 1 1
vc 1 1 1 1
vc 1 1 1 1
vc 1 1 1 1
vc 1 1 1 1
vc 1 1 1 1
vc 1 1 1 1
vc 1 1 1 1
vc 1 1 1 1
vc 1 1 1 1
vc 1 1 1 1
vc 1 1 1 1
vc 1 1 1 1
vc 1 1 1 1
vc 1 1 1 1
vc 1 1 1 1
vc 1 1 1 1
vc 1 1 1 1
vc 1 1 1 1
vc 1 1 1 1
vc 1 1 1 1
vc 1 1 1 1
vc 1 1 1 1
vc 1 1 1 1
vc 1 1 1 1
vc 1 1 1 1
vc 1 1 1 1
vc 1 1 1 1
vc 1 1 1 1
vc 1 1 1 1
vc 1 1 1 1
vc 1 1 1 1
vc 1 1 1 1
vc 1 1 1 1
vc 1 1 1 1
vc 1 1 1 1
vc 1 1 1 1
vc 1 1 1 1
vc 1 1 1 1
vc 1 1 1 1
vc 1 1 1 1
vc 1 1 1 1
vc 1 1 1 1
vc 1 1 1 1
vc 1 1 1 1
vc 1 1 1 1
vc 1 1 1 1
vc 1 1 1 1
vc 1 1 1 1
vc 1 1 1 1
vc 1 1 1 1
vc 1 1 1 1
vc 1 1 1 1
vc 1 1 1 1
vc 1 1 1 1
vc 1 1 1 1
vc 1 1 1 1
vc 1 1 1 1
vc 1 1 1 1
vc 1 1 1 1
vc 1 1 1 1
vc 1 1 1 1
vc 1 1 1 1
vc 1 1 1 1
vc 1 1 1 1
vc 1 1 1 1
vc 1 1 1 1
vc 1 1 1 1
vc 1 1 1 1
vc 1 1 1 1
vc 1 1 1 1
vc 1 1 1 1
vc 1 1 1 1
vc 1 1 1 1
vc 1 1 1 1
vc 1 1 1 1
vc 1 1 1 1
vc 1 1 1 1
vc 1 1 1 1
vc 1 1 1 1
vc 1 1 1 1
vc 1 1 1 1
vc 1 1 1 1
vc 1 1 1 1
vc 1 1 1 1
vc 1 1 1 1
vc 1 1 1 1
vc 1 1 1 1
vc 1 1 1 1
vc 1 1 1 1
vc 1 1 1 1
vc 1 1 1 1
vc 1 1 1 1
vc 1 1 1 1
vc 1 1 1 1
vc 1 1 1 1
vc 1 1 1 1
vc 1 1 1 1
vc 1 1 1 1
vc 1 1 1 1
vc 1 1 1 1
vc 1 1 1 1
vc 1 1 1 1
vc 1 1 1 1
vc 1 1 1 1
vc 1 1 1 1
vc 1 1 1 1
vc 1 1 1 1
vc 1 1 1 1
vc 1 1 1 1
vc 1 1 1 1
vc 1 1 1 1
vc 1 1 1 1
vc 1 1 1 1
vc 1 1 1 1
vc 1 1 1 1
vc 1 1 1 1
vc 1 1 1 1
vc 1 1 1 1
vc 1 1 1 1
vc 1 1 1 1
vc 1 1 1 1
vc 1 1 1 1
vc 1 1 1 1
vc 1 1 1 1
vc 1 1 1 1
vc 1 1 1 1
vc 1 1 1 1
vc 1 1 1 1
vc 1 1 1 1
vc 1 1 1 1
vc 1 1 1 1
vc 1 1 1 1
vc 1 1 1 1
vc 1 1 1 1
vc 1 1 1 1
vc 1 1 1 1
vc 1 1 1 1
vc 1 1 1 1
vc 1 1 1 1
vc 1 1 1 1
vc 1 1 1 1
vc 1 1 1 1
vc 1 1 1 1
vc 1 1 1 1
vc 1 1 1 1
vc 1 1 1 1
vc 1 1 1 1
vc 1 1 1 1
vc 1 1 1 1
vc 1 1 1 1
vc 1 1 1 1
vc 1 1 1 1
vc 1 1 1 1
vc 1 1 1 1
vc 1 1 1 1
vc 1 1 1 1
vc 1 1 1 1
vc 1 1 1 1
vc 1 1 1 1
vc 1 1 1 1
vc 1 1 1 1
vc 1 1 1 1
vc 1 1 1 1
vc 1 1 1 1
vc 1 1 1 1
vc 1 1 1 1
vc 1 1 1 1
vc 1 1 1 1
vc 1 1 1 1
vc 1 1 1 1
vc 1 1 1 1
vc 1 1 1 1
vc 1 1 1 1
vc 1 1 1 1
vc 1 1 1 1
vc 1 1 1 1
vc 1 1 1 1
vc 1 1 1 1
vc 1 1 1 1
vc 1 1 1 1
vc 1 1 1 1
vc 1 1 1 1
vc 1 1 1 1
vc 1 1 1 1
vc 1 1 1 1
vc 1 1 1 1
vc 1 1 1 1
vc 1 1 1 1
vc 1 1 1 1
vc 1 1 1 1
vc 1 1 1 1
vc 1 1 1 1
vc 1 1 1 1
vc 1 1 1 1
vc 1 1 1 1
vc 1 1 1 1
vc 1 1 1 1
vc 1 1 1 1
vc 1 1 1 1
vc 1 1 1 1
vc 1 1 1 1
vc 1 1 1 1
vc 1 1 1 1
vc 1 1 1 1
vc 1 1 1 1
vc 1 1 1 1
vc 1 1 1 1
vc 1 1 1 1
vc 1 1 1 1
vc 1 1 1 1
vc 1 1 1 1
vc 1 1 1 1
vc 1 1 1 1
vc 1 1 1 1
vc 1 1 1 1
vc 1 1 1 1
vc 1 1 1 1
vc 1 1 1 1
vc 1 1 1 1
vc 1 1 1 1
vc 1 1 1 1
vc 1 1 1 1
vc 1 1 1 1
vc 1 1 1 1
vc 1 1 1 1
vc 1 1 1 1
vc 1 1 1 1
vc 1 1 1 1
vc 1 1 1 1
vc 1 1 1 1
vc 1 1 1 1
vc 1 1 1 1
vc 1 1 1 1
vc 1 1 1 1
vc 1 1 1 1
vc 1 1 1 1
vc 1 1 1 1
vc 1 1 1 1
vc 1 1 1 1
vc 1 1 1 1
vc 1 1 1 1
vc 1 1 1 1
vc 1 1 1 1
vc 1 1 1 1
vc 1 1 1 1
vc 1 1 1 1
vc 1 1 1 1
vc 1 1 1 1
vc 1 1 1 1
vc 1 1 1 1
vc 1 1 1 1
vc 1 1 1 1
vc 1 1 1 1
vc 1 1 1 1
vc 1 1 1 1
vc 1 1 1 1
vc 1 1 1 1

usemtl Default-Diffuse
usemap Default-Diffuse
f 3/3/3 2/2/2 1/1/1
f 3/3/3 4/4/4 2/2/2
f 7/7/7 6/6/6 5/5/5
f 7/7/7 8/8/8 6/6/6
f 11/11/11 10/10/10 9/9/9
f 11/11/11 12/12/12 10/10/10
f 15/15/15 14/14/14 13/13/13
f 15/15/15 16/16/16 14/14/14
f 19/19/19 18/18/18 17/17/17
f 19/19/19 20/20/20 18/18/18
f 23/23/23 22/22/22 21/21/21
f 23/23/23 24/24/24 22/22/22
f 25/25/25 4/4/4 3/3/3
f 25/25/25 26/26/26 4/4/4
f 27/27/27 8/8/8 7/7/7
f 27/27/27 28/28/28 8/8/8
f 29/29/29 12/12/12 11/11/11
f 29/29/29 30/30/30 12/12/12
f 31/31/31 16/16/16 15/15/15
f 31/31/31 32/32/32 16/16/16
f 33/33/33 20/20/20 19/19/19
f 33/33/33 34/34/34 20/20/20
f 35/35/35 24/24/24 23/23/23
f 35/35/35 36/36/36 24/24/24
f 37/37/37 26/26/26 25/25/25
f 37/37/37 38/38/38 26/26/26
f 39/39/39 28/28/28 27/27/27
f 39/39/39 40/40/40 28/28/28
f 41/41/41 30/30/30 29/29/29
f 41/41/41 42/42/42 30/30/30
f 43/43/43 32/32/32 31/31/31
f 43/43/43 44/44/44 32/32/32
f 45/45/45 34/34/34 33/33/33
f 45/45/45 46/46/46 34/34/34
f 47/47/47 36/36/36 35/35/35
f 47/47/47 48/48/48 36/36/36
f 49/49/49 38/38/38 37/37/37
f 49/49/49 50/50/50 38/38/38
f 51/51/51 40/40/40 39/39/39
f 51/51/51 52/52/52 40/40/40
f 53/53/53 42/42/42 41/41/41
f 53/53/53 54/54/54 42/42/42
f 55/55/55 44/44/44 43/43/43
f 55/55/55 56/56/56 44/44/44
f 57/57/57 46/46/46 45/45/45
f 57/57/57 58/58/58 46/46/46
f 59/59/59 48/48/48 47/47/47
f 59/59/59 60/60/60 48/48/48
f 61/61/61 50/50/50 49/49/49
f 61/61/61 62/62/62 50/50/50
f 63/63/63 52/52/52 51/51/51
f 63/63/63 64/64/64 52/52/52
f 65/65/65 54/54/54 53/53/53
f 65/65/65 66/66/66 54/54/54
f 67/67/67 56/56/56 55/55/55
f 67/67/67 68/68/68 56/56/56
f 68/68/68 69/69/69 56/56/56
f 72/72/72 71/71/71 70/70/70
f 73/73/73 60/60/60 59/59/59
f 73/73/73 74/74/74 60/60/60
f 75/75/75 62/62/62 61/61/61
f 75/75/75 76/76/76 62/62/62
f 77/77/77 64/64/64 63/63/63
f 77/77/77 78/78/78 64/64/64
f 79/79/79 66/66/66 65/65/65
f 79/79/79 80/80/80 66/66/66
f 81/81/81 68/68/68 67/67/67
f 81/81/81 82/82/82 68/68/68
f 83/83/83 71/71/71 72/72/72
f 83/83/83 84/84/84 71/71/71
f 85/85/85 74/74/74 73/73/73
f 85/85/85 86/86/86 74/74/74
f 87/87/87 76/76/76 75/75/75
f 87/87/87 88/88/88 76/76/76
f 89/89/89 78/78/78 77/77/77
f 89/89/89 90/90/90 78/78/78
f 91/91/91 80/80/80 79/79/79
f 91/91/91 92/92/92 80/80/80
f 93/93/93 82/82/82 81/81/81
f 93/93/93 94/94/94 82/82/82
f 95/95/95 84/84/84 83/83/83
f 95/95/95 96/96/96 84/84/84
f 97/97/97 86/86/86 85/85/85
f 97/97/97 98/98/98 86/86/86
f 99/99/99 88/88/88 87/87/87
f 99/99/99 100/100/100 88/88/88
f 101/101/101 90/90/90 89/89/89
f 101/101/101 102/102/102 90/90/90
f 103/103/103 92/92/92 91/91/91
f 103/103/103 104/104/104 92/92/92
f 105/105/105 94/94/94 93/93/93
f 105/105/105 106/106/106 94/94/94
f 107/107/107 96/96/96 95/95/95
f 107/107/107 108/108/108 96/96/96
f 109/109/109 98/98/98 97/97/97
f 109/109/109 110/110/110 98/98/98
f 111/111/111 100/100/100 99/99/99
f 111/111/111 112/112/112 100/100/100
f 113/113/113 102/102/102 101/101/101
f 113/113/113 114/114/114 102/102/102
f 115/115/115 104/104/104 103/103/103
f 115/115/115 116/116/116 104/104/104
f 117/117/117 106/106/106 105/105/105
f 117/117/117 118/118/118 106/106/106
f 119/119/119 108/108/108 107/107/107
f 119/119/119 120/120/120 108/108/108
f 121/121/121 110/110/110 109/109/109
f 121/121/121 122/122/122 110/110/110
f 123/123/123 112/112/112 111/111/111
f 123/123/123 124/124/124 112/112/112
f 125/125/125 114/114/114 113/113/113
f 125/125/125 126/126/126 114/114/114
f 127/127/127 116/116/116 115/115/115
f 127/127/127 128/128/128 116/116/116
f 129/129/129 118/118/118 117/117/117
f 129/129/129 130/130/130 118/118/118
f 131/131/131 120/120/120 119/119/119
f 131/131/131 132/132/132 120/120/120
f 133/133/133 122/122/122 121/121/121
f 133/133/133 134/134/134 122/122/122
f 135/135/135 124/124/124 123/123/123
f 135/135/135 136/136/136 124/124/124
f 137/137/137 126/126/126 125/125/125
f 137/137/137 138/138/138 126/126/126
f 139/139/139 128/128/128 127/127/127
f 139/139/139 140/140/140 128/128/128
f 141/141/141 130/130/130 129/129/129
f 141/141/141 142/142/142 130/130/130
f 143/143/143 132/132/132 131/131/131
f 143/143/143 144/144/144 132/132/132
f 145/145/145 134/134/134 133/133/133
f 145/145/145 146/146/146 134/134/134
f 147/147/147 136/136/136 135/135/135
f 147/147/147 148/148/148 136/136/136
f 149/149/149 138/138/138 137/137/137
f 149/149/149 150/150/150 138/138/138
f 151/151/151 140/140/140 139/139/139
f 151/151/151 152/152/152 140/140/140
f 153/153/153 142/142/142 141/141/141
f 153/153/153 154/154/154 142/142/142
f 155/155/155 144/144/144 143/143/143
f 155/155/155 156/156/156 144/144/144
f 157/157/157 146/146/146 145/145/145
f 157/157/157 158/158/158 146/146/146
f 159/159/159 148/148/148 147/147/147
f 159/159/159 160/160/160 148/148/148
f 161/161/161 150/150/150 149/149/149
f 161/161/161 162/162/162 150/150/150
f 163/163/163 152/152/152 151/151/151
f 163/163/163 164/164/164 152/152/152
f 165/165/165 154/154/154 153/153/153
f 165/165/165 166/166/166 154/154/154
f 167/167/167 156/156/156 155/155/155
f 167/167/167 168/168/168 156/156/156
f 169/169/169 158/158/158 157/157/157
f 169/169/169 170/170/170 158/158/158
f 171/171/171 160/160/160 159/159/159
f 171/171/171 172/172/172 160/160/160
f 173/173/173 162/162/162 161/161/161
f 173/173/173 174/174/174 162/162/162
f 175/175/175 164/164/164 163/163/163
f 175/175/175 176/176/176 164/164/164
f 177/177/177 166/166/166 165/165/165
f 177/177/177 178/178/178 166/166/166
f 179/179/179 168/168/168 167/167/167
f 179/179/179 180/180/180 168/168/168
f 181/181/181 170/170/170 169/169/169
f 181/181/181 182/182/182 170/170/170
f 183/183/183 172/172/172 171/171/171
f 183/183/183 184/184/184 172/172/172
f 185/185/185 174/174/174 173/173/173
f 185/185/185 186/186/186 174/174/174
f 187/187/187 176/176/176 175/175/175
f 187/187/187 188/188/188 176/176/176
f 189/189/189 178/178/178 177/177/177
f 189/189/189 190/190/190 178/178/178
f 191/191/191 180/180/180 179/179/179
f 191/191/191 192/192/192 180/180/180
f 193/193/193 182/182/182 181/181/181
f 193/193/193 194/194/194 182/182/182
f 195/195/195 184/184/184 183/183/183
f 195/195/195 196/196/196 184/184/184
f 197/197/197 186/186/186 185/185/185
f 197/197/197 198/198/198 186/186/186
f 199/199/199 188/188/188 187/187/187
f 199/199/199 200/200/200 188/188/188
f 201/201/201 190/190/190 189/189/189
f 201/201/201 202/202/202 190/190/190
f 203/203/203 192/192/192 191/191/191
f 203/203/203 204/204/204 192/192/192
f 205/205/205 194/194/194 193/193/193
f 205/205/205 206/206/206 194/194/194
f 207/207/207 196/196/196 195/195/195
f 207/207/207 208/208/208 196/196/196
f 209/209/209 198/198/198 197/197/197
f 209/209/209 210/210/210 198/198/198
f 211/211/211 200/200/200 199/199/199
f 211/211/211 212/212/212 200/200/200
f 213/213/213 202/202/202 201/201/201
f 213/213/213 214/214/214 202/202/202
f 215/215/215 204/204/204 203/203/203
f 215/215/215 216/216/216 204/204/204
f 217/217/217 206/206/206 205/205/205
f 217/217/217 218/218/218 206/206/206
f 219/219/219 208/208/208 207/207/207
f 219/219/219 220/220/220 208/208/208
f 221/221/221 210/210/210 209/209/209
f 221/221/221 222/222/222 210/210/210
f 223/223/223 212/212/212 211/211/211
f 223/223/223 224/224/224 212/212/212
f 225/225/225 214/214/214 213/213/213
f 225/225/225 226/226/226 214/214/214
f 227/227/227 216/216/216 215/215/215
f 227/227/227 228/228/228 216/216/216
f 229/229/229 218/218/218 217/217/217
f 229/229/229 230/230/230 218/218/218
f 231/231/231 220/220/220 219/219/219
f 231/231/231 232/232/232 220/220/220
f 233/233/233 222/222/222 221/221/221
f 233/233/233 234/234/234 222/222/222
f 235/235/235 224/224/224 223/223/223
f 235/235/235 236/236/236 224/224/224
f 237/237/237 226/226/226 225/225/225
f 237/237/237 238/238/238 226/226/226
f 239/239/239 228/228/228 227/227/227
f 239/239/239 240/240/240 228/228/228
f 241/241/241 230/230/230 229/229/229
f 241/241/241 242/242/242 230/230/230
f 243/243/243 232/232/232 231/231/231
f 243/243/243 244/244/244 232/232/232
f 245/245/245 234/234/234 233/233/233
f 245/245/245 246/246/246 234/234/234
f 247/247/247 236/236/236 235/235/235
f 247/247/247 248/248/248 236/236/236
f 249/249/249 238/238/238 237/237/237
f 249/249/249 250/250/250 238/238/238
f 251/251/251 240/240/240 239/239/239
f 251/251/251 252/252/252 240/240/240
f 253/253/253 242/242/242 241/241/241
f 253/253/253 254/254/254 242/242/242
f 255/255/255 244/244/244 243/243/243
f 255/255/255 256/256/256 244/244/244
f 257/257/257 246/246/246 245/245/245
f 257/257/257 258/258/258 246/246/246
f 259/259/259 248/248/248 247/247/247
f 259/259/259 260/260/260 248/248/248
f 261/261/261 250/250/250 249/249/249
f 261/261/261 262/262/262 250/250/250
f 263/263/263 252/252/252 251/251/251
f 263/263/263 264/264/264 252/252/252
f 265/265/265 254/254/254 253/253/253
f 265/265/265 266/266/266 254/254/254
f 267/267/267 256/256/256 255/255/255
f 267/267/267 268/268/268 256/256/256
f 269/269/269 258/258/258 257/257/257
f 269/269/269 270/270/270 258/258/258
f 271/271/271 260/260/260 259/259/259
f 271/271/271 272/272/272 260/260/260
f 273/273/273 262/262/262 261/261/261
f 273/273/273 274/274/274 262/262/262
f 275/275/275 264/264/264 263/263/263
f 275/275/275 276/276/276 264/264/264
f 277/277/277 266/266/266 265/265/265
f 277/277/277 278/278/278 266/266/266
