g tube
v -1.879261 0.8267197 -3.42573
v -1.878677 0.8254294 -3.425236
v -1.877514 0.8262905 -3.428896
v -1.876893 0.8249958 -3.428462
v -1.878677 0.8254294 -3.425236
v -1.877363 0.8254294 -3.424512
v -1.876893 0.8249958 -3.428462
v -1.875555 0.8249958 -3.427784
v -1.877363 0.8254294 -3.424512
v -1.876634 0.8267197 -3.424282
v -1.875555 0.8249958 -3.427784
v -1.874838 0.8262905 -3.42754
v -1.876634 0.8267197 -3.424282
v -1.877217 0.82801 -3.424776
v -1.874838 0.8262905 -3.42754
v -1.875459 0.8275852 -3.427973
v -1.877217 0.82801 -3.424776
v -1.878531 0.82801 -3.4255
v -1.875459 0.8275852 -3.427973
v -1.876797 0.8275852 -3.428651
v -1.878531 0.82801 -3.4255
v -1.879261 0.8267197 -3.42573
v -1.876797 0.8275852 -3.428651
v -1.877514 0.8262905 -3.428896
v -1.873485 0.8258358 -3.437581
v -1.872788 0.8245368 -3.437305
v -1.872788 0.8245368 -3.437305
v -1.871397 0.8245368 -3.436743
v -1.871397 0.8245368 -3.436743
v -1.870703 0.8258358 -3.436457
v -1.870703 0.8258358 -3.436457
v -1.871401 0.8271348 -3.436733
v -1.871401 0.8271348 -3.436733
v -1.872792 0.8271348 -3.437295
v -1.872792 0.8271348 -3.437295
v -1.873485 0.8258358 -3.437581
v -1.868995 0.8266046 -3.450548
v -1.868229 0.8253157 -3.450508
v -1.868229 0.8253157 -3.450508
v -1.866781 0.8253157 -3.450118
v -1.866781 0.8253157 -3.450118
v -1.866099 0.8266046 -3.449766
v -1.866099 0.8266046 -3.449766
v -1.866865 0.8278936 -3.449805
v -1.866865 0.8278936 -3.449805
v -1.868313 0.8278936 -3.450196
v -1.868313 0.8278936 -3.450196
v -1.868995 0.8266046 -3.450548
v -1.865873 0.8298463 -3.466525
v -1.865092 0.8285986 -3.466812
v -1.865092 0.8285986 -3.466812
v -1.863599 0.8285986 -3.466667
v -1.863599 0.8285986 -3.466667
v -1.862887 0.8298463 -3.466234
v -1.862887 0.8298463 -3.466234
v -1.863669 0.8310939 -3.465947
v -1.863669 0.8310939 -3.465947
v -1.865162 0.8310939 -3.466092
v -1.865162 0.8310939 -3.466092
v -1.865873 0.8298463 -3.466525
v -1.865931 0.8368098 -3.484264
v -1.86525 0.8356415 -3.484914
v -1.86525 0.8356415 -3.484914
v -1.86376 0.8356415 -3.485084
v -1.86376 0.8356415 -3.485084
v -1.86295 0.8368098 -3.484605
v -1.86295 0.8368098 -3.484605
v -1.863631 0.837978 -3.483955
v -1.863631 0.837978 -3.483955
v -1.865121 0.837978 -3.483785
v -1.865121 0.837978 -3.483785
v -1.865931 0.8368098 -3.484264
v -1.870269 0.8479601 -3.502471
v -1.869726 0.8468552 -3.503329
v -1.869726 0.8468552 -3.503329
v -1.868279 0.8468552 -3.503725
v -1.868279 0.8468552 -3.503725
v -1.867375 0.8479601 -3.503264
v -1.867375 0.8479601 -3.503264
v -1.867918 0.8490649 -3.502407
v -1.867918 0.8490649 -3.502407
v -1.869365 0.8490649 -3.502011
v -1.869365 0.8490649 -3.502011
v -1.870269 0.8479601 -3.502471
v -1.875506 0.8594152 -3.519274
v -1.875018 0.8583364 -3.520195
v -1.875018 0.8583364 -3.520195
v -1.873592 0.8583364 -3.520661
v -1.873592 0.8583364 -3.520661
v -1.872654 0.8594152 -3.520207
v -1.872654 0.8594152 -3.520207
v -1.873142 0.860494 -3.519286
v -1.873142 0.860494 -3.519286
v -1.874568 0.860494 -3.518819
v -1.874568 0.860494 -3.518819
v -1.875506 0.8594152 -3.519274
v -1.880706 0.870548 -3.534419
v -1.880252 0.8694957 -3.535387
v -1.880252 0.8694957 -3.535387
v -1.878837 0.8694957 -3.535884
v -1.878837 0.8694957 -3.535884
v -1.877876 0.870548 -3.535415
v -1.877876 0.870548 -3.535415
v -1.878331 0.8716003 -3.534447
v -1.878331 0.8716003 -3.534447
v -1.879746 0.8716003 -3.533949
v -1.879746 0.8716003 -3.533949
v -1.880706 0.870548 -3.534419
v -1.885611 0.8814688 -3.548019
v -1.885178 0.8804522 -3.549033
v -1.885178 0.8804522 -3.549033
v -1.883766 0.8804522 -3.54954
v -1.883766 0.8804522 -3.54954
v -1.882787 0.8814688 -3.549032
v -1.882787 0.8814688 -3.549032
v -1.88322 0.8824855 -3.548018
v -1.88322 0.8824855 -3.548018
v -1.884632 0.8824855 -3.547511
v -1.884632 0.8824855 -3.547511
v -1.885611 0.8814688 -3.548019
v -1.889963 0.8922871 -3.560206
v -1.889533 0.8913176 -3.561266
v -1.889533 0.8913176 -3.561266
v -1.888113 0.8913176 -3.561751
v -1.888113 0.8913176 -3.561751
v -1.887124 0.8922871 -3.561175
v -1.887124 0.8922871 -3.561175
v -1.887555 0.8932565 -3.560114
v -1.887555 0.8932565 -3.560114
v -1.888974 0.8932565 -3.55963
v -1.888974 0.8932565 -3.55963
v -1.889963 0.8922871 -3.560206
v -1.893505 0.9031176 -3.57111
v -1.893009 0.9020687 -3.57206
v -1.893009 0.9020687 -3.57206
v -1.891572 0.902064 -3.572489
v -1.891572 0.902064 -3.572489
v -1.89063 0.9031082 -3.571966
v -1.89063 0.9031082 -3.571966
v -1.891126 0.904157 -3.571016
v -1.891126 0.904157 -3.571016
v -1.892563 0.9041618 -3.570587
v -1.892563 0.9041618 -3.570587
v -1.893505 0.9031176 -3.57111
v -1.897432 0.9114448 -3.585566
v -1.896828 0.9102184 -3.586183
v -1.896828 0.9102184 -3.586183
v -1.895374 0.9102037 -3.586554
v -1.895374 0.9102037 -3.586554
v -1.894525 0.9114156 -3.586307
v -1.894525 0.9114156 -3.586307
v -1.89513 0.912642 -3.58569
v -1.89513 0.912642 -3.58569
v -1.896583 0.9126567 -3.58532
v -1.896583 0.9126567 -3.58532
v -1.897432 0.9114448 -3.585566
v -1.902302 0.9157087 -3.606474
v -1.901625 0.9144087 -3.606794
v -1.901625 0.9144087 -3.606794
v -1.900157 0.9143836 -3.607104
v -1.900157 0.9143836 -3.607104
v -1.899367 0.9156584 -3.607095
v -1.899367 0.9156584 -3.607095
v -1.900044 0.9169584 -3.606776
v -1.900044 0.9169584 -3.606776
v -1.901511 0.9169835 -3.606465
v -1.901511 0.9169835 -3.606465
v -1.902302 0.9157087 -3.606474
v -1.90688 0.9174601 -3.63102
v -1.90618 0.9161448 -3.631194
v -1.90618 0.9161448 -3.631194
v -1.904698 0.9161083 -3.631423
v -1.904698 0.9161083 -3.631423
v -1.903916 0.917387 -3.631478
v -1.903916 0.917387 -3.631478
v -1.904616 0.9187023 -3.631304
v -1.904616 0.9187023 -3.631304
v -1.906098 0.9187388 -3.631075
v -1.906098 0.9187388 -3.631075
v -1.90688 0.9174601 -3.63102
v -1.909929 0.9182505 -3.656398
v -1.909228 0.9169288 -3.656504
v -1.909228 0.9169288 -3.656504
v -1.907732 0.9168794 -3.656604
v -1.907732 0.9168794 -3.656604
v -1.906937 0.9181517 -3.6566
v -1.906937 0.9181517 -3.6566
v -1.907639 0.9194734 -3.656494
v -1.907639 0.9194734 -3.656494
v -1.909135 0.9195228 -3.656394
v -1.909135 0.9195228 -3.656394
v -1.909929 0.9182505 -3.656398
v -1.910198 0.9195998 -3.679822
v -1.909467 0.9182941 -3.679922
v -1.909467 0.9182941 -3.679922
v -1.907972 0.9182609 -3.679802
v -1.907972 0.9182609 -3.679802
v -1.907209 0.9195334 -3.679583
v -1.907209 0.9195334 -3.679583
v -1.90794 0.9208391 -3.679483
v -1.90794 0.9208391 -3.679483
v -1.909435 0.9208723 -3.679603
v -1.909435 0.9208723 -3.679603
v -1.910198 0.9195998 -3.679822
v -1.906699 0.9231468 -3.699269
v -1.905856 0.9219131 -3.699403
v -1.905856 0.9219131 -3.699403
v -1.904405 0.921951 -3.699024
v -1.904405 0.921951 -3.699024
v -1.903797 0.9232225 -3.698511
v -1.903797 0.9232225 -3.698511
v -1.90464 0.9244562 -3.698377
v -1.90464 0.9244562 -3.698377
v -1.90609 0.9244184 -3.698756
v -1.90609 0.9244184 -3.698756
v -1.906699 0.9231468 -3.699269
v -1.90055 0.9300368 -3.717676
v -1.899571 0.9289073 -3.717804
v -1.899571 0.9289073 -3.717804
v -1.898201 0.92903 -3.717206
v -1.898201 0.92903 -3.717206
v -1.89781 0.9302822 -3.716479
v -1.89781 0.9302822 -3.716479
v -1.898789 0.9314117 -3.71635
v -1.898789 0.9314117 -3.71635
v -1.900159 0.931289 -3.716949
v -1.900159 0.931289 -3.716949
v -1.90055 0.9300368 -3.717676
v -1.89258 0.9390783 -3.734814
v -1.891505 0.9380334 -3.734863
v -1.891505 0.9380334 -3.734863
v -1.890242 0.9382193 -3.734075
v -1.890242 0.9382193 -3.734075
v -1.890054 0.9394501 -3.733238
v -1.890054 0.9394501 -3.733238
v -1.891129 0.940495 -3.73319
v -1.891129 0.940495 -3.73319
v -1.892392 0.940309 -3.733977
v -1.892392 0.940309 -3.733977
v -1.89258 0.9390783 -3.734814
v -1.883405 0.948814 -3.749687
v -1.882286 0.9478191 -3.749599
v -1.882286 0.9478191 -3.749599
v -1.881162 0.9480386 -3.74863
v -1.881162 0.9480386 -3.74863
v -1.881157 0.9492532 -3.74775
v -1.881157 0.9492532 -3.74775
v -1.882276 0.9502482 -3.747838
v -1.882276 0.9502482 -3.747838
v -1.8834 0.9500286 -3.748807
v -1.8834 0.9500286 -3.748807
v -1.883405 0.948814 -3.749687
v -1.873621 0.9577972 -3.761292
v -1.872543 0.9567932 -3.761007
v -1.872543 0.9567932 -3.761007
v -1.871615 0.9569979 -3.759847
v -1.871615 0.9569979 -3.759847
v -1.871764 0.9582067 -3.758972
v -1.871764 0.9582067 -3.758972
v -1.872841 0.9592108 -3.759256
v -1.872841 0.9592108 -3.759256
v -1.87377 0.959006 -3.760416
v -1.87377 0.959006 -3.760416
v -1.873621 0.9577972 -3.761292
v -1.863981 0.9645282 -3.768495
v -1.862965 0.9634946 -3.768109
v -1.862965 0.9634946 -3.768109
v -1.862155 0.9636699 -3.766859
v -1.862155 0.9636699 -3.766859
v -1.86236 0.9648789 -3.765995
v -1.86236 0.9648789 -3.765995
v -1.863377 0.9659125 -3.766382
v -1.863377 0.9659125 -3.766382
v -1.864187 0.9657372 -3.767632
v -1.864187 0.9657372 -3.767632
v -1.863981 0.9645282 -3.768495

vn -0.8756936 0 -0.4828672
vn -0.4864498 -0.8601682 -0.1532226
vn -0.8919982 0 -0.452039
vn -0.4779463 -0.8631483 -0.1629182
vn -0.4864498 -0.8601682 -0.1532226
vn 0.3892603 -0.8601794 0.3294964
vn -0.4779463 -0.8631483 -0.1629182
vn 0.4140585 -0.863165 0.2889667
vn 0.3892603 -0.8601794 0.3294964
vn 0.8756936 0 0.4828672
vn 0.4140585 -0.863165 0.2889667
vn 0.8919982 0 0.452039
vn 0.8756936 0 0.4828672
vn 0.4864498 0.8601682 0.1532226
vn 0.8919982 0 0.452039
vn 0.4779463 0.8631483 0.1629182
vn 0.4864498 0.8601682 0.1532226
vn -0.3892603 0.8601794 -0.3294964
vn 0.4779463 0.8631483 0.1629182
vn -0.4140585 0.863165 -0.2889667
vn -0.3892603 0.8601794 -0.3294964
vn -0.8756936 0 -0.4828672
vn -0.4140585 0.863165 -0.2889667
vn -0.8919982 0 -0.452039
vn -0.927244 0 -0.3744578
vn -0.4622895 -0.866008 -0.1905742
vn -0.4622895 -0.866008 -0.1905742
vn 0.4650038 -0.8660308 0.1837444
vn 0.4650038 -0.8660308 0.1837444
vn 0.927244 0 0.3744578
vn 0.927244 0 0.3744578
vn 0.4622895 0.866008 0.1905742
vn 0.4622895 0.866008 0.1905742
vn -0.4650038 0.8660308 -0.1837444
vn -0.4650038 0.8660308 -0.1837444
vn -0.927244 0 -0.3744578
vn -0.9654683 0 -0.2605207
vn -0.4546627 -0.8592975 -0.2342852
vn -0.4546627 -0.8592975 -0.2342852
vn 0.510779 -0.8593119 0.0262264
vn 0.510779 -0.8593119 0.0262264
vn 0.9654683 0 0.2605207
vn 0.9654683 0 0.2605207
vn 0.4546627 0.8592975 0.2342852
vn 0.4546627 0.8592975 0.2342852
vn -0.510779 0.8593119 -0.0262264
vn -0.510779 0.8593119 -0.0262264
vn -0.9654683 0 -0.2605207
vn -0.9952735 0 -0.09711149
vn -0.4742303 -0.8317906 -0.288496
vn -0.4742303 -0.8317906 -0.288496
vn 0.5210294 -0.8317716 -0.1915316
vn 0.5210294 -0.8317716 -0.1915316
vn 0.9952735 0 0.09711149
vn 0.9952735 0 0.09711149
vn 0.4742303 0.8317906 0.288496
vn 0.4742303 0.8317906 0.288496
vn -0.5210294 0.8317716 0.1915316
vn -0.5210294 0.8317716 0.1915316
vn -0.9952735 0 -0.09711149
vn -0.9935399 0 0.1134838
vn -0.5397763 -0.7788291 -0.3194789
vn -0.5397763 -0.7788291 -0.3194789
vn 0.453797 -0.778846 -0.4329748
vn 0.453797 -0.778846 -0.4329748
vn 0.9935399 0 -0.1134838
vn 0.9935399 0 -0.1134838
vn 0.5397763 0.7788291 0.3194789
vn 0.5397763 0.7788291 0.3194789
vn -0.453797 0.778846 0.4329748
vn -0.453797 0.778846 0.4329748
vn -0.9935399 0 0.1134838
vn -0.9644772 0 0.2641663
vn -0.6025478 -0.7365753 -0.3072342
vn -0.6025478 -0.7365753 -0.3072342
vn 0.3620094 -0.7366157 -0.5712675
vn 0.3620094 -0.7366157 -0.5712675
vn 0.9644772 0 -0.2641663
vn 0.9644772 0 -0.2641663
vn 0.6025478 0.7365753 0.3072342
vn 0.6025478 0.7365753 0.3072342
vn -0.3620094 0.7366157 0.5712675
vn -0.3620094 0.7366157 0.5712675
vn -0.9644772 0 0.2641663
vn -0.9503937 0 0.3110495
vn -0.6252914 -0.7191884 -0.30295
vn -0.6252914 -0.7191884 -0.30295
vn 0.3251326 -0.7192098 -0.6140245
vn 0.3251326 -0.7192098 -0.6140245
vn 0.9503937 0 -0.3110495
vn 0.9503937 0 -0.3110495
vn 0.6252914 0.7191884 0.30295
vn 0.6252914 0.7191884 0.30295
vn -0.3251326 0.7192098 0.6140245
vn -0.3251326 0.7192098 0.6140245
vn -0.9503937 0 0.3110495
vn -0.9433244 0 0.3318722
vn -0.6402152 -0.701487 -0.3131142
vn -0.6402152 -0.701487 -0.3131142
vn 0.3031073 -0.7015018 -0.644997
vn 0.3031073 -0.7015018 -0.644997
vn 0.9433244 0 -0.3318722
vn 0.9433244 0 -0.3318722
vn 0.6402152 0.701487 0.3131142
vn 0.6402152 0.701487 0.3131142
vn -0.3031073 0.7015018 0.644997
vn -0.3031073 0.7015018 0.644997
vn -0.9433244 0 0.3318722
vn -0.9412283 0 0.3377709
vn -0.652697 -0.6777701 -0.3385473
vn -0.652697 -0.6777701 -0.3385473
vn 0.2884841 -0.6777786 -0.6763083
vn 0.2884841 -0.6777786 -0.6763083
vn 0.9412283 0 -0.3377709
vn 0.9412283 0 -0.3377709
vn 0.652697 0.6777701 0.3385473
vn 0.652697 0.6777701 0.3385473
vn -0.2884841 0.6777786 0.6763083
vn -0.2884841 0.6777786 0.6763083
vn -0.9412283 0 0.3377709
vn -0.946402 0 0.3229911
vn -0.659394 -0.6463205 -0.3840173
vn -0.659394 -0.6463205 -0.3840173
vn 0.2869892 -0.6463416 -0.7070218
vn 0.2869892 -0.6463416 -0.7070218
vn 0.946402 0 -0.3229911
vn 0.946402 0 -0.3229911
vn 0.659394 0.6463205 0.3840173
vn 0.659394 0.6463205 0.3840173
vn -0.2869892 0.6463416 0.7070218
vn -0.2869892 0.6463416 0.7070218
vn -0.946402 0 0.3229911
vn -0.9583384 0.003139097 0.2856181
vn -0.627831 -0.6960976 -0.3482475
vn -0.627831 -0.6960976 -0.3482475
vn 0.3305299 -0.6992468 -0.63388
vn 0.3305299 -0.6992468 -0.63388
vn 0.9583384 -0.003139097 -0.2856181
vn 0.9583384 -0.003139097 -0.2856181
vn 0.627831 0.6960976 0.3482475
vn 0.627831 0.6960976 0.3482475
vn -0.3305299 0.6992468 0.63388
vn -0.3305299 0.6992468 0.63388
vn -0.9583384 0.003139097 0.2856181
vn -0.9689689 0.009734987 0.2469905
vn -0.5660076 -0.807884 -0.1641915
vn -0.5660076 -0.807884 -0.1641915
vn 0.4029956 -0.8176336 -0.4111811
vn 0.4029956 -0.8176336 -0.4111811
vn 0.9689689 -0.009734987 -0.2469905
vn 0.9689689 -0.009734987 -0.2469905
vn 0.5660076 0.807884 0.1641915
vn 0.5660076 0.807884 0.1641915
vn -0.4029956 0.8176336 0.4111811
vn -0.4029956 0.8176336 0.4111811
vn -0.9689689 0.009734987 0.2469905
vn -0.9781737 0.01676915 0.2071109
vn -0.5269719 -0.8498624 -0.00588085
vn -0.5269719 -0.8498624 -0.00588085
vn 0.4512306 -0.8666202 -0.2129796
vn 0.4512306 -0.8666202 -0.2129796
vn 0.9781737 -0.01676915 -0.2071109
vn 0.9781737 -0.01676915 -0.2071109
vn 0.5269719 0.8498624 0.00588085
vn 0.5269719 0.8498624 0.00588085
vn -0.4512306 0.8666202 0.2129796
vn -0.4512306 0.8666202 0.2129796
vn -0.9781737 0.01676915 0.2071109
vn -0.9879901 0.02435802 0.1525853
vn -0.521484 -0.8524776 0.03655633
vn -0.521484 -0.8524776 0.03655633
vn 0.4665102 -0.8768722 -0.1160315
vn 0.4665102 -0.8768722 -0.1160315
vn 0.9879901 -0.02435802 -0.1525853
vn 0.9879901 -0.02435802 -0.1525853
vn 0.521484 0.8524776 -0.03655633
vn 0.521484 0.8524776 -0.03655633
vn -0.4665102 0.8768722 0.1160315
vn -0.4665102 0.8768722 0.1160315
vn -0.9879901 0.02435802 0.1525853
vn -0.9972041 0.03294079 0.06707366
vn -0.5296748 -0.8481948 -0.003178843
vn -0.5296748 -0.8481948 -0.003178843
vn 0.4675475 -0.8811716 -0.07025531
vn 0.4675475 -0.8811716 -0.07025531
vn 0.9972041 -0.03294079 -0.06707366
vn 0.9972041 -0.03294079 -0.06707366
vn 0.5296748 0.8481948 0.003178843
vn 0.5296748 0.8481948 0.003178843
vn -0.4675475 0.8811716 0.07025531
vn -0.4675475 0.8811716 0.07025531
vn -0.9972041 0.03294079 0.06707366
vn -0.9965661 0.02213267 -0.07978886
vn -0.5088658 -0.848335 -0.1462304
vn -0.5088658 -0.848335 -0.1462304
vn 0.4877246 -0.8704657 -0.06643927
vn 0.4877246 -0.8704657 -0.06643927
vn 0.9965661 -0.02213267 0.07978886
vn 0.9965661 -0.02213267 0.07978886
vn 0.5088658 0.848335 0.1462304
vn 0.5088658 0.848335 0.1462304
vn -0.4877246 0.8704657 0.06643927
vn -0.4877246 0.8704657 0.06643927
vn -0.9965661 0.02213267 -0.07978886
vn -0.9672518 -0.02523231 -0.2525615
vn -0.4055378 -0.8476717 -0.3420409
vn -0.4055378 -0.8476717 -0.3420409
vn 0.5617201 -0.8224733 -0.08948739
vn 0.5617201 -0.8224733 -0.08948739
vn 0.9672518 0.02523231 0.2525615
vn 0.9672518 0.02523231 0.2525615
vn 0.4055378 0.8476717 0.3420409
vn 0.4055378 0.8476717 0.3420409
vn -0.5617201 0.8224733 0.08948739
vn -0.5617201 0.8224733 0.08948739
vn -0.9672518 -0.02523231 -0.2525615
vn -0.9133117 -0.08181817 -0.398958
vn -0.260907 -0.834815 -0.48478
vn -0.260907 -0.834815 -0.48478
vn 0.6523926 -0.7530053 -0.08583068
vn 0.6523926 -0.7530053 -0.08583068
vn 0.9133117 0.08181817 0.398958
vn 0.9133117 0.08181817 0.398958
vn 0.260907 0.834815 0.48478
vn 0.260907 0.834815 0.48478
vn -0.6523926 0.7530053 0.08583068
vn -0.6523926 0.7530053 0.08583068
vn -0.9133117 -0.08181817 -0.398958
vn -0.84191 -0.1239459 -0.5251904
vn -0.1251703 -0.8205212 -0.557743
vn -0.1251703 -0.8205212 -0.557743
vn 0.7167522 -0.6965664 -0.03258326
vn 0.7167522 -0.6965664 -0.03258326
vn 0.84191 0.1239459 0.5251904
vn 0.84191 0.1239459 0.5251904
vn 0.1251703 0.8205212 0.557743
vn 0.1251703 0.8205212 0.557743
vn -0.7167522 0.6965664 0.03258326
vn -0.7167522 0.6965664 0.03258326
vn -0.84191 -0.1239459 -0.5251904
vn -0.7493467 -0.1463885 -0.645794
vn -0.003417321 -0.8097063 -0.5868254
vn -0.003417321 -0.8097063 -0.5868254
vn 0.7460101 -0.6633188 0.05896873
vn 0.7460101 -0.6633188 0.05896873
vn 0.7493467 0.1463885 0.645794
vn 0.7493467 0.1463885 0.645794
vn 0.003417321 0.8097063 0.5868254
vn 0.003417321 0.8097063 0.5868254
vn -0.7460101 0.6633188 -0.05896873
vn -0.7460101 0.6633188 -0.05896873
vn -0.7493467 -0.1463885 -0.645794
vn -0.6190132 -0.1364944 -0.7734287
vn 0.09926654 -0.8058949 -0.5836777
vn 0.09926654 -0.8058949 -0.5836777
vn 0.7183046 -0.669387 0.1896299
vn 0.7183046 -0.669387 0.1896299
vn 0.6190132 0.1364944 0.7734287
vn 0.6190132 0.1364944 0.7734287
vn -0.09926654 0.8058949 0.5836777
vn -0.09926654 0.8058949 0.5836777
vn -0.7183046 0.669387 -0.1896299
vn -0.7183046 0.669387 -0.1896299
vn -0.6190132 -0.1364944 -0.7734287
vn -0.5403073 -0.1168984 -0.8333083
vn 0.1370905 -0.8059728 -0.5758594
vn 0.1370905 -0.8059728 -0.5758594
vn 0.6773564 -0.6891185 0.2574956
vn 0.6773564 -0.6891185 0.2574956
vn 0.5403073 0.1168984 0.8333083
vn 0.5403073 0.1168984 0.8333083
vn -0.1370905 0.8059728 0.5758594
vn -0.1370905 0.8059728 0.5758594
vn -0.6773564 0.6891185 -0.2574956
vn -0.6773564 0.6891185 -0.2574956
vn -0.5403073 -0.1168984 -0.8333083

vt 1 0
vt 0.8333333 0
vt 1 0.04545455
vt 0.8333333 0.04545455
vt 0.8333333 0
vt 0.6666666 0
vt 0.8333333 0.04545455
vt 0.6666666 0.04545455
vt 0.6666666 0
vt 0.5 0
vt 0.6666666 0.04545455
vt 0.5 0.04545455
vt 0.5 0
vt 0.3333333 0
vt 0.5 0.04545455
vt 0.3333333 0.04545455
vt 0.3333333 0
vt 0.1666667 0
vt 0.3333333 0.04545455
vt 0.1666667 0.04545455
vt 0.1666667 0
vt 0 0
vt 0.1666667 0.04545455
vt 0 0.04545455
vt 1 0.09090909
vt 0.8333333 0.09090909
vt 0.8333333 0.09090909
vt 0.6666666 0.09090909
vt 0.6666666 0.09090909
vt 0.5 0.09090909
vt 0.5 0.09090909
vt 0.3333333 0.09090909
vt 0.3333333 0.09090909
vt 0.1666667 0.09090909
vt 0.1666667 0.09090909
vt 0 0.09090909
vt 1 0.1363636
vt 0.8333333 0.1363636
vt 0.8333333 0.1363636
vt 0.6666666 0.1363636
vt 0.6666666 0.1363636
vt 0.5 0.1363636
vt 0.5 0.1363636
vt 0.3333333 0.1363636
vt 0.3333333 0.1363636
vt 0.1666667 0.1363636
vt 0.1666667 0.1363636
vt 0 0.1363636
vt 1 0.1818182
vt 0.8333333 0.1818182
vt 0.8333333 0.1818182
vt 0.6666666 0.1818182
vt 0.6666666 0.1818182
vt 0.5 0.1818182
vt 0.5 0.1818182
vt 0.3333333 0.1818182
vt 0.3333333 0.1818182
vt 0.1666667 0.1818182
vt 0.1666667 0.1818182
vt 0 0.1818182
vt 1 0.2272727
vt 0.8333333 0.2272727
vt 0.8333333 0.2272727
vt 0.6666666 0.2272727
vt 0.6666666 0.2272727
vt 0.5 0.2272727
vt 0.5 0.2272727
vt 0.3333333 0.2272727
vt 0.3333333 0.2272727
vt 0.1666667 0.2272727
vt 0.1666667 0.2272727
vt 0 0.2272727
vt 1 0.2727273
vt 0.8333333 0.2727273
vt 0.8333333 0.2727273
vt 0.6666666 0.2727273
vt 0.6666666 0.2727273
vt 0.5 0.2727273
vt 0.5 0.2727273
vt 0.3333333 0.2727273
vt 0.3333333 0.2727273
vt 0.1666667 0.2727273
vt 0.1666667 0.2727273
vt 0 0.2727273
vt 1 0.3181818
vt 0.8333333 0.3181818
vt 0.8333333 0.3181818
vt 0.6666666 0.3181818
vt 0.6666666 0.3181818
vt 0.5 0.3181818
vt 0.5 0.3181818
vt 0.3333333 0.3181818
vt 0.3333333 0.3181818
vt 0.1666667 0.3181818
vt 0.1666667 0.3181818
vt 0 0.3181818
vt 1 0.3636364
vt 0.8333333 0.3636364
vt 0.8333333 0.3636364
vt 0.6666666 0.3636364
vt 0.6666666 0.3636364
vt 0.5 0.3636364
vt 0.5 0.3636364
vt 0.3333333 0.3636364
vt 0.3333333 0.3636364
vt 0.1666667 0.3636364
vt 0.1666667 0.3636364
vt 0 0.3636364
vt 1 0.4090909
vt 0.8333333 0.4090909
vt 0.8333333 0.4090909
vt 0.6666666 0.4090909
vt 0.6666666 0.4090909
vt 0.5 0.4090909
vt 0.5 0.4090909
vt 0.3333333 0.4090909
vt 0.3333333 0.4090909
vt 0.1666667 0.4090909
vt 0.1666667 0.4090909
vt 0 0.4090909
vt 1 0.4545455
vt 0.8333333 0.4545455
vt 0.8333333 0.4545455
vt 0.6666666 0.4545455
vt 0.6666666 0.4545455
vt 0.5 0.4545455
vt 0.5 0.4545455
vt 0.3333333 0.4545455
vt 0.3333333 0.4545455
vt 0.1666667 0.4545455
vt 0.1666667 0.4545455
vt 0 0.4545455
vt 1 0.5
vt 0.8333333 0.5
vt 0.8333333 0.5
vt 0.6666666 0.5
vt 0.6666666 0.5
vt 0.5 0.5
vt 0.5 0.5
vt 0.3333333 0.5
vt 0.3333333 0.5
vt 0.1666667 0.5
vt 0.1666667 0.5
vt 0 0.5
vt 1 0.5454546
vt 0.8333333 0.5454546
vt 0.8333333 0.5454546
vt 0.6666666 0.5454546
vt 0.6666666 0.5454546
vt 0.5 0.5454546
vt 0.5 0.5454546
vt 0.3333333 0.5454546
vt 0.3333333 0.5454546
vt 0.1666667 0.5454546
vt 0.1666667 0.5454546
vt 0 0.5454546
vt 1 0.5909091
vt 0.8333333 0.5909091
vt 0.8333333 0.5909091
vt 0.6666666 0.5909091
vt 0.6666666 0.5909091
vt 0.5 0.5909091
vt 0.5 0.5909091
vt 0.3333333 0.5909091
vt 0.3333333 0.5909091
vt 0.1666667 0.5909091
vt 0.1666667 0.5909091
vt 0 0.5909091
vt 1 0.6363636
vt 0.8333333 0.6363636
vt 0.8333333 0.6363636
vt 0.6666666 0.6363636
vt 0.6666666 0.6363636
vt 0.5 0.6363636
vt 0.5 0.6363636
vt 0.3333333 0.6363636
vt 0.3333333 0.6363636
vt 0.1666667 0.6363636
vt 0.1666667 0.6363636
vt 0 0.6363636
vt 1 0.6818182
vt 0.8333333 0.6818182
vt 0.8333333 0.6818182
vt 0.6666666 0.6818182
vt 0.6666666 0.6818182
vt 0.5 0.6818182
vt 0.5 0.6818182
vt 0.3333333 0.6818182
vt 0.3333333 0.6818182
vt 0.1666667 0.6818182
vt 0.1666667 0.6818182
vt 0 0.6818182
vt 1 0.7272727
vt 0.8333333 0.7272727
vt 0.8333333 0.7272727
vt 0.6666666 0.7272727
vt 0.6666666 0.7272727
vt 0.5 0.7272727
vt 0.5 0.7272727
vt 0.3333333 0.7272727
vt 0.3333333 0.7272727
vt 0.1666667 0.7272727
vt 0.1666667 0.7272727
vt 0 0.7272727
vt 1 0.7727273
vt 0.8333333 0.7727273
vt 0.8333333 0.7727273
vt 0.6666666 0.7727273
vt 0.6666666 0.7727273
vt 0.5 0.7727273
vt 0.5 0.7727273
vt 0.3333333 0.7727273
vt 0.3333333 0.7727273
vt 0.1666667 0.7727273
vt 0.1666667 0.7727273
vt 0 0.7727273
vt 1 0.8181818
vt 0.8333333 0.8181818
vt 0.8333333 0.8181818
vt 0.6666666 0.8181818
vt 0.6666666 0.8181818
vt 0.5 0.8181818
vt 0.5 0.8181818
vt 0.3333333 0.8181818
vt 0.3333333 0.8181818
vt 0.1666667 0.8181818
vt 0.1666667 0.8181818
vt 0 0.8181818
vt 1 0.8636364
vt 0.8333333 0.8636364
vt 0.8333333 0.8636364
vt 0.6666666 0.8636364
vt 0.6666666 0.8636364
vt 0.5 0.8636364
vt 0.5 0.8636364
vt 0.3333333 0.8636364
vt 0.3333333 0.8636364
vt 0.1666667 0.8636364
vt 0.1666667 0.8636364
vt 0 0.8636364
vt 1 0.9090909
vt 0.8333333 0.9090909
vt 0.8333333 0.9090909
vt 0.6666666 0.9090909
vt 0.6666666 0.9090909
vt 0.5 0.9090909
vt 0.5 0.9090909
vt 0.3333333 0.9090909
vt 0.3333333 0.9090909
vt 0.1666667 0.9090909
vt 0.1666667 0.9090909
vt 0 0.9090909
vt 1 0.9545454
vt 0.8333333 0.9545454
vt 0.8333333 0.9545454
vt 0.6666666 0.9545454
vt 0.6666666 0.9545454
vt 0.5 0.9545454
vt 0.5 0.9545454
vt 0.3333333 0.9545454
vt 0.3333333 0.9545454
vt 0.1666667 0.9545454
vt 0.1666667 0.9545454
vt 0 0.9545454
vt 1 1
vt 0.8333333 1
vt 0.8333333 1
vt 0.6666666 1
vt 0.6666666 1
vt 0.5 1
vt 0.5 1
vt 0.3333333 1
vt 0.3333333 1
vt 0.1666667 1
vt 0.1666667 1
vt 0 1

vt2 0.006278113 0.2216472
vt2 0.00390625 0.2186593
vt2 0.01352104 0.2158797
vt2 0.01129375 0.2127826
vt2 0.00563538 0.4442643
vt2 0.00390625 0.4408642
vt2 0.01404439 0.4399748
vt2 0.01243408 0.436517
vt2 0.9961546 0.1603225
vt2 0.9954405 0.1640698
vt2 0.9867498 0.1585419
vt2 0.9860839 0.1622981
vt2 0.9804735 0.3392329
vt2 0.9780849 0.3422075
vt2 0.9730386 0.3332824
vt2 0.970794 0.336367
vt2 0.9658661 0.5769109
vt2 0.9641245 0.5803045
vt2 0.9575506 0.572654
vt2 0.9559276 0.576106
vt2 0.004599612 0.07479493
vt2 0.00390625 0.07104365
vt2 0.01365342 0.07310776
vt2 0.01300836 0.06934786
vt2 0.03395763 0.2025935
vt2 0.03210703 0.1992577
vt2 0.03689102 0.430272
vt2 0.03558057 0.4266896
vt2 0.9619339 0.154479
vt2 0.9613877 0.1582545
vt2 0.952118 0.3195498
vt2 0.9502488 0.3228752
vt2 0.9349549 0.5629807
vt2 0.9336313 0.5665582
vt2 0.03760689 0.06929777
vt2 0.03708161 0.06551924
vt2 0.06563401 0.1878197
vt2 0.06435397 0.1842262
vt2 0.07088489 0.4197732
vt2 0.07001246 0.4160597
vt2 0.926182 0.1499681
vt2 0.9258023 0.1537638
vt2 0.919714 0.3041722
vt2 0.918414 0.3077584
vt2 0.9013373 0.5524057
vt2 0.9004511 0.5561159
vt2 0.07214706 0.06518085
vt2 0.07178833 0.06138304
vt2 0.1065872 0.1775784
vt2 0.1061118 0.1737934
vt2 0.1133854 0.4129715
vt2 0.1131284 0.4091657
vt2 0.8826479 0.1466102
vt2 0.8824734 0.1504211
vt2 0.8776655 0.2931952
vt2 0.8771691 0.2969775
vt2 0.8593039 0.5452943
vt2 0.8590329 0.5490991
vt2 0.114063 0.06239289
vt2 0.1139096 0.0585811
vt2 0.1550508 0.1777131
vt2 0.1555088 0.1739261
vt2 0.1627584 0.4145125
vt2 0.16325 0.4107295
vt2 0.8325142 0.1455008
vt2 0.8325229 0.1493155
vt2 0.8277068 0.29256
vt2 0.8281437 0.2963495
vt2 0.8102819 0.5461571
vt2 0.8107597 0.5499419
vt2 0.1623425 0.06207488
vt2 0.1623723 0.05826026
vt2 0.2087642 0.1913035
vt2 0.2098055 0.1876336
vt2 0.2172001 0.4276324
vt2 0.218186 0.4239471
vt2 0.7760192 0.1464909
vt2 0.7761175 0.1503041
vt2 0.7728153 0.3055778
vt2 0.7738361 0.3092535
vt2 0.7558617 0.5585778
vt2 0.756834 0.5622666
vt2 0.2176308 0.06383191
vt2 0.2177504 0.06001937
vt2 0.2596001 0.2076632
vt2 0.2608335 0.2040535
vt2 0.2685305 0.4430807
vt2 0.2696674 0.4394393
vt2 0.722279 0.1480158
vt2 0.7224224 0.1518278
vt2 0.7215371 0.3215787
vt2 0.7227502 0.3251952
vt2 0.7045109 0.5736446
vt2 0.7056345 0.5772902
vt2 0.2709521 0.06581634
vt2 0.2711169 0.0620052
vt2 0.3061971 0.2246557
vt2 0.3075741 0.2210981
vt2 0.3158284 0.4585114
vt2 0.317031 0.4548911
vt2 0.6725079 0.1502316
vt2 0.6727352 0.1540397
vt2 0.6746881 0.3382788
vt2 0.6760452 0.341844
vt2 0.6572906 0.5887707
vt2 0.6584798 0.5923954
vt2 0.3204007 0.06837695
vt2 0.3206492 0.06457025
vt2 0.3488131 0.2421756
vt2 0.3503374 0.2386787
vt2 0.3596112 0.4733717
vt2 0.3608318 0.4697577
vt2 0.6263778 0.1536312
vt2 0.6267449 0.1574283
vt2 0.6319302 0.3555515
vt2 0.633435 0.3590569
vt2 0.6137114 0.6033576
vt2 0.6149186 0.606976
vt2 0.3661916 0.07203304
vt2 0.3665798 0.06823808
vt2 0.3877753 0.2601188
vt2 0.3894476 0.2566904
vt2 0.4004327 0.4870697
vt2 0.4016098 0.4834414
vt2 0.5836723 0.1587632
vt2 0.5842466 0.1625343
vt2 0.5929792 0.3732995
vt2 0.5946323 0.3767372
vt2 0.5732574 0.616838
vt2 0.5744211 0.6204708
vt2 0.4085526 0.07729517
vt2 0.4091479 0.07352727
vt2 0.4234746 0.2784017
vt2 0.4248074 0.2748274
vt2 0.4383845 0.4988565
vt2 0.4394501 0.4951935
vt2 0.5447317 0.1660862
vt2 0.5450553 0.1698872
vt2 0.557461 0.3914236
vt2 0.5587738 0.3950053
vt2 0.5348238 0.6287714
vt2 0.5358757 0.6324384
vt2 0.4482126 0.08478171
vt2 0.4485575 0.08098263
vt2 0.4658397 0.2886538
vt2 0.4661985 0.284856
vt2 0.4795169 0.5098987
vt2 0.4804417 0.5061977
vt2 0.5022919 0.1655666
vt2 0.5017622 0.1693445
vt2 0.5153438 0.4014597
vt2 0.5156813 0.4052594
vt2 0.4920233 0.6401829
vt2 0.4929343 0.6438874
vt2 0.4926521 0.08437017
vt2 0.4921437 0.08058942
vt2 0.5214306 0.2858633
vt2 0.5209892 0.2820742
vt2 0.5329798 0.5222064
vt2 0.5337502 0.51847
vt2 0.4495036 0.1512206
vt2 0.4483482 0.154856
vt2 0.4600852 0.3983834
vt2 0.4596226 0.40217
vt2 0.4372677 0.6525904
vt2 0.4380241 0.6563296
vt2 0.5470776 0.06995494
vt2 0.5459425 0.0663131
vt2 0.584038 0.2743608
vt2 0.5832256 0.2706336
vt2 0.5952309 0.5335673
vt2 0.5957917 0.529794
vt2 0.3902799 0.1295426
vt2 0.3889699 0.1331254
vt2 0.3979658 0.386586
vt2 0.3971325 0.3903085
vt2 0.37465 0.663758
vt2 0.3751967 0.6675334
vt2 0.6071407 0.04838566
vt2 0.6058508 0.04479555
vt2 0.6470996 0.2584578
vt2 0.6461179 0.2547716
vt2 0.6596646 0.5410063
vt2 0.6598983 0.5371986
vt2 0.3296752 0.1073718
vt2 0.3285115 0.1110048
vt2 0.3356403 0.370459
vt2 0.3346379 0.3741396
vt2 0.3104935 0.6708955
vt2 0.310713 0.674704
vt2 0.6682091 0.02647145
vt2 0.6670658 0.02283202
vt2 0.7045406 0.2422887
vt2 0.7035462 0.2386058
vt2 0.7193237 0.541388
vt2 0.7190005 0.537587
vt2 0.2726845 0.09170971
vt2 0.2720495 0.09547117
vt2 0.2793232 0.3544084
vt2 0.2783082 0.3580855
vt2 0.2519217 0.6712237
vt2 0.2515843 0.6750235
vt2 0.725272 0.0109755
vt2 0.724658 0.007210551
vt2 0.753887 0.2291993
vt2 0.7530555 0.2254764
vt2 0.769694 0.532094
vt2 0.7687552 0.5283965
vt2 0.2221785 0.08868796
vt2 0.2223338 0.09249961
vt2 0.2311234 0.3418682
vt2 0.230271 0.3455864
vt2 0.2030505 0.66254
vt2 0.2020979 0.6662339
vt2 0.7754272 0.007716965
vt2 0.7756039 0.00390625
vt2 0.8052933 0.2191915
vt2 0.8046393 0.2154333
vt2 0.8194695 0.5152369
vt2 0.8180689 0.5116886
vt2 0.1707211 0.09663332
vt2 0.1715373 0.1003597
vt2 0.18059 0.3324633
vt2 0.1799151 0.3362179
vt2 0.1543791 0.646585
vt2 0.1529653 0.650128
vt2 0.8265882 0.01519825
vt2 0.8274252 0.01147648
vt2 0.857847 0.2104014
vt2 0.8572141 0.2066397
vt2 0.8677337 0.4926092
vt2 0.8659469 0.4892388
vt2 0.1200676 0.1118163
vt2 0.121314 0.1154216
vt2 0.1288117 0.3242021
vt2 0.1281579 0.3279602
vt2 0.1067212 0.6247743
vt2 0.1049218 0.628138
vt2 0.8773102 0.02999728
vt2 0.8785766 0.02639903
vt2 0.9078935 0.2012636
vt2 0.9071177 0.1975289
vt2 0.9109958 0.4661181
vt2 0.9088164 0.462987
vt2 0.07352104 0.1307997
vt2 0.07505997 0.1342902
vt2 0.07960543 0.3155884
vt2 0.07880882 0.3193188
vt2 0.06376138 0.5989972
vt2 0.06157032 0.6021202
vt2 0.9242606 0.04875718
vt2 0.925819 0.04527536
vt2 0.9514421 0.190514
vt2 0.9502817 0.1868801
vt2 0.9455791 0.4381801
vt2 0.9429269 0.4354388
vt2 0.03415718 0.1501109
vt2 0.035891 0.153509
vt2 0.03716526 0.3054692
vt2 0.03598468 0.3090966
vt2 0.02925512 0.5716529
vt2 0.02659275 0.5743843
vt2 0.9644815 0.06812167
vt2 0.9662344 0.06473342
vt2 0.9839351 0.1773323
vt2 0.9825107 0.1737934
vt2 0.9680647 0.4116402
vt2 0.9651614 0.4091657
vt2 0.00390625 0.1665284
vt2 0.005714786 0.1698872
vt2 0.005350193 0.29256
vt2 0.00390625 0.2960909
vt2 0.006818705 0.5452943
vt2 0.00390625 0.5477579
vt2 0.9952399 0.08478171
vt2 0.9970673 0.08143311


vc 1 1 1 1
vc 1 1 1 1
vc 1 1 1 1
vc 1 1 1 1
vc 1 1 1 1
vc 1 1 1 1
vc 1 1 1 1
vc 1 1 1 1
vc 1 1 1 1
vc 1 1 1 1
vc 1 1 1 1
vc 1 1 1 1
vc 1 1 1 1
vc 1 1 1 1
vc 1 1 1 1
vc 1 1 1 1
vc 1 1 1 1
vc 1 1 1 1
vc 1 1 1 1
vc 1 1 1 1
vc 1 1 1 1
vc 1 1 1 1
vc 1 1 1 1
vc 1 1 1 1
vc 1 1 1 1
vc 1 1 1 1
vc 1 1 1 1
vc 1 1 1 1
vc 1 1 1 1
vc 1 1 1 1
vc 1 1 1 1
vc 1 1 1 1
vc 1 1 1 1
vc 1 1 1 1
vc 1 1 1 1
vc 1 1 1 1
vc 1 1 1 1
vc 1 1 1 1
vc 1 1 1 1
vc 1 1 1 1
vc 1 1 1 1
vc 1 1 1 1
vc 1 1 1 1
vc 1 1 1 1
vc 1 1 1 1
vc 1 1 1 1
vc 1 1 1 1
vc 1 1 1 1
vc 1 1 1 1
vc 1 1 1 1
vc 1 1 1 1
vc 1 1 1 1
vc 1 1 1 1
vc 1 1 1 1
vc 1 1 1 1
vc 1 1 1 1
vc 1 1 1 1
vc 1 1 1 1
vc 1 1 1 1
vc 1 1 1 1
vc 1 1 1 1
vc 1 1 1 1
vc 1 1 1 1
vc 1 1 1 1
vc 1 1 1 1
vc 1 1 1 1
vc 1 1 1 1
vc 1 1 1 1
vc 1 1 1 1
vc 1 1 1 1
vc 1 1 1 1
vc 1 1 1 1
vc 1 1 1 1
vc 1 1 1 1
vc 1 1 1 1
vc 1 1 1 1
vc 1 1 1 1
vc 1 1 1 1
vc 1 1 1 1
vc 1 1 1 1
vc 1 1 1 1
vc 1 1 1 1
vc 1 1 1 1
vc 1 1 1 1
vc 1 1 1 1
vc 1 1 1 1
vc 1 1 1 1
vc 1 1 1 1
vc 1 1 1 1
vc 1 1 1 1
vc 1 1 1 1
vc 1 1 1 1
vc 1 1 1 1
vc 1 1 1 1
vc 1 1 1 1
vc 1 1 1 1
vc 1 1 1 1
vc 1 1 1 1
vc 1 1 1 1
vc 1 1 1 1
vc 1 1 1 1
vc 1 1 1 1
vc 1 1 1 1
vc 1 1 1 1
vc 1 1 1 1
vc 1 1 1 1
vc 1 1 1 1
vc 1 1 1 1
vc 1 1 1 1
vc 1 1 1 1
vc 1 1 1 1
vc 1 1 1 1
vc 1 1 1 1
vc 1 1 1 1
vc 1 1 1 1
vc 1 1 1 1
vc 1 1 1 1
vc 1 1 1 1
vc 1 1 1 1
vc 1 1 1 1
vc 1 1 1 1
vc 1 1 1 1
vc 1 1 1 1
vc 1 1 1 1
vc 1 1 1 1
vc 1 1 1 1
vc 1 1 1 1
vc 1 1 1 1
vc 1 1 1 1
vc 1 1 1 1
vc 1 1 1 1
vc 1 1 1 1
vc 1 1 1 1
vc 1 1 1 1
vc 1 1 1 1
vc 1 1 1 1
vc 1 1 1 1
vc 1 1 1 1
vc 1 1 1 1
vc 1 1 1 1
vc 1 1 1 1
vc 1 1 1 1
vc 1 1 1 1
vc 1 1 1 1
vc 1 1 1 1
vc 1 1 1 1
vc 1 1 1 1
vc 1 1 1 1
vc 1 1 1 1
vc 1 1 1 1
vc 1 1 1 1
vc 1 1 1 1
vc 1 1 1 1
vc 1 1 1 1
vc 1 1 1 1
vc 1 1 1 1
vc 1 1 1 1
vc 1 1 1 1
vc 1 1 1 1
vc 1 1 1 1
vc 1 1 1 1
vc 1 1 1 1
vc 1 1 1 1
vc 1 1 1 1
vc 1 1 1 1
vc 1 1 1 1
vc 1 1 1 1
vc 1 1 1 1
vc 1 1 1 1
vc 1 1 1 1
vc 1 1 1 1
vc 1 1 1 1
vc 1 1 1 1
vc 1 1 1 1
vc 1 1 1 1
vc 1 1 1 1
vc 1 1 1 1
vc 1 1 1 1
vc 1 1 1 1
vc 1 1 1 1
vc 1 1 1 1
vc 1 1 1 1
vc 1 1 1 1
vc 1 1 1 1
vc 1 1 1 1
vc 1 1 1 1
vc 1 1 1 1
vc 1 1 1 1
vc 1 1 1 1
vc 1 1 1 1
vc 1 1 1 1
vc 1 1 1 1
vc 1 1 1 1
vc 1 1 1 1
vc 1 1 1 1
vc 1 1 1 1
vc 1 1 1 1
vc 1 1 1 1
vc 1 1 1 1
vc 1 1 1 1
vc 1 1 1 1
vc 1 1 1 1
vc 1 1 1 1
vc 1 1 1 1
vc 1 1 1 1
vc 1 1 1 1
vc 1 1 1 1
vc 1 1 1 1
vc 1 1 1 1
vc 1 1 1 1
vc 1 1 1 1
vc 1 1 1 1
vc 1 1 1 1
vc 1 1 1 1
vc 1 1 1 1
vc 1 1 1 1
vc 1 1 1 1
vc 1 1 1 1
vc 1 1 1 1
vc 1 1 1 1
vc 1 1 1 1
vc 1 1 1 1
vc 1 1 1 1
vc 1 1 1 1
vc 1 1 1 1
vc 1 1 1 1
vc 1 1 1 1
vc 1 1 1 1
vc 1 1 1 1
vc 1 1 1 1
vc 1 1 1 1
vc 1 1 1 1
vc 1 1 1 1
vc 1 1 1 1
vc 1 1 1 1
vc 1 1 1 1
vc 1 1 1 1
vc 1 1 1 1
vc 1 1 1 1
vc 1 1 1 1
vc 1 1 1 1
vc 1 1 1 1
vc 1 1 1 1
vc 1 1 1 1
vc 1 1 1 1
vc 1 1 1 1
vc 1 1 1 1
vc 1 1 1 1
vc 1 1 1 1
vc 1 1 1 1
vc 1 1 1 1
vc 1 1 1 1
vc 1 1 1 1
vc 1 1 1 1
vc 1 1 1 1
vc 1 1 1 1
vc 1 1 1 1
vc 1 1 1 1
vc 1 1 1 1
vc 1 1 1 1
vc 1 1 1 1
vc 1 1 1 1
vc 1 1 1 1
vc 1 1 1 1
vc 1 1 1 1
vc 1 1 1 1
vc 1 1 1 1
vc 1 1 1 1
vc 1 1 1 1
vc 1 1 1 1
vc 1 1 1 1
vc 1 1 1 1
vc 1 1 1 1
vc 1 1 1 1
vc 1 1 1 1
vc 1 1 1 1

usemtl Default-Diffuse
usemap Default-Diffuse
f 3/3/3 2/2/2 1/1/1
f 3/3/3 4/4/4 2/2/2
f 7/7/7 6/6/6 5/5/5
f 7/7/7 8/8/8 6/6/6
f 11/11/11 10/10/10 9/9/9
f 11/11/11 12/12/12 10/10/10
f 15/15/15 14/14/14 13/13/13
f 15/15/15 16/16/16 14/14/14
f 19/19/19 18/18/18 17/17/17
f 19/19/19 20/20/20 18/18/18
f 23/23/23 22/22/22 21/21/21
f 23/23/23 24/24/24 22/22/22
f 25/25/25 4/4/4 3/3/3
f 25/25/25 26/26/26 4/4/4
f 27/27/27 8/8/8 7/7/7
f 27/27/27 28/28/28 8/8/8
f 29/29/29 12/12/12 11/11/11
f 29/29/29 30/30/30 12/12/12
f 31/31/31 16/16/16 15/15/15
f 31/31/31 32/32/32 16/16/16
f 33/33/33 20/20/20 19/19/19
f 33/33/33 34/34/34 20/20/20
f 35/35/35 24/24/24 23/23/23
f 35/35/35 36/36/36 24/24/24
f 37/37/37 26/26/26 25/25/25
f 37/37/37 38/38/38 26/26/26
f 39/39/39 28/28/28 27/27/27
f 39/39/39 40/40/40 28/28/28
f 41/41/41 30/30/30 29/29/29
f 41/41/41 42/42/42 30/30/30
f 43/43/43 32/32/32 31/31/31
f 43/43/43 44/44/44 32/32/32
f 45/45/45 34/34/34 33/33/33
f 45/45/45 46/46/46 34/34/34
f 47/47/47 36/36/36 35/35/35
f 47/47/47 48/48/48 36/36/36
f 49/49/49 38/38/38 37/37/37
f 49/49/49 50/50/50 38/38/38
f 51/51/51 40/40/40 39/39/39
f 51/51/51 52/52/52 40/40/40
f 53/53/53 42/42/42 41/41/41
f 53/53/53 54/54/54 42/42/42
f 55/55/55 44/44/44 43/43/43
f 55/55/55 56/56/56 44/44/44
f 57/57/57 46/46/46 45/45/45
f 57/57/57 58/58/58 46/46/46
f 59/59/59 48/48/48 47/47/47
f 59/59/59 60/60/60 48/48/48
f 61/61/61 50/50/50 49/49/49
f 61/61/61 62/62/62 50/50/50
f 63/63/63 52/52/52 51/51/51
f 63/63/63 64/64/64 52/52/52
f 65/65/65 54/54/54 53/53/53
f 65/65/65 66/66/66 54/54/54
f 67/67/67 56/56/56 55/55/55
f 67/67/67 68/68/68 56/56/56
f 69/69/69 58/58/58 57/57/57
f 69/69/69 70/70/70 58/58/58
f 71/71/71 60/60/60 59/59/59
f 71/71/71 72/72/72 60/60/60
f 73/73/73 62/62/62 61/61/61
f 73/73/73 74/74/74 62/62/62
f 75/75/75 64/64/64 63/63/63
f 75/75/75 76/76/76 64/64/64
f 77/77/77 66/66/66 65/65/65
f 77/77/77 78/78/78 66/66/66
f 79/79/79 68/68/68 67/67/67
f 79/79/79 80/80/80 68/68/68
f 81/81/81 70/70/70 69/69/69
f 81/81/81 82/82/82 70/70/70
f 83/83/83 72/72/72 71/71/71
f 83/83/83 84/84/84 72/72/72
f 85/85/85 74/74/74 73/73/73
f 85/85/85 86/86/86 74/74/74
f 87/87/87 76/76/76 75/75/75
f 87/87/87 88/88/88 76/76/76
f 89/89/89 78/78/78 77/77/77
f 89/89/89 90/90/90 78/78/78
f 91/91/91 80/80/80 79/79/79
f 91/91/91 92/92/92 80/80/80
f 93/93/93 82/82/82 81/81/81
f 93/93/93 94/94/94 82/82/82
f 95/95/95 84/84/84 83/83/83
f 95/95/95 96/96/96 84/84/84
f 97/97/97 86/86/86 85/85/85
f 97/97/97 98/98/98 86/86/86
f 99/99/99 88/88/88 87/87/87
f 99/99/99 100/100/100 88/88/88
f 101/101/101 90/90/90 89/89/89
f 101/101/101 102/102/102 90/90/90
f 103/103/103 92/92/92 91/91/91
f 103/103/103 104/104/104 92/92/92
f 105/105/105 94/94/94 93/93/93
f 105/105/105 106/106/106 94/94/94
f 107/107/107 96/96/96 95/95/95
f 107/107/107 108/108/108 96/96/96
f 109/109/109 98/98/98 97/97/97
f 109/109/109 110/110/110 98/98/98
f 111/111/111 100/100/100 99/99/99
f 111/111/111 112/112/112 100/100/100
f 113/113/113 102/102/102 101/101/101
f 113/113/113 114/114/114 102/102/102
f 115/115/115 104/104/104 103/103/103
f 115/115/115 116/116/116 104/104/104
f 117/117/117 106/106/106 105/105/105
f 117/117/117 118/118/118 106/106/106
f 119/119/119 108/108/108 107/107/107
f 119/119/119 120/120/120 108/108/108
f 121/121/121 110/110/110 109/109/109
f 121/121/121 122/122/122 110/110/110
f 123/123/123 112/112/112 111/111/111
f 123/123/123 124/124/124 112/112/112
f 125/125/125 114/114/114 113/113/113
f 125/125/125 126/126/126 114/114/114
f 127/127/127 116/116/116 115/115/115
f 127/127/127 128/128/128 116/116/116
f 129/129/129 118/118/118 117/117/117
f 129/129/129 130/130/130 118/118/118
f 131/131/131 120/120/120 119/119/119
f 131/131/131 132/132/132 120/120/120
f 133/133/133 122/122/122 121/121/121
f 133/133/133 134/134/134 122/122/122
f 135/135/135 124/124/124 123/123/123
f 135/135/135 136/136/136 124/124/124
f 137/137/137 126/126/126 125/125/125
f 137/137/137 138/138/138 126/126/126
f 139/139/139 128/128/128 127/127/127
f 139/139/139 140/140/140 128/128/128
f 141/141/141 130/130/130 129/129/129
f 141/141/141 142/142/142 130/130/130
f 143/143/143 132/132/132 131/131/131
f 143/143/143 144/144/144 132/132/132
f 145/145/145 134/134/134 133/133/133
f 145/145/145 146/146/146 134/134/134
f 147/147/147 136/136/136 135/135/135
f 147/147/147 148/148/148 136/136/136
f 149/149/149 138/138/138 137/137/137
f 149/149/149 150/150/150 138/138/138
f 151/151/151 140/140/140 139/139/139
f 151/151/151 152/152/152 140/140/140
f 153/153/153 142/142/142 141/141/141
f 153/153/153 154/154/154 142/142/142
f 155/155/155 144/144/144 143/143/143
f 155/155/155 156/156/156 144/144/144
f 157/157/157 146/146/146 145/145/145
f 157/157/157 158/158/158 146/146/146
f 159/159/159 148/148/148 147/147/147
f 159/159/159 160/160/160 148/148/148
f 161/161/161 150/150/150 149/149/149
f 161/161/161 162/162/162 150/150/150
f 163/163/163 152/152/152 151/151/151
f 163/163/163 164/164/164 152/152/152
f 165/165/165 154/154/154 153/153/153
f 165/165/165 166/166/166 154/154/154
f 167/167/167 156/156/156 155/155/155
f 167/167/167 168/168/168 156/156/156
f 169/169/169 158/158/158 157/157/157
f 169/169/169 170/170/170 158/158/158
f 171/171/171 160/160/160 159/159/159
f 171/171/171 172/172/172 160/160/160
f 173/173/173 162/162/162 161/161/161
f 173/173/173 174/174/174 162/162/162
f 175/175/175 164/164/164 163/163/163
f 175/175/175 176/176/176 164/164/164
f 177/177/177 166/166/166 165/165/165
f 177/177/177 178/178/178 166/166/166
f 179/179/179 168/168/168 167/167/167
f 179/179/179 180/180/180 168/168/168
f 181/181/181 170/170/170 169/169/169
f 181/181/181 182/182/182 170/170/170
f 183/183/183 172/172/172 171/171/171
f 183/183/183 184/184/184 172/172/172
f 185/185/185 174/174/174 173/173/173
f 185/185/185 186/186/186 174/174/174
f 187/187/187 176/176/176 175/175/175
f 187/187/187 188/188/188 176/176/176
f 189/189/189 178/178/178 177/177/177
f 189/189/189 190/190/190 178/178/178
f 191/191/191 180/180/180 179/179/179
f 191/191/191 192/192/192 180/180/180
f 193/193/193 182/182/182 181/181/181
f 193/193/193 194/194/194 182/182/182
f 195/195/195 184/184/184 183/183/183
f 195/195/195 196/196/196 184/184/184
f 197/197/197 186/186/186 185/185/185
f 197/197/197 198/198/198 186/186/186
f 199/199/199 188/188/188 187/187/187
f 199/199/199 200/200/200 188/188/188
f 201/201/201 190/190/190 189/189/189
f 201/201/201 202/202/202 190/190/190
f 203/203/203 192/192/192 191/191/191
f 203/203/203 204/204/204 192/192/192
f 205/205/205 194/194/194 193/193/193
f 205/205/205 206/206/206 194/194/194
f 207/207/207 196/196/196 195/195/195
f 207/207/207 208/208/208 196/196/196
f 209/209/209 198/198/198 197/197/197
f 209/209/209 210/210/210 198/198/198
f 211/211/211 200/200/200 199/199/199
f 211/211/211 212/212/212 200/200/200
f 213/213/213 202/202/202 201/201/201
f 213/213/213 214/214/214 202/202/202
f 215/215/215 204/204/204 203/203/203
f 215/215/215 216/216/216 204/204/204
f 217/217/217 206/206/206 205/205/205
f 217/217/217 218/218/218 206/206/206
f 219/219/219 208/208/208 207/207/207
f 219/219/219 220/220/220 208/208/208
f 221/221/221 210/210/210 209/209/209
f 221/221/221 222/222/222 210/210/210
f 223/223/223 212/212/212 211/211/211
f 223/223/223 224/224/224 212/212/212
f 225/225/225 214/214/214 213/213/213
f 225/225/225 226/226/226 214/214/214
f 227/227/227 216/216/216 215/215/215
f 227/227/227 228/228/228 216/216/216
f 229/229/229 218/218/218 217/217/217
f 229/229/229 230/230/230 218/218/218
f 231/231/231 220/220/220 219/219/219
f 231/231/231 232/232/232 220/220/220
f 233/233/233 222/222/222 221/221/221
f 233/233/233 234/234/234 222/222/222
f 235/235/235 224/224/224 223/223/223
f 235/235/235 236/236/236 224/224/224
f 237/237/237 226/226/226 225/225/225
f 237/237/237 238/238/238 226/226/226
f 239/239/239 228/228/228 227/227/227
f 239/239/239 240/240/240 228/228/228
f 241/241/241 230/230/230 229/229/229
f 241/241/241 242/242/242 230/230/230
f 243/243/243 232/232/232 231/231/231
f 243/243/243 244/244/244 232/232/232
f 245/245/245 234/234/234 233/233/233
f 245/245/245 246/246/246 234/234/234
f 247/247/247 236/236/236 235/235/235
f 247/247/247 248/248/248 236/236/236
f 249/249/249 238/238/238 237/237/237
f 249/249/249 250/250/250 238/238/238
f 251/251/251 240/240/240 239/239/239
f 251/251/251 252/252/252 240/240/240
f 253/253/253 242/242/242 241/241/241
f 253/253/253 254/254/254 242/242/242
f 255/255/255 244/244/244 243/243/243
f 255/255/255 256/256/256 244/244/244
f 257/257/257 246/246/246 245/245/245
f 257/257/257 258/258/258 246/246/246
f 259/259/259 248/248/248 247/247/247
f 259/259/259 260/260/260 248/248/248
f 261/261/261 250/250/250 249/249/249
f 261/261/261 262/262/262 250/250/250
f 263/263/263 252/252/252 251/251/251
f 263/263/263 264/264/264 252/252/252
f 265/265/265 254/254/254 253/253/253
f 265/265/265 266/266/266 254/254/254
f 267/267/267 256/256/256 255/255/255
f 267/267/267 268/268/268 256/256/256
f 269/269/269 258/258/258 257/257/257
f 269/269/269 270/270/270 258/258/258
f 271/271/271 260/260/260 259/259/259
f 271/271/271 272/272/272 260/260/260
f 273/273/273 262/262/262 261/261/261
f 273/273/273 274/274/274 262/262/262
f 275/275/275 264/264/264 263/263/263
f 275/275/275 276/276/276 264/264/264
