g tube
v -1.881864 0.8267197 -3.423789
v -1.881134 0.8254241 -3.423986
v -1.884027 0.8278773 -3.439427
v -1.883288 0.826579 -3.439563
v -1.881134 0.8254241 -3.423986
v -1.879648 0.8254241 -3.424191
v -1.883288 0.826579 -3.439563
v -1.881799 0.826579 -3.439748
v -1.879648 0.8254241 -3.424191
v -1.878892 0.8267197 -3.4242
v -1.881799 0.826579 -3.439748
v -1.88105 0.8278773 -3.439798
v -1.878892 0.8267197 -3.4242
v -1.879622 0.8280153 -3.424003
v -1.88105 0.8278773 -3.439798
v -1.881789 0.8291757 -3.439662
v -1.879622 0.8280153 -3.424003
v -1.881108 0.8280153 -3.423797
v -1.881789 0.8291757 -3.439662
v -1.883277 0.8291757 -3.439476
v -1.881108 0.8280153 -3.423797
v -1.881864 0.8267197 -3.423789
v -1.883277 0.8291757 -3.439476
v -1.884027 0.8278773 -3.439427
v -1.885791 0.8277732 -3.455268
v -1.885046 0.8264742 -3.455355
v -1.885046 0.8264742 -3.455355
v -1.883555 0.8264742 -3.455525
v -1.883555 0.8264742 -3.455525
v -1.88281 0.8277732 -3.455608
v -1.88281 0.8277732 -3.455608
v -1.883555 0.8290722 -3.455522
v -1.883555 0.8290722 -3.455522
v -1.885045 0.8290722 -3.455352
v -1.885045 0.8290722 -3.455352
v -1.885791 0.8277732 -3.455268
v -1.887628 0.8279215 -3.471021
v -1.886897 0.8266252 -3.471206
v -1.886897 0.8266252 -3.471206
v -1.88541 0.8266252 -3.471408
v -1.88541 0.8266252 -3.471408
v -1.884656 0.8279215 -3.471424
v -1.884656 0.8279215 -3.471424
v -1.885387 0.8292177 -3.471239
v -1.885387 0.8292177 -3.471239
v -1.886874 0.8292177 -3.471038
v -1.886874 0.8292177 -3.471038
v -1.887628 0.8279215 -3.471021
v -1.890015 0.8298361 -3.486435
v -1.889332 0.8285696 -3.486859
v -1.889332 0.8285696 -3.486859
v -1.887859 0.8285696 -3.487141
v -1.887859 0.8285696 -3.487141
v -1.887068 0.8298361 -3.486998
v -1.887068 0.8298361 -3.486998
v -1.887751 0.8311027 -3.486573
v -1.887751 0.8311027 -3.486573
v -1.889224 0.8311027 -3.486292
v -1.889224 0.8311027 -3.486292
v -1.890015 0.8298361 -3.486435
v -1.893418 0.8350314 -3.501256
v -1.892856 0.833867 -3.502016
v -1.892856 0.833867 -3.502016
v -1.891414 0.833867 -3.50243
v -1.891414 0.833867 -3.50243
v -1.890535 0.8350314 -3.502083
v -1.890535 0.8350314 -3.502083
v -1.891097 0.8361959 -3.501323
v -1.891097 0.8361959 -3.501323
v -1.892539 0.8361959 -3.500909
v -1.892539 0.8361959 -3.500909
v -1.893418 0.8350314 -3.501256
v -1.898336 0.8450406 -3.515147
v -1.897979 0.8440486 -3.516214
v -1.897979 0.8440486 -3.516214
v -1.896601 0.8440486 -3.516808
v -1.896601 0.8440486 -3.516808
v -1.89558 0.8450406 -3.516334
v -1.89558 0.8450406 -3.516334
v -1.895938 0.8460327 -3.515267
v -1.895938 0.8460327 -3.515267
v -1.897315 0.8460327 -3.514674
v -1.897315 0.8460327 -3.514674
v -1.898336 0.8450406 -3.515147
v -1.905002 0.8602086 -3.527736
v -1.904853 0.8593626 -3.528966
v -1.904853 0.8593626 -3.528966
v -1.903559 0.8593626 -3.529724
v -1.903559 0.8593626 -3.529724
v -1.902414 0.8602086 -3.529253
v -1.902414 0.8602086 -3.529253
v -1.902562 0.8610545 -3.528023
v -1.902562 0.8610545 -3.528023
v -1.903857 0.8610545 -3.527265
v -1.903857 0.8610545 -3.527265
v -1.905002 0.8602086 -3.527736
v -1.912825 0.8787887 -3.53971
v -1.912778 0.8780082 -3.54099
v -1.912778 0.8780082 -3.54099
v -1.911531 0.8780082 -3.541823
v -1.911531 0.8780082 -3.541823
v -1.91033 0.8787887 -3.541376
v -1.91033 0.8787887 -3.541376
v -1.910377 0.8795691 -3.540096
v -1.910377 0.8795691 -3.540096
v -1.911625 0.8795691 -3.539263
v -1.911625 0.8795691 -3.539263
v -1.912825 0.8787887 -3.53971
v -1.921095 0.8988723 -3.551816
v -1.921031 0.8980942 -3.553097
v -1.921031 0.8980942 -3.553097
v -1.919773 0.8980942 -3.553912
v -1.919773 0.8980942 -3.553912
v -1.918578 0.8988723 -3.553447
v -1.918578 0.8988723 -3.553447
v -1.918641 0.8996505 -3.552166
v -1.918641 0.8996505 -3.552166
v -1.9199 0.8996505 -3.551351
v -1.9199 0.8996505 -3.551351
v -1.921095 0.8988723 -3.551816
v -1.929073 0.9185511 -3.564795
v -1.928885 0.917716 -3.566027
v -1.928885 0.917716 -3.566027
v -1.927565 0.917716 -3.566738
v -1.927565 0.917716 -3.566738
v -1.926432 0.9185511 -3.566219
v -1.926432 0.9185511 -3.566219
v -1.92662 0.9193862 -3.564987
v -1.92662 0.9193862 -3.564987
v -1.92794 0.9193862 -3.564275
v -1.92794 0.9193862 -3.564275
v -1.929073 0.9185511 -3.564795
v -1.935995 0.9359208 -3.579375
v -1.935626 0.9349964 -3.580497
v -1.935626 0.9349964 -3.580497
v -1.934227 0.934992 -3.581037
v -1.934227 0.934992 -3.581037
v -1.933195 0.935912 -3.580454
v -1.933195 0.935912 -3.580454
v -1.933564 0.9368365 -3.579331
v -1.933564 0.9368365 -3.579331
v -1.934963 0.9368408 -3.578792
v -1.934963 0.9368408 -3.578792
v -1.935995 0.9359208 -3.579375
v -1.941079 0.9515519 -3.596176
v -1.940574 0.9505592 -3.597181
v -1.940574 0.9505592 -3.597181
v -1.939122 0.9505447 -3.597556
v -1.939122 0.9505447 -3.597556
v -1.938174 0.9515227 -3.596927
v -1.938174 0.9515227 -3.596927
v -1.938679 0.9525154 -3.595922
v -1.938679 0.9525154 -3.595922
v -1.940132 0.95253 -3.595546
v -1.940132 0.95253 -3.595546
v -1.941079 0.9515519 -3.596176
v -1.944777 0.9669159 -3.614644
v -1.944218 0.9658806 -3.615575
v -1.944218 0.9658806 -3.615575
v -1.942748 0.9658553 -3.615872
v -1.942748 0.9658553 -3.615872
v -1.941837 0.9668652 -3.615239
v -1.941837 0.9668652 -3.615239
v -1.942396 0.9679006 -3.614309
v -1.942396 0.9679006 -3.614309
v -1.943866 0.9679258 -3.614011
v -1.943866 0.9679258 -3.614011
v -1.944777 0.9669159 -3.614644
v -1.948166 0.9814649 -3.633757
v -1.947618 0.980391 -3.634649
v -1.947618 0.980391 -3.634649
v -1.946152 0.9803559 -3.634967
v -1.946152 0.9803559 -3.634967
v -1.945235 0.9813948 -3.634392
v -1.945235 0.9813948 -3.634392
v -1.945783 0.9824687 -3.6335
v -1.945783 0.9824687 -3.6335
v -1.947249 0.9825037 -3.633182
v -1.947249 0.9825037 -3.633182
v -1.948166 0.9814649 -3.633757
v -1.952307 0.9946508 -3.652505
v -1.951821 0.9935385 -3.653387
v -1.951821 0.9935385 -3.653387
v -1.950386 0.9934962 -3.65382
v -1.950386 0.9934962 -3.65382
v -1.949435 0.9945662 -3.65337
v -1.949435 0.9945662 -3.65337
v -1.949921 0.9956785 -3.652489
v -1.949921 0.9956785 -3.652489
v -1.951356 0.9957209 -3.652056
v -1.951356 0.9957209 -3.652056
v -1.952307 0.9946508 -3.652505
v -1.958241 1.005911 -3.669885
v -1.957848 1.004758 -3.670761
v -1.957848 1.004758 -3.670761
v -1.95649 1.004727 -3.671396
v -1.95649 1.004727 -3.671396
v -1.955524 1.00585 -3.671156
v -1.955524 1.00585 -3.671156
v -1.955917 1.007003 -3.67028
v -1.955917 1.007003 -3.67028
v -1.957275 1.007033 -3.669645
v -1.957275 1.007033 -3.669645
v -1.958241 1.005911 -3.669885
v -1.966937 1.014624 -3.685104
v -1.96659 1.01343 -3.685943
v -1.96659 1.01343 -3.685943
v -1.965356 1.013445 -3.686796
v -1.965356 1.013445 -3.686796
v -1.964469 1.014654 -3.686809
v -1.964469 1.014654 -3.686809
v -1.964815 1.015848 -3.68597
v -1.964815 1.015848 -3.68597
v -1.966049 1.015833 -3.685117
v -1.966049 1.015833 -3.685117
v -1.966937 1.014624 -3.685104
v -1.978218 1.020465 -3.698673
v -1.977847 1.019251 -3.69947
v -1.977847 1.019251 -3.69947
v -1.976738 1.019325 -3.700478
v -1.976738 1.019325 -3.700478
v -1.976001 1.020614 -3.700688
v -1.976001 1.020614 -3.700688
v -1.976372 1.021829 -3.699891
v -1.976372 1.021829 -3.699891
v -1.977481 1.021755 -3.698883
v -1.977481 1.021755 -3.698883
v -1.978218 1.020465 -3.698673
v -1.991292 1.024273 -3.711196
v -1.990877 1.023064 -3.711981
v -1.990877 1.023064 -3.711981
v -1.989858 1.023193 -3.713074
v -1.989858 1.023193 -3.713074
v -1.989254 1.024532 -3.713383
v -1.989254 1.024532 -3.713383
v -1.989669 1.025741 -3.712598
v -1.989669 1.025741 -3.712598
v -1.990688 1.025611 -3.711504
v -1.990688 1.025611 -3.711504
v -1.991292 1.024273 -3.711196
v -2.005363 1.026987 -3.723176
v -2.004912 1.025801 -3.723977
v -2.004912 1.025801 -3.723977
v -2.003932 1.025981 -3.725098
v -2.003932 1.025981 -3.725098
v -2.003402 1.027348 -3.725419
v -2.003402 1.027348 -3.725419
v -2.003853 1.028533 -3.724618
v -2.003853 1.028533 -3.724618
v -2.004833 1.028353 -3.723497
v -2.004833 1.028353 -3.723497
v -2.005363 1.026987 -3.723176
v -2.019629 1.029546 -3.735128
v -2.019151 1.028394 -3.735961
v -2.019151 1.028394 -3.735961
v -2.018148 1.028623 -3.737053
v -2.018148 1.028623 -3.737053
v -2.017624 1.030005 -3.737312
v -2.017624 1.030005 -3.737312
v -2.018103 1.031157 -3.736479
v -2.018103 1.031157 -3.736479
v -2.019105 1.030927 -3.735387
v -2.019105 1.030927 -3.735387
v -2.019629 1.029546 -3.735128
v -2.033225 1.032913 -3.74751
v -2.032732 1.031782 -3.748363
v -2.032732 1.031782 -3.748363
v -2.031703 1.032036 -3.749424
v -2.031703 1.032036 -3.749424
v -2.031166 1.033421 -3.749633
v -2.031166 1.033421 -3.749633
v -2.031659 1.034552 -3.74878
v -2.031659 1.034552 -3.74878
v -2.032689 1.034299 -3.747719
v -2.032689 1.034299 -3.747719
v -2.033225 1.032913 -3.74751

vn -0.9905691 0 0.1370139
vn -0.5039418 -0.8637186 0.005722096
vn -0.9923047 0 0.1238195
vn -0.4997287 -0.8655447 0.03321988
vn -0.5039418 -0.8637186 0.005722096
vn 0.4866062 -0.8637002 -0.1312875
vn -0.4997287 -0.8655447 0.03321988
vn 0.4925743 -0.8655416 -0.09059934
vn 0.4866062 -0.8637002 -0.1312875
vn 0.9905691 0 -0.1370139
vn 0.4925743 -0.8655416 -0.09059934
vn 0.9923047 0 -0.1238195
vn 0.9905691 0 -0.1370139
vn 0.5039418 0.8637186 -0.005722096
vn 0.9923047 0 -0.1238195
vn 0.4997287 0.8655447 -0.03321988
vn 0.5039418 0.8637186 -0.005722096
vn -0.4866062 0.8637002 0.1312875
vn 0.4997287 0.8655447 -0.03321988
vn -0.4925743 0.8655416 0.09059934
vn -0.4866062 0.8637002 0.1312875
vn -0.9905691 0 0.1370139
vn -0.4925743 0.8655416 0.09059934
vn -0.9923047 0 0.1238195
vn -0.9935578 0 0.1133269
vn -0.4969404 -0.8660099 0.05547168
vn -0.4969404 -0.8660099 0.05547168
vn 0.4966339 -0.8660297 -0.05785717
vn 0.4966339 -0.8660297 -0.05785717
vn 0.9935578 0 -0.1133269
vn 0.9935578 0 -0.1133269
vn 0.4969404 0.8660099 -0.05547168
vn 0.4969404 0.8660099 -0.05547168
vn -0.4966339 0.8660297 0.05785717
vn -0.4966339 0.8660297 0.05785717
vn -0.9935578 0 0.1133269
vn -0.9909184 0 0.1344642
vn -0.5030589 -0.8641805 0.01112611
vn -0.5030589 -0.8641805 0.01112611
vn 0.4878681 -0.8641599 -0.1233379
vn 0.4878681 -0.8641599 -0.1233379
vn 0.9909184 0 -0.1344642
vn 0.9909184 0 -0.1344642
vn 0.5030589 0.8641805 -0.01112611
vn 0.5030589 0.8641805 -0.01112611
vn -0.4878681 0.8641599 0.1233379
vn -0.4878681 0.8641599 0.1233379
vn -0.9909184 0 0.1344642
vn -0.9822229 0 0.1877183
vn -0.5272304 -0.8443714 -0.09520984
vn -0.5272304 -0.8443714 -0.09520984
vn 0.4549828 -0.8443606 -0.2829238
vn 0.4549828 -0.8443606 -0.2829238
vn 0.9822229 0 -0.1877183
vn 0.9822229 0 -0.1877183
vn 0.5272304 0.8443714 0.09520984
vn 0.5272304 0.8443714 0.09520984
vn -0.4549828 0.8443606 0.2829238
vn -0.4549828 0.8443606 0.2829238
vn -0.9822229 0 0.1877183
vn -0.9612656 0 0.2756237
vn -0.5864483 -0.7763147 -0.2311142
vn -0.5864483 -0.7763147 -0.2311142
vn 0.3747896 -0.7762818 -0.506872
vn 0.3747896 -0.7762818 -0.506872
vn 0.9612656 0 -0.2756237
vn 0.9612656 0 -0.2756237
vn 0.5864483 0.7763147 0.2311142
vn 0.5864483 0.7763147 0.2311142
vn -0.3747896 0.7762818 0.506872
vn -0.3747896 0.7762818 0.506872
vn -0.9612656 0 0.2756237
vn -0.9184241 0 0.3955971
vn -0.6803811 -0.6613867 -0.3156727
vn -0.6803811 -0.6613867 -0.3156727
vn 0.2380223 -0.6613762 -0.7112854
vn 0.2380223 -0.6613762 -0.7112854
vn 0.9184241 0 -0.3955971
vn 0.9184241 0 -0.3955971
vn 0.6803811 0.6613867 0.3156727
vn 0.6803811 0.6613867 0.3156727
vn -0.2380223 0.6613762 0.7112854
vn -0.2380223 0.6613762 0.7112854
vn -0.9184241 0 0.3955971
vn -0.8628522 0 0.5054564
vn -0.7636604 -0.5639833 -0.314238
vn -0.7636604 -0.5639833 -0.314238
vn 0.09917962 -0.5639649 -0.8198213
vn 0.09917962 -0.5639649 -0.8198213
vn 0.8628522 0 -0.5054564
vn 0.8628522 0 -0.5054564
vn 0.7636604 0.5639833 0.314238
vn 0.7636604 0.5639833 0.314238
vn -0.09917962 0.5639649 0.8198213
vn -0.09917962 0.5639649 0.8198213
vn -0.8628522 0 0.5054564
vn -0.8316098 0 0.5553603
vn -0.8003058 -0.5202783 -0.2980285
vn -0.8003058 -0.5202783 -0.2980285
vn 0.03131361 -0.5202906 -0.853415
vn 0.03131361 -0.5202906 -0.853415
vn 0.8316098 0 -0.5553603
vn 0.8316098 0 -0.5553603
vn 0.8003058 0.5202783 0.2980285
vn 0.8003058 0.5202783 0.2980285
vn -0.03131361 0.5202906 0.853415
vn -0.03131361 0.5202906 0.853415
vn -0.8316098 0 0.5553603
vn -0.8392417 0 0.5437587
vn -0.7967033 -0.5187513 -0.3100984
vn -0.7967033 -0.5187513 -0.3100984
vn 0.04259753 -0.51876 -0.853858
vn 0.04259753 -0.51876 -0.853858
vn 0.8392417 0 -0.5437587
vn 0.8392417 0 -0.5437587
vn 0.7967033 0.5187513 0.3100984
vn 0.7967033 0.5187513 0.3100984
vn -0.04259753 0.51876 0.853858
vn -0.04259753 0.51876 0.853858
vn -0.8392417 0 0.5437587
vn -0.8802056 0 0.4745926
vn -0.7548998 -0.5567376 -0.3466547
vn -0.7548998 -0.5567376 -0.3466547
vn 0.1252566 -0.5567799 -0.8211619
vn 0.1252566 -0.5567799 -0.8211619
vn 0.8802056 0 -0.4745926
vn 0.8802056 0 -0.4745926
vn 0.7548998 0.5567376 0.3466547
vn 0.7548998 0.5567376 0.3466547
vn -0.1252566 0.5567799 0.8211619
vn -0.1252566 0.5567799 0.8211619
vn -0.8802056 0 0.4745926
vn -0.9330689 0.002940427 0.3596857
vn -0.6875839 -0.6133578 -0.3886136
vn -0.6875839 -0.6133578 -0.3886136
vn 0.2454873 -0.6162614 -0.7483032
vn 0.2454873 -0.6162614 -0.7483032
vn 0.9330689 -0.002940427 -0.3596857
vn 0.9330689 -0.002940427 -0.3596857
vn 0.6875839 0.6133578 0.3886136
vn 0.6875839 0.6133578 0.3886136
vn -0.2454873 0.6162614 0.7483032
vn -0.2454873 0.6162614 0.7483032
vn -0.9330689 0.002940427 0.3596857
vn -0.968111 0.00973515 0.2503324
vn -0.6314721 -0.6520549 -0.4196039
vn -0.6314721 -0.6520549 -0.4196039
vn 0.3366639 -0.6618037 -0.6698309
vn 0.3366639 -0.6618037 -0.6698309
vn 0.968111 -0.00973515 -0.2503324
vn 0.968111 -0.00973515 -0.2503324
vn 0.6314721 0.6520549 0.4196039
vn 0.6314721 0.6520549 0.4196039
vn -0.3366639 0.6618037 0.6698309
vn -0.3366639 0.6618037 0.6698309
vn -0.968111 0.00973515 0.2503324
vn -0.9800137 0.01688857 0.1982122
vn -0.6070855 -0.6733253 -0.4219956
vn -0.6070855 -0.6733253 -0.4219956
vn 0.3728771 -0.6901643 -0.6201903
vn 0.3728771 -0.6901643 -0.6201903
vn 0.9800137 -0.01688857 -0.1982122
vn 0.9800137 -0.01688857 -0.1982122
vn 0.6070855 0.6733253 0.4219956
vn 0.6070855 0.6733253 0.4219956
vn -0.3728771 0.6901643 0.6201903
vn -0.3728771 0.6901643 0.6201903
vn -0.9800137 0.01688857 0.1982122
vn -0.9770185 0.02336452 0.2118701
vn -0.6113688 -0.6925483 -0.3828903
vn -0.6113688 -0.6925483 -0.3828903
vn 0.3656513 -0.7159248 -0.5947695
vn 0.3656513 -0.7159248 -0.5947695
vn 0.9770185 -0.02336452 -0.2118701
vn 0.9770185 -0.02336452 -0.2118701
vn 0.6113688 0.6925483 0.3828903
vn 0.6113688 0.6925483 0.3828903
vn -0.3656513 0.7159248 0.5947695
vn -0.3656513 0.7159248 0.5947695
vn -0.9770185 0.02336452 0.2118701
vn -0.9571141 0.02821353 0.2883343
vn -0.6336563 -0.71337 -0.2993039
vn -0.6336563 -0.71337 -0.2993039
vn 0.3234508 -0.7415528 -0.5877746
vn 0.3234508 -0.7415528 -0.5877746
vn 0.9571141 -0.02821353 -0.2883343
vn 0.9571141 -0.02821353 -0.2883343
vn 0.6336563 0.71337 0.2993039
vn 0.6336563 0.71337 0.2993039
vn -0.3234508 0.7415528 0.5877746
vn -0.3234508 0.7415528 0.5877746
vn -0.9571141 0.02821353 0.2883343
vn -0.9055458 0.0202663 0.4237643
vn -0.6438199 -0.7482489 -0.1600609
vn -0.6438199 -0.7482489 -0.1600609
vn 0.2617891 -0.7685186 -0.5838198
vn 0.2617891 -0.7685186 -0.5838198
vn 0.9055458 -0.0202663 -0.4237643
vn 0.9055458 -0.0202663 -0.4237643
vn 0.6438199 0.7482489 0.1600609
vn 0.6438199 0.7482489 0.1600609
vn -0.2617891 0.7685186 0.5838198
vn -0.2617891 0.7685186 0.5838198
vn -0.9055458 0.0202663 0.4237643
vn -0.8226986 -0.01017247 0.5683868
vn -0.5917441 -0.8060784 0.008741855
vn -0.5917441 -0.8060784 0.008741855
vn 0.2309444 -0.7959077 -0.5596387
vn 0.2309444 -0.7959077 -0.5596387
vn 0.8226986 0.01017247 -0.5683868
vn 0.8226986 0.01017247 -0.5683868
vn 0.5917441 0.8060784 -0.008741855
vn 0.5917441 0.8060784 -0.008741855
vn -0.2309444 0.7959077 0.5596387
vn -0.2309444 0.7959077 0.5596387
vn -0.8226986 -0.01017247 0.5683868
vn -0.7391663 -0.04959034 0.6716948
vn -0.4913848 -0.8595856 0.1401913
vn -0.4913848 -0.8595856 0.1401913
vn 0.2477816 -0.8100187 -0.5314829
vn 0.2477816 -0.8100187 -0.5314829
vn 0.7391663 0.04959034 -0.6716948
vn 0.7391663 0.04959034 -0.6716948
vn 0.4913848 0.8595856 -0.1401913
vn 0.4913848 0.8595856 -0.1401913
vn -0.2477816 0.8100187 0.5314829
vn -0.2477816 0.8100187 0.5314829
vn -0.7391663 -0.04959034 0.6716948
vn -0.6790427 -0.08614187 0.7290272
vn -0.4024475 -0.892076 0.2055152
vn -0.4024475 -0.892076 0.2055152
vn 0.276569 -0.8059444 -0.5234149
vn 0.276569 -0.8059444 -0.5234149
vn 0.6790427 0.08614187 -0.7290272
vn 0.6790427 0.08614187 -0.7290272
vn 0.4024475 0.892076 -0.2055152
vn 0.4024475 0.892076 -0.2055152
vn -0.276569 0.8059444 0.5234149
vn -0.276569 0.8059444 0.5234149
vn -0.6790427 -0.08614187 0.7290272
vn -0.6534734 -0.120316 0.7473263
vn -0.353027 -0.9108605 0.2137872
vn -0.353027 -0.9108605 0.2137872
vn 0.3004805 -0.7905791 -0.5335693
vn 0.3004805 -0.7905791 -0.5335693
vn 0.6534734 0.120316 -0.7473263
vn 0.6534734 0.120316 -0.7473263
vn 0.353027 0.9108605 -0.2137872
vn 0.353027 0.9108605 -0.2137872
vn -0.3004805 0.7905791 0.5335693
vn -0.3004805 0.7905791 0.5335693
vn -0.6534734 -0.120316 0.7473263
vn -0.6683382 -0.1530582 0.7279404
vn -0.3493528 -0.9209849 0.1724512
vn -0.3493528 -0.9209849 0.1724512
vn 0.3190159 -0.7679748 -0.555377
vn 0.3190159 -0.7679748 -0.555377
vn 0.6683382 0.1530582 -0.7279404
vn 0.6683382 0.1530582 -0.7279404
vn 0.3493528 0.9209849 -0.1724512
vn 0.3493528 0.9209849 -0.1724512
vn -0.3190159 0.7679748 0.555377
vn -0.3190159 0.7679748 0.555377
vn -0.6683382 -0.1530582 0.7279404
vn -0.6862318 -0.1691142 0.7074505
vn -0.3575425 -0.9234594 0.1392341
vn -0.3575425 -0.9234594 0.1392341
vn 0.3287025 -0.7543626 -0.5682356
vn 0.3287025 -0.7543626 -0.5682356
vn 0.6862318 0.1691142 -0.7074505
vn 0.6862318 0.1691142 -0.7074505
vn 0.3575425 0.9234594 -0.1392341
vn 0.3575425 0.9234594 -0.1392341
vn -0.3287025 0.7543626 0.5682356
vn -0.3287025 0.7543626 0.5682356
vn -0.6862318 -0.1691142 0.7074505

vt 1 0
vt 0.8333333 0
vt 1 0.04545455
vt 0.8333333 0.04545455
vt 0.8333333 0
vt 0.6666666 0
vt 0.8333333 0.04545455
vt 0.6666666 0.04545455
vt 0.6666666 0
vt 0.5 0
vt 0.6666666 0.04545455
vt 0.5 0.04545455
vt 0.5 0
vt 0.3333333 0
vt 0.5 0.04545455
vt 0.3333333 0.04545455
vt 0.3333333 0
vt 0.1666667 0
vt 0.3333333 0.04545455
vt 0.1666667 0.04545455
vt 0.1666667 0
vt 0 0
vt 0.1666667 0.04545455
vt 0 0.04545455
vt 1 0.09090909
vt 0.8333333 0.09090909
vt 0.8333333 0.09090909
vt 0.6666666 0.09090909
vt 0.6666666 0.09090909
vt 0.5 0.09090909
vt 0.5 0.09090909
vt 0.3333333 0.09090909
vt 0.3333333 0.09090909
vt 0.1666667 0.09090909
vt 0.1666667 0.09090909
vt 0 0.09090909
vt 1 0.1363636
vt 0.8333333 0.1363636
vt 0.8333333 0.1363636
vt 0.6666666 0.1363636
vt 0.6666666 0.1363636
vt 0.5 0.1363636
vt 0.5 0.1363636
vt 0.3333333 0.1363636
vt 0.3333333 0.1363636
vt 0.1666667 0.1363636
vt 0.1666667 0.1363636
vt 0 0.1363636
vt 1 0.1818182
vt 0.8333333 0.1818182
vt 0.8333333 0.1818182
vt 0.6666666 0.1818182
vt 0.6666666 0.1818182
vt 0.5 0.1818182
vt 0.5 0.1818182
vt 0.3333333 0.1818182
vt 0.3333333 0.1818182
vt 0.1666667 0.1818182
vt 0.1666667 0.1818182
vt 0 0.1818182
vt 1 0.2272727
vt 0.8333333 0.2272727
vt 0.8333333 0.2272727
vt 0.6666666 0.2272727
vt 0.6666666 0.2272727
vt 0.5 0.2272727
vt 0.5 0.2272727
vt 0.3333333 0.2272727
vt 0.3333333 0.2272727
vt 0.1666667 0.2272727
vt 0.1666667 0.2272727
vt 0 0.2272727
vt 1 0.2727273
vt 0.8333333 0.2727273
vt 0.8333333 0.2727273
vt 0.6666666 0.2727273
vt 0.6666666 0.2727273
vt 0.5 0.2727273
vt 0.5 0.2727273
vt 0.3333333 0.2727273
vt 0.3333333 0.2727273
vt 0.1666667 0.2727273
vt 0.1666667 0.2727273
vt 0 0.2727273
vt 1 0.3181818
vt 0.8333333 0.3181818
vt 0.8333333 0.3181818
vt 0.6666666 0.3181818
vt 0.6666666 0.3181818
vt 0.5 0.3181818
vt 0.5 0.3181818
vt 0.3333333 0.3181818
vt 0.3333333 0.3181818
vt 0.1666667 0.3181818
vt 0.1666667 0.3181818
vt 0 0.3181818
vt 1 0.3636364
vt 0.8333333 0.3636364
vt 0.8333333 0.3636364
vt 0.6666666 0.3636364
vt 0.6666666 0.3636364
vt 0.5 0.3636364
vt 0.5 0.3636364
vt 0.3333333 0.3636364
vt 0.3333333 0.3636364
vt 0.1666667 0.3636364
vt 0.1666667 0.3636364
vt 0 0.3636364
vt 1 0.4090909
vt 0.8333333 0.4090909
vt 0.8333333 0.4090909
vt 0.6666666 0.4090909
vt 0.6666666 0.4090909
vt 0.5 0.4090909
vt 0.5 0.4090909
vt 0.3333333 0.4090909
vt 0.3333333 0.4090909
vt 0.1666667 0.4090909
vt 0.1666667 0.4090909
vt 0 0.4090909
vt 1 0.4545455
vt 0.8333333 0.4545455
vt 0.8333333 0.4545455
vt 0.6666666 0.4545455
vt 0.6666666 0.4545455
vt 0.5 0.4545455
vt 0.5 0.4545455
vt 0.3333333 0.4545455
vt 0.3333333 0.4545455
vt 0.1666667 0.4545455
vt 0.1666667 0.4545455
vt 0 0.4545455
vt 1 0.5
vt 0.8333333 0.5
vt 0.8333333 0.5
vt 0.6666666 0.5
vt 0.6666666 0.5
vt 0.5 0.5
vt 0.5 0.5
vt 0.3333333 0.5
vt 0.3333333 0.5
vt 0.1666667 0.5
vt 0.1666667 0.5
vt 0 0.5
vt 1 0.5454546
vt 0.8333333 0.5454546
vt 0.8333333 0.5454546
vt 0.6666666 0.5454546
vt 0.6666666 0.5454546
vt 0.5 0.5454546
vt 0.5 0.5454546
vt 0.3333333 0.5454546
vt 0.3333333 0.5454546
vt 0.1666667 0.5454546
vt 0.1666667 0.5454546
vt 0 0.5454546
vt 1 0.5909091
vt 0.8333333 0.5909091
vt 0.8333333 0.5909091
vt 0.6666666 0.5909091
vt 0.6666666 0.5909091
vt 0.5 0.5909091
vt 0.5 0.5909091
vt 0.3333333 0.5909091
vt 0.3333333 0.5909091
vt 0.1666667 0.5909091
vt 0.1666667 0.5909091
vt 0 0.5909091
vt 1 0.6363636
vt 0.8333333 0.6363636
vt 0.8333333 0.6363636
vt 0.6666666 0.6363636
vt 0.6666666 0.6363636
vt 0.5 0.6363636
vt 0.5 0.6363636
vt 0.3333333 0.6363636
vt 0.3333333 0.6363636
vt 0.1666667 0.6363636
vt 0.1666667 0.6363636
vt 0 0.6363636
vt 1 0.6818182
vt 0.8333333 0.6818182
vt 0.8333333 0.6818182
vt 0.6666666 0.6818182
vt 0.6666666 0.6818182
vt 0.5 0.6818182
vt 0.5 0.6818182
vt 0.3333333 0.6818182
vt 0.3333333 0.6818182
vt 0.1666667 0.6818182
vt 0.1666667 0.6818182
vt 0 0.6818182
vt 1 0.7272727
vt 0.8333333 0.7272727
vt 0.8333333 0.7272727
vt 0.6666666 0.7272727
vt 0.6666666 0.7272727
vt 0.5 0.7272727
vt 0.5 0.7272727
vt 0.3333333 0.7272727
vt 0.3333333 0.7272727
vt 0.1666667 0.7272727
vt 0.1666667 0.7272727
vt 0 0.7272727
vt 1 0.7727273
vt 0.8333333 0.7727273
vt 0.8333333 0.7727273
vt 0.6666666 0.7727273
vt 0.6666666 0.7727273
vt 0.5 0.7727273
vt 0.5 0.7727273
vt 0.3333333 0.7727273
vt 0.3333333 0.7727273
vt 0.1666667 0.7727273
vt 0.1666667 0.7727273
vt 0 0.7727273
vt 1 0.8181818
vt 0.8333333 0.8181818
vt 0.8333333 0.8181818
vt 0.6666666 0.8181818
vt 0.6666666 0.8181818
vt 0.5 0.8181818
vt 0.5 0.8181818
vt 0.3333333 0.8181818
vt 0.3333333 0.8181818
vt 0.1666667 0.8181818
vt 0.1666667 0.8181818
vt 0 0.8181818
vt 1 0.8636364
vt 0.8333333 0.8636364
vt 0.8333333 0.8636364
vt 0.6666666 0.8636364
vt 0.6666666 0.8636364
vt 0.5 0.8636364
vt 0.5 0.8636364
vt 0.3333333 0.8636364
vt 0.3333333 0.8636364
vt 0.1666667 0.8636364
vt 0.1666667 0.8636364
vt 0 0.8636364
vt 1 0.9090909
vt 0.8333333 0.9090909
vt 0.8333333 0.9090909
vt 0.6666666 0.9090909
vt 0.6666666 0.9090909
vt 0.5 0.9090909
vt 0.5 0.9090909
vt 0.3333333 0.9090909
vt 0.3333333 0.9090909
vt 0.1666667 0.9090909
vt 0.1666667 0.9090909
vt 0 0.9090909
vt 1 0.9545454
vt 0.8333333 0.9545454
vt 0.8333333 0.9545454
vt 0.6666666 0.9545454
vt 0.6666666 0.9545454
vt 0.5 0.9545454
vt 0.5 0.9545454
vt 0.3333333 0.9545454
vt 0.3333333 0.9545454
vt 0.1666667 0.9545454
vt 0.1666667 0.9545454
vt 0 0.9545454
vt 1 1
vt 0.8333333 1
vt 0.8333333 1
vt 0.6666666 1
vt 0.6666666 1
vt 0.5 1
vt 0.5 1
vt 0.3333333 1
vt 0.3333333 1
vt 0.1666667 1
vt 0.1666667 1
vt 0 1

vt2 0.005705674 0.3697176
vt2 0.00390625 0.3668002
vt2 0.03649127 0.3507279
vt2 0.03457339 0.347887
vt2 0.004854277 0.08745681
vt2 0.00390625 0.08416293
vt2 0.0394787 0.0774902
vt2 0.03848703 0.07420914
vt2 0.9793867 0.421054
vt2 0.9784223 0.4243432
vt2 0.9448543 0.4109338
vt2 0.9437985 0.4141948
vt2 0.9840333 0.2699366
vt2 0.9822327 0.2728533
vt2 0.9533301 0.2509867
vt2 0.951411 0.2538267
vt2 0.9971291 0.1721518
vt2 0.9961795 0.1754453
vt2 0.962325 0.1621189
vt2 0.9613318 0.1653995
vt2 0.004873069 0.539367
vt2 0.00390625 0.5360786
vt2 0.03966652 0.5291346
vt2 0.0386084 0.5258744
vt2 0.06581523 0.3291211
vt2 0.06380469 0.326345
vt2 0.07409481 0.066524
vt2 0.07306851 0.06325354
vt2 0.9106688 0.3987993
vt2 0.9095402 0.4020359
vt2 0.9240742 0.2294097
vt2 0.9220624 0.2321849
vt2 0.9275671 0.1510919
vt2 0.9265393 0.1543619
vt2 0.07405722 0.5169024
vt2 0.07292629 0.5136667
vt2 0.09534032 0.3081031
vt2 0.09351745 0.3052002
vt2 0.1089193 0.05569776
vt2 0.1079629 0.05240613
vt2 0.8760978 0.3869619
vt2 0.8751152 0.3902457
vt2 0.8944395 0.208294
vt2 0.8926154 0.2111961
vt2 0.8930427 0.1403345
vt2 0.8920848 0.1436256
vt2 0.1081901 0.505184
vt2 0.1072052 0.5019009
vt2 0.1268142 0.2908153
vt2 0.1254903 0.2876536
vt2 0.1441323 0.0462007
vt2 0.1433535 0.04286275
vt2 0.8405995 0.3778269
vt2 0.8399848 0.381199
vt2 0.8626692 0.1907831
vt2 0.861344 0.1939442
vt2 0.8585781 0.1309688
vt2 0.8577978 0.1343064
vt2 0.1426004 0.4963312
vt2 0.1419834 0.4929595
vt2 0.1620245 0.2803869
vt2 0.1615108 0.2769982
vt2 0.1810075 0.03904242
vt2 0.1805174 0.03564996
vt2 0.802976 0.3736238
vt2 0.802907 0.3770508
vt2 0.8269494 0.1800103
vt2 0.8264341 0.1833988
vt2 0.8228172 0.1238234
vt2 0.8223256 0.1272156
vt2 0.1785652 0.4924466
vt2 0.1784938 0.4890197
vt2 0.2027304 0.2801656
vt2 0.2031148 0.2767595
vt2 0.2224511 0.03538458
vt2 0.222322 0.03195944
vt2 0.7610941 0.3762939
vt2 0.7615594 0.37969
vt2 0.7855227 0.1793515
vt2 0.7859056 0.1827578
vt2 0.7824796 0.1198429
vt2 0.7823488 0.123268
vt2 0.2186287 0.4953866
vt2 0.2190917 0.4919902
vt2 0.2489082 0.2915038
vt2 0.2499017 0.2882237
vt2 0.2706099 0.03647039
vt2 0.2707719 0.03304635
vt2 0.7135815 0.3858407
vt2 0.7143724 0.389176
vt2 0.7386534 0.1902996
vt2 0.7396455 0.1935802
vt2 0.7349737 0.1204026
vt2 0.7351339 0.1238267
vt2 0.2648235 0.5051638
vt2 0.2656121 0.5018279
vt2 0.2991363 0.3101566
vt2 0.3003716 0.3069594
vt2 0.3242752 0.04074486
vt2 0.3245602 0.03732909
vt2 0.6614262 0.3996745
vt2 0.6623447 0.4029768
vt2 0.6880906 0.2087591
vt2 0.6893246 0.2119568
vt2 0.6815491 0.1243647
vt2 0.6818323 0.1277806
vt2 0.3164241 0.5190951
vt2 0.3173403 0.5157922
vt2 0.3518224 0.3314361
vt2 0.3530505 0.328236
vt2 0.3808644 0.04578778
vt2 0.3811214 0.04236957
vt2 0.6068741 0.4154423
vt2 0.6078119 0.418739
vt2 0.6354727 0.2300575
vt2 0.6366994 0.2332581
vt2 0.6250036 0.1294408
vt2 0.6252589 0.1328591
vt2 0.3710201 0.534767
vt2 0.3719557 0.5314696
vt2 0.4053407 0.3506668
vt2 0.4063306 0.3473849
vt2 0.4373882 0.04903146
vt2 0.4374774 0.04560532
vt2 0.5525754 0.4308742
vt2 0.5534321 0.4341931
vt2 0.5823934 0.2495149
vt2 0.583382 0.2527972
vt2 0.5683332 0.1330435
vt2 0.5684207 0.1364696
vt2 0.4259175 0.5499285
vt2 0.426772 0.546609
vt2 0.4580662 0.3631429
vt2 0.4586446 0.3597642
vt2 0.4911419 0.0483013
vt2 0.4909309 0.04488006
vt2 0.5006109 0.4434238
vt2 0.5013492 0.446771
vt2 0.5303782 0.2623695
vt2 0.5309552 0.2657484
vt2 0.5143309 0.1328342
vt2 0.514118 0.1362553
vt2 0.4788386 0.5621017
vt2 0.4795747 0.558754
vt2 0.5115203 0.3683752
vt2 0.5117385 0.3649542
vt2 0.5441117 0.04196753
vt2 0.5435937 0.03857927
vt2 0.4486993 0.4542981
vt2 0.449384 0.4576564
vt2 0.4775788 0.267947
vt2 0.4777954 0.2713681
vt2 0.4612055 0.1268993
vt2 0.4606857 0.1302873
vt2 0.5315564 0.5726599
vt2 0.5322388 0.569301
vt2 0.5670476 0.3697176
vt2 0.5670559 0.3662898
vt2 0.5984501 0.03152069
vt2 0.5977776 0.02815977
vt2 0.3946394 0.4653437
vt2 0.3952729 0.4687122
vt2 0.4223695 0.2694254
vt2 0.4223764 0.2728533
vt2 0.4067368 0.1165728
vt2 0.4060625 0.1199334
vt2 0.5860681 0.5835842
vt2 0.5866993 0.5802153
vt2 0.6224681 0.3686002
vt2 0.6223583 0.3651743
vt2 0.6525952 0.02021125
vt2 0.6519472 0.01684531
vt2 0.3401074 0.4747574
vt2 0.3405996 0.4781496
vt2 0.3669012 0.2682032
vt2 0.36679 0.2716291
vt2 0.3523333 0.1051008
vt2 0.3516836 0.1084663
vt2 0.6408258 0.5930799
vt2 0.6413158 0.5896873
vt2 0.6756499 0.3664465
vt2 0.6754967 0.3630225
vt2 0.7050007 0.01115657
vt2 0.7045647 0.007756671
vt2 0.2870566 0.4808233
vt2 0.287293 0.4842428
vt2 0.3133046 0.2657276
vt2 0.31315 0.2691515
vt2 0.2994729 0.09565783
vt2 0.2990351 0.09905749
vt2 0.6939337 0.5994015
vt2 0.6941678 0.5959817
vt2 0.7248315 0.3643761
vt2 0.7246784 0.360952
vt2 0.7540773 0.007334028
vt2 0.7540785 0.00390625
vt2 0.2374009 0.481692
vt2 0.2371982 0.4851134
vt2 0.2632657 0.2632066
vt2 0.2631112 0.2666306
vt2 0.2495551 0.09136306
vt2 0.2495545 0.09479085
vt2 0.7435827 0.6006293
vt2 0.7433777 0.597208
vt2 0.7695248 0.3625757
vt2 0.7693125 0.3591546
vt2 0.7985851 0.01113956
vt2 0.7991431 0.007757593
vt2 0.192631 0.4752645
vt2 0.1918176 0.4785943
vt2 0.2174691 0.2610684
vt2 0.2172555 0.2644895
vt2 0.2037926 0.0949862
vt2 0.2043488 0.09836845
vt2 0.7885016 0.5944135
vt2 0.787686 0.5910842
vt2 0.811864 0.3591735
vt2 0.8115317 0.355762
vt2 0.8396733 0.02142169
vt2 0.8406931 0.01814924
vt2 0.1522506 0.4609882
vt2 0.1508731 0.4641272
vt2 0.1741873 0.2575416
vt2 0.1738536 0.2609529
vt2 0.1615326 0.10549
vt2 0.1625507 0.108763
vt2 0.8291121 0.5800634
vt2 0.8277326 0.5769254
vt2 0.8538575 0.3543188
vt2 0.8534402 0.3509163
vt2 0.8791801 0.03622115
vt2 0.8804861 0.03305243
vt2 0.1146882 0.4411226
vt2 0.1129629 0.4440847
vt2 0.1315786 0.2527065
vt2 0.1311599 0.2561088
vt2 0.1213211 0.1206314
vt2 0.1226256 0.1238008
vt2 0.8667651 0.5600032
vt2 0.8650379 0.5570422
vt2 0.896167 0.3486843
vt2 0.8957184 0.3452863
vt2 0.9181164 0.05363067
vt2 0.919536 0.05051045
vt2 0.07856297 0.4182174
vt2 0.07670549 0.4210983
vt2 0.08900394 0.2471957
vt2 0.08855363 0.2505935
vt2 0.08216134 0.1383016
vt2 0.08357959 0.1414221
vt2 0.902836 0.5368951
vt2 0.9009766 0.5340154
vt2 0.9387066 0.3429107
vt2 0.938268 0.339511
vt2 0.9571649 0.07149152
vt2 0.9585245 0.06834529
vt2 0.04259918 0.3948765
vt2 0.04080546 0.3977976
vt2 0.04656745 0.2416388
vt2 0.04612757 0.2450383
vt2 0.04333314 0.1562797
vt2 0.04469109 0.1594266
vt2 0.9386482 0.5133585
vt2 0.9368525 0.5104386
vt2 0.9810886 0.3375465
vt2 0.9806631 0.3341454
vt2 0.9968038 0.08745681
vt2 0.9980891 0.08427936
vt2 0.005618467 0.3736238
vt2 0.00390625 0.3765934
vt2 0.004333069 0.2364017
vt2 0.00390625 0.2398026
vt2 0.00390625 0.1722667
vt2 0.005189706 0.1754453
vt2 0.9755297 0.4919877
vt2 0.9738152 0.4890197


vc 1 1 1 1
vc 1 1 1 1
vc 1 1 1 1
vc 1 1 1 1
vc 1 1 1 1
vc 1 1 1 1
vc 1 1 1 1
vc 1 1 1 1
vc 1 1 1 1
vc 1 1 1 1
vc 1 1 1 1
vc 1 1 1 1
vc 1 1 1 1
vc 1 1 1 1
vc 1 1 1 1
vc 1 1 1 1
vc 1 1 1 1
vc 1 1 1 1
vc 1 1 1 1
vc 1 1 1 1
vc 1 1 1 1
vc 1 1 1 1
vc 1 1 1 1
vc 1 1 1 1
vc 1 1 1 1
vc 1 1 1 1
vc 1 1 1 1
vc 1 1 1 1
vc 1 1 1 1
vc 1 1 1 1
vc 1 1 1 1
vc 1 1 1 1
vc 1 1 1 1
vc 1 1 1 1
vc 1 1 1 1
vc 1 1 1 1
vc 1 1 1 1
vc 1 1 1 1
vc 1 1 1 1
vc 1 1 1 1
vc 1 1 1 1
vc 1 1 1 1
vc 1 1 1 1
vc 1 1 1 1
vc 1 1 1 1
vc 1 1 1 1
vc 1 1 1 1
vc 1 1 1 1
vc 1 1 1 1
vc 1 1 1 1
vc 1 1 1 1
vc 1 1 1 1
vc 1 1 1 1
vc 1 1 1 1
vc 1 1 1 1
vc 1 1 1 1
vc 1 1 1 1
vc 1 1 1 1
vc 1 1 1 1
vc 1 1 1 1
vc 1 1 1 1
vc 1 1 1 1
vc 1 1 1 1
vc 1 1 1 1
vc 1 1 1 1
vc 1 1 1 1
vc 1 1 1 1
vc 1 1 1 1
vc 1 1 1 1
vc 1 1 1 1
vc 1 1 1 1
vc 1 1 1 1
vc 1 1 1 1
vc 1 1 1 1
vc 1 1 1 1
vc 1 1 1 1
vc 1 1 1 1
vc 1 1 1 1
vc 1 1 1 1
vc 1 1 1 1
vc 1 1 1 1
vc 1 1 1 1
vc 1 1 1 1
vc 1 1 1 1
vc 1 1 1 1
vc 1 1 1 1
vc 1 1 1 1
vc 1 1 1 1
vc 1 1 1 1
vc 1 1 1 1
vc 1 1 1 1
vc 1 1 1 1
vc 1 1 1 1
vc 1 1 1 1
vc 1 1 1 1
vc 1 1 1 1
vc 1 1 1 1
vc 1 1 1 1
vc 1 1 1 1
vc 1 1 1 1
vc 1 1 1 1
vc 1 1 1 1
vc 1 1 1 1
vc 1 1 1 1
vc 1 1 1 1
vc 1 1 1 1
vc 1 1 1 1
vc 1 1 1 1
vc 1 1 1 1
vc 1 1 1 1
vc 1 1 1 1
vc 1 1 1 1
vc 1 1 1 1
vc 1 1 1 1
vc 1 1 1 1
vc 1 1 1 1
vc 1 1 1 1
vc 1 1 1 1
vc 1 1 1 1
vc 1 1 1 1
vc 1 1 1 1
vc 1 1 1 1
vc 1 1 1 1
vc 1 1 1 1
vc 1 1 1 1
vc 1 1 1 1
vc 1 1 1 1
vc 1 1 1 1
vc 1 1 1 1
vc 1 1 1 1
vc 1 1 1 1
vc 1 1 1 1
vc 1 1 1 1
vc 1 1 1 1
vc 1 1 1 1
vc 1 1 1 1
vc 1 1 1 1
vc 1 1 1 1
vc 1 1 1 1
vc 1 1 1 1
vc 1 1 1 1
vc 1 1 1 1
vc 1 1 1 1
vc 1 1 1 1
vc 1 1 1 1
vc 1 1 1 1
vc 1 1 1 1
vc 1 1 1 1
vc 1 1 1 1
vc 1 1 1 1
vc 1 1 1 1
vc 1 1 1 1
vc 1 1 1 1
vc 1 1 1 1
vc 1 1 1 1
vc 1 1 1 1
vc 1 1 1 1
vc 1 1 1 1
vc 1 1 1 1
vc 1 1 1 1
vc 1 1 1 1
vc 1 1 1 1
vc 1 1 1 1
vc 1 1 1 1
vc 1 1 1 1
vc 1 1 1 1
vc 1 1 1 1
vc 1 1 1 1
vc 1 1 1 1
vc 1 1 1 1
vc 1 1 1 1
vc 1 1 1 1
vc 1 1 1 1
vc 1 1 1 1
vc 1 1 1 1
vc 1 1 1 1
vc 1 1 1 1
vc 1 1 1 1
vc 1 1 1 1
vc 1 1 1 1
vc 1 1 1 1
vc 1 1 1 1
vc 1 1 1 1
vc 1 1 1 1
vc 1 1 1 1
vc 1 1 1 1
vc 1 1 1 1
vc 1 1 1 1
vc 1 1 1 1
vc 1 1 1 1
vc 1 1 1 1
vc 1 1 1 1
vc 1 1 1 1
vc 1 1 1 1
vc 1 1 1 1
vc 1 1 1 1
vc 1 1 1 1
vc 1 1 1 1
vc 1 1 1 1
vc 1 1 1 1
vc 1 1 1 1
vc 1 1 1 1
vc 1 1 1 1
vc 1 1 1 1
vc 1 1 1 1
vc 1 1 1 1
vc 1 1 1 1
vc 1 1 1 1
vc 1 1 1 1
vc 1 1 1 1
vc 1 1 1 1
vc 1 1 1 1
vc 1 1 1 1
vc 1 1 1 1
vc 1 1 1 1
vc 1 1 1 1
vc 1 1 1 1
vc 1 1 1 1
vc 1 1 1 1
vc 1 1 1 1
vc 1 1 1 1
vc 1 1 1 1
vc 1 1 1 1
vc 1 1 1 1
vc 1 1 1 1
vc 1 1 1 1
vc 1 1 1 1
vc 1 1 1 1
vc 1 1 1 1
vc 1 1 1 1
vc 1 1 1 1
vc 1 1 1 1
vc 1 1 1 1
vc 1 1 1 1
vc 1 1 1 1
vc 1 1 1 1
vc 1 1 1 1
vc 1 1 1 1
vc 1 1 1 1
vc 1 1 1 1
vc 1 1 1 1
vc 1 1 1 1
vc 1 1 1 1
vc 1 1 1 1
vc 1 1 1 1
vc 1 1 1 1
vc 1 1 1 1
vc 1 1 1 1
vc 1 1 1 1
vc 1 1 1 1
vc 1 1 1 1
vc 1 1 1 1
vc 1 1 1 1
vc 1 1 1 1
vc 1 1 1 1
vc 1 1 1 1
vc 1 1 1 1
vc 1 1 1 1
vc 1 1 1 1
vc 1 1 1 1
vc 1 1 1 1
vc 1 1 1 1
vc 1 1 1 1
vc 1 1 1 1
vc 1 1 1 1
vc 1 1 1 1
vc 1 1 1 1
vc 1 1 1 1
vc 1 1 1 1
vc 1 1 1 1
vc 1 1 1 1
vc 1 1 1 1
vc 1 1 1 1
vc 1 1 1 1
vc 1 1 1 1
vc 1 1 1 1

usemtl Default-Diffuse
usemap Default-Diffuse
f 3/3/3 2/2/2 1/1/1
f 3/3/3 4/4/4 2/2/2
f 7/7/7 6/6/6 5/5/5
f 7/7/7 8/8/8 6/6/6
f 11/11/11 10/10/10 9/9/9
f 11/11/11 12/12/12 10/10/10
f 15/15/15 14/14/14 13/13/13
f 15/15/15 16/16/16 14/14/14
f 19/19/19 18/18/18 17/17/17
f 19/19/19 20/20/20 18/18/18
f 23/23/23 22/22/22 21/21/21
f 23/23/23 24/24/24 22/22/22
f 25/25/25 4/4/4 3/3/3
f 25/25/25 26/26/26 4/4/4
f 27/27/27 8/8/8 7/7/7
f 27/27/27 28/28/28 8/8/8
f 29/29/29 12/12/12 11/11/11
f 29/29/29 30/30/30 12/12/12
f 31/31/31 16/16/16 15/15/15
f 31/31/31 32/32/32 16/16/16
f 33/33/33 20/20/20 19/19/19
f 33/33/33 34/34/34 20/20/20
f 35/35/35 24/24/24 23/23/23
f 35/35/35 36/36/36 24/24/24
f 37/37/37 26/26/26 25/25/25
f 37/37/37 38/38/38 26/26/26
f 39/39/39 28/28/28 27/27/27
f 39/39/39 40/40/40 28/28/28
f 41/41/41 30/30/30 29/29/29
f 41/41/41 42/42/42 30/30/30
f 43/43/43 32/32/32 31/31/31
f 43/43/43 44/44/44 32/32/32
f 45/45/45 34/34/34 33/33/33
f 45/45/45 46/46/46 34/34/34
f 47/47/47 36/36/36 35/35/35
f 47/47/47 48/48/48 36/36/36
f 49/49/49 38/38/38 37/37/37
f 49/49/49 50/50/50 38/38/38
f 51/51/51 40/40/40 39/39/39
f 51/51/51 52/52/52 40/40/40
f 53/53/53 42/42/42 41/41/41
f 53/53/53 54/54/54 42/42/42
f 55/55/55 44/44/44 43/43/43
f 55/55/55 56/56/56 44/44/44
f 57/57/57 46/46/46 45/45/45
f 57/57/57 58/58/58 46/46/46
f 59/59/59 48/48/48 47/47/47
f 59/59/59 60/60/60 48/48/48
f 61/61/61 50/50/50 49/49/49
f 61/61/61 62/62/62 50/50/50
f 63/63/63 52/52/52 51/51/51
f 63/63/63 64/64/64 52/52/52
f 65/65/65 54/54/54 53/53/53
f 65/65/65 66/66/66 54/54/54
f 67/67/67 56/56/56 55/55/55
f 67/67/67 68/68/68 56/56/56
f 69/69/69 58/58/58 57/57/57
f 69/69/69 70/70/70 58/58/58
f 71/71/71 60/60/60 59/59/59
f 71/71/71 72/72/72 60/60/60
f 73/73/73 62/62/62 61/61/61
f 73/73/73 74/74/74 62/62/62
f 75/75/75 64/64/64 63/63/63
f 75/75/75 76/76/76 64/64/64
f 77/77/77 66/66/66 65/65/65
f 77/77/77 78/78/78 66/66/66
f 79/79/79 68/68/68 67/67/67
f 79/79/79 80/80/80 68/68/68
f 81/81/81 70/70/70 69/69/69
f 81/81/81 82/82/82 70/70/70
f 83/83/83 72/72/72 71/71/71
f 83/83/83 84/84/84 72/72/72
f 85/85/85 74/74/74 73/73/73
f 85/85/85 86/86/86 74/74/74
f 87/87/87 76/76/76 75/75/75
f 87/87/87 88/88/88 76/76/76
f 89/89/89 78/78/78 77/77/77
f 89/89/89 90/90/90 78/78/78
f 91/91/91 80/80/80 79/79/79
f 91/91/91 92/92/92 80/80/80
f 93/93/93 82/82/82 81/81/81
f 93/93/93 94/94/94 82/82/82
f 95/95/95 84/84/84 83/83/83
f 95/95/95 96/96/96 84/84/84
f 97/97/97 86/86/86 85/85/85
f 97/97/97 98/98/98 86/86/86
f 99/99/99 88/88/88 87/87/87
f 99/99/99 100/100/100 88/88/88
f 101/101/101 90/90/90 89/89/89
f 101/101/101 102/102/102 90/90/90
f 103/103/103 92/92/92 91/91/91
f 103/103/103 104/104/104 92/92/92
f 105/105/105 94/94/94 93/93/93
f 105/105/105 106/106/106 94/94/94
f 107/107/107 96/96/96 95/95/95
f 107/107/107 108/108/108 96/96/96
f 109/109/109 98/98/98 97/97/97
f 109/109/109 110/110/110 98/98/98
f 111/111/111 100/100/100 99/99/99
f 111/111/111 112/112/112 100/100/100
f 113/113/113 102/102/102 101/101/101
f 113/113/113 114/114/114 102/102/102
f 115/115/115 104/104/104 103/103/103
f 115/115/115 116/116/116 104/104/104
f 117/117/117 106/106/106 105/105/105
f 117/117/117 118/118/118 106/106/106
f 119/119/119 108/108/108 107/107/107
f 119/119/119 120/120/120 108/108/108
f 121/121/121 110/110/110 109/109/109
f 121/121/121 122/122/122 110/110/110
f 123/123/123 112/112/112 111/111/111
f 123/123/123 124/124/124 112/112/112
f 125/125/125 114/114/114 113/113/113
f 125/125/125 126/126/126 114/114/114
f 127/127/127 116/116/116 115/115/115
f 127/127/127 128/128/128 116/116/116
f 129/129/129 118/118/118 117/117/117
f 129/129/129 130/130/130 118/118/118
f 131/131/131 120/120/120 119/119/119
f 131/131/131 132/132/132 120/120/120
f 133/133/133 122/122/122 121/121/121
f 133/133/133 134/134/134 122/122/122
f 135/135/135 124/124/124 123/123/123
f 135/135/135 136/136/136 124/124/124
f 137/137/137 126/126/126 125/125/125
f 137/137/137 138/138/138 126/126/126
f 139/139/139 128/128/128 127/127/127
f 139/139/139 140/140/140 128/128/128
f 141/141/141 130/130/130 129/129/129
f 141/141/141 142/142/142 130/130/130
f 143/143/143 132/132/132 131/131/131
f 143/143/143 144/144/144 132/132/132
f 145/145/145 134/134/134 133/133/133
f 145/145/145 146/146/146 134/134/134
f 147/147/147 136/136/136 135/135/135
f 147/147/147 148/148/148 136/136/136
f 149/149/149 138/138/138 137/137/137
f 149/149/149 150/150/150 138/138/138
f 151/151/151 140/140/140 139/139/139
f 151/151/151 152/152/152 140/140/140
f 153/153/153 142/142/142 141/141/141
f 153/153/153 154/154/154 142/142/142
f 155/155/155 144/144/144 143/143/143
f 155/155/155 156/156/156 144/144/144
f 157/157/157 146/146/146 145/145/145
f 157/157/157 158/158/158 146/146/146
f 159/159/159 148/148/148 147/147/147
f 159/159/159 160/160/160 148/148/148
f 161/161/161 150/150/150 149/149/149
f 161/161/161 162/162/162 150/150/150
f 163/163/163 152/152/152 151/151/151
f 163/163/163 164/164/164 152/152/152
f 165/165/165 154/154/154 153/153/153
f 165/165/165 166/166/166 154/154/154
f 167/167/167 156/156/156 155/155/155
f 167/167/167 168/168/168 156/156/156
f 169/169/169 158/158/158 157/157/157
f 169/169/169 170/170/170 158/158/158
f 171/171/171 160/160/160 159/159/159
f 171/171/171 172/172/172 160/160/160
f 173/173/173 162/162/162 161/161/161
f 173/173/173 174/174/174 162/162/162
f 175/175/175 164/164/164 163/163/163
f 175/175/175 176/176/176 164/164/164
f 177/177/177 166/166/166 165/165/165
f 177/177/177 178/178/178 166/166/166
f 179/179/179 168/168/168 167/167/167
f 179/179/179 180/180/180 168/168/168
f 181/181/181 170/170/170 169/169/169
f 181/181/181 182/182/182 170/170/170
f 183/183/183 172/172/172 171/171/171
f 183/183/183 184/184/184 172/172/172
f 185/185/185 174/174/174 173/173/173
f 185/185/185 186/186/186 174/174/174
f 187/187/187 176/176/176 175/175/175
f 187/187/187 188/188/188 176/176/176
f 189/189/189 178/178/178 177/177/177
f 189/189/189 190/190/190 178/178/178
f 191/191/191 180/180/180 179/179/179
f 191/191/191 192/192/192 180/180/180
f 193/193/193 182/182/182 181/181/181
f 193/193/193 194/194/194 182/182/182
f 195/195/195 184/184/184 183/183/183
f 195/195/195 196/196/196 184/184/184
f 197/197/197 186/186/186 185/185/185
f 197/197/197 198/198/198 186/186/186
f 199/199/199 188/188/188 187/187/187
f 199/199/199 200/200/200 188/188/188
f 201/201/201 190/190/190 189/189/189
f 201/201/201 202/202/202 190/190/190
f 203/203/203 192/192/192 191/191/191
f 203/203/203 204/204/204 192/192/192
f 205/205/205 194/194/194 193/193/193
f 205/205/205 206/206/206 194/194/194
f 207/207/207 196/196/196 195/195/195
f 207/207/207 208/208/208 196/196/196
f 209/209/209 198/198/198 197/197/197
f 209/209/209 210/210/210 198/198/198
f 211/211/211 200/200/200 199/199/199
f 211/211/211 212/212/212 200/200/200
f 213/213/213 202/202/202 201/201/201
f 213/213/213 214/214/214 202/202/202
f 215/215/215 204/204/204 203/203/203
f 215/215/215 216/216/216 204/204/204
f 217/217/217 206/206/206 205/205/205
f 217/217/217 218/218/218 206/206/206
f 219/219/219 208/208/208 207/207/207
f 219/219/219 220/220/220 208/208/208
f 221/221/221 210/210/210 209/209/209
f 221/221/221 222/222/222 210/210/210
f 223/223/223 212/212/212 211/211/211
f 223/223/223 224/224/224 212/212/212
f 225/225/225 214/214/214 213/213/213
f 225/225/225 226/226/226 214/214/214
f 227/227/227 216/216/216 215/215/215
f 227/227/227 228/228/228 216/216/216
f 229/229/229 218/218/218 217/217/217
f 229/229/229 230/230/230 218/218/218
f 231/231/231 220/220/220 219/219/219
f 231/231/231 232/232/232 220/220/220
f 233/233/233 222/222/222 221/221/221
f 233/233/233 234/234/234 222/222/222
f 235/235/235 224/224/224 223/223/223
f 235/235/235 236/236/236 224/224/224
f 237/237/237 226/226/226 225/225/225
f 237/237/237 238/238/238 226/226/226
f 239/239/239 228/228/228 227/227/227
f 239/239/239 240/240/240 228/228/228
f 241/241/241 230/230/230 229/229/229
f 241/241/241 242/242/242 230/230/230
f 243/243/243 232/232/232 231/231/231
f 243/243/243 244/244/244 232/232/232
f 245/245/245 234/234/234 233/233/233
f 245/245/245 246/246/246 234/234/234
f 247/247/247 236/236/236 235/235/235
f 247/247/247 248/248/248 236/236/236
f 249/249/249 238/238/238 237/237/237
f 249/249/249 250/250/250 238/238/238
f 251/251/251 240/240/240 239/239/239
f 251/251/251 252/252/252 240/240/240
f 253/253/253 242/242/242 241/241/241
f 253/253/253 254/254/254 242/242/242
f 255/255/255 244/244/244 243/243/243
f 255/255/255 256/256/256 244/244/244
f 257/257/257 246/246/246 245/245/245
f 257/257/257 258/258/258 246/246/246
f 259/259/259 248/248/248 247/247/247
f 259/259/259 260/260/260 248/248/248
f 261/261/261 250/250/250 249/249/249
f 261/261/261 262/262/262 250/250/250
f 263/263/263 252/252/252 251/251/251
f 263/263/263 264/264/264 252/252/252
f 265/265/265 254/254/254 253/253/253
f 265/265/265 266/266/266 254/254/254
f 267/267/267 256/256/256 255/255/255
f 267/267/267 268/268/268 256/256/256
f 269/269/269 258/258/258 257/257/257
f 269/269/269 270/270/270 258/258/258
f 271/271/271 260/260/260 259/259/259
f 271/271/271 272/272/272 260/260/260
f 273/273/273 262/262/262 261/261/261
f 273/273/273 274/274/274 262/262/262
f 275/275/275 264/264/264 263/263/263
f 275/275/275 276/276/276 264/264/264
