g tube
v -1.882895 0.8267197 -3.427859
v -1.882185 0.8254209 -3.427616
v -1.874281 0.8262435 -3.455389
v -1.873535 0.8249449 -3.455304
v -1.882185 0.8254209 -3.427616
v -1.880753 0.8254209 -3.42717
v -1.873535 0.8249449 -3.455304
v -1.872038 0.8249449 -3.455207
v -1.880753 0.8254209 -3.42717
v -1.88003 0.8267197 -3.426967
v -1.872038 0.8249449 -3.455207
v -1.871287 0.8262435 -3.455196
v -1.88003 0.8267197 -3.426967
v -1.88074 0.8280185 -3.427211
v -1.871287 0.8262435 -3.455196
v -1.872033 0.827542 -3.455281
v -1.88074 0.8280185 -3.427211
v -1.882172 0.8280185 -3.427656
v -1.872033 0.827542 -3.455281
v -1.87353 0.827542 -3.455377
v -1.882172 0.8280185 -3.427656
v -1.882895 0.8267197 -3.427859
v -1.87353 0.827542 -3.455377
v -1.874281 0.8262435 -3.455389
v -1.878419 0.8252993 -3.478956
v -1.877729 0.824001 -3.479254
v -1.877729 0.824001 -3.479254
v -1.876321 0.824001 -3.479771
v -1.876321 0.824001 -3.479771
v -1.875603 0.8252993 -3.47999
v -1.875603 0.8252993 -3.47999
v -1.876292 0.8265977 -3.479692
v -1.876292 0.8265977 -3.479692
v -1.8777 0.8265977 -3.479175
v -1.8777 0.8265977 -3.479175
v -1.878419 0.8252993 -3.478956
v -1.890294 0.8277466 -3.499099
v -1.889877 0.82649 -3.499804
v -1.889877 0.82649 -3.499804
v -1.888659 0.82649 -3.50068
v -1.888659 0.82649 -3.50068
v -1.887858 0.8277466 -3.50085
v -1.887858 0.8277466 -3.50085
v -1.888275 0.8290032 -3.500145
v -1.888275 0.8290032 -3.500145
v -1.889493 0.8290032 -3.499269
v -1.889493 0.8290032 -3.499269
v -1.890294 0.8277466 -3.499099
v -1.905022 0.8374443 -3.515807
v -1.904982 0.8363946 -3.516878
v -1.904982 0.8363946 -3.516878
v -1.903872 0.8363946 -3.517887
v -1.903872 0.8363946 -3.517887
v -1.902802 0.8374443 -3.517825
v -1.902802 0.8374443 -3.517825
v -1.902842 0.838494 -3.516754
v -1.902842 0.838494 -3.516754
v -1.903952 0.838494 -3.515745
v -1.903952 0.838494 -3.515745
v -1.905022 0.8374443 -3.515807
v -1.917628 0.8582639 -3.529084
v -1.917734 0.8575808 -3.530415
v -1.917734 0.8575808 -3.530415
v -1.91656 0.8575689 -3.531348
v -1.91656 0.8575689 -3.531348
v -1.915279 0.85824 -3.53095
v -1.915279 0.85824 -3.53095
v -1.915172 0.8589231 -3.529619
v -1.903952 0.838494 -3.515745
v -1.916346 0.858935 -3.528686
v -1.916346 0.858935 -3.528686
v -1.917628 0.8582639 -3.529084
v -1.92377 0.8894328 -3.540913
v -1.923288 0.8887296 -3.542147
v -1.92377 0.8894328 -3.540913
v -1.921825 0.8887127 -3.542478
v -1.921825 0.8887127 -3.542478
v -1.920844 0.8893991 -3.541574
v -1.920844 0.8893991 -3.541574
v -1.921326 0.8901023 -3.54034
v -1.916346 0.858935 -3.528686
v -1.922789 0.8901191 -3.540009
v -1.921326 0.8901023 -3.54034
v -1.922789 0.8901191 -3.540009
v -1.92377 0.8894328 -3.540913
v -1.924812 0.9086065 -3.559524
v -1.924064 0.907535 -3.56026
v -1.922564 0.9075347 -3.560263
v -1.922564 0.9075347 -3.560263
v -1.921812 0.9086059 -3.55953
v -1.921812 0.9086059 -3.55953
v -1.922561 0.9096773 -3.558794
v -1.922561 0.9096773 -3.558794
v -1.924061 0.9096777 -3.55879
v -1.924061 0.9096777 -3.55879
v -1.924812 0.9086065 -3.559524
v -1.92388 0.9188566 -3.584329
v -1.923114 0.9176389 -3.584754
v -1.921615 0.9176448 -3.584716
v -1.921615 0.9176448 -3.584716
v -1.920881 0.9188684 -3.584253
v -1.920881 0.9188684 -3.584253
v -1.921647 0.920086 -3.583827
v -1.921647 0.920086 -3.583827
v -1.923146 0.9200801 -3.583866
v -1.923146 0.9200801 -3.583866
v -1.92388 0.9188566 -3.584329
v -1.923564 0.928017 -3.613157
v -1.922846 0.9268091 -3.613683
v -1.921348 0.9267959 -3.613747
v -1.921348 0.9267959 -3.613747
v -1.920567 0.9279906 -3.613285
v -1.920567 0.9279906 -3.613285
v -1.921284 0.9291984 -3.61276
v -1.921284 0.9291984 -3.61276
v -1.922783 0.9292117 -3.612696
v -1.922783 0.9292117 -3.612696
v -1.923564 0.928017 -3.613157
v -1.923564 0.928017 -3.613157
v -1.922846 0.9268091 -3.613683
v -1.926383 0.9439307 -3.643679
v -1.92587 0.9428362 -3.644567
v -1.92587 0.9428362 -3.644567
v -1.924407 0.9427531 -3.644885
v -1.924407 0.9427531 -3.644885
v -1.923456 0.9437646 -3.644316
v -1.923456 0.9437646 -3.644316
v -1.92397 0.9448591 -3.643428
v -1.92397 0.9448591 -3.643428
v -1.925433 0.9449422 -3.643109
v -1.925433 0.9449422 -3.643109
v -1.926383 0.9439307 -3.643679
v -1.934828 0.9743929 -3.673631
v -1.93466 0.9733478 -3.674694
v -1.93466 0.9733478 -3.674694
v -1.933331 0.9731674 -3.675365
v -1.933331 0.9731674 -3.675365
v -1.932169 0.9740319 -3.674973
v -1.932169 0.9740319 -3.674973
v -1.932337 0.975077 -3.67391
v -1.932337 0.975077 -3.67391
v -1.933666 0.9752575 -3.673239
v -1.933666 0.9752575 -3.673239
v -1.934828 0.9743929 -3.673631
v -1.951626 1.007323 -3.709676
v -1.95142 1.006133 -3.710565
v -1.95142 1.006133 -3.710565
v -1.950127 1.005966 -3.711307
v -1.950127 1.005966 -3.711307
v -1.94904 1.006989 -3.71116
v -1.94904 1.006989 -3.71116
v -1.949246 1.008179 -3.710271
v -1.949246 1.008179 -3.710271
v -1.950539 1.008346 -3.709529
v -1.950539 1.008346 -3.709529
v -1.951626 1.007323 -3.709676
v -1.97465 1.027782 -3.75509
v -1.974273 1.026477 -3.755726
v -1.974273 1.026477 -3.755726
v -1.972962 1.026342 -3.756442
v -1.972962 1.026342 -3.756442
v -1.972028 1.027513 -3.756522
v -1.972028 1.027513 -3.756522
v -1.972404 1.028818 -3.755886
v -1.972404 1.028818 -3.755886
v -1.973715 1.028953 -3.75517
v -1.973715 1.028953 -3.75517
v -1.97465 1.027782 -3.75509
v -1.999469 1.038977 -3.803225
v -1.998979 1.037643 -3.803706
v -1.998979 1.037643 -3.803706
v -1.997653 1.037537 -3.804399
v -1.997653 1.037537 -3.804399
v -1.996817 1.038764 -3.804611
v -1.996817 1.038764 -3.804611
v -1.997307 1.040098 -3.80413
v -1.997307 1.040098 -3.80413
v -1.998633 1.040204 -3.803437
v -1.998633 1.040204 -3.803437
v -1.999469 1.038977 -3.803225
v -2.021725 1.044093 -3.847557
v -2.021161 1.042759 -3.847947
v -2.021161 1.042759 -3.847947
v -2.019811 1.042676 -3.848597
v -2.019811 1.042676 -3.848597
v -2.019026 1.043927 -3.848857
v -2.019026 1.043927 -3.848857
v -2.01959 1.045261 -3.848467
v -2.01959 1.045261 -3.848467
v -2.02094 1.045344 -3.847817
v -2.02094 1.045344 -3.847817
v -2.021725 1.044093 -3.847557
v -2.037066 1.046315 -3.881598
v -2.03645 1.044988 -3.881928
v -2.03645 1.044988 -3.881928
v -2.035047 1.044922 -3.882454
v -2.035047 1.044922 -3.882454
v -2.03426 1.046184 -3.88265
v -2.03426 1.046184 -3.88265
v -2.034876 1.047511 -3.88232
v -2.034876 1.047511 -3.88232
v -2.036279 1.047577 -3.881793
v -2.036279 1.047577 -3.881793
v -2.037066 1.046315 -3.881598
v -2.042995 1.047994 -3.901581
v -2.042306 1.046678 -3.901791
v -2.042306 1.046678 -3.901791
v -2.040864 1.046644 -3.902203
v -2.040864 1.046644 -3.902203
v -2.040111 1.047925 -3.902404
v -2.040111 1.047925 -3.902404
v -2.0408 1.049241 -3.902194
v -2.0408 1.049241 -3.902194
v -2.042242 1.049276 -3.901782
v -2.042242 1.049276 -3.901782
v -2.042995 1.047994 -3.901581
v -2.048 1.046762 -3.919839
v -2.047219 1.045483 -3.919897
v -2.047219 1.045483 -3.919897
v -2.045777 1.045502 -3.92031
v -2.045777 1.045502 -3.92031
v -2.045116 1.046801 -3.920665
v -2.045116 1.046801 -3.920665
v -2.045897 1.04808 -3.920608
v -2.045897 1.04808 -3.920608
v -2.047339 1.048061 -3.920195
v -2.047339 1.048061 -3.920195
v -2.048 1.046762 -3.919839
v -2.053145 1.043317 -3.937258
v -2.052282 1.04209 -3.937228
v -2.052282 1.04209 -3.937228
v -2.050853 1.042167 -3.937678
v -2.050853 1.042167 -3.937678
v -2.050288 1.04347 -3.938159
v -2.050288 1.04347 -3.938159
v -2.05115 1.044697 -3.93819
v -2.05115 1.044697 -3.93819
v -2.052579 1.04462 -3.937739
v -2.052579 1.04462 -3.937739
v -2.053145 1.043317 -3.937258
v -2.057714 1.039082 -3.952006
v -2.056781 1.03791 -3.951932
v -2.056781 1.03791 -3.951932
v -2.055369 1.038044 -3.95242
v -2.055369 1.038044 -3.95242
v -2.05489 1.03935 -3.952981
v -2.05489 1.03935 -3.952981
v -2.055823 1.040522 -3.953055
v -2.055823 1.040522 -3.953055
v -2.057235 1.040388 -3.952568
v -2.057235 1.040388 -3.952568
v -2.057714 1.039082 -3.952006
v -2.06098 1.035478 -3.962214
v -2.059986 1.034358 -3.962124
v -2.059986 1.034358 -3.962124
v -2.058593 1.034549 -3.962646
v -2.058593 1.034549 -3.962646
v -2.058193 1.035858 -3.963258
v -2.058193 1.035858 -3.963258
v -2.059187 1.036978 -3.963348
v -2.059187 1.036978 -3.963348
v -2.060581 1.036788 -3.962826
v -2.060581 1.036788 -3.962826
v -2.06098 1.035478 -3.962214
v -2.062226 1.033952 -3.966027
v -2.061204 1.032858 -3.965934
v -2.061204 1.032858 -3.965934
v -2.059821 1.033076 -3.966473
v -2.059821 1.033076 -3.966473
v -2.059461 1.034388 -3.967105
v -2.059461 1.034388 -3.967105
v -2.060483 1.035482 -3.967197
v -2.060483 1.035482 -3.967197
v -2.061866 1.035264 -3.966658
v -2.061866 1.035264 -3.966658
v -2.062226 1.033952 -3.966027

vn -0.9548047 0 -0.297234
vn -0.4816118 -0.8659079 -0.1351056
vn -0.997926 0 -0.06437207
vn -0.5005166 -0.8656919 -0.007788287
vn -0.4816118 -0.8659079 -0.1351056
vn 0.4731904 -0.8659131 0.1621277
vn -0.5005166 -0.8656919 -0.007788287
vn 0.4974052 -0.865671 0.05658292
vn 0.4731904 -0.8659131 0.1621277
vn 0.9548047 0 0.297234
vn 0.4974052 -0.865671 0.05658292
vn 0.997926 0 0.06437207
vn 0.9548047 0 0.297234
vn 0.4816118 0.8659079 0.1351056
vn 0.997926 0 0.06437207
vn 0.5005166 0.8656919 0.007788287
vn 0.4816118 0.8659079 0.1351056
vn -0.4731904 0.8659131 -0.1621277
vn 0.5005166 0.8656919 0.007788287
vn -0.4974052 0.865671 -0.05658292
vn -0.4731904 0.8659131 -0.1621277
vn -0.9548047 0 -0.297234
vn -0.4974052 0.865671 -0.05658292
vn -0.997926 0 -0.06437207
vn -0.9386372 0 0.3449061
vn -0.4790582 -0.8655711 0.1459109
vn -0.4790582 -0.8655711 0.1459109
vn 0.4595942 -0.8655835 -0.1988422
vn 0.4595942 -0.8655835 -0.1988422
vn 0.9386372 0 -0.3449061
vn 0.9386372 0 -0.3449061
vn 0.4790582 0.8655711 -0.1459109
vn 0.4790582 0.8655711 -0.1459109
vn -0.4595942 0.8655835 0.1988422
vn -0.4595942 0.8655835 0.1988422
vn -0.9386372 0 0.3449061
vn -0.8119954 0 0.5836639
vn -0.5341471 -0.8377392 0.1134894
vn -0.5341471 -0.8377392 0.1134894
vn 0.2778335 -0.8377126 -0.4701554
vn 0.2778335 -0.8377126 -0.4701554
vn 0.8119954 0 -0.5836639
vn 0.8119954 0 -0.5836639
vn 0.5341471 0.8377392 -0.1134894
vn 0.5341471 0.8377392 -0.1134894
vn -0.2778335 0.8377126 0.4701554
vn -0.2778335 0.8377126 0.4701554
vn -0.8119954 0 0.5836639
vn -0.7399257 0 0.6726886
vn -0.7131711 -0.6997803 -0.04116588
vn -0.7131711 -0.6997803 -0.04116588
vn 0.02670319 -0.6998063 -0.7138334
vn 0.02670319 -0.6998063 -0.7138334
vn 0.7399257 0 -0.6726886
vn 0.7399257 0 -0.6726886
vn 0.7131711 0.6997803 0.04116588
vn 0.7131711 0.6997803 0.04116588
vn -0.02670319 0.6998063 0.7138334
vn -0.02670319 0.6998063 0.7138334
vn -0.7399257 0 0.6726886
vn -0.7828868 0.007947283 0.6221133
vn -0.8540531 -0.447452 -0.2652921
vn -0.8540531 -0.447452 -0.2652921
vn -0.07121092 -0.4554002 -0.8874343
vn -0.07121092 -0.4554002 -0.8874343
vn 0.7828868 -0.007947283 -0.6221133
vn 0.7828868 -0.007947283 -0.6221133
vn 0.8540531 0.447452 0.2652921
vn -0.02670319 0.6998063 0.7138334
vn 0.07121092 0.4554002 0.8874343
vn 0.07121092 0.4554002 0.8874343
vn -0.7828868 0.007947283 0.6221133
vn -0.9754019 0.01124577 0.2201469
vn -0.6538906 -0.4575565 -0.6025521
vn -0.9754019 0.01124577 0.2201469
vn 0.3214734 -0.4688186 -0.8227175
vn 0.3214734 -0.4688186 -0.8227175
vn 0.9754019 -0.01124577 -0.2201469
vn 0.9754019 -0.01124577 -0.2201469
vn 0.6538906 0.4575565 0.6025521
vn 0.07121092 0.4554002 0.8874343
vn -0.3214734 0.4688186 0.8227175
vn 0.6538906 0.4575565 0.6025521
vn -0.3214734 0.4688186 0.8227175
vn -0.9754019 0.01124577 0.2201469
vn -0.9999979 0.0001986803 0.002066275
vn -0.5011595 -0.7141086 -0.4887617
vn 0.4987801 -0.7143539 -0.4908327
vn 0.4987801 -0.7143539 -0.4908327
vn 0.9999979 -0.0001986803 -0.002066275
vn 0.9999979 -0.0001986803 -0.002066275
vn 0.5011595 0.7141086 0.4887617
vn 0.5011595 0.7141086 0.4887617
vn -0.4987801 0.7143539 0.4908327
vn -0.4987801 0.7143539 0.4908327
vn -0.9999979 0.0001986803 0.002066275
vn -0.9996688 -0.003933827 -0.0254308
vn -0.4890872 -0.8157282 -0.3088386
vn 0.5106078 -0.811767 -0.2833973
vn 0.5106078 -0.811767 -0.2833973
vn 0.9996688 0.003933827 0.0254308
vn 0.9996688 0.003933827 0.0254308
vn 0.4890872 0.8157282 0.3088386
vn 0.4890872 0.8157282 0.3088386
vn -0.5106078 0.811767 0.2833973
vn -0.5106078 0.811767 0.2833973
vn -0.9996688 -0.003933827 -0.0254308
vn -0.9990534 0.008821488 0.04259745
vn -0.5206378 -0.7964541 -0.3075665
vn 0.4784134 -0.8052365 -0.3503067
vn 0.4784134 -0.8052365 -0.3503067
vn 0.9990534 -0.008821488 -0.04259745
vn 0.9990534 -0.008821488 -0.04259745
vn 0.5206378 0.7964541 0.3075665
vn 0.5206378 0.7964541 0.3075665
vn -0.4784134 0.8052365 0.3503067
vn -0.4784134 0.8052365 0.3503067
vn -0.9990534 0.008821488 0.04259745
vn -0.9990534 0.008821488 0.04259745
vn -0.5206378 -0.7964541 -0.3075665
vn -0.9756215 0.0553933 0.2123542
vn -0.6334054 -0.6743344 -0.3795664
vn -0.6334054 -0.6743344 -0.3795664
vn 0.3422267 -0.7297155 -0.5919426
vn 0.3422267 -0.7297155 -0.5919426
vn 0.9756215 -0.0553933 -0.2123542
vn 0.9756215 -0.0553933 -0.2123542
vn 0.6334054 0.6743344 0.3795664
vn 0.6334054 0.6743344 0.3795664
vn -0.3422267 0.7297155 0.5919426
vn -0.3422267 0.7297155 0.5919426
vn -0.9756215 0.0553933 0.2123542
vn -0.88619 0.1203203 0.4474262
vn -0.7743214 -0.5763898 -0.2611536
vn -0.7743214 -0.5763898 -0.2611536
vn 0.111898 -0.6967002 -0.7085814
vn 0.111898 -0.6967002 -0.7085814
vn 0.88619 -0.1203203 -0.4474262
vn 0.88619 -0.1203203 -0.4474262
vn 0.7743214 0.5763898 0.2611536
vn 0.7743214 0.5763898 0.2611536
vn -0.111898 0.6967002 0.7085814
vn -0.111898 0.6967002 0.7085814
vn -0.88619 0.1203203 0.4474262
vn -0.8619359 0.1114175 0.4946238
vn -0.724559 -0.6821997 -0.09807017
vn -0.724559 -0.6821997 -0.09807017
vn 0.1373299 -0.7936203 -0.5927119
vn 0.1373299 -0.7936203 -0.5927119
vn 0.8619359 -0.1114175 -0.4946238
vn 0.8619359 -0.1114175 -0.4946238
vn 0.724559 0.6821997 0.09807017
vn 0.724559 0.6821997 0.09807017
vn -0.1373299 0.7936203 0.5927119
vn -0.1373299 0.7936203 0.5927119
vn -0.8619359 0.1114175 0.4946238
vn -0.8740445 0.08980453 0.477474
vn -0.6229742 -0.7804065 0.05356354
vn -0.6229742 -0.7804065 0.05356354
vn 0.2511263 -0.8702004 -0.4238949
vn 0.2511263 -0.8702004 -0.4238949
vn 0.8740445 -0.08980453 -0.477474
vn 0.8740445 -0.08980453 -0.477474
vn 0.6229742 0.7804065 -0.05356354
vn 0.6229742 0.7804065 -0.05356354
vn -0.2511263 0.8702004 0.4238949
vn -0.2511263 0.8702004 0.4238949
vn -0.8740445 0.08980453 0.477474
vn -0.8839954 0.07105024 0.462065
vn -0.5574875 -0.8180722 0.1412991
vn -0.5574875 -0.8180722 0.1412991
vn 0.3264908 -0.8891071 -0.3207684
vn 0.3264908 -0.8891071 -0.3207684
vn 0.8839954 -0.07105024 -0.462065
vn 0.8839954 -0.07105024 -0.462065
vn 0.5574875 0.8180722 -0.1412991
vn 0.5574875 0.8180722 -0.1412991
vn -0.3264908 0.8891071 0.3207684
vn -0.3264908 0.8891071 0.3207684
vn -0.8839954 0.07105024 0.462065
vn -0.8995567 0.05531332 0.4332877
vn -0.5234964 -0.8341609 0.1735716
vn -0.5234964 -0.8341609 0.1735716
vn 0.3760622 -0.8894523 -0.259715
vn 0.3760622 -0.8894523 -0.259715
vn 0.8995567 -0.05531332 -0.4332877
vn 0.8995567 -0.05531332 -0.4332877
vn 0.5234964 0.8341609 -0.1735716
vn 0.5234964 0.8341609 -0.1735716
vn -0.3760622 0.8894523 0.259715
vn -0.3760622 0.8894523 0.259715
vn -0.8995567 0.05531332 0.4332877
vn -0.9353885 0.04339185 0.3509495
vn -0.5245159 -0.8412917 0.1308111
vn -0.5245159 -0.8412917 0.1308111
vn 0.4108687 -0.884679 -0.2202955
vn 0.4108687 -0.884679 -0.2202955
vn 0.9353885 -0.04339185 -0.3509495
vn 0.9353885 -0.04339185 -0.3509495
vn 0.5245159 0.8412917 -0.1308111
vn 0.5245159 0.8412917 -0.1308111
vn -0.4108687 0.884679 0.2202955
vn -0.4108687 0.884679 0.2202955
vn -0.9353885 0.04339185 0.3509495
vn -0.9613141 0.02288843 0.2745022
vn -0.5020999 -0.8543169 0.1343066
vn -0.5020999 -0.8543169 0.1343066
vn 0.4591873 -0.8772083 -0.140188
vn 0.4591873 -0.8772083 -0.140188
vn 0.9613141 -0.02288843 -0.2745022
vn 0.9613141 -0.02288843 -0.2745022
vn 0.5020999 0.8543169 -0.1343066
vn 0.5020999 0.8543169 -0.1343066
vn -0.4591873 0.8772083 0.140188
vn -0.4591873 0.8772083 0.140188
vn -0.9613141 0.02288843 0.2745022
vn -0.9612781 -0.01271532 0.2752866
vn -0.4408371 -0.8657796 0.2368297
vn -0.4408371 -0.8657796 0.2368297
vn 0.5204468 -0.8530274 -0.03846332
vn 0.5204468 -0.8530274 -0.03846332
vn 0.9612781 0.01271532 -0.2752866
vn 0.9612781 0.01271532 -0.2752866
vn 0.4408371 0.8657796 -0.2368297
vn 0.4408371 0.8657796 -0.2368297
vn -0.5204468 0.8530274 0.03846332
vn -0.5204468 0.8530274 0.03846332
vn -0.9612781 -0.01271532 0.2752866
vn -0.9524414 -0.05102365 0.3004196
vn -0.377255 -0.8687911 0.3207502
vn -0.377255 -0.8687911 0.3207502
vn 0.5752089 -0.8177535 0.0203445
vn 0.5752089 -0.8177535 0.0203445
vn 0.9524414 0.05102365 -0.3004196
vn 0.9524414 0.05102365 -0.3004196
vn 0.377255 0.8687911 -0.3207502
vn 0.377255 0.8687911 -0.3207502
vn -0.5752089 0.8177535 -0.0203445
vn -0.5752089 0.8177535 -0.0203445
vn -0.9524414 -0.05102365 0.3004196
vn -0.9415444 -0.08909185 0.3248952
vn -0.3194759 -0.8705321 0.3743113
vn -0.3194759 -0.8705321 0.3743113
vn 0.6220251 -0.7814454 0.04927247
vn 0.6220251 -0.7814454 0.04927247
vn 0.9415444 0.08909185 -0.3248952
vn 0.9415444 0.08909185 -0.3248952
vn 0.3194759 0.8705321 -0.3743113
vn 0.3194759 0.8705321 -0.3743113
vn -0.6220251 0.7814454 -0.04927247
vn -0.6220251 0.7814454 -0.04927247
vn -0.9415444 -0.08909185 0.3248952
vn -0.9288457 -0.1268342 0.3480787
vn -0.266154 -0.8732457 0.4081716
vn -0.266154 -0.8732457 0.4081716
vn 0.6627442 -0.7464316 0.0600833
vn 0.6627442 -0.7464316 0.0600833
vn 0.9288457 0.1268342 -0.3480787
vn 0.9288457 0.1268342 -0.3480787
vn 0.266154 0.8732457 -0.4081716
vn 0.266154 0.8732457 -0.4081716
vn -0.6627442 0.7464316 -0.0600833
vn -0.6627442 0.7464316 -0.0600833
vn -0.9288457 -0.1268342 0.3480787
vn -0.921782 -0.1455111 0.359367
vn -0.2402552 -0.8747101 0.4209036
vn -0.2402552 -0.8747101 0.4209036
vn 0.681564 -0.7291686 0.06151242
vn 0.681564 -0.7291686 0.06151242
vn 0.921782 0.1455111 -0.359367
vn 0.921782 0.1455111 -0.359367
vn 0.2402552 0.8747101 -0.4209036
vn 0.2402552 0.8747101 -0.4209036
vn -0.681564 0.7291686 -0.06151242
vn -0.681564 0.7291686 -0.06151242
vn -0.921782 -0.1455111 0.359367

vt 1 0
vt 0.8333333 0
vt 1 0.04545455
vt 0.8333333 0.04545455
vt 0.8333333 0
vt 0.6666666 0
vt 0.8333333 0.04545455
vt 0.6666666 0.04545455
vt 0.6666666 0
vt 0.5 0
vt 0.6666666 0.04545455
vt 0.5 0.04545455
vt 0.5 0
vt 0.3333333 0
vt 0.5 0.04545455
vt 0.3333333 0.04545455
vt 0.3333333 0
vt 0.1666667 0
vt 0.3333333 0.04545455
vt 0.1666667 0.04545455
vt 0.1666667 0
vt 0 0
vt 0.1666667 0.04545455
vt 0 0.04545455
vt 1 0.09090909
vt 0.8333333 0.09090909
vt 0.8333333 0.09090909
vt 0.6666666 0.09090909
vt 0.6666666 0.09090909
vt 0.5 0.09090909
vt 0.5 0.09090909
vt 0.3333333 0.09090909
vt 0.3333333 0.09090909
vt 0.1666667 0.09090909
vt 0.1666667 0.09090909
vt 0 0.09090909
vt 1 0.1363636
vt 0.8333333 0.1363636
vt 0.8333333 0.1363636
vt 0.6666666 0.1363636
vt 0.6666666 0.1363636
vt 0.5 0.1363636
vt 0.5 0.1363636
vt 0.3333333 0.1363636
vt 0.3333333 0.1363636
vt 0.1666667 0.1363636
vt 0.1666667 0.1363636
vt 0 0.1363636
vt 1 0.1818182
vt 0.8333333 0.1818182
vt 0.8333333 0.1818182
vt 0.6666666 0.1818182
vt 0.6666666 0.1818182
vt 0.5 0.1818182
vt 0.5 0.1818182
vt 0.3333333 0.1818182
vt 0.3333333 0.1818182
vt 0.1666667 0.1818182
vt 0.1666667 0.1818182
vt 0 0.1818182
vt 1 0.2272727
vt 0.8333333 0.2272727
vt 0.8333333 0.2272727
vt 0.6666666 0.2272727
vt 0.6666666 0.2272727
vt 0.5 0.2272727
vt 0.5 0.2272727
vt 0.3333333 0.2272727
vt 0.1666667 0.1818182
vt 0.1666667 0.2272727
vt 0.1666667 0.2272727
vt 0 0.2272727
vt 1 0.2727273
vt 0.8333333 0.2727273
vt 1 0.2727273
vt 0.6666666 0.2727273
vt 0.6666666 0.2727273
vt 0.5 0.2727273
vt 0.5 0.2727273
vt 0.3333333 0.2727273
vt 0.1666667 0.2272727
vt 0.1666667 0.2727273
vt 0.3333333 0.2727273
vt 0.1666667 0.2727273
vt 0 0.2727273
vt 1 0.3181818
vt 0.8333333 0.3181818
vt 0.6666666 0.3181818
vt 0.6666666 0.3181818
vt 0.5 0.3181818
vt 0.5 0.3181818
vt 0.3333333 0.3181818
vt 0.3333333 0.3181818
vt 0.1666667 0.3181818
vt 0.1666667 0.3181818
vt 0 0.3181818
vt 1 0.3636364
vt 0.8333333 0.3636364
vt 0.6666666 0.3636364
vt 0.6666666 0.3636364
vt 0.5 0.3636364
vt 0.5 0.3636364
vt 0.3333333 0.3636364
vt 0.3333333 0.3636364
vt 0.1666667 0.3636364
vt 0.1666667 0.3636364
vt 0 0.3636364
vt 1 0.4090909
vt 0.8333333 0.4090909
vt 0.6666666 0.4090909
vt 0.6666666 0.4090909
vt 0.5 0.4090909
vt 0.5 0.4090909
vt 0.3333333 0.4090909
vt 0.3333333 0.4090909
vt 0.1666667 0.4090909
vt 0.1666667 0.4090909
vt 0 0.4090909
vt 1 0.4090909
vt 0.8333333 0.4090909
vt 1 0.4545455
vt 0.8333333 0.4545455
vt 0.8333333 0.4545455
vt 0.6666666 0.4545455
vt 0.6666666 0.4545455
vt 0.5 0.4545455
vt 0.5 0.4545455
vt 0.3333333 0.4545455
vt 0.3333333 0.4545455
vt 0.1666667 0.4545455
vt 0.1666667 0.4545455
vt 0 0.4545455
vt 1 0.5
vt 0.8333333 0.5
vt 0.8333333 0.5
vt 0.6666666 0.5
vt 0.6666666 0.5
vt 0.5 0.5
vt 0.5 0.5
vt 0.3333333 0.5
vt 0.3333333 0.5
vt 0.1666667 0.5
vt 0.1666667 0.5
vt 0 0.5
vt 1 0.5454546
vt 0.8333333 0.5454546
vt 0.8333333 0.5454546
vt 0.6666666 0.5454546
vt 0.6666666 0.5454546
vt 0.5 0.5454546
vt 0.5 0.5454546
vt 0.3333333 0.5454546
vt 0.3333333 0.5454546
vt 0.1666667 0.5454546
vt 0.1666667 0.5454546
vt 0 0.5454546
vt 1 0.5909091
vt 0.8333333 0.5909091
vt 0.8333333 0.5909091
vt 0.6666666 0.5909091
vt 0.6666666 0.5909091
vt 0.5 0.5909091
vt 0.5 0.5909091
vt 0.3333333 0.5909091
vt 0.3333333 0.5909091
vt 0.1666667 0.5909091
vt 0.1666667 0.5909091
vt 0 0.5909091
vt 1 0.6363636
vt 0.8333333 0.6363636
vt 0.8333333 0.6363636
vt 0.6666666 0.6363636
vt 0.6666666 0.6363636
vt 0.5 0.6363636
vt 0.5 0.6363636
vt 0.3333333 0.6363636
vt 0.3333333 0.6363636
vt 0.1666667 0.6363636
vt 0.1666667 0.6363636
vt 0 0.6363636
vt 1 0.6818182
vt 0.8333333 0.6818182
vt 0.8333333 0.6818182
vt 0.6666666 0.6818182
vt 0.6666666 0.6818182
vt 0.5 0.6818182
vt 0.5 0.6818182
vt 0.3333333 0.6818182
vt 0.3333333 0.6818182
vt 0.1666667 0.6818182
vt 0.1666667 0.6818182
vt 0 0.6818182
vt 1 0.7272727
vt 0.8333333 0.7272727
vt 0.8333333 0.7272727
vt 0.6666666 0.7272727
vt 0.6666666 0.7272727
vt 0.5 0.7272727
vt 0.5 0.7272727
vt 0.3333333 0.7272727
vt 0.3333333 0.7272727
vt 0.1666667 0.7272727
vt 0.1666667 0.7272727
vt 0 0.7272727
vt 1 0.7727273
vt 0.8333333 0.7727273
vt 0.8333333 0.7727273
vt 0.6666666 0.7727273
vt 0.6666666 0.7727273
vt 0.5 0.7727273
vt 0.5 0.7727273
vt 0.3333333 0.7727273
vt 0.3333333 0.7727273
vt 0.1666667 0.7727273
vt 0.1666667 0.7727273
vt 0 0.7727273
vt 1 0.8181818
vt 0.8333333 0.8181818
vt 0.8333333 0.8181818
vt 0.6666666 0.8181818
vt 0.6666666 0.8181818
vt 0.5 0.8181818
vt 0.5 0.8181818
vt 0.3333333 0.8181818
vt 0.3333333 0.8181818
vt 0.1666667 0.8181818
vt 0.1666667 0.8181818
vt 0 0.8181818
vt 1 0.8636364
vt 0.8333333 0.8636364
vt 0.8333333 0.8636364
vt 0.6666666 0.8636364
vt 0.6666666 0.8636364
vt 0.5 0.8636364
vt 0.5 0.8636364
vt 0.3333333 0.8636364
vt 0.3333333 0.8636364
vt 0.1666667 0.8636364
vt 0.1666667 0.8636364
vt 0 0.8636364
vt 1 0.9090909
vt 0.8333333 0.9090909
vt 0.8333333 0.9090909
vt 0.6666666 0.9090909
vt 0.6666666 0.9090909
vt 0.5 0.9090909
vt 0.5 0.9090909
vt 0.3333333 0.9090909
vt 0.3333333 0.9090909
vt 0.1666667 0.9090909
vt 0.1666667 0.9090909
vt 0 0.9090909
vt 1 0.9545454
vt 0.8333333 0.9545454
vt 0.8333333 0.9545454
vt 0.6666666 0.9545454
vt 0.6666666 0.9545454
vt 0.5 0.9545454
vt 0.5 0.9545454
vt 0.3333333 0.9545454
vt 0.3333333 0.9545454
vt 0.1666667 0.9545454
vt 0.1666667 0.9545454
vt 0 0.9545454
vt 1 1
vt 0.8333333 1
vt 0.8333333 1
vt 0.6666666 1
vt 0.6666666 1
vt 0.5 1
vt 0.5 1
vt 0.3333333 1
vt 0.3333333 1
vt 0.1666667 1
vt 0.1666667 1
vt 0 1

vt2 0.004826481 0.2421688
vt2 0.00390625 0.2401544
vt2 0.04660935 0.2230854
vt2 0.04560483 0.2209691
vt2 0.005231995 0.0374858
vt2 0.00390625 0.03566982
vt2 0.04032995 0.01180848
vt2 0.03946831 0.009731621
vt2 0.9771837 0.07430655
vt2 0.9774254 0.07659524
vt2 0.9323789 0.07903365
vt2 0.9323276 0.08133452
vt2 0.9560052 0.3557165
vt2 0.9546013 0.357648
vt2 0.9179217 0.3280883
vt2 0.9167345 0.3301602
vt2 0.9689428 0.4520793
vt2 0.9677365 0.4540392
vt2 0.9305118 0.4284819
vt2 0.9298002 0.4306706
vt2 0.005812132 0.2443291
vt2 0.004826481 0.2421688
vt2 0.0476413 0.2252529
vt2 0.04660935 0.2230854
vt2 0.08202986 0.2059249
vt2 0.0811231 0.2037391
vt2 0.07636385 0.006154042
vt2 0.0764152 0.00390625
vt2 0.894519 0.07335096
vt2 0.8941119 0.07561616
vt2 0.8811778 0.3120462
vt2 0.8805605 0.314353
vt2 0.8925782 0.425541
vt2 0.892812 0.4278304
vt2 0.08291923 0.2080919
vt2 0.08202986 0.2059249
vt2 0.1177535 0.1940081
vt2 0.1173064 0.1917111
vt2 0.1115972 0.01343273
vt2 0.1122458 0.01127991
vt2 0.8578721 0.06567138
vt2 0.8575985 0.06795645
vt2 0.8427143 0.3076845
vt2 0.8428742 0.3100671
vt2 0.857434 0.435601
vt2 0.8582695 0.4377453
vt2 0.118183 0.1962789
vt2 0.1177535 0.1940081
vt2 0.1554831 0.1920956
vt2 0.1558061 0.1897982
vt2 0.1461228 0.02743501
vt2 0.1469937 0.0253622
vt2 0.8195179 0.06436259
vt2 0.819866 0.06663761
vt2 0.8046863 0.3170897
vt2 0.8057125 0.3192458
vt2 0.824384 0.4519945
vt2 0.8254401 0.4540392
vt2 0.1551661 0.1943456
vt2 0.1554831 0.1920956
vt2 0.1951601 0.2056783
vt2 0.1962055 0.2036581
vt2 0.1848869 0.04425815
vt2 0.1856539 0.04214472
vt2 0.7788258 0.07868458
vt2 0.7799587 0.08068787
vt2 0.7696247 0.3435037
vt2 0.771108 0.3453685
vt2 0.8070487 0.3210755
vt2 0.7725997 0.3472436
vt2 0.1941264 0.2076772
vt2 0.1951601 0.2056783
vt2 0.2372552 0.2347527
vt2 0.2354273 0.05813573
vt2 0.2351588 0.06045635
vt2 0.2357029 0.05583271
vt2 0.739847 0.1121615
vt2 0.7411149 0.1140822
vt2 0.7294771 0.3784267
vt2 0.730523 0.3804383
vt2 0.8204777 0.4639274
vt2 0.7686559 0.4657167
vt2 0.7688589 0.4634243
vt2 0.2361201 0.236768
vt2 0.2372552 0.2347527
vt2 0.2775259 0.05808846
vt2 0.2771277 0.05580998
vt2 0.2767279 0.05346594
vt2 0.7046535 0.1306354
vt2 0.7053615 0.1328254
vt2 0.6911544 0.3890559
vt2 0.691298 0.3913187
vt2 0.7282562 0.4557644
vt2 0.7277274 0.458004
vt2 0.274759 0.2528691
vt2 0.2753137 0.2506233
vt2 0.3179542 0.04593372
vt2 0.3172807 0.04375929
vt2 0.3165921 0.04153126
vt2 0.6644933 0.136759
vt2 0.6647401 0.1390471
vt2 0.6510358 0.3836211
vt2 0.6506603 0.3858571
vt2 0.6881146 0.4447683
vt2 0.6875326 0.4469949
vt2 0.3165107 0.2562422
vt2 0.316596 0.2539306
vt2 0.3622121 0.0318974
vt2 0.3617349 0.02967552
vt2 0.3611447 0.02744996
vt2 0.6178806 0.139673
vt2 0.6181377 0.1419601
vt2 0.6059395 0.3745431
vt2 0.6057111 0.3767987
vt2 0.6429559 0.4335001
vt2 0.6425111 0.4357581
vt2 0.3631511 0.2559913
vt2 0.3632466 0.2536799
vt2 0.3632466 0.2536799
vt2 0.3632286 0.2514242
vt2 0.4163789 0.2586489
vt2 0.4168601 0.2564052
vt2 0.4142075 0.0186852
vt2 0.4139132 0.01640162
vt2 0.564644 0.1480242
vt2 0.5651926 0.1502592
vt2 0.5531446 0.3740875
vt2 0.5535055 0.3763259
vt2 0.5905632 0.425541
vt2 0.5904175 0.4278377
vt2 0.415885 0.2609324
vt2 0.4163789 0.2586489
vt2 0.4802816 0.2815162
vt2 0.4809588 0.2792944
vt2 0.4813426 0.01601831
vt2 0.4813593 0.01371584
vt2 0.500505 0.1689573
vt2 0.5010838 0.1711847
vt2 0.4900385 0.3948585
vt2 0.4907291 0.3970181
vt2 0.5234752 0.4264542
vt2 0.5236408 0.4287498
vt2 0.4796171 0.2837033
vt2 0.4802816 0.2815162
vt2 0.5569819 0.3015214
vt2 0.5572598 0.2992465
vt2 0.5601038 0.02080822
vt2 0.5602278 0.01850913
vt2 0.4228965 0.183594
vt2 0.423026 0.1858919
vt2 0.4151474 0.4175495
vt2 0.4155042 0.4197885
vt2 0.4443077 0.4363133
vt2 0.4445799 0.4385985
vt2 0.5567088 0.3037783
vt2 0.5569819 0.3015214
vt2 0.6404046 0.3004172
vt2 0.6402003 0.2981434
vt2 0.6437455 0.02474117
vt2 0.6438435 0.02244058
vt2 0.3394554 0.1774268
vt2 0.3391139 0.1797026
vt2 0.3322757 0.4193712
vt2 0.3321434 0.4216347
vt2 0.360211 0.4458614
vt2 0.3604575 0.4481497
vt2 0.6406085 0.302691
vt2 0.6404046 0.3004172
vt2 0.7232753 0.2864402
vt2 0.7227992 0.2842063
vt2 0.728284 0.02786682
vt2 0.7283498 0.0255653
vt2 0.2570248 0.158734
vt2 0.2564279 0.1609566
vt2 0.2495379 0.4079185
vt2 0.2491188 0.4101468
vt2 0.2755817 0.4545858
vt2 0.2757961 0.4568772
vt2 0.7237498 0.288669
vt2 0.7232753 0.2864402
vt2 0.7964252 0.2674906
vt2 0.7958142 0.2652875
vt2 0.8046423 0.02932572
vt2 0.804637 0.02702336
vt2 0.184182 0.1361463
vt2 0.1834846 0.1383395
vt2 0.1763376 0.3905346
vt2 0.1757495 0.3927243
vt2 0.1993119 0.4610718
vt2 0.1994553 0.4633689
vt2 0.7970312 0.2696744
vt2 0.7964252 0.2674906
vt2 0.850203 0.2515008
vt2 0.8495882 0.249329
vt2 0.8619248 0.02789135
vt2 0.8617152 0.02559823
vt2 0.129903 0.1185231
vt2 0.1292917 0.1207419
vt2 0.1225543 0.3744629
vt2 0.1218575 0.3766204
vt2 0.1422663 0.4634159
vt2 0.1422054 0.4657167
vt2 0.8508182 0.2536734
vt2 0.850203 0.2515008
vt2 0.880508 0.2432308
vt2 0.8797793 0.2410838
vt2 0.8934129 0.02281998
vt2 0.8930233 0.02055067
vt2 0.0989805 0.1115588
vt2 0.098345 0.1137708
vt2 0.0930087 0.3642789
vt2 0.09212177 0.3663656
vt2 0.1104731 0.4604855
vt2 0.1102311 0.4627742
vt2 0.8812431 0.2454054
vt2 0.880508 0.2432308
vt2 0.907231 0.232202
vt2 0.9062518 0.230134
vt2 0.9217793 0.01752127
vt2 0.9213863 0.01525245
vt2 0.07173029 0.1021167
vt2 0.07084687 0.1042417
vt2 0.06741804 0.3513512
vt2 0.06629631 0.3533216
vt2 0.08129814 0.457121
vt2 0.08105285 0.4594094
vt2 0.9082125 0.2342754
vt2 0.907231 0.232202
vt2 0.9320794 0.2186967
vt2 0.9309228 0.2167189
vt2 0.9496012 0.0129187
vt2 0.9492518 0.01064293
vt2 0.04629819 0.08986304
vt2 0.04521446 0.09189326
vt2 0.04369866 0.336416
vt2 0.04242847 0.3382939
vt2 0.05279299 0.454456
vt2 0.05259145 0.4567488
vt2 0.9332352 0.2206727
vt2 0.9320794 0.2186967
vt2 0.952729 0.2055526
vt2 0.9514611 0.2036455
vt2 0.9737977 0.009328924
vt2 0.9734844 0.007047579
vt2 0.02511258 0.07758592
vt2 0.02389871 0.07954106
vt2 0.02395889 0.3222949
vt2 0.02259669 0.3241076
vt2 0.02811255 0.452592
vt2 0.02794773 0.4548874
vt2 0.9539961 0.2074587
vt2 0.952729 0.2055526
vt2 0.9668421 0.1955827
vt2 0.9655011 0.1937263
vt2 0.9909233 0.007009881
vt2 0.9906391 0.004724864
vt2 0.01061572 0.0681401
vt2 0.009314309 0.07003818
vt2 0.01040064 0.3117944
vt2 0.008980727 0.3135617
vt2 0.01066193 0.4515504
vt2 0.01052615 0.4538479
vt2 0.9681816 0.1974372
vt2 0.9668421 0.1955827
vt2 0.9720654 0.1916325
vt2 0.970699 0.1897982
vt2 0.9974307 0.006192647
vt2 0.9971594 0.00390625
vt2 0.005242305 0.06436259
vt2 0.00390625 0.0662365
vt2 0.005348802 0.3076845
vt2 0.00390625 0.3094337
vt2 0.004029194 0.4512405
vt2 0.00390625 0.4535388
vt2 0.9734308 0.1934629
vt2 0.9720654 0.1916325


vc 1 1 1 1
vc 1 1 1 1
vc 1 1 1 1
vc 1 1 1 1
vc 1 1 1 1
vc 1 1 1 1
vc 1 1 1 1
vc 1 1 1 1
vc 1 1 1 1
vc 1 1 1 1
vc 1 1 1 1
vc 1 1 1 1
vc 1 1 1 1
vc 1 1 1 1
vc 1 1 1 1
vc 1 1 1 1
vc 1 1 1 1
vc 1 1 1 1
vc 1 1 1 1
vc 1 1 1 1
vc 1 1 1 1
vc 1 1 1 1
vc 1 1 1 1
vc 1 1 1 1
vc 1 1 1 1
vc 1 1 1 1
vc 1 1 1 1
vc 1 1 1 1
vc 1 1 1 1
vc 1 1 1 1
vc 1 1 1 1
vc 1 1 1 1
vc 1 1 1 1
vc 1 1 1 1
vc 1 1 1 1
vc 1 1 1 1
vc 1 1 1 1
vc 1 1 1 1
vc 1 1 1 1
vc 1 1 1 1
vc 1 1 1 1
vc 1 1 1 1
vc 1 1 1 1
vc 1 1 1 1
vc 1 1 1 1
vc 1 1 1 1
vc 1 1 1 1
vc 1 1 1 1
vc 1 1 1 1
vc 1 1 1 1
vc 1 1 1 1
vc 1 1 1 1
vc 1 1 1 1
vc 1 1 1 1
vc 1 1 1 1
vc 1 1 1 1
vc 1 1 1 1
vc 1 1 1 1
vc 1 1 1 1
vc 1 1 1 1
vc 1 1 1 1
vc 1 1 1 1
vc 1 1 1 1
vc 1 1 1 1
vc 1 1 1 1
vc 1 1 1 1
vc 1 1 1 1
vc 1 1 1 1
vc 1 1 1 1
vc 1 1 1 1
vc 1 1 1 1
vc 1 1 1 1
vc 1 1 1 1
vc 1 1 1 1
vc 1 1 1 1
vc 1 1 1 1
vc 1 1 1 1
vc 1 1 1 1
vc 1 1 1 1
vc 1 1 1 1
vc 1 1 1 1
vc 1 1 1 1
vc 1 1 1 1
vc 1 1 1 1
vc 1 1 1 1
vc 1 1 1 1
vc 1 1 1 1
vc 1 1 1 1
vc 1 1 1 1
vc 1 1 1 1
vc 1 1 1 1
vc 1 1 1 1
vc 1 1 1 1
vc 1 1 1 1
vc 1 1 1 1
vc 1 1 1 1
vc 1 1 1 1
vc 1 1 1 1
vc 1 1 1 1
vc 1 1 1 1
vc 1 1 1 1
vc 1 1 1 1
vc 1 1 1 1
vc 1 1 1 1
vc 1 1 1 1
vc 1 1 1 1
vc 1 1 1 1
vc 1 1 1 1
vc 1 1 1 1
vc 1 1 1 1
vc 1 1 1 1
vc 1 1 1 1
vc 1 1 1 1
vc 1 1 1 1
vc 1 1 1 1
vc 1 1 1 1
vc 1 1 1 1
vc 1 1 1 1
vc 1 1 1 1
vc 1 1 1 1
vc 1 1 1 1
vc 1 1 1 1
vc 1 1 1 1
vc 1 1 1 1
vc 1 1 1 1
vc 1 1 1 1
vc 1 1 1 1
vc 1 1 1 1
vc 1 1 1 1
vc 1 1 1 1
vc 1 1 1 1
vc 1 1 1 1
vc 1 1 1 1
vc 1 1 1 1
vc 1 1 1 1
vc 1 1 1 1
vc 1 1 1 1
vc 1 1 1 1
vc 1 1 1 1
vc 1 1 1 1
vc 1 1 1 1
vc 1 1 1 1
vc 1 1 1 1
vc 1 1 1 1
vc 1 1 1 1
vc 1 1 1 1
vc 1 1 1 1
vc 1 1 1 1
vc 1 1 1 1
vc 1 1 1 1
vc 1 1 1 1
vc 1 1 1 1
vc 1 1 1 1
vc 1 1 1 1
vc 1 1 1 1
vc 1 1 1 1
vc 1 1 1 1
vc 1 1 1 1
vc 1 1 1 1
vc 1 1 1 1
vc 1 1 1 1
vc 1 1 1 1
vc 1 1 1 1
vc 1 1 1 1
vc 1 1 1 1
vc 1 1 1 1
vc 1 1 1 1
vc 1 1 1 1
vc 1 1 1 1
vc 1 1 1 1
vc 1 1 1 1
vc 1 1 1 1
vc 1 1 1 1
vc 1 1 1 1
vc 1 1 1 1
vc 1 1 1 1
vc 1 1 1 1
vc 1 1 1 1
vc 1 1 1 1
vc 1 1 1 1
vc 1 1 1 1
vc 1 1 1 1
vc 1 1 1 1
vc 1 1 1 1
vc 1 1 1 1
vc 1 1 1 1
vc 1 1 1 1
vc 1 1 1 1
vc 1 1 1 1
vc 1 1 1 1
vc 1 1 1 1
vc 1 1 1 1
vc 1 1 1 1
vc 1 1 1 1
vc 1 1 1 1
vc 1 1 1 1
vc 1 1 1 1
vc 1 1 1 1
vc 1 1 1 1
vc 1 1 1 1
vc 1 1 1 1
vc 1 1 1 1
vc 1 1 1 1
vc 1 1 1 1
vc 1 1 1 1
vc 1 1 1 1
vc 1 1 1 1
vc 1 1 1 1
vc 1 1 1 1
vc 1 1 1 1
vc 1 1 1 1
vc 1 1 1 1
vc 1 1 1 1
vc 1 1 1 1
vc 1 1 1 1
vc 1 1 1 1
vc 1 1 1 1
vc 1 1 1 1
vc 1 1 1 1
vc 1 1 1 1
vc 1 1 1 1
vc 1 1 1 1
vc 1 1 1 1
vc 1 1 1 1
vc 1 1 1 1
vc 1 1 1 1
vc 1 1 1 1
vc 1 1 1 1
vc 1 1 1 1
vc 1 1 1 1
vc 1 1 1 1
vc 1 1 1 1
vc 1 1 1 1
vc 1 1 1 1
vc 1 1 1 1
vc 1 1 1 1
vc 1 1 1 1
vc 1 1 1 1
vc 1 1 1 1
vc 1 1 1 1
vc 1 1 1 1
vc 1 1 1 1
vc 1 1 1 1
vc 1 1 1 1
vc 1 1 1 1
vc 1 1 1 1
vc 1 1 1 1
vc 1 1 1 1
vc 1 1 1 1
vc 1 1 1 1
vc 1 1 1 1
vc 1 1 1 1
vc 1 1 1 1
vc 1 1 1 1
vc 1 1 1 1
vc 1 1 1 1
vc 1 1 1 1
vc 1 1 1 1
vc 1 1 1 1
vc 1 1 1 1
vc 1 1 1 1
vc 1 1 1 1
vc 1 1 1 1
vc 1 1 1 1
vc 1 1 1 1
vc 1 1 1 1
vc 1 1 1 1
vc 1 1 1 1
vc 1 1 1 1
vc 1 1 1 1
vc 1 1 1 1
vc 1 1 1 1
vc 1 1 1 1
vc 1 1 1 1
vc 1 1 1 1
vc 1 1 1 1

usemtl Default-Diffuse
usemap Default-Diffuse
f 3/3/3 2/2/2 1/1/1
f 3/3/3 4/4/4 2/2/2
f 7/7/7 6/6/6 5/5/5
f 7/7/7 8/8/8 6/6/6
f 11/11/11 10/10/10 9/9/9
f 11/11/11 12/12/12 10/10/10
f 15/15/15 14/14/14 13/13/13
f 15/15/15 16/16/16 14/14/14
f 19/19/19 18/18/18 17/17/17
f 19/19/19 20/20/20 18/18/18
f 23/23/23 22/22/22 21/21/21
f 23/23/23 24/24/24 22/22/22
f 25/25/25 4/4/4 3/3/3
f 25/25/25 26/26/26 4/4/4
f 27/27/27 8/8/8 7/7/7
f 27/27/27 28/28/28 8/8/8
f 29/29/29 12/12/12 11/11/11
f 29/29/29 30/30/30 12/12/12
f 31/31/31 16/16/16 15/15/15
f 31/31/31 32/32/32 16/16/16
f 33/33/33 20/20/20 19/19/19
f 33/33/33 34/34/34 20/20/20
f 35/35/35 24/24/24 23/23/23
f 35/35/35 36/36/36 24/24/24
f 37/37/37 26/26/26 25/25/25
f 37/37/37 38/38/38 26/26/26
f 39/39/39 28/28/28 27/27/27
f 39/39/39 40/40/40 28/28/28
f 41/41/41 30/30/30 29/29/29
f 41/41/41 42/42/42 30/30/30
f 43/43/43 32/32/32 31/31/31
f 43/43/43 44/44/44 32/32/32
f 45/45/45 34/34/34 33/33/33
f 45/45/45 46/46/46 34/34/34
f 47/47/47 36/36/36 35/35/35
f 47/47/47 48/48/48 36/36/36
f 49/49/49 38/38/38 37/37/37
f 49/49/49 50/50/50 38/38/38
f 51/51/51 40/40/40 39/39/39
f 51/51/51 52/52/52 40/40/40
f 53/53/53 42/42/42 41/41/41
f 53/53/53 54/54/54 42/42/42
f 55/55/55 44/44/44 43/43/43
f 55/55/55 56/56/56 44/44/44
f 57/57/57 46/46/46 45/45/45
f 57/57/57 58/58/58 46/46/46
f 59/59/59 48/48/48 47/47/47
f 59/59/59 60/60/60 48/48/48
f 61/61/61 50/50/50 49/49/49
f 61/61/61 62/62/62 50/50/50
f 63/63/63 52/52/52 51/51/51
f 63/63/63 64/64/64 52/52/52
f 65/65/65 54/54/54 53/53/53
f 65/65/65 66/66/66 54/54/54
f 67/67/67 56/56/56 55/55/55
f 67/67/67 68/68/68 56/56/56
f 68/68/68 69/69/69 56/56/56
f 68/68/68 70/70/70 69/69/69
f 71/71/71 60/60/60 59/59/59
f 71/71/71 72/72/72 60/60/60
f 73/73/73 62/62/62 61/61/61
f 75/75/75 74/74/74 63/63/63
f 74/74/74 64/64/64 63/63/63
f 74/74/74 76/76/76 64/64/64
f 77/77/77 66/66/66 65/65/65
f 77/77/77 78/78/78 66/66/66
f 79/79/79 68/68/68 67/67/67
f 79/79/79 80/80/80 68/68/68
f 80/80/80 70/70/70 68/68/68
f 83/83/83 82/82/82 81/81/81
f 84/84/84 72/72/72 71/71/71
f 84/84/84 85/85/85 72/72/72
f 86/86/86 74/74/74 75/75/75
f 86/86/86 87/87/87 74/74/74
f 87/87/87 76/76/76 74/74/74
f 87/87/87 88/88/88 76/76/76
f 89/89/89 78/78/78 77/77/77
f 89/89/89 90/90/90 78/78/78
f 91/91/91 80/80/80 79/79/79
f 91/91/91 92/92/92 80/80/80
f 93/93/93 82/82/82 83/83/83
f 93/93/93 94/94/94 82/82/82
f 95/95/95 85/85/85 84/84/84
f 95/95/95 96/96/96 85/85/85
f 97/97/97 87/87/87 86/86/86
f 97/97/97 98/98/98 87/87/87
f 98/98/98 88/88/88 87/87/87
f 98/98/98 99/99/99 88/88/88
f 100/100/100 90/90/90 89/89/89
f 100/100/100 101/101/101 90/90/90
f 102/102/102 92/92/92 91/91/91
f 102/102/102 103/103/103 92/92/92
f 104/104/104 94/94/94 93/93/93
f 104/104/104 105/105/105 94/94/94
f 106/106/106 96/96/96 95/95/95
f 106/106/106 107/107/107 96/96/96
f 108/108/108 98/98/98 97/97/97
f 108/108/108 109/109/109 98/98/98
f 109/109/109 99/99/99 98/98/98
f 109/109/109 110/110/110 99/99/99
f 111/111/111 101/101/101 100/100/100
f 111/111/111 112/112/112 101/101/101
f 113/113/113 103/103/103 102/102/102
f 113/113/113 114/114/114 103/103/103
f 115/115/115 105/105/105 104/104/104
f 115/115/115 116/116/116 105/105/105
f 117/117/117 107/107/107 106/106/106
f 117/117/117 118/118/118 107/107/107
f 121/121/121 120/120/120 119/119/119
f 121/121/121 122/122/122 120/120/120
f 123/123/123 110/110/110 109/109/109
f 123/123/123 124/124/124 110/110/110
f 125/125/125 112/112/112 111/111/111
f 125/125/125 126/126/126 112/112/112
f 127/127/127 114/114/114 113/113/113
f 127/127/127 128/128/128 114/114/114
f 129/129/129 116/116/116 115/115/115
f 129/129/129 130/130/130 116/116/116
f 131/131/131 118/118/118 117/117/117
f 131/131/131 132/132/132 118/118/118
f 133/133/133 122/122/122 121/121/121
f 133/133/133 134/134/134 122/122/122
f 135/135/135 124/124/124 123/123/123
f 135/135/135 136/136/136 124/124/124
f 137/137/137 126/126/126 125/125/125
f 137/137/137 138/138/138 126/126/126
f 139/139/139 128/128/128 127/127/127
f 139/139/139 140/140/140 128/128/128
f 141/141/141 130/130/130 129/129/129
f 141/141/141 142/142/142 130/130/130
f 143/143/143 132/132/132 131/131/131
f 143/143/143 144/144/144 132/132/132
f 145/145/145 134/134/134 133/133/133
f 145/145/145 146/146/146 134/134/134
f 147/147/147 136/136/136 135/135/135
f 147/147/147 148/148/148 136/136/136
f 149/149/149 138/138/138 137/137/137
f 149/149/149 150/150/150 138/138/138
f 151/151/151 140/140/140 139/139/139
f 151/151/151 152/152/152 140/140/140
f 153/153/153 142/142/142 141/141/141
f 153/153/153 154/154/154 142/142/142
f 155/155/155 144/144/144 143/143/143
f 155/155/155 156/156/156 144/144/144
f 157/157/157 146/146/146 145/145/145
f 157/157/157 158/158/158 146/146/146
f 159/159/159 148/148/148 147/147/147
f 159/159/159 160/160/160 148/148/148
f 161/161/161 150/150/150 149/149/149
f 161/161/161 162/162/162 150/150/150
f 163/163/163 152/152/152 151/151/151
f 163/163/163 164/164/164 152/152/152
f 165/165/165 154/154/154 153/153/153
f 165/165/165 166/166/166 154/154/154
f 167/167/167 156/156/156 155/155/155
f 167/167/167 168/168/168 156/156/156
f 169/169/169 158/158/158 157/157/157
f 169/169/169 170/170/170 158/158/158
f 171/171/171 160/160/160 159/159/159
f 171/171/171 172/172/172 160/160/160
f 173/173/173 162/162/162 161/161/161
f 173/173/173 174/174/174 162/162/162
f 175/175/175 164/164/164 163/163/163
f 175/175/175 176/176/176 164/164/164
f 177/177/177 166/166/166 165/165/165
f 177/177/177 178/178/178 166/166/166
f 179/179/179 168/168/168 167/167/167
f 179/179/179 180/180/180 168/168/168
f 181/181/181 170/170/170 169/169/169
f 181/181/181 182/182/182 170/170/170
f 183/183/183 172/172/172 171/171/171
f 183/183/183 184/184/184 172/172/172
f 185/185/185 174/174/174 173/173/173
f 185/185/185 186/186/186 174/174/174
f 187/187/187 176/176/176 175/175/175
f 187/187/187 188/188/188 176/176/176
f 189/189/189 178/178/178 177/177/177
f 189/189/189 190/190/190 178/178/178
f 191/191/191 180/180/180 179/179/179
f 191/191/191 192/192/192 180/180/180
f 193/193/193 182/182/182 181/181/181
f 193/193/193 194/194/194 182/182/182
f 195/195/195 184/184/184 183/183/183
f 195/195/195 196/196/196 184/184/184
f 197/197/197 186/186/186 185/185/185
f 197/197/197 198/198/198 186/186/186
f 199/199/199 188/188/188 187/187/187
f 199/199/199 200/200/200 188/188/188
f 201/201/201 190/190/190 189/189/189
f 201/201/201 202/202/202 190/190/190
f 203/203/203 192/192/192 191/191/191
f 203/203/203 204/204/204 192/192/192
f 205/205/205 194/194/194 193/193/193
f 205/205/205 206/206/206 194/194/194
f 207/207/207 196/196/196 195/195/195
f 207/207/207 208/208/208 196/196/196
f 209/209/209 198/198/198 197/197/197
f 209/209/209 210/210/210 198/198/198
f 211/211/211 200/200/200 199/199/199
f 211/211/211 212/212/212 200/200/200
f 213/213/213 202/202/202 201/201/201
f 213/213/213 214/214/214 202/202/202
f 215/215/215 204/204/204 203/203/203
f 215/215/215 216/216/216 204/204/204
f 217/217/217 206/206/206 205/205/205
f 217/217/217 218/218/218 206/206/206
f 219/219/219 208/208/208 207/207/207
f 219/219/219 220/220/220 208/208/208
f 221/221/221 210/210/210 209/209/209
f 221/221/221 222/222/222 210/210/210
f 223/223/223 212/212/212 211/211/211
f 223/223/223 224/224/224 212/212/212
f 225/225/225 214/214/214 213/213/213
f 225/225/225 226/226/226 214/214/214
f 227/227/227 216/216/216 215/215/215
f 227/227/227 228/228/228 216/216/216
f 229/229/229 218/218/218 217/217/217
f 229/229/229 230/230/230 218/218/218
f 231/231/231 220/220/220 219/219/219
f 231/231/231 232/232/232 220/220/220
f 233/233/233 222/222/222 221/221/221
f 233/233/233 234/234/234 222/222/222
f 235/235/235 224/224/224 223/223/223
f 235/235/235 236/236/236 224/224/224
f 237/237/237 226/226/226 225/225/225
f 237/237/237 238/238/238 226/226/226
f 239/239/239 228/228/228 227/227/227
f 239/239/239 240/240/240 228/228/228
f 241/241/241 230/230/230 229/229/229
f 241/241/241 242/242/242 230/230/230
f 243/243/243 232/232/232 231/231/231
f 243/243/243 244/244/244 232/232/232
f 245/245/245 234/234/234 233/233/233
f 245/245/245 246/246/246 234/234/234
f 247/247/247 236/236/236 235/235/235
f 247/247/247 248/248/248 236/236/236
f 249/249/249 238/238/238 237/237/237
f 249/249/249 250/250/250 238/238/238
f 251/251/251 240/240/240 239/239/239
f 251/251/251 252/252/252 240/240/240
f 253/253/253 242/242/242 241/241/241
f 253/253/253 254/254/254 242/242/242
f 255/255/255 244/244/244 243/243/243
f 255/255/255 256/256/256 244/244/244
f 257/257/257 246/246/246 245/245/245
f 257/257/257 258/258/258 246/246/246
f 259/259/259 248/248/248 247/247/247
f 259/259/259 260/260/260 248/248/248
f 261/261/261 250/250/250 249/249/249
f 261/261/261 262/262/262 250/250/250
f 263/263/263 252/252/252 251/251/251
f 263/263/263 264/264/264 252/252/252
f 265/265/265 254/254/254 253/253/253
f 265/265/265 266/266/266 254/254/254
f 267/267/267 256/256/256 255/255/255
f 267/267/267 268/268/268 256/256/256
f 269/269/269 258/258/258 257/257/257
f 269/269/269 270/270/270 258/258/258
f 271/271/271 260/260/260 259/259/259
f 271/271/271 272/272/272 260/260/260
f 273/273/273 262/262/262 261/261/261
f 273/273/273 274/274/274 262/262/262
f 275/275/275 264/264/264 263/263/263
f 275/275/275 276/276/276 264/264/264
