g tube
v -2.310359 1.427971 -4.39798
v -2.312562 1.427976 -4.396798
v -2.310121 1.423162 -4.397517
v -2.312324 1.423161 -4.396334
v -2.312562 1.427976 -4.396798
v -2.312645 1.428211 -4.39431
v -2.312324 1.423161 -4.396334
v -2.312407 1.423394 -4.393847
v -2.312645 1.428211 -4.39431
v -2.310526 1.428442 -4.393004
v -2.312407 1.423394 -4.393847
v -2.310287 1.423628 -4.392541
v -2.308323 1.428437 -4.394186
v -2.308085 1.423629 -4.393724
v -2.308323 1.428437 -4.394186
v -2.30824 1.428202 -4.396674
v -2.308085 1.423629 -4.393724
v -2.308002 1.423396 -4.396212
v -2.30824 1.428202 -4.396674
v -2.310359 1.427971 -4.39798
v -2.308002 1.423396 -4.396212
v -2.310121 1.423162 -4.397517
v -2.309378 1.409333 -4.396211
v -2.31158 1.40932 -4.395028
v -2.31158 1.40932 -4.395028
v -2.311664 1.409547 -4.392539
v -2.311664 1.409547 -4.392539
v -2.309545 1.409788 -4.391234
v -2.307343 1.409802 -4.392417
v -2.307343 1.409802 -4.392417
v -2.307259 1.409574 -4.394906
v -2.307259 1.409574 -4.394906
v -2.309378 1.409333 -4.396211
v -2.308086 1.387383 -4.394183
v -2.310287 1.387355 -4.392999
v -2.310287 1.387355 -4.392999
v -2.310371 1.387577 -4.390511
v -2.310371 1.387577 -4.390511
v -2.308253 1.387827 -4.389206
v -2.306052 1.387855 -4.39039
v -2.306052 1.387855 -4.39039
v -2.305968 1.387633 -4.392879
v -2.305968 1.387633 -4.392879
v -2.308086 1.387383 -4.394183
v -2.306202 1.358215 -4.391557
v -2.308403 1.358171 -4.390372
v -2.308403 1.358171 -4.390372
v -2.308486 1.358386 -4.387883
v -2.308486 1.358386 -4.387883
v -2.30637 1.358645 -4.386579
v -2.304169 1.358689 -4.387764
v -2.304169 1.358689 -4.387764
v -2.304085 1.358474 -4.390253
v -2.304085 1.358474 -4.390253
v -2.306202 1.358215 -4.391557
v -2.303682 1.322729 -4.388455
v -2.305882 1.322667 -4.387269
v -2.305882 1.322667 -4.387269
v -2.305966 1.322875 -4.384779
v -2.305966 1.322875 -4.384779
v -2.303851 1.323145 -4.383475
v -2.301651 1.323207 -4.384661
v -2.301651 1.323207 -4.384661
v -2.301567 1.322999 -4.387151
v -2.301567 1.322999 -4.387151
v -2.303682 1.322729 -4.388455
v -2.300484 1.281828 -4.385
v -2.302683 1.281746 -4.383813
v -2.302683 1.281746 -4.383813
v -2.302767 1.281945 -4.381322
v -2.302767 1.281945 -4.381322
v -2.300653 1.282227 -4.380019
v -2.298454 1.282309 -4.381206
v -2.298454 1.282309 -4.381206
v -2.29837 1.28211 -4.383696
v -2.29837 1.28211 -4.383696
v -2.300484 1.281828 -4.385
v -2.296563 1.236413 -4.381315
v -2.298761 1.236308 -4.380127
v -2.298761 1.236308 -4.380127
v -2.298845 1.236498 -4.377635
v -2.298845 1.236498 -4.377635
v -2.296733 1.236793 -4.376332
v -2.294535 1.236899 -4.37752
v -2.294535 1.236899 -4.37752
v -2.294451 1.236709 -4.380011
v -2.294451 1.236709 -4.380011
v -2.296563 1.236413 -4.381315
v -2.291877 1.187387 -4.377521
v -2.294073 1.187255 -4.376333
v -2.294073 1.187255 -4.376333
v -2.294158 1.187433 -4.37384
v -2.294158 1.187433 -4.37384
v -2.292047 1.187744 -4.372537
v -2.289852 1.187876 -4.373725
v -2.289852 1.187876 -4.373725
v -2.289767 1.187698 -4.376218
v -2.289767 1.187698 -4.376218
v -2.291877 1.187387 -4.377521
v -2.286382 1.13565 -4.373743
v -2.288575 1.135487 -4.372553
v -2.288575 1.135487 -4.372553
v -2.28866 1.135654 -4.37006
v -2.28866 1.135654 -4.37006
v -2.286552 1.135982 -4.368757
v -2.284359 1.136145 -4.369946
v -2.284359 1.136145 -4.369946
v -2.284274 1.135979 -4.372439
v -2.284274 1.135979 -4.372439
v -2.286382 1.13565 -4.373743
v -2.280035 1.082075 -4.3701
v -2.282177 1.081639 -4.368887
v -2.282177 1.081639 -4.368887
v -2.282262 1.081821 -4.366395
v -2.282262 1.081821 -4.366395
v -2.280205 1.082438 -4.365117
v -2.278062 1.082874 -4.36633
v -2.278062 1.082874 -4.36633
v -2.277977 1.082692 -4.368822
v -2.277977 1.082692 -4.368822
v -2.280035 1.082075 -4.3701
v -2.260911 1.032865 -4.365388
v -2.262764 1.031812 -4.364081
v -2.262764 1.031812 -4.364081
v -2.262846 1.032074 -4.361597
v -2.262846 1.032074 -4.361597
v -2.261076 1.033389 -4.360419
v -2.259223 1.034442 -4.361726
v -2.259223 1.034442 -4.361726
v -2.259141 1.034181 -4.364211
v -2.259141 1.034181 -4.364211
v -2.260911 1.032865 -4.365388
v -2.220558 0.9930429 -4.35866
v -2.221907 0.9915397 -4.357186
v -2.262764 1.031812 -4.364081
v -2.262846 1.032074 -4.361597
v -2.221907 0.9915397 -4.357186
v -2.221985 0.9919471 -4.354721
v -2.221985 0.9919471 -4.354721
v -2.220713 0.9938576 -4.353729
v -2.219364 0.9953607 -4.355203
v -2.219364 0.9953607 -4.355203
v -2.219287 0.9949534 -4.357668
v -2.219287 0.9949534 -4.357668
v -2.220558 0.9930429 -4.35866
v -2.164139 0.9616931 -4.350415
v -2.165092 0.9600862 -4.348753
v -2.165092 0.9600862 -4.348753
v -2.165163 0.9606907 -4.346329
v -2.165163 0.9606907 -4.346329
v -2.164281 0.9629021 -4.345565
v -2.163329 0.9645091 -4.347227
v -2.163329 0.9645091 -4.347227
v -2.163258 0.9639046 -4.349651
v -2.163258 0.9639046 -4.349651
v -2.164139 0.9616931 -4.350415
v -2.096823 0.9378656 -4.341143
v -2.097509 0.936366 -4.339264
v -2.097509 0.936366 -4.339264
v -2.09757 0.9372423 -4.336924
v -2.09757 0.9372423 -4.336924
v -2.096944 0.9396182 -4.336462
v -2.096257 0.9411178 -4.338341
v -2.096257 0.9411178 -4.338341
v -2.096197 0.9402415 -4.340681
v -2.096197 0.9402415 -4.340681
v -2.096823 0.9378656 -4.341143
v -2.023775 0.9205977 -4.331302
v -2.024285 0.9193991 -4.329168
v -2.024285 0.9193991 -4.329168
v -2.024328 0.9206566 -4.327008
v -2.024328 0.9206566 -4.327008
v -2.023863 0.9231128 -4.326982
v -2.023353 0.9243113 -4.329115
v -2.023353 0.9243113 -4.329115
v -2.02331 0.9230538 -4.331275
v -2.023353 0.9243113 -4.329115
v -2.023775 0.9205977 -4.331302
v -1.950167 0.9089363 -4.321281
v -1.950556 0.9083193 -4.31889
v -1.950556 0.9083193 -4.31889
v -1.950571 0.9100928 -4.317128
v -1.950571 0.9100928 -4.317128
v -1.950198 0.9124834 -4.317758
v -1.94981 0.9131004 -4.320149
v -1.94981 0.9131004 -4.320149
v -1.949795 0.9113269 -4.321911
v -1.950167 0.9089363 -4.321281
v -1.950167 0.9089363 -4.321281
v -1.881169 0.9020616 -4.311386
v -1.881472 0.9024191 -4.30893
v -1.881444 0.9047359 -4.307991
v -1.881472 0.9024191 -4.30893
v -1.881111 0.9066952 -4.309508
v -1.94981 0.9131004 -4.320149
v -1.880808 0.9063377 -4.311964
v -1.881111 0.9066952 -4.309508
v -1.949795 0.9113269 -4.321911
v -1.880836 0.9040209 -4.312902
v -1.880808 0.9063377 -4.311964
v -1.950167 0.9089363 -4.321281
v -1.881169 0.9020616 -4.311386
v -1.880836 0.9040209 -4.312902
v -1.821933 0.899451 -4.302144
v -1.822189 0.90095 -4.300159
v -1.821933 0.899451 -4.302144
v -1.822111 0.9034319 -4.30045
v -1.821778 0.9044149 -4.302724
v -1.822111 0.9034319 -4.30045
v -1.821522 0.9029159 -4.304708
v -1.821522 0.9029159 -4.304708
v -1.8216 0.900434 -4.304418
v -1.8216 0.900434 -4.304418
v -1.821933 0.899451 -4.302144
v -1.7776 0.9003732 -4.294598
v -1.777903 0.9026138 -4.293531
v -1.777797 0.9046865 -4.294925
v -1.777797 0.9046865 -4.294925
v -1.777388 0.9045184 -4.297386
v -1.777085 0.9022778 -4.298452
v -1.777388 0.9045184 -4.297386
v -1.777191 0.9002051 -4.297059
v -1.777191 0.9002051 -4.297059
v -1.7776 0.9003732 -4.294598
v -1.753321 0.9027371 -4.290551
v -1.753781 0.9047917 -4.289203
v -1.753681 0.907044 -4.290284
v -1.753681 0.907044 -4.290284
v -1.753121 0.9072418 -4.292712
v -1.753121 0.9072418 -4.292712
v -1.752662 0.9051873 -4.29406
v -1.752762 0.902935 -4.29298
v -1.752762 0.902935 -4.29298
v -1.753321 0.9027371 -4.290551
v -1.740554 0.9030374 -4.288725
v -1.753781 0.9047917 -4.289203
v -1.741282 0.9035605 -4.286391
v -1.740554 0.9030374 -4.288725
v -1.741282 0.9035605 -4.286391
v -1.741247 0.9059218 -4.285571
v -1.741247 0.9059218 -4.285571
v -1.740485 0.90776 -4.287084
v -1.740485 0.90776 -4.287084
v -1.752662 0.9051873 -4.29406
v -1.739758 0.9072369 -4.289418
v -1.739758 0.9072369 -4.289418
v -1.752762 0.902935 -4.29298
v -1.739792 0.9048756 -4.290238
v -1.739792 0.9048756 -4.290238
v -1.740554 0.9030374 -4.288725
v -1.72753 0.8995069 -4.28447
v -1.728659 0.899195 -4.282261
v -1.741247 0.9059218 -4.285571
v -1.728669 0.9010534 -4.280589
v -1.728669 0.9010534 -4.280589
v -1.72755 0.9032237 -4.281125
v -1.726421 0.9035355 -4.283334
v -1.726411 0.9016772 -4.285006
v -1.726411 0.9016772 -4.285006
v -1.72753 0.8995069 -4.28447
v -1.714437 0.8928885 -4.277645
v -1.715796 0.8926823 -4.275557
v -1.715806 0.8945395 -4.273884
v -1.715806 0.8945395 -4.273884
v -1.714457 0.8966032 -4.274299
v -1.713098 0.8968095 -4.276387
v -1.713088 0.8949522 -4.27806
v -1.713088 0.8949522 -4.27806
v -1.714437 0.8928885 -4.277645
v -1.70141 0.8853236 -4.268487
v -1.702888 0.8854823 -4.266478
v -1.702883 0.8875567 -4.265082
v -1.702883 0.8875567 -4.265082
v -1.701399 0.8894724 -4.265697
v -1.699921 0.8893138 -4.267707
v -1.699926 0.8872393 -4.269102
v -1.699926 0.8872393 -4.269102
v -1.70141 0.8853236 -4.268487
v -1.688611 0.8788292 -4.256675
v -1.690174 0.8795169 -4.254848
v -1.690141 0.8818662 -4.253994
v -1.690141 0.8818662 -4.253994
v -1.688546 0.8835277 -4.254966
v -1.686983 0.88284 -4.256793
v -1.687016 0.8804907 -4.257647
v -1.687016 0.8804907 -4.257647
v -1.688611 0.8788292 -4.256675
v -1.676197 0.8754472 -4.24192
v -1.677866 0.8766861 -4.24053
v -1.677802 0.8791833 -4.240431
v -1.677802 0.8791833 -4.240431
v -1.67607 0.8804415 -4.241722
v -1.674401 0.8792026 -4.243111
v -1.674465 0.8767054 -4.24321
v -1.674465 0.8767054 -4.24321
v -1.676197 0.8754472 -4.24192
v -1.664323 0.8771433 -4.224095
v -1.666131 0.8787071 -4.223364
v -1.677802 0.8791833 -4.240431
v -1.666043 0.8811168 -4.224024
v -1.666131 0.8787071 -4.223364
v -1.666043 0.8811168 -4.224024
v -1.664146 0.8819627 -4.225415
v -1.662338 0.8803988 -4.226147
v -1.674465 0.8767054 -4.24321
v -1.662426 0.8779891 -4.225487
v -1.662338 0.8803988 -4.226147
v -1.662426 0.8779891 -4.225487
v -1.664323 0.8771433 -4.224095
v -1.65315 0.885691 -4.203052
v -1.655086 0.88727 -4.20297
v -1.655086 0.88727 -4.20297
v -1.654983 0.8894402 -4.204206
v -1.654983 0.8894402 -4.204206
v -1.652943 0.8900315 -4.205525
v -1.651007 0.8884525 -4.205607
v -1.651007 0.8884525 -4.205607
v -1.65111 0.8862823 -4.204371
v -1.65111 0.8862823 -4.204371
v -1.65315 0.885691 -4.203052
v -1.642844 0.9028192 -4.178469
v -1.644865 0.9042355 -4.178869
v -1.644865 0.9042355 -4.178869
v -1.644755 0.9061426 -4.180481
v -1.644755 0.9061426 -4.180481
v -1.642624 0.9066333 -4.181694
v -1.640604 0.905217 -4.181294
v -1.640604 0.905217 -4.181294
v -1.640713 0.9033099 -4.179681
v -1.640713 0.9033099 -4.179681
v -1.642844 0.9028192 -4.178469
v -1.633574 0.9302182 -4.150054
v -1.635637 0.9314826 -4.150681
v -1.635637 0.9314826 -4.150681
v -1.635526 0.9332696 -4.152426
v -1.635526 0.9332696 -4.152426
v -1.633351 0.9337922 -4.153543
v -1.631288 0.9325278 -4.152915
v -1.631288 0.9325278 -4.152915
v -1.631399 0.9307408 -4.151171
v -1.631399 0.9307408 -4.151171
v -1.633574 0.9302182 -4.150054
v -1.626046 0.9600189 -4.118793
v -1.628129 0.961253 -4.119413
v -1.628129 0.961253 -4.119413
v -1.62802 0.9631576 -4.121029
v -1.62802 0.9631576 -4.121029
v -1.625826 0.9638281 -4.122024
v -1.623743 0.9625941 -4.121403
v -1.623743 0.9625941 -4.121403
v -1.623852 0.9606895 -4.119787
v -1.623852 0.9606895 -4.119787
v -1.626046 0.9600189 -4.118793
v -1.620799 0.9838282 -4.08632
v -1.622898 0.9850738 -4.086864
v -1.622898 0.9850738 -4.086864
v -1.622792 0.9871662 -4.088227
v -1.622792 0.9871662 -4.088227
v -1.620588 0.9880129 -4.089049
v -1.61849 0.9867673 -4.088506
v -1.61849 0.9867673 -4.088506
v -1.618595 0.9846749 -4.087142
v -1.618595 0.9846749 -4.087142
v -1.620799 0.9838282 -4.08632
v -1.617749 1.002438 -4.053377
v -1.619859 1.003685 -4.053871
v -1.619859 1.003685 -4.053871
v -1.619759 1.005919 -4.054987
v -1.619759 1.005919 -4.054987
v -1.617548 1.006907 -4.055609
v -1.615438 1.005661 -4.055115
v -1.615438 1.005661 -4.055115
v -1.615539 1.003426 -4.053998
v -1.615539 1.003426 -4.053998
v -1.617749 1.002438 -4.053377
v -1.616812 1.016521 -4.020817
v -1.618928 1.017763 -4.021296
v -1.618928 1.017763 -4.021296
v -1.618833 1.0201 -4.02218
v -1.618833 1.0201 -4.02218
v -1.616622 1.021194 -4.022586
v -1.614506 1.019951 -4.022108
v -1.614506 1.019951 -4.022108
v -1.614601 1.017615 -4.021224
v -1.614601 1.017615 -4.021224
v -1.616812 1.016521 -4.020817
v -1.617901 1.026746 -3.989501
v -1.620016 1.027984 -3.989999
v -1.620016 1.027984 -3.989999
v -1.619926 1.03039 -3.990674
v -1.619926 1.03039 -3.990674
v -1.617723 1.031557 -3.990852
v -1.615608 1.030319 -3.990355
v -1.615608 1.030319 -3.990355
v -1.615698 1.027914 -3.989679
v -1.615698 1.027914 -3.989679
v -1.617901 1.026746 -3.989501
v -1.620932 1.033783 -3.960293
v -1.623033 1.035018 -3.960851
v -1.623033 1.035018 -3.960851
v -1.622949 1.037468 -3.961345
v -1.622949 1.037468 -3.961345
v -1.620764 1.038682 -3.96128
v -1.618664 1.037446 -3.960721
v -1.618664 1.037446 -3.960721
v -1.618748 1.034997 -3.960228
v -1.618748 1.034997 -3.960228
v -1.620932 1.033783 -3.960293
v -1.62582 1.038301 -3.934056
v -1.627886 1.039536 -3.934732
v -1.627886 1.039536 -3.934732
v -1.627807 1.042012 -3.935074
v -1.627807 1.042012 -3.935074
v -1.625662 1.043252 -3.93474
v -1.623596 1.042017 -3.934063
v -1.623596 1.042017 -3.934063
v -1.623675 1.039541 -3.933721
v -1.623675 1.039541 -3.933721
v -1.62582 1.038301 -3.934056
v -1.63248 1.040973 -3.911651
v -1.634466 1.042209 -3.912533
v -1.634466 1.042209 -3.912533
v -1.634391 1.044697 -3.912759
v -1.634391 1.044697 -3.912759
v -1.632329 1.04595 -3.912103
v -1.630343 1.044714 -3.911221
v -1.630343 1.044714 -3.911221
v -1.630418 1.042225 -3.910995
v -1.630418 1.042225 -3.910995
v -1.63248 1.040973 -3.911651
v -1.640826 1.04247 -3.89393
v -1.642622 1.043696 -3.895163
v -1.642622 1.043696 -3.895163
v -1.642549 1.04619 -3.895324
v -1.642549 1.04619 -3.895324
v -1.64068 1.047457 -3.894253
v -1.638884 1.046231 -3.89302
v -1.638884 1.046231 -3.89302
v -1.638957 1.043738 -3.892858
v -1.638957 1.043738 -3.892858
v -1.640826 1.04247 -3.89393
v -1.650629 1.043477 -3.881631
v -1.652158 1.044502 -3.883322
v -1.652158 1.044502 -3.883322
v -1.652231 1.046985 -3.8836
v -1.652231 1.046985 -3.8836
v -1.650774 1.048444 -3.882186
v -1.649244 1.04742 -3.880495
v -1.649244 1.04742 -3.880495
v -1.649172 1.044936 -3.880218
v -1.649172 1.044936 -3.880218
v -1.650629 1.043477 -3.881631
v -1.66037 1.04416 -3.873876
v -1.661612 1.044711 -3.875974
v -1.661612 1.044711 -3.875974
v -1.661946 1.047097 -3.876641
v -1.661946 1.047097 -3.876641
v -1.661039 1.048933 -3.875207
v -1.659797 1.048383 -3.873109
v -1.659797 1.048383 -3.873109
v -1.659463 1.045997 -3.872442
v -1.659463 1.045997 -3.872442
v -1.66037 1.04416 -3.873876
v -1.66916 1.044466 -3.868974
v -1.669938 1.044291 -3.871343
v -1.661612 1.044711 -3.875974
v -1.661946 1.047097 -3.876641
v -1.669938 1.044291 -3.871343
v -1.670418 1.046363 -3.872658
v -1.670418 1.046363 -3.872658
v -1.670119 1.04861 -3.871603
v -1.66934 1.048785 -3.869233
v -1.66934 1.048785 -3.869233
v -1.659463 1.045997 -3.872442
v -1.668861 1.046713 -3.867919
v -1.668861 1.046713 -3.867919
v -1.66916 1.044466 -3.868974
v -1.677844 1.045107 -3.866398
v -1.677924 1.0437 -3.868463
v -1.677924 1.0437 -3.868463
v -1.678131 1.044784 -3.870707
v -1.678131 1.044784 -3.870707
v -1.670119 1.04861 -3.871603
v -1.678258 1.047274 -3.870885
v -1.678131 1.044784 -3.870707
v -1.678258 1.047274 -3.870885
v -1.678178 1.048681 -3.86882
v -1.677971 1.047598 -3.866577
v -1.677971 1.047598 -3.866577
v -1.66916 1.044466 -3.868974
v -1.677844 1.045107 -3.866398
v -1.68683 1.045752 -3.86662
v -1.686573 1.043594 -3.867856
v -1.686573 1.043594 -3.867856
v -1.678131 1.044784 -3.870707
v -1.686227 1.043605 -3.870332
v -1.686227 1.043605 -3.870332
v -1.68614 1.045774 -3.871572
v -1.68614 1.045774 -3.871572
v -1.686397 1.047932 -3.870336
v -1.686743 1.047921 -3.86786
v -1.68683 1.045752 -3.86662
v -1.696132 1.045809 -3.868746
v -1.695866 1.043511 -3.869693
v -1.695221 1.043213 -3.87209
v -1.695221 1.043213 -3.87209
v -1.694843 1.045214 -3.87354
v -1.694843 1.045214 -3.87354
v -1.695109 1.047512 -3.872593
v -1.695753 1.04781 -3.870196
v -1.696132 1.045809 -3.868746
v -1.706337 1.045926 -3.8719
v -1.706121 1.043656 -3.872926
v -1.705387 1.043425 -3.875305
v -1.705387 1.043425 -3.875305
v -1.70487 1.045463 -3.876658
v -1.70487 1.045463 -3.876658
v -1.705087 1.047732 -3.875632
v -1.70582 1.047964 -3.873253
v -1.706337 1.045926 -3.8719
v -1.718078 1.046624 -3.875596
v -1.717946 1.044442 -3.87681
v -1.717247 1.044387 -3.879209
v -1.717247 1.044387 -3.879209
v -1.716682 1.046513 -3.880396
v -1.716682 1.046513 -3.880396
v -1.716814 1.048695 -3.879182
v -1.717512 1.04875 -3.876783
v -1.718078 1.046624 -3.875596
v -1.731953 1.048266 -3.879363
v -1.731948 1.046191 -3.880757
v -1.731356 1.046317 -3.883183
v -1.731356 1.046317 -3.883183
v -1.73077 1.048517 -3.884214
v -1.73077 1.048517 -3.884214
v -1.730775 1.050592 -3.88282
v -1.731367 1.050467 -3.880394
v -1.731953 1.048266 -3.879363
v -1.748542 1.05115 -3.882704
v -1.748697 1.049176 -3.88423
v -1.748249 1.049447 -3.886674
v -1.748249 1.049447 -3.886674
v -1.747646 1.051692 -3.887593
v -1.747646 1.051692 -3.887593
v -1.747491 1.053667 -3.886068
v -1.747939 1.053396 -3.883623
v -1.748542 1.05115 -3.882704
v -1.768493 1.055588 -3.885121
v -1.768737 1.053657 -3.88669
v -1.768367 1.053983 -3.889141
v -1.768367 1.053983 -3.889141
v -1.767754 1.056241 -3.890023
v -1.767754 1.056241 -3.890023
v -1.767511 1.058172 -3.888453
v -1.76788 1.057845 -3.886003
v -1.768493 1.055588 -3.885121

vn 0.03328139 -0.09407476 -0.9950086
vn -0.8478026 -0.09226649 -0.5222235
vn 0.03328436 -0.09312946 -0.9950975
vn -0.8477626 -0.09351235 -0.5220669
vn -0.8478026 -0.09226649 -0.5222235
vn -0.8811393 0.001859749 0.472853
vn -0.8477626 -0.09351235 -0.5220669
vn -0.8810613 -0.0003814531 0.4730019
vn -0.8811393 0.001859749 0.472853
vn -0.03328139 0.09407476 0.9950086
vn -0.8810613 -0.0003814531 0.4730019
vn -0.03328436 0.09312946 0.9950975
vn 0.8478026 0.09226649 0.5222235
vn 0.8477626 0.09351235 0.5220669
vn 0.8478026 0.09226649 0.5222235
vn 0.8811393 -0.001859749 -0.472853
vn 0.8477626 0.09351235 0.5220669
vn 0.8810613 0.0003814531 -0.4730019
vn 0.8811393 -0.001859749 -0.472853
vn 0.03328139 -0.09407476 -0.9950086
vn 0.8810613 0.0003814531 -0.4730019
vn 0.03328436 -0.09312946 -0.9950975
vn 0.03337959 -0.0910786 -0.9952841
vn -0.8474748 -0.09641016 -0.5220071
vn -0.8474748 -0.09641016 -0.5220071
vn -0.8808472 -0.005340201 0.4733707
vn -0.8808472 -0.005340201 0.4733707
vn -0.03337959 0.0910786 0.9952841
vn 0.8474748 0.09641016 0.5220071
vn 0.8474748 0.09641016 0.5220071
vn 0.8808472 0.005340201 -0.4733707
vn 0.8808472 0.005340201 -0.4733707
vn 0.03337959 -0.0910786 -0.9952841
vn 0.03347553 -0.08874355 -0.9954918
vn -0.8471662 -0.09985174 -0.5218613
vn -0.8471662 -0.09985174 -0.5218613
vn -0.8806612 -0.01115847 0.4736153
vn -0.8806612 -0.01115847 0.4736153
vn -0.03347553 0.08874355 0.9954918
vn 0.8471662 0.09985174 0.5218613
vn 0.8471662 0.09985174 0.5218613
vn 0.8806612 0.01115847 -0.4736153
vn 0.8806612 0.01115847 -0.4736153
vn 0.03347553 -0.08874355 -0.9954918
vn 0.03357226 -0.0860766 -0.9957227
vn -0.8468138 -0.1036701 -0.5216884
vn -0.8468138 -0.1036701 -0.5216884
vn -0.8803562 -0.01759568 0.4739866
vn -0.8803562 -0.01759568 0.4739866
vn -0.03357226 0.0860766 0.9957227
vn 0.8468138 0.1036701 0.5216884
vn 0.8468138 0.1036701 0.5216884
vn 0.8803562 0.01759568 -0.4739866
vn 0.8803562 0.01759568 -0.4739866
vn 0.03357226 -0.0860766 -0.9957227
vn 0.03366316 -0.0831089 -0.9959717
vn -0.8463213 -0.1079477 -0.52162
vn -0.8463213 -0.1079477 -0.52162
vn -0.8799757 -0.02484379 0.4743686
vn -0.8799757 -0.02484379 0.4743686
vn -0.03366316 0.0831089 0.9959717
vn 0.8463213 0.1079477 0.52162
vn 0.8463213 0.1079477 0.52162
vn 0.8799757 0.02484379 -0.4743686
vn 0.8799757 0.02484379 -0.4743686
vn 0.03366316 -0.0831089 -0.9959717
vn 0.0337613 -0.07973009 -0.9962446
vn -0.8457978 -0.1127222 -0.5214593
vn -0.8457978 -0.1127222 -0.5214593
vn -0.8795012 -0.03299798 0.4747513
vn -0.8795012 -0.03299798 0.4747513
vn -0.0337613 0.07973009 0.9962446
vn 0.8457978 0.1127222 0.5214593
vn 0.8457978 0.1127222 0.5214593
vn 0.8795012 0.03299798 -0.4747513
vn 0.8795012 0.03299798 -0.4747513
vn 0.0337613 -0.07973009 -0.9962446
vn 0.03385375 -0.07590869 -0.99654
vn -0.8450497 -0.1181601 -0.5214684
vn -0.8450497 -0.1181601 -0.5214684
vn -0.878906 -0.04224776 0.4751204
vn -0.878906 -0.04224776 0.4751204
vn -0.03385375 0.07590869 0.99654
vn 0.8450497 0.1181601 0.5214684
vn 0.8450497 0.1181601 0.5214684
vn 0.878906 0.04224776 -0.4751204
vn 0.878906 0.04224776 -0.4751204
vn 0.03385375 -0.07590869 -0.99654
vn 0.03395353 -0.0715313 -0.9968603
vn -0.8441688 -0.1243556 -0.5214545
vn -0.8441688 -0.1243556 -0.5214545
vn -0.8781305 -0.05283279 0.4754951
vn -0.8781305 -0.05283279 0.4754951
vn -0.03395353 0.0715313 0.9968603
vn 0.8441688 0.1243556 0.5214545
vn 0.8441688 0.1243556 0.5214545
vn 0.8781305 0.05283279 -0.4754951
vn 0.8781305 0.05283279 -0.4754951
vn 0.03395353 -0.0715313 -0.9968603
vn 0.03414297 -0.06647389 -0.9972038
vn -0.8430721 -0.1314678 -0.521484
vn -0.8430721 -0.1314678 -0.521484
vn -0.877203 -0.0649939 0.4757
vn -0.877203 -0.0649939 0.4757
vn -0.03414297 0.06647389 0.9972038
vn 0.8430721 0.1314678 0.521484
vn 0.8430721 0.1314678 0.521484
vn 0.877203 0.0649939 -0.4757
vn 0.877203 0.0649939 -0.4757
vn 0.03414297 -0.06647389 -0.9972038
vn 0.03395073 -0.07266982 -0.9967781
vn -0.8229762 -0.2469691 -0.5115824
vn -0.8229762 -0.2469691 -0.5115824
vn -0.8568508 -0.1742788 0.485215
vn -0.8568508 -0.1742788 0.485215
vn -0.03395073 0.07266982 0.9967781
vn 0.8229762 0.2469691 0.5115824
vn 0.8229762 0.2469691 0.5115824
vn 0.8568508 0.1742788 -0.485215
vn 0.8568508 0.1742788 -0.485215
vn 0.03395073 -0.07266982 -0.9967781
vn 0.03299829 -0.1047171 -0.9939544
vn -0.7080078 -0.5260944 -0.4711151
vn -0.7080078 -0.5260944 -0.4711151
vn -0.7410144 -0.4213863 0.5228109
vn -0.7410144 -0.4213863 0.5228109
vn -0.03299829 0.1047171 0.9939544
vn 0.7080078 0.5260944 0.4711151
vn 0.7080078 0.5260944 0.4711151
vn 0.7410144 0.4213863 -0.5228109
vn 0.7410144 0.4213863 -0.5228109
vn 0.03299829 -0.1047171 -0.9939544
vn 0.03109124 -0.1629429 -0.9861454
vn -0.5085065 -0.764214 -0.3967342
vn -0.7080078 -0.5260944 -0.4711151
vn -0.7410144 -0.4213863 0.5228109
vn -0.5085065 -0.764214 -0.3967342
vn -0.5395789 -0.6012567 0.5893598
vn -0.5395789 -0.6012567 0.5893598
vn -0.03109124 0.1629429 0.9861454
vn 0.5085065 0.764214 0.3967342
vn 0.5085065 0.764214 0.3967342
vn 0.5395789 0.6012567 -0.5893598
vn 0.5395789 0.6012567 -0.5893598
vn 0.03109124 -0.1629429 -0.9861454
vn 0.0284201 -0.2418093 -0.9699075
vn -0.3525664 -0.8845631 -0.3053605
vn -0.3525664 -0.8845631 -0.3053605
vn -0.3810111 -0.6428072 0.664552
vn -0.3810111 -0.6428072 0.664552
vn -0.0284201 0.2418093 0.9699075
vn 0.3525664 0.8845631 0.3053605
vn 0.3525664 0.8845631 0.3053605
vn 0.3810111 0.6428072 -0.664552
vn 0.3810111 0.6428072 -0.664552
vn 0.0284201 -0.2418093 -0.9699075
vn 0.02422159 -0.3504978 -0.9362502
vn -0.2503466 -0.9503872 -0.1846366
vn -0.2503466 -0.9503872 -0.1846366
vn -0.27466 -0.5998412 0.7515002
vn -0.27466 -0.5998412 0.7515002
vn -0.02422159 0.3504978 0.9362502
vn 0.2503466 0.9503872 0.1846366
vn 0.2503466 0.9503872 0.1846366
vn 0.27466 0.5998412 -0.7515002
vn 0.27466 0.5998412 -0.7515002
vn 0.02422159 -0.3504978 -0.9362502
vn 0.01754867 -0.5030461 -0.8640814
vn -0.1862516 -0.9824461 -0.01049036
vn -0.1862516 -0.9824461 -0.01049036
vn -0.2037168 -0.4794641 0.8535887
vn -0.2037168 -0.4794641 0.8535887
vn -0.01754867 0.5030461 0.8640814
vn 0.1862516 0.9824461 0.01049036
vn 0.1862516 0.9824461 0.01049036
vn 0.2037168 0.4794641 -0.8535887
vn 0.1862516 0.9824461 0.01049036
vn 0.01754867 -0.5030461 -0.8640814
vn 0.006198878 -0.7094139 -0.7047648
vn -0.1491079 -0.9562311 0.2517715
vn -0.1491079 -0.9562311 0.2517715
vn -0.1553062 -0.2468115 0.9565376
vn -0.1553062 -0.2468115 0.9565376
vn -0.006198878 0.7094139 0.7047648
vn 0.1491079 0.9562311 -0.2517715
vn 0.1491079 0.9562311 -0.2517715
vn 0.1553062 0.2468115 -0.9565376
vn 0.006198878 -0.7094139 -0.7047648
vn 0.006198878 -0.7094139 -0.7047648
vn -0.0115394 -0.9267283 -0.375555
vn -0.1329406 -0.7837201 0.6067203
vn -0.1213984 0.1429984 0.9822494
vn -0.1329406 -0.7837201 0.6067203
vn 0.0115394 0.9267283 0.375555
vn 0.1491079 0.9562311 -0.2517715
vn 0.1329406 0.7837201 -0.6067203
vn 0.0115394 0.9267283 0.375555
vn 0.1553062 0.2468115 -0.9565376
vn 0.1213984 -0.1429984 -0.9822494
vn 0.1329406 0.7837201 -0.6067203
vn 0.006198878 -0.7094139 -0.7047648
vn -0.0115394 -0.9267283 -0.375555
vn 0.1213984 -0.1429984 -0.9822494
vn -0.03099424 -0.9927694 0.1159661
vn -0.1333633 -0.3931523 0.9097502
vn -0.03099424 -0.9927694 0.1159661
vn -0.1023847 0.5996206 0.7937081
vn 0.03099424 0.9927694 -0.1159661
vn -0.1023847 0.5996206 0.7937081
vn 0.1333633 0.3931523 -0.9097502
vn 0.1333633 0.3931523 -0.9097502
vn 0.1023847 -0.5996206 -0.7937081
vn 0.1023847 -0.5996206 -0.7937081
vn -0.03099424 -0.9927694 0.1159661
vn -0.04248704 -0.8290695 0.5575292
vn -0.1636561 0.06721247 0.9842252
vn -0.1211632 0.8962546 0.4266698
vn -0.1211632 0.8962546 0.4266698
vn 0.04248704 0.8290695 -0.5575292
vn 0.1636561 -0.06721247 -0.9842252
vn 0.04248704 0.8290695 -0.5575292
vn 0.1211632 -0.8962546 -0.4266698
vn 0.1211632 -0.8962546 -0.4266698
vn -0.04248704 -0.8290695 0.5575292
vn -0.03990967 -0.9009 0.4321879
vn -0.2237817 -0.07913185 0.9714215
vn -0.1838762 0.8218396 0.5392302
vn -0.1838762 0.8218396 0.5392302
vn 0.03990967 0.9009 -0.4321879
vn 0.03990967 0.9009 -0.4321879
vn 0.2237817 0.07913185 -0.9714215
vn 0.1838762 -0.8218396 -0.5392302
vn 0.1838762 -0.8218396 -0.5392302
vn -0.03990967 -0.9009 0.4321879
vn -0.01368485 -0.9444932 -0.3282457
vn -0.2237817 -0.07913185 0.9714215
vn -0.3048314 -0.7352573 0.6053714
vn -0.01368485 -0.9444932 -0.3282457
vn -0.3048314 -0.7352573 0.6053714
vn -0.2911287 0.2092503 0.9335194
vn -0.2911287 0.2092503 0.9335194
vn 0.01368485 0.9444932 0.3282457
vn 0.01368485 0.9444932 0.3282457
vn 0.2237817 0.07913185 -0.9714215
vn 0.3048314 0.7352573 -0.6053714
vn 0.3048314 0.7352573 -0.6053714
vn 0.1838762 -0.8218396 -0.5392302
vn 0.2911287 -0.2092503 -0.9335194
vn 0.2911287 -0.2092503 -0.9335194
vn -0.01368485 -0.9444932 -0.3282457
vn 0.004005342 -0.7433486 -0.6688921
vn -0.4475682 -0.8681231 0.214581
vn -0.2911287 0.2092503 0.9335194
vn -0.4515601 -0.1247632 0.8834748
vn -0.4515601 -0.1247632 0.8834748
vn -0.004005342 0.7433486 0.6688921
vn 0.4475682 0.8681231 -0.214581
vn 0.4515601 0.1247632 -0.8834748
vn 0.4515601 0.1247632 -0.8834748
vn 0.004005342 -0.7433486 -0.6688921
vn 0.004053283 -0.7429667 -0.6693161
vn -0.539504 -0.8254687 0.1659425
vn -0.5435842 -0.08254622 0.8352857
vn -0.5435842 -0.08254622 0.8352857
vn -0.004053283 0.7429667 0.6693161
vn 0.539504 0.8254687 -0.1659425
vn 0.5435842 0.08254622 -0.8352857
vn 0.5435842 0.08254622 -0.8352857
vn 0.004053283 -0.7429667 -0.6693161
vn -0.002336519 -0.8297742 -0.5580943
vn -0.5935714 -0.7663069 0.2458591
vn -0.5912561 0.06346979 0.8039824
vn -0.5912561 0.06346979 0.8039824
vn 0.002336519 0.8297742 0.5580943
vn 0.5935714 0.7663069 -0.2458591
vn 0.5912561 -0.06346979 -0.8039824
vn 0.5912561 -0.06346979 -0.8039824
vn -0.002336519 -0.8297742 -0.5580943
vn -0.01306509 -0.9396853 -0.3417905
vn -0.6380306 -0.6645894 0.388893
vn -0.62501 0.2750959 0.7305374
vn -0.62501 0.2750959 0.7305374
vn 0.01306509 0.9396853 0.3417905
vn 0.6380306 0.6645894 -0.388893
vn 0.62501 -0.2750959 -0.7305374
vn 0.62501 -0.2750959 -0.7305374
vn -0.01306509 -0.9396853 -0.3417905
vn -0.02555866 -0.9988858 -0.03967314
vn -0.6930603 -0.5032853 0.5161118
vn -0.6674908 0.495552 0.5557735
vn -0.6674908 0.495552 0.5557735
vn 0.02555866 0.9988858 0.03967314
vn 0.6930603 0.5032853 -0.5161118
vn 0.6674908 -0.495552 -0.5557735
vn 0.6674908 -0.495552 -0.5557735
vn -0.02555866 -0.9988858 -0.03967314
vn -0.03557185 -0.9638731 0.2639756
vn -0.7587904 -0.3383396 0.5565639
vn -0.6674908 0.495552 0.5557735
vn -0.7232592 0.6255324 0.2925843
vn -0.7587904 -0.3383396 0.5565639
vn -0.7232592 0.6255324 0.2925843
vn 0.03557185 0.9638731 -0.2639756
vn 0.7587904 0.3383396 -0.5565639
vn 0.6674908 -0.495552 -0.5557735
vn 0.7232592 -0.6255324 -0.2925843
vn 0.7587904 0.3383396 -0.5565639
vn 0.7232592 -0.6255324 -0.2925843
vn -0.03557185 -0.9638731 0.2639756
vn -0.04129579 -0.8681415 0.4945958
vn -0.8159044 -0.2365217 0.5275959
vn -0.8159044 -0.2365217 0.5275959
vn -0.7745875 0.6316054 0.03299769
vn -0.7745875 0.6316054 0.03299769
vn 0.04129579 0.8681415 -0.4945958
vn 0.8159044 0.2365217 -0.5275959
vn 0.8159044 0.2365217 -0.5275959
vn 0.7745875 -0.6316054 -0.03299769
vn 0.7745875 -0.6316054 -0.03299769
vn -0.04129579 -0.8681415 0.4945958
vn -0.04387059 -0.7628475 0.6450884
vn -0.8521851 -0.1962858 0.4850283
vn -0.8521851 -0.1962858 0.4850283
vn -0.8083467 0.5665389 -0.160029
vn -0.8083467 0.5665389 -0.160029
vn 0.04387059 0.7628475 -0.6450884
vn 0.8521851 0.1962858 -0.4850283
vn 0.8521851 0.1962858 -0.4850283
vn 0.8083467 -0.5665389 0.160029
vn 0.8083467 -0.5665389 0.160029
vn -0.04387059 -0.7628475 0.6450884
vn -0.04444165 -0.7148096 0.6979056
vn -0.8698152 -0.2090494 0.4469003
vn -0.8698152 -0.2090494 0.4469003
vn -0.8253533 0.5057548 -0.2510058
vn -0.8253533 0.5057548 -0.2510058
vn 0.04444165 0.7148096 -0.6979056
vn 0.8698152 0.2090494 -0.4469003
vn 0.8698152 0.2090494 -0.4469003
vn 0.8253533 -0.5057548 0.2510058
vn 0.8253533 -0.5057548 0.2510058
vn -0.04444165 -0.7148096 0.6979056
vn -0.04387086 -0.7618747 0.6462369
vn -0.8773511 -0.2682265 0.3978813
vn -0.8773511 -0.2682265 0.3978813
vn -0.8334656 0.493623 -0.2483374
vn -0.8334656 0.493623 -0.2483374
vn 0.04387086 0.7618747 -0.6462369
vn 0.8773511 0.2682265 -0.3978813
vn 0.8773511 0.2682265 -0.3978813
vn 0.8334656 -0.493623 0.2483374
vn 0.8334656 -0.493623 0.2483374
vn -0.04387086 -0.7618747 0.6462369
vn -0.04224774 -0.8369201 0.545692
vn -0.8816993 -0.338708 0.3284557
vn -0.8816993 -0.338708 0.3284557
vn -0.8394256 0.498248 -0.2170566
vn -0.8394256 0.498248 -0.2170566
vn 0.04224774 0.8369201 -0.545692
vn 0.8816993 0.338708 -0.3284557
vn 0.8816993 0.338708 -0.3284557
vn 0.8394256 -0.498248 0.2170566
vn 0.8394256 -0.498248 0.2170566
vn -0.04224774 -0.8369201 0.545692
vn -0.04024656 -0.8938646 0.4465269
vn -0.8842407 -0.3952953 0.2487165
vn -0.8842407 -0.3952953 0.2487165
vn -0.8439834 0.4985701 -0.1977877
vn -0.8439834 0.4985701 -0.1977877
vn 0.04024656 0.8938646 -0.4465269
vn 0.8842407 0.3952953 -0.2487165
vn 0.8842407 0.3952953 -0.2487165
vn 0.8439834 -0.4985701 0.1977877
vn 0.8439834 -0.4985701 0.1977877
vn -0.04024656 -0.8938646 0.4465269
vn -0.03800189 -0.9345509 0.3537943
vn -0.8843988 -0.4375979 0.162317
vn -0.8843988 -0.4375979 0.162317
vn -0.8463928 0.4970114 -0.1913086
vn -0.8463928 0.4970114 -0.1913086
vn 0.03800189 0.9345509 -0.3537943
vn 0.8843988 0.4375979 -0.162317
vn 0.8843988 0.4375979 -0.162317
vn 0.8463928 -0.4970114 0.1913086
vn 0.8463928 -0.4970114 0.1913086
vn -0.03800189 -0.9345509 0.3537943
vn -0.03571463 -0.9621493 0.2701724
vn -0.881408 -0.4669531 0.07123741
vn -0.881408 -0.4669531 0.07123741
vn -0.8456905 0.495207 -0.1989411
vn -0.8456905 0.495207 -0.1989411
vn 0.03571463 0.9621493 -0.2701724
vn 0.881408 0.4669531 -0.07123741
vn 0.881408 0.4669531 -0.07123741
vn 0.8456905 -0.495207 0.1989411
vn 0.8456905 -0.495207 0.1989411
vn -0.03571463 -0.9621493 0.2701724
vn -0.0335699 -0.9797261 0.1975093
vn -0.8737934 -0.485605 -0.02593962
vn -0.8737934 -0.485605 -0.02593962
vn -0.8401953 0.4941512 -0.2233527
vn -0.8401953 0.4941512 -0.2233527
vn 0.0335699 0.9797261 -0.1975093
vn 0.8737934 0.485605 0.02593962
vn 0.8737934 0.485605 0.02593962
vn 0.8401953 -0.4941512 0.2233527
vn 0.8401953 -0.4941512 0.2233527
vn -0.0335699 -0.9797261 0.1975093
vn -0.03171051 -0.9900833 0.1368559
vn -0.8579456 -0.4960378 -0.1337008
vn -0.8579456 -0.4960378 -0.1337008
vn -0.8262638 0.4940512 -0.2705575
vn -0.8262638 0.4940512 -0.2705575
vn 0.03171051 0.9900833 -0.1368559
vn 0.8579456 0.4960378 0.1337008
vn 0.8579456 0.4960378 0.1337008
vn 0.8262638 -0.4940512 0.2705575
vn 0.8262638 -0.4940512 0.2705575
vn -0.03171051 -0.9900833 0.1368559
vn -0.03013621 -0.9954487 0.09040864
vn -0.8246526 -0.5011145 -0.2623591
vn -0.8246526 -0.5011145 -0.2623591
vn -0.7944856 0.4943243 -0.352755
vn -0.7944856 0.4943243 -0.352755
vn 0.03013621 0.9954487 -0.09040864
vn 0.8246526 0.5011145 0.2623591
vn 0.8246526 0.5011145 0.2623591
vn 0.7944856 -0.4943243 0.352755
vn 0.7944856 -0.4943243 0.352755
vn -0.03013621 -0.9954487 0.09040864
vn -0.02927746 -0.9974841 0.064563
vn -0.7477875 -0.5070764 -0.4285878
vn -0.7477875 -0.5070764 -0.4285878
vn -0.7185161 0.4904392 -0.4931572
vn -0.7185161 0.4904392 -0.4931572
vn 0.02927746 0.9974841 -0.064563
vn 0.7477875 0.5070764 0.4285878
vn 0.7477875 0.5070764 0.4285878
vn 0.7185161 -0.4904392 0.4931572
vn 0.7185161 -0.4904392 0.4931572
vn -0.02927746 -0.9974841 0.064563
vn 0.02908734 -0.9934043 0.1109134
vn -0.5827898 -0.5835527 -0.5655283
vn -0.5827898 -0.5835527 -0.5655283
vn -0.6118968 0.4098545 -0.6764626
vn -0.6118968 0.4098545 -0.6764626
vn -0.02908734 0.9934043 -0.1109134
vn 0.5827898 0.5835527 0.5655283
vn 0.5827898 0.5835527 0.5655283
vn 0.6118968 -0.4098545 0.6764626
vn 0.6118968 -0.4098545 0.6764626
vn 0.02908734 -0.9934043 0.1109134
vn 0.133655 -0.954563 0.2663564
vn -0.3630792 -0.7345987 -0.5731825
vn -0.3630792 -0.7345987 -0.5731825
vn -0.4967039 0.2199573 -0.8395855
vn -0.4967039 0.2199573 -0.8395855
vn -0.133655 0.954563 -0.2663564
vn 0.3630792 0.7345987 0.5731825
vn 0.3630792 0.7345987 0.5731825
vn 0.4967039 -0.2199573 0.8395855
vn 0.4967039 -0.2199573 0.8395855
vn 0.133655 -0.954563 0.2663564
vn 0.1917381 -0.8287987 0.5256703
vn -0.1195935 -0.8986681 -0.4220106
vn -0.3630792 -0.7345987 -0.5731825
vn -0.4967039 0.2199573 -0.8395855
vn -0.1195935 -0.8986681 -0.4220106
vn -0.3113171 -0.06990212 -0.9477316
vn -0.3113171 -0.06990212 -0.9477316
vn -0.1917381 0.8287987 -0.5256703
vn 0.1195935 0.8986681 0.4220106
vn 0.1195935 0.8986681 0.4220106
vn 0.4967039 -0.2199573 0.8395855
vn 0.3113171 0.06990212 0.9477316
vn 0.3113171 0.06990212 0.9477316
vn 0.1917381 -0.8287987 0.5256703
vn 0.08268315 -0.4333951 0.8974031
vn 0.05087819 -0.996154 0.07133438
vn 0.05087819 -0.996154 0.07133438
vn -0.03185343 -0.5627757 -0.8259956
vn -0.03185343 -0.5627757 -0.8259956
vn -0.1917381 0.8287987 -0.5256703
vn -0.08268315 0.4333951 -0.8974031
vn -0.03185343 -0.5627757 -0.8259956
vn -0.08268315 0.4333951 -0.8974031
vn -0.05087819 0.996154 -0.07133438
vn 0.03185343 0.5627757 0.8259956
vn 0.03185343 0.5627757 0.8259956
vn 0.1917381 -0.8287987 0.5256703
vn 0.08268315 -0.4333951 0.8974031
vn -0.1381413 -0.004530005 0.9904022
vn -0.03504772 -0.8676099 0.4960087
vn -0.03504772 -0.8676099 0.4960087
vn -0.03185343 -0.5627757 -0.8259956
vn 0.1030909 -0.863112 -0.4943785
vn 0.1030909 -0.863112 -0.4943785
vn 0.1381413 0.004530005 -0.9904022
vn 0.1381413 0.004530005 -0.9904022
vn 0.03504772 0.8676099 -0.4960087
vn -0.1030951 0.8630998 0.4943988
vn -0.1381413 -0.004530005 0.9904022
vn -0.2578725 0.1190181 0.9588203
vn -0.1514933 -0.8003823 0.5800328
vn 0.1063826 -0.9193439 -0.3788002
vn 0.1063826 -0.9193439 -0.3788002
vn 0.2578725 -0.1190181 -0.9588203
vn 0.2578725 -0.1190181 -0.9588203
vn 0.1514933 0.8003823 -0.5800328
vn -0.1063826 0.9193439 0.3788002
vn -0.2578725 0.1190181 0.9588203
vn -0.2933595 0.09255704 0.9515111
vn -0.206802 -0.8151917 0.5410134
vn 0.08654648 -0.9077605 -0.410464
vn 0.08654648 -0.9077605 -0.410464
vn 0.2933595 -0.09255704 -0.9515111
vn 0.2933595 -0.09255704 -0.9515111
vn 0.206802 0.8151917 -0.5410134
vn -0.08654648 0.9077605 0.410464
vn -0.2933595 0.09255704 0.9515111
vn -0.2793238 0.02207698 0.9599431
vn -0.2263542 -0.8506283 0.4745475
vn 0.05302509 -0.8727205 -0.4853322
vn 0.05302509 -0.8727205 -0.4853322
vn 0.2793238 -0.02207698 -0.9599431
vn 0.2793238 -0.02207698 -0.9599431
vn 0.2263542 0.8506283 -0.4745475
vn -0.05302509 0.8727205 0.4853322
vn -0.2793238 0.02207698 0.9599431
vn -0.2367056 -0.05021172 0.9702831
vn -0.2344606 -0.8802404 0.4125591
vn 0.002241141 -0.8300327 -0.5577102
vn 0.002241141 -0.8300327 -0.5577102
vn 0.2367056 0.05021172 -0.9702831
vn 0.2367056 0.05021172 -0.9702831
vn 0.2344606 0.8802404 -0.4125591
vn -0.002241141 0.8300327 0.5577102
vn -0.2367056 -0.05021172 0.9702831
vn -0.1792446 -0.1084337 0.9778106
vn -0.2411878 -0.8981839 0.3675516
vn -0.06194316 -0.7897634 -0.610276
vn -0.06194316 -0.7897634 -0.610276
vn 0.1792446 0.1084337 -0.9778106
vn 0.1792446 0.1084337 -0.9778106
vn 0.2411878 0.8981839 -0.3675516
vn 0.06194316 0.7897634 0.610276
vn -0.1792446 -0.1084337 0.9778106
vn -0.1478635 -0.1305548 0.9803529
vn -0.2452412 -0.9030008 0.3527697
vn -0.09736893 -0.7724189 -0.6276053
vn -0.09736893 -0.7724189 -0.6276053
vn 0.1478635 0.1305548 -0.9803529
vn 0.1478635 0.1305548 -0.9803529
vn 0.2452412 0.9030008 -0.3527697
vn 0.09736893 0.7724189 0.6276053
vn -0.1478635 -0.1305548 0.9803529

vt 1 0
vt 0.8333333 0
vt 1 0.02
vt 0.8333333 0.02
vt 0.8333333 0
vt 0.6666666 0
vt 0.8333333 0.02
vt 0.6666666 0.02
vt 0.6666666 0
vt 0.5 0
vt 0.6666666 0.02
vt 0.5 0.02
vt 0.3333333 0
vt 0.3333333 0.02
vt 0.3333333 0
vt 0.1666667 0
vt 0.3333333 0.02
vt 0.1666667 0.02
vt 0.1666667 0
vt 0 0
vt 0.1666667 0.02
vt 0 0.02
vt 1 0.04
vt 0.8333333 0.04
vt 0.8333333 0.04
vt 0.6666666 0.04
vt 0.6666666 0.04
vt 0.5 0.04
vt 0.3333333 0.04
vt 0.3333333 0.04
vt 0.1666667 0.04
vt 0.1666667 0.04
vt 0 0.04
vt 1 0.06
vt 0.8333333 0.06
vt 0.8333333 0.06
vt 0.6666666 0.06
vt 0.6666666 0.06
vt 0.5 0.06
vt 0.3333333 0.06
vt 0.3333333 0.06
vt 0.1666667 0.06
vt 0.1666667 0.06
vt 0 0.06
vt 1 0.08
vt 0.8333333 0.08
vt 0.8333333 0.08
vt 0.6666666 0.08
vt 0.6666666 0.08
vt 0.5 0.08
vt 0.3333333 0.08
vt 0.3333333 0.08
vt 0.1666667 0.08
vt 0.1666667 0.08
vt 0 0.08
vt 1 0.1
vt 0.8333333 0.1
vt 0.8333333 0.1
vt 0.6666666 0.1
vt 0.6666666 0.1
vt 0.5 0.1
vt 0.3333333 0.1
vt 0.3333333 0.1
vt 0.1666667 0.1
vt 0.1666667 0.1
vt 0 0.1
vt 1 0.12
vt 0.8333333 0.12
vt 0.8333333 0.12
vt 0.6666666 0.12
vt 0.6666666 0.12
vt 0.5 0.12
vt 0.3333333 0.12
vt 0.3333333 0.12
vt 0.1666667 0.12
vt 0.1666667 0.12
vt 0 0.12
vt 1 0.14
vt 0.8333333 0.14
vt 0.8333333 0.14
vt 0.6666666 0.14
vt 0.6666666 0.14
vt 0.5 0.14
vt 0.3333333 0.14
vt 0.3333333 0.14
vt 0.1666667 0.14
vt 0.1666667 0.14
vt 0 0.14
vt 1 0.16
vt 0.8333333 0.16
vt 0.8333333 0.16
vt 0.6666666 0.16
vt 0.6666666 0.16
vt 0.5 0.16
vt 0.3333333 0.16
vt 0.3333333 0.16
vt 0.1666667 0.16
vt 0.1666667 0.16
vt 0 0.16
vt 1 0.18
vt 0.8333333 0.18
vt 0.8333333 0.18
vt 0.6666666 0.18
vt 0.6666666 0.18
vt 0.5 0.18
vt 0.3333333 0.18
vt 0.3333333 0.18
vt 0.1666667 0.18
vt 0.1666667 0.18
vt 0 0.18
vt 1 0.2
vt 0.8333333 0.2
vt 0.8333333 0.2
vt 0.6666666 0.2
vt 0.6666666 0.2
vt 0.5 0.2
vt 0.3333333 0.2
vt 0.3333333 0.2
vt 0.1666667 0.2
vt 0.1666667 0.2
vt 0 0.2
vt 1 0.22
vt 0.8333333 0.22
vt 0.8333333 0.22
vt 0.6666666 0.22
vt 0.6666666 0.22
vt 0.5 0.22
vt 0.3333333 0.22
vt 0.3333333 0.22
vt 0.1666667 0.22
vt 0.1666667 0.22
vt 0 0.22
vt 1 0.24
vt 0.8333333 0.24
vt 0.8333333 0.22
vt 0.6666666 0.22
vt 0.8333333 0.24
vt 0.6666666 0.24
vt 0.6666666 0.24
vt 0.5 0.24
vt 0.3333333 0.24
vt 0.3333333 0.24
vt 0.1666667 0.24
vt 0.1666667 0.24
vt 0 0.24
vt 1 0.26
vt 0.8333333 0.26
vt 0.8333333 0.26
vt 0.6666666 0.26
vt 0.6666666 0.26
vt 0.5 0.26
vt 0.3333333 0.26
vt 0.3333333 0.26
vt 0.1666667 0.26
vt 0.1666667 0.26
vt 0 0.26
vt 1 0.28
vt 0.8333333 0.28
vt 0.8333333 0.28
vt 0.6666666 0.28
vt 0.6666666 0.28
vt 0.5 0.28
vt 0.3333333 0.28
vt 0.3333333 0.28
vt 0.1666667 0.28
vt 0.1666667 0.28
vt 0 0.28
vt 1 0.3
vt 0.8333333 0.3
vt 0.8333333 0.3
vt 0.6666666 0.3
vt 0.6666666 0.3
vt 0.5 0.3
vt 0.3333333 0.3
vt 0.3333333 0.3
vt 0.1666667 0.3
vt 0.3333333 0.3
vt 0 0.3
vt 1 0.32
vt 0.8333333 0.32
vt 0.8333333 0.32
vt 0.6666666 0.32
vt 0.6666666 0.32
vt 0.5 0.32
vt 0.3333333 0.32
vt 0.3333333 0.32
vt 0.1666667 0.32
vt 0 0.32
vt 1 0.32
vt 1 0.34
vt 0.8333333 0.34
vt 0.6666666 0.34
vt 0.8333333 0.34
vt 0.5 0.34
vt 0.3333333 0.32
vt 0.3333333 0.34
vt 0.5 0.34
vt 0.1666667 0.32
vt 0.1666667 0.34
vt 0.3333333 0.34
vt 0 0.32
vt 0 0.34
vt 0.1666667 0.34
vt 1 0.36
vt 0.8333333 0.36
vt 1 0.36
vt 0.6666666 0.36
vt 0.5 0.36
vt 0.6666666 0.36
vt 0.3333333 0.36
vt 0.3333333 0.36
vt 0.1666667 0.36
vt 0.1666667 0.36
vt 0 0.36
vt 1 0.38
vt 0.8333333 0.38
vt 0.6666666 0.38
vt 0.6666666 0.38
vt 0.5 0.38
vt 0.3333333 0.38
vt 0.5 0.38
vt 0.1666667 0.38
vt 0.1666667 0.38
vt 0 0.38
vt 1 0.4
vt 0.8333333 0.4
vt 0.6666666 0.4
vt 0.6666666 0.4
vt 0.5 0.4
vt 0.5 0.4
vt 0.3333333 0.4
vt 0.1666667 0.4
vt 0.1666667 0.4
vt 0 0.4
vt 1 0.42
vt 0.8333333 0.4
vt 0.8333333 0.42
vt 1 0.42
vt 0.8333333 0.42
vt 0.6666666 0.42
vt 0.6666666 0.42
vt 0.5 0.42
vt 0.5 0.42
vt 0.3333333 0.4
vt 0.3333333 0.42
vt 0.3333333 0.42
vt 0.1666667 0.4
vt 0.1666667 0.42
vt 0.1666667 0.42
vt 0 0.42
vt 1 0.44
vt 0.8333333 0.44
vt 0.6666666 0.42
vt 0.6666666 0.44
vt 0.6666666 0.44
vt 0.5 0.44
vt 0.3333333 0.44
vt 0.1666667 0.44
vt 0.1666667 0.44
vt 0 0.44
vt 1 0.46
vt 0.8333333 0.46
vt 0.6666666 0.46
vt 0.6666666 0.46
vt 0.5 0.46
vt 0.3333333 0.46
vt 0.1666667 0.46
vt 0.1666667 0.46
vt 0 0.46
vt 1 0.48
vt 0.8333333 0.48
vt 0.6666666 0.48
vt 0.6666666 0.48
vt 0.5 0.48
vt 0.3333333 0.48
vt 0.1666667 0.48
vt 0.1666667 0.48
vt 0 0.48
vt 1 0.5
vt 0.8333333 0.5
vt 0.6666666 0.5
vt 0.6666666 0.5
vt 0.5 0.5
vt 0.3333333 0.5
vt 0.1666667 0.5
vt 0.1666667 0.5
vt 0 0.5
vt 1 0.52
vt 0.8333333 0.52
vt 0.6666666 0.52
vt 0.6666666 0.52
vt 0.5 0.52
vt 0.3333333 0.52
vt 0.1666667 0.52
vt 0.1666667 0.52
vt 0 0.52
vt 1 0.54
vt 0.8333333 0.54
vt 0.6666666 0.52
vt 0.6666666 0.54
vt 0.8333333 0.54
vt 0.6666666 0.54
vt 0.5 0.54
vt 0.3333333 0.54
vt 0.1666667 0.52
vt 0.1666667 0.54
vt 0.3333333 0.54
vt 0.1666667 0.54
vt 0 0.54
vt 1 0.56
vt 0.8333333 0.56
vt 0.8333333 0.56
vt 0.6666666 0.56
vt 0.6666666 0.56
vt 0.5 0.56
vt 0.3333333 0.56
vt 0.3333333 0.56
vt 0.1666667 0.56
vt 0.1666667 0.56
vt 0 0.56
vt 1 0.58
vt 0.8333333 0.58
vt 0.8333333 0.58
vt 0.6666666 0.58
vt 0.6666666 0.58
vt 0.5 0.58
vt 0.3333333 0.58
vt 0.3333333 0.58
vt 0.1666667 0.58
vt 0.1666667 0.58
vt 0 0.58
vt 1 0.6
vt 0.8333333 0.6
vt 0.8333333 0.6
vt 0.6666666 0.6
vt 0.6666666 0.6
vt 0.5 0.6
vt 0.3333333 0.6
vt 0.3333333 0.6
vt 0.1666667 0.6
vt 0.1666667 0.6
vt 0 0.6
vt 1 0.62
vt 0.8333333 0.62
vt 0.8333333 0.62
vt 0.6666666 0.62
vt 0.6666666 0.62
vt 0.5 0.62
vt 0.3333333 0.62
vt 0.3333333 0.62
vt 0.1666667 0.62
vt 0.1666667 0.62
vt 0 0.62
vt 1 0.64
vt 0.8333333 0.64
vt 0.8333333 0.64
vt 0.6666666 0.64
vt 0.6666666 0.64
vt 0.5 0.64
vt 0.3333333 0.64
vt 0.3333333 0.64
vt 0.1666667 0.64
vt 0.1666667 0.64
vt 0 0.64
vt 1 0.66
vt 0.8333333 0.66
vt 0.8333333 0.66
vt 0.6666666 0.66
vt 0.6666666 0.66
vt 0.5 0.66
vt 0.3333333 0.66
vt 0.3333333 0.66
vt 0.1666667 0.66
vt 0.1666667 0.66
vt 0 0.66
vt 1 0.68
vt 0.8333333 0.68
vt 0.8333333 0.68
vt 0.6666666 0.68
vt 0.6666666 0.68
vt 0.5 0.68
vt 0.3333333 0.68
vt 0.3333333 0.68
vt 0.1666667 0.68
vt 0.1666667 0.68
vt 0 0.68
vt 1 0.7
vt 0.8333333 0.7
vt 0.8333333 0.7
vt 0.6666666 0.7
vt 0.6666666 0.7
vt 0.5 0.7
vt 0.3333333 0.7
vt 0.3333333 0.7
vt 0.1666667 0.7
vt 0.1666667 0.7
vt 0 0.7
vt 1 0.72
vt 0.8333333 0.72
vt 0.8333333 0.72
vt 0.6666666 0.72
vt 0.6666666 0.72
vt 0.5 0.72
vt 0.3333333 0.72
vt 0.3333333 0.72
vt 0.1666667 0.72
vt 0.1666667 0.72
vt 0 0.72
vt 1 0.74
vt 0.8333333 0.74
vt 0.8333333 0.74
vt 0.6666666 0.74
vt 0.6666666 0.74
vt 0.5 0.74
vt 0.3333333 0.74
vt 0.3333333 0.74
vt 0.1666667 0.74
vt 0.1666667 0.74
vt 0 0.74
vt 1 0.76
vt 0.8333333 0.76
vt 0.8333333 0.76
vt 0.6666666 0.76
vt 0.6666666 0.76
vt 0.5 0.76
vt 0.3333333 0.76
vt 0.3333333 0.76
vt 0.1666667 0.76
vt 0.1666667 0.76
vt 0 0.76
vt 1 0.78
vt 0.8333333 0.78
vt 0.8333333 0.78
vt 0.6666666 0.78
vt 0.6666666 0.78
vt 0.5 0.78
vt 0.3333333 0.78
vt 0.3333333 0.78
vt 0.1666667 0.78
vt 0.1666667 0.78
vt 0 0.78
vt 1 0.8
vt 0.8333333 0.8
vt 0.8333333 0.8
vt 0.6666666 0.8
vt 0.6666666 0.8
vt 0.5 0.8
vt 0.3333333 0.8
vt 0.3333333 0.8
vt 0.1666667 0.8
vt 0.1666667 0.8
vt 0 0.8
vt 1 0.82
vt 0.8333333 0.82
vt 0.8333333 0.82
vt 0.6666666 0.82
vt 0.6666666 0.82
vt 0.5 0.82
vt 0.3333333 0.82
vt 0.3333333 0.82
vt 0.1666667 0.82
vt 0.1666667 0.82
vt 0 0.82
vt 1 0.84
vt 0.8333333 0.84
vt 0.8333333 0.82
vt 0.6666666 0.82
vt 0.8333333 0.84
vt 0.6666666 0.84
vt 0.6666666 0.84
vt 0.5 0.84
vt 0.3333333 0.84
vt 0.3333333 0.84
vt 0.1666667 0.82
vt 0.1666667 0.84
vt 0.1666667 0.84
vt 0 0.84
vt 1 0.86
vt 0.8333333 0.86
vt 0.8333333 0.86
vt 0.6666666 0.86
vt 0.6666666 0.86
vt 0.5 0.84
vt 0.5 0.86
vt 0.6666666 0.86
vt 0.5 0.86
vt 0.3333333 0.86
vt 0.1666667 0.86
vt 0.1666667 0.86
vt 0 0.84
vt 0 0.86
vt 1 0.88
vt 0.8333333 0.88
vt 0.8333333 0.88
vt 0.6666666 0.86
vt 0.6666666 0.88
vt 0.6666666 0.88
vt 0.5 0.88
vt 0.5 0.88
vt 0.3333333 0.88
vt 0.1666667 0.88
vt 0 0.88
vt 1 0.9
vt 0.8333333 0.9
vt 0.6666666 0.9
vt 0.6666666 0.9
vt 0.5 0.9
vt 0.5 0.9
vt 0.3333333 0.9
vt 0.1666667 0.9
vt 0 0.9
vt 1 0.92
vt 0.8333333 0.92
vt 0.6666666 0.92
vt 0.6666666 0.92
vt 0.5 0.92
vt 0.5 0.92
vt 0.3333333 0.92
vt 0.1666667 0.92
vt 0 0.92
vt 1 0.94
vt 0.8333333 0.94
vt 0.6666666 0.94
vt 0.6666666 0.94
vt 0.5 0.94
vt 0.5 0.94
vt 0.3333333 0.94
vt 0.1666667 0.94
vt 0 0.94
vt 1 0.96
vt 0.8333333 0.96
vt 0.6666666 0.96
vt 0.6666666 0.96
vt 0.5 0.96
vt 0.5 0.96
vt 0.3333333 0.96
vt 0.1666667 0.96
vt 0 0.96
vt 1 0.98
vt 0.8333333 0.98
vt 0.6666666 0.98
vt 0.6666666 0.98
vt 0.5 0.98
vt 0.5 0.98
vt 0.3333333 0.98
vt 0.1666667 0.98
vt 0 0.98
vt 1 1
vt 0.8333333 1
vt 0.6666666 1
vt 0.6666666 1
vt 0.5 1
vt 0.5 1
vt 0.3333333 1
vt 0.1666667 1
vt 0 1

vt2 0.005122187 0.3698091
vt2 0.00390625 0.368255
vt2 0.008130783 0.3674552
vt2 0.006917011 0.3658986
vt2 0.9822816 0.04428393
vt2 0.9823146 0.04625548
vt2 0.9784625 0.04434807
vt2 0.9784936 0.04631947
vt2 0.6608957 0.1813902
vt2 0.6596912 0.1829455
vt2 0.6578814 0.1790557
vt2 0.6566796 0.1806125
vt2 0.6584862 0.1845009
vt2 0.6554775 0.1821694
vt2 0.003955193 0.6999357
vt2 0.00390625 0.6979645
vt2 0.007768641 0.6998407
vt2 0.007717724 0.6978698
vt2 0.006338446 0.3713638
vt2 0.005122187 0.3698091
vt2 0.009344914 0.3690122
vt2 0.008130783 0.3674552
vt2 0.01680757 0.3607147
vt2 0.01559974 0.3591531
vt2 0.9674829 0.04451065
vt2 0.96751 0.0464825
vt2 0.6491964 0.1723753
vt2 0.6480008 0.1739367
vt2 0.646805 0.1754982
vt2 0.01873394 0.6995479
vt2 0.01867897 0.6975766
vt2 0.01801544 0.3622762
vt2 0.01680757 0.3607147
vt2 0.03062761 0.3500746
vt2 0.02942696 0.3485075
vt2 0.950058 0.04473054
vt2 0.9500803 0.04670201
vt2 0.6353701 0.1618357
vt2 0.6341817 0.1634027
vt2 0.6329932 0.1649696
vt2 0.03613926 0.6990437
vt2 0.03607963 0.697073
vt2 0.03182822 0.3516418
vt2 0.03062761 0.3500746
vt2 0.04906433 0.3360221
vt2 0.04787176 0.3344488
vt2 0.926901 0.04496499
vt2 0.9269183 0.04693644
vt2 0.6169301 0.1479205
vt2 0.6157498 0.1494935
vt2 0.6145694 0.1510665
vt2 0.05927072 0.6983159
vt2 0.05920593 0.6963454
vt2 0.05025692 0.3375954
vt2 0.04906433 0.3360221
vt2 0.07159219 0.3190438
vt2 0.07040857 0.3174634
vt2 0.8987237 0.04517084
vt2 0.8987351 0.0471426
vt2 0.5944031 0.1311121
vt2 0.5932319 0.1326919
vt2 0.5920606 0.1342718
vt2 0.08741526 0.6973516
vt2 0.0873446 0.6953811
vt2 0.07277574 0.3206241
vt2 0.07159219 0.3190438
vt2 0.09768584 0.2996266
vt2 0.09651247 0.2980386
vt2 0.866237 0.04530599
vt2 0.8662418 0.04727761
vt2 0.5683154 0.1118937
vt2 0.5671546 0.1134808
vt2 0.5659935 0.1150682
vt2 0.1198605 0.696137
vt2 0.1197832 0.6941668
vt2 0.09885914 0.3012146
vt2 0.09768584 0.2996266
vt2 0.1268204 0.2782567
vt2 0.1256588 0.2766601
vt2 0.8301505 0.04532715
vt2 0.8301477 0.04729893
vt2 0.5391931 0.0907469
vt2 0.5380439 0.09234253
vt2 0.5368947 0.09393832
vt2 0.1558952 0.6946598
vt2 0.1558104 0.6926898
vt2 0.1279821 0.2798535
vt2 0.1268204 0.2782567
vt2 0.1584717 0.25542
vt2 0.1573236 0.2538137
vt2 0.7911721 0.04519241
vt2 0.7911607 0.04716428
vt2 0.5075613 0.06815401
vt2 0.5064257 0.06975904
vt2 0.50529 0.07136423
vt2 0.1948098 0.6929069
vt2 0.1947164 0.6909372
vt2 0.1596199 0.2570264
vt2 0.1584717 0.25542
vt2 0.1921177 0.2316035
vt2 0.1909842 0.2299845
vt2 0.750008 0.04485862
vt2 0.7499868 0.04683013
vt2 0.473945 0.04459606
vt2 0.4728241 0.04621349
vt2 0.4717051 0.04782816
vt2 0.2358964 0.6908647
vt2 0.2357931 0.6888958
vt2 0.1932494 0.2332197
vt2 0.1921177 0.2316035
vt2 0.2271786 0.2073281
vt2 0.2262386 0.2055908
vt2 0.7071464 0.04428393
vt2 0.7071373 0.04625561
vt2 0.4386371 0.02041247
vt2 0.437707 0.02215222
vt2 0.4367788 0.02388715
vt2 0.2782343 0.688526
vt2 0.2781431 0.6865564
vt2 0.2281152 0.2090567
vt2 0.2271786 0.2073281
vt2 0.2657178 0.1915946
vt2 0.2653151 0.1896645
vt2 0.664802 0.04448983
vt2 0.6648512 0.04646085
vt2 0.3992869 0.004667122
vt2 0.3988969 0.006600644
vt2 0.3985039 0.008537878
vt2 0.31935 0.6869624
vt2 0.3193173 0.6849911
vt2 0.2661205 0.1935138
vt2 0.2657178 0.1915946
vt2 0.3104584 0.1903679
vt2 0.310636 0.1884071
vt2 0.6431251 0.6798381
vt2 0.6416056 0.6810848
vt2 0.6135334 0.6453672
vt2 0.6120651 0.6466739
vt2 0.3536204 0.00390625
vt2 0.3538153 0.005867896
vt2 0.3540087 0.007835064
vt2 0.3636754 0.6870755
vt2 0.3637217 0.6851045
vt2 0.3102829 0.1923254
vt2 0.3104584 0.1903679
vt2 0.3604527 0.20065
vt2 0.3609886 0.1987559
vt2 0.5784757 0.607658
vt2 0.5770574 0.609019
vt2 0.3030727 0.01504123
vt2 0.3036282 0.01693342
vt2 0.3041835 0.01882866
vt2 0.4144741 0.6891341
vt2 0.4145943 0.687166
vt2 0.3599181 0.2025427
vt2 0.3604527 0.20065
vt2 0.4136772 0.2196144
vt2 0.4144272 0.2177908
vt2 0.5382746 0.5675219
vt2 0.5369066 0.568933
vt2 0.2496076 0.03510602
vt2 0.2503767 0.03692278
vt2 0.251146 0.03874107
vt2 0.4707713 0.6934085
vt2 0.4709624 0.6914462
vt2 0.4129312 0.2214312
vt2 0.4136772 0.2196144
vt2 0.4678555 0.2443991
vt2 0.4687291 0.2426334
vt2 0.4945312 0.5269995
vt2 0.4932157 0.5284598
vt2 0.1956122 0.06116275
vt2 0.1965127 0.06291901
vt2 0.1974127 0.06467565
vt2 0.5298648 0.6999357
vt2 0.4669797 0.2461694
vt2 0.4661059 0.2479358
vt2 0.4678555 0.2443991
vt2 0.520544 0.2716236
vt2 0.5214751 0.2698851
vt2 0.4495181 0.4885884
vt2 0.448262 0.4901003
vt2 0.1436731 0.09022792
vt2 0.1446518 0.09193802
vt2 0.1456345 0.09365529
vt2 0.5186205 0.2750668
vt2 0.5195706 0.2733521
vt2 0.520544 0.2716236
vt2 0.4507402 0.4870303
vt2 0.4072063 0.4533401
vt2 0.405973 0.4548697
vt2 0.09657056 0.1191409
vt2 0.09552517 0.1174673
vt2 0.09761178 0.1208079
vt2 0.005719512 0.8964916
vt2 0.02694997 0.8460187
vt2 0.0287429 0.8468127
vt2 0.00390625 0.8957455
vt2 0.5675126 0.3012851
vt2 0.5664512 0.3029609
vt2 0.4507402 0.4870303
vt2 0.4072063 0.4533401
vt2 0.4084394 0.4518106
vt2 0.3700955 0.4242364
vt2 0.05658123 0.1440831
vt2 0.05546568 0.1424599
vt2 0.05769241 0.1456998
vt2 0.04725727 0.8033292
vt2 0.0490547 0.8041519
vt2 0.04545981 0.8025066
vt2 0.6064529 0.3285214
vt2 0.6075956 0.3268999
vt2 0.3713569 0.4227104
vt2 0.3700955 0.4242364
vt2 0.02721103 0.1639102
vt2 0.02842697 0.1654665
vt2 0.02964209 0.1670217
vt2 0.06315468 0.7717845
vt2 0.06139438 0.7709212
vt2 0.6353685 0.3489064
vt2 0.6341339 0.350441
vt2 0.6366048 0.3473702
vt2 0.3434465 0.4005242
vt2 0.3422063 0.4020678
vt2 0.01216711 0.176334
vt2 0.01343466 0.1778307
vt2 0.01462181 0.1794063
vt2 0.07221925 0.7546901
vt2 0.07052969 0.7536954
vt2 0.6487818 0.3634921
vt2 0.6500848 0.361996
vt2 0.6512941 0.3604375
vt2 0.3279622 0.3882871
vt2 0.3268431 0.3899206
vt2 0.00390625 0.1821824
vt2 0.3275818 0.3893237
vt2 0.3181097 0.3857591
vt2 0.3186172 0.3838596
vt2 0.00453864 0.1827296
vt2 0.005406925 0.1845009
vt2 0.07874924 0.7465121
vt2 0.07729103 0.7452018
vt2 0.6564451 0.3713638
vt2 0.06717103 0.7501553
vt2 0.07601371 0.743696
vt2 0.6585539 0.3689222
vt2 0.06479242 0.7455379
vt2 0.07495533 0.7419889
vt2 0.3193877 0.3820358
vt2 0.3186172 0.3838596
vt2 0.307848 0.380514
vt2 0.3074384 0.3824872
vt2 0.3179004 0.3876784
vt2 0.3070313 0.3844365
vt2 0.08775629 0.7397283
vt2 0.08657818 0.7381798
vt2 0.08541714 0.7366467
vt2 0.08423736 0.7350957
vt2 0.308257 0.3785712
vt2 0.307848 0.380514
vt2 0.2951484 0.3783583
vt2 0.294887 0.3803011
vt2 0.2946184 0.3822531
vt2 0.09799921 0.732612
vt2 0.09691875 0.7309471
vt2 0.09583859 0.7292904
vt2 0.09476027 0.7276415
vt2 0.2954081 0.3764194
vt2 0.2951484 0.3783583
vt2 0.2815492 0.377202
vt2 0.281431 0.3791371
vt2 0.2813104 0.3810682
vt2 0.1096002 0.7254309
vt2 0.108631 0.7236719
vt2 0.1076631 0.7219228
vt2 0.1066949 0.7201719
vt2 0.2816662 0.37527
vt2 0.2815492 0.377202
vt2 0.267443 0.3772217
vt2 0.2675057 0.3791443
vt2 0.2675676 0.3810492
vt2 0.1222951 0.718729
vt2 0.1214867 0.7168742
vt2 0.1206803 0.7150313
vt2 0.1198728 0.713178
vt2 0.2673808 0.3752995
vt2 0.267443 0.3772217
vt2 0.2528516 0.3788801
vt2 0.2531612 0.3807687
vt2 0.2534688 0.3826364
vt2 0.1362352 0.7131465
vt2 0.1356716 0.7112006
vt2 0.1351086 0.7092668
vt2 0.1345473 0.707316
vt2 0.2525449 0.3769791
vt2 0.2528516 0.3788801
vt2 0.2372418 0.3829828
vt2 0.2378139 0.3848174
vt2 0.9974255 0.009627005
vt2 0.9818731 0.005896254
vt2 0.9821369 0.003942267
vt2 0.1522664 0.7094613
vt2 0.1519867 0.7074736
vt2 0.151705 0.7054979
vt2 0.00390625 0.9053555
vt2 0.02021146 0.9008059
vt2 0.02046949 0.9027606
vt2 0.2366727 0.3811278
vt2 0.2372418 0.3829828
vt2 0.2193755 0.3900152
vt2 0.2201727 0.3917704
vt2 0.962638 0.00390625
vt2 0.9628082 0.00587051
vt2 0.171736 0.7078286
vt2 0.1717158 0.7058364
vt2 0.1716912 0.7038419
vt2 0.04002579 0.9023617
vt2 0.0402017 0.9003979
vt2 0.2185751 0.3882336
vt2 0.2193755 0.3900152
vt2 0.1979581 0.4014445
vt2 0.1989419 0.4031076
vt2 0.9384782 0.008556867
vt2 0.9389836 0.01046264
vt2 0.1964319 0.7090278
vt2 0.1966333 0.707065
vt2 0.1968358 0.7050783
vt2 0.06430396 0.906879
vt2 0.06481484 0.9049748
vt2 0.1969593 0.3997465
vt2 0.1979581 0.4014445
vt2 0.1715 0.4188689
vt2 0.1726191 0.4204772
vt2 0.9084682 0.01896734
vt2 0.9091045 0.02083354
vt2 0.2278413 0.7137858
vt2 0.2281846 0.7118779
vt2 0.2285363 0.7099298
vt2 0.09445216 0.9173647
vt2 0.09509386 0.9155004
vt2 0.1703586 0.4172258
vt2 0.1715 0.4188689
vt2 0.1431791 0.4396365
vt2 0.1443865 0.4412216
vt2 0.8757037 0.02996483
vt2 0.8762102 0.03187029
vt2 0.2612693 0.7207142
vt2 0.2616911 0.718833
vt2 0.2621185 0.716934
vt2 0.127459 0.9285873
vt2 0.127971 0.9266834
vt2 0.1419622 0.43804
vt2 0.1431791 0.4396365
vt2 0.1173421 0.4599364
vt2 0.1186114 0.4614836
vt2 0.8442301 0.03616245
vt2 0.8444961 0.03811597
vt2 0.2919238 0.7281464
vt2 0.292414 0.7262701
vt2 0.2929054 0.724395
vt2 0.1592791 0.9350116
vt2 0.1595508 0.9330589
vt2 0.1160757 0.4583936
vt2 0.1173421 0.4599364
vt2 0.09398539 0.4798028
vt2 0.09531516 0.4812962
vt2 0.8143435 0.03840642
vt2 0.814386 0.04037768
vt2 0.3203325 0.736162
vt2 0.3208983 0.7343044
vt2 0.3214645 0.7324485
vt2 0.189538 0.9374114
vt2 0.1895863 0.9354402
vt2 0.09265883 0.4783145
vt2 0.09398539 0.4798028
vt2 0.0730198 0.4992622
vt2 0.07441511 0.5006918
vt2 0.7863604 0.03749357
vt2 0.7862033 0.03945897
vt2 0.3465788 0.7447718
vt2 0.3472281 0.7429388
vt2 0.3478783 0.741108
vt2 0.2179027 0.9365864
vt2 0.2177513 0.9346206
vt2 0.07162844 0.4978371
vt2 0.0730198 0.4992622
vt2 0.0544911 0.5182194
vt2 0.05595702 0.5195733
vt2 0.7605891 0.03420123
vt2 0.76026 0.03614528
vt2 0.3705702 0.7539198
vt2 0.371314 0.7521204
vt2 0.3720581 0.7503229
vt2 0.244058 0.9333212
vt2 0.2437345 0.9313762
vt2 0.05302909 0.5168703
vt2 0.0544911 0.5182194
vt2 0.03855607 0.5364701
vt2 0.0401013 0.5377293
vt2 0.7373344 0.02929176
vt2 0.736861 0.03120581
vt2 0.3920637 0.7634954
vt2 0.3929173 0.7617425
vt2 0.3937713 0.7599916
vt2 0.2677059 0.9283823
vt2 0.2672381 0.9264669
vt2 0.03701523 0.5352156
vt2 0.03855607 0.5364701
vt2 0.02545572 0.5537265
vt2 0.02709339 0.554859
vt2 0.7168831 0.02350869
vt2 0.7162943 0.02539047
vt2 0.4106991 0.7733428
vt2 0.4116886 0.7716593
vt2 0.4126778 0.7699782
vt2 0.2885796 0.9225129
vt2 0.2879964 0.9206294
vt2 0.02382289 0.5525987
vt2 0.02545572 0.5537265
vt2 0.01549125 0.5696424
vt2 0.01724146 0.5705873
vt2 0.6994869 0.01756891
vt2 0.6988135 0.01942205
vt2 0.4260281 0.7832692
vt2 0.4271978 0.7817003
vt2 0.4283659 0.780135
vt2 0.3064753 0.9164183
vt2 0.3058074 0.9145632
vt2 0.01374792 0.5687026
vt2 0.01549125 0.5696424
vt2 0.008998767 0.583845
vt2 0.01087909 0.5844764
vt2 0.6853123 0.01213669
vt2 0.6845949 0.01397326
vt2 0.4375401 0.7930487
vt2 0.4389638 0.7916974
vt2 0.4403836 0.7903498
vt2 0.321329 0.9107409
vt2 0.320617 0.9089022
vt2 0.007125199 0.5832173
vt2 0.008998767 0.583845
vt2 0.006186157 0.5959924
vt2 0.008151042 0.596208
vt2 0.6741986 0.007592308
vt2 0.6734799 0.009428307
vt2 0.4447043 0.8026157
vt2 0.4463861 0.8015967
vt2 0.448064 0.8005792
vt2 0.3333365 0.906153
vt2 0.3326231 0.9043149
vt2 0.004223518 0.5957773
vt2 0.006186157 0.5959924
vt2 0.005875411 0.6058299
vt2 0.00784249 0.605664
vt2 0.6655028 0.00390625
vt2 0.664802 0.005749191
vt2 0.448389 0.8112558
vt2 0.4502337 0.8105799
vt2 0.4520785 0.8099034
vt2 0.3429547 0.9027966
vt2 0.3422597 0.9009514
vt2 0.00390625 0.6059956
vt2 0.005875411 0.6058299
vt2 0.006774455 0.6137329
vt2 0.008664669 0.6131572
vt2 0.6648642 0.06358258
vt2 0.664802 0.06161187
vt2 0.6723837 0.06375618
vt2 0.6722053 0.06179257
vt2 0.4498998 0.8184726
vt2 0.4518238 0.818095
vt2 0.4537683 0.8178221
vt2 0.3507228 0.9003979
vt2 0.455176 0.8095119
vt2 0.4557232 0.817688
vt2 0.004852805 0.6142069
vt2 0.006774455 0.6137329
vt2 0.009029802 0.6205472
vt2 0.0107391 0.6195554
vt2 0.6790907 0.06352129
vt2 0.6785997 0.06161187
vt2 0.449935 0.8248333
vt2 0.664802 0.05120518
vt2 0.6710292 0.05316816
vt2 0.6706604 0.05510508
vt2 0.4511875 0.8245666
vt2 0.4531521 0.8247483
vt2 0.455101 0.8249214
vt2 0.006396316 0.6213657
vt2 0.4591152 0.8183691
vt2 0.4570551 0.8252976
vt2 0.01267717 0.6266659
vt2 0.01423515 0.6254504
vt2 0.6856887 0.06172348
vt2 0.01318249 0.6183407
vt2 0.01587626 0.6243095
vt2 0.6768602 0.05691934
vt2 0.6771209 0.05496487
vt2 0.449284 0.830645
vt2 0.4512138 0.8311409
vt2 0.4531288 0.8316312
vt2 0.4550399 0.8321232
vt2 0.01734317 0.6325916
vt2 0.01883885 0.6313168
vt2 0.02033778 0.630039
vt2 0.6840518 0.05770562
vt2 0.6841298 0.05573556
vt2 0.4469202 0.8373297
vt2 0.4487992 0.8379714
vt2 0.4507008 0.8386201
vt2 0.4525785 0.8392618
vt2 0.02293487 0.6388876
vt2 0.02443656 0.6375986
vt2 0.02593141 0.636313
vt2 0.6924624 0.05764852
vt2 0.6924139 0.05567739
vt2 0.4440702 0.8451756
vt2 0.4459345 0.8458617
vt2 0.4478155 0.8465534
vt2 0.4496818 0.8472417
vt2 0.02929835 0.6462746
vt2 0.03085023 0.6450412
vt2 0.0323984 0.6438097
vt2 0.7023213 0.05705631
vt2 0.702202 0.05508815
vt2 0.440755 0.8544952
vt2 0.4426318 0.8551575
vt2 0.4445173 0.8558218
vt2 0.4463936 0.8564844
vt2 0.03628111 0.6553671
vt2 0.03790749 0.6542314
vt2 0.03953226 0.6530969
vt2 0.7139406 0.05608764
vt2 0.7137815 0.05412236
vt2 0.4371054 0.8656475
vt2 0.4390065 0.8662451
vt2 0.4409106 0.8668422
vt2 0.4428095 0.8674389
vt2 0.04374668 0.6667506
vt2 0.04545248 0.6657358
vt2 0.04715665 0.664722
vt2 0.7277065 0.05478738
vt2 0.7275237 0.0528242
vt2 0.4332765 0.87906
vt2 0.4351996 0.8795718
vt2 0.4371215 0.8800832
vt2 0.4390512 0.8805982
vt2 0.0515852 0.6810848
vt2 0.05333005 0.6801339
vt2 0.05507242 0.679184
vt2 0.7440072 0.05316749
vt2 0.7438154 0.05120518
vt2 0.4294418 0.8950943
vt2 0.43137 0.8955591
vt2 0.4332784 0.8960218
vt2 0.4352082 0.8964916


vc 1 1 1 1
vc 1 1 1 1
vc 1 1 1 1
vc 1 1 1 1
vc 1 1 1 1
vc 1 1 1 1
vc 1 1 1 1
vc 1 1 1 1
vc 1 1 1 1
vc 1 1 1 1
vc 1 1 1 1
vc 1 1 1 1
vc 1 1 1 1
vc 1 1 1 1
vc 1 1 1 1
vc 1 1 1 1
vc 1 1 1 1
vc 1 1 1 1
vc 1 1 1 1
vc 1 1 1 1
vc 1 1 1 1
vc 1 1 1 1
vc 1 1 1 1
vc 1 1 1 1
vc 1 1 1 1
vc 1 1 1 1
vc 1 1 1 1
vc 1 1 1 1
vc 1 1 1 1
vc 1 1 1 1
vc 1 1 1 1
vc 1 1 1 1
vc 1 1 1 1
vc 1 1 1 1
vc 1 1 1 1
vc 1 1 1 1
vc 1 1 1 1
vc 1 1 1 1
vc 1 1 1 1
vc 1 1 1 1
vc 1 1 1 1
vc 1 1 1 1
vc 1 1 1 1
vc 1 1 1 1
vc 1 1 1 1
vc 1 1 1 1
vc 1 1 1 1
vc 1 1 1 1
vc 1 1 1 1
vc 1 1 1 1
vc 1 1 1 1
vc 1 1 1 1
vc 1 1 1 1
vc 1 1 1 1
vc 1 1 1 1
vc 1 1 1 1
vc 1 1 1 1
vc 1 1 1 1
vc 1 1 1 1
vc 1 1 1 1
vc 1 1 1 1
vc 1 1 1 1
vc 1 1 1 1
vc 1 1 1 1
vc 1 1 1 1
vc 1 1 1 1
vc 1 1 1 1
vc 1 1 1 1
vc 1 1 1 1
vc 1 1 1 1
vc 1 1 1 1
vc 1 1 1 1
vc 1 1 1 1
vc 1 1 1 1
vc 1 1 1 1
vc 1 1 1 1
vc 1 1 1 1
vc 1 1 1 1
vc 1 1 1 1
vc 1 1 1 1
vc 1 1 1 1
vc 1 1 1 1
vc 1 1 1 1
vc 1 1 1 1
vc 1 1 1 1
vc 1 1 1 1
vc 1 1 1 1
vc 1 1 1 1
vc 1 1 1 1
vc 1 1 1 1
vc 1 1 1 1
vc 1 1 1 1
vc 1 1 1 1
vc 1 1 1 1
vc 1 1 1 1
vc 1 1 1 1
vc 1 1 1 1
vc 1 1 1 1
vc 1 1 1 1
vc 1 1 1 1
vc 1 1 1 1
vc 1 1 1 1
vc 1 1 1 1
vc 1 1 1 1
vc 1 1 1 1
vc 1 1 1 1
vc 1 1 1 1
vc 1 1 1 1
vc 1 1 1 1
vc 1 1 1 1
vc 1 1 1 1
vc 1 1 1 1
vc 1 1 1 1
vc 1 1 1 1
vc 1 1 1 1
vc 1 1 1 1
vc 1 1 1 1
vc 1 1 1 1
vc 1 1 1 1
vc 1 1 1 1
vc 1 1 1 1
vc 1 1 1 1
vc 1 1 1 1
vc 1 1 1 1
vc 1 1 1 1
vc 1 1 1 1
vc 1 1 1 1
vc 1 1 1 1
vc 1 1 1 1
vc 1 1 1 1
vc 1 1 1 1
vc 1 1 1 1
vc 1 1 1 1
vc 1 1 1 1
vc 1 1 1 1
vc 1 1 1 1
vc 1 1 1 1
vc 1 1 1 1
vc 1 1 1 1
vc 1 1 1 1
vc 1 1 1 1
vc 1 1 1 1
vc 1 1 1 1
vc 1 1 1 1
vc 1 1 1 1
vc 1 1 1 1
vc 1 1 1 1
vc 1 1 1 1
vc 1 1 1 1
vc 1 1 1 1
vc 1 1 1 1
vc 1 1 1 1
vc 1 1 1 1
vc 1 1 1 1
vc 1 1 1 1
vc 1 1 1 1
vc 1 1 1 1
vc 1 1 1 1
vc 1 1 1 1
vc 1 1 1 1
vc 1 1 1 1
vc 1 1 1 1
vc 1 1 1 1
vc 1 1 1 1
vc 1 1 1 1
vc 1 1 1 1
vc 1 1 1 1
vc 1 1 1 1
vc 1 1 1 1
vc 1 1 1 1
vc 1 1 1 1
vc 1 1 1 1
vc 1 1 1 1
vc 1 1 1 1
vc 1 1 1 1
vc 1 1 1 1
vc 1 1 1 1
vc 1 1 1 1
vc 1 1 1 1
vc 1 1 1 1
vc 1 1 1 1
vc 1 1 1 1
vc 1 1 1 1
vc 1 1 1 1
vc 1 1 1 1
vc 1 1 1 1
vc 1 1 1 1
vc 1 1 1 1
vc 1 1 1 1
vc 1 1 1 1
vc 1 1 1 1
vc 1 1 1 1
vc 1 1 1 1
vc 1 1 1 1
vc 1 1 1 1
vc 1 1 1 1
vc 1 1 1 1
vc 1 1 1 1
vc 1 1 1 1
vc 1 1 1 1
vc 1 1 1 1
vc 1 1 1 1
vc 1 1 1 1
vc 1 1 1 1
vc 1 1 1 1
vc 1 1 1 1
vc 1 1 1 1
vc 1 1 1 1
vc 1 1 1 1
vc 1 1 1 1
vc 1 1 1 1
vc 1 1 1 1
vc 1 1 1 1
vc 1 1 1 1
vc 1 1 1 1
vc 1 1 1 1
vc 1 1 1 1
vc 1 1 1 1
vc 1 1 1 1
vc 1 1 1 1
vc 1 1 1 1
vc 1 1 1 1
vc 1 1 1 1
vc 1 1 1 1
vc 1 1 1 1
vc 1 1 1 1
vc 1 1 1 1
vc 1 1 1 1
vc 1 1 1 1
vc 1 1 1 1
vc 1 1 1 1
vc 1 1 1 1
vc 1 1 1 1
vc 1 1 1 1
vc 1 1 1 1
vc 1 1 1 1
vc 1 1 1 1
vc 1 1 1 1
vc 1 1 1 1
vc 1 1 1 1
vc 1 1 1 1
vc 1 1 1 1
vc 1 1 1 1
vc 1 1 1 1
vc 1 1 1 1
vc 1 1 1 1
vc 1 1 1 1
vc 1 1 1 1
vc 1 1 1 1
vc 1 1 1 1
vc 1 1 1 1
vc 1 1 1 1
vc 1 1 1 1
vc 1 1 1 1
vc 1 1 1 1
vc 1 1 1 1
vc 1 1 1 1
vc 1 1 1 1
vc 1 1 1 1
vc 1 1 1 1
vc 1 1 1 1
vc 1 1 1 1
vc 1 1 1 1
vc 1 1 1 1
vc 1 1 1 1
vc 1 1 1 1
vc 1 1 1 1
vc 1 1 1 1
vc 1 1 1 1
vc 1 1 1 1
vc 1 1 1 1
vc 1 1 1 1
vc 1 1 1 1
vc 1 1 1 1
vc 1 1 1 1
vc 1 1 1 1
vc 1 1 1 1
vc 1 1 1 1
vc 1 1 1 1
vc 1 1 1 1
vc 1 1 1 1
vc 1 1 1 1
vc 1 1 1 1
vc 1 1 1 1
vc 1 1 1 1
vc 1 1 1 1
vc 1 1 1 1
vc 1 1 1 1
vc 1 1 1 1
vc 1 1 1 1
vc 1 1 1 1
vc 1 1 1 1
vc 1 1 1 1
vc 1 1 1 1
vc 1 1 1 1
vc 1 1 1 1
vc 1 1 1 1
vc 1 1 1 1
vc 1 1 1 1
vc 1 1 1 1
vc 1 1 1 1
vc 1 1 1 1
vc 1 1 1 1
vc 1 1 1 1
vc 1 1 1 1
vc 1 1 1 1
vc 1 1 1 1
vc 1 1 1 1
vc 1 1 1 1
vc 1 1 1 1
vc 1 1 1 1
vc 1 1 1 1
vc 1 1 1 1
vc 1 1 1 1
vc 1 1 1 1
vc 1 1 1 1
vc 1 1 1 1
vc 1 1 1 1
vc 1 1 1 1
vc 1 1 1 1
vc 1 1 1 1
vc 1 1 1 1
vc 1 1 1 1
vc 1 1 1 1
vc 1 1 1 1
vc 1 1 1 1
vc 1 1 1 1
vc 1 1 1 1
vc 1 1 1 1
vc 1 1 1 1
vc 1 1 1 1
vc 1 1 1 1
vc 1 1 1 1
vc 1 1 1 1
vc 1 1 1 1
vc 1 1 1 1
vc 1 1 1 1
vc 1 1 1 1
vc 1 1 1 1
vc 1 1 1 1
vc 1 1 1 1
vc 1 1 1 1
vc 1 1 1 1
vc 1 1 1 1
vc 1 1 1 1
vc 1 1 1 1
vc 1 1 1 1
vc 1 1 1 1
vc 1 1 1 1
vc 1 1 1 1
vc 1 1 1 1
vc 1 1 1 1
vc 1 1 1 1
vc 1 1 1 1
vc 1 1 1 1
vc 1 1 1 1
vc 1 1 1 1
vc 1 1 1 1
vc 1 1 1 1
vc 1 1 1 1
vc 1 1 1 1
vc 1 1 1 1
vc 1 1 1 1
vc 1 1 1 1
vc 1 1 1 1
vc 1 1 1 1
vc 1 1 1 1
vc 1 1 1 1
vc 1 1 1 1
vc 1 1 1 1
vc 1 1 1 1
vc 1 1 1 1
vc 1 1 1 1
vc 1 1 1 1
vc 1 1 1 1
vc 1 1 1 1
vc 1 1 1 1
vc 1 1 1 1
vc 1 1 1 1
vc 1 1 1 1
vc 1 1 1 1
vc 1 1 1 1
vc 1 1 1 1
vc 1 1 1 1
vc 1 1 1 1
vc 1 1 1 1
vc 1 1 1 1
vc 1 1 1 1
vc 1 1 1 1
vc 1 1 1 1
vc 1 1 1 1
vc 1 1 1 1
vc 1 1 1 1
vc 1 1 1 1
vc 1 1 1 1
vc 1 1 1 1
vc 1 1 1 1
vc 1 1 1 1
vc 1 1 1 1
vc 1 1 1 1
vc 1 1 1 1
vc 1 1 1 1
vc 1 1 1 1
vc 1 1 1 1
vc 1 1 1 1
vc 1 1 1 1
vc 1 1 1 1
vc 1 1 1 1
vc 1 1 1 1
vc 1 1 1 1
vc 1 1 1 1
vc 1 1 1 1
vc 1 1 1 1
vc 1 1 1 1
vc 1 1 1 1
vc 1 1 1 1
vc 1 1 1 1
vc 1 1 1 1
vc 1 1 1 1
vc 1 1 1 1
vc 1 1 1 1
vc 1 1 1 1
vc 1 1 1 1
vc 1 1 1 1
vc 1 1 1 1
vc 1 1 1 1
vc 1 1 1 1
vc 1 1 1 1
vc 1 1 1 1
vc 1 1 1 1
vc 1 1 1 1
vc 1 1 1 1
vc 1 1 1 1
vc 1 1 1 1
vc 1 1 1 1
vc 1 1 1 1
vc 1 1 1 1
vc 1 1 1 1
vc 1 1 1 1
vc 1 1 1 1
vc 1 1 1 1
vc 1 1 1 1
vc 1 1 1 1
vc 1 1 1 1
vc 1 1 1 1
vc 1 1 1 1
vc 1 1 1 1
vc 1 1 1 1
vc 1 1 1 1
vc 1 1 1 1
vc 1 1 1 1
vc 1 1 1 1
vc 1 1 1 1
vc 1 1 1 1
vc 1 1 1 1
vc 1 1 1 1
vc 1 1 1 1
vc 1 1 1 1
vc 1 1 1 1
vc 1 1 1 1
vc 1 1 1 1
vc 1 1 1 1
vc 1 1 1 1
vc 1 1 1 1
vc 1 1 1 1
vc 1 1 1 1
vc 1 1 1 1
vc 1 1 1 1
vc 1 1 1 1
vc 1 1 1 1
vc 1 1 1 1
vc 1 1 1 1
vc 1 1 1 1
vc 1 1 1 1
vc 1 1 1 1
vc 1 1 1 1
vc 1 1 1 1
vc 1 1 1 1
vc 1 1 1 1
vc 1 1 1 1
vc 1 1 1 1
vc 1 1 1 1
vc 1 1 1 1
vc 1 1 1 1
vc 1 1 1 1
vc 1 1 1 1
vc 1 1 1 1
vc 1 1 1 1
vc 1 1 1 1
vc 1 1 1 1
vc 1 1 1 1
vc 1 1 1 1
vc 1 1 1 1
vc 1 1 1 1
vc 1 1 1 1
vc 1 1 1 1
vc 1 1 1 1
vc 1 1 1 1
vc 1 1 1 1
vc 1 1 1 1
vc 1 1 1 1
vc 1 1 1 1
vc 1 1 1 1
vc 1 1 1 1
vc 1 1 1 1
vc 1 1 1 1
vc 1 1 1 1
vc 1 1 1 1
vc 1 1 1 1
vc 1 1 1 1
vc 1 1 1 1
vc 1 1 1 1
vc 1 1 1 1
vc 1 1 1 1
vc 1 1 1 1
vc 1 1 1 1
vc 1 1 1 1
vc 1 1 1 1
vc 1 1 1 1
vc 1 1 1 1
vc 1 1 1 1
vc 1 1 1 1
vc 1 1 1 1
vc 1 1 1 1
vc 1 1 1 1
vc 1 1 1 1
vc 1 1 1 1
vc 1 1 1 1
vc 1 1 1 1
vc 1 1 1 1
vc 1 1 1 1
vc 1 1 1 1
vc 1 1 1 1
vc 1 1 1 1
vc 1 1 1 1
vc 1 1 1 1
vc 1 1 1 1
vc 1 1 1 1
vc 1 1 1 1
vc 1 1 1 1
vc 1 1 1 1
vc 1 1 1 1
vc 1 1 1 1
vc 1 1 1 1
vc 1 1 1 1
vc 1 1 1 1
vc 1 1 1 1
vc 1 1 1 1
vc 1 1 1 1
vc 1 1 1 1
vc 1 1 1 1
vc 1 1 1 1
vc 1 1 1 1
vc 1 1 1 1
vc 1 1 1 1
vc 1 1 1 1

usemtl LunetteO2
usemap LunetteO2
f 3/3/3 2/2/2 1/1/1
f 3/3/3 4/4/4 2/2/2
f 7/7/7 6/6/6 5/5/5
f 7/7/7 8/8/8 6/6/6
f 11/11/11 10/10/10 9/9/9
f 11/11/11 12/12/12 10/10/10
f 12/12/12 13/13/13 10/10/10
f 12/12/12 14/14/14 13/13/13
f 17/17/17 16/16/16 15/15/15
f 17/17/17 18/18/18 16/16/16
f 21/21/21 20/20/20 19/19/19
f 21/21/21 22/22/22 20/20/20
f 23/23/23 4/4/4 3/3/3
f 23/23/23 24/24/24 4/4/4
f 25/25/25 8/8/8 7/7/7
f 25/25/25 26/26/26 8/8/8
f 27/27/27 12/12/12 11/11/11
f 27/27/27 28/28/28 12/12/12
f 28/28/28 14/14/14 12/12/12
f 28/28/28 29/29/29 14/14/14
f 30/30/30 18/18/18 17/17/17
f 30/30/30 31/31/31 18/18/18
f 32/32/32 22/22/22 21/21/21
f 32/32/32 33/33/33 22/22/22
f 34/34/34 24/24/24 23/23/23
f 34/34/34 35/35/35 24/24/24
f 36/36/36 26/26/26 25/25/25
f 36/36/36 37/37/37 26/26/26
f 38/38/38 28/28/28 27/27/27
f 38/38/38 39/39/39 28/28/28
f 39/39/39 29/29/29 28/28/28
f 39/39/39 40/40/40 29/29/29
f 41/41/41 31/31/31 30/30/30
f 41/41/41 42/42/42 31/31/31
f 43/43/43 33/33/33 32/32/32
f 43/43/43 44/44/44 33/33/33
f 45/45/45 35/35/35 34/34/34
f 45/45/45 46/46/46 35/35/35
f 47/47/47 37/37/37 36/36/36
f 47/47/47 48/48/48 37/37/37
f 49/49/49 39/39/39 38/38/38
f 49/49/49 50/50/50 39/39/39
f 50/50/50 40/40/40 39/39/39
f 50/50/50 51/51/51 40/40/40
f 52/52/52 42/42/42 41/41/41
f 52/52/52 53/53/53 42/42/42
f 54/54/54 44/44/44 43/43/43
f 54/54/54 55/55/55 44/44/44
f 56/56/56 46/46/46 45/45/45
f 56/56/56 57/57/57 46/46/46
f 58/58/58 48/48/48 47/47/47
f 58/58/58 59/59/59 48/48/48
f 60/60/60 50/50/50 49/49/49
f 60/60/60 61/61/61 50/50/50
f 61/61/61 51/51/51 50/50/50
f 61/61/61 62/62/62 51/51/51
f 63/63/63 53/53/53 52/52/52
f 63/63/63 64/64/64 53/53/53
f 65/65/65 55/55/55 54/54/54
f 65/65/65 66/66/66 55/55/55
f 67/67/67 57/57/57 56/56/56
f 67/67/67 68/68/68 57/57/57
f 69/69/69 59/59/59 58/58/58
f 69/69/69 70/70/70 59/59/59
f 71/71/71 61/61/61 60/60/60
f 71/71/71 72/72/72 61/61/61
f 72/72/72 62/62/62 61/61/61
f 72/72/72 73/73/73 62/62/62
f 74/74/74 64/64/64 63/63/63
f 74/74/74 75/75/75 64/64/64
f 76/76/76 66/66/66 65/65/65
f 76/76/76 77/77/77 66/66/66
f 78/78/78 68/68/68 67/67/67
f 78/78/78 79/79/79 68/68/68
f 80/80/80 70/70/70 69/69/69
f 80/80/80 81/81/81 70/70/70
f 82/82/82 72/72/72 71/71/71
f 82/82/82 83/83/83 72/72/72
f 83/83/83 73/73/73 72/72/72
f 83/83/83 84/84/84 73/73/73
f 85/85/85 75/75/75 74/74/74
f 85/85/85 86/86/86 75/75/75
f 87/87/87 77/77/77 76/76/76
f 87/87/87 88/88/88 77/77/77
f 89/89/89 79/79/79 78/78/78
f 89/89/89 90/90/90 79/79/79
f 91/91/91 81/81/81 80/80/80
f 91/91/91 92/92/92 81/81/81
f 93/93/93 83/83/83 82/82/82
f 93/93/93 94/94/94 83/83/83
f 94/94/94 84/84/84 83/83/83
f 94/94/94 95/95/95 84/84/84
f 96/96/96 86/86/86 85/85/85
f 96/96/96 97/97/97 86/86/86
f 98/98/98 88/88/88 87/87/87
f 98/98/98 99/99/99 88/88/88
f 100/100/100 90/90/90 89/89/89
f 100/100/100 101/101/101 90/90/90
f 102/102/102 92/92/92 91/91/91
f 102/102/102 103/103/103 92/92/92
f 104/104/104 94/94/94 93/93/93
f 104/104/104 105/105/105 94/94/94
f 105/105/105 95/95/95 94/94/94
f 105/105/105 106/106/106 95/95/95
f 107/107/107 97/97/97 96/96/96
f 107/107/107 108/108/108 97/97/97
f 109/109/109 99/99/99 98/98/98
f 109/109/109 110/110/110 99/99/99
f 111/111/111 101/101/101 100/100/100
f 111/111/111 112/112/112 101/101/101
f 113/113/113 103/103/103 102/102/102
f 113/113/113 114/114/114 103/103/103
f 115/115/115 105/105/105 104/104/104
f 115/115/115 116/116/116 105/105/105
f 116/116/116 106/106/106 105/105/105
f 116/116/116 117/117/117 106/106/106
f 118/118/118 108/108/108 107/107/107
f 118/118/118 119/119/119 108/108/108
f 120/120/120 110/110/110 109/109/109
f 120/120/120 121/121/121 110/110/110
f 122/122/122 112/112/112 111/111/111
f 122/122/122 123/123/123 112/112/112
f 124/124/124 114/114/114 113/113/113
f 124/124/124 125/125/125 114/114/114
f 126/126/126 116/116/116 115/115/115
f 126/126/126 127/127/127 116/116/116
f 127/127/127 117/117/117 116/116/116
f 127/127/127 128/128/128 117/117/117
f 129/129/129 119/119/119 118/118/118
f 129/129/129 130/130/130 119/119/119
f 131/131/131 121/121/121 120/120/120
f 131/131/131 132/132/132 121/121/121
f 133/133/133 123/123/123 122/122/122
f 133/133/133 134/134/134 123/123/123
f 137/137/137 136/136/136 135/135/135
f 137/137/137 138/138/138 136/136/136
f 139/139/139 127/127/127 126/126/126
f 139/139/139 140/140/140 127/127/127
f 140/140/140 128/128/128 127/127/127
f 140/140/140 141/141/141 128/128/128
f 142/142/142 130/130/130 129/129/129
f 142/142/142 143/143/143 130/130/130
f 144/144/144 132/132/132 131/131/131
f 144/144/144 145/145/145 132/132/132
f 146/146/146 134/134/134 133/133/133
f 146/146/146 147/147/147 134/134/134
f 148/148/148 138/138/138 137/137/137
f 148/148/148 149/149/149 138/138/138
f 150/150/150 140/140/140 139/139/139
f 150/150/150 151/151/151 140/140/140
f 151/151/151 141/141/141 140/140/140
f 151/151/151 152/152/152 141/141/141
f 153/153/153 143/143/143 142/142/142
f 153/153/153 154/154/154 143/143/143
f 155/155/155 145/145/145 144/144/144
f 155/155/155 156/156/156 145/145/145
f 157/157/157 147/147/147 146/146/146
f 157/157/157 158/158/158 147/147/147
f 159/159/159 149/149/149 148/148/148
f 159/159/159 160/160/160 149/149/149
f 161/161/161 151/151/151 150/150/150
f 161/161/161 162/162/162 151/151/151
f 162/162/162 152/152/152 151/151/151
f 162/162/162 163/163/163 152/152/152
f 164/164/164 154/154/154 153/153/153
f 164/164/164 165/165/165 154/154/154
f 166/166/166 156/156/156 155/155/155
f 166/166/166 167/167/167 156/156/156
f 168/168/168 158/158/158 157/157/157
f 168/168/168 169/169/169 158/158/158
f 170/170/170 160/160/160 159/159/159
f 170/170/170 171/171/171 160/160/160
f 172/172/172 162/162/162 161/161/161
f 172/172/172 173/173/173 162/162/162
f 173/173/173 163/163/163 162/162/162
f 173/173/173 174/174/174 163/163/163
f 175/175/175 165/165/165 164/164/164
f 177/177/177 176/176/176 166/166/166
f 176/176/176 167/167/167 166/166/166
f 176/176/176 178/178/178 167/167/167
f 179/179/179 169/169/169 168/168/168
f 179/179/179 180/180/180 169/169/169
f 181/181/181 171/171/171 170/170/170
f 181/181/181 182/182/182 171/171/171
f 183/183/183 173/173/173 172/172/172
f 183/183/183 184/184/184 173/173/173
f 184/184/184 174/174/174 173/173/173
f 184/184/184 185/185/185 174/174/174
f 186/186/186 176/176/176 177/177/177
f 186/186/186 187/187/187 176/176/176
f 187/187/187 178/178/178 176/176/176
f 187/187/187 188/188/188 178/178/178
f 190/190/190 181/181/181 189/189/189
f 190/190/190 191/191/191 181/181/181
f 191/191/191 182/182/182 181/181/181
f 193/193/193 192/192/192 183/183/183
f 192/192/192 184/184/184 183/183/183
f 192/192/192 194/194/194 184/184/184
f 194/194/194 185/185/185 184/184/184
f 197/197/197 196/196/196 195/195/195
f 196/196/196 198/198/198 195/195/195
f 200/200/200 199/199/199 187/187/187
f 199/199/199 188/188/188 187/187/187
f 203/203/203 202/202/202 201/201/201
f 204/204/204 191/191/191 190/190/190
f 206/206/206 205/205/205 193/193/193
f 205/205/205 192/192/192 193/193/193
f 205/205/205 207/207/207 192/192/192
f 207/207/207 194/194/194 192/192/192
f 209/209/209 208/208/208 197/197/197
f 208/208/208 196/196/196 197/197/197
f 208/208/208 210/210/210 196/196/196
f 211/211/211 199/199/199 200/200/200
f 211/211/211 212/212/212 199/199/199
f 213/213/213 202/202/202 203/203/203
f 213/213/213 214/214/214 202/202/202
f 215/215/215 205/205/205 206/206/206
f 215/215/215 216/216/216 205/205/205
f 216/216/216 207/207/207 205/205/205
f 216/216/216 217/217/217 207/207/207
f 218/218/218 208/208/208 209/209/209
f 218/218/218 219/219/219 208/208/208
f 219/219/219 210/210/210 208/208/208
f 221/221/221 220/220/220 211/211/211
f 220/220/220 212/212/212 211/211/211
f 220/220/220 222/222/222 212/212/212
f 223/223/223 214/214/214 213/213/213
f 223/223/223 224/224/224 214/214/214
f 225/225/225 216/216/216 215/215/215
f 225/225/225 226/226/226 216/216/216
f 226/226/226 217/217/217 216/216/216
f 226/226/226 227/227/227 217/217/217
f 228/228/228 219/219/219 218/218/218
f 228/228/228 229/229/229 219/219/219
f 230/230/230 220/220/220 221/221/221
f 230/230/230 231/231/231 220/220/220
f 231/231/231 222/222/222 220/220/220
f 231/231/231 232/232/232 222/222/222
f 233/233/233 224/224/224 223/223/223
f 233/233/233 234/234/234 224/224/224
f 235/235/235 226/226/226 225/225/225
f 238/238/238 237/237/237 236/236/236
f 239/239/239 227/227/227 226/226/226
f 239/239/239 240/240/240 227/227/227
f 241/241/241 229/229/229 228/228/228
f 241/241/241 242/242/242 229/229/229
f 243/243/243 231/231/231 230/230/230
f 242/242/242 245/245/245 244/244/244
f 246/246/246 232/232/232 231/231/231
f 245/245/245 248/248/248 247/247/247
f 249/249/249 234/234/234 233/233/233
f 249/249/249 250/250/250 234/234/234
f 251/251/251 237/237/237 238/238/238
f 251/251/251 252/252/252 237/237/237
f 252/252/252 253/253/253 237/237/237
f 252/252/252 254/254/254 253/253/253
f 255/255/255 242/242/242 241/241/241
f 255/255/255 256/256/256 242/242/242
f 256/256/256 245/245/245 242/242/242
f 256/256/256 257/257/257 245/245/245
f 257/257/257 248/248/248 245/245/245
f 257/257/257 258/258/258 248/248/248
f 259/259/259 250/250/250 249/249/249
f 259/259/259 260/260/260 250/250/250
f 261/261/261 252/252/252 251/251/251
f 261/261/261 262/262/262 252/252/252
f 262/262/262 254/254/254 252/252/252
f 262/262/262 263/263/263 254/254/254
f 264/264/264 256/256/256 255/255/255
f 264/264/264 265/265/265 256/256/256
f 265/265/265 257/257/257 256/256/256
f 265/265/265 266/266/266 257/257/257
f 266/266/266 258/258/258 257/257/257
f 266/266/266 267/267/267 258/258/258
f 268/268/268 260/260/260 259/259/259
f 268/268/268 269/269/269 260/260/260
f 270/270/270 262/262/262 261/261/261
f 270/270/270 271/271/271 262/262/262
f 271/271/271 263/263/263 262/262/262
f 271/271/271 272/272/272 263/263/263
f 273/273/273 265/265/265 264/264/264
f 273/273/273 274/274/274 265/265/265
f 274/274/274 266/266/266 265/265/265
f 274/274/274 275/275/275 266/266/266
f 275/275/275 267/267/267 266/266/266
f 275/275/275 276/276/276 267/267/267
f 277/277/277 269/269/269 268/268/268
f 277/277/277 278/278/278 269/269/269
f 279/279/279 271/271/271 270/270/270
f 279/279/279 280/280/280 271/271/271
f 280/280/280 272/272/272 271/271/271
f 280/280/280 281/281/281 272/272/272
f 282/282/282 274/274/274 273/273/273
f 282/282/282 283/283/283 274/274/274
f 283/283/283 275/275/275 274/274/274
f 283/283/283 284/284/284 275/275/275
f 284/284/284 276/276/276 275/275/275
f 284/284/284 285/285/285 276/276/276
f 286/286/286 278/278/278 277/277/277
f 286/286/286 287/287/287 278/278/278
f 288/288/288 280/280/280 279/279/279
f 288/288/288 289/289/289 280/280/280
f 289/289/289 281/281/281 280/280/280
f 289/289/289 290/290/290 281/281/281
f 291/291/291 283/283/283 282/282/282
f 291/291/291 292/292/292 283/283/283
f 292/292/292 284/284/284 283/283/283
f 292/292/292 293/293/293 284/284/284
f 293/293/293 285/285/285 284/284/284
f 293/293/293 294/294/294 285/285/285
f 295/295/295 287/287/287 286/286/286
f 295/295/295 296/296/296 287/287/287
f 297/297/297 289/289/289 288/288/288
f 297/297/297 298/298/298 289/289/289
f 298/298/298 290/290/290 289/289/289
f 301/301/301 300/300/300 299/299/299
f 302/302/302 292/292/292 291/291/291
f 302/302/302 303/303/303 292/292/292
f 303/303/303 293/293/293 292/292/292
f 303/303/303 304/304/304 293/293/293
f 304/304/304 294/294/294 293/293/293
f 307/307/307 306/306/306 305/305/305
f 308/308/308 296/296/296 295/295/295
f 308/308/308 309/309/309 296/296/296
f 310/310/310 298/298/298 297/297/297
f 310/310/310 311/311/311 298/298/298
f 312/312/312 300/300/300 301/301/301
f 312/312/312 313/313/313 300/300/300
f 314/314/314 303/303/303 302/302/302
f 314/314/314 315/315/315 303/303/303
f 315/315/315 304/304/304 303/303/303
f 315/315/315 316/316/316 304/304/304
f 317/317/317 306/306/306 307/307/307
f 317/317/317 318/318/318 306/306/306
f 319/319/319 309/309/309 308/308/308
f 319/319/319 320/320/320 309/309/309
f 321/321/321 311/311/311 310/310/310
f 321/321/321 322/322/322 311/311/311
f 323/323/323 313/313/313 312/312/312
f 323/323/323 324/324/324 313/313/313
f 325/325/325 315/315/315 314/314/314
f 325/325/325 326/326/326 315/315/315
f 326/326/326 316/316/316 315/315/315
f 326/326/326 327/327/327 316/316/316
f 328/328/328 318/318/318 317/317/317
f 328/328/328 329/329/329 318/318/318
f 330/330/330 320/320/320 319/319/319
f 330/330/330 331/331/331 320/320/320
f 332/332/332 322/322/322 321/321/321
f 332/332/332 333/333/333 322/322/322
f 334/334/334 324/324/324 323/323/323
f 334/334/334 335/335/335 324/324/324
f 336/336/336 326/326/326 325/325/325
f 336/336/336 337/337/337 326/326/326
f 337/337/337 327/327/327 326/326/326
f 337/337/337 338/338/338 327/327/327
f 339/339/339 329/329/329 328/328/328
f 339/339/339 340/340/340 329/329/329
f 341/341/341 331/331/331 330/330/330
f 341/341/341 342/342/342 331/331/331
f 343/343/343 333/333/333 332/332/332
f 343/343/343 344/344/344 333/333/333
f 345/345/345 335/335/335 334/334/334
f 345/345/345 346/346/346 335/335/335
f 347/347/347 337/337/337 336/336/336
f 347/347/347 348/348/348 337/337/337
f 348/348/348 338/338/338 337/337/337
f 348/348/348 349/349/349 338/338/338
f 350/350/350 340/340/340 339/339/339
f 350/350/350 351/351/351 340/340/340
f 352/352/352 342/342/342 341/341/341
f 352/352/352 353/353/353 342/342/342
f 354/354/354 344/344/344 343/343/343
f 354/354/354 355/355/355 344/344/344
f 356/356/356 346/346/346 345/345/345
f 356/356/356 357/357/357 346/346/346
f 358/358/358 348/348/348 347/347/347
f 358/358/358 359/359/359 348/348/348
f 359/359/359 349/349/349 348/348/348
f 359/359/359 360/360/360 349/349/349
f 361/361/361 351/351/351 350/350/350
f 361/361/361 362/362/362 351/351/351
f 363/363/363 353/353/353 352/352/352
f 363/363/363 364/364/364 353/353/353
f 365/365/365 355/355/355 354/354/354
f 365/365/365 366/366/366 355/355/355
f 367/367/367 357/357/357 356/356/356
f 367/367/367 368/368/368 357/357/357
f 369/369/369 359/359/359 358/358/358
f 369/369/369 370/370/370 359/359/359
f 370/370/370 360/360/360 359/359/359
f 370/370/370 371/371/371 360/360/360
f 372/372/372 362/362/362 361/361/361
f 372/372/372 373/373/373 362/362/362
f 374/374/374 364/364/364 363/363/363
f 374/374/374 375/375/375 364/364/364
f 376/376/376 366/366/366 365/365/365
f 376/376/376 377/377/377 366/366/366
f 378/378/378 368/368/368 367/367/367
f 378/378/378 379/379/379 368/368/368
f 380/380/380 370/370/370 369/369/369
f 380/380/380 381/381/381 370/370/370
f 381/381/381 371/371/371 370/370/370
f 381/381/381 382/382/382 371/371/371
f 383/383/383 373/373/373 372/372/372
f 383/383/383 384/384/384 373/373/373
f 385/385/385 375/375/375 374/374/374
f 385/385/385 386/386/386 375/375/375
f 387/387/387 377/377/377 376/376/376
f 387/387/387 388/388/388 377/377/377
f 389/389/389 379/379/379 378/378/378
f 389/389/389 390/390/390 379/379/379
f 391/391/391 381/381/381 380/380/380
f 391/391/391 392/392/392 381/381/381
f 392/392/392 382/382/382 381/381/381
f 392/392/392 393/393/393 382/382/382
f 394/394/394 384/384/384 383/383/383
f 394/394/394 395/395/395 384/384/384
f 396/396/396 386/386/386 385/385/385
f 396/396/396 397/397/397 386/386/386
f 398/398/398 388/388/388 387/387/387
f 398/398/398 399/399/399 388/388/388
f 400/400/400 390/390/390 389/389/389
f 400/400/400 401/401/401 390/390/390
f 402/402/402 392/392/392 391/391/391
f 402/402/402 403/403/403 392/392/392
f 403/403/403 393/393/393 392/392/392
f 403/403/403 404/404/404 393/393/393
f 405/405/405 395/395/395 394/394/394
f 405/405/405 406/406/406 395/395/395
f 407/407/407 397/397/397 396/396/396
f 407/407/407 408/408/408 397/397/397
f 409/409/409 399/399/399 398/398/398
f 409/409/409 410/410/410 399/399/399
f 411/411/411 401/401/401 400/400/400
f 411/411/411 412/412/412 401/401/401
f 413/413/413 403/403/403 402/402/402
f 413/413/413 414/414/414 403/403/403
f 414/414/414 404/404/404 403/403/403
f 414/414/414 415/415/415 404/404/404
f 416/416/416 406/406/406 405/405/405
f 416/416/416 417/417/417 406/406/406
f 418/418/418 408/408/408 407/407/407
f 418/418/418 419/419/419 408/408/408
f 420/420/420 410/410/410 409/409/409
f 420/420/420 421/421/421 410/410/410
f 422/422/422 412/412/412 411/411/411
f 422/422/422 423/423/423 412/412/412
f 424/424/424 414/414/414 413/413/413
f 424/424/424 425/425/425 414/414/414
f 425/425/425 415/415/415 414/414/414
f 425/425/425 426/426/426 415/415/415
f 427/427/427 417/417/417 416/416/416
f 427/427/427 428/428/428 417/417/417
f 429/429/429 419/419/419 418/418/418
f 429/429/429 430/430/430 419/419/419
f 431/431/431 421/421/421 420/420/420
f 431/431/431 432/432/432 421/421/421
f 433/433/433 423/423/423 422/422/422
f 433/433/433 434/434/434 423/423/423
f 435/435/435 425/425/425 424/424/424
f 435/435/435 436/436/436 425/425/425
f 436/436/436 426/426/426 425/425/425
f 436/436/436 437/437/437 426/426/426
f 438/438/438 428/428/428 427/427/427
f 438/438/438 439/439/439 428/428/428
f 440/440/440 430/430/430 429/429/429
f 440/440/440 441/441/441 430/430/430
f 442/442/442 432/432/432 431/431/431
f 442/442/442 443/443/443 432/432/432
f 444/444/444 434/434/434 433/433/433
f 444/444/444 445/445/445 434/434/434
f 446/446/446 436/436/436 435/435/435
f 446/446/446 447/447/447 436/436/436
f 447/447/447 437/437/437 436/436/436
f 447/447/447 448/448/448 437/437/437
f 449/449/449 439/439/439 438/438/438
f 449/449/449 450/450/450 439/439/439
f 451/451/451 441/441/441 440/440/440
f 451/451/451 452/452/452 441/441/441
f 453/453/453 443/443/443 442/442/442
f 453/453/453 454/454/454 443/443/443
f 455/455/455 445/445/445 444/444/444
f 455/455/455 456/456/456 445/445/445
f 457/457/457 447/447/447 446/446/446
f 457/457/457 458/458/458 447/447/447
f 458/458/458 448/448/448 447/447/447
f 458/458/458 459/459/459 448/448/448
f 460/460/460 450/450/450 449/449/449
f 460/460/460 461/461/461 450/450/450
f 462/462/462 452/452/452 451/451/451
f 462/462/462 463/463/463 452/452/452
f 464/464/464 454/454/454 453/453/453
f 464/464/464 465/465/465 454/454/454
f 468/468/468 467/467/467 466/466/466
f 468/468/468 469/469/469 467/467/467
f 470/470/470 458/458/458 457/457/457
f 470/470/470 471/471/471 458/458/458
f 471/471/471 459/459/459 458/458/458
f 471/471/471 472/472/472 459/459/459
f 473/473/473 461/461/461 460/460/460
f 472/472/472 475/475/475 474/474/474
f 476/476/476 463/463/463 462/462/462
f 476/476/476 477/477/477 463/463/463
f 478/478/478 465/465/465 464/464/464
f 478/478/478 479/479/479 465/465/465
f 480/480/480 469/469/469 468/468/468
f 480/480/480 481/481/481 469/469/469
f 482/482/482 471/471/471 470/470/470
f 485/485/485 484/484/484 483/483/483
f 486/486/486 472/472/472 471/471/471
f 486/486/486 487/487/487 472/472/472
f 487/487/487 475/475/475 472/472/472
f 487/487/487 488/488/488 475/475/475
f 489/489/489 477/477/477 476/476/476
f 488/488/488 491/491/491 490/490/490
f 492/492/492 479/479/479 478/478/478
f 492/492/492 493/493/493 479/479/479
f 494/494/494 481/481/481 480/480/480
f 493/493/493 496/496/496 495/495/495
f 497/497/497 484/484/484 485/485/485
f 497/497/497 498/498/498 484/484/484
f 499/499/499 487/487/487 486/486/486
f 499/499/499 500/500/500 487/487/487
f 500/500/500 488/488/488 487/487/487
f 500/500/500 501/501/501 488/488/488
f 501/501/501 491/491/491 488/488/488
f 501/501/501 502/502/502 491/491/491
f 503/503/503 493/493/493 492/492/492
f 503/503/503 504/504/504 493/493/493
f 504/504/504 496/496/496 493/493/493
f 504/504/504 505/505/505 496/496/496
f 506/506/506 498/498/498 497/497/497
f 506/506/506 507/507/507 498/498/498
f 508/508/508 500/500/500 499/499/499
f 508/508/508 509/509/509 500/500/500
f 509/509/509 501/501/501 500/500/500
f 509/509/509 510/510/510 501/501/501
f 510/510/510 502/502/502 501/501/501
f 510/510/510 511/511/511 502/502/502
f 512/512/512 504/504/504 503/503/503
f 512/512/512 513/513/513 504/504/504
f 513/513/513 505/505/505 504/504/504
f 513/513/513 514/514/514 505/505/505
f 515/515/515 507/507/507 506/506/506
f 515/515/515 516/516/516 507/507/507
f 517/517/517 509/509/509 508/508/508
f 517/517/517 518/518/518 509/509/509
f 518/518/518 510/510/510 509/509/509
f 518/518/518 519/519/519 510/510/510
f 519/519/519 511/511/511 510/510/510
f 519/519/519 520/520/520 511/511/511
f 521/521/521 513/513/513 512/512/512
f 521/521/521 522/522/522 513/513/513
f 522/522/522 514/514/514 513/513/513
f 522/522/522 523/523/523 514/514/514
f 524/524/524 516/516/516 515/515/515
f 524/524/524 525/525/525 516/516/516
f 526/526/526 518/518/518 517/517/517
f 526/526/526 527/527/527 518/518/518
f 527/527/527 519/519/519 518/518/518
f 527/527/527 528/528/528 519/519/519
f 528/528/528 520/520/520 519/519/519
f 528/528/528 529/529/529 520/520/520
f 530/530/530 522/522/522 521/521/521
f 530/530/530 531/531/531 522/522/522
f 531/531/531 523/523/523 522/522/522
f 531/531/531 532/532/532 523/523/523
f 533/533/533 525/525/525 524/524/524
f 533/533/533 534/534/534 525/525/525
f 535/535/535 527/527/527 526/526/526
f 535/535/535 536/536/536 527/527/527
f 536/536/536 528/528/528 527/527/527
f 536/536/536 537/537/537 528/528/528
f 537/537/537 529/529/529 528/528/528
f 537/537/537 538/538/538 529/529/529
f 539/539/539 531/531/531 530/530/530
f 539/539/539 540/540/540 531/531/531
f 540/540/540 532/532/532 531/531/531
f 540/540/540 541/541/541 532/532/532
f 542/542/542 534/534/534 533/533/533
f 542/542/542 543/543/543 534/534/534
f 544/544/544 536/536/536 535/535/535
f 544/544/544 545/545/545 536/536/536
f 545/545/545 537/537/537 536/536/536
f 545/545/545 546/546/546 537/537/537
f 546/546/546 538/538/538 537/537/537
f 546/546/546 547/547/547 538/538/538
f 548/548/548 540/540/540 539/539/539
f 548/548/548 549/549/549 540/540/540
f 549/549/549 541/541/541 540/540/540
f 549/549/549 550/550/550 541/541/541
f 551/551/551 543/543/543 542/542/542
f 551/551/551 552/552/552 543/543/543
f 553/553/553 545/545/545 544/544/544
f 553/553/553 554/554/554 545/545/545
f 554/554/554 546/546/546 545/545/545
f 554/554/554 555/555/555 546/546/546
f 555/555/555 547/547/547 546/546/546
f 555/555/555 556/556/556 547/547/547
