g tube
v -1.755278 1.460621 -4.599912
v -1.756575 1.46057 -4.59916
v -1.752953 1.420951 -4.59862
v -1.75425 1.42092 -4.597867
v -1.756575 1.46057 -4.59916
v -1.756575 1.460618 -4.597661
v -1.75425 1.42092 -4.597867
v -1.75425 1.420999 -4.59637
v -1.755278 1.460719 -4.596913
v -1.752953 1.421108 -4.595624
v -1.755278 1.460719 -4.596913
v -1.753981 1.46077 -4.597665
v -1.752953 1.421108 -4.595624
v -1.751656 1.421139 -4.596377
v -1.753981 1.46077 -4.597665
v -1.753981 1.460722 -4.599164
v -1.751656 1.421139 -4.596377
v -1.751656 1.42106 -4.597875
v -1.753981 1.460722 -4.599164
v -1.755278 1.460621 -4.599912
v -1.751656 1.42106 -4.597875
v -1.752953 1.420951 -4.59862
v -1.749033 1.341388 -4.592819
v -1.75033 1.341388 -4.592066
v -1.75033 1.341388 -4.592066
v -1.75033 1.341511 -4.590571
v -1.749033 1.341635 -4.589829
v -1.749033 1.341635 -4.589829
v -1.747735 1.341635 -4.590581
v -1.747735 1.341635 -4.590581
v -1.747735 1.341511 -4.592076
v -1.747735 1.341511 -4.592076
v -1.749033 1.341388 -4.592819
v -1.743925 1.232322 -4.582706
v -1.745223 1.232339 -4.581954
v -1.745223 1.232339 -4.581954
v -1.745223 1.232491 -4.580462
v -1.743925 1.232626 -4.579721
v -1.743925 1.232626 -4.579721
v -1.742628 1.23261 -4.580473
v -1.742628 1.23261 -4.580473
v -1.742628 1.232458 -4.581965
v -1.742628 1.232458 -4.581965
v -1.743925 1.232322 -4.582706
v -1.738043 1.104097 -4.56848
v -1.73934 1.104129 -4.567728
v -1.73934 1.104129 -4.567728
v -1.73934 1.10431 -4.566239
v -1.738043 1.104459 -4.565501
v -1.738043 1.104459 -4.565501
v -1.736745 1.104427 -4.566253
v -1.736745 1.104427 -4.566253
v -1.736745 1.104246 -4.567742
v -1.736745 1.104246 -4.567742
v -1.738043 1.104097 -4.56848
v -1.731795 0.9670622 -4.550334
v -1.733093 0.9671132 -4.549584
v -1.733093 0.9671132 -4.549584
v -1.733093 0.9673311 -4.5481
v -1.731795 0.9674982 -4.547367
v -1.731795 0.9674982 -4.547367
v -1.730497 0.9674472 -4.548117
v -1.730497 0.9674472 -4.548117
v -1.730497 0.9672293 -4.549601
v -1.730497 0.9672293 -4.549601
v -1.731795 0.9670622 -4.550334
v -1.725593 0.8315706 -4.528469
v -1.726891 0.8316479 -4.52772
v -1.726891 0.8316479 -4.52772
v -1.726891 0.8319184 -4.526245
v -1.725593 0.8321115 -4.525518
v -1.725593 0.8321115 -4.525518
v -1.724296 0.8320342 -4.526266
v -1.724296 0.8320342 -4.526266
v -1.724296 0.8317637 -4.527741
v -1.724296 0.8317637 -4.527741
v -1.725593 0.8315706 -4.528469
v -1.719848 0.7079636 -4.503073
v -1.721145 0.7080835 -4.50233
v -1.721145 0.7080835 -4.50233
v -1.721145 0.7084392 -4.500873
v -1.719848 0.7086751 -4.500158
v -1.719848 0.7086751 -4.500158
v -1.71855 0.7085552 -4.500901
v -1.71855 0.7085552 -4.500901
v -1.71855 0.7081995 -4.502358
v -1.71855 0.7081995 -4.502358
v -1.719848 0.7079636 -4.503073
v -1.714969 0.6065522 -4.474322
v -1.716267 0.6067557 -4.473598
v -1.716267 0.6067557 -4.473598
v -1.716267 0.6072775 -4.472191
v -1.714969 0.6075957 -4.471509
v -1.714969 0.6075957 -4.471509
v -1.713672 0.6073922 -4.472234
v -1.713672 0.6073922 -4.472234
v -1.713672 0.6068704 -4.47364
v -1.713672 0.6068704 -4.47364
v -1.714969 0.6065522 -4.474322
v -1.711368 0.537515 -4.442253
v -1.712666 0.5379418 -4.441633
v -1.712666 0.5379418 -4.441633
v -1.712666 0.5388908 -4.440471
v -1.711368 0.5394129 -4.439929
v -1.711368 0.5394129 -4.439929
v -1.71007 0.5389861 -4.440549
v -1.71007 0.5389861 -4.440549
v -1.71007 0.5380371 -4.441711
v -1.71007 0.5380371 -4.441711
v -1.711368 0.537515 -4.442253
v -1.709455 0.5113713 -4.406601
v -1.710746 0.5120843 -4.406326
v -1.710746 0.5120843 -4.406326
v -1.710746 0.5135614 -4.406065
v -1.709455 0.5143254 -4.406078
v -1.709455 0.5143254 -4.406078
v -1.708164 0.5136123 -4.406353
v -1.708164 0.5136123 -4.406353
v -1.708164 0.5121353 -4.406614
v -1.708164 0.5121353 -4.406614
v -1.709455 0.5113713 -4.406601
v -1.709455 0.5113713 -4.406601
v -1.710746 0.5120843 -4.406326
v -1.704717 0.5201756 -4.376929
v -1.705962 0.5209985 -4.377076
v -1.705962 0.5209985 -4.377076
v -1.705962 0.5222064 -4.377965
v -1.704717 0.5225915 -4.378707
v -1.704717 0.5225915 -4.378707
v -1.703471 0.5217686 -4.37856
v -1.703471 0.5217686 -4.37856
v -1.703471 0.5205606 -4.377671
v -1.709455 0.5113713 -4.406601
v -1.704717 0.5201756 -4.376929
v -1.704717 0.5201756 -4.376929
v -1.705962 0.5209985 -4.377076
v -1.693066 0.5451097 -4.360903
v -1.69425 0.5458782 -4.36141
v -1.69425 0.5458782 -4.36141
v -1.69425 0.5464184 -4.36281
v -1.705962 0.5222064 -4.377965
v -1.704717 0.5225915 -4.378707
v -1.69425 0.5464184 -4.36281
v -1.693066 0.5461902 -4.363702
v -1.704717 0.5225915 -4.378707
v -1.703471 0.5217686 -4.37856
v -1.693066 0.5461902 -4.363702
v -1.691882 0.5454218 -4.363194
v -1.691882 0.5454218 -4.363194
v -1.691882 0.5448815 -4.361795
v -1.693066 0.5451097 -4.360903
v -1.675551 0.5815264 -4.354914
v -1.676714 0.5821611 -4.355617
v -1.676714 0.5821611 -4.355617
v -1.676714 0.5822775 -4.357112
v -1.676714 0.5822775 -4.357112
v -1.675551 0.581759 -4.357905
v -1.675551 0.581759 -4.357905
v -1.674388 0.5811242 -4.357202
v -1.674388 0.5811242 -4.357202
v -1.674388 0.5810079 -4.355707
v -1.691882 0.5448815 -4.361795
v -1.693066 0.5451097 -4.360903
v -1.674388 0.5810079 -4.355707
v -1.675551 0.5815264 -4.354914
v -1.653222 0.6254131 -4.355264
v -1.65437 0.6259927 -4.356036
v -1.65437 0.6259927 -4.356036
v -1.65437 0.6259362 -4.357535
v -1.65437 0.6259362 -4.357535
v -1.653222 0.6253001 -4.358262
v -1.653222 0.6253001 -4.358262
v -1.652074 0.6247205 -4.35749
v -1.652074 0.6247205 -4.35749
v -1.652074 0.6247771 -4.35599
v -1.652074 0.6247771 -4.35599
v -1.653222 0.6254131 -4.355264
v -1.627129 0.6728805 -4.358485
v -1.628253 0.6734833 -4.359275
v -1.628253 0.6734833 -4.359275
v -1.628253 0.6733894 -4.360772
v -1.628253 0.6733894 -4.360772
v -1.627129 0.6726927 -4.36148
v -1.627129 0.6726927 -4.36148
v -1.626005 0.6720899 -4.36069
v -1.626005 0.6720899 -4.36069
v -1.626005 0.6721838 -4.359193
v -1.626005 0.6721838 -4.359193
v -1.627129 0.6728805 -4.358485
v -1.59832 0.7199517 -4.361189
v -1.599404 0.7206552 -4.36195
v -1.599404 0.7206552 -4.36195
v -1.599404 0.7206315 -4.36345
v -1.599404 0.7206315 -4.36345
v -1.59832 0.7199041 -4.364189
v -1.59832 0.7199041 -4.364189
v -1.597236 0.7192006 -4.363428
v -1.597236 0.7192006 -4.363428
v -1.597236 0.7192243 -4.361928
v -1.597236 0.7192243 -4.361928
v -1.59832 0.7199517 -4.361189
v -1.567846 0.7625814 -4.360017
v -1.568864 0.7634792 -4.360656
v -1.568864 0.7634792 -4.360656
v -1.568864 0.7636731 -4.362144
v -1.568864 0.7636731 -4.362144
v -1.567846 0.7629692 -4.362991
v -1.567846 0.7629692 -4.362991
v -1.566829 0.7620714 -4.362352
v -1.566829 0.7620714 -4.362352
v -1.566829 0.7618775 -4.360865
v -1.566829 0.7618775 -4.360865
v -1.567846 0.7625814 -4.360017
v -1.536756 0.7966518 -4.351707
v -1.537682 0.797802 -4.35197
v -1.537682 0.797802 -4.35197
v -1.537682 0.7984741 -4.353311
v -1.537682 0.7984741 -4.353311
v -1.536756 0.797996 -4.354389
v -1.536756 0.797996 -4.354389
v -1.53583 0.7968459 -4.354127
v -1.53583 0.7968459 -4.354127
v -1.53583 0.7961738 -4.352786
v -1.566829 0.7618775 -4.360865
v -1.567846 0.7625814 -4.360017
v -1.53583 0.7961738 -4.352786
v -1.567846 0.7625814 -4.360017
v -1.536756 0.7966518 -4.351707
v -1.53583 0.7961738 -4.352786
v -1.536756 0.7966518 -4.351707
v -1.506099 0.8182546 -4.333219
v -1.507013 0.819357 -4.332771
v -1.507013 0.8206709 -4.333495
v -1.507013 0.8206709 -4.333495
v -1.506099 0.8208826 -4.334665
v -1.506099 0.8208826 -4.334665
v -1.505186 0.8197802 -4.335113
v -1.53583 0.7961738 -4.352786
v -1.505186 0.8184662 -4.334389
v -1.505186 0.8184662 -4.334389
v -1.506099 0.8182546 -4.333219
v -1.476926 0.8240059 -4.300739
v -1.47794 0.8247919 -4.299962
v -1.47794 0.8262904 -4.30003
v -1.507013 0.8206709 -4.333495
v -1.506099 0.8208826 -4.334665
v -1.47794 0.8262904 -4.30003
v -1.476926 0.8270028 -4.300874
v -1.506099 0.8208826 -4.334665
v -1.505186 0.8197802 -4.335113
v -1.476926 0.8270028 -4.300874
v -1.475911 0.8262168 -4.301651
v -1.475911 0.8262168 -4.301651
v -1.475911 0.8247184 -4.301583
v -1.475911 0.8247184 -4.301583
v -1.476926 0.8240059 -4.300739
v -1.451173 0.8212461 -4.265464
v -1.47794 0.8247919 -4.299962
v -1.452188 0.8219408 -4.264606
v -1.451173 0.8212461 -4.265464
v -1.452188 0.8219408 -4.264606
v -1.452188 0.8234375 -4.264506
v -1.452188 0.8234375 -4.264506
v -1.451173 0.8242396 -4.265266
v -1.451173 0.8242396 -4.265266
v -1.450158 0.8235449 -4.266125
v -1.450158 0.8235449 -4.266125
v -1.450158 0.8220482 -4.266224
v -1.450158 0.8220482 -4.266224
v -1.451173 0.8212461 -4.265464
v -1.429355 0.8199059 -4.240635
v -1.430259 0.820624 -4.239677
v -1.430259 0.820624 -4.239677
v -1.430259 0.8221232 -4.239626
v -1.430259 0.8221232 -4.239626
v -1.429355 0.8229042 -4.240534
v -1.429355 0.8229042 -4.240534
v -1.428451 0.8221861 -4.241492
v -1.428451 0.8221861 -4.241492
v -1.428451 0.8206869 -4.241542
v -1.428451 0.8206869 -4.241542
v -1.429355 0.8199059 -4.240635
v -1.410376 0.8197508 -4.224891
v -1.411069 0.8205368 -4.223817
v -1.411069 0.8205368 -4.223817
v -1.411069 0.822036 -4.223867
v -1.411069 0.822036 -4.223867
v -1.410376 0.8227492 -4.22499
v -1.410376 0.8227492 -4.22499
v -1.409683 0.8219633 -4.226063
v -1.409683 0.8219633 -4.226063
v -1.409683 0.8204641 -4.226013
v -1.409683 0.8204641 -4.226013
v -1.410376 0.8197508 -4.224891
v -1.393146 0.8205791 -4.21656
v -1.39351 0.8216016 -4.215525
v -1.39351 0.8216016 -4.215525
v -1.39351 0.8230594 -4.215878
v -1.39351 0.8216016 -4.215525
v -1.393146 0.8234947 -4.217267
v -1.393146 0.8234947 -4.217267
v -1.392783 0.8224721 -4.218302
v -1.393146 0.8234947 -4.217267
v -1.392783 0.8210143 -4.217948
v -1.392783 0.8210143 -4.217948
v -1.393146 0.8205791 -4.21656
v -1.376573 0.8237984 -4.213507
v -1.376707 0.8249319 -4.21448
v -1.376573 0.8237984 -4.213507
v -1.39351 0.8230594 -4.215878
v -1.376707 0.824658 -4.215955
v -1.376707 0.8249319 -4.21448
v -1.376707 0.824658 -4.215955
v -1.376573 0.8232507 -4.216457
v -1.376707 0.824658 -4.215955
v -1.376438 0.8221172 -4.215484
v -1.376438 0.8223911 -4.214009
v -1.376438 0.8221172 -4.215484
v -1.393146 0.8205791 -4.21656
v -1.376573 0.8237984 -4.213507
v -1.376438 0.8223911 -4.214009
v -1.359563 0.8268124 -4.216953
v -1.359887 0.8267071 -4.218414
v -1.359563 0.8268124 -4.216953
v -1.359887 0.8253669 -4.219087
v -1.359887 0.8253669 -4.219087
v -1.359563 0.8241319 -4.2183
v -1.359239 0.8242372 -4.216839
v -1.359563 0.8241319 -4.2183
v -1.359239 0.8255775 -4.216166
v -1.359239 0.8242372 -4.216839
v -1.376573 0.8237984 -4.213507
v -1.359563 0.8268124 -4.216953
v -1.359239 0.8255775 -4.216166
v -1.341026 0.8290607 -4.222847
v -1.341447 0.8287416 -4.224251
v -1.341447 0.8273199 -4.22473
v -1.341447 0.8273199 -4.22473
v -1.341026 0.8262172 -4.223804
v -1.341026 0.8262172 -4.223804
v -1.340605 0.8265364 -4.2224
v -1.340605 0.8265364 -4.2224
v -1.340605 0.8279581 -4.221922
v -1.340605 0.8279581 -4.221922
v -1.341026 0.8290607 -4.222847
v -1.319869 0.8312286 -4.230155
v -1.320274 0.8308384 -4.231545
v -1.320274 0.8293937 -4.231949
v -1.320274 0.8293937 -4.231949
v -1.319869 0.8283393 -4.230963
v -1.319869 0.8283393 -4.230963
v -1.319463 0.8287295 -4.229572
v -1.319463 0.8287295 -4.229572
v -1.319463 0.8301741 -4.229168
v -1.319463 0.8301741 -4.229168
v -1.319869 0.8312286 -4.230155
v -1.294999 0.8331206 -4.237439
v -1.295314 0.8327011 -4.238844
v -1.295314 0.8312465 -4.23921
v -1.295314 0.8312465 -4.23921
v -1.294999 0.8302114 -4.238171
v -1.294999 0.8302114 -4.238171
v -1.294685 0.8306309 -4.236766
v -1.294685 0.8306309 -4.236766
v -1.294685 0.8320855 -4.2364
v -1.294685 0.8320855 -4.2364
v -1.294999 0.8331206 -4.237439
v -1.265326 0.8345029 -4.243193
v -1.265579 0.8340712 -4.244607
v -1.265579 0.8326127 -4.244957
v -1.265579 0.8326127 -4.244957
v -1.265326 0.8315859 -4.243894
v -1.265326 0.8315859 -4.243894
v -1.265072 0.8320176 -4.24248
v -1.265072 0.8320176 -4.24248
v -1.265072 0.8334761 -4.24213
v -1.265072 0.8334761 -4.24213
v -1.265326 0.8345029 -4.243193

vn 0 -0.03250508 -0.9994715
vn -0.8645112 -0.06691657 -0.498139
vn 0 -0.05261724 -0.9986148
vn -0.8647581 -0.07287779 -0.4968723
vn -0.8645112 -0.06691657 -0.498139
vn -0.8645616 -0.03441397 0.5013472
vn -0.8647581 -0.07287779 -0.4968723
vn -0.8648198 -0.02018787 0.5016765
vn 0 0.03250508 0.9994715
vn 0 0.05261724 0.9986148
vn 0 0.03250508 0.9994715
vn 0.8645112 0.06691657 0.498139
vn 0 0.05261724 0.9986148
vn 0.8647581 0.07287779 0.4968723
vn 0.8645112 0.06691657 0.498139
vn 0.8645616 0.03441397 -0.5013472
vn 0.8647581 0.07287779 0.4968723
vn 0.8648198 0.02018787 -0.5016765
vn 0.8645616 0.03441397 -0.5013472
vn 0 -0.03250508 -0.9994715
vn 0.8648198 0.02018787 -0.5016765
vn 0 -0.05261724 -0.9986148
vn 0 -0.08249299 -0.9965917
vn -0.8650045 -0.08256681 -0.494924
vn -0.8650045 -0.08256681 -0.494924
vn -0.865076 0 0.5016408
vn 0 0.08249299 0.9965917
vn 0 0.08249299 0.9965917
vn 0.8650045 0.08256681 0.494924
vn 0.8650045 0.08256681 0.494924
vn 0.865076 0 -0.5016408
vn 0.865076 0 -0.5016408
vn 0 -0.08249299 -0.9965917
vn 0 -0.1013131 -0.9948546
vn -0.8651215 -0.09035854 -0.493356
vn -0.8651215 -0.09035854 -0.493356
vn -0.8651819 0.01096777 0.5013382
vn 0 0.1013131 0.9948546
vn 0 0.1013131 0.9948546
vn 0.8651215 0.09035854 0.493356
vn 0.8651215 0.09035854 0.493356
vn 0.8651819 -0.01096777 -0.5013382
vn 0.8651819 -0.01096777 -0.5013382
vn 0 -0.1013131 -0.9948546
vn 0 -0.120787 -0.9926784
vn -0.8651902 -0.09942614 -0.4914878
vn -0.8651902 -0.09942614 -0.4914878
vn -0.8651741 0.021379 0.5010157
vn 0 0.120787 0.9926784
vn 0 0.120787 0.9926784
vn 0.8651902 0.09942614 0.4914878
vn 0.8651902 0.09942614 0.4914878
vn 0.8651741 -0.021379 -0.5010157
vn 0.8651741 -0.021379 -0.5010157
vn 0 -0.120787 -0.9926784
vn 0 -0.1453315 -0.989383
vn -0.8651819 -0.1113467 -0.4889398
vn -0.8651819 -0.1113467 -0.4889398
vn -0.865149 0.0339352 0.5003654
vn 0 0.1453315 0.989383
vn 0 0.1453315 0.989383
vn 0.8651819 0.1113467 0.4889398
vn 0.8651819 0.1113467 0.4889398
vn 0.865149 -0.0339352 -0.5003654
vn 0.865149 -0.0339352 -0.5003654
vn 0 -0.1453315 -0.989383
vn 0 -0.180333 -0.9836056
vn -0.8651105 -0.1287812 -0.484767
vn -0.8651105 -0.1287812 -0.484767
vn -0.8651851 0.05154074 0.4987968
vn 0 0.180333 0.9836056
vn 0 0.180333 0.9836056
vn 0.8651105 0.1287812 0.484767
vn 0.8651105 0.1287812 0.484767
vn 0.8651851 -0.05154074 -0.4987968
vn 0.8651851 -0.05154074 -0.4987968
vn 0 -0.180333 -0.9836056
vn 0 -0.2371464 -0.9714739
vn -0.8651584 -0.1572401 -0.4762107
vn -0.8651584 -0.1572401 -0.4762107
vn -0.8650755 0.07990386 0.495237
vn 0 0.2371464 0.9714739
vn 0 0.2371464 0.9714739
vn 0.8651584 0.1572401 0.4762107
vn 0.8651584 0.1572401 0.4762107
vn 0.8650755 -0.07990386 -0.495237
vn 0.8650755 -0.07990386 -0.495237
vn 0 -0.2371464 -0.9714739
vn 0 -0.3478812 -0.9375386
vn -0.8650671 -0.212154 -0.4545874
vn -0.8650671 -0.212154 -0.4545874
vn -0.8650979 0.1357055 0.4828971
vn 0 0.3478812 0.9375386
vn 0 0.3478812 0.9375386
vn 0.8650671 0.212154 0.4545874
vn 0.8650671 0.212154 0.4545874
vn 0.8650979 -0.1357055 -0.4828971
vn 0.8650979 -0.1357055 -0.4828971
vn 0 -0.3478812 -0.9375386
vn 0 -0.6326728 -0.7744192
vn -0.8651006 -0.3481066 -0.3611408
vn -0.8651006 -0.3481066 -0.3611408
vn -0.8650252 0.2845404 0.4132412
vn 0 0.6326728 0.7744192
vn 0 0.6326728 0.7744192
vn 0.8651006 0.3481066 0.3611408
vn 0.8651006 0.3481066 0.3611408
vn 0.8650252 -0.2845404 -0.4132412
vn 0.8650252 -0.2845404 -0.4132412
vn 0 -0.6326728 -0.7744192
vn 0 -0.9847094 -0.1742047
vn -0.860522 -0.5093355 0.008900856
vn -0.860522 -0.5093355 0.008900856
vn -0.8605249 0.4753629 0.1831039
vn 0 0.9847094 0.1742047
vn 0 0.9847094 0.1742047
vn 0.860522 0.5093355 -0.008900856
vn 0.860522 0.5093355 -0.008900856
vn 0.8605249 -0.4753629 -0.1831039
vn 0.8605249 -0.4753629 -0.1831039
vn 0 -0.9847094 -0.1742047
vn 0 -0.9847094 -0.1742047
vn -0.860522 -0.5093355 0.008900856
vn 0 -0.8052995 0.5928683
vn -0.830327 -0.2566956 0.4946358
vn -0.830327 -0.2566956 0.4946358
vn -0.8303059 0.5485836 -0.09822531
vn 0 0.8052995 -0.5928683
vn 0 0.8052995 -0.5928683
vn 0.830327 0.2566956 -0.4946358
vn 0.830327 0.2566956 -0.4946358
vn 0.8303059 -0.5485836 0.09822531
vn 0 -0.9847094 -0.1742047
vn 0 -0.8052995 0.5928683
vn 0 -0.8052995 0.5928683
vn -0.830327 -0.2566956 0.4946358
vn 0 -0.360129 0.9329025
vn -0.789378 0.1521458 0.5947554
vn -0.789378 0.1521458 0.5947554
vn -0.7893896 0.5123125 -0.3382304
vn -0.8303059 0.5485836 -0.09822531
vn 0 0.8052995 -0.5928683
vn -0.7893896 0.5123125 -0.3382304
vn 0 0.360129 -0.9329025
vn 0 0.8052995 -0.5928683
vn 0.830327 0.2566956 -0.4946358
vn 0 0.360129 -0.9329025
vn 0.7893828 -0.152107 -0.5947589
vn 0.7893828 -0.152107 -0.5947589
vn 0.7893896 -0.5123125 0.3382304
vn 0 -0.360129 0.9329025
vn 0 -0.07753218 0.9969898
vn -0.7754996 0.345629 0.5283379
vn -0.7754996 0.345629 0.5283379
vn -0.7754782 0.4231832 -0.4685611
vn -0.7754782 0.4231832 -0.4685611
vn 0 0.07753218 -0.9969898
vn 0 0.07753218 -0.9969898
vn 0.7754996 -0.345629 -0.5283379
vn 0.7754996 -0.345629 -0.5283379
vn 0.7754782 -0.4231832 0.4685611
vn 0.7893896 -0.5123125 0.3382304
vn 0 -0.360129 0.9329025
vn 0.7754782 -0.4231832 0.4685611
vn 0 -0.07753218 0.9969898
vn 0 0.03767606 0.99929
vn -0.7651908 0.4240376 0.4844328
vn -0.7651908 0.4240376 0.4844328
vn -0.7652138 0.386342 -0.5149637
vn -0.7652138 0.386342 -0.5149637
vn 0 -0.03767606 -0.99929
vn 0 -0.03767606 -0.99929
vn 0.7651908 -0.4240376 -0.4844328
vn 0.7651908 -0.4240376 -0.4844328
vn 0.7652138 -0.386342 0.5149637
vn 0.7652138 -0.386342 0.5149637
vn 0 0.03767606 0.99929
vn 0 0.06257617 0.9980401
vn -0.7494677 0.4644634 0.4717752
vn -0.7494677 0.4644634 0.4717752
vn -0.7494579 0.40187 -0.5261306
vn -0.7494579 0.40187 -0.5261306
vn 0 -0.06257617 -0.9980401
vn 0 -0.06257617 -0.9980401
vn 0.7494677 -0.4644634 -0.4717752
vn 0.7494677 -0.4644634 -0.4717752
vn 0.7494579 -0.40187 0.5261306
vn 0.7494579 -0.40187 0.5261306
vn 0 0.06257617 0.9980401
vn 0 0.01585651 0.9998742
vn -0.7228011 0.4848609 0.4924108
vn -0.7228011 0.4848609 0.4924108
vn -0.722855 0.4690808 -0.5073894
vn -0.722855 0.4690808 -0.5073894
vn 0 -0.01585651 -0.9998742
vn 0 -0.01585651 -0.9998742
vn 0.7228011 -0.4848609 -0.4924108
vn 0.7228011 -0.4848609 -0.4924108
vn 0.722855 -0.4690808 0.5073894
vn 0.722855 -0.4690808 0.5073894
vn 0 0.01585651 0.9998742
vn 0 -0.1292763 0.9916086
vn -0.6782515 0.4692531 0.5654877
vn -0.6782515 0.4692531 0.5654877
vn -0.6782901 0.5985006 -0.4262857
vn -0.6782901 0.5985006 -0.4262857
vn 0 0.1292763 -0.9916086
vn 0 0.1292763 -0.9916086
vn 0.6782515 -0.4692531 -0.5654877
vn 0.6782515 -0.4692531 -0.5654877
vn 0.6782901 -0.5985006 0.4262857
vn 0.6782901 -0.5985006 0.4262857
vn 0 -0.1292763 0.9916086
vn 0 -0.4481035 0.8939817
vn -0.6175657 0.3187167 0.7190496
vn -0.6175657 0.3187167 0.7190496
vn -0.6175985 0.7668124 -0.1748445
vn -0.6175985 0.7668124 -0.1748445
vn 0 0.4481035 -0.8939817
vn 0 0.4481035 -0.8939817
vn 0.6175657 -0.3187167 -0.7190496
vn 0.6175657 -0.3187167 -0.7190496
vn 0.6175985 -0.7668124 0.1748445
vn 0.6782901 -0.5985006 0.4262857
vn 0 -0.1292763 0.9916086
vn 0.6175985 -0.7668124 0.1748445
vn 0 -0.1292763 0.9916086
vn 0 -0.4481035 0.8939817
vn 0.6175985 -0.7668124 0.1748445
vn 0 -0.4481035 0.8939817
vn 0 -0.876027 0.4822619
vn -0.6091487 -0.1410618 0.7804098
vn -0.6091459 0.7348692 0.2981755
vn -0.6091459 0.7348692 0.2981755
vn 0 0.876027 -0.4822619
vn 0 0.876027 -0.4822619
vn 0.6091487 0.1410618 -0.7804098
vn 0.6175985 -0.7668124 0.1748445
vn 0.6091459 -0.7348692 -0.2981755
vn 0.6091459 -0.7348692 -0.2981755
vn 0 -0.876027 0.4822619
vn 0 -0.9989806 0.04514089
vn -0.6763741 -0.4749559 0.5629696
vn -0.6764195 0.5240244 0.5175471
vn -0.6091459 0.7348692 0.2981755
vn 0 0.876027 -0.4822619
vn -0.6764195 0.5240244 0.5175471
vn 0 0.9989806 -0.04514089
vn 0 0.876027 -0.4822619
vn 0.6091487 0.1410618 -0.7804098
vn 0 0.9989806 -0.04514089
vn 0.6763741 0.4749559 -0.5629696
vn 0.6763741 0.4749559 -0.5629696
vn 0.6764195 -0.5240244 -0.5175471
vn 0.6764195 -0.5240244 -0.5175471
vn 0 -0.9989806 0.04514089
vn 0 -0.9978117 -0.06612077
vn -0.6763741 -0.4749559 0.5629696
vn -0.6765745 -0.534648 0.5063581
vn 0 -0.9978117 -0.06612077
vn -0.6765745 -0.534648 0.5063581
vn -0.6766104 0.4630736 0.5725043
vn -0.6766104 0.4630736 0.5725043
vn 0 0.9978117 0.06612077
vn 0 0.9978117 0.06612077
vn 0.6765745 0.534648 -0.5063581
vn 0.6765745 0.534648 -0.5063581
vn 0.6766104 -0.4630736 -0.5725043
vn 0.6766104 -0.4630736 -0.5725043
vn 0 -0.9978117 -0.06612077
vn 0 -0.9994321 -0.03369721
vn -0.6024587 -0.5206845 0.6049223
vn -0.6024587 -0.5206845 0.6049223
vn -0.602469 0.4787328 0.6386282
vn -0.602469 0.4787328 0.6386282
vn 0 0.9994321 0.03369721
vn 0 0.9994321 0.03369721
vn 0.6024587 0.5206845 -0.6049223
vn 0.6024587 0.5206845 -0.6049223
vn 0.602469 -0.4787328 -0.6386282
vn 0.602469 -0.4787328 -0.6386282
vn 0 -0.9994321 -0.03369721
vn 0 -0.9994533 0.0330608
vn -0.462172 -0.4754428 0.7485661
vn -0.462172 -0.4754428 0.7485661
vn -0.462267 0.5240244 0.7153375
vn -0.462267 0.5240244 0.7153375
vn 0 0.9994533 -0.0330608
vn 0 0.9994533 -0.0330608
vn 0.462172 0.4754428 -0.7485661
vn 0.462172 0.4754428 -0.7485661
vn 0.462267 -0.5240244 -0.7153375
vn 0.462267 -0.5240244 -0.7153375
vn 0 -0.9994533 0.0330608
vn 0 -0.9718611 0.2355545
vn -0.2424835 -0.2901695 0.9257448
vn -0.2424835 -0.2901695 0.9257448
vn -0.2424925 0.6817766 0.6902015
vn -0.2424835 -0.2901695 0.9257448
vn 0 0.9718611 -0.2355545
vn 0 0.9718611 -0.2355545
vn 0.2424835 0.2901695 -0.9257448
vn 0 0.9718611 -0.2355545
vn 0.2424925 -0.6817766 -0.6902015
vn 0.2424925 -0.6817766 -0.6902015
vn 0 -0.9718611 0.2355545
vn 0 0.1825801 0.983191
vn -0.08940328 0.9381782 0.334408
vn 0 0.1825801 0.983191
vn -0.2424925 0.6817766 0.6902015
vn -0.0894101 0.7556544 -0.6488391
vn -0.08940328 0.9381782 0.334408
vn -0.0894101 0.7556544 -0.6488391
vn 0 -0.1825801 -0.983191
vn -0.0894101 0.7556544 -0.6488391
vn 0.08940328 -0.9381782 -0.334408
vn 0.0894101 -0.7556544 0.6488391
vn 0.08940328 -0.9381782 -0.334408
vn 0 -0.9718611 0.2355545
vn 0 0.1825801 0.983191
vn 0.0894101 -0.7556544 0.6488391
vn 0 0.8935831 0.4488977
vn -0.2160899 0.8233112 -0.5248464
vn 0 0.8935831 0.4488977
vn -0.2161172 -0.07022417 -0.9738387
vn -0.2161172 -0.07022417 -0.9738387
vn 0 -0.8935831 -0.4488977
vn 0.2160899 -0.8233112 0.5248464
vn 0 -0.8935831 -0.4488977
vn 0.2161172 0.07022417 0.9738387
vn 0.2160899 -0.8233112 0.5248464
vn 0 0.1825801 0.983191
vn 0 0.8935831 0.4488977
vn 0.2161172 0.07022417 0.9738387
vn 0 0.9478095 0.3188372
vn -0.280571 0.7351674 -0.6170971
vn -0.2805642 -0.2127678 -0.9359559
vn -0.2805642 -0.2127678 -0.9359559
vn 0 -0.9478095 -0.3188372
vn 0 -0.9478095 -0.3188372
vn 0.280571 -0.7351674 0.6170971
vn 0.280571 -0.7351674 0.6170971
vn 0.2805642 0.2127678 0.9359559
vn 0.2805642 0.2127678 0.9359559
vn 0 0.9478095 0.3188372
vn 0 0.9630708 0.2692482
vn -0.270311 0.703039 -0.6577752
vn -0.2702884 -0.2601159 -0.9269757
vn -0.2702884 -0.2601159 -0.9269757
vn 0 -0.9630708 -0.2692482
vn 0 -0.9630708 -0.2692482
vn 0.270311 -0.703039 0.6577752
vn 0.270311 -0.703039 0.6577752
vn 0.2702884 0.2601159 0.9269757
vn 0.2702884 0.2601159 0.9269757
vn 0 0.9630708 0.2692482
vn 0 0.9697391 0.2441435
vn -0.2095024 0.6901022 -0.6927249
vn -0.2095175 -0.2797011 -0.936947
vn -0.2095175 -0.2797011 -0.936947
vn 0 -0.9697391 -0.2441435
vn 0 -0.9697391 -0.2441435
vn 0.2095024 -0.6901022 0.6927249
vn 0.2095024 -0.6901022 0.6927249
vn 0.2095175 0.2797011 0.936947
vn 0.2095175 0.2797011 0.936947
vn 0 0.9697391 0.2441435
vn 0 0.9723223 0.2336434
vn -0.1689484 0.6844955 -0.7091702
vn -0.1689779 -0.2878427 -0.9426522
vn -0.1689779 -0.2878427 -0.9426522
vn 0 -0.9723223 -0.2336434
vn 0 -0.9723223 -0.2336434
vn 0.1689484 -0.6844955 0.7091702
vn 0.1689484 -0.6844955 0.7091702
vn 0.1689779 0.2878427 0.9426522
vn 0.1689779 0.2878427 0.9426522
vn 0 0.9723223 0.2336434

vt 1 0
vt 0.8333333 0
vt 1 0.03333334
vt 0.8333333 0.03333334
vt 0.8333333 0
vt 0.6666666 0
vt 0.8333333 0.03333334
vt 0.6666666 0.03333334
vt 0.5 0
vt 0.5 0.03333334
vt 0.5 0
vt 0.3333333 0
vt 0.5 0.03333334
vt 0.3333333 0.03333334
vt 0.3333333 0
vt 0.1666667 0
vt 0.3333333 0.03333334
vt 0.1666667 0.03333334
vt 0.1666667 0
vt 0 0
vt 0.1666667 0.03333334
vt 0 0.03333334
vt 1 0.06666667
vt 0.8333333 0.06666667
vt 0.8333333 0.06666667
vt 0.6666666 0.06666667
vt 0.5 0.06666667
vt 0.5 0.06666667
vt 0.3333333 0.06666667
vt 0.3333333 0.06666667
vt 0.1666667 0.06666667
vt 0.1666667 0.06666667
vt 0 0.06666667
vt 1 0.1
vt 0.8333333 0.1
vt 0.8333333 0.1
vt 0.6666666 0.1
vt 0.5 0.1
vt 0.5 0.1
vt 0.3333333 0.1
vt 0.3333333 0.1
vt 0.1666667 0.1
vt 0.1666667 0.1
vt 0 0.1
vt 1 0.1333333
vt 0.8333333 0.1333333
vt 0.8333333 0.1333333
vt 0.6666666 0.1333333
vt 0.5 0.1333333
vt 0.5 0.1333333
vt 0.3333333 0.1333333
vt 0.3333333 0.1333333
vt 0.1666667 0.1333333
vt 0.1666667 0.1333333
vt 0 0.1333333
vt 1 0.1666667
vt 0.8333333 0.1666667
vt 0.8333333 0.1666667
vt 0.6666666 0.1666667
vt 0.5 0.1666667
vt 0.5 0.1666667
vt 0.3333333 0.1666667
vt 0.3333333 0.1666667
vt 0.1666667 0.1666667
vt 0.1666667 0.1666667
vt 0 0.1666667
vt 1 0.2
vt 0.8333333 0.2
vt 0.8333333 0.2
vt 0.6666666 0.2
vt 0.5 0.2
vt 0.5 0.2
vt 0.3333333 0.2
vt 0.3333333 0.2
vt 0.1666667 0.2
vt 0.1666667 0.2
vt 0 0.2
vt 1 0.2333333
vt 0.8333333 0.2333333
vt 0.8333333 0.2333333
vt 0.6666666 0.2333333
vt 0.5 0.2333333
vt 0.5 0.2333333
vt 0.3333333 0.2333333
vt 0.3333333 0.2333333
vt 0.1666667 0.2333333
vt 0.1666667 0.2333333
vt 0 0.2333333
vt 1 0.2666667
vt 0.8333333 0.2666667
vt 0.8333333 0.2666667
vt 0.6666666 0.2666667
vt 0.5 0.2666667
vt 0.5 0.2666667
vt 0.3333333 0.2666667
vt 0.3333333 0.2666667
vt 0.1666667 0.2666667
vt 0.1666667 0.2666667
vt 0 0.2666667
vt 1 0.3
vt 0.8333333 0.3
vt 0.8333333 0.3
vt 0.6666666 0.3
vt 0.5 0.3
vt 0.5 0.3
vt 0.3333333 0.3
vt 0.3333333 0.3
vt 0.1666667 0.3
vt 0.1666667 0.3
vt 0 0.3
vt 1 0.3333333
vt 0.8333333 0.3333333
vt 0.8333333 0.3333333
vt 0.6666666 0.3333333
vt 0.5 0.3333333
vt 0.5 0.3333333
vt 0.3333333 0.3333333
vt 0.3333333 0.3333333
vt 0.1666667 0.3333333
vt 0.1666667 0.3333333
vt 0 0.3333333
vt 1 0.3333333
vt 0.8333333 0.3333333
vt 1 0.3666667
vt 0.8333333 0.3666667
vt 0.8333333 0.3666667
vt 0.6666666 0.3666667
vt 0.5 0.3666667
vt 0.5 0.3666667
vt 0.3333333 0.3666667
vt 0.3333333 0.3666667
vt 0.1666667 0.3666667
vt 0 0.3333333
vt 0 0.3666667
vt 1 0.3666667
vt 0.8333333 0.3666667
vt 1 0.4
vt 0.8333333 0.4
vt 0.8333333 0.4
vt 0.6666666 0.4
vt 0.6666666 0.3666667
vt 0.5 0.3666667
vt 0.6666666 0.4
vt 0.5 0.4
vt 0.5 0.3666667
vt 0.3333333 0.3666667
vt 0.5 0.4
vt 0.3333333 0.4
vt 0.3333333 0.4
vt 0.1666667 0.4
vt 0 0.4
vt 1 0.4333333
vt 0.8333333 0.4333333
vt 0.8333333 0.4333333
vt 0.6666666 0.4333333
vt 0.6666666 0.4333333
vt 0.5 0.4333333
vt 0.5 0.4333333
vt 0.3333333 0.4333333
vt 0.3333333 0.4333333
vt 0.1666667 0.4333333
vt 0.1666667 0.4
vt 0 0.4
vt 0.1666667 0.4333333
vt 0 0.4333333
vt 1 0.4666667
vt 0.8333333 0.4666667
vt 0.8333333 0.4666667
vt 0.6666666 0.4666667
vt 0.6666666 0.4666667
vt 0.5 0.4666667
vt 0.5 0.4666667
vt 0.3333333 0.4666667
vt 0.3333333 0.4666667
vt 0.1666667 0.4666667
vt 0.1666667 0.4666667
vt 0 0.4666667
vt 1 0.5
vt 0.8333333 0.5
vt 0.8333333 0.5
vt 0.6666666 0.5
vt 0.6666666 0.5
vt 0.5 0.5
vt 0.5 0.5
vt 0.3333333 0.5
vt 0.3333333 0.5
vt 0.1666667 0.5
vt 0.1666667 0.5
vt 0 0.5
vt 1 0.5333334
vt 0.8333333 0.5333334
vt 0.8333333 0.5333334
vt 0.6666666 0.5333334
vt 0.6666666 0.5333334
vt 0.5 0.5333334
vt 0.5 0.5333334
vt 0.3333333 0.5333334
vt 0.3333333 0.5333334
vt 0.1666667 0.5333334
vt 0.1666667 0.5333334
vt 0 0.5333334
vt 1 0.5666667
vt 0.8333333 0.5666667
vt 0.8333333 0.5666667
vt 0.6666666 0.5666667
vt 0.6666666 0.5666667
vt 0.5 0.5666667
vt 0.5 0.5666667
vt 0.3333333 0.5666667
vt 0.3333333 0.5666667
vt 0.1666667 0.5666667
vt 0.1666667 0.5666667
vt 0 0.5666667
vt 1 0.6
vt 0.8333333 0.6
vt 0.8333333 0.6
vt 0.6666666 0.6
vt 0.6666666 0.6
vt 0.5 0.6
vt 0.5 0.6
vt 0.3333333 0.6
vt 0.3333333 0.6
vt 0.1666667 0.6
vt 0.1666667 0.5666667
vt 0 0.5666667
vt 0.1666667 0.6
vt 0 0.5666667
vt 0 0.6
vt 0.1666667 0.6
vt 1 0.6
vt 1 0.6333333
vt 0.8333333 0.6333333
vt 0.6666666 0.6333333
vt 0.6666666 0.6333333
vt 0.5 0.6333333
vt 0.5 0.6333333
vt 0.3333333 0.6333333
vt 0.1666667 0.6
vt 0.1666667 0.6333333
vt 0.1666667 0.6333333
vt 0 0.6333333
vt 1 0.6666667
vt 0.8333333 0.6666667
vt 0.6666666 0.6666667
vt 0.6666666 0.6333333
vt 0.5 0.6333333
vt 0.6666666 0.6666667
vt 0.5 0.6666667
vt 0.5 0.6333333
vt 0.3333333 0.6333333
vt 0.5 0.6666667
vt 0.3333333 0.6666667
vt 0.3333333 0.6666667
vt 0.1666667 0.6666667
vt 0.1666667 0.6666667
vt 0 0.6666667
vt 1 0.7
vt 0.8333333 0.6666667
vt 0.8333333 0.7
vt 1 0.7
vt 0.8333333 0.7
vt 0.6666666 0.7
vt 0.6666666 0.7
vt 0.5 0.7
vt 0.5 0.7
vt 0.3333333 0.7
vt 0.3333333 0.7
vt 0.1666667 0.7
vt 0.1666667 0.7
vt 0 0.7
vt 1 0.7333333
vt 0.8333333 0.7333333
vt 0.8333333 0.7333333
vt 0.6666666 0.7333333
vt 0.6666666 0.7333333
vt 0.5 0.7333333
vt 0.5 0.7333333
vt 0.3333333 0.7333333
vt 0.3333333 0.7333333
vt 0.1666667 0.7333333
vt 0.1666667 0.7333333
vt 0 0.7333333
vt 1 0.7666667
vt 0.8333333 0.7666667
vt 0.8333333 0.7666667
vt 0.6666666 0.7666667
vt 0.6666666 0.7666667
vt 0.5 0.7666667
vt 0.5 0.7666667
vt 0.3333333 0.7666667
vt 0.3333333 0.7666667
vt 0.1666667 0.7666667
vt 0.1666667 0.7666667
vt 0 0.7666667
vt 1 0.8
vt 0.8333333 0.8
vt 0.8333333 0.8
vt 0.6666666 0.8
vt 0.8333333 0.8
vt 0.5 0.8
vt 0.5 0.8
vt 0.3333333 0.8
vt 0.5 0.8
vt 0.1666667 0.8
vt 0.1666667 0.8
vt 0 0.8
vt 1 0.8333333
vt 0.8333333 0.8333333
vt 1 0.8333333
vt 0.6666666 0.8
vt 0.6666666 0.8333333
vt 0.8333333 0.8333333
vt 0.6666666 0.8333333
vt 0.5 0.8333333
vt 0.6666666 0.8333333
vt 0.3333333 0.8333333
vt 0.1666667 0.8333333
vt 0.3333333 0.8333333
vt 0 0.8
vt 0 0.8333333
vt 0.1666667 0.8333333
vt 1 0.8666667
vt 0.8333333 0.8666667
vt 1 0.8666667
vt 0.6666666 0.8666667
vt 0.6666666 0.8666667
vt 0.5 0.8666667
vt 0.3333333 0.8666667
vt 0.5 0.8666667
vt 0.1666667 0.8666667
vt 0.3333333 0.8666667
vt 0 0.8333333
vt 0 0.8666667
vt 0.1666667 0.8666667
vt 1 0.9
vt 0.8333333 0.9
vt 0.6666666 0.9
vt 0.6666666 0.9
vt 0.5 0.9
vt 0.5 0.9
vt 0.3333333 0.9
vt 0.3333333 0.9
vt 0.1666667 0.9
vt 0.1666667 0.9
vt 0 0.9
vt 1 0.9333333
vt 0.8333333 0.9333333
vt 0.6666666 0.9333333
vt 0.6666666 0.9333333
vt 0.5 0.9333333
vt 0.5 0.9333333
vt 0.3333333 0.9333333
vt 0.3333333 0.9333333
vt 0.1666667 0.9333333
vt 0.1666667 0.9333333
vt 0 0.9333333
vt 1 0.9666666
vt 0.8333333 0.9666666
vt 0.6666666 0.9666666
vt 0.6666666 0.9666666
vt 0.5 0.9666666
vt 0.5 0.9666666
vt 0.3333333 0.9666666
vt 0.3333333 0.9666666
vt 0.1666667 0.9666666
vt 0.1666667 0.9666666
vt 0 0.9666666
vt 1 1
vt 0.8333333 1
vt 0.6666666 1
vt 0.6666666 1
vt 0.5 1
vt 0.5 1
vt 0.3333333 1
vt 0.3333333 1
vt 0.1666667 1
vt 0.1666667 1
vt 0 1

vt2 0.9382245 0.1083772
vt2 0.9380887 0.1097975
vt2 0.9005738 0.1047785
vt2 0.900458 0.1062006
vt2 0.8275586 0.8132919
vt2 0.8266802 0.8144144
vt2 0.7978166 0.7900239
vt2 0.7969528 0.7911586
vt2 0.8258058 0.8155323
vt2 0.7960895 0.7922924
vt2 0.00406751 0.04526011
vt2 0.00390625 0.04384242
vt2 0.04159061 0.04099139
vt2 0.04144939 0.0395716
vt2 0.004146204 0.1686254
vt2 0.00390625 0.167226
vt2 0.0412021 0.1622715
vt2 0.04099044 0.1608678
vt2 0.004012206 0.07735974
vt2 0.00390625 0.07593677
vt2 0.04172178 0.07454992
vt2 0.04162422 0.07312637
vt2 0.8247662 0.09968651
vt2 0.824679 0.1011107
vt2 0.7367885 0.744814
vt2 0.7359495 0.745963
vt2 0.7351089 0.7471136
vt2 0.1172099 0.03454715
vt2 0.1170973 0.03312472
vt2 0.1161117 0.1525082
vt2 0.1159422 0.1510985
vt2 0.1175388 0.06981155
vt2 0.1174551 0.068387
vt2 0.7206153 0.09394501
vt2 0.7205437 0.09537029
vt2 0.6522672 0.6839653
vt2 0.6514433 0.6851259
vt2 0.6506189 0.6862869
vt2 0.2211877 0.02694413
vt2 0.2210907 0.02552035
vt2 0.219236 0.1411243
vt2 0.219093 0.139712
vt2 0.2216804 0.06410255
vt2 0.2216081 0.0626772
vt2 0.5978869 0.08839786
vt2 0.5978301 0.08982381
vt2 0.5517959 0.6136099
vt2 0.5509886 0.6147825
vt2 0.5501812 0.615955
vt2 0.3437414 0.01920211
vt2 0.3436592 0.01777741
vt2 0.34092 0.1299072
vt2 0.3408047 0.1284924
vt2 0.3443877 0.05837465
vt2 0.3443285 0.05694884
vt2 0.4663349 0.08388993
vt2 0.4662962 0.08531632
vt2 0.4429429 0.5399042
vt2 0.4421569 0.5410921
vt2 0.4413714 0.5422793
vt2 0.4751209 0.01234045
vt2 0.4750566 0.010915
vt2 0.471512 0.1206477
vt2 0.4714316 0.1192303
vt2 0.4759122 0.05358179
vt2 0.4758705 0.05215554
vt2 0.3356707 0.08126599
vt2 0.3356571 0.08269276
vt2 0.3332525 0.4689889
vt2 0.3324978 0.4701986
vt2 0.3317441 0.4714066
vt2 0.6056158 0.007377584
vt2 0.6055766 0.005951279
vt2 0.6013569 0.1151232
vt2 0.6013268 0.1137038
vt2 0.6065449 0.05067263
vt2 0.6065286 0.04924576
vt2 0.2155062 0.08137695
vt2 0.2155331 0.08280372
vt2 0.2301925 0.4069616
vt2 0.22949 0.4082064
vt2 0.22879 0.4094462
vt2 0.7255971 0.005333275
vt2 0.7255985 0.00390625
vt2 0.720797 0.1151226
vt2 0.7208492 0.1137038
vt2 0.7266672 0.05059301
vt2 0.7266929 0.04916636
vt2 0.1151953 0.08509035
vt2 0.1153034 0.0865131
vt2 0.141 0.3598347
vt2 0.1404057 0.3611479
vt2 0.1398177 0.3624414
vt2 0.8256282 0.007226517
vt2 0.8257108 0.00580206
vt2 0.8201591 0.1224307
vt2 0.8203747 0.1210275
vt2 0.8268952 0.05427168
vt2 0.8270046 0.05284898
vt2 0.04318199 0.09342583
vt2 0.04352161 0.0948118
vt2 0.07198621 0.333401
vt2 0.07174057 0.3348292
vt2 0.07148494 0.3362584
vt2 0.896859 0.01410256
vt2 0.8971738 0.01271074
vt2 0.8897013 0.138776
vt2 0.8903592 0.1375179
vt2 0.8986667 0.06267594
vt2 0.8990051 0.06128983
vt2 0.00390625 0.1085732
vt2 0.004639192 0.1097975
vt2 0.02844636 0.334233
vt2 0.02899515 0.3355258
vt2 0.0295841 0.3369439
vt2 0.9346045 0.02770532
vt2 0.9353155 0.02646815
vt2 0.9197928 0.1656501
vt2 0.9211118 0.1651247
vt2 0.9375181 0.07735974
vt2 0.9383665 0.07621241
vt2 0.9905424 0.00392613
vt2 0.990289 0.005330365
vt2 0.9607567 0.00390625
vt2 0.9608468 0.005330365
vt2 0.007057272 0.3555198
vt2 0.008300883 0.3561276
vt2 0.009564365 0.3568625
vt2 0.9558642 0.04526011
vt2 0.9568505 0.04422877
vt2 0.9177079 0.1933452
vt2 0.9190072 0.1938667
vt2 0.922536 0.164845
vt2 0.9203351 0.1944
vt2 0.8753902 0.8908247
vt2 0.8752482 0.8922635
vt2 0.8446997 0.8901497
vt2 0.8447502 0.8915946
vt2 0.00390625 0.3845545
vt2 0.005287234 0.384457
vt2 0.00390625 0.9745319
vt2 0.004738038 0.9733725
vt2 0.03154085 0.984472
vt2 0.03187166 0.983084
vt2 0.00390625 0.8207753
vt2 0.004379277 0.8194386
vt2 0.03028943 0.8319144
vt2 0.03093501 0.8306519
vt2 0.8996444 0.2158653
vt2 0.9005826 0.2169735
vt2 0.9015699 0.2179939
vt2 0.8065093 0.894134
vt2 0.8066347 0.895541
vt2 0.01355846 0.4208658
vt2 0.01486692 0.4204143
vt2 0.06966723 0.9886708
vt2 0.06976008 0.9872469
vt2 0.06290309 0.8511763
vt2 0.06366225 0.8499787
vt2 0.8658877 0.2352258
vt2 0.8665069 0.2365388
vt2 0.844392 0.8887717
vt2 0.8446997 0.8901497
vt2 0.8063847 0.8927339
vt2 0.8065093 0.894134
vt2 0.7605808 0.8978217
vt2 0.7606735 0.8992318
vt2 0.0316568 0.4625084
vt2 0.03291234 0.4619249
vt2 0.1163182 0.9893689
vt2 0.1163045 0.9879422
vt2 0.1013135 0.8769516
vt2 0.1021055 0.8757756
vt2 0.8216208 0.2521754
vt2 0.8221022 0.2535452
vt2 0.7604869 0.8963941
vt2 0.7605808 0.8978217
vt2 0.7091691 0.9005596
vt2 0.7092165 0.9019817
vt2 0.0539757 0.5073671
vt2 0.0552177 0.5067566
vt2 0.167903 0.9875086
vt2 0.1678269 0.9860836
vt2 0.143807 0.9055703
vt2 0.1445733 0.904377
vt2 0.7717267 0.2682595
vt2 0.7721778 0.2696391
vt2 0.7091215 0.8991238
vt2 0.7091691 0.9005596
vt2 0.6561998 0.9012324
vt2 0.6561753 0.9026685
vt2 0.0762784 0.5533257
vt2 0.07754389 0.5527652
vt2 0.2204908 0.9838024
vt2 0.2203716 0.9823804
vt2 0.1884497 0.9329004
vt2 0.1891303 0.9316565
vt2 0.720951 0.2850858
vt2 0.721457 0.2864464
vt2 0.6562244 0.8997956
vt2 0.6561998 0.9012324
vt2 0.6060489 0.8987236
vt2 0.6058583 0.9001471
vt2 0.09426402 0.5984266
vt2 0.09558735 0.5980194
vt2 0.2704878 0.979075
vt2 0.2703477 0.9776552
vt2 0.2332692 0.9547997
vt2 0.2337784 0.9534765
vt2 0.6738792 0.3044008
vt2 0.6745426 0.3056924
vt2 0.6061196 0.8973049
vt2 0.6060489 0.8987236
vt2 0.5622907 0.8887717
vt2 0.5618097 0.890125
vt2 0.1033325 0.6410111
vt2 0.1047151 0.6409462
vt2 0.3155222 0.9747972
vt2 0.3154426 0.9733725
vt2 0.2764313 0.9675752
vt2 0.2766558 0.9661751
vt2 0.6348936 0.3284092
vt2 0.6358573 0.3294947
vt2 0.9869161 0.04916636
vt2 0.9869273 0.05059305
vt2 0.9422727 0.04916636
vt2 0.8970357 0.8227258
vt2 0.85257 0.8208629
vt2 0.8525577 0.8194386
vt2 0.1018779 0.6410123
vt2 0.09647679 0.6812007
vt2 0.0978894 0.6816208
vt2 0.09926631 0.6820272
vt2 0.3561715 0.9747963
vt2 0.3563878 0.9733858
vt2 0.3170752 0.9694663
vt2 0.3170128 0.9680496
vt2 0.2769435 0.9647868
vt2 0.3167192 0.9666625
vt2 0.8125914 0.8211222
vt2 0.8128979 0.8225133
vt2 0.0773705 0.7193566
vt2 0.07860462 0.7199818
vt2 0.07983934 0.7207503
vt2 0.5618097 0.9079944
vt2 0.5619543 0.9065748
vt2 0.6027461 0.9194422
vt2 0.6032392 0.9181035
vt2 0.8314649 0.3348065
vt2 0.8317115 0.333401
vt2 0.8741035 0.3391999
vt2 0.8742211 0.3377777
vt2 0.3553516 0.9497883
vt2 0.3546074 0.9485813
vt2 0.7733122 0.8364758
vt2 0.7739548 0.8377467
vt2 0.05864168 0.7551038
vt2 0.7752736 0.8395391
vt2 0.7392973 0.8608587
vt2 0.7386102 0.8596033
vt2 0.05259754 0.753594
vt2 0.05375791 0.7544707
vt2 0.6405476 0.9373441
vt2 0.6410965 0.9360268
vt2 0.9158782 0.3422496
vt2 0.9159278 0.3408235
vt2 0.3884294 0.9246358
vt2 0.3875794 0.923501
vt2 0.7379146 0.8583601
vt2 0.7386102 0.8596033
vt2 0.7105483 0.8736979
vt2 0.7110975 0.8750156
vt2 0.03343608 0.7794942
vt2 0.03461759 0.7803423
vt2 0.6702233 0.9481269
vt2 0.6706073 0.9467525
vt2 0.9472775 0.3421777
vt2 0.9471874 0.3407536
vt2 0.413446 0.9062216
vt2 0.4126239 0.9050663
vt2 0.7100011 0.8723873
vt2 0.7105483 0.8736979
vt2 0.6885055 0.8812253
vt2 0.6888117 0.8826132
vt2 0.01971337 0.799353
vt2 0.02092998 0.8001501
vt2 0.693408 0.9526466
vt2 0.6935119 0.9512236
vt2 0.9704244 0.3392049
vt2 0.9701126 0.3378123
vt2 0.4323208 0.8931354
vt2 0.4315487 0.8919461
vt2 0.6881986 0.8798388
vt2 0.6885055 0.8812253
vt2 0.6704957 0.8834433
vt2 0.6705093 0.8848654
vt2 0.01002646 0.8155323
vt2 0.7117484 0.9514828
vt2 0.711904 0.9529012
vt2 0.7114515 0.9500872
vt2 0.9874371 0.333401
vt2 0.4480291 0.8833063
vt2 0.448817 0.8845437
vt2 0.4472141 0.8820342
vt2 0.670568 0.8820112
vt2 0.6704957 0.8834433
vt2 0.654233 0.8838663
vt2 0.7275736 0.9483197
vt2 0.7279471 0.9496968
vt2 0.8314649 0.3546286
vt2 0.8470955 0.3580675
vt2 0.8468077 0.3594604
vt2 0.7259442 0.9439794
vt2 0.4615469 0.87356
vt2 0.4623447 0.8748355
vt2 0.4607759 0.8723193
vt2 0.6545116 0.8805157
vt2 0.6549897 0.8791637
vt2 0.9574123 0.3461559
vt2 0.9415478 0.3499898
vt2 0.9414232 0.3485683
vt2 0.743139 0.9426267
vt2 0.863488 0.3594384
vt2 0.8634567 0.3608784
vt2 0.8635193 0.3579981
vt2 0.4762018 0.865208
vt2 0.4755332 0.8639516
vt2 0.6396477 0.8727792
vt2 0.6403865 0.8715504
vt2 0.9247963 0.3507224
vt2 0.9247649 0.3492959
vt2 0.7279471 0.9496968
vt2 0.743139 0.9426267
vt2 0.7436956 0.9439406
vt2 0.8822383 0.3601319
vt2 0.8821747 0.3587084
vt2 0.8821111 0.3572712
vt2 0.4926904 0.8570606
vt2 0.4920778 0.8557761
vt2 0.6250773 0.860999
vt2 0.6242331 0.8621581
vt2 0.9061377 0.3492859
vt2 0.9061064 0.3507125
vt2 0.7605308 0.9358233
vt2 0.7599169 0.9345354
vt2 0.9035811 0.35881
vt2 0.9035079 0.3573928
vt2 0.9034348 0.3559653
vt2 0.511947 0.8479185
vt2 0.5113092 0.8466462
vt2 0.6079177 0.8481309
vt2 0.6070761 0.8492919
vt2 0.8848084 0.3486193
vt2 0.8847522 0.3500451
vt2 0.7797468 0.9264857
vt2 0.7791584 0.9251859
vt2 0.9280842 0.3576795
vt2 0.9280481 0.3562586
vt2 0.928012 0.3548418
vt2 0.5337613 0.8362728
vt2 0.5330397 0.8350462
vt2 0.5875323 0.8339759
vt2 0.5867614 0.8351848
vt2 0.860221 0.3475496
vt2 0.8601541 0.3489749
vt2 0.8024052 0.916852
vt2 0.8019052 0.9155157
vt2 0.9567507 0.3574896
vt2 0.9567413 0.3560496
vt2 0.9567313 0.3546286
vt2 0.5579035 0.8206333
vt2 0.5571303 0.8194386
vt2 0.5625312 0.8194386
vt2 0.5618097 0.8206781
vt2 0.8315349 0.3461559
vt2 0.8314649 0.347581
vt2 0.8297078 0.9079311
vt2 0.8292652 0.9065748


vc 1 1 1 1
vc 1 1 1 1
vc 1 1 1 1
vc 1 1 1 1
vc 1 1 1 1
vc 1 1 1 1
vc 1 1 1 1
vc 1 1 1 1
vc 1 1 1 1
vc 1 1 1 1
vc 1 1 1 1
vc 1 1 1 1
vc 1 1 1 1
vc 1 1 1 1
vc 1 1 1 1
vc 1 1 1 1
vc 1 1 1 1
vc 1 1 1 1
vc 1 1 1 1
vc 1 1 1 1
vc 1 1 1 1
vc 1 1 1 1
vc 1 1 1 1
vc 1 1 1 1
vc 1 1 1 1
vc 1 1 1 1
vc 1 1 1 1
vc 1 1 1 1
vc 1 1 1 1
vc 1 1 1 1
vc 1 1 1 1
vc 1 1 1 1
vc 1 1 1 1
vc 1 1 1 1
vc 1 1 1 1
vc 1 1 1 1
vc 1 1 1 1
vc 1 1 1 1
vc 1 1 1 1
vc 1 1 1 1
vc 1 1 1 1
vc 1 1 1 1
vc 1 1 1 1
vc 1 1 1 1
vc 1 1 1 1
vc 1 1 1 1
vc 1 1 1 1
vc 1 1 1 1
vc 1 1 1 1
vc 1 1 1 1
vc 1 1 1 1
vc 1 1 1 1
vc 1 1 1 1
vc 1 1 1 1
vc 1 1 1 1
vc 1 1 1 1
vc 1 1 1 1
vc 1 1 1 1
vc 1 1 1 1
vc 1 1 1 1
vc 1 1 1 1
vc 1 1 1 1
vc 1 1 1 1
vc 1 1 1 1
vc 1 1 1 1
vc 1 1 1 1
vc 1 1 1 1
vc 1 1 1 1
vc 1 1 1 1
vc 1 1 1 1
vc 1 1 1 1
vc 1 1 1 1
vc 1 1 1 1
vc 1 1 1 1
vc 1 1 1 1
vc 1 1 1 1
vc 1 1 1 1
vc 1 1 1 1
vc 1 1 1 1
vc 1 1 1 1
vc 1 1 1 1
vc 1 1 1 1
vc 1 1 1 1
vc 1 1 1 1
vc 1 1 1 1
vc 1 1 1 1
vc 1 1 1 1
vc 1 1 1 1
vc 1 1 1 1
vc 1 1 1 1
vc 1 1 1 1
vc 1 1 1 1
vc 1 1 1 1
vc 1 1 1 1
vc 1 1 1 1
vc 1 1 1 1
vc 1 1 1 1
vc 1 1 1 1
vc 1 1 1 1
vc 1 1 1 1
vc 1 1 1 1
vc 1 1 1 1
vc 1 1 1 1
vc 1 1 1 1
vc 1 1 1 1
vc 1 1 1 1
vc 1 1 1 1
vc 1 1 1 1
vc 1 1 1 1
vc 1 1 1 1
vc 1 1 1 1
vc 1 1 1 1
vc 1 1 1 1
vc 1 1 1 1
vc 1 1 1 1
vc 1 1 1 1
vc 1 1 1 1
vc 1 1 1 1
vc 1 1 1 1
vc 1 1 1 1
vc 1 1 1 1
vc 1 1 1 1
vc 1 1 1 1
vc 1 1 1 1
vc 1 1 1 1
vc 1 1 1 1
vc 1 1 1 1
vc 1 1 1 1
vc 1 1 1 1
vc 1 1 1 1
vc 1 1 1 1
vc 1 1 1 1
vc 1 1 1 1
vc 1 1 1 1
vc 1 1 1 1
vc 1 1 1 1
vc 1 1 1 1
vc 1 1 1 1
vc 1 1 1 1
vc 1 1 1 1
vc 1 1 1 1
vc 1 1 1 1
vc 1 1 1 1
vc 1 1 1 1
vc 1 1 1 1
vc 1 1 1 1
vc 1 1 1 1
vc 1 1 1 1
vc 1 1 1 1
vc 1 1 1 1
vc 1 1 1 1
vc 1 1 1 1
vc 1 1 1 1
vc 1 1 1 1
vc 1 1 1 1
vc 1 1 1 1
vc 1 1 1 1
vc 1 1 1 1
vc 1 1 1 1
vc 1 1 1 1
vc 1 1 1 1
vc 1 1 1 1
vc 1 1 1 1
vc 1 1 1 1
vc 1 1 1 1
vc 1 1 1 1
vc 1 1 1 1
vc 1 1 1 1
vc 1 1 1 1
vc 1 1 1 1
vc 1 1 1 1
vc 1 1 1 1
vc 1 1 1 1
vc 1 1 1 1
vc 1 1 1 1
vc 1 1 1 1
vc 1 1 1 1
vc 1 1 1 1
vc 1 1 1 1
vc 1 1 1 1
vc 1 1 1 1
vc 1 1 1 1
vc 1 1 1 1
vc 1 1 1 1
vc 1 1 1 1
vc 1 1 1 1
vc 1 1 1 1
vc 1 1 1 1
vc 1 1 1 1
vc 1 1 1 1
vc 1 1 1 1
vc 1 1 1 1
vc 1 1 1 1
vc 1 1 1 1
vc 1 1 1 1
vc 1 1 1 1
vc 1 1 1 1
vc 1 1 1 1
vc 1 1 1 1
vc 1 1 1 1
vc 1 1 1 1
vc 1 1 1 1
vc 1 1 1 1
vc 1 1 1 1
vc 1 1 1 1
vc 1 1 1 1
vc 1 1 1 1
vc 1 1 1 1
vc 1 1 1 1
vc 1 1 1 1
vc 1 1 1 1
vc 1 1 1 1
vc 1 1 1 1
vc 1 1 1 1
vc 1 1 1 1
vc 1 1 1 1
vc 1 1 1 1
vc 1 1 1 1
vc 1 1 1 1
vc 1 1 1 1
vc 1 1 1 1
vc 1 1 1 1
vc 1 1 1 1
vc 1 1 1 1
vc 1 1 1 1
vc 1 1 1 1
vc 1 1 1 1
vc 1 1 1 1
vc 1 1 1 1
vc 1 1 1 1
vc 1 1 1 1
vc 1 1 1 1
vc 1 1 1 1
vc 1 1 1 1
vc 1 1 1 1
vc 1 1 1 1
vc 1 1 1 1
vc 1 1 1 1
vc 1 1 1 1
vc 1 1 1 1
vc 1 1 1 1
vc 1 1 1 1
vc 1 1 1 1
vc 1 1 1 1
vc 1 1 1 1
vc 1 1 1 1
vc 1 1 1 1
vc 1 1 1 1
vc 1 1 1 1
vc 1 1 1 1
vc 1 1 1 1
vc 1 1 1 1
vc 1 1 1 1
vc 1 1 1 1
vc 1 1 1 1
vc 1 1 1 1
vc 1 1 1 1
vc 1 1 1 1
vc 1 1 1 1
vc 1 1 1 1
vc 1 1 1 1
vc 1 1 1 1
vc 1 1 1 1
vc 1 1 1 1
vc 1 1 1 1
vc 1 1 1 1
vc 1 1 1 1
vc 1 1 1 1
vc 1 1 1 1
vc 1 1 1 1
vc 1 1 1 1
vc 1 1 1 1
vc 1 1 1 1
vc 1 1 1 1
vc 1 1 1 1
vc 1 1 1 1
vc 1 1 1 1
vc 1 1 1 1
vc 1 1 1 1
vc 1 1 1 1
vc 1 1 1 1
vc 1 1 1 1
vc 1 1 1 1
vc 1 1 1 1
vc 1 1 1 1
vc 1 1 1 1
vc 1 1 1 1
vc 1 1 1 1
vc 1 1 1 1
vc 1 1 1 1
vc 1 1 1 1
vc 1 1 1 1
vc 1 1 1 1
vc 1 1 1 1
vc 1 1 1 1
vc 1 1 1 1
vc 1 1 1 1
vc 1 1 1 1
vc 1 1 1 1
vc 1 1 1 1
vc 1 1 1 1
vc 1 1 1 1
vc 1 1 1 1
vc 1 1 1 1
vc 1 1 1 1
vc 1 1 1 1
vc 1 1 1 1
vc 1 1 1 1
vc 1 1 1 1
vc 1 1 1 1
vc 1 1 1 1
vc 1 1 1 1
vc 1 1 1 1
vc 1 1 1 1
vc 1 1 1 1
vc 1 1 1 1
vc 1 1 1 1
vc 1 1 1 1
vc 1 1 1 1
vc 1 1 1 1
vc 1 1 1 1
vc 1 1 1 1
vc 1 1 1 1
vc 1 1 1 1
vc 1 1 1 1
vc 1 1 1 1
vc 1 1 1 1
vc 1 1 1 1
vc 1 1 1 1
vc 1 1 1 1
vc 1 1 1 1
vc 1 1 1 1
vc 1 1 1 1
vc 1 1 1 1
vc 1 1 1 1
vc 1 1 1 1
vc 1 1 1 1
vc 1 1 1 1
vc 1 1 1 1
vc 1 1 1 1
vc 1 1 1 1
vc 1 1 1 1
vc 1 1 1 1
vc 1 1 1 1
vc 1 1 1 1
vc 1 1 1 1
vc 1 1 1 1
vc 1 1 1 1
vc 1 1 1 1
vc 1 1 1 1
vc 1 1 1 1
vc 1 1 1 1
vc 1 1 1 1
vc 1 1 1 1
vc 1 1 1 1
vc 1 1 1 1
vc 1 1 1 1
vc 1 1 1 1
vc 1 1 1 1
vc 1 1 1 1
vc 1 1 1 1
vc 1 1 1 1
vc 1 1 1 1
vc 1 1 1 1
vc 1 1 1 1
vc 1 1 1 1
vc 1 1 1 1
vc 1 1 1 1
vc 1 1 1 1
vc 1 1 1 1
vc 1 1 1 1
vc 1 1 1 1
vc 1 1 1 1
vc 1 1 1 1
vc 1 1 1 1
vc 1 1 1 1
vc 1 1 1 1
vc 1 1 1 1

usemtl LunetteO2
usemap LunetteO2
f 3/3/3 2/2/2 1/1/1
f 3/3/3 4/4/4 2/2/2
f 7/7/7 6/6/6 5/5/5
f 7/7/7 8/8/8 6/6/6
f 8/8/8 9/9/9 6/6/6
f 8/8/8 10/10/10 9/9/9
f 13/13/13 12/12/12 11/11/11
f 13/13/13 14/14/14 12/12/12
f 17/17/17 16/16/16 15/15/15
f 17/17/17 18/18/18 16/16/16
f 21/21/21 20/20/20 19/19/19
f 21/21/21 22/22/22 20/20/20
f 23/23/23 4/4/4 3/3/3
f 23/23/23 24/24/24 4/4/4
f 25/25/25 8/8/8 7/7/7
f 25/25/25 26/26/26 8/8/8
f 26/26/26 10/10/10 8/8/8
f 26/26/26 27/27/27 10/10/10
f 28/28/28 14/14/14 13/13/13
f 28/28/28 29/29/29 14/14/14
f 30/30/30 18/18/18 17/17/17
f 30/30/30 31/31/31 18/18/18
f 32/32/32 22/22/22 21/21/21
f 32/32/32 33/33/33 22/22/22
f 34/34/34 24/24/24 23/23/23
f 34/34/34 35/35/35 24/24/24
f 36/36/36 26/26/26 25/25/25
f 36/36/36 37/37/37 26/26/26
f 37/37/37 27/27/27 26/26/26
f 37/37/37 38/38/38 27/27/27
f 39/39/39 29/29/29 28/28/28
f 39/39/39 40/40/40 29/29/29
f 41/41/41 31/31/31 30/30/30
f 41/41/41 42/42/42 31/31/31
f 43/43/43 33/33/33 32/32/32
f 43/43/43 44/44/44 33/33/33
f 45/45/45 35/35/35 34/34/34
f 45/45/45 46/46/46 35/35/35
f 47/47/47 37/37/37 36/36/36
f 47/47/47 48/48/48 37/37/37
f 48/48/48 38/38/38 37/37/37
f 48/48/48 49/49/49 38/38/38
f 50/50/50 40/40/40 39/39/39
f 50/50/50 51/51/51 40/40/40
f 52/52/52 42/42/42 41/41/41
f 52/52/52 53/53/53 42/42/42
f 54/54/54 44/44/44 43/43/43
f 54/54/54 55/55/55 44/44/44
f 56/56/56 46/46/46 45/45/45
f 56/56/56 57/57/57 46/46/46
f 58/58/58 48/48/48 47/47/47
f 58/58/58 59/59/59 48/48/48
f 59/59/59 49/49/49 48/48/48
f 59/59/59 60/60/60 49/49/49
f 61/61/61 51/51/51 50/50/50
f 61/61/61 62/62/62 51/51/51
f 63/63/63 53/53/53 52/52/52
f 63/63/63 64/64/64 53/53/53
f 65/65/65 55/55/55 54/54/54
f 65/65/65 66/66/66 55/55/55
f 67/67/67 57/57/57 56/56/56
f 67/67/67 68/68/68 57/57/57
f 69/69/69 59/59/59 58/58/58
f 69/69/69 70/70/70 59/59/59
f 70/70/70 60/60/60 59/59/59
f 70/70/70 71/71/71 60/60/60
f 72/72/72 62/62/62 61/61/61
f 72/72/72 73/73/73 62/62/62
f 74/74/74 64/64/64 63/63/63
f 74/74/74 75/75/75 64/64/64
f 76/76/76 66/66/66 65/65/65
f 76/76/76 77/77/77 66/66/66
f 78/78/78 68/68/68 67/67/67
f 78/78/78 79/79/79 68/68/68
f 80/80/80 70/70/70 69/69/69
f 80/80/80 81/81/81 70/70/70
f 81/81/81 71/71/71 70/70/70
f 81/81/81 82/82/82 71/71/71
f 83/83/83 73/73/73 72/72/72
f 83/83/83 84/84/84 73/73/73
f 85/85/85 75/75/75 74/74/74
f 85/85/85 86/86/86 75/75/75
f 87/87/87 77/77/77 76/76/76
f 87/87/87 88/88/88 77/77/77
f 89/89/89 79/79/79 78/78/78
f 89/89/89 90/90/90 79/79/79
f 91/91/91 81/81/81 80/80/80
f 91/91/91 92/92/92 81/81/81
f 92/92/92 82/82/82 81/81/81
f 92/92/92 93/93/93 82/82/82
f 94/94/94 84/84/84 83/83/83
f 94/94/94 95/95/95 84/84/84
f 96/96/96 86/86/86 85/85/85
f 96/96/96 97/97/97 86/86/86
f 98/98/98 88/88/88 87/87/87
f 98/98/98 99/99/99 88/88/88
f 100/100/100 90/90/90 89/89/89
f 100/100/100 101/101/101 90/90/90
f 102/102/102 92/92/92 91/91/91
f 102/102/102 103/103/103 92/92/92
f 103/103/103 93/93/93 92/92/92
f 103/103/103 104/104/104 93/93/93
f 105/105/105 95/95/95 94/94/94
f 105/105/105 106/106/106 95/95/95
f 107/107/107 97/97/97 96/96/96
f 107/107/107 108/108/108 97/97/97
f 109/109/109 99/99/99 98/98/98
f 109/109/109 110/110/110 99/99/99
f 111/111/111 101/101/101 100/100/100
f 111/111/111 112/112/112 101/101/101
f 113/113/113 103/103/103 102/102/102
f 113/113/113 114/114/114 103/103/103
f 114/114/114 104/104/104 103/103/103
f 114/114/114 115/115/115 104/104/104
f 116/116/116 106/106/106 105/105/105
f 116/116/116 117/117/117 106/106/106
f 118/118/118 108/108/108 107/107/107
f 118/118/118 119/119/119 108/108/108
f 120/120/120 110/110/110 109/109/109
f 120/120/120 121/121/121 110/110/110
f 124/124/124 123/123/123 122/122/122
f 124/124/124 125/125/125 123/123/123
f 126/126/126 114/114/114 113/113/113
f 126/126/126 127/127/127 114/114/114
f 127/127/127 115/115/115 114/114/114
f 127/127/127 128/128/128 115/115/115
f 129/129/129 117/117/117 116/116/116
f 129/129/129 130/130/130 117/117/117
f 131/131/131 119/119/119 118/118/118
f 131/131/131 132/132/132 119/119/119
f 132/132/132 133/133/133 119/119/119
f 132/132/132 134/134/134 133/133/133
f 137/137/137 136/136/136 135/135/135
f 137/137/137 138/138/138 136/136/136
f 139/139/139 127/127/127 126/126/126
f 139/139/139 140/140/140 127/127/127
f 143/143/143 142/142/142 141/141/141
f 143/143/143 144/144/144 142/142/142
f 147/147/147 146/146/146 145/145/145
f 147/147/147 148/148/148 146/146/146
f 149/149/149 132/132/132 131/131/131
f 149/149/149 150/150/150 132/132/132
f 150/150/150 134/134/134 132/132/132
f 150/150/150 151/151/151 134/134/134
f 152/152/152 138/138/138 137/137/137
f 152/152/152 153/153/153 138/138/138
f 154/154/154 140/140/140 139/139/139
f 154/154/154 155/155/155 140/140/140
f 156/156/156 144/144/144 143/143/143
f 156/156/156 157/157/157 144/144/144
f 158/158/158 148/148/148 147/147/147
f 158/158/158 159/159/159 148/148/148
f 160/160/160 150/150/150 149/149/149
f 160/160/160 161/161/161 150/150/150
f 164/164/164 163/163/163 162/162/162
f 164/164/164 165/165/165 163/163/163
f 166/166/166 153/153/153 152/152/152
f 166/166/166 167/167/167 153/153/153
f 168/168/168 155/155/155 154/154/154
f 168/168/168 169/169/169 155/155/155
f 170/170/170 157/157/157 156/156/156
f 170/170/170 171/171/171 157/157/157
f 172/172/172 159/159/159 158/158/158
f 172/172/172 173/173/173 159/159/159
f 174/174/174 161/161/161 160/160/160
f 174/174/174 175/175/175 161/161/161
f 176/176/176 165/165/165 164/164/164
f 176/176/176 177/177/177 165/165/165
f 178/178/178 167/167/167 166/166/166
f 178/178/178 179/179/179 167/167/167
f 180/180/180 169/169/169 168/168/168
f 180/180/180 181/181/181 169/169/169
f 182/182/182 171/171/171 170/170/170
f 182/182/182 183/183/183 171/171/171
f 184/184/184 173/173/173 172/172/172
f 184/184/184 185/185/185 173/173/173
f 186/186/186 175/175/175 174/174/174
f 186/186/186 187/187/187 175/175/175
f 188/188/188 177/177/177 176/176/176
f 188/188/188 189/189/189 177/177/177
f 190/190/190 179/179/179 178/178/178
f 190/190/190 191/191/191 179/179/179
f 192/192/192 181/181/181 180/180/180
f 192/192/192 193/193/193 181/181/181
f 194/194/194 183/183/183 182/182/182
f 194/194/194 195/195/195 183/183/183
f 196/196/196 185/185/185 184/184/184
f 196/196/196 197/197/197 185/185/185
f 198/198/198 187/187/187 186/186/186
f 198/198/198 199/199/199 187/187/187
f 200/200/200 189/189/189 188/188/188
f 200/200/200 201/201/201 189/189/189
f 202/202/202 191/191/191 190/190/190
f 202/202/202 203/203/203 191/191/191
f 204/204/204 193/193/193 192/192/192
f 204/204/204 205/205/205 193/193/193
f 206/206/206 195/195/195 194/194/194
f 206/206/206 207/207/207 195/195/195
f 208/208/208 197/197/197 196/196/196
f 208/208/208 209/209/209 197/197/197
f 210/210/210 199/199/199 198/198/198
f 210/210/210 211/211/211 199/199/199
f 212/212/212 201/201/201 200/200/200
f 212/212/212 213/213/213 201/201/201
f 214/214/214 203/203/203 202/202/202
f 214/214/214 215/215/215 203/203/203
f 216/216/216 205/205/205 204/204/204
f 216/216/216 217/217/217 205/205/205
f 218/218/218 207/207/207 206/206/206
f 218/218/218 219/219/219 207/207/207
f 220/220/220 209/209/209 208/208/208
f 220/220/220 221/221/221 209/209/209
f 222/222/222 211/211/211 210/210/210
f 222/222/222 223/223/223 211/211/211
f 226/226/226 225/225/225 224/224/224
f 229/229/229 228/228/228 227/227/227
f 231/231/231 216/216/216 230/230/230
f 231/231/231 232/232/232 216/216/216
f 232/232/232 217/217/217 216/216/216
f 232/232/232 233/233/233 217/217/217
f 234/234/234 219/219/219 218/218/218
f 234/234/234 235/235/235 219/219/219
f 236/236/236 221/221/221 220/220/220
f 236/236/236 237/237/237 221/221/221
f 237/237/237 238/238/238 221/221/221
f 237/237/237 239/239/239 238/238/238
f 240/240/240 228/228/228 229/229/229
f 240/240/240 241/241/241 228/228/228
f 242/242/242 232/232/232 231/231/231
f 242/242/242 243/243/243 232/232/232
f 243/243/243 233/233/233 232/232/232
f 243/243/243 244/244/244 233/233/233
f 247/247/247 246/246/246 245/245/245
f 247/247/247 248/248/248 246/246/246
f 251/251/251 250/250/250 249/249/249
f 251/251/251 252/252/252 250/250/250
f 253/253/253 239/239/239 237/237/237
f 253/253/253 254/254/254 239/239/239
f 255/255/255 241/241/241 240/240/240
f 255/255/255 256/256/256 241/241/241
f 257/257/257 243/243/243 242/242/242
f 260/260/260 259/259/259 258/258/258
f 261/261/261 244/244/244 243/243/243
f 261/261/261 262/262/262 244/244/244
f 263/263/263 248/248/248 247/247/247
f 263/263/263 264/264/264 248/248/248
f 265/265/265 252/252/252 251/251/251
f 265/265/265 266/266/266 252/252/252
f 267/267/267 254/254/254 253/253/253
f 267/267/267 268/268/268 254/254/254
f 269/269/269 256/256/256 255/255/255
f 269/269/269 270/270/270 256/256/256
f 271/271/271 259/259/259 260/260/260
f 271/271/271 272/272/272 259/259/259
f 273/273/273 262/262/262 261/261/261
f 273/273/273 274/274/274 262/262/262
f 275/275/275 264/264/264 263/263/263
f 275/275/275 276/276/276 264/264/264
f 277/277/277 266/266/266 265/265/265
f 277/277/277 278/278/278 266/266/266
f 279/279/279 268/268/268 267/267/267
f 279/279/279 280/280/280 268/268/268
f 281/281/281 270/270/270 269/269/269
f 281/281/281 282/282/282 270/270/270
f 283/283/283 272/272/272 271/271/271
f 283/283/283 284/284/284 272/272/272
f 285/285/285 274/274/274 273/273/273
f 285/285/285 286/286/286 274/274/274
f 287/287/287 276/276/276 275/275/275
f 287/287/287 288/288/288 276/276/276
f 289/289/289 278/278/278 277/277/277
f 289/289/289 290/290/290 278/278/278
f 291/291/291 280/280/280 279/279/279
f 291/291/291 292/292/292 280/280/280
f 293/293/293 282/282/282 281/281/281
f 293/293/293 294/294/294 282/282/282
f 295/295/295 284/284/284 283/283/283
f 295/295/295 296/296/296 284/284/284
f 297/297/297 286/286/286 285/285/285
f 299/299/299 298/298/298 287/287/287
f 298/298/298 288/288/288 287/287/287
f 298/298/298 300/300/300 288/288/288
f 301/301/301 290/290/290 289/289/289
f 303/303/303 302/302/302 291/291/291
f 302/302/302 292/292/292 291/291/291
f 302/302/302 304/304/304 292/292/292
f 305/305/305 294/294/294 293/293/293
f 305/305/305 306/306/306 294/294/294
f 307/307/307 296/296/296 295/295/295
f 309/309/309 308/308/308 299/299/299
f 308/308/308 298/298/298 299/299/299
f 312/312/312 311/311/311 310/310/310
f 313/313/313 300/300/300 298/298/298
f 315/315/315 314/314/314 303/303/303
f 314/314/314 302/302/302 303/303/303
f 314/314/314 316/316/316 302/302/302
f 316/316/316 304/304/304 302/302/302
f 318/318/318 317/317/317 305/305/305
f 317/317/317 306/306/306 305/305/305
f 321/321/321 320/320/320 319/319/319
f 322/322/322 308/308/308 309/309/309
f 324/324/324 323/323/323 312/312/312
f 323/323/323 311/311/311 312/312/312
f 323/323/323 325/325/325 311/311/311
f 326/326/326 314/314/314 315/315/315
f 326/326/326 327/327/327 314/314/314
f 327/327/327 316/316/316 314/314/314
f 329/329/329 328/328/328 318/318/318
f 328/328/328 317/317/317 318/318/318
f 331/331/331 330/330/330 321/321/321
f 330/330/330 320/320/320 321/321/321
f 334/334/334 333/333/333 332/332/332
f 335/335/335 323/323/323 324/324/324
f 335/335/335 336/336/336 323/323/323
f 336/336/336 325/325/325 323/323/323
f 336/336/336 337/337/337 325/325/325
f 338/338/338 327/327/327 326/326/326
f 338/338/338 339/339/339 327/327/327
f 340/340/340 328/328/328 329/329/329
f 340/340/340 341/341/341 328/328/328
f 342/342/342 330/330/330 331/331/331
f 342/342/342 343/343/343 330/330/330
f 344/344/344 333/333/333 334/334/334
f 344/344/344 345/345/345 333/333/333
f 346/346/346 336/336/336 335/335/335
f 346/346/346 347/347/347 336/336/336
f 347/347/347 337/337/337 336/336/336
f 347/347/347 348/348/348 337/337/337
f 349/349/349 339/339/339 338/338/338
f 349/349/349 350/350/350 339/339/339
f 351/351/351 341/341/341 340/340/340
f 351/351/351 352/352/352 341/341/341
f 353/353/353 343/343/343 342/342/342
f 353/353/353 354/354/354 343/343/343
f 355/355/355 345/345/345 344/344/344
f 355/355/355 356/356/356 345/345/345
f 357/357/357 347/347/347 346/346/346
f 357/357/357 358/358/358 347/347/347
f 358/358/358 348/348/348 347/347/347
f 358/358/358 359/359/359 348/348/348
f 360/360/360 350/350/350 349/349/349
f 360/360/360 361/361/361 350/350/350
f 362/362/362 352/352/352 351/351/351
f 362/362/362 363/363/363 352/352/352
f 364/364/364 354/354/354 353/353/353
f 364/364/364 365/365/365 354/354/354
f 366/366/366 356/356/356 355/355/355
f 366/366/366 367/367/367 356/356/356
f 368/368/368 358/358/358 357/357/357
f 368/368/368 369/369/369 358/358/358
f 369/369/369 359/359/359 358/358/358
f 369/369/369 370/370/370 359/359/359
f 371/371/371 361/361/361 360/360/360
f 371/371/371 372/372/372 361/361/361
f 373/373/373 363/363/363 362/362/362
f 373/373/373 374/374/374 363/363/363
f 375/375/375 365/365/365 364/364/364
f 375/375/375 376/376/376 365/365/365
f 377/377/377 367/367/367 366/366/366
f 377/377/377 378/378/378 367/367/367
