g tube
v -2.265435 1.761582 -2.977319
v -2.269262 1.760866 -2.978237
v -2.264854 1.762301 -2.981226
v -2.268633 1.761346 -2.982123
v -2.270447 1.757146 -2.979106
v -2.269615 1.757537 -2.98285
v -2.270447 1.757146 -2.979106
v -2.267806 1.754142 -2.979058
v -2.269615 1.757537 -2.98285
v -2.266817 1.754683 -2.98268
v -2.263979 1.754859 -2.97814
v -2.263038 1.755638 -2.981783
v -2.263979 1.754859 -2.97814
v -2.262794 1.758579 -2.977271
v -2.263038 1.755638 -2.981783
v -2.262057 1.759447 -2.981055
v -2.262794 1.758579 -2.977271
v -2.265435 1.761582 -2.977319
v -2.262057 1.759447 -2.981055
v -2.264854 1.762301 -2.981226
v -2.26312 1.7635 -2.991513
v -2.26684 1.762257 -2.992296
v -2.267599 1.758351 -2.992707
v -2.267599 1.758351 -2.992707
v -2.264637 1.755689 -2.992337
v -2.260916 1.756932 -2.991554
v -2.260916 1.756932 -2.991554
v -2.260158 1.760838 -2.991142
v -2.260158 1.760838 -2.991142
v -2.26312 1.7635 -2.991513
v -2.260825 1.763958 -3.006157
v -2.264473 1.762414 -3.006713
v -2.264993 1.758448 -3.006675
v -2.264993 1.758448 -3.006675
v -2.261865 1.756026 -3.006081
v -2.258218 1.75757 -3.005525
v -2.258218 1.75757 -3.005525
v -2.257698 1.761536 -3.005563
v -2.257698 1.761536 -3.005563
v -2.260825 1.763958 -3.006157
v -2.258566 1.762438 -3.023227
v -2.262127 1.760622 -3.023374
v -2.262395 1.756688 -3.0227
v -2.262395 1.756688 -3.0227
v -2.259102 1.754571 -3.021879
v -2.255541 1.756387 -3.021732
v -2.259102 1.754571 -3.021879
v -2.255273 1.760321 -3.022406
v -2.255273 1.760321 -3.022406
v -2.258566 1.762438 -3.023227
v -2.256927 1.75764 -3.040796
v -2.260388 1.755708 -3.040262
v -2.260402 1.752022 -3.038708
v -2.260402 1.752022 -3.038708
v -2.256954 1.750268 -3.037689
v -2.255541 1.756387 -3.021732
v -2.253493 1.752201 -3.038223
v -2.256954 1.750268 -3.037689
v -2.253479 1.755887 -3.039776
v -2.253479 1.755887 -3.039776
v -2.256927 1.75764 -3.040796
v -2.256436 1.747972 -3.057045
v -2.259809 1.746479 -3.055499
v -2.259635 1.743669 -3.052658
v -2.259635 1.743669 -3.052658
v -2.256088 1.742352 -3.051362
v -2.256954 1.750268 -3.037689
v -2.253493 1.752201 -3.038223
v -2.256088 1.742352 -3.051362
v -2.252714 1.743845 -3.052907
v -2.252714 1.743845 -3.052907
v -2.252888 1.746655 -3.055749
v -2.252888 1.746655 -3.055749
v -2.256436 1.747972 -3.057045
v -2.257606 1.727946 -3.068537
v -2.26095 1.727523 -3.066384
v -2.260736 1.726337 -3.06257
v -2.259635 1.743669 -3.052658
v -2.256088 1.742352 -3.051362
v -2.260736 1.726337 -3.06257
v -2.257178 1.725575 -3.060909
v -2.257178 1.725575 -3.060909
v -2.253834 1.725998 -3.063062
v -2.253834 1.725998 -3.063062
v -2.254048 1.727184 -3.066876
v -2.252888 1.746655 -3.055749
v -2.256436 1.747972 -3.057045
v -2.254048 1.727184 -3.066876
v -2.257606 1.727946 -3.068537
v -2.257606 1.727946 -3.068537
v -2.26095 1.727523 -3.066384
v -2.26098 1.683851 -3.071982
v -2.264338 1.684086 -3.069822
v -2.264338 1.684086 -3.069822
v -2.26416 1.683961 -3.065828
v -2.26416 1.683961 -3.065828
v -2.260623 1.683602 -3.063994
v -2.260623 1.683602 -3.063994
v -2.257265 1.683368 -3.066154
v -2.257265 1.683368 -3.066154
v -2.257443 1.683492 -3.070148
v -2.257443 1.683492 -3.070148
v -2.26098 1.683851 -3.071982
v -2.266952 1.620613 -3.07064
v -2.270326 1.621034 -3.068534
v -2.270326 1.621034 -3.068534
v -2.270189 1.621136 -3.064538
v -2.270189 1.621136 -3.064538
v -2.266678 1.620818 -3.062648
v -2.266678 1.620818 -3.062648
v -2.263304 1.620398 -3.064754
v -2.263304 1.620398 -3.064754
v -2.263441 1.620295 -3.06875
v -2.263441 1.620295 -3.06875
v -2.266952 1.620613 -3.07064
v -2.275849 1.544362 -3.067794
v -2.279235 1.544863 -3.065724
v -2.279235 1.544863 -3.065724
v -2.27914 1.544955 -3.061726
v -2.27914 1.544955 -3.061726
v -2.275659 1.544546 -3.059799
v -2.275659 1.544546 -3.059799
v -2.272273 1.544044 -3.061869
v -2.272273 1.544044 -3.061869
v -2.272369 1.543952 -3.065867
v -2.272369 1.543952 -3.065867
v -2.275849 1.544362 -3.067794
v -2.287992 1.46173 -3.06655
v -2.291381 1.462275 -3.064496
v -2.291381 1.462275 -3.064496
v -2.291327 1.462212 -3.060496
v -2.291327 1.462212 -3.060496
v -2.287885 1.461605 -3.058552
v -2.287885 1.461605 -3.058552
v -2.284496 1.46106 -3.060606
v -2.284496 1.46106 -3.060606
v -2.28455 1.461123 -3.064606
v -2.28455 1.461123 -3.064606
v -2.287992 1.46173 -3.06655
v -2.303663 1.379452 -3.069996
v -2.307058 1.380018 -3.067958
v -2.307058 1.380018 -3.067958
v -2.307084 1.37965 -3.063975
v -2.307084 1.37965 -3.063975
v -2.303715 1.378715 -3.06203
v -2.303715 1.378715 -3.06203
v -2.300321 1.378149 -3.064069
v -2.300321 1.378149 -3.064069
v -2.300295 1.378517 -3.068052
v -2.300295 1.378517 -3.068052
v -2.303663 1.379452 -3.069996
v -2.32315 1.302731 -3.081277
v -2.32665 1.303286 -3.079422
v -2.32665 1.303286 -3.079422
v -2.326948 1.302657 -3.075483
v -2.326948 1.302657 -3.075483
v -2.323746 1.301474 -3.073399
v -2.323746 1.301474 -3.073399
v -2.320246 1.300919 -3.075254
v -2.320246 1.300919 -3.075254
v -2.319948 1.301547 -3.079193
v -2.319948 1.301547 -3.079193
v -2.32315 1.302731 -3.081277
v -2.349104 1.197257 -3.103449
v -2.352786 1.197782 -3.101977
v -2.352786 1.197782 -3.101977
v -2.353505 1.197106 -3.0981
v -2.353505 1.197106 -3.0981
v -2.350541 1.195906 -3.095696
v -2.350541 1.195906 -3.095696
v -2.34686 1.195381 -3.097169
v -2.34686 1.195381 -3.097169
v -2.346141 1.196057 -3.101046
v -2.346141 1.196057 -3.101046
v -2.349104 1.197257 -3.103449
v -2.377451 1.059444 -3.134059
v -2.381283 1.059911 -3.133011
v -2.381283 1.059911 -3.133011
v -2.382416 1.059259 -3.12923
v -2.382416 1.059259 -3.12923
v -2.379717 1.05814 -3.126498
v -2.379717 1.05814 -3.126498
v -2.375885 1.057673 -3.127547
v -2.375885 1.057673 -3.127547
v -2.374753 1.058325 -3.131327
v -2.374753 1.058325 -3.131327
v -2.377451 1.059444 -3.134059
v -2.40124 0.9081849 -3.169095
v -2.405179 0.9085258 -3.16849
v -2.405179 0.9085258 -3.16849
v -2.406711 0.9078482 -3.164858
v -2.406711 0.9078482 -3.164858
v -2.404303 0.9068298 -3.16183
v -2.404303 0.9068298 -3.16183
v -2.400364 0.906489 -3.162435
v -2.400364 0.906489 -3.162435
v -2.398832 0.9071665 -3.166068
v -2.398832 0.9071665 -3.166068
v -2.40124 0.9081849 -3.169095
v -2.413524 0.762333 -3.204552
v -2.417521 0.7623777 -3.204421
v -2.417521 0.7623777 -3.204421
v -2.41942 0.7615457 -3.201001
v -2.41942 0.7615457 -3.201001
v -2.417322 0.7606692 -3.19771
v -2.417322 0.7606692 -3.19771
v -2.413324 0.7606246 -3.19784
v -2.413324 0.7606246 -3.19784
v -2.411425 0.7614565 -3.201261
v -2.411425 0.7614565 -3.201261
v -2.413524 0.762333 -3.204552
v -2.407405 0.6408959 -3.236367
v -2.411315 0.6401898 -3.236835
v -2.411315 0.6401898 -3.236835
v -2.41942 0.7615457 -3.201001
v -2.413486 0.6388409 -3.233759
v -2.413486 0.6388409 -3.233759
v -2.411748 0.6381981 -3.230214
v -2.411748 0.6381981 -3.230214
v -2.407839 0.6389042 -3.229745
v -2.407839 0.6389042 -3.229745
v -2.405668 0.6402531 -3.232822
v -2.405668 0.6402531 -3.232822
v -2.407405 0.6408959 -3.236367
v -2.376577 0.5632223 -3.260242
v -2.379387 0.5608191 -3.261768
v -2.381082 0.5580152 -3.259473
v -2.381082 0.5580152 -3.259473
v -2.379967 0.5576144 -3.255653
v -2.379967 0.5576144 -3.255653
v -2.377157 0.5600176 -3.254127
v -2.377157 0.5600176 -3.254127
v -2.375462 0.5628215 -3.256422
v -2.375462 0.5628215 -3.256422
v -2.376577 0.5632223 -3.260242
v -2.303957 0.5411875 -3.275867
v -2.304705 0.5389446 -3.279093
v -2.304911 0.534964 -3.278757
v -2.381082 0.5580152 -3.259473
v -2.379967 0.5576144 -3.255653
v -2.304911 0.534964 -3.278757
v -2.304368 0.5332263 -3.275196
v -2.304368 0.5332263 -3.275196
v -2.30362 0.5354692 -3.271969
v -2.375462 0.5628215 -3.256422
v -2.303414 0.5394498 -3.272305
v -2.375462 0.5628215 -3.256422
v -2.376577 0.5632223 -3.260242
v -2.303414 0.5394498 -3.272305
v -2.303957 0.5411875 -3.275867
v -2.303957 0.5411875 -3.275867
v -2.304705 0.5389446 -3.279093
v -2.176772 0.5622336 -3.291413
v -2.177088 0.5615829 -3.295347
v -2.177088 0.5615829 -3.295347
v -2.176384 0.557937 -3.296834
v -2.176384 0.557937 -3.296834
v -2.175364 0.5549418 -3.294388
v -2.30362 0.5354692 -3.271969
v -2.175047 0.5555925 -3.290454
v -2.175047 0.5555925 -3.290454
v -2.175751 0.5592384 -3.288967
v -2.175751 0.5592384 -3.288967
v -2.176772 0.5622336 -3.291413
v -2.018865 0.6122229 -3.307084
v -2.019395 0.6126133 -3.311029
v -2.019395 0.6126133 -3.311029
v -2.018546 0.6095622 -3.313473
v -2.018546 0.6095622 -3.313473
v -2.017168 0.6061208 -3.311971
v -2.016638 0.6057304 -3.308025
v -2.016638 0.6057304 -3.308025
v -2.017486 0.6087814 -3.305582
v -2.017486 0.6087814 -3.305582
v -2.018865 0.6122229 -3.307084
v -1.855617 0.6760958 -3.321506
v -1.85647 0.6773294 -3.325214
v -1.85647 0.6773294 -3.325214
v -1.855752 0.6749319 -3.328335
v -1.855752 0.6749319 -3.328335
v -2.017168 0.6061208 -3.311971
v -1.85418 0.671301 -3.327747
v -1.85418 0.671301 -3.327747
v -1.853327 0.6700675 -3.324039
v -1.853327 0.6700675 -3.324039
v -1.854046 0.6724649 -3.320918
v -2.017486 0.6087814 -3.305582
v -2.018865 0.6122229 -3.307084
v -1.854046 0.6724649 -3.320918
v -2.018865 0.6122229 -3.307084
v -1.855617 0.6760958 -3.321506
v -1.854046 0.6724649 -3.320918
v -1.712035 0.7385863 -3.33381
v -1.713236 0.740544 -3.337084
v -1.713236 0.740544 -3.337084
v -1.712807 0.7388644 -3.340689
v -1.711176 0.735227 -3.341019
v -1.711176 0.735227 -3.341019
v -1.709974 0.7332693 -3.337744
v -1.709974 0.7332693 -3.337744
v -1.854046 0.6724649 -3.320918
v -1.710404 0.7349489 -3.33414
v -1.710404 0.7349489 -3.33414
v -1.712035 0.7385863 -3.33381
v -1.613149 0.7848248 -3.343322
v -1.614653 0.7870897 -3.346256
v -1.614653 0.7870897 -3.346256
v -1.712807 0.7388644 -3.340689
v -1.61453 0.7858005 -3.350041
v -1.61453 0.7858005 -3.350041
v -1.612904 0.7822463 -3.350892
v -1.612904 0.7822463 -3.350892
v -1.6114 0.7799814 -3.347957
v -1.611523 0.7812706 -3.344173
v -1.611523 0.7812706 -3.344173
v -1.613149 0.7848248 -3.343322
v -1.577642 0.8031397 -3.349537
v -1.579367 0.8050345 -3.352609
v -1.579367 0.8033646 -3.356243
v -1.579367 0.8033646 -3.356243
v -1.577642 0.7997999 -3.356807
v -1.577642 0.7997999 -3.356807
v -1.575917 0.7979051 -3.353735
v -1.575917 0.799575 -3.3501
v -1.575917 0.799575 -3.3501
v -1.577642 0.8031397 -3.349537
v -1.562157 0.8122658 -3.354841
v -1.564099 0.8132808 -3.358187
v -1.564099 0.8108048 -3.361328
v -1.564099 0.8132808 -3.358187
v -1.562157 0.807314 -3.361124
v -1.562157 0.807314 -3.361124
v -1.560215 0.806299 -3.357778
v -1.560215 0.8087749 -3.354636
v -1.560215 0.8087749 -3.354636
v -1.562157 0.8122658 -3.354841
v -1.551476 0.8187559 -3.361501
v -1.553796 0.8184888 -3.364748
v -1.553796 0.8184888 -3.364748
v -1.553796 0.8151401 -3.366936
v -1.551476 0.8120586 -3.365876
v -1.551476 0.8120586 -3.365876
v -1.549157 0.8123257 -3.362628
v -1.549157 0.8156743 -3.360441
v -1.549157 0.8156743 -3.360441
v -1.551476 0.8187559 -3.361501
v -1.543296 0.822937 -3.37083
v -1.546066 0.8216498 -3.373413
v -1.546066 0.8216498 -3.373413
v -1.546066 0.8178324 -3.374608
v -1.543296 0.8153023 -3.37322
v -1.543296 0.8153023 -3.37322
v -1.540526 0.8165895 -3.370637
v -1.540526 0.8204069 -3.369442
v -1.540526 0.8165895 -3.370637
v -1.543296 0.822937 -3.37083
v -1.535312 0.8256728 -3.384084
v -1.538316 0.8239755 -3.386107
v -1.538316 0.8239755 -3.386107
v -1.538316 0.8200274 -3.386749
v -1.546066 0.8178324 -3.374608
v -1.538316 0.8200274 -3.386749
v -1.535312 0.8177765 -3.385368
v -1.532308 0.8194738 -3.383345
v -1.532308 0.8194738 -3.383345
v -1.532308 0.823422 -3.382703
v -1.543296 0.822937 -3.37083
v -1.535312 0.8256728 -3.384084
v -1.532308 0.823422 -3.382703
v -1.525221 0.8279946 -3.403075
v -1.528273 0.8261919 -3.404929
v -1.528273 0.8261919 -3.404929
v -1.528273 0.8222173 -3.405379
v -1.528273 0.8222173 -3.405379
v -1.525221 0.8200455 -3.403975
v -1.522169 0.8218482 -3.402121
v -1.522169 0.8218482 -3.402121
v -1.522169 0.8258227 -3.401671
v -1.522169 0.8258227 -3.401671
v -1.525221 0.8279946 -3.403075
v -1.51072 0.8307818 -3.429741
v -1.513766 0.8289641 -3.43159
v -1.513766 0.8289641 -3.43159
v -1.513766 0.8249857 -3.432006
v -1.513766 0.8249857 -3.432006
v -1.51072 0.8228251 -3.430573
v -1.507674 0.8246428 -3.428724
v -1.507674 0.8246428 -3.428724
v -1.507674 0.8286211 -3.428308
v -1.507674 0.8286211 -3.428308
v -1.51072 0.8307818 -3.429741

vn 0.2963499 0.9300273 0.2173153
vn -0.6603506 0.750859 -0.01215918
vn 0.245395 0.9522245 0.1817962
vn -0.6993979 0.7134645 -0.04255753
vn -0.9566782 -0.179176 -0.2294836
vn -0.9448085 -0.2387503 -0.2243555
vn -0.9566782 -0.179176 -0.2294836
vn -0.2963499 -0.9300273 -0.2173153
vn -0.9448085 -0.2387503 -0.2243555
vn -0.245395 -0.9522245 -0.1817962
vn 0.6603506 -0.750859 0.01215918
vn 0.6993979 -0.7134645 0.04255753
vn 0.6603506 -0.750859 0.01215918
vn 0.9566782 0.179176 0.2294836
vn 0.6993979 -0.7134645 0.04255753
vn 0.9448085 0.2387503 0.2243555
vn 0.9566782 0.179176 0.2294836
vn 0.2963499 0.9300273 0.2173153
vn 0.9448085 0.2387503 0.2243555
vn 0.245395 0.9522245 0.1817962
vn 0.189545 0.9764549 0.102998
vn -0.7405231 0.6656005 -0.09274419
vn -0.9300776 -0.3108703 -0.1957431
vn -0.9300776 -0.3108703 -0.1957431
vn -0.189545 -0.9764549 -0.102998
vn 0.7405231 -0.6656005 0.09274419
vn 0.7405231 -0.6656005 0.09274419
vn 0.9300776 0.3108703 0.1957431
vn 0.9300776 0.3108703 0.1957431
vn 0.189545 0.9764549 0.102998
vn 0.1299984 0.9914689 -0.009477189
vn -0.7819493 0.6054012 -0.1484744
vn -0.9119329 -0.3860814 -0.1389953
vn -0.9119329 -0.3860814 -0.1389953
vn -0.1299984 -0.9914689 0.009477189
vn 0.7819493 -0.6054012 0.1484744
vn 0.7819493 -0.6054012 0.1484744
vn 0.9119329 0.3860814 0.1389953
vn 0.9119329 0.3860814 0.1389953
vn 0.1299984 0.9914689 -0.009477189
vn 0.06699661 0.9834315 -0.1684452
vn -0.8232098 0.5293255 -0.2052809
vn -0.890179 -0.4541195 -0.036835
vn -0.890179 -0.4541195 -0.036835
vn -0.06699661 -0.9834315 0.1684452
vn 0.8232098 -0.5293255 0.2052809
vn -0.06699661 -0.9834315 0.1684452
vn 0.890179 0.4541195 0.036835
vn 0.890179 0.4541195 0.036835
vn 0.06699661 0.9834315 -0.1684452
vn 0.003397461 0.9215167 -0.3883239
vn -0.8618993 0.4383706 -0.2548742
vn -0.8653255 -0.4831172 0.1334525
vn -0.8653255 -0.4831172 0.1334525
vn -0.003397461 -0.9215167 0.3883239
vn 0.8232098 -0.5293255 0.2052809
vn 0.8618993 -0.4383706 0.2548742
vn -0.003397461 -0.9215167 0.3883239
vn 0.8653255 0.4831172 -0.1334525
vn 0.8653255 0.4831172 -0.1334525
vn 0.003397461 0.9215167 -0.3883239
vn -0.0435118 0.7024772 -0.7103749
vn -0.886919 0.3292866 -0.323952
vn -0.8434575 -0.3731812 0.3864133
vn -0.8434575 -0.3731812 0.3864133
vn 0.0435118 -0.7024772 0.7103749
vn -0.003397461 -0.9215167 0.3883239
vn 0.8618993 -0.4383706 0.2548742
vn 0.0435118 -0.7024772 0.7103749
vn 0.886919 -0.3292866 0.323952
vn 0.886919 -0.3292866 0.323952
vn 0.8434575 0.3731812 -0.3864133
vn 0.8434575 0.3731812 -0.3864133
vn -0.0435118 0.7024772 -0.7103749
vn -0.05346619 0.2963886 -0.9535697
vn -0.8895279 0.1905237 -0.41526
vn -0.836082 -0.1058588 0.5382945
vn -0.8434575 -0.3731812 0.3864133
vn 0.0435118 -0.7024772 0.7103749
vn -0.836082 -0.1058588 0.5382945
vn 0.05346619 -0.2963886 0.9535697
vn 0.05346619 -0.2963886 0.9535697
vn 0.8895279 -0.1905237 0.41526
vn 0.8895279 -0.1905237 0.41526
vn 0.836082 0.1058588 -0.5382945
vn 0.8434575 0.3731812 -0.3864133
vn -0.0435118 0.7024772 -0.7103749
vn 0.836082 0.1058588 -0.5382945
vn -0.05346619 0.2963886 -0.9535697
vn -0.05346619 0.2963886 -0.9535697
vn -0.8895279 0.1905237 -0.41526
vn -0.04464487 0.03108451 -0.9985192
vn -0.8841925 0.08970673 -0.4584282
vn -0.8841925 0.08970673 -0.4584282
vn -0.839577 0.05862019 0.5400687
vn -0.839577 0.05862019 0.5400687
vn 0.04464487 -0.03108451 0.9985192
vn 0.04464487 -0.03108451 0.9985192
vn 0.8841925 -0.08970673 0.4584282
vn 0.8841925 -0.08970673 0.4584282
vn 0.839577 -0.05862019 -0.5400687
vn 0.839577 -0.05862019 -0.5400687
vn -0.04464487 0.03108451 -0.9985192
vn -0.03415326 -0.02565965 -0.9990872
vn -0.8777468 0.0794538 -0.4724908
vn -0.8777468 0.0794538 -0.4724908
vn -0.8435852 0.1051129 0.5266075
vn -0.8435852 0.1051129 0.5266075
vn 0.03415326 0.02565965 0.9990872
vn 0.03415326 0.02565965 0.9990872
vn 0.8777468 -0.0794538 0.4724908
vn 0.8777468 -0.0794538 0.4724908
vn 0.8435852 -0.1051129 -0.5266075
vn 0.8435852 -0.1051129 -0.5266075
vn -0.03415326 -0.02565965 -0.9990872
vn -0.02378228 -0.02303722 -0.9994517
vn -0.870222 0.1024001 -0.4819003
vn -0.870222 0.1024001 -0.4819003
vn -0.8464034 0.1254406 0.5175578
vn -0.8464034 0.1254406 0.5175578
vn 0.02378228 0.02303722 0.9994517
vn 0.02378228 0.02303722 0.9994517
vn 0.870222 -0.1024001 0.4819003
vn 0.870222 -0.1024001 0.4819003
vn 0.8464034 -0.1254406 -0.5175578
vn 0.8464034 -0.1254406 -0.5175578
vn -0.02378228 -0.02303722 -0.9994517
vn -0.01347037 0.01561609 -0.9997873
vn -0.8606051 0.1518084 -0.4861206
vn -0.8606051 0.1518084 -0.4861206
vn -0.8471055 0.1361973 0.5136755
vn -0.8471055 0.1361973 0.5136755
vn 0.01347037 -0.01561609 0.9997873
vn 0.01347037 -0.01561609 0.9997873
vn 0.8606051 -0.1518084 0.4861206
vn 0.8606051 -0.1518084 0.4861206
vn 0.8471055 -0.1361973 -0.5136755
vn 0.8471055 -0.1361973 -0.5136755
vn -0.01347037 0.01561609 -0.9997873
vn 0.006556377 0.09202769 -0.9957349
vn -0.8420645 0.2337015 -0.4861182
vn -0.8420645 0.2337015 -0.4861182
vn -0.848657 0.1416515 0.5096233
vn -0.848657 0.1416515 0.5096233
vn -0.006556377 -0.09202769 0.9957349
vn -0.006556377 -0.09202769 0.9957349
vn 0.8420645 -0.2337015 0.4861182
vn 0.8420645 -0.2337015 0.4861182
vn 0.848657 -0.1416515 -0.5096233
vn 0.848657 -0.1416515 -0.5096233
vn 0.006556377 0.09202769 -0.9957349
vn 0.07444855 0.1571824 -0.9847593
vn -0.8005563 0.2959692 -0.5210679
vn -0.8005563 0.2959692 -0.5210679
vn -0.8750484 0.1387585 0.4637202
vn -0.8750484 0.1387585 0.4637202
vn -0.07444855 -0.1571824 0.9847593
vn -0.07444855 -0.1571824 0.9847593
vn 0.8005563 -0.2959692 0.5210679
vn 0.8005563 -0.2959692 0.5210679
vn 0.8750484 -0.1387585 -0.4637202
vn 0.8750484 -0.1387585 -0.4637202
vn 0.07444855 0.1571824 -0.9847593
vn 0.1796497 0.1689208 -0.969119
vn -0.7407886 0.3001482 -0.600952
vn -0.7407886 0.3001482 -0.600952
vn -0.920453 0.1312166 0.3681692
vn -0.920453 0.1312166 0.3681692
vn -0.1796497 -0.1689208 0.969119
vn -0.1796497 -0.1689208 0.969119
vn 0.7407886 -0.3001482 0.600952
vn 0.7407886 -0.3001482 0.600952
vn 0.920453 -0.1312166 -0.3681692
vn 0.920453 -0.1312166 -0.3681692
vn 0.1796497 0.1689208 -0.969119
vn 0.2831853 0.1630506 -0.9451034
vn -0.6747291 0.2798457 -0.6829546
vn -0.6747291 0.2798457 -0.6829546
vn -0.9579333 0.1167986 0.2621486
vn -0.9579333 0.1167986 0.2621486
vn -0.2831853 -0.1630506 0.9451034
vn -0.2831853 -0.1630506 0.9451034
vn 0.6747291 -0.2798457 0.6829546
vn 0.6747291 -0.2798457 0.6829546
vn 0.9579333 -0.1167986 -0.2621486
vn 0.9579333 -0.1167986 -0.2621486
vn 0.2831853 0.1630506 -0.9451034
vn 0.3828456 0.1693986 -0.9081483
vn -0.6019475 0.2546014 -0.7568601
vn -0.6019475 0.2546014 -0.7568601
vn -0.9848116 0.08520689 0.1512802
vn -0.9848116 0.08520689 0.1512802
vn -0.3828456 -0.1693986 0.9081483
vn -0.3828456 -0.1693986 0.9081483
vn 0.6019475 -0.2546014 0.7568601
vn 0.6019475 -0.2546014 0.7568601
vn 0.9848116 -0.08520689 -0.1512802
vn 0.9848116 -0.08520689 -0.1512802
vn 0.3828456 0.1693986 -0.9081483
vn 0.4747458 0.2079732 -0.855198
vn -0.5246545 0.2191425 -0.8226264
vn -0.5246545 0.2191425 -0.8226264
vn -0.9994081 0.01114626 0.03254469
vn -0.9994081 0.01114626 0.03254469
vn -0.4747458 -0.2079732 0.855198
vn -0.4747458 -0.2079732 0.855198
vn 0.5246545 -0.2191425 0.8226264
vn 0.5246545 -0.2191425 0.8226264
vn 0.9994081 -0.01114626 -0.03254469
vn 0.9994081 -0.01114626 -0.03254469
vn 0.4747458 0.2079732 -0.855198
vn 0.5428752 0.3372258 -0.7691329
vn -0.4344494 0.1607058 -0.8862435
vn -0.4344494 0.1607058 -0.8862435
vn -0.9994081 0.01114626 0.03254469
vn -0.9773028 -0.1765237 -0.1171261
vn -0.9773028 -0.1765237 -0.1171261
vn -0.5428752 -0.3372258 0.7691329
vn -0.5428752 -0.3372258 0.7691329
vn 0.4344494 -0.1607058 0.8862435
vn 0.4344494 -0.1607058 0.8862435
vn 0.9773028 0.1765237 0.1171261
vn 0.9773028 0.1765237 0.1171261
vn 0.5428752 0.3372258 -0.7691329
vn 0.4237342 0.7009884 -0.5736416
vn -0.278829 0.1001949 -0.9550996
vn -0.7025576 -0.6007829 -0.3814088
vn -0.7025576 -0.6007829 -0.3814088
vn -0.4237342 -0.7009884 0.5736416
vn -0.4237342 -0.7009884 0.5736416
vn 0.278829 -0.1001949 0.9550996
vn 0.278829 -0.1001949 0.9550996
vn 0.7025576 0.6007829 0.3814088
vn 0.7025576 0.6007829 0.3814088
vn 0.4237342 0.7009884 -0.5736416
vn 0.05137882 0.9951518 -0.08386312
vn -0.1356599 0.4344276 -0.890432
vn -0.1871008 -0.5607362 -0.806578
vn -0.7025576 -0.6007829 -0.3814088
vn -0.4237342 -0.7009884 0.5736416
vn -0.1871008 -0.5607362 -0.806578
vn -0.05137882 -0.9951518 0.08386312
vn -0.05137882 -0.9951518 0.08386312
vn 0.1356599 -0.4344276 0.890432
vn 0.7025576 0.6007829 0.3814088
vn 0.1871008 0.5607362 0.806578
vn 0.7025576 0.6007829 0.3814088
vn 0.4237342 0.7009884 -0.5736416
vn 0.1871008 0.5607362 0.806578
vn 0.05137882 0.9951518 -0.08386312
vn 0.05137882 0.9951518 -0.08386312
vn -0.1356599 0.4344276 -0.890432
vn -0.1760115 0.9114692 0.3718117
vn -0.2552308 0.748809 -0.6116717
vn -0.2552308 0.748809 -0.6116717
vn -0.07921597 -0.1626789 -0.983494
vn -0.07921597 -0.1626789 -0.983494
vn 0.1760115 -0.9114692 -0.3718117
vn 0.1356599 -0.4344276 0.890432
vn 0.2552308 -0.748809 0.6116717
vn 0.2552308 -0.748809 0.6116717
vn 0.07921597 0.1626789 0.983494
vn 0.07921597 0.1626789 0.983494
vn -0.1760115 0.9114692 0.3718117
vn -0.2121342 0.7627651 0.6108916
vn -0.3446333 0.8603612 -0.3755084
vn -0.3446333 0.8603612 -0.3755084
vn -0.132497 0.09759956 -0.9863665
vn -0.132497 0.09759956 -0.9863665
vn 0.2121342 -0.7627651 -0.6108916
vn 0.3446333 -0.8603612 0.3755084
vn 0.3446333 -0.8603612 0.3755084
vn 0.132497 -0.09759956 0.9863665
vn 0.132497 -0.09759956 0.9863665
vn -0.2121342 0.7627651 0.6108916
vn -0.1797087 0.5993568 0.780049
vn -0.3929455 0.9077384 -0.1469858
vn -0.3929455 0.9077384 -0.1469858
vn -0.2132405 0.3083866 -0.9270524
vn -0.2132405 0.3083866 -0.9270524
vn 0.2121342 -0.7627651 -0.6108916
vn 0.1797087 -0.5993568 -0.780049
vn 0.1797087 -0.5993568 -0.780049
vn 0.3929455 -0.9077384 0.1469858
vn 0.3929455 -0.9077384 0.1469858
vn 0.2132405 -0.3083866 0.9270524
vn 0.132497 -0.09759956 0.9863665
vn -0.2121342 0.7627651 0.6108916
vn 0.2132405 -0.3083866 0.9270524
vn -0.2121342 0.7627651 0.6108916
vn -0.1797087 0.5993568 0.780049
vn 0.2132405 -0.3083866 0.9270524
vn -0.1074098 0.4199234 0.9011812
vn -0.4077854 0.9093437 0.08249287
vn -0.4077854 0.9093437 0.08249287
vn -0.3004066 0.4894274 -0.8186677
vn 0.1074098 -0.4199234 -0.9011812
vn 0.1074098 -0.4199234 -0.9011812
vn 0.4077854 -0.9093437 -0.08249287
vn 0.4077854 -0.9093437 -0.08249287
vn 0.2132405 -0.3083866 0.9270524
vn 0.3004066 -0.4894274 0.8186677
vn 0.3004066 -0.4894274 0.8186677
vn -0.1074098 0.4199234 0.9011812
vn -0.03060624 0.3223043 0.9461412
vn -0.4065628 0.8885403 0.2126095
vn -0.4065628 0.8885403 0.2126095
vn -0.3004066 0.4894274 -0.8186677
vn -0.3759613 0.5662368 -0.7335045
vn -0.3759613 0.5662368 -0.7335045
vn 0.03060624 -0.3223043 -0.9461412
vn 0.03060624 -0.3223043 -0.9461412
vn 0.4065628 -0.8885403 -0.2126095
vn 0.3759613 -0.5662368 0.7335045
vn 0.3759613 -0.5662368 0.7335045
vn -0.03060624 0.3223043 0.9461412
vn 0 0.4174899 0.9086816
vn -0.4312422 0.8911842 0.140787
vn -0.431239 0.4736924 -0.7678856
vn -0.431239 0.4736924 -0.7678856
vn 0 -0.4174899 -0.9086816
vn 0 -0.4174899 -0.9086816
vn 0.4312422 -0.8911842 -0.140787
vn 0.431239 -0.4736924 0.7678856
vn 0.431239 -0.4736924 0.7678856
vn 0 0.4174899 0.9086816
vn 0 0.6189778 0.7854084
vn -0.48554 0.8727173 -0.05114084
vn -0.4855518 0.2537435 -0.8365726
vn -0.48554 0.8727173 -0.05114084
vn 0 -0.6189778 -0.7854084
vn 0 -0.6189778 -0.7854084
vn 0.48554 -0.8727173 0.05114084
vn 0.4855518 -0.2537435 0.8365726
vn 0.4855518 -0.2537435 0.8365726
vn 0 0.6189778 0.7854084
vn 0 0.8371452 0.5469808
vn -0.5798926 0.7703887 -0.2650018
vn -0.5798926 0.7703887 -0.2650018
vn -0.5799015 -0.06677302 -0.8119456
vn 0 -0.8371452 -0.5469808
vn 0 -0.8371452 -0.5469808
vn 0.5798926 -0.7703887 0.2650018
vn 0.5799015 0.06677302 0.8119456
vn 0.5799015 0.06677302 0.8119456
vn 0 0.8371452 0.5469808
vn 0 0.9543359 0.2987357
vn -0.6924484 0.6325316 -0.347014
vn -0.6924484 0.6325316 -0.347014
vn -0.6924638 -0.3218086 -0.6457035
vn 0 -0.9543359 -0.2987357
vn 0 -0.9543359 -0.2987357
vn 0.6924484 -0.6325316 0.347014
vn 0.6924638 0.3218086 0.6457035
vn 0.6924484 -0.6325316 0.347014
vn 0 0.9543359 0.2987357
vn 0 0.9870429 0.1604565
vn -0.7510824 0.5627157 -0.3452917
vn -0.7510824 0.5627157 -0.3452917
vn -0.7510747 -0.4243235 -0.5058027
vn -0.6924638 -0.3218086 -0.6457035
vn -0.7510747 -0.4243235 -0.5058027
vn 0 -0.9870429 -0.1604565
vn 0.7510824 -0.5627157 0.3452917
vn 0.7510824 -0.5627157 0.3452917
vn 0.7510747 0.4243235 0.5058027
vn 0 0.9543359 0.2987357
vn 0 0.9870429 0.1604565
vn 0.7510747 0.4243235 0.5058027
vn 0 0.9936411 0.1125934
vn -0.7629045 0.5429649 -0.3509498
vn -0.7629045 0.5429649 -0.3509498
vn -0.762906 -0.4506685 -0.4635431
vn -0.762906 -0.4506685 -0.4635431
vn 0 -0.9936411 -0.1125934
vn 0.7629045 -0.5429649 0.3509498
vn 0.7629045 -0.5429649 0.3509498
vn 0.762906 0.4506685 0.4635431
vn 0.762906 0.4506685 0.4635431
vn 0 0.9936411 0.1125934
vn 0 0.9945825 0.103951
vn -0.7615086 0.5401669 -0.3582238
vn -0.7615086 0.5401669 -0.3582238
vn -0.7615075 -0.4544249 -0.4621735
vn -0.7615075 -0.4544249 -0.4621735
vn 0 -0.9945825 -0.103951
vn 0.7615086 -0.5401669 0.3582238
vn 0.7615086 -0.5401669 0.3582238
vn 0.7615075 0.4544249 0.4621735
vn 0.7615075 0.4544249 0.4621735
vn 0 0.9945825 0.103951

vt 1 0
vt 0.8333333 0
vt 1 0.03125
vt 0.8333333 0.03125
vt 0.6666666 0
vt 0.6666666 0.03125
vt 0.6666666 0
vt 0.5 0
vt 0.6666666 0.03125
vt 0.5 0.03125
vt 0.3333333 0
vt 0.3333333 0.03125
vt 0.3333333 0
vt 0.1666667 0
vt 0.3333333 0.03125
vt 0.1666667 0.03125
vt 0.1666667 0
vt 0 0
vt 0.1666667 0.03125
vt 0 0.03125
vt 1 0.0625
vt 0.8333333 0.0625
vt 0.6666666 0.0625
vt 0.6666666 0.0625
vt 0.5 0.0625
vt 0.3333333 0.0625
vt 0.3333333 0.0625
vt 0.1666667 0.0625
vt 0.1666667 0.0625
vt 0 0.0625
vt 1 0.09375
vt 0.8333333 0.09375
vt 0.6666666 0.09375
vt 0.6666666 0.09375
vt 0.5 0.09375
vt 0.3333333 0.09375
vt 0.3333333 0.09375
vt 0.1666667 0.09375
vt 0.1666667 0.09375
vt 0 0.09375
vt 1 0.125
vt 0.8333333 0.125
vt 0.6666666 0.125
vt 0.6666666 0.125
vt 0.5 0.125
vt 0.3333333 0.125
vt 0.5 0.125
vt 0.1666667 0.125
vt 0.1666667 0.125
vt 0 0.125
vt 1 0.15625
vt 0.8333333 0.15625
vt 0.6666666 0.15625
vt 0.6666666 0.15625
vt 0.5 0.15625
vt 0.3333333 0.125
vt 0.3333333 0.15625
vt 0.5 0.15625
vt 0.1666667 0.15625
vt 0.1666667 0.15625
vt 0 0.15625
vt 1 0.1875
vt 0.8333333 0.1875
vt 0.6666666 0.1875
vt 0.6666666 0.1875
vt 0.5 0.1875
vt 0.5 0.15625
vt 0.3333333 0.15625
vt 0.5 0.1875
vt 0.3333333 0.1875
vt 0.3333333 0.1875
vt 0.1666667 0.1875
vt 0.1666667 0.1875
vt 0 0.1875
vt 1 0.21875
vt 0.8333333 0.21875
vt 0.6666666 0.21875
vt 0.6666666 0.1875
vt 0.5 0.1875
vt 0.6666666 0.21875
vt 0.5 0.21875
vt 0.5 0.21875
vt 0.3333333 0.21875
vt 0.3333333 0.21875
vt 0.1666667 0.21875
vt 0.1666667 0.1875
vt 0 0.1875
vt 0.1666667 0.21875
vt 0 0.21875
vt 1 0.21875
vt 0.8333333 0.21875
vt 1 0.25
vt 0.8333333 0.25
vt 0.8333333 0.25
vt 0.6666666 0.25
vt 0.6666666 0.25
vt 0.5 0.25
vt 0.5 0.25
vt 0.3333333 0.25
vt 0.3333333 0.25
vt 0.1666667 0.25
vt 0.1666667 0.25
vt 0 0.25
vt 1 0.28125
vt 0.8333333 0.28125
vt 0.8333333 0.28125
vt 0.6666666 0.28125
vt 0.6666666 0.28125
vt 0.5 0.28125
vt 0.5 0.28125
vt 0.3333333 0.28125
vt 0.3333333 0.28125
vt 0.1666667 0.28125
vt 0.1666667 0.28125
vt 0 0.28125
vt 1 0.3125
vt 0.8333333 0.3125
vt 0.8333333 0.3125
vt 0.6666666 0.3125
vt 0.6666666 0.3125
vt 0.5 0.3125
vt 0.5 0.3125
vt 0.3333333 0.3125
vt 0.3333333 0.3125
vt 0.1666667 0.3125
vt 0.1666667 0.3125
vt 0 0.3125
vt 1 0.34375
vt 0.8333333 0.34375
vt 0.8333333 0.34375
vt 0.6666666 0.34375
vt 0.6666666 0.34375
vt 0.5 0.34375
vt 0.5 0.34375
vt 0.3333333 0.34375
vt 0.3333333 0.34375
vt 0.1666667 0.34375
vt 0.1666667 0.34375
vt 0 0.34375
vt 1 0.375
vt 0.8333333 0.375
vt 0.8333333 0.375
vt 0.6666666 0.375
vt 0.6666666 0.375
vt 0.5 0.375
vt 0.5 0.375
vt 0.3333333 0.375
vt 0.3333333 0.375
vt 0.1666667 0.375
vt 0.1666667 0.375
vt 0 0.375
vt 1 0.40625
vt 0.8333333 0.40625
vt 0.8333333 0.40625
vt 0.6666666 0.40625
vt 0.6666666 0.40625
vt 0.5 0.40625
vt 0.5 0.40625
vt 0.3333333 0.40625
vt 0.3333333 0.40625
vt 0.1666667 0.40625
vt 0.1666667 0.40625
vt 0 0.40625
vt 1 0.4375
vt 0.8333333 0.4375
vt 0.8333333 0.4375
vt 0.6666666 0.4375
vt 0.6666666 0.4375
vt 0.5 0.4375
vt 0.5 0.4375
vt 0.3333333 0.4375
vt 0.3333333 0.4375
vt 0.1666667 0.4375
vt 0.1666667 0.4375
vt 0 0.4375
vt 1 0.46875
vt 0.8333333 0.46875
vt 0.8333333 0.46875
vt 0.6666666 0.46875
vt 0.6666666 0.46875
vt 0.5 0.46875
vt 0.5 0.46875
vt 0.3333333 0.46875
vt 0.3333333 0.46875
vt 0.1666667 0.46875
vt 0.1666667 0.46875
vt 0 0.46875
vt 1 0.5
vt 0.8333333 0.5
vt 0.8333333 0.5
vt 0.6666666 0.5
vt 0.6666666 0.5
vt 0.5 0.5
vt 0.5 0.5
vt 0.3333333 0.5
vt 0.3333333 0.5
vt 0.1666667 0.5
vt 0.1666667 0.5
vt 0 0.5
vt 1 0.53125
vt 0.8333333 0.53125
vt 0.8333333 0.53125
vt 0.6666666 0.53125
vt 0.6666666 0.53125
vt 0.5 0.53125
vt 0.5 0.53125
vt 0.3333333 0.53125
vt 0.3333333 0.53125
vt 0.1666667 0.53125
vt 0.1666667 0.53125
vt 0 0.53125
vt 1 0.5625
vt 0.8333333 0.5625
vt 0.8333333 0.5625
vt 0.6666666 0.53125
vt 0.6666666 0.5625
vt 0.6666666 0.5625
vt 0.5 0.5625
vt 0.5 0.5625
vt 0.3333333 0.5625
vt 0.3333333 0.5625
vt 0.1666667 0.5625
vt 0.1666667 0.5625
vt 0 0.5625
vt 1 0.59375
vt 0.8333333 0.59375
vt 0.6666666 0.59375
vt 0.6666666 0.59375
vt 0.5 0.59375
vt 0.5 0.59375
vt 0.3333333 0.59375
vt 0.3333333 0.59375
vt 0.1666667 0.59375
vt 0.1666667 0.59375
vt 0 0.59375
vt 1 0.625
vt 0.8333333 0.625
vt 0.6666666 0.625
vt 0.6666666 0.59375
vt 0.5 0.59375
vt 0.6666666 0.625
vt 0.5 0.625
vt 0.5 0.625
vt 0.3333333 0.625
vt 0.1666667 0.59375
vt 0.1666667 0.625
vt 0.1666667 0.59375
vt 0 0.59375
vt 0.1666667 0.625
vt 0 0.625
vt 1 0.625
vt 0.8333333 0.625
vt 1 0.65625
vt 0.8333333 0.65625
vt 0.8333333 0.65625
vt 0.6666666 0.65625
vt 0.6666666 0.65625
vt 0.5 0.65625
vt 0.3333333 0.625
vt 0.3333333 0.65625
vt 0.3333333 0.65625
vt 0.1666667 0.65625
vt 0.1666667 0.65625
vt 0 0.65625
vt 1 0.6875
vt 0.8333333 0.6875
vt 0.8333333 0.6875
vt 0.6666666 0.6875
vt 0.6666666 0.6875
vt 0.5 0.6875
vt 0.3333333 0.6875
vt 0.3333333 0.6875
vt 0.1666667 0.6875
vt 0.1666667 0.6875
vt 0 0.6875
vt 1 0.71875
vt 0.8333333 0.71875
vt 0.8333333 0.71875
vt 0.6666666 0.71875
vt 0.6666666 0.71875
vt 0.5 0.6875
vt 0.5 0.71875
vt 0.5 0.71875
vt 0.3333333 0.71875
vt 0.3333333 0.71875
vt 0.1666667 0.71875
vt 0.1666667 0.6875
vt 0 0.6875
vt 0.1666667 0.71875
vt 0 0.6875
vt 0 0.71875
vt 0.1666667 0.71875
vt 1 0.75
vt 0.8333333 0.75
vt 0.8333333 0.75
vt 0.6666666 0.75
vt 0.5 0.75
vt 0.5 0.75
vt 0.3333333 0.75
vt 0.3333333 0.75
vt 0.1666667 0.71875
vt 0.1666667 0.75
vt 0.1666667 0.75
vt 0 0.75
vt 1 0.78125
vt 0.8333333 0.78125
vt 0.8333333 0.78125
vt 0.6666666 0.75
vt 0.6666666 0.78125
vt 0.6666666 0.78125
vt 0.5 0.78125
vt 0.5 0.78125
vt 0.3333333 0.78125
vt 0.1666667 0.78125
vt 0.1666667 0.78125
vt 0 0.78125
vt 1 0.8125
vt 0.8333333 0.8125
vt 0.6666666 0.8125
vt 0.6666666 0.8125
vt 0.5 0.8125
vt 0.5 0.8125
vt 0.3333333 0.8125
vt 0.1666667 0.8125
vt 0.1666667 0.8125
vt 0 0.8125
vt 1 0.84375
vt 0.8333333 0.84375
vt 0.6666666 0.84375
vt 0.8333333 0.84375
vt 0.5 0.84375
vt 0.5 0.84375
vt 0.3333333 0.84375
vt 0.1666667 0.84375
vt 0.1666667 0.84375
vt 0 0.84375
vt 1 0.875
vt 0.8333333 0.875
vt 0.8333333 0.875
vt 0.6666666 0.875
vt 0.5 0.875
vt 0.5 0.875
vt 0.3333333 0.875
vt 0.1666667 0.875
vt 0.1666667 0.875
vt 0 0.875
vt 1 0.90625
vt 0.8333333 0.90625
vt 0.8333333 0.90625
vt 0.6666666 0.90625
vt 0.5 0.90625
vt 0.5 0.90625
vt 0.3333333 0.90625
vt 0.1666667 0.90625
vt 0.3333333 0.90625
vt 0 0.90625
vt 1 0.9375
vt 0.8333333 0.9375
vt 0.8333333 0.9375
vt 0.6666666 0.9375
vt 0.6666666 0.90625
vt 0.6666666 0.9375
vt 0.5 0.9375
vt 0.3333333 0.9375
vt 0.3333333 0.9375
vt 0.1666667 0.9375
vt 0 0.90625
vt 0 0.9375
vt 0.1666667 0.9375
vt 1 0.96875
vt 0.8333333 0.96875
vt 0.8333333 0.96875
vt 0.6666666 0.96875
vt 0.6666666 0.96875
vt 0.5 0.96875
vt 0.3333333 0.96875
vt 0.3333333 0.96875
vt 0.1666667 0.96875
vt 0.1666667 0.96875
vt 0 0.96875
vt 1 1
vt 0.8333333 1
vt 0.8333333 1
vt 0.6666666 1
vt 0.6666666 1
vt 0.5 1
vt 0.3333333 1
vt 0.3333333 1
vt 0.1666667 1
vt 0.1666667 1
vt 0 1

vt2 0.6140164 0.9169272
vt2 0.6119905 0.9174743
vt2 0.6133611 0.9149259
vt2 0.6113515 0.9154989
vt2 0.6099497 0.9180081
vt2 0.6093333 0.9160711
vt2 0.71688 0.02171878
vt2 0.7169574 0.01965072
vt2 0.7188743 0.02168443
vt2 0.7189266 0.01959925
vt2 0.7170049 0.01760203
vt2 0.718972 0.01753061
vt2 0.005980965 0.8231384
vt2 0.003909447 0.8230312
vt2 0.005974001 0.8211459
vt2 0.00390625 0.8209816
vt2 0.7599258 0.009886196
vt2 0.760177 0.01194514
vt2 0.7579073 0.01024242
vt2 0.7581267 0.0123051
vt2 0.6116219 0.9097109
vt2 0.6096431 0.9103809
vt2 0.6076625 0.9110526
vt2 0.7241172 0.02167576
vt2 0.7241577 0.01958597
vt2 0.724198 0.017505
vt2 0.006400008 0.815935
vt2 0.004348414 0.8156289
vt2 0.7525719 0.01085894
vt2 0.7527171 0.01292814
vt2 0.6087664 0.9025102
vt2 0.6068469 0.9033295
vt2 0.6049268 0.9041504
vt2 0.7315352 0.0216908
vt2 0.7315826 0.01960415
vt2 0.7316345 0.017505
vt2 0.007645748 0.8086542
vt2 0.005635293 0.8081435
vt2 0.7449946 0.01138015
vt2 0.7450446 0.01345382
vt2 0.6046917 0.8944734
vt2 0.6028846 0.8955125
vt2 0.6010786 0.8965533
vt2 0.7400184 0.0217606
vt2 0.7400157 0.0197123
vt2 0.0100841 0.8004694
vt2 0.01202144 0.8012106
vt2 0.008170861 0.799668
vt2 0.7361492 0.0115256
vt2 0.7360819 0.01359875
vt2 0.5992147 0.8866953
vt2 0.597635 0.8880442
vt2 0.5960517 0.8893995
vt2 0.7486069 0.02132722
vt2 0.748467 0.01928355
vt2 0.7398347 0.01767196
vt2 0.01408397 0.7925338
vt2 0.01581795 0.7936721
vt2 0.01239259 0.7913331
vt2 0.7268162 0.01108882
vt2 0.7266099 0.01315292
vt2 0.5919501 0.8801574
vt2 0.5908844 0.8819423
vt2 0.5898514 0.8836985
vt2 0.7568866 0.02036676
vt2 0.7565161 0.01835209
vt2 0.004133095 0.4335045
vt2 0.00390625 0.4314427
vt2 0.0123346 0.4332545
vt2 0.01267407 0.4312083
vt2 0.01996932 0.7860305
vt2 0.01886091 0.7842772
vt2 0.71732 0.009886196
vt2 0.71688 0.01191337
vt2 0.5805856 0.8763418
vt2 0.5801907 0.8784235
vt2 0.5799953 0.8804877
vt2 0.6408005 0.8276535
vt2 0.6405217 0.8297091
vt2 0.6304488 0.8270446
vt2 0.6305131 0.8291179
vt2 0.02176645 0.4366549
vt2 0.02271167 0.4348085
vt2 0.03014292 0.7828348
vt2 0.0299647 0.7807682
vt2 0.004193163 0.8546407
vt2 0.00390625 0.8525863
vt2 0.01581761 0.8539481
vt2 0.01587387 0.8518745
vt2 0.7117328 0.00390625
vt2 0.7129737 0.005563891
vt2 0.6952471 0.0198904
vt2 0.6967415 0.0213236
vt2 0.5577055 0.8811967
vt2 0.558064 0.883239
vt2 0.6084896 0.8296332
vt2 0.608767 0.8316889
vt2 0.03974431 0.4491568
vt2 0.04097788 0.4474893
vt2 0.05216956 0.7858813
vt2 0.05254535 0.7838414
vt2 0.03845058 0.8566089
vt2 0.03872019 0.8545521
vt2 0.6732525 0.04434312
vt2 0.6748115 0.04570585
vt2 0.5256641 0.8883902
vt2 0.5261354 0.8904095
vt2 0.576113 0.8344709
vt2 0.5764095 0.8365238
vt2 0.06537443 0.4694911
vt2 0.06668369 0.4678822
vt2 0.08411056 0.793393
vt2 0.08459891 0.791377
vt2 0.0710267 0.8614057
vt2 0.07131543 0.8593516
vt2 0.647468 0.07461952
vt2 0.6490542 0.07595059
vt2 0.4869896 0.8977085
vt2 0.4874532 0.8997296
vt2 0.5366837 0.8399165
vt2 0.5369309 0.8419759
vt2 0.09593633 0.4950696
vt2 0.09727783 0.4934874
vt2 0.1228078 0.8030964
vt2 0.1232884 0.8010786
vt2 0.1105548 0.866748
vt2 0.1107941 0.8646877
vt2 0.619895 0.1079276
vt2 0.6214953 0.1092418
vt2 0.4446984 0.9068962
vt2 0.4450813 0.9089342
vt2 0.4935288 0.8442905
vt2 0.4936719 0.8463598
vt2 0.1289019 0.5234212
vt2 0.1302601 0.5218533
vt2 0.1652365 0.8127015
vt2 0.1656366 0.8106661
vt2 0.1537681 0.8709785
vt2 0.1539034 0.8689087
vt2 0.5924748 0.1415618
vt2 0.5940815 0.142868
vt2 0.4017893 0.9136983
vt2 0.4020102 0.9157601
vt2 0.4499338 0.8458942
vt2 0.4499032 0.8479683
vt2 0.1618924 0.5522295
vt2 0.1632583 0.5506684
vt2 0.2084435 0.8199366
vt2 0.2086818 0.817876
vt2 0.1973887 0.8724356
vt2 0.1973502 0.8703616
vt2 0.5663324 0.1736517
vt2 0.5679182 0.174983
vt2 0.360369 0.9159352
vt2 0.3604229 0.9180081
vt2 0.4083687 0.8430344
vt2 0.4082034 0.8451021
vt2 0.1932602 0.5798545
vt2 0.1946013 0.5782722
vt2 0.2501161 0.8227207
vt2 0.2501873 0.8206476
vt2 0.23889 0.8696008
vt2 0.2387169 0.8675337
vt2 0.5285648 0.2168612
vt2 0.5301002 0.2182505
vt2 0.3028256 0.9155239
vt2 0.3027981 0.9175972
vt2 0.3509871 0.8375065
vt2 0.3508173 0.8395739
vt2 0.2377546 0.6165146
vt2 0.2390361 0.6148836
vt2 0.3076895 0.8231384
vt2 0.3076792 0.8210641
vt2 0.2961307 0.8642141
vt2 0.2959529 0.8621474
vt2 0.4773149 0.2709856
vt2 0.4787878 0.2724409
vt2 0.2281161 0.9136684
vt2 0.2280468 0.9157407
vt2 0.2763863 0.8320277
vt2 0.2762655 0.8340985
vt2 0.2973476 0.6616436
vt2 0.2985563 0.6599578
vt2 0.382346 0.8222721
vt2 0.382294 0.8201984
vt2 0.3705558 0.8588277
vt2 0.3704271 0.8567575
vt2 0.4186894 0.3273306
vt2 0.4200734 0.3288707
vt2 0.1466565 0.9098637
vt2 0.1465257 0.9119331
vt2 0.1948397 0.8281265
vt2 0.1947803 0.8302
vt2 0.3646523 0.7077424
vt2 0.3657588 0.7059879
vt2 0.4637545 0.8195082
vt2 0.4636408 0.8174371
vt2 0.4518587 0.8549841
vt2 0.4517914 0.8529109
vt2 0.358774 0.3772124
vt2 0.3599957 0.3788842
vt2 0.06865414 0.9032952
vt2 0.06840436 0.9053535
vt2 0.1164204 0.8270446
vt2 0.1164511 0.8291187
vt2 0.4322735 0.7472897
vt2 0.4331975 0.7454326
vt2 0.5416833 0.813944
vt2 0.5414507 0.8118829
vt2 0.5298595 0.8539487
vt2 0.5298823 0.8518745
vt2 0.3037657 0.4119566
vt2 0.3045911 0.4138557
vt2 0.00390625 0.8926961
vt2 0.365838 0.3858351
vt2 0.3053362 0.4158454
vt2 0.05053834 0.8296029
vt2 0.05072819 0.8316684
vt2 0.4928897 0.7728177
vt2 0.4933839 0.7708031
vt2 0.6062777 0.8042672
vt2 0.6057521 0.8022606
vt2 0.5948251 0.8565382
vt2 0.595007 0.854472
vt2 0.2602025 0.4232005
vt2 0.2599889 0.4252196
vt2 0.259762 0.427302
vt2 0.00390625 0.8361152
vt2 0.004359448 0.8381393
vt2 0.5395327 0.776862
vt2 0.5388789 0.7748934
vt2 0.6490867 0.7883322
vt2 0.6477768 0.7867237
vt2 0.6391813 0.8628627
vt2 0.6396251 0.8608366
vt2 0.2246997 0.4044759
vt2 0.2234383 0.4061874
vt2 0.2221157 0.4077817
vt2 0.004151502 0.957893
vt2 0.00390625 0.9558396
vt2 0.04579217 0.9502479
vt2 0.04550482 0.9481999
vt2 0.5717203 0.74923
vt2 0.5701028 0.7479314
vt2 0.5380647 0.7729855
vt2 0.5684144 0.7467264
vt2 0.4939016 0.9960128
vt2 0.4936503 0.9980754
vt2 0.4546259 0.9874265
vt2 0.4543279 0.9894829
vt2 0.4543279 0.9894829
vt2 0.4544942 0.9915085
vt2 0.3871178 0.9829449
vt2 0.386959 0.9850183
vt2 0.1828811 0.3520482
vt2 0.1811483 0.3531833
vt2 0.1137542 0.94522
vt2 0.1136044 0.9431613
vt2 0.04568357 0.9460917
vt2 0.1134535 0.9411019
vt2 0.5968811 0.6852481
vt2 0.594913 0.6845927
vt2 0.3872772 0.9808734
vt2 0.3871178 0.9829449
vt2 0.3008262 0.9767128
vt2 0.300682 0.9787862
vt2 0.1413791 0.2764769
vt2 0.1395386 0.2774274
vt2 0.1998772 0.9402304
vt2 0.1998033 0.9381161
vt2 0.1996671 0.936053
vt2 0.6186408 0.6013814
vt2 0.6166157 0.6009323
vt2 0.3009046 0.9746817
vt2 0.3008262 0.9767128
vt2 0.2097021 0.9697662
vt2 0.2095633 0.9718398
vt2 0.102434 0.1941412
vt2 0.1005532 0.1950092
vt2 0.292996 0.9400003
vt2 0.1385342 0.2779952
vt2 0.09867674 0.1958866
vt2 0.2907148 0.932286
vt2 0.2905841 0.9302227
vt2 0.6360697 0.5116569
vt2 0.6340266 0.5112981
vt2 0.8081893 0.00390625
vt2 0.8081396 0.005979946
vt2 0.71688 0.00390625
vt2 0.9630758 0.4378435
vt2 0.8716918 0.4338357
vt2 0.8717351 0.4317559
vt2 0.1282698 0.9643497
vt2 0.1281631 0.9664253
vt2 0.06972799 0.1196977
vt2 0.06783347 0.1205353
vt2 0.06593023 0.121353
vt2 0.371854 0.927936
vt2 0.3717553 0.9258708
vt2 0.6494488 0.4312083
vt2 0.2902982 0.926073
vt2 0.3716829 0.9238005
vt2 0.7899846 0.4312083
vt2 0.7900071 0.4332884
vt2 0.07139374 0.9617992
vt2 0.07137615 0.9638775
vt2 0.04714764 0.06773505
vt2 0.1280845 0.967761
vt2 0.07137217 0.9659538
vt2 0.04636111 0.0681581
vt2 0.04444247 0.06893904
vt2 0.428363 0.9260488
vt2 0.4283461 0.9239823
vt2 0.4283295 0.9219143
vt2 0.7329705 0.4323269
vt2 0.7330329 0.4344061
vt2 0.05039548 0.9624426
vt2 0.05055118 0.9645153
vt2 0.05070684 0.9665882
vt2 0.03858829 0.04907306
vt2 0.03666216 0.04983526
vt2 0.4489433 0.9263428
vt2 0.4490918 0.9242789
vt2 0.4492404 0.9222164
vt2 0.7119426 0.4332331
vt2 0.7120252 0.4353116
vt2 0.04079305 0.9640443
vt2 0.04120921 0.9660783
vt2 0.03479005 0.04042371
vt2 0.03675675 0.03956212
vt2 0.0328586 0.04127967
vt2 0.4580914 0.9270879
vt2 0.4584977 0.9250618
vt2 0.4589082 0.9230304
vt2 0.7022215 0.4340303
vt2 0.7023121 0.4361085
vt2 0.03387754 0.9665359
vt2 0.03472989 0.9684291
vt2 0.03322488 0.03338205
vt2 0.03134502 0.03442221
vt2 0.02943197 0.03546803
vt2 0.464476 0.9283567
vt2 0.4652879 0.92647
vt2 0.4661034 0.9245793
vt2 0.6948463 0.4348457
vt2 0.6949922 0.4369208
vt2 0.02834306 0.9704804
vt2 0.0296634 0.9720828
vt2 0.02956951 0.028178
vt2 0.02791586 0.02938829
vt2 0.02604529 0.03040077
vt2 0.4697202 0.9311019
vt2 0.4709921 0.9294587
vt2 0.6882979 0.4358593
vt2 0.6881606 0.4338808
vt2 0.688436 0.4378435
vt2 0.02289589 0.9764079
vt2 0.0244162 0.9777819
vt2 0.02438972 0.02246444
vt2 0.02289429 0.02386557
vt2 0.468293 0.9326384
vt2 0.4738055 0.9379265
vt2 0.4753264 0.9364691
vt2 0.4768432 0.9350138
vt2 0.6803991 0.4343205
vt2 0.6804198 0.4363996
vt2 0.02834306 0.9704804
vt2 0.02289589 0.9764079
vt2 0.02137666 0.9750332
vt2 0.01574199 0.9848423
vt2 0.01730118 0.9861829
vt2 0.0165706 0.01474378
vt2 0.01513636 0.01620748
vt2 0.481349 0.9461661
vt2 0.4828906 0.9447588
vt2 0.4844409 0.9433458
vt2 0.6692412 0.434083
vt2 0.6691731 0.4361611
vt2 0.01417627 0.9834937
vt2 0.01574199 0.9848423
vt2 0.005469705 0.9967266
vt2 0.007029782 0.9980754
vt2 0.005329257 0.00390625
vt2 0.00390625 0.005380908
vt2 0.4921135 0.957893
vt2 0.4936517 0.9564829
vt2 0.4951937 0.9550699
vt2 0.6534389 0.4334517
vt2 0.653355 0.4355292
vt2 0.00390625 0.9953744
vt2 0.005469705 0.9967266


vc 1 1 1 1
vc 1 1 1 1
vc 1 1 1 1
vc 1 1 1 1
vc 1 1 1 1
vc 1 1 1 1
vc 1 1 1 1
vc 1 1 1 1
vc 1 1 1 1
vc 1 1 1 1
vc 1 1 1 1
vc 1 1 1 1
vc 1 1 1 1
vc 1 1 1 1
vc 1 1 1 1
vc 1 1 1 1
vc 1 1 1 1
vc 1 1 1 1
vc 1 1 1 1
vc 1 1 1 1
vc 1 1 1 1
vc 1 1 1 1
vc 1 1 1 1
vc 1 1 1 1
vc 1 1 1 1
vc 1 1 1 1
vc 1 1 1 1
vc 1 1 1 1
vc 1 1 1 1
vc 1 1 1 1
vc 1 1 1 1
vc 1 1 1 1
vc 1 1 1 1
vc 1 1 1 1
vc 1 1 1 1
vc 1 1 1 1
vc 1 1 1 1
vc 1 1 1 1
vc 1 1 1 1
vc 1 1 1 1
vc 1 1 1 1
vc 1 1 1 1
vc 1 1 1 1
vc 1 1 1 1
vc 1 1 1 1
vc 1 1 1 1
vc 1 1 1 1
vc 1 1 1 1
vc 1 1 1 1
vc 1 1 1 1
vc 1 1 1 1
vc 1 1 1 1
vc 1 1 1 1
vc 1 1 1 1
vc 1 1 1 1
vc 1 1 1 1
vc 1 1 1 1
vc 1 1 1 1
vc 1 1 1 1
vc 1 1 1 1
vc 1 1 1 1
vc 1 1 1 1
vc 1 1 1 1
vc 1 1 1 1
vc 1 1 1 1
vc 1 1 1 1
vc 1 1 1 1
vc 1 1 1 1
vc 1 1 1 1
vc 1 1 1 1
vc 1 1 1 1
vc 1 1 1 1
vc 1 1 1 1
vc 1 1 1 1
vc 1 1 1 1
vc 1 1 1 1
vc 1 1 1 1
vc 1 1 1 1
vc 1 1 1 1
vc 1 1 1 1
vc 1 1 1 1
vc 1 1 1 1
vc 1 1 1 1
vc 1 1 1 1
vc 1 1 1 1
vc 1 1 1 1
vc 1 1 1 1
vc 1 1 1 1
vc 1 1 1 1
vc 1 1 1 1
vc 1 1 1 1
vc 1 1 1 1
vc 1 1 1 1
vc 1 1 1 1
vc 1 1 1 1
vc 1 1 1 1
vc 1 1 1 1
vc 1 1 1 1
vc 1 1 1 1
vc 1 1 1 1
vc 1 1 1 1
vc 1 1 1 1
vc 1 1 1 1
vc 1 1 1 1
vc 1 1 1 1
vc 1 1 1 1
vc 1 1 1 1
vc 1 1 1 1
vc 1 1 1 1
vc 1 1 1 1
vc 1 1 1 1
vc 1 1 1 1
vc 1 1 1 1
vc 1 1 1 1
vc 1 1 1 1
vc 1 1 1 1
vc 1 1 1 1
vc 1 1 1 1
vc 1 1 1 1
vc 1 1 1 1
vc 1 1 1 1
vc 1 1 1 1
vc 1 1 1 1
vc 1 1 1 1
vc 1 1 1 1
vc 1 1 1 1
vc 1 1 1 1
vc 1 1 1 1
vc 1 1 1 1
vc 1 1 1 1
vc 1 1 1 1
vc 1 1 1 1
vc 1 1 1 1
vc 1 1 1 1
vc 1 1 1 1
vc 1 1 1 1
vc 1 1 1 1
vc 1 1 1 1
vc 1 1 1 1
vc 1 1 1 1
vc 1 1 1 1
vc 1 1 1 1
vc 1 1 1 1
vc 1 1 1 1
vc 1 1 1 1
vc 1 1 1 1
vc 1 1 1 1
vc 1 1 1 1
vc 1 1 1 1
vc 1 1 1 1
vc 1 1 1 1
vc 1 1 1 1
vc 1 1 1 1
vc 1 1 1 1
vc 1 1 1 1
vc 1 1 1 1
vc 1 1 1 1
vc 1 1 1 1
vc 1 1 1 1
vc 1 1 1 1
vc 1 1 1 1
vc 1 1 1 1
vc 1 1 1 1
vc 1 1 1 1
vc 1 1 1 1
vc 1 1 1 1
vc 1 1 1 1
vc 1 1 1 1
vc 1 1 1 1
vc 1 1 1 1
vc 1 1 1 1
vc 1 1 1 1
vc 1 1 1 1
vc 1 1 1 1
vc 1 1 1 1
vc 1 1 1 1
vc 1 1 1 1
vc 1 1 1 1
vc 1 1 1 1
vc 1 1 1 1
vc 1 1 1 1
vc 1 1 1 1
vc 1 1 1 1
vc 1 1 1 1
vc 1 1 1 1
vc 1 1 1 1
vc 1 1 1 1
vc 1 1 1 1
vc 1 1 1 1
vc 1 1 1 1
vc 1 1 1 1
vc 1 1 1 1
vc 1 1 1 1
vc 1 1 1 1
vc 1 1 1 1
vc 1 1 1 1
vc 1 1 1 1
vc 1 1 1 1
vc 1 1 1 1
vc 1 1 1 1
vc 1 1 1 1
vc 1 1 1 1
vc 1 1 1 1
vc 1 1 1 1
vc 1 1 1 1
vc 1 1 1 1
vc 1 1 1 1
vc 1 1 1 1
vc 1 1 1 1
vc 1 1 1 1
vc 1 1 1 1
vc 1 1 1 1
vc 1 1 1 1
vc 1 1 1 1
vc 1 1 1 1
vc 1 1 1 1
vc 1 1 1 1
vc 1 1 1 1
vc 1 1 1 1
vc 1 1 1 1
vc 1 1 1 1
vc 1 1 1 1
vc 1 1 1 1
vc 1 1 1 1
vc 1 1 1 1
vc 1 1 1 1
vc 1 1 1 1
vc 1 1 1 1
vc 1 1 1 1
vc 1 1 1 1
vc 1 1 1 1
vc 1 1 1 1
vc 1 1 1 1
vc 1 1 1 1
vc 1 1 1 1
vc 1 1 1 1
vc 1 1 1 1
vc 1 1 1 1
vc 1 1 1 1
vc 1 1 1 1
vc 1 1 1 1
vc 1 1 1 1
vc 1 1 1 1
vc 1 1 1 1
vc 1 1 1 1
vc 1 1 1 1
vc 1 1 1 1
vc 1 1 1 1
vc 1 1 1 1
vc 1 1 1 1
vc 1 1 1 1
vc 1 1 1 1
vc 1 1 1 1
vc 1 1 1 1
vc 1 1 1 1
vc 1 1 1 1
vc 1 1 1 1
vc 1 1 1 1
vc 1 1 1 1
vc 1 1 1 1
vc 1 1 1 1
vc 1 1 1 1
vc 1 1 1 1
vc 1 1 1 1
vc 1 1 1 1
vc 1 1 1 1
vc 1 1 1 1
vc 1 1 1 1
vc 1 1 1 1
vc 1 1 1 1
vc 1 1 1 1
vc 1 1 1 1
vc 1 1 1 1
vc 1 1 1 1
vc 1 1 1 1
vc 1 1 1 1
vc 1 1 1 1
vc 1 1 1 1
vc 1 1 1 1
vc 1 1 1 1
vc 1 1 1 1
vc 1 1 1 1
vc 1 1 1 1
vc 1 1 1 1
vc 1 1 1 1
vc 1 1 1 1
vc 1 1 1 1
vc 1 1 1 1
vc 1 1 1 1
vc 1 1 1 1
vc 1 1 1 1
vc 1 1 1 1
vc 1 1 1 1
vc 1 1 1 1
vc 1 1 1 1
vc 1 1 1 1
vc 1 1 1 1
vc 1 1 1 1
vc 1 1 1 1
vc 1 1 1 1
vc 1 1 1 1
vc 1 1 1 1
vc 1 1 1 1
vc 1 1 1 1
vc 1 1 1 1
vc 1 1 1 1
vc 1 1 1 1
vc 1 1 1 1
vc 1 1 1 1
vc 1 1 1 1
vc 1 1 1 1
vc 1 1 1 1
vc 1 1 1 1
vc 1 1 1 1
vc 1 1 1 1
vc 1 1 1 1
vc 1 1 1 1
vc 1 1 1 1
vc 1 1 1 1
vc 1 1 1 1
vc 1 1 1 1
vc 1 1 1 1
vc 1 1 1 1
vc 1 1 1 1
vc 1 1 1 1
vc 1 1 1 1
vc 1 1 1 1
vc 1 1 1 1
vc 1 1 1 1
vc 1 1 1 1
vc 1 1 1 1
vc 1 1 1 1
vc 1 1 1 1
vc 1 1 1 1
vc 1 1 1 1
vc 1 1 1 1
vc 1 1 1 1
vc 1 1 1 1
vc 1 1 1 1
vc 1 1 1 1
vc 1 1 1 1
vc 1 1 1 1
vc 1 1 1 1
vc 1 1 1 1
vc 1 1 1 1
vc 1 1 1 1
vc 1 1 1 1
vc 1 1 1 1
vc 1 1 1 1
vc 1 1 1 1
vc 1 1 1 1
vc 1 1 1 1
vc 1 1 1 1
vc 1 1 1 1
vc 1 1 1 1
vc 1 1 1 1
vc 1 1 1 1
vc 1 1 1 1
vc 1 1 1 1
vc 1 1 1 1
vc 1 1 1 1
vc 1 1 1 1
vc 1 1 1 1
vc 1 1 1 1
vc 1 1 1 1
vc 1 1 1 1
vc 1 1 1 1
vc 1 1 1 1
vc 1 1 1 1
vc 1 1 1 1
vc 1 1 1 1
vc 1 1 1 1
vc 1 1 1 1
vc 1 1 1 1
vc 1 1 1 1
vc 1 1 1 1
vc 1 1 1 1
vc 1 1 1 1
vc 1 1 1 1
vc 1 1 1 1
vc 1 1 1 1
vc 1 1 1 1
vc 1 1 1 1
vc 1 1 1 1
vc 1 1 1 1
vc 1 1 1 1
vc 1 1 1 1
vc 1 1 1 1
vc 1 1 1 1
vc 1 1 1 1
vc 1 1 1 1

usemtl Default-Diffuse
usemap Default-Diffuse
f 3/3/3 2/2/2 1/1/1
f 3/3/3 4/4/4 2/2/2
f 4/4/4 5/5/5 2/2/2
f 4/4/4 6/6/6 5/5/5
f 9/9/9 8/8/8 7/7/7
f 9/9/9 10/10/10 8/8/8
f 10/10/10 11/11/11 8/8/8
f 10/10/10 12/12/12 11/11/11
f 15/15/15 14/14/14 13/13/13
f 15/15/15 16/16/16 14/14/14
f 19/19/19 18/18/18 17/17/17
f 19/19/19 20/20/20 18/18/18
f 21/21/21 4/4/4 3/3/3
f 21/21/21 22/22/22 4/4/4
f 22/22/22 6/6/6 4/4/4
f 22/22/22 23/23/23 6/6/6
f 24/24/24 10/10/10 9/9/9
f 24/24/24 25/25/25 10/10/10
f 25/25/25 12/12/12 10/10/10
f 25/25/25 26/26/26 12/12/12
f 27/27/27 16/16/16 15/15/15
f 27/27/27 28/28/28 16/16/16
f 29/29/29 20/20/20 19/19/19
f 29/29/29 30/30/30 20/20/20
f 31/31/31 22/22/22 21/21/21
f 31/31/31 32/32/32 22/22/22
f 32/32/32 23/23/23 22/22/22
f 32/32/32 33/33/33 23/23/23
f 34/34/34 25/25/25 24/24/24
f 34/34/34 35/35/35 25/25/25
f 35/35/35 26/26/26 25/25/25
f 35/35/35 36/36/36 26/26/26
f 37/37/37 28/28/28 27/27/27
f 37/37/37 38/38/38 28/28/28
f 39/39/39 30/30/30 29/29/29
f 39/39/39 40/40/40 30/30/30
f 41/41/41 32/32/32 31/31/31
f 41/41/41 42/42/42 32/32/32
f 42/42/42 33/33/33 32/32/32
f 42/42/42 43/43/43 33/33/33
f 44/44/44 35/35/35 34/34/34
f 44/44/44 45/45/45 35/35/35
f 45/45/45 36/36/36 35/35/35
f 47/47/47 46/46/46 37/37/37
f 46/46/46 38/38/38 37/37/37
f 46/46/46 48/48/48 38/38/38
f 49/49/49 40/40/40 39/39/39
f 49/49/49 50/50/50 40/40/40
f 51/51/51 42/42/42 41/41/41
f 51/51/51 52/52/52 42/42/42
f 52/52/52 43/43/43 42/42/42
f 52/52/52 53/53/53 43/43/43
f 54/54/54 45/45/45 44/44/44
f 54/54/54 55/55/55 45/45/45
f 55/55/55 56/56/56 45/45/45
f 58/58/58 57/57/57 46/46/46
f 57/57/57 48/48/48 46/46/46
f 57/57/57 59/59/59 48/48/48
f 60/60/60 50/50/50 49/49/49
f 60/60/60 61/61/61 50/50/50
f 62/62/62 52/52/52 51/51/51
f 62/62/62 63/63/63 52/52/52
f 63/63/63 53/53/53 52/52/52
f 63/63/63 64/64/64 53/53/53
f 65/65/65 55/55/55 54/54/54
f 65/65/65 66/66/66 55/55/55
f 69/69/69 68/68/68 67/67/67
f 69/69/69 70/70/70 68/68/68
f 71/71/71 59/59/59 57/57/57
f 71/71/71 72/72/72 59/59/59
f 73/73/73 61/61/61 60/60/60
f 73/73/73 74/74/74 61/61/61
f 75/75/75 63/63/63 62/62/62
f 75/75/75 76/76/76 63/63/63
f 76/76/76 64/64/64 63/63/63
f 76/76/76 77/77/77 64/64/64
f 80/80/80 79/79/79 78/78/78
f 80/80/80 81/81/81 79/79/79
f 82/82/82 70/70/70 69/69/69
f 82/82/82 83/83/83 70/70/70
f 84/84/84 72/72/72 71/71/71
f 84/84/84 85/85/85 72/72/72
f 88/88/88 87/87/87 86/86/86
f 88/88/88 89/89/89 87/87/87
f 92/92/92 91/91/91 90/90/90
f 92/92/92 93/93/93 91/91/91
f 94/94/94 77/77/77 76/76/76
f 94/94/94 95/95/95 77/77/77
f 96/96/96 81/81/81 80/80/80
f 96/96/96 97/97/97 81/81/81
f 98/98/98 83/83/83 82/82/82
f 98/98/98 99/99/99 83/83/83
f 100/100/100 85/85/85 84/84/84
f 100/100/100 101/101/101 85/85/85
f 102/102/102 89/89/89 88/88/88
f 102/102/102 103/103/103 89/89/89
f 104/104/104 93/93/93 92/92/92
f 104/104/104 105/105/105 93/93/93
f 106/106/106 95/95/95 94/94/94
f 106/106/106 107/107/107 95/95/95
f 108/108/108 97/97/97 96/96/96
f 108/108/108 109/109/109 97/97/97
f 110/110/110 99/99/99 98/98/98
f 110/110/110 111/111/111 99/99/99
f 112/112/112 101/101/101 100/100/100
f 112/112/112 113/113/113 101/101/101
f 114/114/114 103/103/103 102/102/102
f 114/114/114 115/115/115 103/103/103
f 116/116/116 105/105/105 104/104/104
f 116/116/116 117/117/117 105/105/105
f 118/118/118 107/107/107 106/106/106
f 118/118/118 119/119/119 107/107/107
f 120/120/120 109/109/109 108/108/108
f 120/120/120 121/121/121 109/109/109
f 122/122/122 111/111/111 110/110/110
f 122/122/122 123/123/123 111/111/111
f 124/124/124 113/113/113 112/112/112
f 124/124/124 125/125/125 113/113/113
f 126/126/126 115/115/115 114/114/114
f 126/126/126 127/127/127 115/115/115
f 128/128/128 117/117/117 116/116/116
f 128/128/128 129/129/129 117/117/117
f 130/130/130 119/119/119 118/118/118
f 130/130/130 131/131/131 119/119/119
f 132/132/132 121/121/121 120/120/120
f 132/132/132 133/133/133 121/121/121
f 134/134/134 123/123/123 122/122/122
f 134/134/134 135/135/135 123/123/123
f 136/136/136 125/125/125 124/124/124
f 136/136/136 137/137/137 125/125/125
f 138/138/138 127/127/127 126/126/126
f 138/138/138 139/139/139 127/127/127
f 140/140/140 129/129/129 128/128/128
f 140/140/140 141/141/141 129/129/129
f 142/142/142 131/131/131 130/130/130
f 142/142/142 143/143/143 131/131/131
f 144/144/144 133/133/133 132/132/132
f 144/144/144 145/145/145 133/133/133
f 146/146/146 135/135/135 134/134/134
f 146/146/146 147/147/147 135/135/135
f 148/148/148 137/137/137 136/136/136
f 148/148/148 149/149/149 137/137/137
f 150/150/150 139/139/139 138/138/138
f 150/150/150 151/151/151 139/139/139
f 152/152/152 141/141/141 140/140/140
f 152/152/152 153/153/153 141/141/141
f 154/154/154 143/143/143 142/142/142
f 154/154/154 155/155/155 143/143/143
f 156/156/156 145/145/145 144/144/144
f 156/156/156 157/157/157 145/145/145
f 158/158/158 147/147/147 146/146/146
f 158/158/158 159/159/159 147/147/147
f 160/160/160 149/149/149 148/148/148
f 160/160/160 161/161/161 149/149/149
f 162/162/162 151/151/151 150/150/150
f 162/162/162 163/163/163 151/151/151
f 164/164/164 153/153/153 152/152/152
f 164/164/164 165/165/165 153/153/153
f 166/166/166 155/155/155 154/154/154
f 166/166/166 167/167/167 155/155/155
f 168/168/168 157/157/157 156/156/156
f 168/168/168 169/169/169 157/157/157
f 170/170/170 159/159/159 158/158/158
f 170/170/170 171/171/171 159/159/159
f 172/172/172 161/161/161 160/160/160
f 172/172/172 173/173/173 161/161/161
f 174/174/174 163/163/163 162/162/162
f 174/174/174 175/175/175 163/163/163
f 176/176/176 165/165/165 164/164/164
f 176/176/176 177/177/177 165/165/165
f 178/178/178 167/167/167 166/166/166
f 178/178/178 179/179/179 167/167/167
f 180/180/180 169/169/169 168/168/168
f 180/180/180 181/181/181 169/169/169
f 182/182/182 171/171/171 170/170/170
f 182/182/182 183/183/183 171/171/171
f 184/184/184 173/173/173 172/172/172
f 184/184/184 185/185/185 173/173/173
f 186/186/186 175/175/175 174/174/174
f 186/186/186 187/187/187 175/175/175
f 188/188/188 177/177/177 176/176/176
f 188/188/188 189/189/189 177/177/177
f 190/190/190 179/179/179 178/178/178
f 190/190/190 191/191/191 179/179/179
f 192/192/192 181/181/181 180/180/180
f 192/192/192 193/193/193 181/181/181
f 194/194/194 183/183/183 182/182/182
f 194/194/194 195/195/195 183/183/183
f 196/196/196 185/185/185 184/184/184
f 196/196/196 197/197/197 185/185/185
f 198/198/198 187/187/187 186/186/186
f 198/198/198 199/199/199 187/187/187
f 200/200/200 189/189/189 188/188/188
f 200/200/200 201/201/201 189/189/189
f 202/202/202 191/191/191 190/190/190
f 202/202/202 203/203/203 191/191/191
f 204/204/204 193/193/193 192/192/192
f 204/204/204 205/205/205 193/193/193
f 206/206/206 195/195/195 194/194/194
f 206/206/206 207/207/207 195/195/195
f 208/208/208 197/197/197 196/196/196
f 208/208/208 209/209/209 197/197/197
f 210/210/210 199/199/199 198/198/198
f 210/210/210 211/211/211 199/199/199
f 212/212/212 201/201/201 200/200/200
f 212/212/212 213/213/213 201/201/201
f 214/214/214 203/203/203 202/202/202
f 213/213/213 216/216/216 215/215/215
f 217/217/217 205/205/205 204/204/204
f 217/217/217 218/218/218 205/205/205
f 219/219/219 207/207/207 206/206/206
f 219/219/219 220/220/220 207/207/207
f 221/221/221 209/209/209 208/208/208
f 221/221/221 222/222/222 209/209/209
f 223/223/223 211/211/211 210/210/210
f 223/223/223 224/224/224 211/211/211
f 225/225/225 213/213/213 212/212/212
f 225/225/225 226/226/226 213/213/213
f 226/226/226 216/216/216 213/213/213
f 226/226/226 227/227/227 216/216/216
f 228/228/228 218/218/218 217/217/217
f 228/228/228 229/229/229 218/218/218
f 230/230/230 220/220/220 219/219/219
f 230/230/230 231/231/231 220/220/220
f 232/232/232 222/222/222 221/221/221
f 232/232/232 233/233/233 222/222/222
f 234/234/234 224/224/224 223/223/223
f 234/234/234 235/235/235 224/224/224
f 236/236/236 226/226/226 225/225/225
f 236/236/236 237/237/237 226/226/226
f 237/237/237 227/227/227 226/226/226
f 237/237/237 238/238/238 227/227/227
f 241/241/241 240/240/240 239/239/239
f 241/241/241 242/242/242 240/240/240
f 243/243/243 231/231/231 230/230/230
f 243/243/243 244/244/244 231/231/231
f 244/244/244 245/245/245 231/231/231
f 244/244/244 246/246/246 245/245/245
f 249/249/249 248/248/248 247/247/247
f 249/249/249 250/250/250 248/248/248
f 253/253/253 252/252/252 251/251/251
f 253/253/253 254/254/254 252/252/252
f 255/255/255 238/238/238 237/237/237
f 255/255/255 256/256/256 238/238/238
f 257/257/257 242/242/242 241/241/241
f 257/257/257 258/258/258 242/242/242
f 258/258/258 259/259/259 242/242/242
f 258/258/258 260/260/260 259/259/259
f 261/261/261 246/246/246 244/244/244
f 261/261/261 262/262/262 246/246/246
f 263/263/263 250/250/250 249/249/249
f 263/263/263 264/264/264 250/250/250
f 265/265/265 254/254/254 253/253/253
f 265/265/265 266/266/266 254/254/254
f 267/267/267 256/256/256 255/255/255
f 267/267/267 268/268/268 256/256/256
f 269/269/269 258/258/258 257/257/257
f 269/269/269 270/270/270 258/258/258
f 270/270/270 260/260/260 258/258/258
f 270/270/270 271/271/271 260/260/260
f 272/272/272 262/262/262 261/261/261
f 272/272/272 273/273/273 262/262/262
f 274/274/274 264/264/264 263/263/263
f 274/274/274 275/275/275 264/264/264
f 276/276/276 266/266/266 265/265/265
f 276/276/276 277/277/277 266/266/266
f 278/278/278 268/268/268 267/267/267
f 278/278/278 279/279/279 268/268/268
f 280/280/280 270/270/270 269/269/269
f 279/279/279 282/282/282 281/281/281
f 283/283/283 271/271/271 270/270/270
f 283/283/283 284/284/284 271/271/271
f 285/285/285 273/273/273 272/272/272
f 285/285/285 286/286/286 273/273/273
f 289/289/289 288/288/288 287/287/287
f 292/292/292 291/291/291 290/290/290
f 293/293/293 277/277/277 276/276/276
f 293/293/293 294/294/294 277/277/277
f 295/295/295 279/279/279 278/278/278
f 295/295/295 296/296/296 279/279/279
f 296/296/296 282/282/282 279/279/279
f 296/296/296 297/297/297 282/282/282
f 298/298/298 284/284/284 283/283/283
f 298/298/298 299/299/299 284/284/284
f 300/300/300 286/286/286 285/285/285
f 299/299/299 302/302/302 301/301/301
f 303/303/303 291/291/291 292/292/292
f 303/303/303 304/304/304 291/291/291
f 305/305/305 294/294/294 293/293/293
f 305/305/305 306/306/306 294/294/294
f 307/307/307 296/296/296 295/295/295
f 306/306/306 309/309/309 308/308/308
f 310/310/310 297/297/297 296/296/296
f 310/310/310 311/311/311 297/297/297
f 312/312/312 299/299/299 298/298/298
f 312/312/312 313/313/313 299/299/299
f 313/313/313 302/302/302 299/299/299
f 313/313/313 314/314/314 302/302/302
f 315/315/315 304/304/304 303/303/303
f 315/315/315 316/316/316 304/304/304
f 317/317/317 306/306/306 305/305/305
f 317/317/317 318/318/318 306/306/306
f 318/318/318 309/309/309 306/306/306
f 318/318/318 319/319/319 309/309/309
f 320/320/320 311/311/311 310/310/310
f 320/320/320 321/321/321 311/311/311
f 322/322/322 313/313/313 312/312/312
f 322/322/322 323/323/323 313/313/313
f 323/323/323 314/314/314 313/313/313
f 323/323/323 324/324/324 314/314/314
f 325/325/325 316/316/316 315/315/315
f 325/325/325 326/326/326 316/316/316
f 327/327/327 318/318/318 317/317/317
f 327/327/327 328/328/328 318/318/318
f 328/328/328 319/319/319 318/318/318
f 330/330/330 329/329/329 320/320/320
f 329/329/329 321/321/321 320/320/320
f 329/329/329 331/331/331 321/321/321
f 332/332/332 323/323/323 322/322/322
f 332/332/332 333/333/333 323/323/323
f 333/333/333 324/324/324 323/323/323
f 333/333/333 334/334/334 324/324/324
f 335/335/335 326/326/326 325/325/325
f 335/335/335 336/336/336 326/326/326
f 337/337/337 328/328/328 327/327/327
f 337/337/337 338/338/338 328/328/328
f 339/339/339 329/329/329 330/330/330
f 339/339/339 340/340/340 329/329/329
f 340/340/340 331/331/331 329/329/329
f 340/340/340 341/341/341 331/331/331
f 342/342/342 333/333/333 332/332/332
f 342/342/342 343/343/343 333/333/333
f 343/343/343 334/334/334 333/333/333
f 343/343/343 344/344/344 334/334/334
f 345/345/345 336/336/336 335/335/335
f 345/345/345 346/346/346 336/336/336
f 347/347/347 338/338/338 337/337/337
f 347/347/347 348/348/348 338/338/338
f 349/349/349 340/340/340 339/339/339
f 349/349/349 350/350/350 340/340/340
f 350/350/350 341/341/341 340/340/340
f 350/350/350 351/351/351 341/341/341
f 352/352/352 343/343/343 342/342/342
f 352/352/352 353/353/353 343/343/343
f 353/353/353 344/344/344 343/343/343
f 355/355/355 354/354/354 345/345/345
f 354/354/354 346/346/346 345/345/345
f 354/354/354 356/356/356 346/346/346
f 357/357/357 348/348/348 347/347/347
f 357/357/357 358/358/358 348/348/348
f 359/359/359 350/350/350 349/349/349
f 359/359/359 360/360/360 350/350/350
f 362/362/362 352/352/352 361/361/361
f 362/362/362 363/363/363 352/352/352
f 363/363/363 353/353/353 352/352/352
f 363/363/363 364/364/364 353/353/353
f 365/365/365 354/354/354 355/355/355
f 365/365/365 366/366/366 354/354/354
f 366/366/366 356/356/356 354/354/354
f 369/369/369 368/368/368 367/367/367
f 370/370/370 358/358/358 357/357/357
f 370/370/370 371/371/371 358/358/358
f 372/372/372 360/360/360 359/359/359
f 372/372/372 373/373/373 360/360/360
f 374/374/374 363/363/363 362/362/362
f 374/374/374 375/375/375 363/363/363
f 375/375/375 364/364/364 363/363/363
f 375/375/375 376/376/376 364/364/364
f 377/377/377 366/366/366 365/365/365
f 377/377/377 378/378/378 366/366/366
f 379/379/379 368/368/368 369/369/369
f 379/379/379 380/380/380 368/368/368
f 381/381/381 371/371/371 370/370/370
f 381/381/381 382/382/382 371/371/371
f 383/383/383 373/373/373 372/372/372
f 383/383/383 384/384/384 373/373/373
f 385/385/385 375/375/375 374/374/374
f 385/385/385 386/386/386 375/375/375
f 386/386/386 376/376/376 375/375/375
f 386/386/386 387/387/387 376/376/376
f 388/388/388 378/378/378 377/377/377
f 388/388/388 389/389/389 378/378/378
f 390/390/390 380/380/380 379/379/379
f 390/390/390 391/391/391 380/380/380
