g tube
v -2.310359 1.427971 -4.39798
v -2.312562 1.427976 -4.396798
v -2.310121 1.423162 -4.397517
v -2.312324 1.423161 -4.396334
v -2.312562 1.427976 -4.396798
v -2.312645 1.428211 -4.39431
v -2.312324 1.423161 -4.396334
v -2.312407 1.423394 -4.393847
v -2.312645 1.428211 -4.39431
v -2.310526 1.428442 -4.393004
v -2.312407 1.423394 -4.393847
v -2.310287 1.423628 -4.392541
v -2.310526 1.428442 -4.393004
v -2.308323 1.428437 -4.394186
v -2.310287 1.423628 -4.392541
v -2.308085 1.423629 -4.393724
v -2.308323 1.428437 -4.394186
v -2.30824 1.428202 -4.396674
v -2.308085 1.423629 -4.393724
v -2.308002 1.423396 -4.396212
v -2.30824 1.428202 -4.396674
v -2.310359 1.427971 -4.39798
v -2.308002 1.423396 -4.396212
v -2.310121 1.423162 -4.397517
v -2.309378 1.409333 -4.396211
v -2.31158 1.40932 -4.395028
v -2.31158 1.40932 -4.395028
v -2.311664 1.409547 -4.392539
v -2.311664 1.409547 -4.392539
v -2.309545 1.409788 -4.391234
v -2.309545 1.409788 -4.391234
v -2.307343 1.409802 -4.392417
v -2.307343 1.409802 -4.392417
v -2.307259 1.409574 -4.394906
v -2.307259 1.409574 -4.394906
v -2.309378 1.409333 -4.396211
v -2.308086 1.387383 -4.394183
v -2.310287 1.387355 -4.392999
v -2.310287 1.387355 -4.392999
v -2.310371 1.387577 -4.390511
v -2.310371 1.387577 -4.390511
v -2.308253 1.387827 -4.389206
v -2.308253 1.387827 -4.389206
v -2.306052 1.387855 -4.39039
v -2.306052 1.387855 -4.39039
v -2.305968 1.387633 -4.392879
v -2.305968 1.387633 -4.392879
v -2.308086 1.387383 -4.394183
v -2.306202 1.358215 -4.391557
v -2.308403 1.358171 -4.390372
v -2.308403 1.358171 -4.390372
v -2.308486 1.358386 -4.387883
v -2.308486 1.358386 -4.387883
v -2.30637 1.358645 -4.386579
v -2.30637 1.358645 -4.386579
v -2.304169 1.358689 -4.387764
v -2.304169 1.358689 -4.387764
v -2.304085 1.358474 -4.390253
v -2.304085 1.358474 -4.390253
v -2.306202 1.358215 -4.391557
v -2.303682 1.322729 -4.388455
v -2.305882 1.322667 -4.387269
v -2.305882 1.322667 -4.387269
v -2.305966 1.322875 -4.384779
v -2.305966 1.322875 -4.384779
v -2.303851 1.323145 -4.383475
v -2.303851 1.323145 -4.383475
v -2.301651 1.323207 -4.384661
v -2.301651 1.323207 -4.384661
v -2.301567 1.322999 -4.387151
v -2.301567 1.322999 -4.387151
v -2.303682 1.322729 -4.388455
v -2.300484 1.281828 -4.385
v -2.302683 1.281746 -4.383813
v -2.302683 1.281746 -4.383813
v -2.302767 1.281945 -4.381322
v -2.302767 1.281945 -4.381322
v -2.300653 1.282227 -4.380019
v -2.300653 1.282227 -4.380019
v -2.298454 1.282309 -4.381206
v -2.298454 1.282309 -4.381206
v -2.29837 1.28211 -4.383696
v -2.29837 1.28211 -4.383696
v -2.300484 1.281828 -4.385
v -2.296563 1.236413 -4.381315
v -2.298761 1.236308 -4.380127
v -2.298761 1.236308 -4.380127
v -2.298845 1.236498 -4.377635
v -2.298845 1.236498 -4.377635
v -2.296733 1.236793 -4.376332
v -2.296733 1.236793 -4.376332
v -2.294535 1.236899 -4.37752
v -2.294535 1.236899 -4.37752
v -2.294451 1.236709 -4.380011
v -2.294451 1.236709 -4.380011
v -2.296563 1.236413 -4.381315
v -2.291877 1.187387 -4.377521
v -2.294073 1.187255 -4.376333
v -2.294073 1.187255 -4.376333
v -2.294158 1.187433 -4.37384
v -2.294158 1.187433 -4.37384
v -2.292047 1.187744 -4.372537
v -2.292047 1.187744 -4.372537
v -2.289852 1.187876 -4.373725
v -2.289852 1.187876 -4.373725
v -2.289767 1.187698 -4.376218
v -2.289767 1.187698 -4.376218
v -2.291877 1.187387 -4.377521
v -2.286382 1.13565 -4.373743
v -2.288575 1.135487 -4.372553
v -2.288575 1.135487 -4.372553
v -2.28866 1.135654 -4.37006
v -2.28866 1.135654 -4.37006
v -2.286552 1.135982 -4.368757
v -2.286552 1.135982 -4.368757
v -2.284359 1.136145 -4.369946
v -2.284359 1.136145 -4.369946
v -2.284274 1.135979 -4.372439
v -2.284274 1.135979 -4.372439
v -2.286382 1.13565 -4.373743
v -2.280035 1.082073 -4.3701
v -2.282211 1.0818 -4.3689
v -2.282211 1.0818 -4.3689
v -2.282296 1.081983 -4.366408
v -2.282296 1.081983 -4.366408
v -2.280205 1.08244 -4.365117
v -2.280205 1.08244 -4.365117
v -2.278028 1.082713 -4.366317
v -2.278028 1.082713 -4.366317
v -2.277944 1.082529 -4.368809
v -2.277944 1.082529 -4.368809
v -2.280035 1.082073 -4.3701
v -2.26863 1.030368 -4.365388
v -2.270735 1.029848 -4.364145
v -2.270735 1.029848 -4.364145
v -2.270818 1.030112 -4.36166
v -2.270818 1.030112 -4.36166
v -2.268794 1.030896 -4.360419
v -2.268794 1.030896 -4.360419
v -2.266689 1.031417 -4.361662
v -2.266689 1.031417 -4.361662
v -2.266606 1.031152 -4.364147
v -2.266606 1.031152 -4.364147
v -2.26863 1.030368 -4.365388
v -2.249226 0.9837271 -4.358664
v -2.251196 0.9829416 -4.357341
v -2.251196 0.9829416 -4.357341
v -2.251275 0.9833212 -4.354871
v -2.251275 0.9833212 -4.354871
v -2.249383 0.9844862 -4.353725
v -2.249383 0.9844862 -4.353725
v -2.247413 0.9852717 -4.355048
v -2.247413 0.9852717 -4.355048
v -2.247334 0.9848921 -4.357518
v -2.247334 0.9848921 -4.357518
v -2.249226 0.9837271 -4.358664
v -2.223678 0.9422098 -4.350439
v -2.22549 0.9412329 -4.34902
v -2.22549 0.9412329 -4.34902
v -2.225565 0.9417289 -4.346571
v -2.225565 0.9417289 -4.346571
v -2.223828 0.9432021 -4.345541
v -2.223828 0.9432021 -4.345541
v -2.222016 0.9441791 -4.34696
v -2.222016 0.9441791 -4.34696
v -2.221941 0.943683 -4.349409
v -2.221941 0.943683 -4.349409
v -2.223678 0.9422098 -4.350439
v -2.193845 0.9058424 -4.341225
v -2.195496 0.9047422 -4.339704
v -2.195496 0.9047422 -4.339704
v -2.195566 0.9053565 -4.337281
v -2.195566 0.9053565 -4.337281
v -2.193986 0.9070711 -4.33638
v -2.193986 0.9070711 -4.33638
v -2.192335 0.9081712 -4.337901
v -2.192335 0.9081712 -4.337901
v -2.192264 0.9075569 -4.340323
v -2.192264 0.9075569 -4.340323
v -2.193845 0.9058424 -4.341225
v -2.161583 0.8746498 -4.33153
v -2.163081 0.8734832 -4.329904
v -2.163081 0.8734832 -4.329904
v -2.163147 0.8742186 -4.327516
v -2.163147 0.8742186 -4.327516
v -2.161715 0.8761206 -4.326753
v -2.161715 0.8761206 -4.326753
v -2.160217 0.8772871 -4.328379
v -2.160217 0.8772871 -4.328379
v -2.160151 0.8765517 -4.330768
v -2.160151 0.8765517 -4.330768
v -2.161583 0.8746498 -4.33153
v -2.128749 0.8486561 -4.321866
v -2.130105 0.8474692 -4.320133
v -2.130105 0.8474692 -4.320133
v -2.130167 0.8483312 -4.317787
v -2.130167 0.8483312 -4.317787
v -2.128872 0.8503799 -4.317173
v -2.128872 0.8503799 -4.317173
v -2.127516 0.8515668 -4.318906
v -2.127516 0.8515668 -4.318906
v -2.127455 0.8507048 -4.321252
v -2.127455 0.8507048 -4.321252
v -2.128749 0.8486561 -4.321866
v -2.097202 0.827881 -4.312737
v -2.098423 0.8267151 -4.310893
v -2.098423 0.8267151 -4.310893
v -2.098478 0.8277156 -4.308602
v -2.098478 0.8277156 -4.308602
v -2.097313 0.8298822 -4.308156
v -2.097313 0.8298822 -4.308156
v -2.096093 0.8310482 -4.31
v -2.096093 0.8310482 -4.31
v -2.096037 0.8300476 -4.312291
v -2.096037 0.8300476 -4.312291
v -2.097202 0.827881 -4.312737
v -2.068799 0.812333 -4.304643
v -2.069879 0.8112381 -4.302672
v -2.069879 0.8112381 -4.302672
v -2.069927 0.8124076 -4.300463
v -2.069927 0.8124076 -4.300463
v -2.068895 0.8146721 -4.300225
v -2.068895 0.8146721 -4.300225
v -2.067815 0.815767 -4.302196
v -2.067815 0.815767 -4.302196
v -2.067767 0.8145975 -4.304405
v -2.067767 0.8145975 -4.304405
v -2.068799 0.812333 -4.304643
v -2.045401 0.8019691 -4.298037
v -2.046304 0.8010648 -4.295888
v -2.069879 0.8112381 -4.302672
v -2.046304 0.8010648 -4.295888
v -2.046339 0.8025028 -4.293843
v -2.045471 0.804845 -4.293947
v -2.045471 0.804845 -4.293947
v -2.044568 0.8057493 -4.296096
v -2.044568 0.8057493 -4.296096
v -2.044533 0.8043114 -4.298141
v -2.044533 0.8043114 -4.298141
v -2.045401 0.8019691 -4.298037
v -2.028854 0.7970541 -4.293579
v -2.02934 0.7961889 -4.291284
v -2.02934 0.7961889 -4.291284
v -2.029367 0.7977567 -4.289337
v -2.02891 0.8001897 -4.289685
v -2.02891 0.8001897 -4.289685
v -2.028424 0.8010549 -4.291979
v -2.028424 0.8010549 -4.291979
v -2.028397 0.7994871 -4.293926
v -2.028397 0.7994871 -4.293926
v -2.028854 0.7970541 -4.293579
v -2.008425 0.7999222 -4.29002
v -2.02934 0.7961889 -4.291284
v -2.008477 0.7993934 -4.292463
v -2.008425 0.7999222 -4.29002
v -2.008477 0.7993934 -4.292463
v -2.029367 0.7977567 -4.289337
v -2.008514 0.797013 -4.293226
v -2.008514 0.797013 -4.293226
v -2.02891 0.8001897 -4.289685
v -2.008499 0.7951614 -4.291546
v -2.008514 0.797013 -4.293226
v -2.008499 0.7951614 -4.291546
v -2.028424 0.8010549 -4.291979
v -2.008447 0.7956902 -4.289103
v -2.008499 0.7951614 -4.291546
v -2.008447 0.7956902 -4.289103
v -2.028397 0.7994871 -4.293926
v -2.008411 0.7980706 -4.28834
v -2.008447 0.7956902 -4.289103
v -2.008411 0.7980706 -4.28834
v -2.028854 0.7970541 -4.293579
v -2.008425 0.7999222 -4.29002
v -2.008411 0.7980706 -4.28834
v -1.974526 0.8007882 -4.29211
v -1.974766 0.8009336 -4.294595
v -2.008514 0.797013 -4.293226
v -1.974773 0.7988486 -4.295974
v -2.008514 0.797013 -4.293226
v -2.008499 0.7951614 -4.291546
v -1.974773 0.7988486 -4.295974
v -1.97454 0.7966181 -4.294869
v -2.008499 0.7951614 -4.291546
v -1.97454 0.7966181 -4.294869
v -1.9743 0.7964727 -4.292385
v -1.974293 0.7985577 -4.291006
v -1.974293 0.7985577 -4.291006
v -1.974526 0.8007882 -4.29211
v -1.930578 0.8041661 -4.296468
v -1.930887 0.8047198 -4.298886
v -1.930874 0.8028972 -4.300597
v -1.930874 0.8028972 -4.300597
v -1.930553 0.8005209 -4.299891
v -1.930553 0.8005209 -4.299891
v -1.930244 0.7999672 -4.297472
v -1.930257 0.8017898 -4.295761
v -1.930257 0.8017898 -4.295761
v -1.930578 0.8041661 -4.296468
v -1.880068 0.8101317 -4.301232
v -1.880419 0.8111631 -4.303482
v -1.880384 0.8097325 -4.305532
v -1.880384 0.8097325 -4.305532
v -1.879998 0.8072706 -4.305332
v -1.879998 0.8072706 -4.305332
v -1.930244 0.7999672 -4.297472
v -1.879647 0.8062392 -4.303082
v -1.879998 0.8072706 -4.305332
v -1.879647 0.8062392 -4.303082
v -1.879682 0.8076698 -4.301032
v -1.879682 0.8076698 -4.301032
v -1.880068 0.8101317 -4.301232
v -1.880068 0.8101317 -4.301232
v -1.880419 0.8111631 -4.303482
v -1.826471 0.8188707 -4.304878
v -1.826881 0.8204299 -4.306789
v -1.826881 0.8204299 -4.306789
v -1.82682 0.8195732 -4.309137
v -1.82682 0.8195732 -4.309137
v -1.879998 0.8072706 -4.305332
v -1.826348 0.8171574 -4.309574
v -1.826348 0.8171574 -4.309574
v -1.825937 0.8155983 -4.307663
v -1.825937 0.8155983 -4.307663
v -1.825999 0.8164549 -4.305315
v -1.825999 0.8164549 -4.305315
v -1.826471 0.8188707 -4.304878
v -1.773253 0.8306571 -4.305948
v -1.773787 0.8326711 -4.307329
v -1.773787 0.8326711 -4.307329
v -1.7737 0.8325343 -4.309824
v -1.77308 0.8303834 -4.310937
v -1.77308 0.8303834 -4.310937
v -1.772547 0.8283693 -4.309556
v -1.772547 0.8283693 -4.309556
v -1.772633 0.8285062 -4.307061
v -1.772633 0.8285062 -4.307061
v -1.773253 0.8306571 -4.305948
v -1.723881 0.8458825 -4.302929
v -1.724654 0.8481258 -4.303717
v -1.724654 0.8481258 -4.303717
v -1.724551 0.8487009 -4.306148
v -1.723674 0.8470328 -4.307791
v -1.723674 0.8470328 -4.307791
v -1.722901 0.8447896 -4.307003
v -1.722901 0.8447896 -4.307003
v -1.723004 0.8442144 -4.304572
v -1.773253 0.8306571 -4.305948
v -1.723881 0.8458825 -4.302929
v -1.681826 0.8649287 -4.294183
v -1.683 0.8671079 -4.294534
v -1.683 0.8671079 -4.294534
v -1.682889 0.8682436 -4.296758
v -1.681604 0.8672001 -4.298632
v -1.681604 0.8672001 -4.298632
v -1.68043 0.865021 -4.298281
v -1.723004 0.8442144 -4.304572
v -1.680541 0.8638853 -4.296056
v -1.680541 0.8638853 -4.296056
v -1.681826 0.8649287 -4.294183
v -1.650565 0.8880606 -4.27803
v -1.652258 0.8898784 -4.278311
v -1.683 0.8671079 -4.294534
v -1.682889 0.8682436 -4.296758
v -1.652258 0.8898784 -4.278311
v -1.652146 0.891396 -4.280295
v -1.652146 0.891396 -4.280295
v -1.65034 0.8910961 -4.281998
v -1.68043 0.865021 -4.298281
v -1.648647 0.8892783 -4.281717
v -1.648647 0.8892783 -4.281717
v -1.648759 0.8877606 -4.279733
v -1.648759 0.8877606 -4.279733
v -1.650565 0.8880606 -4.27803
v -1.650565 0.8880606 -4.27803
v -1.652258 0.8898784 -4.278311
v -1.633574 0.9154428 -4.252873
v -1.635585 0.9168497 -4.253347
v -1.635585 0.9168497 -4.253347
v -1.635474 0.9186445 -4.255084
v -1.635474 0.9186445 -4.255084
v -1.633351 0.9190325 -4.256346
v -1.63134 0.9176256 -4.255872
v -1.648647 0.8892783 -4.281717
v -1.648759 0.8877606 -4.279733
v -1.63134 0.9176256 -4.255872
v -1.631451 0.9158307 -4.254136
v -1.631451 0.9158307 -4.254136
v -1.633574 0.9154428 -4.252873
v -1.626043 0.9428719 -4.219508
v -1.628131 0.9441417 -4.220037
v -1.628131 0.9441417 -4.220037
v -1.628023 0.9461715 -4.221493
v -1.628023 0.9461715 -4.221493
v -1.625829 0.9469314 -4.222418
v -1.623742 0.9456615 -4.221889
v -1.623742 0.9456615 -4.221889
v -1.623849 0.9436318 -4.220433
v -1.623849 0.9436318 -4.220433
v -1.626043 0.9428719 -4.219508
v -1.620796 0.9662726 -4.180833
v -1.622899 0.9675423 -4.181295
v -1.622899 0.9675423 -4.181295
v -1.622797 0.9697425 -4.182477
v -1.622797 0.9697425 -4.182477
v -1.620592 0.9706731 -4.183198
v -1.618488 0.9694034 -4.182737
v -1.618488 0.9694034 -4.182737
v -1.61859 0.9672031 -4.181554
v -1.61859 0.9672031 -4.181554
v -1.620796 0.9662726 -4.180833
v -1.617746 0.9859472 -4.138492
v -1.619859 0.9872128 -4.13892
v -1.619859 0.9872128 -4.13892
v -1.619762 0.9895189 -4.13988
v -1.619762 0.9895189 -4.13988
v -1.617552 0.9905594 -4.140413
v -1.615439 0.9892938 -4.139985
v -1.615439 0.9892938 -4.139985
v -1.615536 0.9869877 -4.139025
v -1.615536 0.9869877 -4.139025
v -1.617746 0.9859472 -4.138492
v -1.616809 1.002172 -4.094179
v -1.618927 1.003433 -4.094599
v -1.618927 1.003433 -4.094599
v -1.618834 1.005806 -4.09538
v -1.618834 1.005806 -4.09538
v -1.616625 1.006918 -4.095741
v -1.614507 1.005657 -4.095322
v -1.614507 1.005657 -4.095322
v -1.614599 1.003284 -4.094541
v -1.614599 1.003284 -4.094541
v -1.616809 1.002172 -4.094179
v -1.6179 1.015234 -4.04959
v -1.620017 1.016491 -4.050023
v -1.620017 1.016491 -4.050023
v -1.619929 1.018908 -4.050657
v -1.619929 1.018908 -4.050657
v -1.617724 1.020067 -4.050859
v -1.615606 1.018811 -4.050426
v -1.615606 1.018811 -4.050426
v -1.615695 1.016394 -4.049792
v -1.615695 1.016394 -4.049792
v -1.6179 1.015234 -4.04959
v -1.620933 1.025427 -4.006418
v -1.623045 1.026679 -4.006888
v -1.623045 1.026679 -4.006888
v -1.62296 1.029125 -4.007401
v -1.62296 1.029125 -4.007401
v -1.620764 1.030318 -4.007444
v -1.618652 1.029065 -4.006975
v -1.618652 1.029065 -4.006975
v -1.618736 1.02662 -4.006462
v -1.618736 1.02662 -4.006462
v -1.620933 1.025427 -4.006418
v -1.625822 1.033047 -3.966358
v -1.627921 1.034294 -3.966897
v -1.627921 1.034294 -3.966897
v -1.627839 1.036759 -3.967306
v -1.627839 1.036759 -3.967306
v -1.62566 1.037977 -3.967176
v -1.623561 1.036729 -3.966637
v -1.623561 1.036729 -3.966637
v -1.623643 1.034264 -3.966228
v -1.623643 1.034264 -3.966228
v -1.625822 1.033047 -3.966358
v -1.632483 1.038393 -3.931103
v -1.63455 1.039635 -3.931763
v -1.63455 1.039635 -3.931763
v -1.634471 1.042114 -3.932078
v -1.634471 1.042114 -3.932078
v -1.632326 1.04335 -3.931733
v -1.63026 1.042108 -3.931073
v -1.63026 1.042108 -3.931073
v -1.630338 1.039629 -3.930758
v -1.630338 1.039629 -3.930758
v -1.632483 1.038393 -3.931103
v -1.640828 1.041765 -3.902349
v -1.642813 1.043002 -3.903232
v -1.642813 1.043002 -3.903232
v -1.642738 1.045491 -3.903453
v -1.642738 1.045491 -3.903453
v -1.640678 1.046743 -3.902791
v -1.638693 1.045506 -3.901907
v -1.638693 1.045506 -3.901907
v -1.638768 1.043017 -3.901686
v -1.638768 1.043017 -3.901686
v -1.640828 1.041765 -3.902349
v -1.650625 1.043471 -3.8817
v -1.652534 1.044568 -3.882884
v -1.652534 1.044568 -3.882884
v -1.65261 1.047058 -3.883092
v -1.65261 1.047058 -3.883092
v -1.650778 1.048451 -3.882117
v -1.640678 1.046743 -3.902791
v -1.638693 1.045506 -3.901907
v -1.650778 1.048451 -3.882117
v -1.648869 1.047353 -3.880934
v -1.648869 1.047353 -3.880934
v -1.648792 1.044863 -3.880725
v -1.648792 1.044863 -3.880725
v -1.650625 1.043471 -3.8817
v -1.660339 1.044204 -3.867111
v -1.662239 1.044995 -3.868529
v -1.662239 1.044995 -3.868529
v -1.662605 1.047444 -3.868875
v -1.662605 1.047444 -3.868875
v -1.66107 1.049101 -3.867803
v -1.66107 1.049101 -3.867803
v -1.65917 1.048309 -3.866385
v -1.65917 1.048309 -3.866385
v -1.658804 1.04586 -3.866039
v -1.658804 1.04586 -3.866039
v -1.660339 1.044204 -3.867111
v -1.669005 1.044469 -3.8554
v -1.670872 1.044935 -3.856996
v -1.670872 1.044935 -3.856996
v -1.671507 1.047295 -3.857522
v -1.671507 1.047295 -3.857522
v -1.670274 1.049189 -3.856453
v -1.670274 1.049189 -3.856453
v -1.668407 1.048723 -3.854857
v -1.668407 1.048723 -3.854857
v -1.667772 1.046363 -3.854331
v -1.667772 1.046363 -3.854331
v -1.669005 1.044469 -3.8554
v -1.677196 1.044345 -3.846226
v -1.678878 1.044438 -3.848074
v -1.678878 1.044438 -3.848074
v -1.679733 1.046646 -3.848876
v -1.679733 1.046646 -3.848876
v -1.678906 1.048761 -3.847831
v -1.678906 1.048761 -3.847831
v -1.677224 1.048669 -3.845984
v -1.667772 1.046363 -3.854331
v -1.676369 1.046461 -3.845181
v -1.676369 1.046461 -3.845181
v -1.677196 1.044345 -3.846226
v -1.685521 1.043941 -3.839244
v -1.686811 1.043568 -3.841352
v -1.686811 1.043568 -3.841352
v -1.679733 1.046646 -3.848876
v -1.687775 1.045515 -3.842589
v -1.687775 1.045515 -3.842589
v -1.687449 1.047835 -3.841718
v -1.687449 1.047835 -3.841718
v -1.686159 1.048209 -3.839609
v -1.685195 1.046262 -3.838372
v -1.685195 1.046262 -3.838372
v -1.685521 1.043941 -3.839244
v -1.694631 1.043374 -3.834207
v -1.695353 1.042433 -3.836407
v -1.696209 1.043953 -3.838197
v -1.696209 1.043953 -3.838197
v -1.696344 1.046416 -3.837787
v -1.696344 1.046416 -3.837787
v -1.695621 1.047357 -3.835586
v -1.694765 1.045837 -3.833797
v -1.694765 1.045837 -3.833797
v -1.694631 1.043374 -3.834207
v -1.705069 1.042621 -3.831071
v -1.705261 1.041168 -3.833097
v -1.705796 1.042185 -3.835318
v -1.705796 1.042185 -3.835318
v -1.706138 1.044654 -3.835513
v -1.706138 1.044654 -3.835513
v -1.695621 1.047357 -3.835586
v -1.705946 1.046106 -3.833487
v -1.705946 1.046106 -3.833487
v -1.705411 1.045089 -3.831266
v -1.705411 1.045089 -3.831266
v -1.694631 1.043374 -3.834207
v -1.705069 1.042621 -3.831071
v -1.717179 1.041526 -3.829676
v -1.717062 1.039777 -3.831459
v -1.717263 1.040428 -3.833864
v -1.717263 1.040428 -3.833864
v -1.717581 1.042828 -3.834487
v -1.717698 1.044577 -3.832704
v -1.717698 1.044577 -3.832704
v -1.717497 1.043926 -3.830299
v -1.717179 1.041526 -3.829676
v -1.731378 1.040101 -3.829625
v -1.731132 1.038226 -3.83126
v -1.731115 1.038701 -3.833714
v -1.731115 1.038701 -3.833714
v -1.731345 1.041052 -3.834534
v -1.731591 1.042927 -3.832899
v -1.731591 1.042927 -3.832899
v -1.731608 1.042452 -3.830445
v -1.731378 1.040101 -3.829625
v -1.748219 1.038483 -3.830539
v -1.747937 1.036565 -3.832118
v -1.747812 1.036981 -3.83458
v -1.747812 1.036981 -3.83458
v -1.747969 1.039314 -3.835463
v -1.748251 1.041232 -3.833884
v -1.748251 1.041232 -3.833884
v -1.748376 1.040816 -3.831423
v -1.748219 1.038483 -3.830539
v -1.768281 1.0368 -3.8321
v -1.767996 1.034874 -3.833669
v -1.767839 1.03528 -3.836131
v -1.767839 1.03528 -3.836131
v -1.767966 1.037611 -3.837024
v -1.768251 1.039537 -3.835455
v -1.768251 1.039537 -3.835455
v -1.768409 1.039132 -3.832994
v -1.768281 1.0368 -3.8321

vn 0.03328139 -0.09407476 -0.9950086
vn -0.8478026 -0.09226649 -0.5222235
vn 0.03328436 -0.09312946 -0.9950975
vn -0.8477626 -0.09351235 -0.5220669
vn -0.8478026 -0.09226649 -0.5222235
vn -0.8811393 0.001859749 0.472853
vn -0.8477626 -0.09351235 -0.5220669
vn -0.8810613 -0.0003814531 0.4730019
vn -0.8811393 0.001859749 0.472853
vn -0.03328139 0.09407476 0.9950086
vn -0.8810613 -0.0003814531 0.4730019
vn -0.03328436 0.09312946 0.9950975
vn -0.03328139 0.09407476 0.9950086
vn 0.8478026 0.09226649 0.5222235
vn -0.03328436 0.09312946 0.9950975
vn 0.8477626 0.09351235 0.5220669
vn 0.8478026 0.09226649 0.5222235
vn 0.8811393 -0.001859749 -0.472853
vn 0.8477626 0.09351235 0.5220669
vn 0.8810613 0.0003814531 -0.4730019
vn 0.8811393 -0.001859749 -0.472853
vn 0.03328139 -0.09407476 -0.9950086
vn 0.8810613 0.0003814531 -0.4730019
vn 0.03328436 -0.09312946 -0.9950975
vn 0.03337959 -0.0910786 -0.9952841
vn -0.8474748 -0.09641016 -0.5220071
vn -0.8474748 -0.09641016 -0.5220071
vn -0.8808472 -0.005340201 0.4733707
vn -0.8808472 -0.005340201 0.4733707
vn -0.03337959 0.0910786 0.9952841
vn -0.03337959 0.0910786 0.9952841
vn 0.8474748 0.09641016 0.5220071
vn 0.8474748 0.09641016 0.5220071
vn 0.8808472 0.005340201 -0.4733707
vn 0.8808472 0.005340201 -0.4733707
vn 0.03337959 -0.0910786 -0.9952841
vn 0.03347553 -0.08874355 -0.9954918
vn -0.8471662 -0.09985174 -0.5218613
vn -0.8471662 -0.09985174 -0.5218613
vn -0.8806612 -0.01115847 0.4736153
vn -0.8806612 -0.01115847 0.4736153
vn -0.03347553 0.08874355 0.9954918
vn -0.03347553 0.08874355 0.9954918
vn 0.8471662 0.09985174 0.5218613
vn 0.8471662 0.09985174 0.5218613
vn 0.8806612 0.01115847 -0.4736153
vn 0.8806612 0.01115847 -0.4736153
vn 0.03347553 -0.08874355 -0.9954918
vn 0.03357226 -0.0860766 -0.9957227
vn -0.8468138 -0.1036701 -0.5216884
vn -0.8468138 -0.1036701 -0.5216884
vn -0.8803562 -0.01759568 0.4739866
vn -0.8803562 -0.01759568 0.4739866
vn -0.03357226 0.0860766 0.9957227
vn -0.03357226 0.0860766 0.9957227
vn 0.8468138 0.1036701 0.5216884
vn 0.8468138 0.1036701 0.5216884
vn 0.8803562 0.01759568 -0.4739866
vn 0.8803562 0.01759568 -0.4739866
vn 0.03357226 -0.0860766 -0.9957227
vn 0.03366316 -0.0831089 -0.9959717
vn -0.8463213 -0.1079477 -0.52162
vn -0.8463213 -0.1079477 -0.52162
vn -0.8799757 -0.02484379 0.4743686
vn -0.8799757 -0.02484379 0.4743686
vn -0.03366316 0.0831089 0.9959717
vn -0.03366316 0.0831089 0.9959717
vn 0.8463213 0.1079477 0.52162
vn 0.8463213 0.1079477 0.52162
vn 0.8799757 0.02484379 -0.4743686
vn 0.8799757 0.02484379 -0.4743686
vn 0.03366316 -0.0831089 -0.9959717
vn 0.0337613 -0.07973009 -0.9962446
vn -0.8457978 -0.1127222 -0.5214593
vn -0.8457978 -0.1127222 -0.5214593
vn -0.8795012 -0.03299798 0.4747513
vn -0.8795012 -0.03299798 0.4747513
vn -0.0337613 0.07973009 0.9962446
vn -0.0337613 0.07973009 0.9962446
vn 0.8457978 0.1127222 0.5214593
vn 0.8457978 0.1127222 0.5214593
vn 0.8795012 0.03299798 -0.4747513
vn 0.8795012 0.03299798 -0.4747513
vn 0.0337613 -0.07973009 -0.9962446
vn 0.03385375 -0.07590869 -0.99654
vn -0.8450497 -0.1181601 -0.5214684
vn -0.8450497 -0.1181601 -0.5214684
vn -0.878906 -0.04224776 0.4751204
vn -0.878906 -0.04224776 0.4751204
vn -0.03385375 0.07590869 0.99654
vn -0.03385375 0.07590869 0.99654
vn 0.8450497 0.1181601 0.5214684
vn 0.8450497 0.1181601 0.5214684
vn 0.878906 0.04224776 -0.4751204
vn 0.878906 0.04224776 -0.4751204
vn 0.03385375 -0.07590869 -0.99654
vn 0.03395353 -0.0715313 -0.9968603
vn -0.8441688 -0.1243556 -0.5214545
vn -0.8441688 -0.1243556 -0.5214545
vn -0.8781305 -0.05283279 0.4754951
vn -0.8781305 -0.05283279 0.4754951
vn -0.03395353 0.0715313 0.9968603
vn -0.03395353 0.0715313 0.9968603
vn 0.8441688 0.1243556 0.5214545
vn 0.8441688 0.1243556 0.5214545
vn 0.8781305 0.05283279 -0.4754951
vn 0.8781305 0.05283279 -0.4754951
vn 0.03395353 -0.0715313 -0.9968603
vn 0.03414297 -0.06647389 -0.9972038
vn -0.8430721 -0.1314678 -0.521484
vn -0.8430721 -0.1314678 -0.521484
vn -0.877203 -0.0649939 0.4757
vn -0.877203 -0.0649939 0.4757
vn -0.03414297 0.06647389 0.9972038
vn -0.03414297 0.06647389 0.9972038
vn 0.8430721 0.1314678 0.521484
vn 0.8430721 0.1314678 0.521484
vn 0.877203 0.0649939 -0.4757
vn 0.877203 0.0649939 -0.4757
vn 0.03414297 -0.06647389 -0.9972038
vn 0.03394883 -0.07342865 -0.9967225
vn -0.8364631 -0.1826276 -0.5166979
vn -0.8364631 -0.1826276 -0.5166979
vn -0.8704061 -0.1091941 0.4800728
vn -0.8704061 -0.1091941 0.4800728
vn -0.03394883 0.07342865 0.9967225
vn -0.03394883 0.07342865 0.9967225
vn 0.8364631 0.1826276 0.5166979
vn 0.8364631 0.1826276 0.5166979
vn 0.8704061 0.1091941 -0.4800728
vn 0.8704061 0.1091941 -0.4800728
vn 0.03394883 -0.07342865 -0.9967225
vn 0.03289956 -0.1057077 -0.9938529
vn -0.8093216 -0.3138196 -0.4965035
vn -0.8093216 -0.3138196 -0.4965035
vn -0.8422853 -0.2080918 0.4972458
vn -0.8422853 -0.2080918 0.4972458
vn -0.03289956 0.1057077 0.9938529
vn -0.03289956 0.1057077 0.9938529
vn 0.8093216 0.3138196 0.4965035
vn 0.8093216 0.3138196 0.4965035
vn 0.8422853 0.2080918 -0.4972458
vn 0.8422853 0.2080918 -0.4972458
vn 0.03289956 -0.1057077 -0.9938529
vn 0.03147407 -0.1518385 -0.9879041
vn -0.7566729 -0.46603 -0.4585434
vn -0.7566729 -0.46603 -0.4585434
vn -0.7881209 -0.3141898 0.5292922
vn -0.7881209 -0.3141898 0.5292922
vn -0.03147407 0.1518385 0.9879041
vn -0.03147407 0.1518385 0.9879041
vn 0.7566729 0.46603 0.4585434
vn 0.7566729 0.46603 0.4585434
vn 0.7881209 0.3141898 -0.5292922
vn 0.7881209 0.3141898 -0.5292922
vn 0.03147407 -0.1518385 -0.9879041
vn 0.02994647 -0.1984669 -0.97965
vn -0.6948747 -0.5892749 -0.4121944
vn -0.6948747 -0.5892749 -0.4121944
vn -0.7247761 -0.3908069 0.5674235
vn -0.7247761 -0.3908069 0.5674235
vn -0.02994647 0.1984669 0.97965
vn -0.02994647 0.1984669 0.97965
vn 0.6948747 0.5892749 0.4121944
vn 0.6948747 0.5892749 0.4121944
vn 0.7247761 0.3908069 -0.5674235
vn 0.7247761 0.3908069 -0.5674235
vn 0.02994647 -0.1984669 -0.97965
vn 0.02822854 -0.2457361 -0.9689257
vn -0.6322052 -0.6858268 -0.3604971
vn -0.6322052 -0.6858268 -0.3604971
vn -0.660412 -0.4400681 0.6084374
vn -0.660412 -0.4400681 0.6084374
vn -0.02822854 0.2457361 0.9689257
vn -0.02822854 0.2457361 0.9689257
vn 0.6322052 0.6858268 0.3604971
vn 0.6322052 0.6858268 0.3604971
vn 0.660412 0.4400681 -0.6084374
vn 0.660412 0.4400681 -0.6084374
vn 0.02822854 -0.2457361 -0.9689257
vn 0.02641677 -0.2941608 -0.9553908
vn -0.5728706 -0.7607917 -0.3049842
vn -0.5728706 -0.7607917 -0.3049842
vn -0.5993125 -0.4666512 0.6504315
vn -0.5993125 -0.4666512 0.6504315
vn -0.02641677 0.2941608 0.9553908
vn -0.02641677 0.2941608 0.9553908
vn 0.5728706 0.7607917 0.3049842
vn 0.5728706 0.7607917 0.3049842
vn 0.5993125 0.4666512 -0.6504315
vn 0.5993125 0.4666512 -0.6504315
vn 0.02641677 -0.2941608 -0.9553908
vn 0.02450826 -0.3447606 -0.9383706
vn -0.5179318 -0.8195023 -0.2452809
vn -0.5179318 -0.8195023 -0.2452809
vn -0.542434 -0.4747251 0.69311
vn -0.542434 -0.4747251 0.69311
vn -0.02450826 0.3447606 0.9383706
vn -0.02450826 0.3447606 0.9383706
vn 0.5179318 0.8195023 0.2452809
vn 0.5179318 0.8195023 0.2452809
vn 0.5423666 0.4747496 -0.6931459
vn 0.5423666 0.4747496 -0.6931459
vn 0.02450826 -0.3447606 -0.9383706
vn 0.02222151 -0.4002495 -0.9161367
vn -0.4659561 -0.8666106 -0.1785243
vn -0.4659561 -0.8666106 -0.1785243
vn -0.4881511 -0.4663612 0.7377098
vn -0.4881511 -0.4663612 0.7377098
vn -0.02222151 0.4002495 0.9161367
vn -0.02222151 0.4002495 0.9161367
vn 0.4659561 0.8666106 0.1785243
vn 0.4659561 0.8666106 0.1785243
vn 0.4881511 0.4663612 -0.7377098
vn 0.4881511 0.4663612 -0.7377098
vn 0.02222151 -0.4002495 -0.9161367
vn 0.01916803 -0.4677809 -0.8836365
vn -0.4128436 -0.9057954 -0.09536696
vn -0.4128436 -0.9057954 -0.09536696
vn -0.4320344 -0.438019 0.7883436
vn -0.4320344 -0.438019 0.7883436
vn -0.01916803 0.4677809 0.8836365
vn -0.01916803 0.4677809 0.8836365
vn 0.4128436 0.9057954 0.09536696
vn 0.4128436 0.9057954 0.09536696
vn 0.4320344 0.438019 -0.7883436
vn 0.4320344 0.438019 -0.7883436
vn 0.01916803 -0.4677809 -0.8836365
vn 0.01392403 -0.5752007 -0.8178937
vn -0.3471382 -0.9368917 0.04158029
vn -0.4128436 -0.9057954 -0.09536696
vn -0.3471382 -0.9368917 0.04158029
vn -0.3610847 -0.3617523 0.8595074
vn -0.01392403 0.5752007 0.8178937
vn -0.01392403 0.5752007 0.8178937
vn 0.3471382 0.9368917 -0.04158029
vn 0.3471382 0.9368917 -0.04158029
vn 0.3610847 0.3617523 -0.8595074
vn 0.3610847 0.3617523 -0.8595074
vn 0.01392403 -0.5752007 -0.8178937
vn 0.01106314 -0.6271659 -0.7788072
vn -0.1831072 -0.97321 0.139047
vn -0.1831072 -0.97321 0.139047
vn -0.1941828 -0.3460908 0.9178858
vn -0.01106314 0.6271659 0.7788072
vn -0.01106314 0.6271659 0.7788072
vn 0.1831072 0.97321 -0.139047
vn 0.1831072 0.97321 -0.139047
vn 0.1941828 0.3460908 -0.9178858
vn 0.1941828 0.3460908 -0.9178858
vn 0.01106314 -0.6271659 -0.7788072
vn 0.01478241 0.9521782 0.3051853
vn -0.1831072 -0.97321 0.139047
vn -0.005912524 0.7405913 -0.6719297
vn 0.01478241 0.9521782 0.3051853
vn -0.005912524 0.7405913 -0.6719297
vn -0.1941828 -0.3460908 0.9178858
vn -0.02059978 -0.2115293 -0.9771546
vn -0.02059978 -0.2115293 -0.9771546
vn -0.01106314 0.6271659 0.7788072
vn -0.01478241 -0.9521782 -0.3051853
vn -0.02059978 -0.2115293 -0.9771546
vn -0.01478241 -0.9521782 -0.3051853
vn 0.1831072 0.97321 -0.139047
vn 0.005912524 -0.7405913 0.6719297
vn -0.01478241 -0.9521782 -0.3051853
vn 0.005912524 -0.7405913 0.6719297
vn 0.1941828 0.3460908 -0.9178858
vn 0.02059978 0.2115293 0.9771546
vn 0.005912524 -0.7405913 0.6719297
vn 0.02059978 0.2115293 0.9771546
vn 0.01106314 -0.6271659 -0.7788072
vn 0.01478241 0.9521782 0.3051853
vn 0.02059978 0.2115293 0.9771546
vn 0.002670205 0.8339862 0.5517789
vn -0.09331662 0.8921823 -0.4419307
vn -0.02059978 -0.2115293 -0.9771546
vn -0.09598279 0.05817139 -0.9936817
vn -0.02059978 -0.2115293 -0.9771546
vn -0.01478241 -0.9521782 -0.3051853
vn -0.09598279 0.05817139 -0.9936817
vn -0.002670205 -0.8339862 -0.5517789
vn -0.01478241 -0.9521782 -0.3051853
vn -0.002670205 -0.8339862 -0.5517789
vn 0.09331662 -0.8921823 0.4419307
vn 0.09598279 -0.05817139 0.9936817
vn 0.09598279 -0.05817139 0.9936817
vn 0.002670205 0.8339862 0.5517789
vn -0.0049588 0.7289912 0.684505
vn -0.1284591 0.9505208 -0.2828579
vn -0.123512 0.221511 -0.9673043
vn -0.123512 0.221511 -0.9673043
vn 0.0049588 -0.7289912 -0.684505
vn 0.0049588 -0.7289912 -0.684505
vn 0.1284591 -0.9505208 0.2828579
vn 0.123512 -0.221511 0.9673043
vn 0.123512 -0.221511 0.9673043
vn -0.0049588 0.7289912 0.684505
vn -0.01406694 0.5722145 0.8199833
vn -0.1543985 0.9847557 -0.08010796
vn -0.1403318 0.4125317 -0.9000692
vn -0.1403318 0.4125317 -0.9000692
vn 0.01406694 -0.5722145 -0.8199833
vn 0.01406694 -0.5722145 -0.8199833
vn 0.1284591 -0.9505208 0.2828579
vn 0.1543985 -0.9847557 0.08010796
vn 0.01406694 -0.5722145 -0.8199833
vn 0.1543985 -0.9847557 0.08010796
vn 0.1403318 -0.4125317 0.9000692
vn 0.1403318 -0.4125317 0.9000692
vn -0.01406694 0.5722145 0.8199833
vn -0.01406694 0.5722145 0.8199833
vn -0.1543985 0.9847557 -0.08010796
vn -0.02455623 0.3426429 0.9391447
vn -0.1888272 0.966309 0.1749036
vn -0.1888272 0.966309 0.1749036
vn -0.1642202 0.6236457 -0.7642629
vn -0.1642202 0.6236457 -0.7642629
vn 0.01406694 -0.5722145 -0.8199833
vn 0.02455623 -0.3426429 -0.9391447
vn 0.02455623 -0.3426429 -0.9391447
vn 0.1888272 -0.966309 -0.1749036
vn 0.1888272 -0.966309 -0.1749036
vn 0.1642202 -0.6236457 0.7642629
vn 0.1642202 -0.6236457 0.7642629
vn -0.02455623 0.3426429 0.9391447
vn -0.03447465 0.05473984 0.9979053
vn -0.2479942 0.8603268 0.4453501
vn -0.2479942 0.8603268 0.4453501
vn -0.2135348 0.8056433 -0.5525773
vn 0.03447465 -0.05473984 -0.9979053
vn 0.03447465 -0.05473984 -0.9979053
vn 0.2479942 -0.8603268 -0.4453501
vn 0.2479942 -0.8603268 -0.4453501
vn 0.2135348 -0.8056433 0.5525773
vn 0.2135348 -0.8056433 0.5525773
vn -0.03447465 0.05473984 0.9979053
vn -0.04124393 -0.2300362 0.9723077
vn -0.3504253 0.6672338 0.6572679
vn -0.3504253 0.6672338 0.6572679
vn -0.3092238 0.8972735 -0.3150888
vn 0.04124393 0.2300362 -0.9723077
vn 0.04124393 0.2300362 -0.9723077
vn 0.3504253 -0.6672338 -0.6572679
vn 0.3504253 -0.6672338 -0.6572679
vn 0.3092238 -0.8972735 0.3150888
vn -0.03447465 0.05473984 0.9979053
vn -0.04124393 -0.2300362 0.9723077
vn -0.04434487 -0.4542727 0.8897583
vn -0.5139536 0.4173906 0.7494243
vn -0.5139536 0.4173906 0.7494243
vn -0.4695871 0.8716544 -0.1403802
vn 0.04434487 0.4542727 -0.8897583
vn 0.04434487 0.4542727 -0.8897583
vn 0.5139536 -0.4173906 -0.7494243
vn 0.3092238 -0.8972735 0.3150888
vn 0.4695871 -0.8716544 0.1403802
vn 0.4695871 -0.8716544 0.1403802
vn -0.04429728 -0.4542736 0.8897602
vn -0.04496241 -0.6070402 0.7933981
vn -0.7222694 0.1200206 0.6811181
vn -0.5139536 0.4173906 0.7494243
vn -0.4695871 0.8716544 -0.1403802
vn -0.7222694 0.1200206 0.6811181
vn -0.6772985 0.7270803 -0.1123427
vn -0.6772985 0.7270803 -0.1123427
vn 0.04496241 0.6070402 -0.7933981
vn 0.5139536 -0.4173906 -0.7494243
vn 0.7222694 -0.1200206 -0.6811181
vn 0.7222694 -0.1200206 -0.6811181
vn 0.6772985 -0.7270803 0.1123427
vn 0.6772985 -0.7270803 0.1123427
vn -0.04496241 -0.6070402 0.7933981
vn -0.04496241 -0.6070402 0.7933981
vn -0.7222694 0.1200206 0.6811181
vn -0.04444255 -0.7179475 0.6946772
vn -0.8490128 -0.1551874 0.5050684
vn -0.8490128 -0.1551874 0.5050684
vn -0.8045772 0.5627701 -0.1895928
vn -0.8045772 0.5627701 -0.1895928
vn 0.04444255 0.7179475 -0.6946772
vn 0.8490128 0.1551874 -0.5050684
vn 0.7222694 -0.1200206 -0.6811181
vn 0.6772985 -0.7270803 0.1123427
vn 0.8490128 0.1551874 -0.5050684
vn 0.8045772 -0.5627701 0.1895928
vn 0.8045772 -0.5627701 0.1895928
vn -0.04444255 -0.7179475 0.6946772
vn -0.04291733 -0.8119482 0.5821497
vn -0.877809 -0.3039597 0.3702161
vn -0.877809 -0.3039597 0.3702161
vn -0.8349081 0.5079592 -0.21191
vn -0.8349081 0.5079592 -0.21191
vn 0.04291733 0.8119482 -0.5821497
vn 0.877809 0.3039597 -0.3702161
vn 0.877809 0.3039597 -0.3702161
vn 0.8349081 -0.5079592 0.21191
vn 0.8349081 -0.5079592 0.21191
vn -0.04291733 -0.8119482 0.5821497
vn -0.04081748 -0.8801031 0.473025
vn -0.8822021 -0.3722215 0.288393
vn -0.8822021 -0.3722215 0.288393
vn -0.8414007 0.5078923 -0.1846361
vn -0.8414007 0.5078923 -0.1846361
vn 0.04081748 0.8801031 -0.473025
vn 0.8822021 0.3722215 -0.288393
vn 0.8822021 0.3722215 -0.288393
vn 0.8414007 -0.5078923 0.1846361
vn 0.8414007 -0.5078923 0.1846361
vn -0.04081748 -0.8801031 0.473025
vn -0.03876754 -0.9224578 0.3841468
vn -0.8839669 -0.4161864 0.2130523
vn -0.8839669 -0.4161864 0.2130523
vn -0.8452407 0.5062575 -0.171089
vn -0.8452407 0.5062575 -0.171089
vn 0.03876754 0.9224578 -0.3841468
vn 0.8839669 0.4161864 -0.2130523
vn 0.8839669 0.4161864 -0.2130523
vn 0.8452407 -0.5062575 0.171089
vn 0.8452407 -0.5062575 0.171089
vn -0.03876754 -0.9224578 0.3841468
vn -0.0369067 -0.949227 0.3124195
vn -0.8838822 -0.4448022 0.1445798
vn -0.8838822 -0.4448022 0.1445798
vn -0.8469816 0.5044315 -0.1678419
vn -0.8469816 0.5044315 -0.1678419
vn 0.0369067 0.949227 -0.3124195
vn 0.8838822 0.4448022 -0.1445798
vn 0.8838822 0.4448022 -0.1445798
vn 0.8469816 -0.5044315 0.1678419
vn 0.8469816 -0.5044315 0.1678419
vn -0.0369067 -0.949227 0.3124195
vn -0.03528589 -0.9665951 0.2538677
vn -0.8822173 -0.4638782 0.08068275
vn -0.8822173 -0.4638782 0.08068275
vn -0.846957 0.5027287 -0.1729963
vn -0.846957 0.5027287 -0.1729963
vn 0.03528589 0.9665951 -0.2538677
vn 0.8822173 0.4638782 -0.08068275
vn 0.8822173 0.4638782 -0.08068275
vn 0.846957 -0.5027287 0.1729963
vn 0.846957 -0.5027287 0.1729963
vn -0.03528589 -0.9665951 0.2538677
vn -0.03380754 -0.9781298 0.2052294
vn -0.8786456 -0.4771589 0.01735643
vn -0.8786456 -0.4771589 0.01735643
vn -0.8448249 0.5009725 -0.1878766
vn -0.8448249 0.5009725 -0.1878766
vn 0.03380754 0.9781298 -0.2052294
vn 0.8786456 0.4771589 -0.01735643
vn 0.8786456 0.4771589 -0.01735643
vn 0.8448249 -0.5009725 0.1878766
vn 0.8448249 -0.5009725 0.1878766
vn -0.03380754 -0.9781298 0.2052294
vn -0.03252011 -0.9859982 0.1635542
vn -0.8718872 -0.4869408 -0.05197468
vn -0.8718872 -0.4869408 -0.05197468
vn -0.8393352 0.4990616 -0.215532
vn -0.8393352 0.4990616 -0.215532
vn 0.03252011 0.9859982 -0.1635542
vn 0.8718872 0.4869408 0.05197468
vn 0.8718872 0.4869408 0.05197468
vn 0.8393352 -0.4990616 0.215532
vn 0.8393352 -0.4990616 0.215532
vn -0.03252011 -0.9859982 0.1635542
vn -0.03132829 -0.9915379 0.1259807
vn -0.8580344 -0.4946787 -0.1380942
vn -0.8580344 -0.4946787 -0.1380942
vn -0.8266806 0.4968571 -0.2640686
vn -0.8266806 0.4968571 -0.2640686
vn 0.03132829 0.9915379 -0.1259807
vn 0.8580344 0.4946787 0.1380942
vn 0.8580344 0.4946787 0.1380942
vn 0.8266806 -0.4968571 0.2640686
vn 0.8266806 -0.4968571 0.2640686
vn -0.03132829 -0.9915379 0.1259807
vn -0.03008799 -0.9956216 0.0884997
vn -0.8240125 -0.5008161 -0.2649276
vn -0.8240125 -0.5008161 -0.2649276
vn -0.7939185 0.4947567 -0.3534249
vn -0.7939185 0.4947567 -0.3534249
vn 0.03008799 0.9956216 -0.0884997
vn 0.8240125 0.5008161 0.2649276
vn 0.8240125 0.5008161 0.2649276
vn 0.7939185 -0.4947567 0.3534249
vn 0.7939185 -0.4947567 0.3534249
vn -0.03008799 -0.9956216 0.0884997
vn 0.03046932 -0.9960464 0.08344494
vn -0.7331447 -0.5570946 -0.3900568
vn -0.7331447 -0.5570946 -0.3900568
vn -0.763624 0.4389383 -0.4735098
vn -0.763624 0.4389383 -0.4735098
vn -0.03046932 0.9960464 -0.08344494
vn 0.03008799 0.9956216 -0.0884997
vn 0.8240125 0.5008161 0.2649276
vn -0.03046932 0.9960464 -0.08344494
vn 0.7331447 0.5570946 0.3900568
vn 0.7331447 0.5570946 0.3900568
vn 0.763624 -0.4389383 0.4735098
vn 0.763624 -0.4389383 0.4735098
vn 0.03046932 -0.9960464 0.08344494
vn 0.1463446 -0.9794935 0.1384767
vn -0.6139341 -0.6628104 -0.428681
vn -0.6139341 -0.6628104 -0.428681
vn -0.7602779 0.3167189 -0.5671566
vn -0.7602779 0.3167189 -0.5671566
vn -0.1463446 0.9794935 -0.1384767
vn -0.1463446 0.9794935 -0.1384767
vn 0.6139341 0.6628104 0.428681
vn 0.6139341 0.6628104 0.428681
vn 0.7602779 -0.3167189 0.5671566
vn 0.7602779 -0.3167189 0.5671566
vn 0.1463446 -0.9794935 0.1384767
vn 0.2536342 -0.944059 0.2107658
vn -0.4931417 -0.7575938 -0.4276247
vn -0.4931417 -0.7575938 -0.4276247
vn -0.7468052 0.186439 -0.6383749
vn -0.7468052 0.186439 -0.6383749
vn -0.2536342 0.944059 -0.2107658
vn -0.2536342 0.944059 -0.2107658
vn 0.4931417 0.7575938 0.4276247
vn 0.4931417 0.7575938 0.4276247
vn 0.7468052 -0.186439 0.6383749
vn 0.7468052 -0.186439 0.6383749
vn 0.2536342 -0.944059 0.2107658
vn 0.3419809 -0.8831804 0.3210005
vn -0.3307359 -0.846104 -0.4179975
vn -0.3307359 -0.846104 -0.4179975
vn -0.6726772 0.0370981 -0.7390056
vn -0.6726772 0.0370981 -0.7390056
vn -0.3419809 0.8831804 -0.3210005
vn -0.3419809 0.8831804 -0.3210005
vn 0.3307359 0.846104 0.4179975
vn 0.7468052 -0.186439 0.6383749
vn 0.6726772 -0.0370981 0.7390056
vn 0.6726772 -0.0370981 0.7390056
vn 0.3419809 -0.8831804 0.3210005
vn 0.3855779 -0.7787377 0.4948711
vn -0.1304621 -0.9281599 -0.3485666
vn -0.1304621 -0.9281599 -0.3485666
vn -0.6726772 0.0370981 -0.7390056
vn -0.5160341 -0.149441 -0.8434312
vn -0.5160341 -0.149441 -0.8434312
vn -0.3855779 0.7787377 -0.4948711
vn -0.3855779 0.7787377 -0.4948711
vn 0.1304621 0.9281599 0.3485666
vn 0.5160341 0.149441 0.8434312
vn 0.5160341 0.149441 0.8434312
vn 0.3855779 -0.7787377 0.4948711
vn 0.3425074 -0.6082928 0.7160088
vn 0.05369218 -0.9849607 -0.1642237
vn -0.2888286 -0.3766645 -0.8801715
vn -0.2888286 -0.3766645 -0.8801715
vn -0.3425074 0.6082928 -0.7160088
vn -0.3425074 0.6082928 -0.7160088
vn -0.05369218 0.9849607 0.1642237
vn 0.2888286 0.3766645 0.8801715
vn 0.2888286 0.3766645 0.8801715
vn 0.3425074 -0.6082928 0.7160088
vn 0.2138104 -0.4065927 0.8882384
vn 0.1369449 -0.9875098 0.07791362
vn -0.07691433 -0.5808868 -0.8103423
vn -0.07691433 -0.5808868 -0.8103423
vn -0.2138104 0.4065927 -0.8882384
vn -0.2138104 0.4065927 -0.8882384
vn -0.05369218 0.9849607 0.1642237
vn -0.1369449 0.9875098 -0.07791362
vn -0.1369449 0.9875098 -0.07791362
vn 0.07691433 0.5808868 0.8103423
vn 0.07691433 0.5808868 0.8103423
vn 0.3425074 -0.6082928 0.7160088
vn 0.2138104 -0.4065927 0.8882384
vn 0.08044001 -0.2604406 0.9621331
vn 0.1272228 -0.9600839 0.2491049
vn 0.04682596 -0.6996238 -0.7129754
vn 0.04682596 -0.6996238 -0.7129754
vn -0.08044001 0.2604406 -0.9621331
vn -0.1272228 0.9600839 -0.2491049
vn -0.1272228 0.9600839 -0.2491049
vn -0.04682596 0.6996238 0.7129754
vn 0.08044001 -0.2604406 0.9621331
vn -0.006580589 -0.1900741 0.9817476
vn 0.0919351 -0.9402366 0.3278764
vn 0.09851696 -0.7501785 -0.6538551
vn 0.09851696 -0.7501785 -0.6538551
vn 0.006580589 0.1900741 -0.9817476
vn -0.0919351 0.9402366 -0.3278764
vn -0.0919351 0.9402366 -0.3278764
vn -0.09851696 0.7501785 0.6538551
vn -0.006580589 -0.1900741 0.9817476
vn -0.05011802 -0.1662335 0.984812
vn 0.06275342 -0.9333857 0.3533457
vn 0.1128709 -0.7671597 -0.6314476
vn 0.1128709 -0.7671597 -0.6314476
vn 0.05011802 0.1662335 -0.984812
vn -0.06275342 0.9333857 -0.3533457
vn -0.06275342 0.9333857 -0.3533457
vn -0.1128709 0.7671597 0.6314476
vn -0.05011802 -0.1662335 0.984812
vn -0.06303582 -0.1622624 0.9847321
vn 0.05097311 -0.9325838 0.3573363
vn 0.114008 -0.7703049 -0.6274015
vn 0.114008 -0.7703049 -0.6274015
vn 0.06303582 0.1622624 -0.9847321
vn -0.05097311 0.9325838 -0.3573363
vn -0.05097311 0.9325838 -0.3573363
vn -0.114008 0.7703049 0.6274015
vn -0.06303582 -0.1622624 0.9847321

vt 1 0
vt 0.8333333 0
vt 1 0.02
vt 0.8333333 0.02
vt 0.8333333 0
vt 0.6666666 0
vt 0.8333333 0.02
vt 0.6666666 0.02
vt 0.6666666 0
vt 0.5 0
vt 0.6666666 0.02
vt 0.5 0.02
vt 0.5 0
vt 0.3333333 0
vt 0.5 0.02
vt 0.3333333 0.02
vt 0.3333333 0
vt 0.1666667 0
vt 0.3333333 0.02
vt 0.1666667 0.02
vt 0.1666667 0
vt 0 0
vt 0.1666667 0.02
vt 0 0.02
vt 1 0.04
vt 0.8333333 0.04
vt 0.8333333 0.04
vt 0.6666666 0.04
vt 0.6666666 0.04
vt 0.5 0.04
vt 0.5 0.04
vt 0.3333333 0.04
vt 0.3333333 0.04
vt 0.1666667 0.04
vt 0.1666667 0.04
vt 0 0.04
vt 1 0.06
vt 0.8333333 0.06
vt 0.8333333 0.06
vt 0.6666666 0.06
vt 0.6666666 0.06
vt 0.5 0.06
vt 0.5 0.06
vt 0.3333333 0.06
vt 0.3333333 0.06
vt 0.1666667 0.06
vt 0.1666667 0.06
vt 0 0.06
vt 1 0.08
vt 0.8333333 0.08
vt 0.8333333 0.08
vt 0.6666666 0.08
vt 0.6666666 0.08
vt 0.5 0.08
vt 0.5 0.08
vt 0.3333333 0.08
vt 0.3333333 0.08
vt 0.1666667 0.08
vt 0.1666667 0.08
vt 0 0.08
vt 1 0.1
vt 0.8333333 0.1
vt 0.8333333 0.1
vt 0.6666666 0.1
vt 0.6666666 0.1
vt 0.5 0.1
vt 0.5 0.1
vt 0.3333333 0.1
vt 0.3333333 0.1
vt 0.1666667 0.1
vt 0.1666667 0.1
vt 0 0.1
vt 1 0.12
vt 0.8333333 0.12
vt 0.8333333 0.12
vt 0.6666666 0.12
vt 0.6666666 0.12
vt 0.5 0.12
vt 0.5 0.12
vt 0.3333333 0.12
vt 0.3333333 0.12
vt 0.1666667 0.12
vt 0.1666667 0.12
vt 0 0.12
vt 1 0.14
vt 0.8333333 0.14
vt 0.8333333 0.14
vt 0.6666666 0.14
vt 0.6666666 0.14
vt 0.5 0.14
vt 0.5 0.14
vt 0.3333333 0.14
vt 0.3333333 0.14
vt 0.1666667 0.14
vt 0.1666667 0.14
vt 0 0.14
vt 1 0.16
vt 0.8333333 0.16
vt 0.8333333 0.16
vt 0.6666666 0.16
vt 0.6666666 0.16
vt 0.5 0.16
vt 0.5 0.16
vt 0.3333333 0.16
vt 0.3333333 0.16
vt 0.1666667 0.16
vt 0.1666667 0.16
vt 0 0.16
vt 1 0.18
vt 0.8333333 0.18
vt 0.8333333 0.18
vt 0.6666666 0.18
vt 0.6666666 0.18
vt 0.5 0.18
vt 0.5 0.18
vt 0.3333333 0.18
vt 0.3333333 0.18
vt 0.1666667 0.18
vt 0.1666667 0.18
vt 0 0.18
vt 1 0.2
vt 0.8333333 0.2
vt 0.8333333 0.2
vt 0.6666666 0.2
vt 0.6666666 0.2
vt 0.5 0.2
vt 0.5 0.2
vt 0.3333333 0.2
vt 0.3333333 0.2
vt 0.1666667 0.2
vt 0.1666667 0.2
vt 0 0.2
vt 1 0.22
vt 0.8333333 0.22
vt 0.8333333 0.22
vt 0.6666666 0.22
vt 0.6666666 0.22
vt 0.5 0.22
vt 0.5 0.22
vt 0.3333333 0.22
vt 0.3333333 0.22
vt 0.1666667 0.22
vt 0.1666667 0.22
vt 0 0.22
vt 1 0.24
vt 0.8333333 0.24
vt 0.8333333 0.24
vt 0.6666666 0.24
vt 0.6666666 0.24
vt 0.5 0.24
vt 0.5 0.24
vt 0.3333333 0.24
vt 0.3333333 0.24
vt 0.1666667 0.24
vt 0.1666667 0.24
vt 0 0.24
vt 1 0.26
vt 0.8333333 0.26
vt 0.8333333 0.26
vt 0.6666666 0.26
vt 0.6666666 0.26
vt 0.5 0.26
vt 0.5 0.26
vt 0.3333333 0.26
vt 0.3333333 0.26
vt 0.1666667 0.26
vt 0.1666667 0.26
vt 0 0.26
vt 1 0.28
vt 0.8333333 0.28
vt 0.8333333 0.28
vt 0.6666666 0.28
vt 0.6666666 0.28
vt 0.5 0.28
vt 0.5 0.28
vt 0.3333333 0.28
vt 0.3333333 0.28
vt 0.1666667 0.28
vt 0.1666667 0.28
vt 0 0.28
vt 1 0.3
vt 0.8333333 0.3
vt 0.8333333 0.3
vt 0.6666666 0.3
vt 0.6666666 0.3
vt 0.5 0.3
vt 0.5 0.3
vt 0.3333333 0.3
vt 0.3333333 0.3
vt 0.1666667 0.3
vt 0.1666667 0.3
vt 0 0.3
vt 1 0.32
vt 0.8333333 0.32
vt 0.8333333 0.32
vt 0.6666666 0.32
vt 0.6666666 0.32
vt 0.5 0.32
vt 0.5 0.32
vt 0.3333333 0.32
vt 0.3333333 0.32
vt 0.1666667 0.32
vt 0.1666667 0.32
vt 0 0.32
vt 1 0.34
vt 0.8333333 0.34
vt 0.8333333 0.34
vt 0.6666666 0.34
vt 0.6666666 0.34
vt 0.5 0.34
vt 0.5 0.34
vt 0.3333333 0.34
vt 0.3333333 0.34
vt 0.1666667 0.34
vt 0.1666667 0.34
vt 0 0.34
vt 1 0.36
vt 0.8333333 0.36
vt 0.8333333 0.36
vt 0.6666666 0.36
vt 0.6666666 0.36
vt 0.5 0.36
vt 0.5 0.36
vt 0.3333333 0.36
vt 0.3333333 0.36
vt 0.1666667 0.36
vt 0.1666667 0.36
vt 0 0.36
vt 1 0.38
vt 0.8333333 0.38
vt 0.8333333 0.36
vt 0.8333333 0.38
vt 0.6666666 0.38
vt 0.5 0.38
vt 0.5 0.38
vt 0.3333333 0.38
vt 0.3333333 0.38
vt 0.1666667 0.38
vt 0.1666667 0.38
vt 0 0.38
vt 1 0.4
vt 0.8333333 0.4
vt 0.8333333 0.4
vt 0.6666666 0.4
vt 0.5 0.4
vt 0.5 0.4
vt 0.3333333 0.4
vt 0.3333333 0.4
vt 0.1666667 0.4
vt 0.1666667 0.4
vt 0 0.4
vt 1 0.42
vt 0.8333333 0.4
vt 0.8333333 0.42
vt 1 0.42
vt 0.8333333 0.42
vt 0.6666666 0.4
vt 0.6666666 0.42
vt 0.6666666 0.42
vt 0.5 0.4
vt 0.5 0.42
vt 0.6666666 0.42
vt 0.5 0.42
vt 0.3333333 0.4
vt 0.3333333 0.42
vt 0.5 0.42
vt 0.3333333 0.42
vt 0.1666667 0.4
vt 0.1666667 0.42
vt 0.3333333 0.42
vt 0.1666667 0.42
vt 0 0.4
vt 0 0.42
vt 0.1666667 0.42
vt 1 0.44
vt 0.8333333 0.44
vt 0.6666666 0.42
vt 0.6666666 0.44
vt 0.6666666 0.42
vt 0.5 0.42
vt 0.6666666 0.44
vt 0.5 0.44
vt 0.5 0.42
vt 0.5 0.44
vt 0.3333333 0.44
vt 0.1666667 0.44
vt 0.1666667 0.44
vt 0 0.44
vt 1 0.46
vt 0.8333333 0.46
vt 0.6666666 0.46
vt 0.6666666 0.46
vt 0.5 0.46
vt 0.5 0.46
vt 0.3333333 0.46
vt 0.1666667 0.46
vt 0.1666667 0.46
vt 0 0.46
vt 1 0.48
vt 0.8333333 0.48
vt 0.6666666 0.48
vt 0.6666666 0.48
vt 0.5 0.48
vt 0.5 0.48
vt 0.3333333 0.46
vt 0.3333333 0.48
vt 0.5 0.48
vt 0.3333333 0.48
vt 0.1666667 0.48
vt 0.1666667 0.48
vt 0 0.48
vt 1 0.48
vt 0.8333333 0.48
vt 1 0.5
vt 0.8333333 0.5
vt 0.8333333 0.5
vt 0.6666666 0.5
vt 0.6666666 0.5
vt 0.5 0.48
vt 0.5 0.5
vt 0.5 0.5
vt 0.3333333 0.5
vt 0.3333333 0.5
vt 0.1666667 0.5
vt 0.1666667 0.5
vt 0 0.5
vt 1 0.52
vt 0.8333333 0.52
vt 0.8333333 0.52
vt 0.6666666 0.52
vt 0.5 0.52
vt 0.5 0.52
vt 0.3333333 0.52
vt 0.3333333 0.52
vt 0.1666667 0.52
vt 0.1666667 0.52
vt 0 0.52
vt 1 0.54
vt 0.8333333 0.54
vt 0.8333333 0.54
vt 0.6666666 0.54
vt 0.5 0.54
vt 0.5 0.54
vt 0.3333333 0.54
vt 0.3333333 0.54
vt 0.1666667 0.54
vt 0 0.52
vt 0 0.54
vt 1 0.56
vt 0.8333333 0.56
vt 0.8333333 0.56
vt 0.6666666 0.56
vt 0.5 0.56
vt 0.5 0.56
vt 0.3333333 0.56
vt 0.1666667 0.54
vt 0.1666667 0.56
vt 0.1666667 0.56
vt 0 0.56
vt 1 0.58
vt 0.8333333 0.58
vt 0.8333333 0.56
vt 0.6666666 0.56
vt 0.8333333 0.58
vt 0.6666666 0.58
vt 0.6666666 0.58
vt 0.5 0.58
vt 0.3333333 0.56
vt 0.3333333 0.58
vt 0.3333333 0.58
vt 0.1666667 0.58
vt 0.1666667 0.58
vt 0 0.58
vt 1 0.58
vt 0.8333333 0.58
vt 1 0.6
vt 0.8333333 0.6
vt 0.8333333 0.6
vt 0.6666666 0.6
vt 0.6666666 0.6
vt 0.5 0.6
vt 0.3333333 0.6
vt 0.3333333 0.58
vt 0.1666667 0.58
vt 0.3333333 0.6
vt 0.1666667 0.6
vt 0.1666667 0.6
vt 0 0.6
vt 1 0.62
vt 0.8333333 0.62
vt 0.8333333 0.62
vt 0.6666666 0.62
vt 0.6666666 0.62
vt 0.5 0.62
vt 0.3333333 0.62
vt 0.3333333 0.62
vt 0.1666667 0.62
vt 0.1666667 0.62
vt 0 0.62
vt 1 0.64
vt 0.8333333 0.64
vt 0.8333333 0.64
vt 0.6666666 0.64
vt 0.6666666 0.64
vt 0.5 0.64
vt 0.3333333 0.64
vt 0.3333333 0.64
vt 0.1666667 0.64
vt 0.1666667 0.64
vt 0 0.64
vt 1 0.66
vt 0.8333333 0.66
vt 0.8333333 0.66
vt 0.6666666 0.66
vt 0.6666666 0.66
vt 0.5 0.66
vt 0.3333333 0.66
vt 0.3333333 0.66
vt 0.1666667 0.66
vt 0.1666667 0.66
vt 0 0.66
vt 1 0.68
vt 0.8333333 0.68
vt 0.8333333 0.68
vt 0.6666666 0.68
vt 0.6666666 0.68
vt 0.5 0.68
vt 0.3333333 0.68
vt 0.3333333 0.68
vt 0.1666667 0.68
vt 0.1666667 0.68
vt 0 0.68
vt 1 0.7
vt 0.8333333 0.7
vt 0.8333333 0.7
vt 0.6666666 0.7
vt 0.6666666 0.7
vt 0.5 0.7
vt 0.3333333 0.7
vt 0.3333333 0.7
vt 0.1666667 0.7
vt 0.1666667 0.7
vt 0 0.7
vt 1 0.72
vt 0.8333333 0.72
vt 0.8333333 0.72
vt 0.6666666 0.72
vt 0.6666666 0.72
vt 0.5 0.72
vt 0.3333333 0.72
vt 0.3333333 0.72
vt 0.1666667 0.72
vt 0.1666667 0.72
vt 0 0.72
vt 1 0.74
vt 0.8333333 0.74
vt 0.8333333 0.74
vt 0.6666666 0.74
vt 0.6666666 0.74
vt 0.5 0.74
vt 0.3333333 0.74
vt 0.3333333 0.74
vt 0.1666667 0.74
vt 0.1666667 0.74
vt 0 0.74
vt 1 0.76
vt 0.8333333 0.76
vt 0.8333333 0.76
vt 0.6666666 0.76
vt 0.6666666 0.76
vt 0.5 0.76
vt 0.3333333 0.76
vt 0.3333333 0.76
vt 0.1666667 0.76
vt 0.1666667 0.76
vt 0 0.76
vt 1 0.78
vt 0.8333333 0.78
vt 0.8333333 0.78
vt 0.6666666 0.78
vt 0.6666666 0.78
vt 0.5 0.78
vt 0.3333333 0.78
vt 0.3333333 0.78
vt 0.1666667 0.78
vt 0.1666667 0.78
vt 0 0.78
vt 1 0.8
vt 0.8333333 0.8
vt 0.8333333 0.8
vt 0.6666666 0.8
vt 0.6666666 0.8
vt 0.5 0.8
vt 0.5 0.78
vt 0.3333333 0.78
vt 0.5 0.8
vt 0.3333333 0.8
vt 0.3333333 0.8
vt 0.1666667 0.8
vt 0.1666667 0.8
vt 0 0.8
vt 1 0.82
vt 0.8333333 0.82
vt 0.8333333 0.82
vt 0.6666666 0.82
vt 0.6666666 0.82
vt 0.5 0.82
vt 0.5 0.82
vt 0.3333333 0.82
vt 0.3333333 0.82
vt 0.1666667 0.82
vt 0.1666667 0.82
vt 0 0.82
vt 1 0.84
vt 0.8333333 0.84
vt 0.8333333 0.84
vt 0.6666666 0.84
vt 0.6666666 0.84
vt 0.5 0.84
vt 0.5 0.84
vt 0.3333333 0.84
vt 0.3333333 0.84
vt 0.1666667 0.84
vt 0.1666667 0.84
vt 0 0.84
vt 1 0.86
vt 0.8333333 0.86
vt 0.8333333 0.86
vt 0.6666666 0.86
vt 0.6666666 0.86
vt 0.5 0.86
vt 0.5 0.86
vt 0.3333333 0.86
vt 0.1666667 0.84
vt 0.1666667 0.86
vt 0.1666667 0.86
vt 0 0.86
vt 1 0.88
vt 0.8333333 0.88
vt 0.8333333 0.88
vt 0.6666666 0.86
vt 0.6666666 0.88
vt 0.6666666 0.88
vt 0.5 0.88
vt 0.5 0.88
vt 0.3333333 0.88
vt 0.1666667 0.88
vt 0.1666667 0.88
vt 0 0.88
vt 1 0.9
vt 0.8333333 0.9
vt 0.6666666 0.9
vt 0.6666666 0.9
vt 0.5 0.9
vt 0.5 0.9
vt 0.3333333 0.9
vt 0.1666667 0.9
vt 0.1666667 0.9
vt 0 0.9
vt 1 0.92
vt 0.8333333 0.92
vt 0.6666666 0.92
vt 0.6666666 0.92
vt 0.5 0.92
vt 0.5 0.92
vt 0.3333333 0.9
vt 0.3333333 0.92
vt 0.3333333 0.92
vt 0.1666667 0.92
vt 0.1666667 0.92
vt 0 0.9
vt 0 0.92
vt 1 0.94
vt 0.8333333 0.94
vt 0.6666666 0.94
vt 0.6666666 0.94
vt 0.5 0.94
vt 0.3333333 0.94
vt 0.3333333 0.94
vt 0.1666667 0.94
vt 0 0.94
vt 1 0.96
vt 0.8333333 0.96
vt 0.6666666 0.96
vt 0.6666666 0.96
vt 0.5 0.96
vt 0.3333333 0.96
vt 0.3333333 0.96
vt 0.1666667 0.96
vt 0 0.96
vt 1 0.98
vt 0.8333333 0.98
vt 0.6666666 0.98
vt 0.6666666 0.98
vt 0.5 0.98
vt 0.3333333 0.98
vt 0.3333333 0.98
vt 0.1666667 0.98
vt 0 0.98
vt 1 1
vt 0.8333333 1
vt 0.6666666 1
vt 0.6666666 1
vt 0.5 1
vt 0.3333333 1
vt 0.3333333 1
vt 0.1666667 1
vt 0 1

vt2 0.6170542 0.3797077
vt2 0.6177505 0.3816977
vt2 0.6132015 0.3810553
vt2 0.6138946 0.3830473
vt2 0.6015752 0.6260388
vt2 0.6014692 0.6281405
vt2 0.5975041 0.6258336
vt2 0.5973961 0.6279349
vt2 0.00390625 0.4860104
vt2 0.004671509 0.4840482
vt2 0.007709421 0.4874937
vt2 0.008472132 0.4855304
vt2 0.00390625 0.04209769
vt2 0.004540777 0.04009156
vt2 0.007792039 0.04332683
vt2 0.008422135 0.0413193
vt2 0.00405092 0.03618531
vt2 0.00390625 0.03408598
vt2 0.008112187 0.03590517
vt2 0.007965458 0.03380619
vt2 0.6163579 0.3777168
vt2 0.6170542 0.3797077
vt2 0.6125081 0.3790629
vt2 0.6132015 0.3810553
vt2 0.6021067 0.3848936
vt2 0.6027922 0.3868884
vt2 0.5858015 0.6252202
vt2 0.5856891 0.6273218
vt2 0.01865249 0.4917288
vt2 0.01940939 0.4897634
vt2 0.01897872 0.04681106
vt2 0.01959888 0.04480037
vt2 0.01978927 0.03507846
vt2 0.01963817 0.03297937
vt2 0.6014213 0.3828986
vt2 0.6021067 0.3848936
vt2 0.5844684 0.3909098
vt2 0.5851446 0.3929078
vt2 0.5672318 0.6242062
vt2 0.5671145 0.6263071
vt2 0.03603913 0.4983924
vt2 0.0367892 0.4964243
vt2 0.03676258 0.05224275
vt2 0.03737106 0.05022858
vt2 0.03832256 0.03372427
vt2 0.03816653 0.03162598
vt2 0.5837922 0.3889116
vt2 0.5844684 0.3909098
vt2 0.5609867 0.398792
vt2 0.5616527 0.4007936
vt2 0.5425578 0.6227972
vt2 0.5424349 0.6248976
vt2 0.05917537 0.5071635
vt2 0.05991797 0.5051928
vt2 0.06044013 0.05931656
vt2 0.06103555 0.05729844
vt2 0.06295035 0.03186296
vt2 0.06278881 0.02976516
vt2 0.5603207 0.3967904
vt2 0.5609867 0.398792
vt2 0.5323605 0.4082287
vt2 0.533015 0.4102343
vt2 0.5125401 0.6209981
vt2 0.512411 0.6230984
vt2 0.0873692 0.5177224
vt2 0.08810335 0.5157484
vt2 0.08930857 0.06772689
vt2 0.08988938 0.06570432
vt2 0.09291181 0.02951435
vt2 0.09274402 0.02741676
vt2 0.531706 0.4062231
vt2 0.5323605 0.4082287
vt2 0.4992886 0.4189076
vt2 0.4999301 0.4209174
vt2 0.477939 0.6188151
vt2 0.4778028 0.6209148
vt2 0.119929 0.5297487
vt2 0.1206537 0.5277712
vt2 0.1226653 0.07716701
vt2 0.1232296 0.07513978
vt2 0.1274468 0.02669699
vt2 0.1272719 0.02460016
vt2 0.4986472 0.4168978
vt2 0.4992886 0.4189076
vt2 0.4624691 0.4305172
vt2 0.4630958 0.4325317
vt2 0.4395129 0.6162528
vt2 0.4393687 0.6183521
vt2 0.1561644 0.5429228
vt2 0.1568783 0.5409412
vt2 0.1598074 0.0873318
vt2 0.1603528 0.0852995
vt2 0.1657964 0.02343133
vt2 0.1656136 0.02133498
vt2 0.4618424 0.4285025
vt2 0.4624691 0.4305172
vt2 0.4225993 0.4427461
vt2 0.423209 0.4447657
vt2 0.3980188 0.6133174
vt2 0.3978654 0.6154162
vt2 0.1953863 0.5569253
vt2 0.1960877 0.5549395
vt2 0.2000323 0.09791519
vt2 0.2005561 0.09587744
vt2 0.2072035 0.01973663
vt2 0.2070115 0.01764098
vt2 0.4219896 0.4407263
vt2 0.4225993 0.4427461
vt2 0.3803747 0.4552807
vt2 0.3809653 0.4573084
vt2 0.3542116 0.6100135
vt2 0.3540477 0.6121112
vt2 0.236907 0.571438
vt2 0.2375942 0.5694471
vt2 0.2426371 0.1086117
vt2 0.2431361 0.1065676
vt2 0.2509127 0.01563156
vt2 0.2507102 0.01353724
vt2 0.3797852 0.4532568
vt2 0.3803747 0.4552807
vt2 0.3365644 0.4677926
vt2 0.3370554 0.4698446
vt2 0.308752 0.6063414
vt2 0.3086026 0.6084404
vt2 0.2801041 0.5861588
vt2 0.2806873 0.584135
vt2 0.2868944 0.1191055
vt2 0.2873011 0.117041
vt2 0.2960798 0.01113913
vt2 0.2958918 0.009043226
vt2 0.3360749 0.4657493
vt2 0.3365644 0.4677926
vt2 0.2927911 0.4763158
vt2 0.2930332 0.4784062
vt2 0.2638762 0.6035991
vt2 0.2637929 0.6057014
vt2 0.3238343 0.5964989
vt2 0.3241393 0.5944147
vt2 0.3309627 0.12603
vt2 0.3311532 0.1239345
vt2 0.3403276 0.007581471
vt2 0.3402056 0.005481054
vt2 0.2925484 0.4742322
vt2 0.2927911 0.4763158
vt2 0.2501549 0.4780404
vt2 0.2500971 0.4801419
vt2 0.2207328 0.6028655
vt2 0.2207387 0.6049695
vt2 0.3668654 0.5989593
vt2 0.3668248 0.5968536
vt2 0.3736645 0.1270724
vt2 0.3735986 0.1249693
vt2 0.3827566 0.006009994
vt2 0.3827237 0.00390625
vt2 0.2502114 0.4759408
vt2 0.2501549 0.4780404
vt2 0.2089169 0.4742136
vt2 0.2086019 0.4762926
vt2 0.1789178 0.6038895
vt2 0.1790072 0.6059917
vt2 0.4084507 0.594891
vt2 0.4081098 0.5928127
vt2 0.4149435 0.1233901
vt2 0.4146608 0.121305
vt2 0.4239816 0.006167384
vt2 0.4240323 0.004063893
vt2 0.2092308 0.4721359
vt2 0.2089169 0.4742136
vt2 0.1695823 0.466038
vt2 0.1690542 0.4680737
vt2 0.138475 0.606441
vt2 0.1386418 0.6085386
vt2 0.4478685 0.5856606
vt2 0.4472768 0.5836393
vt2 0.4544598 0.116069
vt2 0.4540002 0.1140156
vt2 0.4639558 0.007836862
vt2 0.4640839 0.005736553
vt2 0.1701094 0.4640031
vt2 0.1695823 0.466038
vt2 0.1327917 0.454702
vt2 0.1320889 0.4566844
vt2 0.09987523 0.6102676
vt2 0.100114 0.6123582
vt2 0.4843692 0.5726401
vt2 0.4835701 0.5706913
vt2 0.4916603 0.1061615
vt2 0.4910584 0.1041453
vt2 0.5021925 0.01078381
vt2 0.5023927 0.00868916
vt2 0.1334936 0.45272
vt2 0.1327917 0.454702
vt2 0.09928836 0.4413976
vt2 0.09844028 0.4433229
vt2 0.06389793 0.6150649
vt2 0.06420532 0.6171466
vt2 0.5171845 0.5572122
vt2 0.5162118 0.555344
vt2 0.5258237 0.09469815
vt2 0.525106 0.09272009
vt2 0.5378894 0.014721
vt2 0.5381582 0.01263396
vt2 0.1001356 0.4394733
vt2 0.09928836 0.4413976
vt2 0.06988841 0.4273267
vt2 0.06891437 0.4291917
vt2 0.03153284 0.6204723
vt2 0.0319084 0.622543
vt2 0.5455369 0.5407686
vt2 0.5444127 0.5389875
vt2 0.5561005 0.0826932
vt2 0.5552847 0.08075377
vt2 0.5700295 0.01929881
vt2 0.5703669 0.01722155
vt2 0.07086103 0.4254635
vt2 0.06988841 0.4273267
vt2 0.04545703 0.4137046
vt2 0.04436283 0.4155026
vt2 0.00390625 0.626085
vt2 0.004357022 0.6281405
vt2 0.5686402 0.5247014
vt2 0.5673714 0.5230203
vt2 0.58154 0.07114313
vt2 0.5806339 0.06924416
vt2 0.597452 0.02409974
vt2 0.5978649 0.02203636
vt2 0.04654689 0.4119111
vt2 0.04545703 0.4137046
vt2 0.02686107 0.4018012
vt2 0.02563717 0.4035016
vt2 0.5699378 0.5263379
vt2 0.5869076 0.5120463
vt2 0.5855061 0.5105003
vt2 0.5841067 0.5089549
vt2 0.6010913 0.06100494
vt2 0.600089 0.05915501
vt2 0.6188979 0.02861229
vt2 0.6194189 0.02657368
vt2 0.02808609 0.4000982
vt2 0.02686107 0.4018012
vt2 0.01504282 0.3926413
vt2 0.01352932 0.3940983
vt2 0.5976409 0.5012157
vt2 0.5961719 0.4997061
vt2 0.5945232 0.4984223
vt2 0.6139452 0.05343489
vt2 0.612651 0.05177598
vt2 0.6329166 0.03257813
vt2 0.6334802 0.03055092
vt2 0.01655414 0.3911536
vt2 0.01504282 0.3926413
vt2 0.00390625 0.3790214
vt2 0.00390625 0.3734823
vt2 0.01476976 0.3594816
vt2 0.01642284 0.3607696
vt2 0.6098908 0.4882829
vt2 0.004277796 0.3738106
vt2 0.01302731 0.3583175
vt2 0.6045135 0.4840482
vt2 0.9139518 0.02716052
vt2 0.9317136 0.02716052
vt2 0.9314552 0.02924887
vt2 0.6256688 0.04009156
vt2 0.931529 0.03524871
vt2 0.9139518 0.03524871
vt2 0.9141622 0.03315511
vt2 0.6501198 0.03618531
vt2 0.5889947 0.888046
vt2 0.5801928 0.8726718
vt2 0.5820727 0.8716722
vt2 0.005118006 0.3777168
vt2 0.9881385 0.02325427
vt2 0.9710411 0.01896706
vt2 0.9715154 0.01691608
vt2 0.03315052 0.3377208
vt2 0.03141776 0.3365419
vt2 0.01435045 0.3591608
vt2 0.02966342 0.3354181
vt2 0.6299164 0.04532792
vt2 0.6295751 0.0432515
vt2 0.6583731 0.04321764
vt2 0.6582415 0.04111756
vt2 0.58386 0.8705476
vt2 0.5701286 0.845176
vt2 0.5682873 0.8462064
vt2 0.5664465 0.8472368
vt2 0.9431136 0.01203652
vt2 0.9428472 0.01412461
vt2 0.0538209 0.3068781
vt2 0.05207871 0.3057113
vt2 0.05033695 0.3045448
vt2 0.6956679 0.04219539
vt2 0.6956348 0.04009156
vt2 0.5520835 0.8122621
vt2 0.5502226 0.8132969
vt2 0.548398 0.814359
vt2 0.9059346 0.008036244
vt2 0.9057663 0.01013442
vt2 0.07820711 0.2716783
vt2 0.07648803 0.2705012
vt2 0.07478564 0.2692789
vt2 0.7387495 0.04270275
vt2 0.7388039 0.0405993
vt2 0.5312387 0.7738738
vt2 0.654026 0.0330441
vt2 0.6971847 0.032004
vt2 0.6972574 0.03410698
vt2 0.5280777 0.7760671
vt2 0.5262992 0.777205
vt2 0.8629364 0.005079618
vt2 0.8628554 0.007183061
vt2 0.8628554 0.007183061
vt2 0.8628269 0.00926656
vt2 0.8170078 0.006011864
vt2 0.8170093 0.008118649
vt2 0.104339 0.2343535
vt2 0.1027105 0.2330343
vt2 0.784613 0.04532792
vt2 0.07317223 0.2679159
vt2 0.1010879 0.2317194
vt2 0.7432947 0.0328262
vt2 0.7432163 0.03072341
vt2 0.5025789 0.7375341
vt2 0.5008695 0.7387735
vt2 0.8170062 0.00390625
vt2 0.8170078 0.006011864
vt2 0.7710688 0.006315908
vt2 0.7711281 0.008420067
vt2 0.1346159 0.2001495
vt2 0.1330965 0.1986957
vt2 0.1315858 0.1972518
vt2 0.789487 0.03156012
vt2 0.7894319 0.02945672
vt2 0.4744773 0.7006242
vt2 0.472868 0.701991
vt2 0.7709194 0.00423752
vt2 0.7710688 0.006315908
vt2 0.7275089 0.007590118
vt2 0.7276706 0.009688967
vt2 0.1665172 0.170536
vt2 0.1651805 0.1689081
vt2 0.1638445 0.1672822
vt2 0.8334479 0.03135522
vt2 0.8334953 0.02925156
vt2 0.4447549 0.6678915
vt2 0.4432828 0.6694052
vt2 0.4712432 0.7033394
vt2 0.4418686 0.670973
vt2 0.688163 0.01174604
vt2 0.6885758 0.01381025
vt2 0.1987701 0.148111
vt2 0.197671 0.1463451
vt2 0.1967129 0.1444723
vt2 0.8733705 0.03410698
vt2 0.87367 0.0320242
vt2 0.8337311 0.02716052
vt2 0.8736717 0.02991997
vt2 0.411379 0.6449937
vt2 0.4103637 0.6468449
vt2 0.654026 0.0213324
vt2 0.6548851 0.02325427
vt2 0.4400177 0.8919523
vt2 0.4412745 0.89364
vt2 0.4106561 0.910956
vt2 0.4116974 0.9127846
vt2 0.2310596 0.1351234
vt2 0.2307276 0.1330742
vt2 0.1958531 0.1425071
vt2 0.2303969 0.1309787
vt2 0.9100455 0.03010859
vt2 0.9097899 0.02801986
vt2 0.3774758 0.6320468
vt2 0.3771499 0.6341327
vt2 0.3771499 0.6341327
vt2 0.3769634 0.6361905
vt2 0.3425937 0.6357318
vt2 0.3429265 0.6378165
vt2 0.3800868 0.9257649
vt2 0.3808721 0.927717
vt2 0.2649323 0.1356449
vt2 0.2651742 0.1335724
vt2 0.2654257 0.1314827
vt2 0.00390625 0.9532125
vt2 0.004997286 0.9514131
vt2 0.03523944 0.9697313
vt2 0.03607805 0.9678015
vt2 0.3422555 0.6336409
vt2 0.3425937 0.6357318
vt2 0.3063214 0.6456048
vt2 0.3069272 0.647635
vt2 0.3450439 0.9369472
vt2 0.3455403 0.9389919
vt2 0.3006371 0.143834
vt2 0.3011464 0.1417994
vt2 0.301656 0.1397674
vt2 0.07071825 0.9822662
vt2 0.07127059 0.9802359
vt2 0.3057163 0.6435833
vt2 0.3063214 0.6456048
vt2 0.2692838 0.6574978
vt2 0.2699724 0.6594971
vt2 0.3072159 0.9432463
vt2 0.3074479 0.9453377
vt2 0.3375172 0.15395
vt2 0.3381121 0.1519289
vt2 0.3387055 0.1499151
vt2 0.1087805 0.9897518
vt2 0.1090699 0.9876676
vt2 0.2685979 0.6555097
vt2 0.2692838 0.6574978
vt2 0.2319167 0.6711681
vt2 0.2326781 0.6731346
vt2 0.2678702 0.9454029
vt2 0.2678962 0.9475068
vt2 0.3750886 0.1658257
vt2 0.3757601 0.1638243
vt2 0.3764301 0.1618284
vt2 0.1484133 0.993052
vt2 0.148497 0.9909495
vt2 0.2311574 0.6692096
vt2 0.2319167 0.6711681
vt2 0.1948913 0.6862707
vt2 0.1957213 0.6882047
vt2 0.2281573 0.9441869
vt2 0.2280224 0.9462867
vt2 0.4126008 0.179171
vt2 0.4133439 0.1771922
vt2 0.414086 0.1752171
vt2 0.1884565 0.9929404
vt2 0.1883793 0.9908376
vt2 0.1940631 0.6843424
vt2 0.1948913 0.6862707
vt2 0.1590806 0.7023817
vt2 0.1599787 0.7042817
vt2 0.189239 0.9403597
vt2 0.1889756 0.9424472
vt2 0.449103 0.1936073
vt2 0.4499171 0.1916545
vt2 0.4507309 0.1897044
vt2 0.2277455 0.9901656
vt2 0.2275396 0.9880716
vt2 0.1581842 0.7004858
vt2 0.1590806 0.7023817
vt2 0.125484 0.7190268
vt2 0.1264562 0.7208877
vt2 0.1522816 0.934679
vt2 0.1519147 0.9367509
vt2 0.4835176 0.2087008
vt2 0.4844091 0.2067807
vt2 0.4853005 0.2048622
vt2 0.2651146 0.9854618
vt2 0.2648048 0.9833806
vt2 0.124513 0.7171693
vt2 0.125484 0.7190268
vt2 0.09518028 0.7357004
vt2 0.09624209 0.7375099
vt2 0.1184456 0.9278978
vt2 0.1179914 0.9299523
vt2 0.5146907 0.2239827
vt2 0.5156752 0.2221079
vt2 0.5166602 0.2202337
vt2 0.2994132 0.9795489
vt2 0.2990157 0.9774826
vt2 0.09411947 0.7338935
vt2 0.09518028 0.7357004
vt2 0.06929503 0.7518798
vt2 0.07047809 0.7536111
vt2 0.08886778 0.9207599
vt2 0.0883368 0.922796
vt2 0.5414178 0.2389583
vt2 0.5425297 0.2371527
vt2 0.5436394 0.2353513
vt2 0.3295311 0.9731285
vt2 0.3290563 0.9710786
vt2 0.06811251 0.7501501
vt2 0.06929503 0.7518798
vt2 0.04897294 0.7670403
vt2 0.050345 0.7686283
vt2 0.06463384 0.9139924
vt2 0.06402879 0.9160076
vt2 0.562516 0.2531453
vt2 0.5638459 0.2514801
vt2 0.5651371 0.2497991
vt2 0.3544685 0.9668601
vt2 0.3539191 0.964829
vt2 0.0476029 0.7654561
vt2 0.04897294 0.7670403
vt2 0.03527252 0.7805879
vt2 0.03685211 0.7819661
vt2 0.0465453 0.9080923
vt2 0.04587854 0.9100879
vt2 0.5765267 0.2664686
vt2 0.5780993 0.2650304
vt2 0.759096 0.04923417
vt2 0.7601937 0.05102585
vt2 0.7419157 0.05822509
vt2 0.7427809 0.06013975
vt2 0.3733955 0.9614584
vt2 0.3727838 0.9594452
vt2 0.03369572 0.7792136
vt2 0.03527252 0.7805879
vt2 0.02620163 0.7921797
vt2 0.02790156 0.7934029
vt2 0.03284071 0.9030905
vt2 0.03213396 0.9050725
vt2 0.5855004 0.2782595
vt2 0.5872132 0.276992
vt2 0.7279714 0.06326547
vt2 0.7286735 0.06524572
vt2 0.3877844 0.9571324
vt2 0.3871326 0.9551316
vt2 0.02450472 0.7909594
vt2 0.02620163 0.7921797
vt2 0.01913553 0.8021202
vt2 0.0209151 0.8032216
vt2 0.02153465 0.8987083
vt2 0.02081178 0.9006844
vt2 0.5923291 0.2884865
vt2 0.5941315 0.2873495
vt2 0.7162408 0.06690055
vt2 0.7168105 0.06892291
vt2 0.3996521 0.9534084
vt2 0.3989839 0.9514131
vt2 0.01736244 0.8010241
vt2 0.01913553 0.8021202
vt2 0.01391778 0.8109214
vt2 0.01580095 0.8118176
vt2 0.01214699 0.8949886
vt2 0.01146011 0.8969775
vt2 0.5971369 0.2974682
vt2 0.5990462 0.2965219
vt2 0.706193 0.06897794
vt2 0.7065653 0.07102401
vt2 0.7172899 0.07100409
vt2 0.7069339 0.07309226
vt2 0.01204516 0.8100317
vt2 0.01391778 0.8109214
vt2 0.01032794 0.8191128
vt2 0.01229437 0.8197242
vt2 0.00390625 0.8919523
vt2 0.0172195 0.8123283
vt2 0.01428191 0.8202688
vt2 0.6002511 0.3056501
vt2 0.6022529 0.3049196
vt2 0.6974138 0.06981342
vt2 0.6975371 0.07190786
vt2 0.6976582 0.07399203
vt2 0.008352024 0.818494
vt2 0.01032794 0.8191128
vt2 0.008014228 0.8274046
vt2 0.0100725 0.827683
vt2 0.01213532 0.8279642
vt2 0.602236 0.3136209
vt2 0.6042878 0.3130456
vt2 0.6891403 0.06925755
vt2 0.6889079 0.07138286
vt2 0.6887366 0.07348012
vt2 0.005954257 0.8269848
vt2 0.008014228 0.8274046
vt2 0.007140235 0.8364165
vt2 0.00919981 0.8363824
vt2 0.01127048 0.8363506
vt2 0.6039494 0.3221141
vt2 0.6060109 0.3215749
vt2 0.6806938 0.0670516
vt2 0.6049646 0.3125099
vt2 0.6079984 0.3208938
vt2 0.680158 0.06959407
vt2 0.6796883 0.07164542
vt2 0.00390625 0.8359782
vt2 0.6878536 0.07670251
vt2 0.6790781 0.07367972
vt2 0.007695596 0.8464929
vt2 0.009739071 0.8462378
vt2 0.01178351 0.8459817
vt2 0.6062407 0.3318128
vt2 0.6083131 0.3312646
vt2 0.6103767 0.3307174
vt2 0.6706874 0.06639256
vt2 0.670004 0.06837359
vt2 0.6693182 0.07035954
vt2 0.009497305 0.8581045
vt2 0.01152346 0.8577231
vt2 0.01354695 0.8573413
vt2 0.6090584 0.3434179
vt2 0.6111152 0.3428874
vt2 0.6131836 0.3423561
vt2 0.6597603 0.06204803
vt2 0.658962 0.06400355
vt2 0.6581684 0.06595112
vt2 0.01231569 0.8717769
vt2 0.01433365 0.8713393
vt2 0.01634659 0.8709019
vt2 0.6125887 0.3572893
vt2 0.6146371 0.3567492
vt2 0.6166945 0.3562078
vt2 0.6467936 0.05637154
vt2 0.6459302 0.05830202
vt2 0.6450689 0.06022907
vt2 0.01595425 0.888046
vt2 0.01797461 0.8875924
vt2 0.01998819 0.8871396
vt2 0.6170177 0.3738106
vt2 0.6190593 0.3732627
vt2 0.6211087 0.3727135
vt2 0.6313456 0.04923417
vt2 0.6304601 0.05115366
vt2 0.6295751 0.05307241


vc 1 1 1 1
vc 1 1 1 1
vc 1 1 1 1
vc 1 1 1 1
vc 1 1 1 1
vc 1 1 1 1
vc 1 1 1 1
vc 1 1 1 1
vc 1 1 1 1
vc 1 1 1 1
vc 1 1 1 1
vc 1 1 1 1
vc 1 1 1 1
vc 1 1 1 1
vc 1 1 1 1
vc 1 1 1 1
vc 1 1 1 1
vc 1 1 1 1
vc 1 1 1 1
vc 1 1 1 1
vc 1 1 1 1
vc 1 1 1 1
vc 1 1 1 1
vc 1 1 1 1
vc 1 1 1 1
vc 1 1 1 1
vc 1 1 1 1
vc 1 1 1 1
vc 1 1 1 1
vc 1 1 1 1
vc 1 1 1 1
vc 1 1 1 1
vc 1 1 1 1
vc 1 1 1 1
vc 1 1 1 1
vc 1 1 1 1
vc 1 1 1 1
vc 1 1 1 1
vc 1 1 1 1
vc 1 1 1 1
vc 1 1 1 1
vc 1 1 1 1
vc 1 1 1 1
vc 1 1 1 1
vc 1 1 1 1
vc 1 1 1 1
vc 1 1 1 1
vc 1 1 1 1
vc 1 1 1 1
vc 1 1 1 1
vc 1 1 1 1
vc 1 1 1 1
vc 1 1 1 1
vc 1 1 1 1
vc 1 1 1 1
vc 1 1 1 1
vc 1 1 1 1
vc 1 1 1 1
vc 1 1 1 1
vc 1 1 1 1
vc 1 1 1 1
vc 1 1 1 1
vc 1 1 1 1
vc 1 1 1 1
vc 1 1 1 1
vc 1 1 1 1
vc 1 1 1 1
vc 1 1 1 1
vc 1 1 1 1
vc 1 1 1 1
vc 1 1 1 1
vc 1 1 1 1
vc 1 1 1 1
vc 1 1 1 1
vc 1 1 1 1
vc 1 1 1 1
vc 1 1 1 1
vc 1 1 1 1
vc 1 1 1 1
vc 1 1 1 1
vc 1 1 1 1
vc 1 1 1 1
vc 1 1 1 1
vc 1 1 1 1
vc 1 1 1 1
vc 1 1 1 1
vc 1 1 1 1
vc 1 1 1 1
vc 1 1 1 1
vc 1 1 1 1
vc 1 1 1 1
vc 1 1 1 1
vc 1 1 1 1
vc 1 1 1 1
vc 1 1 1 1
vc 1 1 1 1
vc 1 1 1 1
vc 1 1 1 1
vc 1 1 1 1
vc 1 1 1 1
vc 1 1 1 1
vc 1 1 1 1
vc 1 1 1 1
vc 1 1 1 1
vc 1 1 1 1
vc 1 1 1 1
vc 1 1 1 1
vc 1 1 1 1
vc 1 1 1 1
vc 1 1 1 1
vc 1 1 1 1
vc 1 1 1 1
vc 1 1 1 1
vc 1 1 1 1
vc 1 1 1 1
vc 1 1 1 1
vc 1 1 1 1
vc 1 1 1 1
vc 1 1 1 1
vc 1 1 1 1
vc 1 1 1 1
vc 1 1 1 1
vc 1 1 1 1
vc 1 1 1 1
vc 1 1 1 1
vc 1 1 1 1
vc 1 1 1 1
vc 1 1 1 1
vc 1 1 1 1
vc 1 1 1 1
vc 1 1 1 1
vc 1 1 1 1
vc 1 1 1 1
vc 1 1 1 1
vc 1 1 1 1
vc 1 1 1 1
vc 1 1 1 1
vc 1 1 1 1
vc 1 1 1 1
vc 1 1 1 1
vc 1 1 1 1
vc 1 1 1 1
vc 1 1 1 1
vc 1 1 1 1
vc 1 1 1 1
vc 1 1 1 1
vc 1 1 1 1
vc 1 1 1 1
vc 1 1 1 1
vc 1 1 1 1
vc 1 1 1 1
vc 1 1 1 1
vc 1 1 1 1
vc 1 1 1 1
vc 1 1 1 1
vc 1 1 1 1
vc 1 1 1 1
vc 1 1 1 1
vc 1 1 1 1
vc 1 1 1 1
vc 1 1 1 1
vc 1 1 1 1
vc 1 1 1 1
vc 1 1 1 1
vc 1 1 1 1
vc 1 1 1 1
vc 1 1 1 1
vc 1 1 1 1
vc 1 1 1 1
vc 1 1 1 1
vc 1 1 1 1
vc 1 1 1 1
vc 1 1 1 1
vc 1 1 1 1
vc 1 1 1 1
vc 1 1 1 1
vc 1 1 1 1
vc 1 1 1 1
vc 1 1 1 1
vc 1 1 1 1
vc 1 1 1 1
vc 1 1 1 1
vc 1 1 1 1
vc 1 1 1 1
vc 1 1 1 1
vc 1 1 1 1
vc 1 1 1 1
vc 1 1 1 1
vc 1 1 1 1
vc 1 1 1 1
vc 1 1 1 1
vc 1 1 1 1
vc 1 1 1 1
vc 1 1 1 1
vc 1 1 1 1
vc 1 1 1 1
vc 1 1 1 1
vc 1 1 1 1
vc 1 1 1 1
vc 1 1 1 1
vc 1 1 1 1
vc 1 1 1 1
vc 1 1 1 1
vc 1 1 1 1
vc 1 1 1 1
vc 1 1 1 1
vc 1 1 1 1
vc 1 1 1 1
vc 1 1 1 1
vc 1 1 1 1
vc 1 1 1 1
vc 1 1 1 1
vc 1 1 1 1
vc 1 1 1 1
vc 1 1 1 1
vc 1 1 1 1
vc 1 1 1 1
vc 1 1 1 1
vc 1 1 1 1
vc 1 1 1 1
vc 1 1 1 1
vc 1 1 1 1
vc 1 1 1 1
vc 1 1 1 1
vc 1 1 1 1
vc 1 1 1 1
vc 1 1 1 1
vc 1 1 1 1
vc 1 1 1 1
vc 1 1 1 1
vc 1 1 1 1
vc 1 1 1 1
vc 1 1 1 1
vc 1 1 1 1
vc 1 1 1 1
vc 1 1 1 1
vc 1 1 1 1
vc 1 1 1 1
vc 1 1 1 1
vc 1 1 1 1
vc 1 1 1 1
vc 1 1 1 1
vc 1 1 1 1
vc 1 1 1 1
vc 1 1 1 1
vc 1 1 1 1
vc 1 1 1 1
vc 1 1 1 1
vc 1 1 1 1
vc 1 1 1 1
vc 1 1 1 1
vc 1 1 1 1
vc 1 1 1 1
vc 1 1 1 1
vc 1 1 1 1
vc 1 1 1 1
vc 1 1 1 1
vc 1 1 1 1
vc 1 1 1 1
vc 1 1 1 1
vc 1 1 1 1
vc 1 1 1 1
vc 1 1 1 1
vc 1 1 1 1
vc 1 1 1 1
vc 1 1 1 1
vc 1 1 1 1
vc 1 1 1 1
vc 1 1 1 1
vc 1 1 1 1
vc 1 1 1 1
vc 1 1 1 1
vc 1 1 1 1
vc 1 1 1 1
vc 1 1 1 1
vc 1 1 1 1
vc 1 1 1 1
vc 1 1 1 1
vc 1 1 1 1
vc 1 1 1 1
vc 1 1 1 1
vc 1 1 1 1
vc 1 1 1 1
vc 1 1 1 1
vc 1 1 1 1
vc 1 1 1 1
vc 1 1 1 1
vc 1 1 1 1
vc 1 1 1 1
vc 1 1 1 1
vc 1 1 1 1
vc 1 1 1 1
vc 1 1 1 1
vc 1 1 1 1
vc 1 1 1 1
vc 1 1 1 1
vc 1 1 1 1
vc 1 1 1 1
vc 1 1 1 1
vc 1 1 1 1
vc 1 1 1 1
vc 1 1 1 1
vc 1 1 1 1
vc 1 1 1 1
vc 1 1 1 1
vc 1 1 1 1
vc 1 1 1 1
vc 1 1 1 1
vc 1 1 1 1
vc 1 1 1 1
vc 1 1 1 1
vc 1 1 1 1
vc 1 1 1 1
vc 1 1 1 1
vc 1 1 1 1
vc 1 1 1 1
vc 1 1 1 1
vc 1 1 1 1
vc 1 1 1 1
vc 1 1 1 1
vc 1 1 1 1
vc 1 1 1 1
vc 1 1 1 1
vc 1 1 1 1
vc 1 1 1 1
vc 1 1 1 1
vc 1 1 1 1
vc 1 1 1 1
vc 1 1 1 1
vc 1 1 1 1
vc 1 1 1 1
vc 1 1 1 1
vc 1 1 1 1
vc 1 1 1 1
vc 1 1 1 1
vc 1 1 1 1
vc 1 1 1 1
vc 1 1 1 1
vc 1 1 1 1
vc 1 1 1 1
vc 1 1 1 1
vc 1 1 1 1
vc 1 1 1 1
vc 1 1 1 1
vc 1 1 1 1
vc 1 1 1 1
vc 1 1 1 1
vc 1 1 1 1
vc 1 1 1 1
vc 1 1 1 1
vc 1 1 1 1
vc 1 1 1 1
vc 1 1 1 1
vc 1 1 1 1
vc 1 1 1 1
vc 1 1 1 1
vc 1 1 1 1
vc 1 1 1 1
vc 1 1 1 1
vc 1 1 1 1
vc 1 1 1 1
vc 1 1 1 1
vc 1 1 1 1
vc 1 1 1 1
vc 1 1 1 1
vc 1 1 1 1
vc 1 1 1 1
vc 1 1 1 1
vc 1 1 1 1
vc 1 1 1 1
vc 1 1 1 1
vc 1 1 1 1
vc 1 1 1 1
vc 1 1 1 1
vc 1 1 1 1
vc 1 1 1 1
vc 1 1 1 1
vc 1 1 1 1
vc 1 1 1 1
vc 1 1 1 1
vc 1 1 1 1
vc 1 1 1 1
vc 1 1 1 1
vc 1 1 1 1
vc 1 1 1 1
vc 1 1 1 1
vc 1 1 1 1
vc 1 1 1 1
vc 1 1 1 1
vc 1 1 1 1
vc 1 1 1 1
vc 1 1 1 1
vc 1 1 1 1
vc 1 1 1 1
vc 1 1 1 1
vc 1 1 1 1
vc 1 1 1 1
vc 1 1 1 1
vc 1 1 1 1
vc 1 1 1 1
vc 1 1 1 1
vc 1 1 1 1
vc 1 1 1 1
vc 1 1 1 1
vc 1 1 1 1
vc 1 1 1 1
vc 1 1 1 1
vc 1 1 1 1
vc 1 1 1 1
vc 1 1 1 1
vc 1 1 1 1
vc 1 1 1 1
vc 1 1 1 1
vc 1 1 1 1
vc 1 1 1 1
vc 1 1 1 1
vc 1 1 1 1
vc 1 1 1 1
vc 1 1 1 1
vc 1 1 1 1
vc 1 1 1 1
vc 1 1 1 1
vc 1 1 1 1
vc 1 1 1 1
vc 1 1 1 1
vc 1 1 1 1
vc 1 1 1 1
vc 1 1 1 1
vc 1 1 1 1
vc 1 1 1 1
vc 1 1 1 1
vc 1 1 1 1
vc 1 1 1 1
vc 1 1 1 1
vc 1 1 1 1
vc 1 1 1 1
vc 1 1 1 1
vc 1 1 1 1
vc 1 1 1 1
vc 1 1 1 1
vc 1 1 1 1
vc 1 1 1 1
vc 1 1 1 1
vc 1 1 1 1
vc 1 1 1 1
vc 1 1 1 1
vc 1 1 1 1
vc 1 1 1 1
vc 1 1 1 1
vc 1 1 1 1
vc 1 1 1 1
vc 1 1 1 1
vc 1 1 1 1
vc 1 1 1 1
vc 1 1 1 1
vc 1 1 1 1
vc 1 1 1 1
vc 1 1 1 1
vc 1 1 1 1
vc 1 1 1 1
vc 1 1 1 1
vc 1 1 1 1
vc 1 1 1 1
vc 1 1 1 1
vc 1 1 1 1
vc 1 1 1 1
vc 1 1 1 1
vc 1 1 1 1
vc 1 1 1 1
vc 1 1 1 1
vc 1 1 1 1
vc 1 1 1 1
vc 1 1 1 1
vc 1 1 1 1
vc 1 1 1 1
vc 1 1 1 1
vc 1 1 1 1
vc 1 1 1 1
vc 1 1 1 1
vc 1 1 1 1
vc 1 1 1 1
vc 1 1 1 1
vc 1 1 1 1
vc 1 1 1 1
vc 1 1 1 1
vc 1 1 1 1
vc 1 1 1 1
vc 1 1 1 1
vc 1 1 1 1
vc 1 1 1 1
vc 1 1 1 1
vc 1 1 1 1
vc 1 1 1 1
vc 1 1 1 1
vc 1 1 1 1
vc 1 1 1 1
vc 1 1 1 1
vc 1 1 1 1
vc 1 1 1 1
vc 1 1 1 1
vc 1 1 1 1
vc 1 1 1 1
vc 1 1 1 1
vc 1 1 1 1
vc 1 1 1 1
vc 1 1 1 1
vc 1 1 1 1
vc 1 1 1 1
vc 1 1 1 1
vc 1 1 1 1
vc 1 1 1 1
vc 1 1 1 1
vc 1 1 1 1
vc 1 1 1 1
vc 1 1 1 1
vc 1 1 1 1
vc 1 1 1 1
vc 1 1 1 1
vc 1 1 1 1
vc 1 1 1 1
vc 1 1 1 1
vc 1 1 1 1
vc 1 1 1 1
vc 1 1 1 1
vc 1 1 1 1
vc 1 1 1 1
vc 1 1 1 1
vc 1 1 1 1
vc 1 1 1 1
vc 1 1 1 1
vc 1 1 1 1
vc 1 1 1 1
vc 1 1 1 1
vc 1 1 1 1
vc 1 1 1 1
vc 1 1 1 1
vc 1 1 1 1
vc 1 1 1 1
vc 1 1 1 1
vc 1 1 1 1
vc 1 1 1 1
vc 1 1 1 1
vc 1 1 1 1
vc 1 1 1 1
vc 1 1 1 1
vc 1 1 1 1
vc 1 1 1 1
vc 1 1 1 1
vc 1 1 1 1
vc 1 1 1 1
vc 1 1 1 1
vc 1 1 1 1
vc 1 1 1 1
vc 1 1 1 1
vc 1 1 1 1
vc 1 1 1 1
vc 1 1 1 1
vc 1 1 1 1
vc 1 1 1 1
vc 1 1 1 1
vc 1 1 1 1
vc 1 1 1 1
vc 1 1 1 1
vc 1 1 1 1
vc 1 1 1 1
vc 1 1 1 1
vc 1 1 1 1
vc 1 1 1 1
vc 1 1 1 1
vc 1 1 1 1
vc 1 1 1 1
vc 1 1 1 1
vc 1 1 1 1
vc 1 1 1 1
vc 1 1 1 1
vc 1 1 1 1
vc 1 1 1 1
vc 1 1 1 1
vc 1 1 1 1
vc 1 1 1 1
vc 1 1 1 1
vc 1 1 1 1
vc 1 1 1 1
vc 1 1 1 1
vc 1 1 1 1
vc 1 1 1 1
vc 1 1 1 1
vc 1 1 1 1
vc 1 1 1 1
vc 1 1 1 1
vc 1 1 1 1
vc 1 1 1 1
vc 1 1 1 1
vc 1 1 1 1
vc 1 1 1 1
vc 1 1 1 1
vc 1 1 1 1
vc 1 1 1 1
vc 1 1 1 1
vc 1 1 1 1
vc 1 1 1 1
vc 1 1 1 1
vc 1 1 1 1
vc 1 1 1 1
vc 1 1 1 1
vc 1 1 1 1
vc 1 1 1 1
vc 1 1 1 1

usemtl LunetteO2
usemap LunetteO2
f 3/3/3 2/2/2 1/1/1
f 3/3/3 4/4/4 2/2/2
f 7/7/7 6/6/6 5/5/5
f 7/7/7 8/8/8 6/6/6
f 11/11/11 10/10/10 9/9/9
f 11/11/11 12/12/12 10/10/10
f 15/15/15 14/14/14 13/13/13
f 15/15/15 16/16/16 14/14/14
f 19/19/19 18/18/18 17/17/17
f 19/19/19 20/20/20 18/18/18
f 23/23/23 22/22/22 21/21/21
f 23/23/23 24/24/24 22/22/22
f 25/25/25 4/4/4 3/3/3
f 25/25/25 26/26/26 4/4/4
f 27/27/27 8/8/8 7/7/7
f 27/27/27 28/28/28 8/8/8
f 29/29/29 12/12/12 11/11/11
f 29/29/29 30/30/30 12/12/12
f 31/31/31 16/16/16 15/15/15
f 31/31/31 32/32/32 16/16/16
f 33/33/33 20/20/20 19/19/19
f 33/33/33 34/34/34 20/20/20
f 35/35/35 24/24/24 23/23/23
f 35/35/35 36/36/36 24/24/24
f 37/37/37 26/26/26 25/25/25
f 37/37/37 38/38/38 26/26/26
f 39/39/39 28/28/28 27/27/27
f 39/39/39 40/40/40 28/28/28
f 41/41/41 30/30/30 29/29/29
f 41/41/41 42/42/42 30/30/30
f 43/43/43 32/32/32 31/31/31
f 43/43/43 44/44/44 32/32/32
f 45/45/45 34/34/34 33/33/33
f 45/45/45 46/46/46 34/34/34
f 47/47/47 36/36/36 35/35/35
f 47/47/47 48/48/48 36/36/36
f 49/49/49 38/38/38 37/37/37
f 49/49/49 50/50/50 38/38/38
f 51/51/51 40/40/40 39/39/39
f 51/51/51 52/52/52 40/40/40
f 53/53/53 42/42/42 41/41/41
f 53/53/53 54/54/54 42/42/42
f 55/55/55 44/44/44 43/43/43
f 55/55/55 56/56/56 44/44/44
f 57/57/57 46/46/46 45/45/45
f 57/57/57 58/58/58 46/46/46
f 59/59/59 48/48/48 47/47/47
f 59/59/59 60/60/60 48/48/48
f 61/61/61 50/50/50 49/49/49
f 61/61/61 62/62/62 50/50/50
f 63/63/63 52/52/52 51/51/51
f 63/63/63 64/64/64 52/52/52
f 65/65/65 54/54/54 53/53/53
f 65/65/65 66/66/66 54/54/54
f 67/67/67 56/56/56 55/55/55
f 67/67/67 68/68/68 56/56/56
f 69/69/69 58/58/58 57/57/57
f 69/69/69 70/70/70 58/58/58
f 71/71/71 60/60/60 59/59/59
f 71/71/71 72/72/72 60/60/60
f 73/73/73 62/62/62 61/61/61
f 73/73/73 74/74/74 62/62/62
f 75/75/75 64/64/64 63/63/63
f 75/75/75 76/76/76 64/64/64
f 77/77/77 66/66/66 65/65/65
f 77/77/77 78/78/78 66/66/66
f 79/79/79 68/68/68 67/67/67
f 79/79/79 80/80/80 68/68/68
f 81/81/81 70/70/70 69/69/69
f 81/81/81 82/82/82 70/70/70
f 83/83/83 72/72/72 71/71/71
f 83/83/83 84/84/84 72/72/72
f 85/85/85 74/74/74 73/73/73
f 85/85/85 86/86/86 74/74/74
f 87/87/87 76/76/76 75/75/75
f 87/87/87 88/88/88 76/76/76
f 89/89/89 78/78/78 77/77/77
f 89/89/89 90/90/90 78/78/78
f 91/91/91 80/80/80 79/79/79
f 91/91/91 92/92/92 80/80/80
f 93/93/93 82/82/82 81/81/81
f 93/93/93 94/94/94 82/82/82
f 95/95/95 84/84/84 83/83/83
f 95/95/95 96/96/96 84/84/84
f 97/97/97 86/86/86 85/85/85
f 97/97/97 98/98/98 86/86/86
f 99/99/99 88/88/88 87/87/87
f 99/99/99 100/100/100 88/88/88
f 101/101/101 90/90/90 89/89/89
f 101/101/101 102/102/102 90/90/90
f 103/103/103 92/92/92 91/91/91
f 103/103/103 104/104/104 92/92/92
f 105/105/105 94/94/94 93/93/93
f 105/105/105 106/106/106 94/94/94
f 107/107/107 96/96/96 95/95/95
f 107/107/107 108/108/108 96/96/96
f 109/109/109 98/98/98 97/97/97
f 109/109/109 110/110/110 98/98/98
f 111/111/111 100/100/100 99/99/99
f 111/111/111 112/112/112 100/100/100
f 113/113/113 102/102/102 101/101/101
f 113/113/113 114/114/114 102/102/102
f 115/115/115 104/104/104 103/103/103
f 115/115/115 116/116/116 104/104/104
f 117/117/117 106/106/106 105/105/105
f 117/117/117 118/118/118 106/106/106
f 119/119/119 108/108/108 107/107/107
f 119/119/119 120/120/120 108/108/108
f 121/121/121 110/110/110 109/109/109
f 121/121/121 122/122/122 110/110/110
f 123/123/123 112/112/112 111/111/111
f 123/123/123 124/124/124 112/112/112
f 125/125/125 114/114/114 113/113/113
f 125/125/125 126/126/126 114/114/114
f 127/127/127 116/116/116 115/115/115
f 127/127/127 128/128/128 116/116/116
f 129/129/129 118/118/118 117/117/117
f 129/129/129 130/130/130 118/118/118
f 131/131/131 120/120/120 119/119/119
f 131/131/131 132/132/132 120/120/120
f 133/133/133 122/122/122 121/121/121
f 133/133/133 134/134/134 122/122/122
f 135/135/135 124/124/124 123/123/123
f 135/135/135 136/136/136 124/124/124
f 137/137/137 126/126/126 125/125/125
f 137/137/137 138/138/138 126/126/126
f 139/139/139 128/128/128 127/127/127
f 139/139/139 140/140/140 128/128/128
f 141/141/141 130/130/130 129/129/129
f 141/141/141 142/142/142 130/130/130
f 143/143/143 132/132/132 131/131/131
f 143/143/143 144/144/144 132/132/132
f 145/145/145 134/134/134 133/133/133
f 145/145/145 146/146/146 134/134/134
f 147/147/147 136/136/136 135/135/135
f 147/147/147 148/148/148 136/136/136
f 149/149/149 138/138/138 137/137/137
f 149/149/149 150/150/150 138/138/138
f 151/151/151 140/140/140 139/139/139
f 151/151/151 152/152/152 140/140/140
f 153/153/153 142/142/142 141/141/141
f 153/153/153 154/154/154 142/142/142
f 155/155/155 144/144/144 143/143/143
f 155/155/155 156/156/156 144/144/144
f 157/157/157 146/146/146 145/145/145
f 157/157/157 158/158/158 146/146/146
f 159/159/159 148/148/148 147/147/147
f 159/159/159 160/160/160 148/148/148
f 161/161/161 150/150/150 149/149/149
f 161/161/161 162/162/162 150/150/150
f 163/163/163 152/152/152 151/151/151
f 163/163/163 164/164/164 152/152/152
f 165/165/165 154/154/154 153/153/153
f 165/165/165 166/166/166 154/154/154
f 167/167/167 156/156/156 155/155/155
f 167/167/167 168/168/168 156/156/156
f 169/169/169 158/158/158 157/157/157
f 169/169/169 170/170/170 158/158/158
f 171/171/171 160/160/160 159/159/159
f 171/171/171 172/172/172 160/160/160
f 173/173/173 162/162/162 161/161/161
f 173/173/173 174/174/174 162/162/162
f 175/175/175 164/164/164 163/163/163
f 175/175/175 176/176/176 164/164/164
f 177/177/177 166/166/166 165/165/165
f 177/177/177 178/178/178 166/166/166
f 179/179/179 168/168/168 167/167/167
f 179/179/179 180/180/180 168/168/168
f 181/181/181 170/170/170 169/169/169
f 181/181/181 182/182/182 170/170/170
f 183/183/183 172/172/172 171/171/171
f 183/183/183 184/184/184 172/172/172
f 185/185/185 174/174/174 173/173/173
f 185/185/185 186/186/186 174/174/174
f 187/187/187 176/176/176 175/175/175
f 187/187/187 188/188/188 176/176/176
f 189/189/189 178/178/178 177/177/177
f 189/189/189 190/190/190 178/178/178
f 191/191/191 180/180/180 179/179/179
f 191/191/191 192/192/192 180/180/180
f 193/193/193 182/182/182 181/181/181
f 193/193/193 194/194/194 182/182/182
f 195/195/195 184/184/184 183/183/183
f 195/195/195 196/196/196 184/184/184
f 197/197/197 186/186/186 185/185/185
f 197/197/197 198/198/198 186/186/186
f 199/199/199 188/188/188 187/187/187
f 199/199/199 200/200/200 188/188/188
f 201/201/201 190/190/190 189/189/189
f 201/201/201 202/202/202 190/190/190
f 203/203/203 192/192/192 191/191/191
f 203/203/203 204/204/204 192/192/192
f 205/205/205 194/194/194 193/193/193
f 205/205/205 206/206/206 194/194/194
f 207/207/207 196/196/196 195/195/195
f 207/207/207 208/208/208 196/196/196
f 209/209/209 198/198/198 197/197/197
f 209/209/209 210/210/210 198/198/198
f 211/211/211 200/200/200 199/199/199
f 211/211/211 212/212/212 200/200/200
f 213/213/213 202/202/202 201/201/201
f 213/213/213 214/214/214 202/202/202
f 215/215/215 204/204/204 203/203/203
f 215/215/215 216/216/216 204/204/204
f 217/217/217 206/206/206 205/205/205
f 217/217/217 218/218/218 206/206/206
f 219/219/219 208/208/208 207/207/207
f 219/219/219 220/220/220 208/208/208
f 221/221/221 210/210/210 209/209/209
f 221/221/221 222/222/222 210/210/210
f 223/223/223 212/212/212 211/211/211
f 223/223/223 224/224/224 212/212/212
f 225/225/225 214/214/214 213/213/213
f 225/225/225 226/226/226 214/214/214
f 227/227/227 216/216/216 215/215/215
f 227/227/227 228/228/228 216/216/216
f 229/229/229 218/218/218 217/217/217
f 229/229/229 230/230/230 218/218/218
f 232/232/232 221/221/221 231/231/231
f 232/232/232 233/233/233 221/221/221
f 233/233/233 222/222/222 221/221/221
f 233/233/233 234/234/234 222/222/222
f 235/235/235 224/224/224 223/223/223
f 235/235/235 236/236/236 224/224/224
f 237/237/237 226/226/226 225/225/225
f 237/237/237 238/238/238 226/226/226
f 239/239/239 228/228/228 227/227/227
f 239/239/239 240/240/240 228/228/228
f 241/241/241 230/230/230 229/229/229
f 241/241/241 242/242/242 230/230/230
f 243/243/243 233/233/233 232/232/232
f 243/243/243 244/244/244 233/233/233
f 244/244/244 234/234/234 233/233/233
f 244/244/244 245/245/245 234/234/234
f 246/246/246 236/236/236 235/235/235
f 246/246/246 247/247/247 236/236/236
f 248/248/248 238/238/238 237/237/237
f 248/248/248 249/249/249 238/238/238
f 250/250/250 240/240/240 239/239/239
f 250/250/250 251/251/251 240/240/240
f 252/252/252 242/242/242 241/241/241
f 255/255/255 254/254/254 253/253/253
f 256/256/256 244/244/244 243/243/243
f 254/254/254 258/258/258 257/257/257
f 259/259/259 245/245/245 244/244/244
f 262/262/262 261/261/261 260/260/260
f 263/263/263 247/247/247 246/246/246
f 266/266/266 265/265/265 264/264/264
f 267/267/267 249/249/249 248/248/248
f 270/270/270 269/269/269 268/268/268
f 271/271/271 251/251/251 250/250/250
f 274/274/274 273/273/273 272/272/272
f 275/275/275 254/254/254 255/255/255
f 275/275/275 276/276/276 254/254/254
f 276/276/276 258/258/258 254/254/254
f 276/276/276 278/278/278 277/277/277
f 281/281/281 280/280/280 279/279/279
f 281/281/281 282/282/282 280/280/280
f 284/284/284 270/270/270 283/283/283
f 284/284/284 285/285/285 270/270/270
f 285/285/285 269/269/269 270/270/270
f 285/285/285 286/286/286 269/269/269
f 287/287/287 273/273/273 274/274/274
f 287/287/287 288/288/288 273/273/273
f 289/289/289 276/276/276 275/275/275
f 289/289/289 290/290/290 276/276/276
f 290/290/290 278/278/278 276/276/276
f 290/290/290 291/291/291 278/278/278
f 292/292/292 282/282/282 281/281/281
f 292/292/292 293/293/293 282/282/282
f 294/294/294 285/285/285 284/284/284
f 294/294/294 295/295/295 285/285/285
f 295/295/295 286/286/286 285/285/285
f 295/295/295 296/296/296 286/286/286
f 297/297/297 288/288/288 287/287/287
f 297/297/297 298/298/298 288/288/288
f 299/299/299 290/290/290 289/289/289
f 299/299/299 300/300/300 290/290/290
f 300/300/300 291/291/291 290/290/290
f 300/300/300 301/301/301 291/291/291
f 302/302/302 293/293/293 292/292/292
f 302/302/302 303/303/303 293/293/293
f 304/304/304 295/295/295 294/294/294
f 307/307/307 306/306/306 305/305/305
f 308/308/308 296/296/296 295/295/295
f 308/308/308 309/309/309 296/296/296
f 310/310/310 298/298/298 297/297/297
f 310/310/310 311/311/311 298/298/298
f 314/314/314 313/313/313 312/312/312
f 314/314/314 315/315/315 313/313/313
f 316/316/316 301/301/301 300/300/300
f 316/316/316 317/317/317 301/301/301
f 318/318/318 303/303/303 302/302/302
f 317/317/317 320/320/320 319/319/319
f 321/321/321 306/306/306 307/307/307
f 321/321/321 322/322/322 306/306/306
f 323/323/323 309/309/309 308/308/308
f 323/323/323 324/324/324 309/309/309
f 325/325/325 311/311/311 310/310/310
f 325/325/325 326/326/326 311/311/311
f 327/327/327 315/315/315 314/314/314
f 327/327/327 328/328/328 315/315/315
f 329/329/329 317/317/317 316/316/316
f 329/329/329 330/330/330 317/317/317
f 330/330/330 320/320/320 317/317/317
f 330/330/330 331/331/331 320/320/320
f 332/332/332 322/322/322 321/321/321
f 332/332/332 333/333/333 322/322/322
f 334/334/334 324/324/324 323/323/323
f 334/334/334 335/335/335 324/324/324
f 336/336/336 326/326/326 325/325/325
f 336/336/336 337/337/337 326/326/326
f 338/338/338 328/328/328 327/327/327
f 338/338/338 339/339/339 328/328/328
f 340/340/340 330/330/330 329/329/329
f 340/340/340 341/341/341 330/330/330
f 341/341/341 331/331/331 330/330/330
f 341/341/341 342/342/342 331/331/331
f 343/343/343 333/333/333 332/332/332
f 343/343/343 344/344/344 333/333/333
f 345/345/345 335/335/335 334/334/334
f 345/345/345 346/346/346 335/335/335
f 346/346/346 347/347/347 335/335/335
f 346/346/346 348/348/348 347/347/347
f 349/349/349 339/339/339 338/338/338
f 349/349/349 350/350/350 339/339/339
f 351/351/351 341/341/341 340/340/340
f 351/351/351 352/352/352 341/341/341
f 352/352/352 342/342/342 341/341/341
f 352/352/352 353/353/353 342/342/342
f 354/354/354 344/344/344 343/343/343
f 354/354/354 355/355/355 344/344/344
f 355/355/355 356/356/356 344/344/344
f 355/355/355 357/357/357 356/356/356
f 358/358/358 348/348/348 346/346/346
f 358/358/358 359/359/359 348/348/348
f 360/360/360 350/350/350 349/349/349
f 360/360/360 361/361/361 350/350/350
f 364/364/364 363/363/363 362/362/362
f 364/364/364 365/365/365 363/363/363
f 366/366/366 353/353/353 352/352/352
f 366/366/366 367/367/367 353/353/353
f 367/367/367 368/368/368 353/353/353
f 367/367/367 369/369/369 368/368/368
f 370/370/370 357/357/357 355/355/355
f 370/370/370 371/371/371 357/357/357
f 372/372/372 359/359/359 358/358/358
f 372/372/372 373/373/373 359/359/359
f 376/376/376 375/375/375 374/374/374
f 376/376/376 377/377/377 375/375/375
f 378/378/378 365/365/365 364/364/364
f 378/378/378 379/379/379 365/365/365
f 380/380/380 367/367/367 366/366/366
f 380/380/380 381/381/381 367/367/367
f 381/381/381 369/369/369 367/367/367
f 381/381/381 382/382/382 369/369/369
f 385/385/385 384/384/384 383/383/383
f 385/385/385 386/386/386 384/384/384
f 387/387/387 373/373/373 372/372/372
f 387/387/387 388/388/388 373/373/373
f 389/389/389 377/377/377 376/376/376
f 389/389/389 390/390/390 377/377/377
f 391/391/391 379/379/379 378/378/378
f 391/391/391 392/392/392 379/379/379
f 393/393/393 381/381/381 380/380/380
f 393/393/393 394/394/394 381/381/381
f 394/394/394 382/382/382 381/381/381
f 394/394/394 395/395/395 382/382/382
f 396/396/396 386/386/386 385/385/385
f 396/396/396 397/397/397 386/386/386
f 398/398/398 388/388/388 387/387/387
f 398/398/398 399/399/399 388/388/388
f 400/400/400 390/390/390 389/389/389
f 400/400/400 401/401/401 390/390/390
f 402/402/402 392/392/392 391/391/391
f 402/402/402 403/403/403 392/392/392
f 404/404/404 394/394/394 393/393/393
f 404/404/404 405/405/405 394/394/394
f 405/405/405 395/395/395 394/394/394
f 405/405/405 406/406/406 395/395/395
f 407/407/407 397/397/397 396/396/396
f 407/407/407 408/408/408 397/397/397
f 409/409/409 399/399/399 398/398/398
f 409/409/409 410/410/410 399/399/399
f 411/411/411 401/401/401 400/400/400
f 411/411/411 412/412/412 401/401/401
f 413/413/413 403/403/403 402/402/402
f 413/413/413 414/414/414 403/403/403
f 415/415/415 405/405/405 404/404/404
f 415/415/415 416/416/416 405/405/405
f 416/416/416 406/406/406 405/405/405
f 416/416/416 417/417/417 406/406/406
f 418/418/418 408/408/408 407/407/407
f 418/418/418 419/419/419 408/408/408
f 420/420/420 410/410/410 409/409/409
f 420/420/420 421/421/421 410/410/410
f 422/422/422 412/412/412 411/411/411
f 422/422/422 423/423/423 412/412/412
f 424/424/424 414/414/414 413/413/413
f 424/424/424 425/425/425 414/414/414
f 426/426/426 416/416/416 415/415/415
f 426/426/426 427/427/427 416/416/416
f 427/427/427 417/417/417 416/416/416
f 427/427/427 428/428/428 417/417/417
f 429/429/429 419/419/419 418/418/418
f 429/429/429 430/430/430 419/419/419
f 431/431/431 421/421/421 420/420/420
f 431/431/431 432/432/432 421/421/421
f 433/433/433 423/423/423 422/422/422
f 433/433/433 434/434/434 423/423/423
f 435/435/435 425/425/425 424/424/424
f 435/435/435 436/436/436 425/425/425
f 437/437/437 427/427/427 426/426/426
f 437/437/437 438/438/438 427/427/427
f 438/438/438 428/428/428 427/427/427
f 438/438/438 439/439/439 428/428/428
f 440/440/440 430/430/430 429/429/429
f 440/440/440 441/441/441 430/430/430
f 442/442/442 432/432/432 431/431/431
f 442/442/442 443/443/443 432/432/432
f 444/444/444 434/434/434 433/433/433
f 444/444/444 445/445/445 434/434/434
f 446/446/446 436/436/436 435/435/435
f 446/446/446 447/447/447 436/436/436
f 448/448/448 438/438/438 437/437/437
f 448/448/448 449/449/449 438/438/438
f 449/449/449 439/439/439 438/438/438
f 449/449/449 450/450/450 439/439/439
f 451/451/451 441/441/441 440/440/440
f 451/451/451 452/452/452 441/441/441
f 453/453/453 443/443/443 442/442/442
f 453/453/453 454/454/454 443/443/443
f 455/455/455 445/445/445 444/444/444
f 455/455/455 456/456/456 445/445/445
f 457/457/457 447/447/447 446/446/446
f 457/457/457 458/458/458 447/447/447
f 459/459/459 449/449/449 448/448/448
f 459/459/459 460/460/460 449/449/449
f 460/460/460 450/450/450 449/449/449
f 460/460/460 461/461/461 450/450/450
f 462/462/462 452/452/452 451/451/451
f 462/462/462 463/463/463 452/452/452
f 464/464/464 454/454/454 453/453/453
f 464/464/464 465/465/465 454/454/454
f 466/466/466 456/456/456 455/455/455
f 466/466/466 467/467/467 456/456/456
f 468/468/468 458/458/458 457/457/457
f 468/468/468 469/469/469 458/458/458
f 470/470/470 460/460/460 459/459/459
f 470/470/470 471/471/471 460/460/460
f 471/471/471 461/461/461 460/460/460
f 471/471/471 472/472/472 461/461/461
f 473/473/473 463/463/463 462/462/462
f 473/473/473 474/474/474 463/463/463
f 475/475/475 465/465/465 464/464/464
f 475/475/475 476/476/476 465/465/465
f 477/477/477 467/467/467 466/466/466
f 477/477/477 478/478/478 467/467/467
f 479/479/479 469/469/469 468/468/468
f 479/479/479 480/480/480 469/469/469
f 481/481/481 471/471/471 470/470/470
f 481/481/481 482/482/482 471/471/471
f 482/482/482 472/472/472 471/471/471
f 482/482/482 483/483/483 472/472/472
f 484/484/484 474/474/474 473/473/473
f 484/484/484 485/485/485 474/474/474
f 486/486/486 476/476/476 475/475/475
f 486/486/486 487/487/487 476/476/476
f 488/488/488 478/478/478 477/477/477
f 488/488/488 489/489/489 478/478/478
f 490/490/490 480/480/480 479/479/479
f 490/490/490 491/491/491 480/480/480
f 492/492/492 482/482/482 481/481/481
f 492/492/492 493/493/493 482/482/482
f 496/496/496 495/495/495 494/494/494
f 496/496/496 497/497/497 495/495/495
f 498/498/498 485/485/485 484/484/484
f 498/498/498 499/499/499 485/485/485
f 500/500/500 487/487/487 486/486/486
f 500/500/500 501/501/501 487/487/487
f 502/502/502 489/489/489 488/488/488
f 502/502/502 503/503/503 489/489/489
f 504/504/504 491/491/491 490/490/490
f 504/504/504 505/505/505 491/491/491
f 506/506/506 493/493/493 492/492/492
f 506/506/506 507/507/507 493/493/493
f 508/508/508 497/497/497 496/496/496
f 508/508/508 509/509/509 497/497/497
f 510/510/510 499/499/499 498/498/498
f 510/510/510 511/511/511 499/499/499
f 512/512/512 501/501/501 500/500/500
f 512/512/512 513/513/513 501/501/501
f 514/514/514 503/503/503 502/502/502
f 514/514/514 515/515/515 503/503/503
f 516/516/516 505/505/505 504/504/504
f 516/516/516 517/517/517 505/505/505
f 518/518/518 507/507/507 506/506/506
f 518/518/518 519/519/519 507/507/507
f 520/520/520 509/509/509 508/508/508
f 520/520/520 521/521/521 509/509/509
f 522/522/522 511/511/511 510/510/510
f 522/522/522 523/523/523 511/511/511
f 524/524/524 513/513/513 512/512/512
f 524/524/524 525/525/525 513/513/513
f 526/526/526 515/515/515 514/514/514
f 526/526/526 527/527/527 515/515/515
f 528/528/528 517/517/517 516/516/516
f 528/528/528 529/529/529 517/517/517
f 530/530/530 519/519/519 518/518/518
f 530/530/530 531/531/531 519/519/519
f 532/532/532 521/521/521 520/520/520
f 532/532/532 533/533/533 521/521/521
f 533/533/533 534/534/534 521/521/521
f 533/533/533 535/535/535 534/534/534
f 536/536/536 525/525/525 524/524/524
f 536/536/536 537/537/537 525/525/525
f 538/538/538 527/527/527 526/526/526
f 538/538/538 539/539/539 527/527/527
f 540/540/540 529/529/529 528/528/528
f 539/539/539 542/542/542 541/541/541
f 543/543/543 531/531/531 530/530/530
f 543/543/543 544/544/544 531/531/531
f 545/545/545 533/533/533 532/532/532
f 545/545/545 546/546/546 533/533/533
f 546/546/546 535/535/535 533/533/533
f 546/546/546 547/547/547 535/535/535
f 548/548/548 537/537/537 536/536/536
f 548/548/548 549/549/549 537/537/537
f 550/550/550 539/539/539 538/538/538
f 550/550/550 551/551/551 539/539/539
f 551/551/551 542/542/542 539/539/539
f 551/551/551 552/552/552 542/542/542
f 553/553/553 544/544/544 543/543/543
f 553/553/553 554/554/554 544/544/544
f 555/555/555 546/546/546 545/545/545
f 555/555/555 556/556/556 546/546/546
f 556/556/556 547/547/547 546/546/546
f 556/556/556 557/557/557 547/547/547
f 558/558/558 549/549/549 548/548/548
f 558/558/558 559/559/559 549/549/549
f 560/560/560 551/551/551 550/550/550
f 560/560/560 561/561/561 551/551/551
f 561/561/561 552/552/552 551/551/551
f 561/561/561 562/562/562 552/552/552
f 563/563/563 554/554/554 553/553/553
f 563/563/563 564/564/564 554/554/554
f 565/565/565 556/556/556 555/555/555
f 564/564/564 567/567/567 566/566/566
f 568/568/568 557/557/557 556/556/556
f 568/568/568 569/569/569 557/557/557
f 570/570/570 559/559/559 558/558/558
f 569/569/569 572/572/572 571/571/571
f 573/573/573 561/561/561 560/560/560
f 573/573/573 574/574/574 561/561/561
f 574/574/574 562/562/562 561/561/561
f 574/574/574 575/575/575 562/562/562
f 576/576/576 564/564/564 563/563/563
f 576/576/576 577/577/577 564/564/564
f 577/577/577 567/567/567 564/564/564
f 577/577/577 578/578/578 567/567/567
f 579/579/579 569/569/569 568/568/568
f 579/579/579 580/580/580 569/569/569
f 580/580/580 572/572/572 569/569/569
f 580/580/580 581/581/581 572/572/572
f 582/582/582 574/574/574 573/573/573
f 582/582/582 583/583/583 574/574/574
f 583/583/583 575/575/575 574/574/574
f 583/583/583 584/584/584 575/575/575
f 585/585/585 577/577/577 576/576/576
f 585/585/585 586/586/586 577/577/577
f 586/586/586 578/578/578 577/577/577
f 586/586/586 587/587/587 578/578/578
f 588/588/588 580/580/580 579/579/579
f 588/588/588 589/589/589 580/580/580
f 589/589/589 581/581/581 580/580/580
f 589/589/589 590/590/590 581/581/581
f 591/591/591 583/583/583 582/582/582
f 591/591/591 592/592/592 583/583/583
f 592/592/592 584/584/584 583/583/583
f 592/592/592 593/593/593 584/584/584
f 594/594/594 586/586/586 585/585/585
f 594/594/594 595/595/595 586/586/586
f 595/595/595 587/587/587 586/586/586
f 595/595/595 596/596/596 587/587/587
f 597/597/597 589/589/589 588/588/588
f 597/597/597 598/598/598 589/589/589
f 598/598/598 590/590/590 589/589/589
f 598/598/598 599/599/599 590/590/590
f 600/600/600 592/592/592 591/591/591
f 600/600/600 601/601/601 592/592/592
f 601/601/601 593/593/593 592/592/592
f 601/601/601 602/602/602 593/593/593
f 603/603/603 595/595/595 594/594/594
f 603/603/603 604/604/604 595/595/595
f 604/604/604 596/596/596 595/595/595
f 604/604/604 605/605/605 596/596/596
f 606/606/606 598/598/598 597/597/597
f 606/606/606 607/607/607 598/598/598
f 607/607/607 599/599/599 598/598/598
f 607/607/607 608/608/608 599/599/599
